# lizard mesh
v 0.113114 1.053762 -0.113073
v 0.061217 1.053762 -0.147749
v 0.000000 1.053762 -0.159926
v -0.061217 1.053762 -0.147749
v -0.113114 1.053762 -0.113073
v -0.147791 1.053762 -0.061176
v -0.159968 1.053762 0.000041
v -0.147791 1.053762 0.061258
v -0.113114 1.053762 0.113155
v -0.061217 1.053762 0.147832
v 0.000000 1.053762 0.160009
v 0.061217 1.053762 0.147832
v 0.113114 1.053762 0.113155
v 0.147791 1.053762 0.061258
v 0.159968 1.053762 0.000041
v 0.147791 1.053762 -0.061176
v 0.099887 0.945085 -0.241107
v 0.000000 0.945085 -0.260976
v 0.000000 1.003946 -0.239982
v 0.091853 1.003946 -0.221711
v 0.000000 1.041931 -0.204080
v 0.078114 1.041931 -0.188542
v 0.184567 0.945085 -0.184526
v 0.169722 1.003946 -0.169681
v 0.144336 1.041931 -0.144294
v 0.241149 0.945085 -0.099846
v 0.221753 1.003946 -0.091812
v 0.188584 1.041931 -0.078073
v 0.261017 0.945085 0.000041
v 0.240023 1.003946 0.000041
v 0.204121 1.041931 0.000041
v 0.241149 0.945085 0.099928
v 0.221753 1.003946 0.091894
v 0.188584 1.041931 0.078155
v 0.184567 0.945085 0.184608
v 0.169722 1.003946 0.169763
v 0.144336 1.041931 0.144377
v 0.099887 0.945085 0.241190
v 0.091853 1.003946 0.221794
v 0.078114 1.041931 0.188625
v 0.000000 0.945085 0.261059
v 0.000000 1.003946 0.240065
v 0.000000 1.041931 0.204163
v -0.099887 0.945085 0.241190
v -0.091853 1.003946 0.221794
v -0.078114 1.041931 0.188625
v -0.184567 0.945085 0.184608
v -0.169722 1.003946 0.169763
v -0.144336 1.041931 0.144377
v -0.241149 0.945085 0.099928
v -0.221753 1.003946 0.091894
v -0.188584 1.041931 0.078155
v -0.261017 0.945085 0.000041
v -0.240023 1.003946 0.000041
v -0.204121 1.041931 0.000041
v -0.241149 0.945085 -0.099846
v -0.221753 1.003946 -0.091812
v -0.188584 1.041931 -0.078073
v -0.184567 0.945085 -0.184526
v -0.169722 1.003946 -0.169681
v -0.144336 1.041931 -0.144294
v -0.099887 0.945085 -0.241107
v -0.091853 1.003946 -0.221711
v -0.078114 1.041931 -0.188542
v 0.131874 0.451604 -0.318330
v 0.243671 0.451604 -0.243629
v -0.000000 0.451604 -0.344561
v -0.131874 0.451604 -0.318330
v 0.318371 0.451604 -0.131832
v 0.344602 0.451604 0.000041
v 0.318371 0.451604 0.131915
v 0.243671 0.451604 0.243712
v 0.131874 0.451604 0.318412
v -0.000000 0.451604 0.344644
v -0.131874 0.451604 0.318412
v -0.243671 0.451604 0.243712
v -0.318371 0.451604 0.131915
v -0.344602 0.451604 0.000041
v -0.318371 0.451604 -0.131832
v -0.243671 0.451604 -0.243629
v -0.357771 0.069033 0.000041
v -0.330537 0.069033 0.136954
v -0.252982 0.069033 0.253023
v -0.136913 0.069033 0.330578
v -0.000000 0.069033 -0.357729
v -0.136913 0.069033 -0.330496
v 0.357770 0.069033 0.000041
v 0.330537 0.069033 -0.136872
v -0.252982 0.069033 -0.252941
v -0.330537 0.069033 -0.136872
v 0.136913 0.069033 -0.330496
v 0.252982 0.069033 -0.252941
v 0.252982 0.069033 0.253023
v 0.330537 0.069033 0.136954
v 0.136913 0.069033 0.330578
v -0.000000 0.069033 0.357812
v -0.000000 0.069033 0.277936
v 0.056450 0.069033 0.272896
v 0.107244 0.069033 0.258951
v -0.107231 0.069033 0.258919
v -0.056450 0.069033 0.272896
v -0.258878 0.069033 0.107272
v -0.277895 0.069033 0.000041
v -0.272854 0.069033 0.056492
v -0.110355 0.069033 0.258089
v -0.200918 0.069033 0.200959
v -0.159227 0.069033 0.234001
v 0.110355 0.069033 0.258089
v 0.159226 0.069033 0.234001
v 0.200918 0.069033 0.200959
v -0.258048 0.069033 0.110397
v -0.233960 0.069033 0.159268
v -0.258910 0.069033 -0.107203
v -0.272854 0.069033 -0.056409
v 0.233959 0.069033 0.159268
v 0.258047 0.069033 0.110397
v 0.258910 0.069033 0.107285
v 0.110355 0.069033 -0.258006
v 0.107231 0.069033 -0.258837
v 0.200918 0.069033 -0.200876
v 0.159226 0.069033 -0.233918
v -0.000000 0.069033 -0.277853
v 0.056450 0.069033 -0.272813
v 0.258878 0.069033 -0.107190
v 0.277894 0.069033 0.000041
v 0.272854 0.069033 -0.056409
v 0.272854 0.069033 0.056492
v 0.258047 0.069033 -0.110314
v 0.233959 0.069033 -0.159185
v -0.107244 0.069033 -0.258869
v -0.110355 0.069033 -0.258006
v -0.159227 0.069033 -0.233918
v -0.200918 0.069033 -0.200876
v -0.056450 0.069033 -0.272813
v -0.233960 0.069033 -0.159185
v -0.258048 0.069033 -0.110314
v 0.148477 0.208661 -0.148436
v 0.155489 0.226352 -0.104523
v 0.108099 0.248251 -0.108058
v 0.104564 0.226352 -0.155448
v 0.055405 0.261450 -0.111102
v 0.053993 0.237162 -0.160769
v 0.160811 0.237162 -0.053952
v 0.111143 0.261450 -0.055364
v 0.056755 0.276165 -0.056714
v 0.171817 0.171801 -0.171775
v 0.183409 0.183394 -0.144449
v 0.144490 0.183394 -0.183368
v 0.102823 0.195432 -0.195406
v 0.053335 0.203448 -0.203422
v -0.000000 0.240844 -0.162768
v -0.000000 0.206274 -0.206248
v -0.000000 0.265885 -0.112352
v -0.000000 0.281116 -0.057311
v 0.057352 0.281116 0.000041
v -0.000000 0.286255 0.000041
v 0.112393 0.265885 0.000041
v 0.162809 0.240844 0.000041
v 0.203463 0.203448 -0.053294
v 0.206289 0.206274 0.000041
v 0.195447 0.195432 -0.102782
v -0.053994 0.237162 -0.160769
v -0.055405 0.261450 -0.111102
v -0.108100 0.248251 -0.108058
v -0.104564 0.226352 -0.155448
v -0.155489 0.226352 -0.104523
v -0.148477 0.208661 -0.148436
v -0.056756 0.276165 -0.056714
v -0.111144 0.261450 -0.055364
v -0.160811 0.237162 -0.053952
v -0.053335 0.203448 -0.203422
v -0.102824 0.195432 -0.195406
v -0.144490 0.183394 -0.183368
v -0.183409 0.183394 -0.144449
v -0.171817 0.171801 -0.171775
v -0.195447 0.195432 -0.102782
v -0.203463 0.203448 -0.053294
v -0.162809 0.240844 0.000041
v -0.206289 0.206274 0.000041
v -0.112393 0.265885 0.000041
v -0.057353 0.281116 0.000041
v 0.160811 0.237162 0.054035
v 0.155489 0.226352 0.104606
v 0.108099 0.248251 0.108141
v 0.111143 0.261450 0.055446
v 0.055405 0.261450 0.111185
v 0.056755 0.276165 0.056797
v 0.148477 0.208661 0.148518
v 0.104564 0.226352 0.155530
v 0.053993 0.237162 0.160852
v 0.203463 0.203447 0.053376
v -0.000000 0.281116 0.057394
v -0.000000 0.265885 0.112434
v -0.000000 0.240844 0.162850
v 0.053335 0.203447 0.203504
v -0.000000 0.206274 0.206331
v 0.102823 0.195432 0.195488
v 0.144490 0.183394 0.183451
v 0.183409 0.183394 0.144531
v 0.171817 0.171801 0.171858
v 0.195447 0.195432 0.102865
v -0.056756 0.276165 0.056797
v -0.055405 0.261450 0.111185
v -0.108100 0.248251 0.108141
v -0.111144 0.261450 0.055446
v -0.155489 0.226352 0.104606
v -0.160811 0.237162 0.054035
v -0.053994 0.237162 0.160852
v -0.104564 0.226352 0.155530
v -0.148477 0.208661 0.148518
v -0.203463 0.203448 0.053376
v -0.195447 0.195432 0.102865
v -0.183409 0.183394 0.144531
v -0.144490 0.183394 0.183451
v -0.171817 0.171801 0.171858
v -0.102824 0.195432 0.195488
v -0.053335 0.203448 0.203504
v -0.208676 0.148462 -0.148436
v -0.226368 0.155474 -0.104523
v -0.248266 0.108084 -0.108058
v -0.226368 0.104549 -0.155448
v -0.237178 0.160796 -0.053952
v -0.261465 0.111128 -0.055364
v -0.183409 0.144475 -0.183368
v -0.195447 0.102808 -0.195406
v -0.265900 0.112378 0.000041
v -0.240860 0.162794 0.000041
v -0.237178 0.160796 0.054035
v -0.226368 0.155474 0.104606
v -0.248266 0.108084 0.108141
v -0.261465 0.111128 0.055446
v -0.208676 0.148462 0.148518
v -0.226368 0.104549 0.155530
v -0.195447 0.102808 0.195488
v -0.183409 0.144475 0.183451
v 0.248266 0.108084 -0.108058
v 0.226367 0.104549 -0.155448
v 0.226367 0.155474 -0.104523
v 0.208676 0.148462 -0.148436
v 0.261465 0.111128 -0.055364
v 0.237178 0.160795 -0.053952
v 0.195447 0.102808 -0.195406
v 0.183409 0.144475 -0.183368
v 0.240859 0.162794 0.000041
v 0.265900 0.112378 0.000041
v 0.248266 0.108084 0.108141
v 0.261465 0.111128 0.055446
v 0.226367 0.155474 0.104606
v 0.237177 0.160795 0.054035
v 0.226367 0.104549 0.155530
v 0.208676 0.148462 0.148518
v 0.183409 0.144475 0.183451
v 0.195447 0.102808 0.195488
v 0.155489 0.104549 -0.226326
v 0.108099 0.108084 -0.248225
v 0.055405 0.111128 -0.261424
v 0.148477 0.148462 -0.208635
v 0.104564 0.155474 -0.226326
v 0.053993 0.160795 -0.237136
v -0.000000 0.112378 -0.265859
v -0.000000 0.162794 -0.240818
v -0.055405 0.111128 -0.261424
v -0.108100 0.108084 -0.248225
v -0.155489 0.104549 -0.226326
v -0.053994 0.160795 -0.237136
v -0.104565 0.155474 -0.226326
v -0.148477 0.148462 -0.208635
v 0.148477 0.148462 0.208717
v 0.155489 0.104549 0.226409
v 0.108099 0.108084 0.248307
v 0.104564 0.155474 0.226409
v 0.055405 0.111128 0.261506
v 0.053993 0.160795 0.237219
v -0.000000 0.162794 0.240901
v -0.000000 0.112378 0.265942
v -0.053994 0.160795 0.237219
v -0.055405 0.111128 0.261506
v -0.108100 0.108084 0.248307
v -0.104564 0.155474 0.226409
v -0.155489 0.104549 0.226409
v -0.148477 0.148462 0.208717
f 1 2 3
f 1 3 4
f 1 4 5
f 1 5 6
f 1 6 7
f 1 7 8
f 1 8 9
f 1 9 10
f 1 10 11
f 1 11 12
f 1 12 13
f 1 13 14
f 1 14 15
f 1 15 16
f 17 18 19
f 17 19 20
f 20 19 21
f 20 21 22
f 23 17 20
f 23 20 24
f 24 20 22
f 24 22 25
f 26 23 24
f 26 24 27
f 27 24 25
f 27 25 28
f 29 26 27
f 29 27 30
f 30 27 28
f 30 28 31
f 32 29 30
f 32 30 33
f 33 30 31
f 33 31 34
f 35 32 33
f 35 33 36
f 36 33 34
f 36 34 37
f 38 35 36
f 38 36 39
f 39 36 37
f 39 37 40
f 41 38 39
f 41 39 42
f 42 39 40
f 42 40 43
f 44 41 42
f 44 42 45
f 45 42 43
f 45 43 46
f 47 44 45
f 47 45 48
f 48 45 46
f 48 46 49
f 50 47 48
f 50 48 51
f 51 48 49
f 51 49 52
f 53 50 51
f 53 51 54
f 54 51 52
f 54 52 55
f 56 53 54
f 56 54 57
f 57 54 55
f 57 55 58
f 59 56 57
f 59 57 60
f 60 57 58
f 60 58 61
f 62 59 60
f 62 60 63
f 63 60 61
f 63 61 64
f 18 62 63
f 18 63 19
f 19 63 64
f 19 64 21
f 3 2 22
f 3 22 21
f 65 17 23
f 65 23 66
f 2 1 25
f 2 25 22
f 67 18 17
f 67 17 65
f 68 62 18
f 68 18 67
f 4 3 21
f 4 21 64
f 66 23 26
f 66 26 69
f 1 16 28
f 1 28 25
f 69 26 29
f 69 29 70
f 16 15 31
f 16 31 28
f 70 29 32
f 70 32 71
f 15 14 34
f 15 34 31
f 71 32 35
f 71 35 72
f 14 13 37
f 14 37 34
f 72 35 38
f 72 38 73
f 13 12 40
f 13 40 37
f 73 38 41
f 73 41 74
f 12 11 43
f 12 43 40
f 74 41 44
f 74 44 75
f 11 10 46
f 11 46 43
f 75 44 47
f 75 47 76
f 10 9 49
f 10 49 46
f 76 47 50
f 76 50 77
f 9 8 52
f 9 52 49
f 77 50 53
f 77 53 78
f 8 7 55
f 8 55 52
f 78 53 56
f 78 56 79
f 7 6 58
f 7 58 55
f 79 56 59
f 79 59 80
f 6 5 61
f 6 61 58
f 80 59 62
f 80 62 68
f 5 4 64
f 5 64 61
f 81 82 77
f 81 77 78
f 83 84 75
f 83 75 76
f 85 86 68
f 85 68 67
f 87 88 69
f 87 69 70
f 86 89 80
f 86 80 68
f 90 81 78
f 90 78 79
f 82 83 76
f 82 76 77
f 91 85 67
f 91 67 65
f 92 91 65
f 92 65 66
f 93 94 71
f 93 71 72
f 88 92 66
f 88 66 69
f 95 93 72
f 95 72 73
f 94 87 70
f 94 70 71
f 96 95 73
f 96 73 74
f 89 90 79
f 89 79 80
f 84 96 74
f 84 74 75
f 95 96 97
f 95 97 98
f 95 98 99
f 97 97 96
f 97 96 84
f 97 84 100
f 97 100 101
f 102 82 81
f 102 81 103
f 102 103 103
f 102 103 104
f 105 100 84
f 105 84 83
f 105 83 106
f 105 106 106
f 105 106 107
f 93 95 99
f 93 99 108
f 93 108 109
f 93 109 110
f 93 110 110
f 106 83 82
f 106 82 102
f 106 102 111
f 106 111 112
f 81 90 113
f 81 113 114
f 81 114 103
f 94 93 110
f 94 110 115
f 94 115 116
f 94 116 117
f 118 119 91
f 118 91 92
f 118 92 120
f 118 120 121
f 122 85 91
f 122 91 119
f 122 119 123
f 124 88 87
f 124 87 125
f 124 125 126
f 125 125 87
f 125 87 94
f 125 94 117
f 125 117 127
f 120 92 88
f 120 88 124
f 120 124 128
f 120 128 129
f 120 129 120
f 89 86 130
f 89 130 131
f 89 131 132
f 89 132 133
f 86 85 122
f 86 122 122
f 86 122 134
f 86 134 130
f 90 89 133
f 90 133 133
f 90 133 135
f 90 135 136
f 90 136 113
f 137 138 139
f 137 139 140
f 140 139 141
f 140 141 142
f 138 143 144
f 138 144 139
f 139 144 145
f 139 145 141
f 146 147 137
f 146 137 148
f 148 137 140
f 148 140 149
f 149 140 142
f 149 142 150
f 150 142 151
f 150 151 152
f 142 141 153
f 142 153 151
f 141 145 154
f 141 154 153
f 145 155 156
f 145 156 154
f 144 157 155
f 144 155 145
f 143 158 157
f 143 157 144
f 159 160 158
f 159 158 143
f 161 159 143
f 161 143 138
f 147 161 138
f 147 138 137
f 162 163 164
f 162 164 165
f 165 164 166
f 165 166 167
f 163 168 169
f 163 169 164
f 164 169 170
f 164 170 166
f 152 151 162
f 152 162 171
f 171 162 165
f 171 165 172
f 172 165 167
f 172 167 173
f 173 167 174
f 173 174 175
f 167 166 176
f 167 176 174
f 166 170 177
f 166 177 176
f 170 178 179
f 170 179 177
f 169 180 178
f 169 178 170
f 168 181 180
f 168 180 169
f 154 156 181
f 154 181 168
f 153 154 168
f 153 168 163
f 151 153 163
f 151 163 162
f 182 183 184
f 182 184 185
f 185 184 186
f 185 186 187
f 183 188 189
f 183 189 184
f 184 189 190
f 184 190 186
f 160 191 182
f 160 182 158
f 158 182 185
f 158 185 157
f 157 185 187
f 157 187 155
f 155 187 192
f 155 192 156
f 187 186 193
f 187 193 192
f 186 190 194
f 186 194 193
f 190 195 196
f 190 196 194
f 189 197 195
f 189 195 190
f 188 198 197
f 188 197 189
f 199 200 198
f 199 198 188
f 201 199 188
f 201 188 183
f 191 201 183
f 191 183 182
f 202 203 204
f 202 204 205
f 205 204 206
f 205 206 207
f 203 208 209
f 203 209 204
f 204 209 210
f 204 210 206
f 156 192 202
f 156 202 181
f 181 202 205
f 181 205 180
f 180 205 207
f 180 207 178
f 178 207 211
f 178 211 179
f 207 206 212
f 207 212 211
f 206 210 213
f 206 213 212
f 210 214 215
f 210 215 213
f 209 216 214
f 209 214 210
f 208 217 216
f 208 216 209
f 194 196 217
f 194 217 208
f 193 194 208
f 193 208 203
f 192 193 203
f 192 203 202
f 218 219 220
f 218 220 221
f 135 221 220
f 135 220 136
f 219 222 223
f 219 223 220
f 220 223 114
f 220 114 113
f 220 113 136
f 175 174 218
f 175 218 224
f 224 218 221
f 224 221 225
f 133 225 221
f 133 221 135
f 114 223 226
f 114 226 103
f 114 103 103
f 222 227 226
f 222 226 223
f 177 179 227
f 177 227 222
f 176 177 222
f 176 222 219
f 174 176 219
f 174 219 218
f 228 229 230
f 228 230 231
f 231 230 111
f 231 111 102
f 231 102 104
f 229 232 233
f 229 233 230
f 230 233 112
f 230 112 111
f 179 211 228
f 179 228 227
f 227 228 231
f 227 231 226
f 226 231 104
f 226 104 103
f 233 234 106
f 233 106 106
f 233 106 112
f 232 235 234
f 232 234 233
f 213 215 235
f 213 235 232
f 212 213 232
f 212 232 229
f 211 212 229
f 211 229 228
f 128 236 237
f 128 237 129
f 237 236 238
f 237 238 239
f 126 240 236
f 126 236 128
f 126 128 124
f 236 240 241
f 236 241 238
f 129 237 242
f 129 242 120
f 242 237 239
f 242 239 243
f 243 239 147
f 243 147 146
f 239 238 161
f 239 161 147
f 238 241 159
f 238 159 161
f 241 244 160
f 241 160 159
f 240 245 244
f 240 244 241
f 245 240 126
f 245 126 125
f 245 125 125
f 246 247 127
f 246 127 117
f 246 117 116
f 247 246 248
f 247 248 249
f 115 250 246
f 115 246 116
f 248 246 250
f 248 250 251
f 127 247 245
f 127 245 125
f 245 247 249
f 245 249 244
f 244 249 191
f 244 191 160
f 249 248 201
f 249 201 191
f 248 251 199
f 248 199 201
f 251 252 200
f 251 200 199
f 250 253 252
f 250 252 251
f 110 110 253
f 110 253 250
f 110 250 115
f 121 254 255
f 121 255 118
f 255 256 123
f 255 123 119
f 255 119 118
f 254 257 258
f 254 258 255
f 255 258 259
f 255 259 256
f 123 256 260
f 123 260 122
f 123 122 122
f 256 259 261
f 256 261 260
f 259 150 152
f 259 152 261
f 258 149 150
f 258 150 259
f 257 148 149
f 257 149 258
f 243 146 148
f 243 148 257
f 242 243 257
f 242 257 254
f 120 242 254
f 120 254 121
f 120 121 120
f 262 263 131
f 262 131 130
f 262 130 134
f 263 264 132
f 263 132 131
f 262 265 266
f 262 266 263
f 267 264 263
f 267 263 266
f 264 225 133
f 264 133 133
f 264 133 132
f 264 267 224
f 264 224 225
f 267 173 175
f 267 175 224
f 266 172 173
f 266 173 267
f 265 171 172
f 265 172 266
f 261 152 171
f 261 171 265
f 260 261 265
f 260 265 262
f 122 260 262
f 122 262 134
f 268 269 270
f 268 270 271
f 271 270 272
f 271 272 273
f 108 270 269
f 108 269 109
f 98 272 270
f 98 270 108
f 98 108 99
f 200 252 268
f 200 268 198
f 198 268 271
f 198 271 197
f 197 271 273
f 197 273 195
f 195 273 274
f 195 274 196
f 273 272 275
f 273 275 274
f 97 275 272
f 97 272 98
f 97 98 97
f 109 269 253
f 109 253 110
f 252 253 269
f 252 269 268
f 276 277 278
f 276 278 279
f 279 278 280
f 279 280 281
f 105 278 277
f 105 277 101
f 105 101 100
f 107 280 278
f 107 278 105
f 196 274 276
f 196 276 217
f 217 276 279
f 217 279 216
f 216 279 281
f 216 281 214
f 214 281 235
f 214 235 215
f 281 280 234
f 281 234 235
f 106 234 280
f 106 280 107
f 101 277 275
f 101 275 97
f 274 275 277
f 274 277 276
