# lizard mesh
v -0.062425 0.109444 -0.132443
v -0.115663 0.102421 -0.097729
v -0.098779 0.500020 -0.000031
v -0.053351 0.506013 -0.029652
v -0.129184 0.491043 0.044377
v -0.139937 0.480449 0.096809
v -0.125101 0.499578 0.100704
v -0.115490 0.509048 0.053835
v -0.104141 0.512357 0.103329
v -0.096141 0.520239 0.064320
v -0.080247 0.516842 0.104284
v -0.074085 0.522913 0.074235
v 0.000315 0.111902 -0.144544
v 0.000184 0.508110 -0.039978
v -0.088311 0.517072 0.014141
v -0.073521 0.526918 0.031282
v -0.056660 0.528058 0.048785
v 0.063004 0.109419 -0.132190
v 0.053676 0.505991 -0.029436
v -0.047704 0.522429 -0.012337
v -0.039724 0.531377 0.009245
v -0.030625 0.531493 0.031809
v 0.116100 0.102374 -0.097261
v 0.098981 0.499980 0.000369
v 0.000150 0.524304 -0.021567
v 0.000105 0.532937 0.001563
v 0.000056 0.532694 0.025892
v 0.151517 0.091839 -0.045075
v 0.129203 0.490991 0.044898
v 0.047966 0.522410 -0.012144
v 0.039902 0.531361 0.009406
v 0.030712 0.531480 0.031933
v 0.163865 0.079419 0.016423
v 0.139739 0.480392 0.097374
v 0.088463 0.517036 0.014498
v 0.073608 0.526888 0.031580
v 0.056677 0.528035 0.049014
v 0.151264 0.067003 0.077871
v 0.128987 0.469798 0.149807
v 0.115478 0.509001 0.054302
v 0.096092 0.520201 0.064709
v 0.073996 0.522883 0.074534
v 0.115632 0.056483 0.129913
v 0.098582 0.460821 0.194214
v 0.124896 0.499527 0.101209
v 0.103931 0.512316 0.103749
v 0.080035 0.516809 0.104608
v 0.062393 0.049459 0.164628
v 0.053154 0.454828 0.223835
v 0.115285 0.490058 0.148077
v 0.095931 0.504434 0.142758
v 0.073873 0.510738 0.134657
v -0.000347 0.047002 0.176729
v -0.000381 0.452731 0.234161
v 0.088106 0.482033 0.187772
v 0.073311 0.497755 0.175795
v 0.056448 0.505593 0.160106
v -0.063036 0.049485 0.164374
v -0.053873 0.454850 0.223619
v 0.047499 0.476676 0.214250
v 0.039513 0.493296 0.197833
v 0.030413 0.502159 0.177082
v -0.116132 0.056530 0.129445
v -0.099179 0.460861 0.193814
v -0.000355 0.474802 0.223480
v -0.000315 0.491736 0.205515
v -0.000268 0.500957 0.183000
v -0.151549 0.067064 0.077259
v -0.129400 0.469850 0.149285
v -0.048171 0.476695 0.214057
v -0.040112 0.493312 0.197672
v -0.030924 0.502171 0.176958
v -0.163897 0.079485 0.015761
v -0.088668 0.482069 0.187415
v -0.073818 0.497785 0.175498
v -0.056889 0.505616 0.159878
v -0.115683 0.490104 0.147611
v -0.096302 0.504473 0.142369
v -0.074209 0.510768 0.134358
v -0.151296 0.091901 -0.045686
v -0.144551 0.069733 -0.047300
v -0.156591 0.057870 0.011410
v -0.120308 0.051724 -0.040636
v -0.130329 0.041851 0.008228
v -0.092676 0.043828 -0.030488
v -0.100396 0.036222 0.007153
v -0.110506 0.079784 -0.097024
v -0.091973 0.060090 -0.082021
v -0.070849 0.050272 -0.062368
v -0.059640 0.086495 -0.130191
v -0.049637 0.065676 -0.109626
v -0.038237 0.054574 -0.083633
v 0.000305 0.088843 -0.141753
v 0.000255 0.067630 -0.119249
v 0.000196 0.056080 -0.091046
v 0.060201 0.086471 -0.129949
v 0.050106 0.065655 -0.109425
v 0.038597 0.054559 -0.083478
v 0.110931 0.079740 -0.096577
v 0.092328 0.060053 -0.081649
v 0.071122 0.050243 -0.062081
v 0.144770 0.069674 -0.046716
v 0.120493 0.051676 -0.040150
v 0.092818 0.043790 -0.030114
v 0.156568 0.057807 0.012042
v 0.130312 0.041799 0.008754
v 0.100382 0.036182 0.007558
v 0.144528 0.045944 0.070752
v 0.120292 0.031926 0.057618
v 0.092662 0.028576 0.045199
v 0.110483 0.035893 0.120476
v 0.091956 0.023560 0.099003
v 0.070835 0.022132 0.077079
v 0.059617 0.029182 0.153644
v 0.049620 0.017974 0.126609
v 0.038223 0.017829 0.098344
v -0.000328 0.026834 0.165205
v -0.000271 0.016020 0.136231
v -0.000210 0.016324 0.105756
v -0.060224 0.029206 0.153401
v -0.050123 0.017995 0.126407
v -0.038611 0.017845 0.098188
v -0.110954 0.035938 0.120029
v -0.092345 0.023597 0.098631
v -0.071136 0.022160 0.076792
v -0.144793 0.046003 0.070168
v -0.120509 0.031974 0.057132
v -0.092832 0.028614 0.044824
f 1 2 3
f 1 3 4
f 5 6 7
f 5 7 8
f 8 7 9
f 8 9 10
f 10 9 11
f 10 11 12
f 13 1 4
f 13 4 14
f 3 5 8
f 3 8 15
f 15 8 10
f 15 10 16
f 16 10 12
f 16 12 17
f 18 13 14
f 18 14 19
f 4 3 15
f 4 15 20
f 20 15 16
f 20 16 21
f 21 16 17
f 21 17 22
f 23 18 19
f 23 19 24
f 14 4 20
f 14 20 25
f 25 20 21
f 25 21 26
f 26 21 22
f 26 22 27
f 28 23 24
f 28 24 29
f 19 14 25
f 19 25 30
f 30 25 26
f 30 26 31
f 31 26 27
f 31 27 32
f 33 28 29
f 33 29 34
f 24 19 30
f 24 30 35
f 35 30 31
f 35 31 36
f 36 31 32
f 36 32 37
f 38 33 34
f 38 34 39
f 29 24 35
f 29 35 40
f 40 35 36
f 40 36 41
f 41 36 37
f 41 37 42
f 43 38 39
f 43 39 44
f 34 29 40
f 34 40 45
f 45 40 41
f 45 41 46
f 46 41 42
f 46 42 47
f 48 43 44
f 48 44 49
f 39 34 45
f 39 45 50
f 50 45 46
f 50 46 51
f 51 46 47
f 51 47 52
f 53 48 49
f 53 49 54
f 44 39 50
f 44 50 55
f 55 50 51
f 55 51 56
f 56 51 52
f 56 52 57
f 58 53 54
f 58 54 59
f 49 44 55
f 49 55 60
f 60 55 56
f 60 56 61
f 61 56 57
f 61 57 62
f 63 58 59
f 63 59 64
f 54 49 60
f 54 60 65
f 65 60 61
f 65 61 66
f 66 61 62
f 66 62 67
f 68 63 64
f 68 64 69
f 59 54 65
f 59 65 70
f 70 65 66
f 70 66 71
f 71 66 67
f 71 67 72
f 73 68 69
f 73 69 6
f 64 59 70
f 64 70 74
f 74 70 71
f 74 71 75
f 75 71 72
f 75 72 76
f 69 64 74
f 69 74 77
f 77 74 75
f 77 75 78
f 78 75 76
f 78 76 79
f 6 69 77
f 6 77 7
f 7 77 78
f 7 78 9
f 9 78 79
f 9 79 11
f 2 80 5
f 2 5 3
f 12 11 79
f 12 79 76
f 12 76 72
f 12 72 67
f 12 67 62
f 12 62 57
f 12 57 52
f 12 52 47
f 12 47 42
f 12 42 37
f 12 37 32
f 12 32 27
f 12 27 22
f 12 22 17
f 80 81 82
f 80 82 73
f 81 83 84
f 81 84 82
f 83 85 86
f 83 86 84
f 2 87 81
f 2 81 80
f 87 88 83
f 87 83 81
f 88 89 85
f 88 85 83
f 1 90 87
f 1 87 2
f 90 91 88
f 90 88 87
f 91 92 89
f 91 89 88
f 13 93 90
f 13 90 1
f 93 94 91
f 93 91 90
f 94 95 92
f 94 92 91
f 18 96 93
f 18 93 13
f 96 97 94
f 96 94 93
f 97 98 95
f 97 95 94
f 23 99 96
f 23 96 18
f 99 100 97
f 99 97 96
f 100 101 98
f 100 98 97
f 28 102 99
f 28 99 23
f 102 103 100
f 102 100 99
f 103 104 101
f 103 101 100
f 33 105 102
f 33 102 28
f 105 106 103
f 105 103 102
f 106 107 104
f 106 104 103
f 38 108 105
f 38 105 33
f 108 109 106
f 108 106 105
f 109 110 107
f 109 107 106
f 43 111 108
f 43 108 38
f 111 112 109
f 111 109 108
f 112 113 110
f 112 110 109
f 48 114 111
f 48 111 43
f 114 115 112
f 114 112 111
f 115 116 113
f 115 113 112
f 53 117 114
f 53 114 48
f 117 118 115
f 117 115 114
f 118 119 116
f 118 116 115
f 58 120 117
f 58 117 53
f 120 121 118
f 120 118 117
f 121 122 119
f 121 119 118
f 63 123 120
f 63 120 58
f 123 124 121
f 123 121 120
f 124 125 122
f 124 122 121
f 68 126 123
f 68 123 63
f 126 127 124
f 126 124 123
f 127 128 125
f 127 125 124
f 73 82 126
f 73 126 68
f 82 84 127
f 82 127 126
f 84 86 128
f 84 128 127
f 85 89 92
f 85 92 95
f 85 95 98
f 85 98 101
f 85 101 104
f 85 104 107
f 85 107 110
f 85 110 113
f 85 113 116
f 85 116 119
f 85 119 122
f 85 122 125
f 85 125 128
f 85 128 86
f 80 73 6
f 80 6 5
