# lizard mesh
v -0.051398 0.067024 -0.003423
v -0.095116 0.061256 0.025084
v -0.081252 0.387755 0.105311
v -0.043947 0.392676 0.080987
v -0.106219 0.380383 0.141777
v -0.115049 0.371683 0.184834
v -0.102866 0.387392 0.188032
v -0.094974 0.395168 0.149545
v -0.085655 0.397886 0.190187
v -0.079085 0.404358 0.158155
v -0.066033 0.401569 0.190972
v -0.060973 0.406554 0.166296
v 0.000122 0.069042 -0.013360
v 0.000014 0.394398 0.072508
v -0.072656 0.401758 0.116948
v -0.060510 0.409842 0.131025
v -0.046664 0.410779 0.145398
v 0.051601 0.067003 -0.003215
v 0.043941 0.392658 0.081165
v -0.039310 0.406157 0.095205
v -0.032757 0.413504 0.112928
v -0.025285 0.413599 0.131457
v 0.095202 0.061218 0.025468
v 0.081145 0.387722 0.105639
v -0.000013 0.407696 0.087626
v -0.000050 0.414785 0.106620
v -0.000091 0.414586 0.126598
v 0.124286 0.052567 0.068322
v 0.105962 0.380340 0.142206
v 0.039252 0.406141 0.095364
v 0.032630 0.413491 0.113060
v 0.025083 0.413589 0.131559
v 0.134426 0.042367 0.118823
v 0.114614 0.371637 0.185298
v 0.072507 0.401728 0.117242
v 0.060308 0.409818 0.131269
v 0.046405 0.410760 0.145586
v 0.124078 0.032172 0.169282
v 0.105784 0.362938 0.228354
v 0.094691 0.395130 0.149928
v 0.078772 0.404326 0.158473
v 0.060627 0.406530 0.166542
v 0.094817 0.023533 0.212018
v 0.080817 0.355566 0.264820
v 0.102425 0.387350 0.188447
v 0.085209 0.397852 0.190533
v 0.065586 0.401542 0.191238
v 0.051099 0.017765 0.240524
v 0.043512 0.350644 0.289144
v 0.094532 0.379574 0.226934
v 0.078640 0.391379 0.222565
v 0.060526 0.396556 0.215913
v -0.000422 0.015747 0.250461
v -0.000449 0.348922 0.297623
v 0.072214 0.372985 0.259530
v 0.060064 0.385895 0.249695
v 0.046217 0.392332 0.236812
v -0.051900 0.017786 0.240316
v -0.044376 0.350662 0.288967
v 0.038868 0.368585 0.281273
v 0.032311 0.382233 0.267792
v 0.024838 0.389511 0.250752
v -0.095501 0.023572 0.211634
v -0.081580 0.355598 0.264492
v -0.000428 0.367046 0.288853
v -0.000396 0.380952 0.274100
v -0.000357 0.388524 0.255611
v -0.124585 0.032222 0.168780
v -0.106397 0.362980 0.227925
v -0.039693 0.368601 0.281115
v -0.033076 0.382247 0.267660
v -0.025531 0.389521 0.250650
v -0.134725 0.042422 0.118279
v -0.072949 0.373014 0.259237
v -0.060754 0.385919 0.249451
v -0.046852 0.392350 0.236624
v -0.095132 0.379612 0.226551
v -0.079217 0.391411 0.222246
v -0.061075 0.396581 0.215668
v -0.124377 0.052617 0.067820
v -0.118838 0.034413 0.066495
v -0.128725 0.024672 0.114706
v -0.098930 0.019626 0.071967
v -0.107159 0.011518 0.112093
v -0.076240 0.013141 0.080300
v -0.082579 0.006896 0.111210
v -0.090882 0.042668 0.025663
v -0.075662 0.026496 0.037983
v -0.058316 0.018433 0.054121
v -0.049111 0.048178 -0.001573
v -0.040897 0.031082 0.015314
v -0.031536 0.021966 0.036659
v 0.000114 0.050106 -0.011068
v 0.000073 0.032687 0.007412
v 0.000024 0.023202 0.030572
v 0.049299 0.048158 -0.001375
v 0.041010 0.031065 0.015480
v 0.031559 0.021953 0.036787
v 0.090957 0.042631 0.026030
v 0.075681 0.026465 0.038289
v 0.058267 0.018410 0.054357
v 0.118745 0.034365 0.066975
v 0.098809 0.019586 0.072367
v 0.076083 0.013110 0.080608
v 0.128433 0.024620 0.115225
v 0.106873 0.011475 0.112525
v 0.082294 0.006862 0.111543
v 0.118546 0.014879 0.163436
v 0.098644 0.003368 0.152651
v 0.075955 0.000617 0.142453
v 0.090590 0.006625 0.204268
v 0.075376 -0.003502 0.186636
v 0.058031 -0.004675 0.168632
v 0.048819 0.001114 0.231505
v 0.040610 -0.008089 0.209304
v 0.031251 -0.008208 0.186094
v -0.000406 -0.000814 0.240999
v -0.000359 -0.009694 0.217206
v -0.000309 -0.009444 0.192181
v -0.049591 0.001134 0.231306
v -0.041296 -0.008072 0.209139
v -0.031843 -0.008195 0.185966
v -0.091249 0.006662 0.203901
v -0.075968 -0.003472 0.186330
v -0.058552 -0.004652 0.168396
v -0.119037 0.014927 0.162957
v -0.099096 0.003407 0.152252
v -0.076368 0.000648 0.142145
f 1 2 3
f 1 3 4
f 5 6 7
f 5 7 8
f 8 7 9
f 8 9 10
f 10 9 11
f 10 11 12
f 13 1 4
f 13 4 14
f 3 5 8
f 3 8 15
f 15 8 10
f 15 10 16
f 16 10 12
f 16 12 17
f 18 13 14
f 18 14 19
f 4 3 15
f 4 15 20
f 20 15 16
f 20 16 21
f 21 16 17
f 21 17 22
f 23 18 19
f 23 19 24
f 14 4 20
f 14 20 25
f 25 20 21
f 25 21 26
f 26 21 22
f 26 22 27
f 28 23 24
f 28 24 29
f 19 14 25
f 19 25 30
f 30 25 26
f 30 26 31
f 31 26 27
f 31 27 32
f 33 28 29
f 33 29 34
f 24 19 30
f 24 30 35
f 35 30 31
f 35 31 36
f 36 31 32
f 36 32 37
f 38 33 34
f 38 34 39
f 29 24 35
f 29 35 40
f 40 35 36
f 40 36 41
f 41 36 37
f 41 37 42
f 43 38 39
f 43 39 44
f 34 29 40
f 34 40 45
f 45 40 41
f 45 41 46
f 46 41 42
f 46 42 47
f 48 43 44
f 48 44 49
f 39 34 45
f 39 45 50
f 50 45 46
f 50 46 51
f 51 46 47
f 51 47 52
f 53 48 49
f 53 49 54
f 44 39 50
f 44 50 55
f 55 50 51
f 55 51 56
f 56 51 52
f 56 52 57
f 58 53 54
f 58 54 59
f 49 44 55
f 49 55 60
f 60 55 56
f 60 56 61
f 61 56 57
f 61 57 62
f 63 58 59
f 63 59 64
f 54 49 60
f 54 60 65
f 65 60 61
f 65 61 66
f 66 61 62
f 66 62 67
f 68 63 64
f 68 64 69
f 59 54 65
f 59 65 70
f 70 65 66
f 70 66 71
f 71 66 67
f 71 67 72
f 73 68 69
f 73 69 6
f 64 59 70
f 64 70 74
f 74 70 71
f 74 71 75
f 75 71 72
f 75 72 76
f 69 64 74
f 69 74 77
f 77 74 75
f 77 75 78
f 78 75 76
f 78 76 79
f 6 69 77
f 6 77 7
f 7 77 78
f 7 78 9
f 9 78 79
f 9 79 11
f 2 80 5
f 2 5 3
f 12 11 79
f 12 79 76
f 12 76 72
f 12 72 67
f 12 67 62
f 12 62 57
f 12 57 52
f 12 52 47
f 12 47 42
f 12 42 37
f 12 37 32
f 12 32 27
f 12 27 22
f 12 22 17
f 80 81 82
f 80 82 73
f 81 83 84
f 81 84 82
f 83 85 86
f 83 86 84
f 2 87 81
f 2 81 80
f 87 88 83
f 87 83 81
f 88 89 85
f 88 85 83
f 1 90 87
f 1 87 2
f 90 91 88
f 90 88 87
f 91 92 89
f 91 89 88
f 13 93 90
f 13 90 1
f 93 94 91
f 93 91 90
f 94 95 92
f 94 92 91
f 18 96 93
f 18 93 13
f 96 97 94
f 96 94 93
f 97 98 95
f 97 95 94
f 23 99 96
f 23 96 18
f 99 100 97
f 99 97 96
f 100 101 98
f 100 98 97
f 28 102 99
f 28 99 23
f 102 103 100
f 102 100 99
f 103 104 101
f 103 101 100
f 33 105 102
f 33 102 28
f 105 106 103
f 105 103 102
f 106 107 104
f 106 104 103
f 38 108 105
f 38 105 33
f 108 109 106
f 108 106 105
f 109 110 107
f 109 107 106
f 43 111 108
f 43 108 38
f 111 112 109
f 111 109 108
f 112 113 110
f 112 110 109
f 48 114 111
f 48 111 43
f 114 115 112
f 114 112 111
f 115 116 113
f 115 113 112
f 53 117 114
f 53 114 48
f 117 118 115
f 117 115 114
f 118 119 116
f 118 116 115
f 58 120 117
f 58 117 53
f 120 121 118
f 120 118 117
f 121 122 119
f 121 119 118
f 63 123 120
f 63 120 58
f 123 124 121
f 123 121 120
f 124 125 122
f 124 122 121
f 68 126 123
f 68 123 63
f 126 127 124
f 126 124 123
f 127 128 125
f 127 125 124
f 73 82 126
f 73 126 68
f 82 84 127
f 82 127 126
f 84 86 128
f 84 128 127
f 85 89 92
f 85 92 95
f 85 95 98
f 85 98 101
f 85 101 104
f 85 104 107
f 85 107 110
f 85 110 113
f 85 113 116
f 85 116 119
f 85 119 122
f 85 122 125
f 85 125 128
f 85 128 86
f 80 73 6
f 80 6 5
