# lizard mesh
v -0.017703 0.461764 0.248072
v -0.032528 0.459808 0.257739
v -0.026364 0.527224 0.277686
v -0.014383 0.528804 0.269873
v -0.034383 0.524856 0.289398
v -0.037219 0.522062 0.303226
v -0.032737 0.539231 0.306704
v -0.030246 0.541685 0.294557
v -0.028012 0.545531 0.307986
v -0.025884 0.547627 0.297612
v -0.020151 0.549247 0.308753
v -0.018628 0.550747 0.301326
v -0.000232 0.462449 0.244703
v -0.000264 0.529358 0.267150
v -0.023203 0.543765 0.284269
v -0.019868 0.549403 0.288825
v -0.014321 0.552019 0.295036
v 0.017225 0.461757 0.248143
v 0.013844 0.528799 0.269930
v -0.012679 0.545153 0.277407
v -0.010880 0.550589 0.282964
v -0.007887 0.552868 0.290841
v 0.032010 0.459795 0.257869
v 0.025793 0.527213 0.277791
v -0.000276 0.545639 0.275015
v -0.000287 0.551004 0.280921
v -0.000304 0.553165 0.289378
v 0.041873 0.456862 0.272401
v 0.033764 0.524843 0.289535
v 0.012116 0.545148 0.277457
v 0.010297 0.550585 0.283007
v 0.007273 0.552864 0.290871
v 0.045311 0.453403 0.289526
v 0.036543 0.522047 0.303375
v 0.022612 0.543755 0.284362
v 0.019261 0.549396 0.288904
v 0.013690 0.552013 0.295093
v 0.041802 0.449946 0.306637
v 0.033707 0.519253 0.317204
v 0.029613 0.541673 0.294678
v 0.025241 0.547617 0.297715
v 0.017971 0.550740 0.301400
v 0.031880 0.447016 0.321129
v 0.025688 0.516886 0.328916
v 0.032054 0.539218 0.306834
v 0.027326 0.545520 0.308098
v 0.019463 0.549239 0.308833
v 0.017055 0.445061 0.330796
v 0.013707 0.515305 0.336728
v 0.029563 0.536763 0.318981
v 0.025198 0.543424 0.318472
v 0.017940 0.547738 0.316260
v -0.000416 0.444376 0.334166
v -0.000413 0.514752 0.339451
v 0.022519 0.534684 0.329269
v 0.019182 0.541648 0.327259
v 0.013634 0.546466 0.322549
v -0.017873 0.445068 0.330726
v -0.014521 0.515311 0.336671
v 0.011995 0.533295 0.336131
v 0.010194 0.540462 0.333120
v 0.007199 0.545618 0.326745
v -0.032658 0.447029 0.320999
v -0.026470 0.516896 0.328810
v -0.000407 0.532809 0.338523
v -0.000399 0.540047 0.335163
v -0.000384 0.545321 0.328208
v -0.042521 0.449963 0.306467
v -0.034440 0.519267 0.317066
v -0.012799 0.533300 0.336081
v -0.010983 0.540466 0.333077
v -0.007961 0.545621 0.326714
v -0.045959 0.453422 0.289342
v -0.023295 0.534693 0.329176
v -0.019947 0.541655 0.327180
v -0.014378 0.546472 0.322493
v -0.030296 0.536775 0.318860
v -0.025927 0.543434 0.318369
v -0.018658 0.547745 0.316186
v -0.042450 0.456879 0.272231
v -0.093473 0.026922 0.163653
v -0.089316 0.013260 0.162659
v -0.096737 0.005949 0.198844
v -0.101240 0.019270 0.201525
v -0.074374 0.002161 0.166766
v -0.080550 -0.003924 0.196883
v -0.057344 -0.002706 0.173020
v -0.062102 -0.007394 0.196220
v -0.071512 0.033406 0.131578
v -0.068333 0.019455 0.132013
v -0.056910 0.007317 0.141259
v -0.043891 0.001266 0.153372
v -0.038699 0.037735 0.110183
v -0.036982 0.023591 0.111570
v -0.030817 0.010759 0.124245
v -0.023791 0.003917 0.140266
v -0.000031 0.039250 0.102724
v -0.000037 0.025038 0.104445
v -0.000068 0.011964 0.118315
v -0.000104 0.004845 0.135697
v 0.038607 0.037720 0.110339
v 0.036879 0.023576 0.111720
v 0.030657 0.010747 0.124370
v 0.023564 0.003908 0.140361
v 0.071331 0.033378 0.131866
v 0.068145 0.019427 0.132288
v 0.056680 0.007294 0.141489
v 0.043610 0.001248 0.153549
v 0.093160 0.026885 0.164030
v 0.089002 0.013224 0.163019
v 0.074039 0.002131 0.167066
v 0.056982 -0.002729 0.173251
v 0.100770 0.019230 0.201933
v 0.096273 0.005910 0.199233
v 0.080091 -0.003957 0.197207
v 0.061644 -0.007419 0.196470
v 0.093004 0.011577 0.239805
v 0.088852 -0.001402 0.235418
v 0.073915 -0.010042 0.227323
v 0.056886 -0.012106 0.219669
v 0.071042 0.005093 0.271881
v 0.067870 -0.007597 0.266064
v 0.056451 -0.015198 0.252830
v 0.043433 -0.016078 0.239317
v 0.038230 0.000765 0.293276
v 0.036519 -0.011733 0.286506
v 0.030358 -0.018640 0.269844
v 0.023333 -0.018730 0.252423
v -0.000439 -0.000750 0.300734
v -0.000427 -0.013180 0.293632
v -0.000392 -0.019845 0.275775
v -0.000354 -0.019658 0.256992
v -0.039076 0.000780 0.293120
v -0.037343 -0.011718 0.286357
v -0.031117 -0.018628 0.269720
v -0.024022 -0.018720 0.252328
v -0.071800 0.005122 0.271592
v -0.068609 -0.007569 0.265789
v -0.057140 -0.015175 0.252601
v -0.044068 -0.016060 0.239141
v -0.093629 0.011615 0.239429
v -0.089465 -0.001366 0.235058
v -0.074498 -0.010012 0.227024
v -0.057440 -0.012083 0.219438
v -0.090183 0.106101 0.219089
v -0.083268 0.112914 0.185369
v -0.079127 0.192931 0.236652
v -0.073064 0.198905 0.207084
v -0.068071 0.279761 0.254215
v -0.062859 0.284896 0.228800
v -0.057015 0.366591 0.271779
v -0.052655 0.370888 0.250516
v -0.063715 0.118687 0.156810
v -0.055918 0.203967 0.182042
v -0.048121 0.289248 0.207275
v -0.040325 0.374528 0.232507
v -0.083407 0.099285 0.252836
v -0.073186 0.186954 0.266244
v -0.062964 0.274624 0.279652
v -0.052742 0.362293 0.293059
v -0.063972 0.093504 0.281474
v -0.056143 0.181885 0.291355
v -0.048315 0.270267 0.301236
v -0.040487 0.358648 0.311118
v -0.034835 0.089638 0.300641
v -0.030595 0.178495 0.308162
v -0.026354 0.267353 0.315683
v -0.022114 0.356210 0.323204
v -0.000434 0.088275 0.307421
v -0.000430 0.177300 0.314107
v -0.000425 0.266326 0.320793
v -0.000421 0.355351 0.327480
v 0.033995 0.089624 0.300780
v 0.029760 0.178483 0.308284
v 0.025525 0.267342 0.315788
v 0.021290 0.356201 0.323292
v 0.063210 0.093478 0.281731
v 0.055377 0.181863 0.291580
v 0.047545 0.270247 0.301430
v 0.039712 0.358632 0.311280
v 0.082763 0.099251 0.253172
v 0.072523 0.186925 0.266538
v 0.062283 0.274599 0.279905
v 0.052042 0.362272 0.293271
v 0.089679 0.106064 0.219452
v 0.078587 0.192899 0.236971
v 0.067495 0.279734 0.254489
v 0.056403 0.366569 0.272008
v 0.082902 0.112880 0.185704
v 0.072645 0.198876 0.207379
v 0.062388 0.284871 0.229053
v 0.052130 0.370867 0.250727
v 0.063467 0.118661 0.157067
v 0.055603 0.203945 0.182268
v 0.047738 0.289228 0.207468
v 0.039874 0.374512 0.232669
v 0.034330 0.122527 0.137900
v 0.030054 0.207335 0.165460
v 0.025778 0.292142 0.193021
v 0.021501 0.376950 0.220582
v -0.000071 0.123890 0.131120
v -0.000111 0.208529 0.159516
v -0.000151 0.293169 0.187911
v -0.000192 0.377809 0.216307
v -0.034500 0.122541 0.137761
v -0.030300 0.207347 0.165339
v -0.026101 0.292153 0.192916
v -0.021902 0.376959 0.220494
f 1 2 3
f 1 3 4
f 5 6 7
f 5 7 8
f 8 7 9
f 8 9 10
f 10 9 11
f 10 11 12
f 13 1 4
f 13 4 14
f 3 5 8
f 3 8 15
f 15 8 10
f 15 10 16
f 16 10 12
f 16 12 17
f 18 13 14
f 18 14 19
f 4 3 15
f 4 15 20
f 20 15 16
f 20 16 21
f 21 16 17
f 21 17 22
f 23 18 19
f 23 19 24
f 14 4 20
f 14 20 25
f 25 20 21
f 25 21 26
f 26 21 22
f 26 22 27
f 28 23 24
f 28 24 29
f 19 14 25
f 19 25 30
f 30 25 26
f 30 26 31
f 31 26 27
f 31 27 32
f 33 28 29
f 33 29 34
f 24 19 30
f 24 30 35
f 35 30 31
f 35 31 36
f 36 31 32
f 36 32 37
f 38 33 34
f 38 34 39
f 29 24 35
f 29 35 40
f 40 35 36
f 40 36 41
f 41 36 37
f 41 37 42
f 43 38 39
f 43 39 44
f 34 29 40
f 34 40 45
f 45 40 41
f 45 41 46
f 46 41 42
f 46 42 47
f 48 43 44
f 48 44 49
f 39 34 45
f 39 45 50
f 50 45 46
f 50 46 51
f 51 46 47
f 51 47 52
f 53 48 49
f 53 49 54
f 44 39 50
f 44 50 55
f 55 50 51
f 55 51 56
f 56 51 52
f 56 52 57
f 58 53 54
f 58 54 59
f 49 44 55
f 49 55 60
f 60 55 56
f 60 56 61
f 61 56 57
f 61 57 62
f 63 58 59
f 63 59 64
f 54 49 60
f 54 60 65
f 65 60 61
f 65 61 66
f 66 61 62
f 66 62 67
f 68 63 64
f 68 64 69
f 59 54 65
f 59 65 70
f 70 65 66
f 70 66 71
f 71 66 67
f 71 67 72
f 73 68 69
f 73 69 6
f 64 59 70
f 64 70 74
f 74 70 71
f 74 71 75
f 75 71 72
f 75 72 76
f 69 64 74
f 69 74 77
f 77 74 75
f 77 75 78
f 78 75 76
f 78 76 79
f 6 69 77
f 6 77 7
f 7 77 78
f 7 78 9
f 9 78 79
f 9 79 11
f 2 80 5
f 2 5 3
f 12 11 79
f 12 79 76
f 12 76 72
f 12 72 67
f 12 67 62
f 12 62 57
f 12 57 52
f 12 52 47
f 12 47 42
f 12 42 37
f 12 37 32
f 12 32 27
f 12 27 22
f 12 22 17
f 81 82 83
f 81 83 84
f 82 85 86
f 82 86 83
f 85 87 88
f 85 88 86
f 89 90 82
f 89 82 81
f 90 91 85
f 90 85 82
f 91 92 87
f 91 87 85
f 93 94 90
f 93 90 89
f 94 95 91
f 94 91 90
f 95 96 92
f 95 92 91
f 97 98 94
f 97 94 93
f 98 99 95
f 98 95 94
f 99 100 96
f 99 96 95
f 101 102 98
f 101 98 97
f 102 103 99
f 102 99 98
f 103 104 100
f 103 100 99
f 105 106 102
f 105 102 101
f 106 107 103
f 106 103 102
f 107 108 104
f 107 104 103
f 109 110 106
f 109 106 105
f 110 111 107
f 110 107 106
f 111 112 108
f 111 108 107
f 113 114 110
f 113 110 109
f 114 115 111
f 114 111 110
f 115 116 112
f 115 112 111
f 117 118 114
f 117 114 113
f 118 119 115
f 118 115 114
f 119 120 116
f 119 116 115
f 121 122 118
f 121 118 117
f 122 123 119
f 122 119 118
f 123 124 120
f 123 120 119
f 125 126 122
f 125 122 121
f 126 127 123
f 126 123 122
f 127 128 124
f 127 124 123
f 129 130 126
f 129 126 125
f 130 131 127
f 130 127 126
f 131 132 128
f 131 128 127
f 133 134 130
f 133 130 129
f 134 135 131
f 134 131 130
f 135 136 132
f 135 132 131
f 137 138 134
f 137 134 133
f 138 139 135
f 138 135 134
f 139 140 136
f 139 136 135
f 141 142 138
f 141 138 137
f 142 143 139
f 142 139 138
f 143 144 140
f 143 140 139
f 84 83 142
f 84 142 141
f 83 86 143
f 83 143 142
f 86 88 144
f 86 144 143
f 87 92 96
f 87 96 100
f 87 100 104
f 87 104 108
f 87 108 112
f 87 112 116
f 87 116 120
f 87 120 124
f 87 124 128
f 87 128 132
f 87 132 136
f 87 136 140
f 87 140 144
f 87 144 88
f 80 73 6
f 80 6 5
f 81 84 145
f 81 145 146
f 146 145 147
f 146 147 148
f 148 147 149
f 148 149 150
f 150 149 151
f 150 151 152
f 152 151 73
f 152 73 80
f 89 81 146
f 89 146 153
f 153 146 148
f 153 148 154
f 154 148 150
f 154 150 155
f 155 150 152
f 155 152 156
f 156 152 80
f 156 80 2
f 84 141 157
f 84 157 145
f 145 157 158
f 145 158 147
f 147 158 159
f 147 159 149
f 149 159 160
f 149 160 151
f 151 160 68
f 151 68 73
f 141 137 161
f 141 161 157
f 157 161 162
f 157 162 158
f 158 162 163
f 158 163 159
f 159 163 164
f 159 164 160
f 160 164 63
f 160 63 68
f 137 133 165
f 137 165 161
f 161 165 166
f 161 166 162
f 162 166 167
f 162 167 163
f 163 167 168
f 163 168 164
f 164 168 58
f 164 58 63
f 133 129 169
f 133 169 165
f 165 169 170
f 165 170 166
f 166 170 171
f 166 171 167
f 167 171 172
f 167 172 168
f 168 172 53
f 168 53 58
f 129 125 173
f 129 173 169
f 169 173 174
f 169 174 170
f 170 174 175
f 170 175 171
f 171 175 176
f 171 176 172
f 172 176 48
f 172 48 53
f 125 121 177
f 125 177 173
f 173 177 178
f 173 178 174
f 174 178 179
f 174 179 175
f 175 179 180
f 175 180 176
f 176 180 43
f 176 43 48
f 121 117 181
f 121 181 177
f 177 181 182
f 177 182 178
f 178 182 183
f 178 183 179
f 179 183 184
f 179 184 180
f 180 184 38
f 180 38 43
f 117 113 185
f 117 185 181
f 181 185 186
f 181 186 182
f 182 186 187
f 182 187 183
f 183 187 188
f 183 188 184
f 184 188 33
f 184 33 38
f 113 109 189
f 113 189 185
f 185 189 190
f 185 190 186
f 186 190 191
f 186 191 187
f 187 191 192
f 187 192 188
f 188 192 28
f 188 28 33
f 109 105 193
f 109 193 189
f 189 193 194
f 189 194 190
f 190 194 195
f 190 195 191
f 191 195 196
f 191 196 192
f 192 196 23
f 192 23 28
f 105 101 197
f 105 197 193
f 193 197 198
f 193 198 194
f 194 198 199
f 194 199 195
f 195 199 200
f 195 200 196
f 196 200 18
f 196 18 23
f 101 97 201
f 101 201 197
f 197 201 202
f 197 202 198
f 198 202 203
f 198 203 199
f 199 203 204
f 199 204 200
f 200 204 13
f 200 13 18
f 97 93 205
f 97 205 201
f 201 205 206
f 201 206 202
f 202 206 207
f 202 207 203
f 203 207 208
f 203 208 204
f 204 208 1
f 204 1 13
f 93 89 153
f 93 153 205
f 205 153 154
f 205 154 206
f 206 154 155
f 206 155 207
f 207 155 156
f 207 156 208
f 208 156 2
f 208 2 1
