# lizard mesh
v -0.068144 -0.760307 -0.164474
v -0.000000 -0.760307 -0.178029
v 0.068144 -0.760307 -0.164474
v 0.125914 -0.760307 -0.125873
v 0.164515 -0.760307 -0.068103
v 0.178070 -0.760307 0.000041
v 0.164515 -0.760307 0.068185
v 0.125914 -0.760307 0.125955
v 0.068144 -0.760307 0.164556
v -0.000000 -0.760307 0.178111
v -0.068145 -0.760307 0.164556
v -0.125915 -0.760307 0.125955
v -0.164515 -0.760307 0.068185
v -0.178070 -0.760307 0.000041
v -0.164515 -0.760307 -0.068103
v -0.125914 -0.760307 -0.125873
v 0.107528 -0.717862 -0.259555
v -0.000000 -0.717862 -0.280944
v -0.000000 -0.435749 -0.367611
v 0.140694 -0.435749 -0.339625
v 0.198686 -0.717862 -0.198645
v 0.259969 -0.435749 -0.259928
v 0.259596 -0.717862 -0.107487
v 0.339666 -0.435749 -0.140653
v 0.280985 -0.717862 0.000041
v 0.367652 -0.435749 0.000041
v 0.259596 -0.717862 0.107569
v 0.339666 -0.435749 0.140736
v 0.198686 -0.717862 0.198727
v 0.259969 -0.435749 0.260010
v 0.107528 -0.717862 0.259637
v 0.140694 -0.435749 0.339707
v -0.000000 -0.717862 0.281026
v -0.000000 -0.435749 0.367693
v -0.107528 -0.717862 0.259637
v -0.140694 -0.435749 0.339707
v -0.198687 -0.717862 0.198727
v -0.259969 -0.435749 0.260010
v -0.259596 -0.717862 0.107569
v -0.339666 -0.435749 0.140735
v -0.280985 -0.717862 0.000041
v -0.367652 -0.435749 0.000041
v -0.259596 -0.717862 -0.107487
v -0.339666 -0.435749 -0.140653
v -0.198686 -0.717862 -0.198645
v -0.259969 -0.435749 -0.259928
v -0.107528 -0.717862 -0.259555
v -0.140694 -0.435749 -0.339625
v -0.138012 -0.081220 -0.333149
v -0.000000 -0.081220 -0.360601
v -0.255013 -0.081220 -0.254971
v -0.333190 -0.081220 -0.137971
v -0.360643 -0.081220 0.000041
v -0.333190 -0.081221 0.138053
v -0.255013 -0.081221 0.255054
v -0.138012 -0.081220 0.333231
v -0.000000 -0.081220 0.360684
v 0.138012 -0.081220 0.333232
v 0.255013 -0.081220 0.255054
v 0.333190 -0.081220 0.138053
v 0.360642 -0.081220 0.000041
v 0.333190 -0.081220 -0.137971
v 0.255013 -0.081220 -0.254971
v 0.138012 -0.081220 -0.333149
v -0.000000 -0.081220 0.275955
v 0.106521 -0.081220 0.257206
v 0.056272 -0.081220 0.270959
v -0.199758 -0.081221 0.199800
v -0.106535 -0.081220 0.257240
v -0.109942 -0.081220 0.256296
v -0.158473 -0.081220 0.232471
v 0.199758 -0.081220 0.199800
v 0.158473 -0.081220 0.232471
v 0.109942 -0.081220 0.256296
v -0.056273 -0.081220 0.270959
v -0.257199 -0.081221 0.106577
v -0.232430 -0.081221 0.158515
v -0.256255 -0.081221 0.109983
v 0.257164 -0.081220 0.106562
v 0.275914 -0.081220 0.000041
v 0.270918 -0.081220 0.056314
v 0.257199 -0.081220 -0.106494
v 0.270918 -0.081220 -0.056231
v 0.256255 -0.081220 0.109983
v 0.232429 -0.081220 0.158515
v 0.106535 -0.081220 -0.257158
v -0.000000 -0.081221 -0.275873
v 0.056273 -0.081220 -0.270876
v -0.106521 -0.081220 -0.257123
v -0.056273 -0.081220 -0.270876
v -0.275914 -0.081220 0.000041
v -0.270918 -0.081221 0.056314
v 0.199758 -0.081220 -0.199717
v 0.232430 -0.081220 -0.158432
v 0.256255 -0.081220 -0.109901
v 0.109942 -0.081220 -0.256213
v 0.158473 -0.081220 -0.232388
v -0.199758 -0.081220 -0.199717
v -0.158473 -0.081220 -0.232388
v -0.109942 -0.081220 -0.256214
v -0.257164 -0.081220 -0.106480
v -0.270918 -0.081220 -0.056231
v -0.256255 -0.081220 -0.109901
v -0.232430 -0.081220 -0.158432
v -0.248266 -0.113115 -0.108058
v -0.226368 -0.109579 -0.155448
v -0.226368 -0.160504 -0.104523
v -0.208676 -0.153492 -0.148436
v -0.261465 -0.116159 -0.055364
v -0.237178 -0.165826 -0.053952
v -0.195447 -0.107839 -0.195405
v -0.183409 -0.149505 -0.183368
v -0.183409 -0.188424 -0.144449
v -0.171817 -0.176832 -0.171775
v -0.195447 -0.200462 -0.102782
v -0.203463 -0.208478 -0.053294
v -0.240860 -0.167824 0.000041
v -0.206289 -0.211304 0.000041
v -0.265900 -0.117408 0.000041
v -0.248266 -0.113115 0.108141
v -0.261465 -0.116159 0.055446
v -0.226368 -0.160504 0.104606
v -0.237178 -0.165826 0.054035
v -0.226368 -0.109580 0.155530
v -0.208676 -0.153492 0.148518
v -0.203463 -0.208478 0.053376
v -0.195447 -0.200462 0.102865
v -0.183409 -0.188424 0.144531
v -0.183409 -0.149505 0.183451
v -0.171817 -0.176832 0.171858
v -0.195447 -0.107839 0.195488
v -0.148477 -0.213691 -0.148436
v -0.155489 -0.231383 -0.104523
v -0.108100 -0.253281 -0.108058
v -0.104564 -0.231383 -0.155448
v -0.055405 -0.266480 -0.111102
v -0.053994 -0.242193 -0.160769
v -0.160811 -0.242193 -0.053952
v -0.111144 -0.266480 -0.055364
v -0.056756 -0.281195 -0.056714
v -0.144490 -0.188424 -0.183368
v -0.102824 -0.200462 -0.195406
v -0.053335 -0.208478 -0.203422
v -0.000000 -0.245875 -0.162768
v -0.000000 -0.211304 -0.206248
v -0.000000 -0.270915 -0.112352
v -0.000000 -0.286146 -0.057311
v -0.057353 -0.286146 0.000041
v -0.000000 -0.291285 0.000041
v -0.112393 -0.270915 0.000041
v -0.162809 -0.245875 0.000041
v 0.053993 -0.242193 -0.160769
v 0.055405 -0.266480 -0.111102
v 0.108099 -0.253281 -0.108058
v 0.104564 -0.231383 -0.155448
v 0.155489 -0.231383 -0.104523
v 0.148477 -0.213691 -0.148436
v 0.056755 -0.281195 -0.056714
v 0.111143 -0.266480 -0.055364
v 0.160811 -0.242193 -0.053952
v 0.053335 -0.208478 -0.203422
v 0.102823 -0.200462 -0.195405
v 0.144490 -0.188424 -0.183368
v 0.183409 -0.188424 -0.144449
v 0.171817 -0.176832 -0.171775
v 0.195447 -0.200462 -0.102782
v 0.203463 -0.208478 -0.053294
v 0.162809 -0.245875 0.000041
v 0.206289 -0.211304 0.000041
v 0.112393 -0.270915 0.000041
v 0.057352 -0.286146 0.000041
v -0.160811 -0.242193 0.054035
v -0.155489 -0.231383 0.104606
v -0.108100 -0.253281 0.108141
v -0.111144 -0.266480 0.055446
v -0.055405 -0.266480 0.111185
v -0.056756 -0.281195 0.056797
v -0.148477 -0.213691 0.148518
v -0.104565 -0.231383 0.155530
v -0.053994 -0.242193 0.160852
v -0.000000 -0.286146 0.057394
v -0.000000 -0.270915 0.112434
v -0.000000 -0.245875 0.162851
v -0.053335 -0.208478 0.203504
v -0.000000 -0.211304 0.206331
v -0.102824 -0.200462 0.195488
v -0.144490 -0.188424 0.183451
v 0.056755 -0.281195 0.056797
v 0.055405 -0.266480 0.111185
v 0.108099 -0.253281 0.108141
v 0.111143 -0.266480 0.055446
v 0.155489 -0.231383 0.104606
v 0.160811 -0.242193 0.054035
v 0.053993 -0.242193 0.160852
v 0.104564 -0.231383 0.155530
v 0.148477 -0.213691 0.148518
v 0.203463 -0.208478 0.053376
v 0.195447 -0.200462 0.102865
v 0.183409 -0.188424 0.144531
v 0.144490 -0.188424 0.183451
v 0.171816 -0.176832 0.171858
v 0.102823 -0.200462 0.195488
v 0.053335 -0.208478 0.203504
v 0.208676 -0.153492 -0.148436
v 0.226367 -0.160504 -0.104523
v 0.248266 -0.113115 -0.108058
v 0.226367 -0.109580 -0.155448
v 0.237177 -0.165826 -0.053952
v 0.261465 -0.116159 -0.055364
v 0.183409 -0.149505 -0.183368
v 0.195447 -0.107839 -0.195405
v 0.265900 -0.117408 0.000041
v 0.240859 -0.167824 0.000041
v 0.237177 -0.165826 0.054035
v 0.226367 -0.160504 0.104606
v 0.248266 -0.113115 0.108141
v 0.261465 -0.116159 0.055447
v 0.208676 -0.153492 0.148518
v 0.226367 -0.109580 0.155530
v 0.195447 -0.107839 0.195488
v 0.183409 -0.149505 0.183451
v 0.148477 -0.153492 -0.208635
v 0.155489 -0.109580 -0.226326
v 0.108099 -0.113115 -0.248225
v 0.104564 -0.160504 -0.226326
v 0.055405 -0.116159 -0.261424
v 0.053993 -0.165826 -0.237136
v -0.000000 -0.167824 -0.240818
v -0.000000 -0.117408 -0.265859
v -0.053994 -0.165826 -0.237136
v -0.055405 -0.116159 -0.261424
v -0.108100 -0.113115 -0.248225
v -0.104564 -0.160504 -0.226326
v -0.155489 -0.109580 -0.226326
v -0.148477 -0.153492 -0.208635
v 0.155489 -0.109580 0.226409
v 0.108099 -0.113115 0.248307
v 0.055405 -0.116159 0.261506
v 0.148477 -0.153492 0.208718
v 0.104564 -0.160504 0.226409
v 0.053993 -0.165826 0.237219
v -0.000000 -0.117408 0.265942
v -0.000000 -0.167824 0.240901
v -0.055405 -0.116159 0.261506
v -0.108100 -0.113115 0.248307
v -0.155489 -0.109580 0.226409
v -0.053994 -0.165826 0.237219
v -0.104565 -0.160504 0.226409
v -0.148477 -0.153492 0.208717
v 0.000000 -0.988583 -0.148256
v 0.000000 -0.700370 -0.209392
v 0.060277 -0.697883 -0.197663
v 0.060277 -0.986095 -0.136527
v 0.111377 -0.690798 -0.164262
v 0.111377 -0.979010 -0.103126
v 0.145521 -0.680194 -0.114274
v 0.145521 -0.968407 -0.053139
v 0.157511 -0.667687 -0.055310
v 0.157511 -0.955899 0.005826
v 0.145521 -0.655179 0.003655
v 0.145521 -0.943392 0.064791
v 0.111377 -0.644576 0.053643
v 0.111377 -0.932788 0.114779
v 0.060277 -0.637491 0.087044
v 0.060277 -0.925703 0.148180
v 0.000000 -0.635003 0.098773
v 0.000000 -0.923215 0.159909
v -0.060277 -0.637491 0.087044
v -0.060277 -0.925703 0.148180
v -0.111377 -0.644576 0.053643
v -0.111377 -0.932788 0.114779
v -0.145521 -0.655179 0.003655
v -0.145521 -0.943392 0.064791
v -0.157511 -0.667687 -0.055310
v -0.157511 -0.955899 0.005826
v -0.145521 -0.680194 -0.114274
v -0.145521 -0.968407 -0.053139
v -0.111377 -0.690798 -0.164262
v -0.111377 -0.979010 -0.103126
v 0.048320 -0.691893 -0.169426
v 0.000000 -0.693887 -0.178829
v -0.048320 -0.691893 -0.169426
v -0.089285 -0.686213 -0.142651
v -0.116656 -0.677713 -0.102578
v -0.126267 -0.667687 -0.055310
v -0.116656 -0.657660 -0.008041
v -0.089285 -0.649160 0.032032
v -0.048320 -0.643480 0.058807
v 0.000000 -0.641486 0.068210
v 0.048320 -0.643480 0.058807
v 0.089285 -0.649160 0.032032
v 0.116656 -0.657660 -0.008041
v 0.126267 -0.667687 -0.055310
v 0.116656 -0.677713 -0.102578
v 0.089285 -0.686213 -0.142651
v -0.060277 -0.697883 -0.197663
v -0.060277 -0.986095 -0.136527
v 0.000000 -0.982100 -0.117693
v 0.048320 -0.980106 -0.108291
v 0.089285 -0.974426 -0.081515
v 0.116656 -0.965926 -0.041443
v 0.126267 -0.955899 0.005826
v 0.116656 -0.945873 0.053095
v 0.089285 -0.937373 0.093167
v 0.048320 -0.931693 0.119943
v 0.000000 -0.929698 0.129345
v -0.048320 -0.931693 0.119943
v -0.089285 -0.937373 0.093167
v -0.116656 -0.945873 0.053095
v -0.126267 -0.955899 0.005826
v -0.116656 -0.965926 -0.041443
v -0.089285 -0.974426 -0.081515
v -0.048320 -0.980106 -0.108291
f 1 2 3
f 1 3 4
f 1 4 5
f 1 5 6
f 1 6 7
f 1 7 8
f 1 8 9
f 1 9 10
f 1 10 11
f 1 11 12
f 1 12 13
f 1 13 14
f 1 14 15
f 1 15 16
f 17 18 19
f 17 19 20
f 21 17 20
f 21 20 22
f 23 21 22
f 23 22 24
f 25 23 24
f 25 24 26
f 27 25 26
f 27 26 28
f 29 27 28
f 29 28 30
f 31 29 30
f 31 30 32
f 33 31 32
f 33 32 34
f 35 33 34
f 35 34 36
f 37 35 36
f 37 36 38
f 39 37 38
f 39 38 40
f 41 39 40
f 41 40 42
f 43 41 42
f 43 42 44
f 45 43 44
f 45 44 46
f 47 45 46
f 47 46 48
f 18 47 48
f 18 48 19
f 48 49 50
f 48 50 19
f 46 51 49
f 46 49 48
f 44 52 51
f 44 51 46
f 42 53 52
f 42 52 44
f 40 54 53
f 40 53 42
f 38 55 54
f 38 54 40
f 36 56 55
f 36 55 38
f 34 57 56
f 34 56 36
f 32 58 57
f 32 57 34
f 30 59 58
f 30 58 32
f 28 60 59
f 28 59 30
f 26 61 60
f 26 60 28
f 24 62 61
f 24 61 26
f 22 63 62
f 22 62 24
f 20 64 63
f 20 63 22
f 19 50 64
f 19 64 20
f 3 2 18
f 3 18 17
f 4 3 17
f 4 17 21
f 5 4 21
f 5 21 23
f 6 5 23
f 6 23 25
f 7 6 25
f 7 25 27
f 8 7 27
f 8 27 29
f 9 8 29
f 9 29 31
f 10 9 31
f 10 31 33
f 11 10 33
f 11 33 35
f 12 11 35
f 12 35 37
f 13 12 37
f 13 37 39
f 14 13 39
f 14 39 41
f 15 14 41
f 15 41 43
f 16 15 43
f 16 43 45
f 1 16 45
f 1 45 47
f 2 1 47
f 2 47 18
f 65 57 58
f 65 58 66
f 65 66 67
f 68 55 56
f 68 56 69
f 68 69 70
f 68 70 71
f 68 71 68
f 58 59 72
f 58 72 72
f 58 72 73
f 58 73 74
f 58 74 66
f 69 56 57
f 69 57 65
f 69 65 65
f 69 65 75
f 76 54 55
f 76 55 68
f 76 68 77
f 76 77 78
f 79 60 61
f 79 61 80
f 79 80 80
f 79 80 81
f 80 61 62
f 80 62 82
f 80 82 83
f 72 59 60
f 72 60 79
f 72 79 84
f 72 84 85
f 86 64 50
f 86 50 87
f 86 87 88
f 50 49 89
f 50 89 90
f 50 90 87
f 50 87 87
f 91 91 53
f 91 53 54
f 91 54 76
f 91 76 92
f 82 62 63
f 82 63 93
f 82 93 94
f 82 94 95
f 93 63 64
f 93 64 86
f 93 86 96
f 93 96 97
f 93 97 93
f 49 51 98
f 49 98 99
f 49 99 100
f 49 100 89
f 101 52 53
f 101 53 91
f 101 91 102
f 98 98 51
f 98 51 52
f 98 52 101
f 98 101 103
f 98 103 104
f 105 106 104
f 105 104 103
f 106 105 107
f 106 107 108
f 109 105 103
f 109 103 101
f 109 101 102
f 105 109 110
f 105 110 107
f 106 111 98
f 106 98 104
f 111 106 108
f 111 108 112
f 112 108 113
f 112 113 114
f 108 107 115
f 108 115 113
f 107 110 116
f 107 116 115
f 110 117 118
f 110 118 116
f 109 119 117
f 109 117 110
f 91 91 119
f 91 119 109
f 91 109 102
f 76 78 120
f 76 120 121
f 76 121 92
f 121 120 122
f 121 122 123
f 124 120 78
f 124 78 77
f 120 124 125
f 120 125 122
f 121 119 91
f 121 91 92
f 119 121 123
f 119 123 117
f 117 123 126
f 117 126 118
f 123 122 127
f 123 127 126
f 122 125 128
f 122 128 127
f 125 129 130
f 125 130 128
f 124 131 129
f 124 129 125
f 68 131 124
f 68 124 77
f 68 77 68
f 132 133 134
f 132 134 135
f 135 134 136
f 135 136 137
f 133 138 139
f 133 139 134
f 134 139 140
f 134 140 136
f 114 113 132
f 114 132 141
f 141 132 135
f 141 135 142
f 142 135 137
f 142 137 143
f 143 137 144
f 143 144 145
f 137 136 146
f 137 146 144
f 136 140 147
f 136 147 146
f 140 148 149
f 140 149 147
f 139 150 148
f 139 148 140
f 138 151 150
f 138 150 139
f 116 118 151
f 116 151 138
f 115 116 138
f 115 138 133
f 113 115 133
f 113 133 132
f 152 153 154
f 152 154 155
f 155 154 156
f 155 156 157
f 153 158 159
f 153 159 154
f 154 159 160
f 154 160 156
f 145 144 152
f 145 152 161
f 161 152 155
f 161 155 162
f 162 155 157
f 162 157 163
f 163 157 164
f 163 164 165
f 157 156 166
f 157 166 164
f 156 160 167
f 156 167 166
f 160 168 169
f 160 169 167
f 159 170 168
f 159 168 160
f 158 171 170
f 158 170 159
f 147 149 171
f 147 171 158
f 146 147 158
f 146 158 153
f 144 146 153
f 144 153 152
f 172 173 174
f 172 174 175
f 175 174 176
f 175 176 177
f 173 178 179
f 173 179 174
f 174 179 180
f 174 180 176
f 118 126 172
f 118 172 151
f 151 172 175
f 151 175 150
f 150 175 177
f 150 177 148
f 148 177 181
f 148 181 149
f 177 176 182
f 177 182 181
f 176 180 183
f 176 183 182
f 180 184 185
f 180 185 183
f 179 186 184
f 179 184 180
f 178 187 186
f 178 186 179
f 128 130 187
f 128 187 178
f 127 128 178
f 127 178 173
f 126 127 173
f 126 173 172
f 188 189 190
f 188 190 191
f 191 190 192
f 191 192 193
f 189 194 195
f 189 195 190
f 190 195 196
f 190 196 192
f 149 181 188
f 149 188 171
f 171 188 191
f 171 191 170
f 170 191 193
f 170 193 168
f 168 193 197
f 168 197 169
f 193 192 198
f 193 198 197
f 192 196 199
f 192 199 198
f 196 200 201
f 196 201 199
f 195 202 200
f 195 200 196
f 194 203 202
f 194 202 195
f 183 185 203
f 183 203 194
f 182 183 194
f 182 194 189
f 181 182 189
f 181 189 188
f 204 205 206
f 204 206 207
f 207 206 95
f 207 95 94
f 205 208 209
f 205 209 206
f 95 206 209
f 95 209 83
f 95 83 82
f 165 164 204
f 165 204 210
f 210 204 207
f 210 207 211
f 93 93 211
f 93 211 207
f 93 207 94
f 209 212 80
f 209 80 80
f 209 80 83
f 208 213 212
f 208 212 209
f 167 169 213
f 167 213 208
f 166 167 208
f 166 208 205
f 164 166 205
f 164 205 204
f 214 215 216
f 214 216 217
f 81 217 216
f 81 216 84
f 81 84 79
f 215 218 219
f 215 219 216
f 84 216 219
f 84 219 85
f 169 197 214
f 169 214 213
f 213 214 217
f 213 217 212
f 80 212 217
f 80 217 81
f 85 219 220
f 85 220 72
f 85 72 72
f 218 221 220
f 218 220 219
f 199 201 221
f 199 221 218
f 198 199 218
f 198 218 215
f 197 198 215
f 197 215 214
f 222 223 224
f 222 224 225
f 225 224 226
f 225 226 227
f 224 223 97
f 224 97 96
f 226 224 96
f 226 96 86
f 226 86 88
f 165 210 222
f 165 222 163
f 163 222 225
f 163 225 162
f 162 225 227
f 162 227 161
f 161 227 228
f 161 228 145
f 227 226 229
f 227 229 228
f 229 226 88
f 229 88 87
f 229 87 87
f 223 211 93
f 223 93 97
f 210 211 223
f 210 223 222
f 230 231 232
f 230 232 233
f 233 232 234
f 233 234 235
f 232 231 90
f 232 90 89
f 232 89 100
f 234 232 100
f 234 100 99
f 145 228 230
f 145 230 143
f 143 230 233
f 143 233 142
f 142 233 235
f 142 235 141
f 141 235 112
f 141 112 114
f 235 234 111
f 235 111 112
f 98 111 234
f 98 234 99
f 98 99 98
f 231 229 87
f 231 87 90
f 228 229 231
f 228 231 230
f 236 237 74
f 236 74 73
f 74 237 238
f 74 238 67
f 74 67 66
f 236 239 240
f 236 240 237
f 237 240 241
f 237 241 238
f 238 242 65
f 238 65 65
f 238 65 67
f 238 241 243
f 238 243 242
f 241 203 185
f 241 185 243
f 240 202 203
f 240 203 241
f 239 200 202
f 239 202 240
f 221 201 200
f 221 200 239
f 220 221 239
f 220 239 236
f 220 236 73
f 220 73 72
f 75 244 245
f 75 245 70
f 75 70 69
f 70 245 246
f 70 246 71
f 244 247 248
f 244 248 245
f 245 248 249
f 245 249 246
f 71 246 131
f 71 131 68
f 246 249 129
f 246 129 131
f 249 187 130
f 249 130 129
f 248 186 187
f 248 187 249
f 247 184 186
f 247 186 248
f 243 185 184
f 243 184 247
f 242 243 247
f 242 247 244
f 65 242 244
f 65 244 75
f 250 251 252
f 250 252 253
f 253 252 254
f 253 254 255
f 255 254 256
f 255 256 257
f 257 256 258
f 257 258 259
f 259 258 260
f 259 260 261
f 261 260 262
f 261 262 263
f 263 262 264
f 263 264 265
f 265 264 266
f 265 266 267
f 267 266 268
f 267 268 269
f 269 268 270
f 269 270 271
f 271 270 272
f 271 272 273
f 273 272 274
f 273 274 275
f 275 274 276
f 275 276 277
f 277 276 278
f 277 278 279
f 280 281 282
f 280 282 283
f 280 283 284
f 280 284 285
f 280 285 286
f 280 286 287
f 280 287 288
f 280 288 289
f 280 289 290
f 280 290 291
f 280 291 292
f 280 292 293
f 280 293 294
f 280 294 295
f 279 278 296
f 279 296 297
f 297 296 251
f 297 251 250
f 298 299 300
f 298 300 301
f 298 301 302
f 298 302 303
f 298 303 304
f 298 304 305
f 298 305 306
f 298 306 307
f 298 307 308
f 298 308 309
f 298 309 310
f 298 310 311
f 298 311 312
f 298 312 313
f 299 298 250
f 299 250 253
f 281 280 252
f 281 252 251
f 300 299 253
f 300 253 255
f 280 295 254
f 280 254 252
f 301 300 255
f 301 255 257
f 295 294 256
f 295 256 254
f 302 301 257
f 302 257 259
f 294 293 258
f 294 258 256
f 303 302 259
f 303 259 261
f 293 292 260
f 293 260 258
f 304 303 261
f 304 261 263
f 292 291 262
f 292 262 260
f 305 304 263
f 305 263 265
f 291 290 264
f 291 264 262
f 306 305 265
f 306 265 267
f 290 289 266
f 290 266 264
f 307 306 267
f 307 267 269
f 289 288 268
f 289 268 266
f 308 307 269
f 308 269 271
f 288 287 270
f 288 270 268
f 309 308 271
f 309 271 273
f 287 286 272
f 287 272 270
f 310 309 273
f 310 273 275
f 286 285 274
f 286 274 272
f 311 310 275
f 311 275 277
f 285 284 276
f 285 276 274
f 312 311 277
f 312 277 279
f 284 283 278
f 284 278 276
f 313 312 279
f 313 279 297
f 283 282 296
f 283 296 278
f 298 313 297
f 298 297 250
f 282 281 251
f 282 251 296
