# lizard mesh
v 0.179532 -0.143365 -0.072997
v 0.197787 -0.161899 -0.005778
v 0.000024 -0.228960 -0.006603
v 0.000304 -0.175586 -0.073744
v 0.081672 -0.101069 0.075725
v -0.049327 -0.128927 0.075179
v -0.161875 -0.161899 -0.007278
v -0.143061 -0.143365 -0.074342
v -0.136187 -0.081203 0.074817
v 0.129388 -0.013994 0.075924
v -0.033433 0.000001 0.113314
v 0.101394 0.081305 0.075807
v -0.021453 0.128954 0.075295
v -0.164046 0.013955 0.074700
v -0.116519 0.100952 0.074899
v 0.197787 0.161902 -0.005778
v 0.000024 0.228963 -0.006603
v 0.179532 0.143367 -0.072997
v 0.000304 0.175588 -0.073744
v -0.161875 0.161902 -0.007278
v -0.143061 0.143367 -0.074342
v 0.223736 0.000001 -0.072812
v 0.000304 0.000001 -0.073744
v -0.208856 0.000001 -0.074616
v 0.276831 0.000001 -0.005448
v -0.228929 0.000001 -0.007557
f 1 2 3
f 1 3 4
f 2 5 6
f 2 6 3
f 4 3 7
f 4 7 8
f 3 6 9
f 3 9 7
f 5 10 11
f 5 11 6
f 10 12 13
f 10 13 11
f 6 11 14
f 6 14 9
f 11 13 15
f 11 15 14
f 12 16 17
f 12 17 13
f 16 18 19
f 16 19 17
f 13 17 20
f 13 20 15
f 17 19 21
f 17 21 20
f 18 22 23
f 18 23 19
f 22 1 4
f 22 4 23
f 19 23 24
f 19 24 21
f 23 4 8
f 23 8 24
f 18 16 25
f 18 25 22
f 16 12 10
f 16 10 25
f 22 25 2
f 22 2 1
f 25 10 5
f 25 5 2
f 8 7 26
f 8 26 24
f 7 9 14
f 7 14 26
f 24 26 20
f 24 20 21
f 26 14 15
f 26 15 20
