# lizard mesh
v -0.181007 0.143395 -0.069195
v -0.197830 0.161941 -0.001607
v -0.000116 0.228960 -0.006627
v -0.001829 0.175577 -0.073742
v -0.080029 0.101095 0.077426
v 0.050935 0.128924 0.074102
v 0.161718 0.161863 -0.010723
v 0.141484 0.143326 -0.077372
v 0.137758 0.081182 0.071906
v -0.127748 0.014030 0.078646
v 0.035825 0.000004 0.112580
v -0.099783 -0.081275 0.077947
v 0.023015 -0.128950 0.074839
v 0.165588 -0.013982 0.071212
v 0.118057 -0.100969 0.072426
v -0.197898 -0.161860 -0.001569
v -0.000213 -0.228964 -0.006574
v -0.181068 -0.143337 -0.069162
v -0.001903 -0.175597 -0.073701
v 0.161650 -0.161938 -0.010685
v 0.141424 -0.143407 -0.077338
v -0.225228 0.000038 -0.068058
v -0.001866 -0.000010 -0.073721
v 0.207228 -0.000055 -0.079023
v -0.276884 0.000057 0.000415
v 0.228717 -0.000052 -0.012404
f 1 2 3
f 1 3 4
f 2 5 6
f 2 6 3
f 4 3 7
f 4 7 8
f 3 6 9
f 3 9 7
f 5 10 11
f 5 11 6
f 10 12 13
f 10 13 11
f 6 11 14
f 6 14 9
f 11 13 15
f 11 15 14
f 12 16 17
f 12 17 13
f 16 18 19
f 16 19 17
f 13 17 20
f 13 20 15
f 17 19 21
f 17 21 20
f 18 22 23
f 18 23 19
f 22 1 4
f 22 4 23
f 19 23 24
f 19 24 21
f 23 4 8
f 23 8 24
f 18 16 25
f 18 25 22
f 16 12 10
f 16 10 25
f 22 25 2
f 22 2 1
f 25 10 5
f 25 5 2
f 8 7 26
f 8 26 24
f 7 9 14
f 7 14 26
f 24 26 20
f 24 20 21
f 26 14 15
f 26 15 20
