# lizard mesh
v -0.059218 -0.142023 -0.039045
v -0.029301 -0.131212 -0.084420
v -0.015507 -0.129220 -0.074337
v -0.044970 -0.139867 -0.029651
v -0.005276 -0.121118 -0.063571
v -0.032891 -0.131097 -0.021687
v -0.000164 -0.108138 -0.053761
v -0.024821 -0.117048 -0.016365
v -0.000951 -0.092258 -0.046400
v -0.021986 -0.099859 -0.014497
v -0.345098 -0.109206 -0.281720
v -0.369997 -0.118204 -0.243955
v -0.385528 -0.112987 -0.254195
v -0.361728 -0.104386 -0.290293
v -0.398695 -0.100997 -0.262876
v -0.377420 -0.093309 -0.295143
v -0.407492 -0.084059 -0.268677
v -0.389785 -0.077660 -0.295533
v -0.409629 -0.061694 -0.270086
v -0.396634 -0.056997 -0.289796
v -0.003939 -0.100425 -0.122887
v 0.009470 -0.098901 -0.112219
v 0.018136 -0.092699 -0.099078
v 0.020738 -0.082765 -0.085463
v 0.016882 -0.070611 -0.073447
v -0.323989 -0.083583 -0.313735
v -0.341550 -0.079894 -0.320895
v -0.359384 -0.071415 -0.322498
v -0.374774 -0.059439 -0.318300
v -0.385616 -0.043624 -0.306506
v 0.013008 -0.054350 -0.148589
v 0.026160 -0.053525 -0.137532
v 0.033779 -0.050169 -0.122803
v 0.034705 -0.044792 -0.106646
v 0.028798 -0.038214 -0.091519
v -0.309884 -0.045235 -0.335127
v -0.328068 -0.043238 -0.341343
v -0.347332 -0.038650 -0.340776
v -0.364744 -0.032168 -0.333512
v -0.378255 -0.023609 -0.317671
v 0.018959 -0.000000 -0.157615
v 0.032020 -0.000000 -0.146420
v 0.039272 -0.000000 -0.131134
v 0.039609 0.000000 -0.114084
v 0.032982 0.000000 -0.097865
v -0.304932 -0.000000 -0.342638
v -0.323334 -0.000000 -0.348523
v -0.343100 -0.000000 -0.347194
v -0.361221 -0.000000 -0.338854
v -0.375670 -0.000000 -0.321591
v 0.013008 0.054350 -0.148589
v 0.026160 0.053525 -0.137532
v 0.033779 0.050169 -0.122803
v 0.034705 0.044792 -0.106646
v 0.028798 0.038214 -0.091519
v -0.309884 0.045234 -0.335127
v -0.328068 0.043238 -0.341343
v -0.347332 0.038649 -0.340776
v -0.364744 0.032168 -0.333512
v -0.378255 0.023609 -0.317671
v -0.003939 0.100425 -0.122887
v 0.009470 0.098901 -0.112219
v 0.018136 0.092699 -0.099078
v 0.020738 0.082765 -0.085463
v 0.016882 0.070611 -0.073447
v -0.323989 0.083582 -0.313735
v -0.341550 0.079893 -0.320895
v -0.359384 0.071415 -0.322498
v -0.374774 0.059438 -0.318300
v -0.385616 0.043624 -0.306506
v -0.029301 0.131212 -0.084420
v -0.015507 0.129220 -0.074337
v -0.005276 0.121118 -0.063571
v -0.000164 0.108138 -0.053761
v -0.000951 0.092258 -0.046400
v -0.345098 0.109205 -0.281720
v -0.361728 0.104385 -0.290293
v -0.377420 0.093308 -0.295143
v -0.389785 0.077660 -0.295533
v -0.396634 0.056997 -0.289796
v -0.059219 0.142023 -0.039045
v -0.044971 0.139867 -0.029651
v -0.032892 0.131097 -0.021687
v -0.024821 0.117048 -0.016365
v -0.021986 0.099859 -0.014497
v -0.369997 0.118203 -0.243955
v -0.385528 0.112986 -0.254195
v -0.398695 0.100996 -0.262876
v -0.407492 0.084059 -0.268677
v -0.409629 0.061693 -0.270086
v -0.089136 0.131212 0.006329
v -0.074434 0.129220 0.015035
v -0.060507 0.121118 0.020197
v -0.049477 0.108138 0.021030
v -0.043022 0.092258 0.017407
v -0.394897 0.109205 -0.206190
v -0.409329 0.104385 -0.218097
v -0.419970 0.093308 -0.230609
v -0.425199 0.077660 -0.241821
v -0.422625 0.056997 -0.250376
v -0.114498 0.100425 0.044796
v -0.099411 0.098901 0.052918
v -0.083919 0.092699 0.055704
v -0.070379 0.082765 0.052732
v -0.060855 0.070611 0.044454
v -0.416006 0.083582 -0.174175
v -0.429506 0.079893 -0.187495
v -0.438006 0.071415 -0.203254
v -0.440211 0.059438 -0.219054
v -0.433642 0.043624 -0.233666
v -0.131445 0.054350 0.070499
v -0.116101 0.053525 0.078230
v -0.099562 0.050169 0.079430
v -0.084346 0.044792 0.073915
v -0.072770 0.038214 0.062526
v -0.430111 0.045234 -0.152783
v -0.442988 0.043238 -0.167047
v -0.450057 0.038649 -0.184977
v -0.450241 0.032168 -0.203841
v -0.441004 0.023609 -0.222501
v -0.137396 0.000000 0.079524
v -0.121961 0.000000 0.087119
v -0.105055 0.000000 0.087761
v -0.089250 0.000000 0.081354
v -0.076955 0.000000 0.068872
v -0.435063 -0.000000 -0.145272
v -0.447722 -0.000000 -0.159867
v -0.454289 -0.000000 -0.178558
v -0.453763 -0.000000 -0.198499
v -0.443589 -0.000000 -0.218581
v -0.131445 -0.054350 0.070499
v -0.116100 -0.053525 0.078230
v -0.099561 -0.050168 0.079430
v -0.084346 -0.044792 0.073915
v -0.072770 -0.038214 0.062526
v -0.430110 -0.045235 -0.152783
v -0.442988 -0.043238 -0.167047
v -0.450057 -0.038650 -0.184977
v -0.450241 -0.032168 -0.203841
v -0.441004 -0.023609 -0.222501
v -0.114498 -0.100425 0.044796
v -0.099411 -0.098901 0.052918
v -0.083918 -0.092699 0.055704
v -0.070379 -0.082765 0.052732
v -0.060855 -0.070611 0.044454
v -0.416006 -0.083583 -0.174175
v -0.429506 -0.079894 -0.187495
v -0.438006 -0.071415 -0.203254
v -0.440211 -0.059439 -0.219054
v -0.433642 -0.043624 -0.233666
v -0.089136 -0.131212 0.006329
v -0.074433 -0.129220 0.015035
v -0.060507 -0.121118 0.020197
v -0.049477 -0.108138 0.021030
v -0.043022 -0.092258 0.017407
v -0.394897 -0.109206 -0.206190
v -0.409329 -0.104386 -0.218097
v -0.419970 -0.093309 -0.230609
v -0.425199 -0.077660 -0.241821
v -0.422625 -0.056997 -0.250376
f 1 2 3
f 1 3 4
f 4 3 5
f 4 5 6
f 6 5 7
f 6 7 8
f 8 7 9
f 8 9 10
f 11 12 13
f 11 13 14
f 14 13 15
f 14 15 16
f 16 15 17
f 16 17 18
f 18 17 19
f 18 19 20
f 2 21 22
f 2 22 3
f 3 22 23
f 3 23 5
f 5 23 24
f 5 24 7
f 7 24 25
f 7 25 9
f 26 11 14
f 26 14 27
f 27 14 16
f 27 16 28
f 28 16 18
f 28 18 29
f 29 18 20
f 29 20 30
f 21 31 32
f 21 32 22
f 22 32 33
f 22 33 23
f 23 33 34
f 23 34 24
f 24 34 35
f 24 35 25
f 36 26 27
f 36 27 37
f 37 27 28
f 37 28 38
f 38 28 29
f 38 29 39
f 39 29 30
f 39 30 40
f 31 41 42
f 31 42 32
f 32 42 43
f 32 43 33
f 33 43 44
f 33 44 34
f 34 44 45
f 34 45 35
f 46 36 37
f 46 37 47
f 47 37 38
f 47 38 48
f 48 38 39
f 48 39 49
f 49 39 40
f 49 40 50
f 41 51 52
f 41 52 42
f 42 52 53
f 42 53 43
f 43 53 54
f 43 54 44
f 44 54 55
f 44 55 45
f 56 46 47
f 56 47 57
f 57 47 48
f 57 48 58
f 58 48 49
f 58 49 59
f 59 49 50
f 59 50 60
f 51 61 62
f 51 62 52
f 52 62 63
f 52 63 53
f 53 63 64
f 53 64 54
f 54 64 65
f 54 65 55
f 66 56 57
f 66 57 67
f 67 57 58
f 67 58 68
f 68 58 59
f 68 59 69
f 69 59 60
f 69 60 70
f 61 71 72
f 61 72 62
f 62 72 73
f 62 73 63
f 63 73 74
f 63 74 64
f 64 74 75
f 64 75 65
f 76 66 67
f 76 67 77
f 77 67 68
f 77 68 78
f 78 68 69
f 78 69 79
f 79 69 70
f 79 70 80
f 71 81 82
f 71 82 72
f 72 82 83
f 72 83 73
f 73 83 84
f 73 84 74
f 74 84 85
f 74 85 75
f 86 76 77
f 86 77 87
f 87 77 78
f 87 78 88
f 88 78 79
f 88 79 89
f 89 79 80
f 89 80 90
f 81 91 92
f 81 92 82
f 82 92 93
f 82 93 83
f 83 93 94
f 83 94 84
f 84 94 95
f 84 95 85
f 96 86 87
f 96 87 97
f 97 87 88
f 97 88 98
f 98 88 89
f 98 89 99
f 99 89 90
f 99 90 100
f 91 101 102
f 91 102 92
f 92 102 103
f 92 103 93
f 93 103 104
f 93 104 94
f 94 104 105
f 94 105 95
f 106 96 97
f 106 97 107
f 107 97 98
f 107 98 108
f 108 98 99
f 108 99 109
f 109 99 100
f 109 100 110
f 101 111 112
f 101 112 102
f 102 112 113
f 102 113 103
f 103 113 114
f 103 114 104
f 104 114 115
f 104 115 105
f 116 106 107
f 116 107 117
f 117 107 108
f 117 108 118
f 118 108 109
f 118 109 119
f 119 109 110
f 119 110 120
f 111 121 122
f 111 122 112
f 112 122 123
f 112 123 113
f 113 123 124
f 113 124 114
f 114 124 125
f 114 125 115
f 126 116 117
f 126 117 127
f 127 117 118
f 127 118 128
f 128 118 119
f 128 119 129
f 129 119 120
f 129 120 130
f 121 131 132
f 121 132 122
f 122 132 133
f 122 133 123
f 123 133 134
f 123 134 124
f 124 134 135
f 124 135 125
f 136 126 127
f 136 127 137
f 137 127 128
f 137 128 138
f 138 128 129
f 138 129 139
f 139 129 130
f 139 130 140
f 131 141 142
f 131 142 132
f 132 142 143
f 132 143 133
f 133 143 144
f 133 144 134
f 134 144 145
f 134 145 135
f 146 136 137
f 146 137 147
f 147 137 138
f 147 138 148
f 148 138 139
f 148 139 149
f 149 139 140
f 149 140 150
f 141 151 152
f 141 152 142
f 142 152 153
f 142 153 143
f 143 153 154
f 143 154 144
f 144 154 155
f 144 155 145
f 156 146 147
f 156 147 157
f 157 147 148
f 157 148 158
f 158 148 149
f 158 149 159
f 159 149 150
f 159 150 160
f 151 1 4
f 151 4 152
f 152 4 6
f 152 6 153
f 153 6 8
f 153 8 154
f 154 8 10
f 154 10 155
f 12 156 157
f 12 157 13
f 13 157 158
f 13 158 15
f 15 158 159
f 15 159 17
f 17 159 160
f 17 160 19
f 10 9 25
f 10 25 35
f 10 35 45
f 10 45 55
f 10 55 65
f 10 65 75
f 10 75 85
f 10 85 95
f 10 95 105
f 10 105 115
f 10 115 125
f 10 125 135
f 10 135 145
f 10 145 155
f 1 12 11
f 1 11 2
f 151 156 12
f 151 12 1
f 20 19 160
f 20 160 150
f 20 150 140
f 20 140 130
f 20 130 120
f 20 120 110
f 20 110 100
f 20 100 90
f 20 90 80
f 20 80 70
f 20 70 60
f 20 60 50
f 20 50 40
f 20 40 30
f 2 11 26
f 2 26 21
f 21 26 36
f 21 36 31
f 31 36 46
f 31 46 41
f 41 46 56
f 41 56 51
f 51 56 66
f 51 66 61
f 61 66 76
f 61 76 71
f 71 76 86
f 71 86 81
f 81 86 96
f 81 96 91
f 91 96 106
f 91 106 101
f 101 106 116
f 101 116 111
f 111 116 126
f 111 126 121
f 121 126 136
f 121 136 131
f 131 136 146
f 131 146 141
f 141 146 156
f 141 156 151
