# lizard mesh
v 0.036771 -0.107476 -0.304493
v -0.007717 -0.116318 -0.303364
v -0.008179 -0.111188 -0.321660
v 0.034344 -0.102736 -0.322739
v -0.008570 -0.099394 -0.337171
v 0.029441 -0.091839 -0.338136
v -0.008829 -0.082733 -0.347536
v 0.022807 -0.076445 -0.348339
v -0.008918 -0.063740 -0.351178
v 0.015453 -0.058897 -0.351796
v 0.074489 -0.082277 -0.305453
v 0.070398 -0.078649 -0.323656
v 0.061669 -0.070309 -0.338955
v 0.049630 -0.058525 -0.349021
v 0.036115 -0.045092 -0.352322
v 0.099696 -0.044557 -0.306096
v 0.094493 -0.042594 -0.324271
v 0.083206 -0.038080 -0.339505
v 0.067556 -0.031701 -0.349479
v 0.049924 -0.024429 -0.352674
v 0.108554 -0.000059 -0.306325
v 0.102960 -0.000060 -0.324491
v 0.090775 -0.000059 -0.339701
v 0.073855 -0.000057 -0.349642
v 0.054776 -0.000053 -0.352800
v 0.099715 0.044443 -0.306106
v 0.094511 0.042478 -0.324281
v 0.083222 0.037964 -0.339514
v 0.067569 0.031590 -0.349486
v 0.049934 0.024325 -0.352680
v 0.074524 0.082173 -0.305472
v 0.070431 0.078543 -0.323675
v 0.061699 0.070203 -0.338972
v 0.049655 0.058422 -0.349035
v 0.036134 0.044994 -0.352332
v 0.036816 0.107389 -0.304519
v 0.034388 0.102645 -0.322763
v 0.029480 0.091747 -0.338157
v 0.022840 0.076353 -0.348357
v 0.015478 0.058807 -0.351810
v -0.007667 0.116250 -0.303392
v -0.008132 0.111115 -0.321686
v -0.008528 0.099318 -0.337195
v -0.008794 0.082655 -0.347556
v -0.008891 0.063661 -0.351193
v -0.052155 0.107408 -0.302263
v -0.050656 0.102664 -0.320607
v -0.046539 0.091764 -0.336230
v -0.040431 0.076367 -0.346753
v -0.033261 0.058818 -0.350574
v -0.089873 0.082209 -0.301304
v -0.086710 0.078577 -0.319690
v -0.078767 0.070233 -0.335410
v -0.067254 0.058447 -0.346071
v -0.053923 0.045013 -0.350049
v -0.115080 0.044489 -0.300660
v -0.110804 0.042522 -0.319075
v -0.100305 0.038004 -0.334861
v -0.085180 0.031623 -0.345613
v -0.067732 0.024350 -0.349696
v -0.123938 -0.000009 -0.300431
v -0.119271 -0.000012 -0.318856
v -0.107873 -0.000017 -0.334665
v -0.091479 -0.000021 -0.345450
v -0.072584 -0.000026 -0.349571
v -0.115099 -0.044511 -0.300650
v -0.110822 -0.042550 -0.319065
v -0.100321 -0.038040 -0.334852
v -0.085193 -0.031668 -0.345606
v -0.067742 -0.024404 -0.349691
v -0.089908 -0.082242 -0.301284
v -0.086743 -0.078615 -0.319672
v -0.078797 -0.070278 -0.335394
v -0.067279 -0.058500 -0.346057
v -0.053942 -0.045073 -0.350038
v -0.052200 -0.107457 -0.302238
v -0.050700 -0.102718 -0.320583
v -0.046578 -0.091823 -0.336208
v -0.040463 -0.076431 -0.346735
v -0.033286 -0.058886 -0.350560
v -0.004839 -0.117207 -0.189856
v 0.039993 -0.108296 -0.190994
v -0.049667 -0.108277 -0.188720
v 0.078004 -0.082902 -0.191960
v 0.103407 -0.044889 -0.192608
v 0.112333 -0.000046 -0.192840
v 0.103426 0.044800 -0.192619
v 0.078039 0.082824 -0.191980
v 0.040039 0.108234 -0.191019
v -0.004789 0.117164 -0.189883
v -0.049621 0.108254 -0.188746
v -0.087632 0.082859 -0.187779
v -0.113035 0.044847 -0.187131
v -0.121961 0.000004 -0.186899
v -0.113054 -0.044843 -0.187120
v -0.087667 -0.082866 -0.187760
v 0.042527 -0.107450 -0.077476
v 0.041028 -0.102706 -0.059132
v -0.001496 -0.111158 -0.058053
v -0.001961 -0.116292 -0.076347
v 0.036911 -0.091806 -0.043509
v -0.001100 -0.099361 -0.042545
v 0.030803 -0.076410 -0.032986
v -0.000834 -0.082697 -0.032184
v 0.023633 -0.058860 -0.029165
v -0.000738 -0.063704 -0.028547
v 0.080245 -0.082251 -0.078436
v 0.077082 -0.078619 -0.060049
v 0.069139 -0.070275 -0.044329
v 0.057626 -0.058490 -0.033669
v 0.044295 -0.045056 -0.029691
v 0.105452 -0.044531 -0.079079
v 0.101176 -0.042564 -0.060664
v 0.090676 -0.038046 -0.044879
v 0.075551 -0.031666 -0.034126
v 0.058104 -0.024393 -0.030043
v 0.114310 -0.000033 -0.079308
v 0.109643 -0.000030 -0.060883
v 0.098245 -0.000026 -0.045075
v 0.081851 -0.000021 -0.034289
v 0.062956 -0.000017 -0.030169
v 0.105471 0.044468 -0.079089
v 0.101194 0.042507 -0.060674
v 0.090692 0.037998 -0.044888
v 0.075565 0.031626 -0.034133
v 0.058114 0.024361 -0.030049
v 0.080280 0.082199 -0.078455
v 0.077115 0.078573 -0.060067
v 0.069169 0.070236 -0.044345
v 0.057650 0.058457 -0.033682
v 0.044314 0.045030 -0.029701
v 0.042572 0.107414 -0.077502
v 0.041072 0.102675 -0.059156
v 0.036950 0.091780 -0.043531
v 0.030835 0.076389 -0.033004
v 0.023658 0.058843 -0.029179
v -0.001912 0.116275 -0.076375
v -0.001449 0.111145 -0.058079
v -0.001058 0.099352 -0.042568
v -0.000799 0.082690 -0.032203
v -0.000711 0.063698 -0.028562
v -0.046399 0.107433 -0.075246
v -0.043973 0.102693 -0.057000
v -0.039069 0.091797 -0.041604
v -0.032435 0.076402 -0.031400
v -0.025081 0.058854 -0.027943
v -0.084117 0.082234 -0.074287
v -0.080026 0.078606 -0.056083
v -0.071297 0.070266 -0.040784
v -0.059258 0.058482 -0.030718
v -0.045743 0.045050 -0.027418
v -0.109324 0.044514 -0.073643
v -0.104121 0.042551 -0.055468
v -0.092835 0.038037 -0.040234
v -0.077184 0.031658 -0.030261
v -0.059552 0.024387 -0.027065
v -0.118182 0.000016 -0.073414
v -0.112588 0.000017 -0.055249
v -0.100403 0.000017 -0.040038
v -0.083483 0.000014 -0.030097
v -0.064404 0.000010 -0.026940
v -0.109343 -0.044485 -0.073633
v -0.104139 -0.042520 -0.055458
v -0.092851 -0.038007 -0.040225
v -0.077197 -0.031633 -0.030253
v -0.059562 -0.024368 -0.027060
v -0.084152 -0.082216 -0.074267
v -0.080060 -0.078586 -0.056065
v -0.071327 -0.070245 -0.040767
v -0.059283 -0.058464 -0.030704
v -0.045762 -0.045037 -0.027407
v -0.046444 -0.107431 -0.075221
v -0.044016 -0.102688 -0.056976
v -0.039108 -0.091790 -0.041582
v -0.032468 -0.076396 -0.031382
v -0.025106 -0.058850 -0.027929
f 1 2 3
f 1 3 4
f 4 3 5
f 4 5 6
f 6 5 7
f 6 7 8
f 8 7 9
f 8 9 10
f 11 1 4
f 11 4 12
f 12 4 6
f 12 6 13
f 13 6 8
f 13 8 14
f 14 8 10
f 14 10 15
f 16 11 12
f 16 12 17
f 17 12 13
f 17 13 18
f 18 13 14
f 18 14 19
f 19 14 15
f 19 15 20
f 21 16 17
f 21 17 22
f 22 17 18
f 22 18 23
f 23 18 19
f 23 19 24
f 24 19 20
f 24 20 25
f 26 21 22
f 26 22 27
f 27 22 23
f 27 23 28
f 28 23 24
f 28 24 29
f 29 24 25
f 29 25 30
f 31 26 27
f 31 27 32
f 32 27 28
f 32 28 33
f 33 28 29
f 33 29 34
f 34 29 30
f 34 30 35
f 36 31 32
f 36 32 37
f 37 32 33
f 37 33 38
f 38 33 34
f 38 34 39
f 39 34 35
f 39 35 40
f 41 36 37
f 41 37 42
f 42 37 38
f 42 38 43
f 43 38 39
f 43 39 44
f 44 39 40
f 44 40 45
f 46 41 42
f 46 42 47
f 47 42 43
f 47 43 48
f 48 43 44
f 48 44 49
f 49 44 45
f 49 45 50
f 51 46 47
f 51 47 52
f 52 47 48
f 52 48 53
f 53 48 49
f 53 49 54
f 54 49 50
f 54 50 55
f 56 51 52
f 56 52 57
f 57 52 53
f 57 53 58
f 58 53 54
f 58 54 59
f 59 54 55
f 59 55 60
f 61 56 57
f 61 57 62
f 62 57 58
f 62 58 63
f 63 58 59
f 63 59 64
f 64 59 60
f 64 60 65
f 66 61 62
f 66 62 67
f 67 62 63
f 67 63 68
f 68 63 64
f 68 64 69
f 69 64 65
f 69 65 70
f 71 66 67
f 71 67 72
f 72 67 68
f 72 68 73
f 73 68 69
f 73 69 74
f 74 69 70
f 74 70 75
f 76 71 72
f 76 72 77
f 77 72 73
f 77 73 78
f 78 73 74
f 78 74 79
f 79 74 75
f 79 75 80
f 2 76 77
f 2 77 3
f 3 77 78
f 3 78 5
f 5 78 79
f 5 79 7
f 7 79 80
f 7 80 9
f 81 2 1
f 81 1 82
f 83 76 2
f 83 2 81
f 10 9 80
f 10 80 75
f 10 75 70
f 10 70 65
f 10 65 60
f 10 60 55
f 10 55 50
f 10 50 45
f 10 45 40
f 10 40 35
f 10 35 30
f 10 30 25
f 10 25 20
f 10 20 15
f 82 1 11
f 82 11 84
f 84 11 16
f 84 16 85
f 85 16 21
f 85 21 86
f 86 21 26
f 86 26 87
f 87 26 31
f 87 31 88
f 88 31 36
f 88 36 89
f 89 36 41
f 89 41 90
f 90 41 46
f 90 46 91
f 91 46 51
f 91 51 92
f 92 51 56
f 92 56 93
f 93 56 61
f 93 61 94
f 94 61 66
f 94 66 95
f 95 66 71
f 95 71 96
f 96 71 76
f 96 76 83
f 97 98 99
f 97 99 100
f 98 101 102
f 98 102 99
f 101 103 104
f 101 104 102
f 103 105 106
f 103 106 104
f 107 108 98
f 107 98 97
f 108 109 101
f 108 101 98
f 109 110 103
f 109 103 101
f 110 111 105
f 110 105 103
f 112 113 108
f 112 108 107
f 113 114 109
f 113 109 108
f 114 115 110
f 114 110 109
f 115 116 111
f 115 111 110
f 117 118 113
f 117 113 112
f 118 119 114
f 118 114 113
f 119 120 115
f 119 115 114
f 120 121 116
f 120 116 115
f 122 123 118
f 122 118 117
f 123 124 119
f 123 119 118
f 124 125 120
f 124 120 119
f 125 126 121
f 125 121 120
f 127 128 123
f 127 123 122
f 128 129 124
f 128 124 123
f 129 130 125
f 129 125 124
f 130 131 126
f 130 126 125
f 132 133 128
f 132 128 127
f 133 134 129
f 133 129 128
f 134 135 130
f 134 130 129
f 135 136 131
f 135 131 130
f 137 138 133
f 137 133 132
f 138 139 134
f 138 134 133
f 139 140 135
f 139 135 134
f 140 141 136
f 140 136 135
f 142 143 138
f 142 138 137
f 143 144 139
f 143 139 138
f 144 145 140
f 144 140 139
f 145 146 141
f 145 141 140
f 147 148 143
f 147 143 142
f 148 149 144
f 148 144 143
f 149 150 145
f 149 145 144
f 150 151 146
f 150 146 145
f 152 153 148
f 152 148 147
f 153 154 149
f 153 149 148
f 154 155 150
f 154 150 149
f 155 156 151
f 155 151 150
f 157 158 153
f 157 153 152
f 158 159 154
f 158 154 153
f 159 160 155
f 159 155 154
f 160 161 156
f 160 156 155
f 162 163 158
f 162 158 157
f 163 164 159
f 163 159 158
f 164 165 160
f 164 160 159
f 165 166 161
f 165 161 160
f 167 168 163
f 167 163 162
f 168 169 164
f 168 164 163
f 169 170 165
f 169 165 164
f 170 171 166
f 170 166 165
f 172 173 168
f 172 168 167
f 173 174 169
f 173 169 168
f 174 175 170
f 174 170 169
f 175 176 171
f 175 171 170
f 100 99 173
f 100 173 172
f 99 102 174
f 99 174 173
f 102 104 175
f 102 175 174
f 104 106 176
f 104 176 175
f 81 82 97
f 81 97 100
f 83 81 100
f 83 100 172
f 105 111 116
f 105 116 121
f 105 121 126
f 105 126 131
f 105 131 136
f 105 136 141
f 105 141 146
f 105 146 151
f 105 151 156
f 105 156 161
f 105 161 166
f 105 166 171
f 105 171 176
f 105 176 106
f 82 84 107
f 82 107 97
f 84 85 112
f 84 112 107
f 85 86 117
f 85 117 112
f 86 87 122
f 86 122 117
f 87 88 127
f 87 127 122
f 88 89 132
f 88 132 127
f 89 90 137
f 89 137 132
f 90 91 142
f 90 142 137
f 91 92 147
f 91 147 142
f 92 93 152
f 92 152 147
f 93 94 157
f 93 157 152
f 94 95 162
f 94 162 157
f 95 96 167
f 95 167 162
f 96 83 172
f 96 172 167
