# lizard mesh
v 0.181038 -0.143365 -0.069178
v 0.197864 -0.161899 -0.001588
v 0.000164 -0.228960 -0.006601
v 0.001866 -0.175586 -0.073721
v 0.080050 -0.101068 0.077438
v -0.050908 -0.128927 0.074118
v -0.161684 -0.161899 -0.010704
v -0.141454 -0.143365 -0.077355
v -0.137741 -0.081203 0.071916
v 0.127750 -0.013994 0.078647
v -0.035825 0.000002 0.112581
v 0.099766 0.081305 0.077938
v -0.023043 0.128954 0.074824
v -0.165591 0.013955 0.071210
v -0.118078 0.100952 0.072415
v 0.197864 0.161902 -0.001588
v 0.000164 0.228963 -0.006600
v 0.181038 0.143368 -0.069178
v 0.001866 0.175588 -0.073721
v -0.161684 0.161902 -0.010704
v -0.141454 0.143368 -0.077355
v 0.225228 0.000001 -0.068058
v 0.001866 0.000001 -0.073721
v -0.207228 0.000001 -0.079023
v 0.276884 0.000002 0.000416
v -0.228717 0.000002 -0.012404
f 1 2 3
f 1 3 4
f 2 5 6
f 2 6 3
f 4 3 7
f 4 7 8
f 3 6 9
f 3 9 7
f 5 10 11
f 5 11 6
f 10 12 13
f 10 13 11
f 6 11 14
f 6 14 9
f 11 13 15
f 11 15 14
f 12 16 17
f 12 17 13
f 16 18 19
f 16 19 17
f 13 17 20
f 13 20 15
f 17 19 21
f 17 21 20
f 18 22 23
f 18 23 19
f 22 1 4
f 22 4 23
f 19 23 24
f 19 24 21
f 23 4 8
f 23 8 24
f 18 16 25
f 18 25 22
f 16 12 10
f 16 10 25
f 22 25 2
f 22 2 1
f 25 10 5
f 25 5 2
f 8 7 26
f 8 26 24
f 7 9 14
f 7 14 26
f 24 26 20
f 24 20 21
f 26 14 15
f 26 15 20
