# lizard mesh
v -0.036794 0.107432 -0.304506
v 0.007692 0.116284 -0.303378
v 0.008156 0.111151 -0.321673
v -0.034366 0.102690 -0.322751
v 0.008549 0.099356 -0.337183
v -0.029461 0.091793 -0.338147
v 0.008812 0.082694 -0.347546
v -0.022824 0.076399 -0.348348
v 0.008904 0.063701 -0.351185
v -0.015465 0.058852 -0.351803
v -0.074507 0.082225 -0.305462
v -0.070415 0.078596 -0.323665
v -0.061684 0.070255 -0.338964
v -0.049643 0.058473 -0.349028
v -0.036125 0.045043 -0.352327
v -0.099706 0.044500 -0.306101
v -0.094502 0.042536 -0.324276
v -0.083215 0.038022 -0.339509
v -0.067563 0.031645 -0.349483
v -0.049929 0.024377 -0.352677
v -0.108554 -0.000000 -0.306325
v -0.102960 -0.000000 -0.324491
v -0.090775 -0.000000 -0.339701
v -0.073855 -0.000000 -0.349642
v -0.054776 -0.000000 -0.352800
v -0.099706 -0.044500 -0.306101
v -0.094502 -0.042536 -0.324276
v -0.083215 -0.038022 -0.339509
v -0.067563 -0.031646 -0.349483
v -0.049929 -0.024377 -0.352677
v -0.074507 -0.082225 -0.305462
v -0.070415 -0.078596 -0.323665
v -0.061684 -0.070256 -0.338964
v -0.049643 -0.058473 -0.349028
v -0.036125 -0.045043 -0.352327
v -0.036794 -0.107432 -0.304506
v -0.034366 -0.102691 -0.322751
v -0.029461 -0.091793 -0.338147
v -0.022824 -0.076399 -0.348348
v -0.015465 -0.058852 -0.351803
v 0.007692 -0.116284 -0.303378
v 0.008156 -0.111152 -0.321673
v 0.008549 -0.099356 -0.337183
v 0.008812 -0.082694 -0.347546
v 0.008904 -0.063701 -0.351185
v 0.052177 -0.107432 -0.302250
v 0.050678 -0.102691 -0.320595
v 0.046559 -0.091793 -0.336219
v 0.040447 -0.076399 -0.346744
v 0.033273 -0.058852 -0.350567
v 0.089890 -0.082225 -0.301294
v 0.086726 -0.078596 -0.319681
v 0.078782 -0.070256 -0.335402
v 0.067266 -0.058474 -0.346064
v 0.053933 -0.045043 -0.350044
v 0.115089 -0.044500 -0.300655
v 0.110813 -0.042536 -0.319071
v 0.100312 -0.038022 -0.334856
v 0.085186 -0.031646 -0.345610
v 0.067737 -0.024377 -0.349694
v 0.123938 -0.000000 -0.300431
v 0.119271 -0.000000 -0.318856
v 0.107873 -0.000000 -0.334665
v 0.091479 -0.000000 -0.345450
v 0.072584 -0.000000 -0.349571
v 0.115089 0.044500 -0.300655
v 0.110813 0.042536 -0.319070
v 0.100312 0.038022 -0.334856
v 0.085186 0.031645 -0.345610
v 0.067737 0.024377 -0.349694
v 0.089890 0.082225 -0.301294
v 0.086726 0.078596 -0.319681
v 0.078782 0.070255 -0.335402
v 0.067266 0.058473 -0.346064
v 0.053933 0.045043 -0.350044
v 0.052177 0.107432 -0.302250
v 0.050678 0.102690 -0.320595
v 0.046559 0.091793 -0.336219
v 0.040447 0.076399 -0.346744
v 0.033273 0.058852 -0.350567
v 0.004814 0.117185 -0.189870
v -0.040017 0.108265 -0.191006
v 0.049644 0.108265 -0.188733
v -0.078022 0.082862 -0.191970
v -0.103416 0.044845 -0.192614
v -0.112334 -0.000000 -0.192840
v -0.103416 -0.044845 -0.192614
v -0.078022 -0.082863 -0.191970
v -0.040017 -0.108265 -0.191006
v 0.004814 -0.117186 -0.189870
v 0.049644 -0.108265 -0.188733
v 0.087650 -0.082863 -0.187769
v 0.113044 -0.044845 -0.187126
v 0.121961 -0.000000 -0.186900
v 0.113044 0.044845 -0.187126
v 0.087650 0.082862 -0.187769
v -0.042550 0.107432 -0.077489
v -0.041050 0.102691 -0.059144
v 0.001472 0.111151 -0.058066
v 0.001936 0.116284 -0.076361
v -0.036931 0.091793 -0.043520
v 0.001079 0.099356 -0.042556
v -0.030819 0.076399 -0.032995
v 0.000816 0.082694 -0.032193
v -0.023646 0.058852 -0.029172
v 0.000724 0.063701 -0.028554
v -0.080263 0.082225 -0.078445
v -0.077098 0.078596 -0.060058
v -0.069154 0.070255 -0.044337
v -0.057638 0.058473 -0.033675
v -0.044305 0.045043 -0.029696
v -0.105462 0.044500 -0.079084
v -0.101185 0.042536 -0.060669
v -0.090685 0.038022 -0.044883
v -0.075558 0.031645 -0.034130
v -0.058109 0.024377 -0.030046
v -0.114310 -0.000000 -0.079308
v -0.109643 -0.000000 -0.060883
v -0.098245 -0.000000 -0.045075
v -0.081851 -0.000000 -0.034289
v -0.062956 -0.000000 -0.030169
v -0.105462 -0.044500 -0.079084
v -0.101185 -0.042536 -0.060669
v -0.090685 -0.038022 -0.044883
v -0.075558 -0.031646 -0.034130
v -0.058109 -0.024377 -0.030046
v -0.080263 -0.082225 -0.078445
v -0.077099 -0.078596 -0.060058
v -0.069154 -0.070256 -0.044337
v -0.057638 -0.058473 -0.033675
v -0.044305 -0.045043 -0.029696
v -0.042550 -0.107432 -0.077489
v -0.041050 -0.102691 -0.059144
v -0.036931 -0.091793 -0.043520
v -0.030819 -0.076399 -0.032995
v -0.023646 -0.058852 -0.029172
v 0.001936 -0.116284 -0.076361
v 0.001472 -0.111152 -0.058066
v 0.001079 -0.099356 -0.042556
v 0.000816 -0.082694 -0.032193
v 0.000724 -0.063701 -0.028554
v 0.046421 -0.107432 -0.075233
v 0.043994 -0.102691 -0.056988
v 0.039089 -0.091793 -0.041593
v 0.032451 -0.076399 -0.031391
v 0.025093 -0.058852 -0.027936
v 0.084134 -0.082225 -0.074277
v 0.080043 -0.078596 -0.056074
v 0.071312 -0.070256 -0.040776
v 0.059271 -0.058473 -0.030711
v 0.045753 -0.045043 -0.027413
v 0.109333 -0.044500 -0.073638
v 0.104129 -0.042536 -0.055463
v 0.092842 -0.038022 -0.040230
v 0.077191 -0.031646 -0.030257
v 0.059557 -0.024377 -0.027063
v 0.118182 -0.000000 -0.073414
v 0.112588 -0.000000 -0.055249
v 0.100403 -0.000000 -0.040038
v 0.083483 -0.000000 -0.030097
v 0.064404 -0.000000 -0.026940
v 0.109333 0.044500 -0.073638
v 0.104130 0.042536 -0.055463
v 0.092842 0.038022 -0.040230
v 0.077191 0.031645 -0.030257
v 0.059557 0.024377 -0.027063
v 0.084134 0.082225 -0.074277
v 0.080043 0.078596 -0.056074
v 0.071312 0.070255 -0.040776
v 0.059271 0.058473 -0.030711
v 0.045753 0.045043 -0.027413
v 0.046421 0.107432 -0.075233
v 0.043994 0.102690 -0.056988
v 0.039089 0.091793 -0.041593
v 0.032451 0.076399 -0.031391
v 0.025093 0.058852 -0.027936
f 1 2 3
f 1 3 4
f 4 3 5
f 4 5 6
f 6 5 7
f 6 7 8
f 8 7 9
f 8 9 10
f 11 1 4
f 11 4 12
f 12 4 6
f 12 6 13
f 13 6 8
f 13 8 14
f 14 8 10
f 14 10 15
f 16 11 12
f 16 12 17
f 17 12 13
f 17 13 18
f 18 13 14
f 18 14 19
f 19 14 15
f 19 15 20
f 21 16 17
f 21 17 22
f 22 17 18
f 22 18 23
f 23 18 19
f 23 19 24
f 24 19 20
f 24 20 25
f 26 21 22
f 26 22 27
f 27 22 23
f 27 23 28
f 28 23 24
f 28 24 29
f 29 24 25
f 29 25 30
f 31 26 27
f 31 27 32
f 32 27 28
f 32 28 33
f 33 28 29
f 33 29 34
f 34 29 30
f 34 30 35
f 36 31 32
f 36 32 37
f 37 32 33
f 37 33 38
f 38 33 34
f 38 34 39
f 39 34 35
f 39 35 40
f 41 36 37
f 41 37 42
f 42 37 38
f 42 38 43
f 43 38 39
f 43 39 44
f 44 39 40
f 44 40 45
f 46 41 42
f 46 42 47
f 47 42 43
f 47 43 48
f 48 43 44
f 48 44 49
f 49 44 45
f 49 45 50
f 51 46 47
f 51 47 52
f 52 47 48
f 52 48 53
f 53 48 49
f 53 49 54
f 54 49 50
f 54 50 55
f 56 51 52
f 56 52 57
f 57 52 53
f 57 53 58
f 58 53 54
f 58 54 59
f 59 54 55
f 59 55 60
f 61 56 57
f 61 57 62
f 62 57 58
f 62 58 63
f 63 58 59
f 63 59 64
f 64 59 60
f 64 60 65
f 66 61 62
f 66 62 67
f 67 62 63
f 67 63 68
f 68 63 64
f 68 64 69
f 69 64 65
f 69 65 70
f 71 66 67
f 71 67 72
f 72 67 68
f 72 68 73
f 73 68 69
f 73 69 74
f 74 69 70
f 74 70 75
f 76 71 72
f 76 72 77
f 77 72 73
f 77 73 78
f 78 73 74
f 78 74 79
f 79 74 75
f 79 75 80
f 2 76 77
f 2 77 3
f 3 77 78
f 3 78 5
f 5 78 79
f 5 79 7
f 7 79 80
f 7 80 9
f 81 2 1
f 81 1 82
f 83 76 2
f 83 2 81
f 10 9 80
f 10 80 75
f 10 75 70
f 10 70 65
f 10 65 60
f 10 60 55
f 10 55 50
f 10 50 45
f 10 45 40
f 10 40 35
f 10 35 30
f 10 30 25
f 10 25 20
f 10 20 15
f 82 1 11
f 82 11 84
f 84 11 16
f 84 16 85
f 85 16 21
f 85 21 86
f 86 21 26
f 86 26 87
f 87 26 31
f 87 31 88
f 88 31 36
f 88 36 89
f 89 36 41
f 89 41 90
f 90 41 46
f 90 46 91
f 91 46 51
f 91 51 92
f 92 51 56
f 92 56 93
f 93 56 61
f 93 61 94
f 94 61 66
f 94 66 95
f 95 66 71
f 95 71 96
f 96 71 76
f 96 76 83
f 97 98 99
f 97 99 100
f 98 101 102
f 98 102 99
f 101 103 104
f 101 104 102
f 103 105 106
f 103 106 104
f 107 108 98
f 107 98 97
f 108 109 101
f 108 101 98
f 109 110 103
f 109 103 101
f 110 111 105
f 110 105 103
f 112 113 108
f 112 108 107
f 113 114 109
f 113 109 108
f 114 115 110
f 114 110 109
f 115 116 111
f 115 111 110
f 117 118 113
f 117 113 112
f 118 119 114
f 118 114 113
f 119 120 115
f 119 115 114
f 120 121 116
f 120 116 115
f 122 123 118
f 122 118 117
f 123 124 119
f 123 119 118
f 124 125 120
f 124 120 119
f 125 126 121
f 125 121 120
f 127 128 123
f 127 123 122
f 128 129 124
f 128 124 123
f 129 130 125
f 129 125 124
f 130 131 126
f 130 126 125
f 132 133 128
f 132 128 127
f 133 134 129
f 133 129 128
f 134 135 130
f 134 130 129
f 135 136 131
f 135 131 130
f 137 138 133
f 137 133 132
f 138 139 134
f 138 134 133
f 139 140 135
f 139 135 134
f 140 141 136
f 140 136 135
f 142 143 138
f 142 138 137
f 143 144 139
f 143 139 138
f 144 145 140
f 144 140 139
f 145 146 141
f 145 141 140
f 147 148 143
f 147 143 142
f 148 149 144
f 148 144 143
f 149 150 145
f 149 145 144
f 150 151 146
f 150 146 145
f 152 153 148
f 152 148 147
f 153 154 149
f 153 149 148
f 154 155 150
f 154 150 149
f 155 156 151
f 155 151 150
f 157 158 153
f 157 153 152
f 158 159 154
f 158 154 153
f 159 160 155
f 159 155 154
f 160 161 156
f 160 156 155
f 162 163 158
f 162 158 157
f 163 164 159
f 163 159 158
f 164 165 160
f 164 160 159
f 165 166 161
f 165 161 160
f 167 168 163
f 167 163 162
f 168 169 164
f 168 164 163
f 169 170 165
f 169 165 164
f 170 171 166
f 170 166 165
f 172 173 168
f 172 168 167
f 173 174 169
f 173 169 168
f 174 175 170
f 174 170 169
f 175 176 171
f 175 171 170
f 100 99 173
f 100 173 172
f 99 102 174
f 99 174 173
f 102 104 175
f 102 175 174
f 104 106 176
f 104 176 175
f 81 82 97
f 81 97 100
f 83 81 100
f 83 100 172
f 105 111 116
f 105 116 121
f 105 121 126
f 105 126 131
f 105 131 136
f 105 136 141
f 105 141 146
f 105 146 151
f 105 151 156
f 105 156 161
f 105 161 166
f 105 166 171
f 105 171 176
f 105 176 106
f 82 84 107
f 82 107 97
f 84 85 112
f 84 112 107
f 85 86 117
f 85 117 112
f 86 87 122
f 86 122 117
f 87 88 127
f 87 127 122
f 88 89 132
f 88 132 127
f 89 90 137
f 89 137 132
f 90 91 142
f 90 142 137
f 91 92 147
f 91 147 142
f 92 93 152
f 92 152 147
f 93 94 157
f 93 157 152
f 94 95 162
f 94 162 157
f 95 96 167
f 95 167 162
f 96 83 172
f 96 172 167
