# lizard mesh
v 0.303512 -0.107553 0.113272
v 0.291804 -0.115471 0.131374
v 0.293756 -0.118897 0.132279
v 0.305997 -0.111913 0.114425
v 0.301845 -0.152890 -0.054690
v 0.311753 -0.138262 -0.039426
v 0.314674 -0.143390 -0.038071
v 0.304330 -0.157251 -0.053538
v 0.313063 -0.102640 0.092541
v 0.315984 -0.107768 0.093896
v 0.289844 -0.168783 -0.066129
v 0.291796 -0.172209 -0.065224
v 0.320088 -0.100923 0.069976
v 0.323334 -0.106620 0.071482
v 0.276210 -0.185328 -0.073304
v 0.277555 -0.187688 -0.072680
v 0.324319 -0.102466 0.046445
v 0.327765 -0.108515 0.048044
v 0.261468 -0.201890 -0.075938
v 0.262153 -0.203093 -0.075620
v 0.325592 -0.107211 0.022852
v 0.329105 -0.113378 0.024482
v 0.263780 -0.139005 0.157032
v 0.248541 -0.153716 0.163603
v 0.264465 -0.140208 0.157350
v 0.246183 -0.217833 -0.073932
v 0.323859 -0.114975 0.000104
v 0.327305 -0.121023 0.001703
v 0.278388 -0.126091 0.146149
v 0.279733 -0.128451 0.146773
v 0.319186 -0.125459 -0.020924
v 0.322432 -0.131157 -0.019419
v 0.327670 -0.129801 0.004069
v 0.322776 -0.139425 -0.017190
v 0.279875 -0.131876 0.147696
v 0.293963 -0.123869 0.133619
v 0.314984 -0.150831 -0.036066
v 0.306260 -0.118242 0.116130
v 0.304593 -0.163579 -0.051832
v 0.316293 -0.115209 0.095901
v 0.292003 -0.177181 -0.063884
v 0.323678 -0.114888 0.073710
v 0.277697 -0.191113 -0.071757
v 0.328130 -0.117292 0.050409
v 0.262226 -0.204839 -0.075150
v 0.329478 -0.122327 0.026894
v 0.264538 -0.141954 0.157820
v 0.290457 -0.183507 -0.062160
v 0.276632 -0.195470 -0.070570
v 0.321106 -0.125409 0.076575
v 0.325400 -0.128461 0.053451
v 0.261683 -0.207061 -0.074545
v 0.326694 -0.133715 0.029996
v 0.263995 -0.144176 0.158425
v 0.324940 -0.140969 0.007110
v 0.278810 -0.136234 0.148883
v 0.320204 -0.149946 -0.014325
v 0.292417 -0.130196 0.135342
v 0.312669 -0.160299 -0.033487
v 0.304292 -0.126294 0.118323
v 0.302625 -0.171631 -0.049639
v 0.313979 -0.124677 0.098480
v 0.314816 -0.162315 -0.010933
v 0.307820 -0.171431 -0.030434
v 0.289176 -0.137634 0.137382
v 0.300168 -0.135761 0.120919
v 0.298501 -0.181098 -0.047043
v 0.309130 -0.135809 0.101533
v 0.287216 -0.190945 -0.060121
v 0.315718 -0.137778 0.079968
v 0.274400 -0.200594 -0.069165
v 0.319680 -0.141591 0.057052
v 0.260545 -0.209673 -0.073828
v 0.320862 -0.147103 0.033667
v 0.262857 -0.146787 0.159142
v 0.319220 -0.154100 0.010712
v 0.276578 -0.141357 0.150288
v 0.271088 -0.206286 -0.067596
v 0.258856 -0.212575 -0.073028
v 0.311189 -0.156180 0.061074
v 0.312205 -0.161977 0.037768
v 0.261168 -0.149689 0.159942
v 0.310729 -0.168689 0.014734
v 0.273265 -0.147049 0.151857
v 0.306818 -0.176057 -0.007144
v 0.284367 -0.145898 0.139660
v 0.300622 -0.183798 -0.027024
v 0.294046 -0.146278 0.123819
v 0.292380 -0.191616 -0.044143
v 0.301932 -0.148177 0.104943
v 0.282407 -0.199209 -0.057842
v 0.307720 -0.151520 0.083756
v 0.278173 -0.154669 0.142090
v 0.286163 -0.157443 0.126911
v 0.291353 -0.196926 -0.023389
v 0.284496 -0.202780 -0.041051
v 0.292662 -0.161305 0.108578
v 0.276213 -0.207981 -0.055413
v 0.297420 -0.166107 0.087796
v 0.266821 -0.212328 -0.065922
v 0.300255 -0.171665 0.065363
v 0.256681 -0.215655 -0.072175
v 0.301057 -0.177766 0.042141
v 0.258993 -0.152770 0.160795
v 0.299795 -0.184174 0.019022
v 0.268999 -0.153091 0.153531
v 0.296518 -0.190644 -0.003104
v 0.287297 -0.187453 0.069753
v 0.287845 -0.193862 0.046617
v 0.256416 -0.155910 0.161668
v 0.254104 -0.218795 -0.071302
v 0.286837 -0.199961 0.023412
v 0.263943 -0.159251 0.155244
v 0.284312 -0.205515 0.001031
v 0.270833 -0.163612 0.144576
v 0.280367 -0.210310 -0.019667
v 0.276821 -0.168825 0.130076
v 0.275154 -0.214162 -0.037886
v 0.281677 -0.174689 0.112300
v 0.268873 -0.216924 -0.052926
v 0.285214 -0.180978 0.091931
v 0.261765 -0.218488 -0.064209
v 0.268088 -0.223436 -0.016002
v 0.264712 -0.225325 -0.034769
v 0.266379 -0.179987 0.133193
v 0.269398 -0.187814 0.115965
v 0.260668 -0.225694 -0.050477
v 0.271570 -0.195563 0.096003
v 0.256114 -0.224529 -0.062523
v 0.272813 -0.202935 0.074076
v 0.251223 -0.221875 -0.070442
v 0.273077 -0.209648 0.051024
v 0.253535 -0.158989 0.162528
v 0.272353 -0.215444 0.027735
v 0.258292 -0.165292 0.156930
v 0.270668 -0.220099 0.005103
v 0.262628 -0.172382 0.147025
v 0.250461 -0.161890 0.163341
v 0.248149 -0.224775 -0.069629
v 0.257321 -0.224516 0.055194
v 0.256900 -0.230026 0.031825
v 0.252262 -0.170982 0.158526
v 0.256112 -0.233836 0.008955
v 0.253875 -0.180643 0.149342
v 0.254988 -0.235798 -0.012535
v 0.255237 -0.190500 0.136141
v 0.253571 -0.235838 -0.031821
v 0.256297 -0.200176 0.119432
v 0.251915 -0.233954 -0.048161
v 0.257014 -0.209299 0.099856
v 0.250084 -0.230219 -0.060927
v 0.257359 -0.217518 0.078165
v 0.243826 -0.199961 0.138808
v 0.242878 -0.211301 0.122568
v 0.242159 -0.245299 -0.029154
v 0.242949 -0.241387 -0.046065
v 0.242104 -0.221660 0.103340
v 0.243908 -0.235339 -0.059484
v 0.241531 -0.230640 0.081865
v 0.245000 -0.227386 -0.068893
v 0.241182 -0.237896 0.058966
v 0.247312 -0.164500 0.164077
v 0.241071 -0.243149 0.035524
v 0.246086 -0.176102 0.159969
v 0.241202 -0.246197 0.012440
v 0.244909 -0.188076 0.151437
v 0.241569 -0.246923 -0.009399
v 0.225281 -0.249272 0.062194
v 0.225475 -0.254307 0.038690
v 0.244210 -0.166720 0.164707
v 0.240001 -0.180456 0.161205
v 0.226511 -0.256707 0.015423
v 0.236074 -0.194396 0.153231
v 0.228347 -0.256382 -0.006715
v 0.232582 -0.208005 0.141091
v 0.230915 -0.253343 -0.026871
v 0.229657 -0.220760 0.125252
v 0.234114 -0.247708 -0.044272
v 0.227413 -0.232171 0.106323
v 0.237823 -0.239692 -0.058248
v 0.225935 -0.241798 0.085031
v 0.241898 -0.229605 -0.068263
v 0.220271 -0.259662 -0.025060
v 0.225752 -0.252673 -0.042849
v 0.217141 -0.228191 0.127382
v 0.213506 -0.240427 0.108690
v 0.232063 -0.243112 -0.057268
v 0.211172 -0.250563 0.087543
v 0.238962 -0.231348 -0.067763
v 0.210228 -0.258209 0.064756
v 0.241274 -0.168463 0.165207
v 0.210712 -0.263071 0.041203
v 0.234241 -0.183876 0.162185
v 0.212604 -0.264963 0.017789
v 0.227712 -0.199361 0.154654
v 0.215832 -0.263812 -0.004585
v 0.221938 -0.214324 0.142902
v 0.197348 -0.269106 0.042964
v 0.200016 -0.270648 0.019449
v 0.229026 -0.186230 0.162872
v 0.220142 -0.202779 0.155652
v 0.204502 -0.268928 -0.003091
v 0.212303 -0.218675 0.144172
v 0.210636 -0.264013 -0.023790
v 0.205812 -0.233306 0.128876
v 0.218182 -0.256091 -0.041851
v 0.200918 -0.246111 0.110349
v 0.226848 -0.245467 -0.056581
v 0.197808 -0.256597 0.089305
v 0.236303 -0.232549 -0.067413
v 0.196603 -0.264361 0.066552
v 0.238615 -0.169663 0.165557
v 0.211695 -0.257831 -0.041317
v 0.222381 -0.246666 -0.056213
v 0.190131 -0.249005 0.111237
v 0.186357 -0.259670 0.090248
v 0.234026 -0.233160 -0.067225
v 0.184928 -0.267494 0.067513
v 0.236338 -0.170275 0.165745
v 0.185898 -0.272178 0.043907
v 0.224558 -0.187429 0.163240
v 0.189229 -0.273542 0.020337
v 0.213656 -0.204520 0.156186
v 0.194795 -0.271533 -0.002292
v 0.204048 -0.220890 0.144852
v 0.202381 -0.266228 -0.023110
v 0.196105 -0.235911 0.129675
v 0.221009 -0.187426 0.163275
v 0.208502 -0.204515 0.156236
v 0.180660 -0.273535 0.020420
v 0.187083 -0.271526 -0.002217
v 0.197489 -0.220885 0.144916
v 0.195822 -0.266222 -0.023046
v 0.188392 -0.235905 0.129750
v 0.206542 -0.257827 -0.041267
v 0.181562 -0.248998 0.111320
v 0.218831 -0.246663 -0.056178
v 0.177260 -0.259662 0.090336
v 0.232216 -0.233158 -0.067208
v 0.175652 -0.267486 0.067603
v 0.234528 -0.170273 0.165762
v 0.176800 -0.272171 0.043996
v 0.175538 -0.246090 0.110595
v 0.170866 -0.256574 0.089566
v 0.216336 -0.245458 -0.056479
v 0.230944 -0.232544 -0.067361
v 0.169132 -0.264338 0.066818
v 0.233256 -0.169659 0.165609
v 0.170406 -0.269083 0.043226
v 0.218514 -0.186221 0.162974
v 0.174636 -0.270626 0.019695
v 0.204880 -0.202766 0.155800
v 0.181662 -0.268909 -0.002870
v 0.192879 -0.218659 0.144361
v 0.191212 -0.263996 -0.023601
v 0.182971 -0.233287 0.129097
v 0.202920 -0.256078 -0.041703
v 0.171390 -0.264929 0.018189
v 0.178740 -0.263781 -0.004225
v 0.202928 -0.199340 0.154894
v 0.190394 -0.214298 0.143208
v 0.188727 -0.259636 -0.024754
v 0.180050 -0.228159 0.127742
v 0.200968 -0.252652 -0.042608
v 0.172292 -0.240392 0.109089
v 0.214991 -0.243098 -0.057102
v 0.167420 -0.250526 0.087968
v 0.230259 -0.231341 -0.067679
v 0.165619 -0.258171 0.065189
v 0.232571 -0.168456 0.165291
v 0.166960 -0.263035 0.041627
v 0.217169 -0.183861 0.162351
v 0.214849 -0.239673 -0.058025
v 0.230186 -0.229595 -0.068150
v 0.167055 -0.241749 0.085602
v 0.165247 -0.249222 0.062777
v 0.232498 -0.166710 0.164821
v 0.166595 -0.254257 0.039261
v 0.217027 -0.180437 0.161428
v 0.171046 -0.256661 0.015961
v 0.202721 -0.194368 0.153554
v 0.178431 -0.256340 -0.006231
v 0.190131 -0.207970 0.141503
v 0.188464 -0.253308 -0.026459
v 0.179740 -0.220718 0.125736
v 0.200761 -0.247680 -0.043948
v 0.171948 -0.232124 0.106861
v 0.204268 -0.188042 0.151831
v 0.192099 -0.199918 0.139310
v 0.180745 -0.246872 -0.008809
v 0.190433 -0.245255 -0.028652
v 0.182055 -0.211250 0.123158
v 0.202308 -0.241353 -0.045671
v 0.174520 -0.221603 0.103996
v 0.215914 -0.235315 -0.059212
v 0.169784 -0.230580 0.082560
v 0.230729 -0.227374 -0.068755
v 0.168030 -0.237834 0.059675
v 0.233041 -0.164488 0.164216
v 0.169325 -0.243089 0.036220
v 0.218092 -0.176079 0.160241
v 0.173618 -0.246140 0.013095
v 0.175505 -0.217449 0.078959
v 0.173862 -0.224446 0.056003
v 0.234179 -0.161876 0.163499
v 0.231867 -0.224762 -0.069471
v 0.175045 -0.229958 0.032618
v 0.220324 -0.170955 0.158836
v 0.179006 -0.233771 0.009703
v 0.207508 -0.180604 0.149791
v 0.185594 -0.235740 -0.011862
v 0.196223 -0.190451 0.136713
v 0.194556 -0.235789 -0.031249
v 0.186904 -0.200118 0.120105
v 0.205548 -0.233915 -0.047711
v 0.179908 -0.209234 0.100604
v 0.218146 -0.230192 -0.060617
v 0.192792 -0.223372 -0.015272
v 0.200678 -0.225271 -0.034148
v 0.202345 -0.179933 0.133814
v 0.194102 -0.187751 0.116695
v 0.210357 -0.225652 -0.049990
v 0.187906 -0.195492 0.096815
v 0.221459 -0.224500 -0.062187
v 0.183995 -0.202861 0.074937
v 0.233556 -0.221860 -0.070271
v 0.182519 -0.209572 0.051903
v 0.235868 -0.158975 0.162699
v 0.183535 -0.215369 0.028596
v 0.223637 -0.165263 0.157266
v 0.187004 -0.220029 0.005914
v 0.212317 -0.172340 0.147513
v 0.235731 -0.218780 -0.071124
v 0.193668 -0.193783 0.047530
v 0.194469 -0.199884 0.024308
v 0.238043 -0.155894 0.161846
v 0.227903 -0.159221 0.155593
v 0.197304 -0.205442 0.001875
v 0.218511 -0.163568 0.145084
v 0.202062 -0.210244 -0.018908
v 0.210228 -0.168769 0.130722
v 0.208561 -0.214107 -0.037240
v 0.203372 -0.174623 0.113059
v 0.216551 -0.216880 -0.052419
v 0.198206 -0.180905 0.092775
v 0.225725 -0.218458 -0.063860
v 0.194929 -0.187375 0.070649
v 0.217903 -0.202724 -0.040405
v 0.223891 -0.207937 -0.054906
v 0.214357 -0.161239 0.109338
v 0.210412 -0.166034 0.088640
v 0.230781 -0.212298 -0.065573
v 0.207888 -0.171588 0.066259
v 0.238308 -0.215639 -0.071997
v 0.206880 -0.177687 0.043054
v 0.240620 -0.152754 0.160973
v 0.207428 -0.184096 0.019918
v 0.232959 -0.153061 0.153880
v 0.209510 -0.190571 -0.002261
v 0.225851 -0.154625 0.142597
v 0.213047 -0.196861 -0.022629
v 0.219570 -0.157387 0.127557
v 0.243501 -0.149674 0.160113
v 0.238610 -0.147020 0.152194
v 0.221912 -0.168614 0.015595
v 0.223154 -0.175987 -0.006333
v 0.234056 -0.145855 0.140148
v 0.225326 -0.183735 -0.026294
v 0.230013 -0.146225 0.124440
v 0.228346 -0.191562 -0.043522
v 0.226636 -0.148114 0.105673
v 0.232096 -0.199167 -0.057354
v 0.224056 -0.151450 0.084568
v 0.236433 -0.206257 -0.067260
v 0.222371 -0.156105 0.061936
v 0.241189 -0.212560 -0.072857
v 0.221647 -0.161901 0.038646
v 0.239737 -0.135751 0.102206
v 0.238613 -0.137713 0.080715
v 0.240849 -0.190907 -0.059671
v 0.242462 -0.200567 -0.068855
v 0.237825 -0.141523 0.057846
v 0.244263 -0.209659 -0.073671
v 0.237403 -0.147033 0.034477
v 0.246575 -0.146774 0.159300
v 0.237365 -0.154031 0.011505
v 0.244640 -0.141330 0.150598
v 0.237710 -0.162250 -0.010185
v 0.242809 -0.137595 0.137832
v 0.238427 -0.171373 -0.029761
v 0.241154 -0.135711 0.121492
v 0.239487 -0.181049 -0.046470
v 0.253193 -0.140909 0.007806
v 0.252621 -0.149889 -0.013670
v 0.250816 -0.136210 0.149154
v 0.251776 -0.130162 0.135736
v 0.251846 -0.160248 -0.032897
v 0.252565 -0.126250 0.118825
v 0.250899 -0.171588 -0.049137
v 0.253155 -0.124626 0.099070
v 0.249815 -0.183473 -0.061766
v 0.253523 -0.125352 0.077231
v 0.248638 -0.195447 -0.070299
v 0.253653 -0.128400 0.054147
v 0.247412 -0.207049 -0.074406
v 0.253542 -0.133653 0.030705
v 0.249724 -0.144164 0.158564
v 0.258650 -0.177153 -0.063560
v 0.254723 -0.191093 -0.071534
v 0.268213 -0.114842 0.074248
v 0.269249 -0.117242 0.050980
v 0.250514 -0.204829 -0.075036
v 0.269443 -0.122277 0.027476
v 0.252826 -0.141944 0.157934
v 0.268789 -0.129751 0.004640
v 0.256901 -0.131857 0.147919
v 0.267311 -0.139379 -0.016652
v 0.260610 -0.123841 0.133943
v 0.265067 -0.150789 -0.035582
v 0.263809 -0.118206 0.116542
v 0.262142 -0.163544 -0.051420
v 0.266377 -0.115167 0.096385
v 0.262662 -0.128437 0.146939
v 0.268973 -0.118877 0.132519
v 0.281218 -0.131122 -0.019019
v 0.277583 -0.143359 -0.037711
v 0.274453 -0.111887 0.114730
v 0.272786 -0.157225 -0.053232
v 0.278892 -0.107737 0.094256
v 0.267013 -0.172188 -0.064983
v 0.282120 -0.106586 0.071881
v 0.260484 -0.187674 -0.072514
v 0.284012 -0.108478 0.048468
v 0.253451 -0.203086 -0.075536
v 0.284496 -0.113340 0.024915
v 0.255763 -0.140201 0.157434
v 0.283552 -0.120987 0.002127
v 0.294709 -0.100901 0.070222
v 0.297376 -0.102443 0.046706
v 0.265698 -0.185319 -0.073202
v 0.256109 -0.201886 -0.075886
v 0.298121 -0.107188 0.023119
v 0.258421 -0.139000 0.157084
v 0.296916 -0.114952 0.000366
v 0.267876 -0.126082 0.146251
v 0.293807 -0.125438 -0.020678
v 0.276542 -0.115458 0.131522
v 0.288912 -0.138243 -0.039205
v 0.284088 -0.107536 0.113461
v 0.282421 -0.152874 -0.054502
v 0.290222 -0.102621 0.092762
v 0.274582 -0.168770 -0.065981
v 0.304593 -0.122544 -0.021567
v 0.298619 -0.135638 -0.040004
v 0.283029 -0.113718 0.130987
v 0.292343 -0.105321 0.112781
v 0.290676 -0.150659 -0.055181
v 0.299929 -0.100016 0.091963
v 0.281069 -0.167029 -0.066515
v 0.305495 -0.098007 0.069334
v 0.270166 -0.184120 -0.073570
v 0.308827 -0.099371 0.045763
v 0.258386 -0.201275 -0.076074
v 0.309796 -0.104055 0.022157
v 0.260698 -0.138389 0.156896
v 0.308367 -0.111880 -0.000577
v 0.272344 -0.124884 0.145883
v 0.273715 -0.184123 -0.073604
v 0.260196 -0.201276 -0.076091
v 0.317924 -0.099379 0.045675
v 0.319072 -0.104063 0.022067
v 0.262508 -0.138391 0.156879
v 0.317464 -0.111887 -0.000665
v 0.275893 -0.124887 0.145849
v 0.313162 -0.122551 -0.021650
v 0.288182 -0.113722 0.130937
v 0.306332 -0.135645 -0.040079
v 0.298902 -0.105327 0.112717
v 0.297235 -0.150665 -0.055245
v 0.307641 -0.100023 0.091888
v 0.286222 -0.167034 -0.066565
v 0.314064 -0.098014 0.069251
v -0.303512 -0.107553 0.113272
v -0.305997 -0.111913 0.114425
v -0.293756 -0.118897 0.132279
v -0.291804 -0.115471 0.131374
v -0.301845 -0.152890 -0.054690
v -0.304330 -0.157251 -0.053538
v -0.314674 -0.143390 -0.038071
v -0.311753 -0.138262 -0.039426
v -0.313063 -0.102640 0.092541
v -0.315984 -0.107768 0.093896
v -0.289844 -0.168783 -0.066129
v -0.291796 -0.172209 -0.065224
v -0.320088 -0.100923 0.069976
v -0.323334 -0.106620 0.071482
v -0.276210 -0.185328 -0.073304
v -0.277555 -0.187688 -0.072680
v -0.324319 -0.102466 0.046445
v -0.327765 -0.108515 0.048044
v -0.261468 -0.201890 -0.075938
v -0.262153 -0.203093 -0.075620
v -0.325592 -0.107211 0.022852
v -0.329105 -0.113378 0.024482
v -0.263780 -0.139005 0.157032
v -0.264465 -0.140208 0.157350
v -0.248541 -0.153716 0.163603
v -0.246183 -0.217833 -0.073932
v -0.323859 -0.114975 0.000104
v -0.327305 -0.121023 0.001703
v -0.278388 -0.126091 0.146149
v -0.279733 -0.128451 0.146773
v -0.319186 -0.125459 -0.020924
v -0.322432 -0.131157 -0.019419
v -0.322776 -0.139425 -0.017190
v -0.327670 -0.129801 0.004069
v -0.293963 -0.123869 0.133619
v -0.279875 -0.131876 0.147696
v -0.314984 -0.150831 -0.036066
v -0.306260 -0.118242 0.116130
v -0.304593 -0.163579 -0.051832
v -0.316293 -0.115209 0.095901
v -0.292003 -0.177181 -0.063884
v -0.323678 -0.114888 0.073710
v -0.277697 -0.191113 -0.071757
v -0.328130 -0.117292 0.050409
v -0.262226 -0.204839 -0.075150
v -0.329477 -0.122327 0.026894
v -0.264538 -0.141954 0.157820
v -0.276632 -0.195470 -0.070570
v -0.290457 -0.183507 -0.062160
v -0.325400 -0.128461 0.053451
v -0.321106 -0.125409 0.076575
v -0.261683 -0.207061 -0.074545
v -0.326694 -0.133715 0.029996
v -0.263995 -0.144176 0.158425
v -0.324940 -0.140969 0.007110
v -0.278810 -0.136234 0.148883
v -0.320204 -0.149946 -0.014325
v -0.292417 -0.130196 0.135342
v -0.312669 -0.160299 -0.033487
v -0.304292 -0.126294 0.118323
v -0.302625 -0.171631 -0.049639
v -0.313979 -0.124677 0.098480
v -0.307820 -0.171431 -0.030434
v -0.314816 -0.162315 -0.010933
v -0.300168 -0.135761 0.120919
v -0.289176 -0.137634 0.137382
v -0.298501 -0.181098 -0.047043
v -0.309130 -0.135809 0.101533
v -0.287216 -0.190945 -0.060121
v -0.315718 -0.137778 0.079968
v -0.274400 -0.200594 -0.069165
v -0.319680 -0.141591 0.057052
v -0.260545 -0.209673 -0.073828
v -0.320862 -0.147103 0.033667
v -0.262857 -0.146787 0.159142
v -0.319220 -0.154100 0.010712
v -0.276578 -0.141357 0.150288
v -0.258856 -0.212575 -0.073028
v -0.271087 -0.206286 -0.067596
v -0.312205 -0.161977 0.037768
v -0.311189 -0.156180 0.061074
v -0.261168 -0.149689 0.159942
v -0.310729 -0.168689 0.014734
v -0.273265 -0.147049 0.151857
v -0.306818 -0.176057 -0.007144
v -0.284367 -0.145898 0.139660
v -0.300622 -0.183798 -0.027024
v -0.294046 -0.146278 0.123819
v -0.292380 -0.191616 -0.044143
v -0.301932 -0.148177 0.104943
v -0.282407 -0.199209 -0.057842
v -0.307720 -0.151520 0.083756
v -0.286163 -0.157443 0.126911
v -0.278173 -0.154669 0.142090
v -0.284496 -0.202780 -0.041051
v -0.291353 -0.196926 -0.023389
v -0.292662 -0.161305 0.108578
v -0.276213 -0.207981 -0.055413
v -0.297420 -0.166107 0.087796
v -0.266821 -0.212328 -0.065922
v -0.300255 -0.171665 0.065363
v -0.256681 -0.215655 -0.072175
v -0.301057 -0.177766 0.042141
v -0.258993 -0.152770 0.160795
v -0.299795 -0.184174 0.019022
v -0.268999 -0.153091 0.153531
v -0.296518 -0.190644 -0.003104
v -0.287845 -0.193862 0.046617
v -0.287297 -0.187453 0.069753
v -0.256416 -0.155910 0.161668
v -0.254104 -0.218795 -0.071302
v -0.286837 -0.199961 0.023412
v -0.263943 -0.159251 0.155244
v -0.284312 -0.205515 0.001031
v -0.270833 -0.163612 0.144576
v -0.280367 -0.210310 -0.019667
v -0.276821 -0.168825 0.130076
v -0.275154 -0.214162 -0.037886
v -0.281677 -0.174689 0.112300
v -0.268873 -0.216924 -0.052926
v -0.285214 -0.180978 0.091931
v -0.261765 -0.218488 -0.064209
v -0.264712 -0.225325 -0.034769
v -0.268088 -0.223436 -0.016002
v -0.269398 -0.187814 0.115965
v -0.266379 -0.179987 0.133193
v -0.260668 -0.225694 -0.050477
v -0.271570 -0.195563 0.096003
v -0.256114 -0.224529 -0.062523
v -0.272813 -0.202935 0.074076
v -0.251223 -0.221875 -0.070442
v -0.273077 -0.209648 0.051024
v -0.253535 -0.158989 0.162528
v -0.272353 -0.215444 0.027735
v -0.258292 -0.165292 0.156930
v -0.270668 -0.220099 0.005103
v -0.262628 -0.172382 0.147025
v -0.250461 -0.161890 0.163341
v -0.248149 -0.224775 -0.069629
v -0.256900 -0.230026 0.031825
v -0.257321 -0.224516 0.055194
v -0.252262 -0.170982 0.158526
v -0.256112 -0.233836 0.008955
v -0.253875 -0.180643 0.149342
v -0.254988 -0.235798 -0.012535
v -0.255237 -0.190500 0.136141
v -0.253571 -0.235838 -0.031821
v -0.256297 -0.200176 0.119432
v -0.251915 -0.233954 -0.048161
v -0.257014 -0.209299 0.099856
v -0.250084 -0.230219 -0.060927
v -0.257359 -0.217518 0.078165
v -0.242878 -0.211301 0.122568
v -0.243826 -0.199961 0.138808
v -0.242949 -0.241387 -0.046065
v -0.242159 -0.245299 -0.029154
v -0.242104 -0.221660 0.103340
v -0.243908 -0.235339 -0.059484
v -0.241531 -0.230640 0.081865
v -0.245000 -0.227386 -0.068893
v -0.241182 -0.237896 0.058966
v -0.247312 -0.164500 0.164077
v -0.241071 -0.243149 0.035524
v -0.246086 -0.176102 0.159969
v -0.241202 -0.246197 0.012440
v -0.244909 -0.188076 0.151437
v -0.241569 -0.246923 -0.009399
v -0.225475 -0.254307 0.038690
v -0.225281 -0.249272 0.062194
v -0.240001 -0.180456 0.161205
v -0.244210 -0.166720 0.164707
v -0.226511 -0.256707 0.015423
v -0.236074 -0.194396 0.153231
v -0.228347 -0.256382 -0.006715
v -0.232582 -0.208005 0.141091
v -0.230915 -0.253343 -0.026871
v -0.229657 -0.220760 0.125252
v -0.234114 -0.247708 -0.044272
v -0.227413 -0.232171 0.106323
v -0.237823 -0.239692 -0.058248
v -0.225935 -0.241798 0.085031
v -0.241898 -0.229605 -0.068263
v -0.225752 -0.252673 -0.042849
v -0.220271 -0.259662 -0.025060
v -0.213506 -0.240427 0.108690
v -0.217141 -0.228191 0.127382
v -0.232063 -0.243112 -0.057268
v -0.211172 -0.250563 0.087543
v -0.238962 -0.231348 -0.067763
v -0.210228 -0.258209 0.064756
v -0.241274 -0.168463 0.165207
v -0.210712 -0.263071 0.041203
v -0.234241 -0.183876 0.162185
v -0.212604 -0.264963 0.017789
v -0.227712 -0.199361 0.154654
v -0.215832 -0.263812 -0.004585
v -0.221938 -0.214324 0.142902
v -0.200016 -0.270648 0.019449
v -0.197348 -0.269106 0.042964
v -0.220142 -0.202779 0.155652
v -0.229026 -0.186230 0.162872
v -0.204502 -0.268928 -0.003091
v -0.212303 -0.218675 0.144172
v -0.210636 -0.264013 -0.023790
v -0.205812 -0.233306 0.128876
v -0.218182 -0.256091 -0.041851
v -0.200918 -0.246111 0.110349
v -0.226848 -0.245467 -0.056581
v -0.197808 -0.256597 0.089305
v -0.236303 -0.232549 -0.067413
v -0.196603 -0.264361 0.066552
v -0.238615 -0.169663 0.165557
v -0.222381 -0.246666 -0.056213
v -0.211695 -0.257831 -0.041317
v -0.186357 -0.259670 0.090248
v -0.190131 -0.249005 0.111237
v -0.234026 -0.233160 -0.067225
v -0.184928 -0.267494 0.067513
v -0.236338 -0.170275 0.165745
v -0.185898 -0.272178 0.043907
v -0.224559 -0.187429 0.163240
v -0.189229 -0.273542 0.020337
v -0.213656 -0.204520 0.156186
v -0.194795 -0.271533 -0.002292
v -0.204048 -0.220890 0.144852
v -0.202381 -0.266228 -0.023110
v -0.196105 -0.235911 0.129675
v -0.208502 -0.204515 0.156236
v -0.221009 -0.187426 0.163275
v -0.187083 -0.271526 -0.002217
v -0.180660 -0.273535 0.020420
v -0.197489 -0.220885 0.144916
v -0.195822 -0.266222 -0.023046
v -0.188392 -0.235905 0.129750
v -0.206542 -0.257827 -0.041267
v -0.181562 -0.248998 0.111320
v -0.218831 -0.246663 -0.056178
v -0.177260 -0.259662 0.090336
v -0.232216 -0.233158 -0.067208
v -0.175652 -0.267486 0.067603
v -0.234528 -0.170273 0.165762
v -0.176800 -0.272171 0.043996
v -0.170866 -0.256574 0.089566
v -0.175538 -0.246090 0.110595
v -0.230944 -0.232544 -0.067361
v -0.216336 -0.245458 -0.056479
v -0.169132 -0.264338 0.066818
v -0.233256 -0.169659 0.165609
v -0.170406 -0.269083 0.043226
v -0.218514 -0.186221 0.162974
v -0.174636 -0.270626 0.019695
v -0.204880 -0.202766 0.155800
v -0.181662 -0.268909 -0.002870
v -0.192879 -0.218659 0.144361
v -0.191212 -0.263996 -0.023601
v -0.182971 -0.233287 0.129097
v -0.202920 -0.256078 -0.041703
v -0.178740 -0.263781 -0.004225
v -0.171390 -0.264929 0.018189
v -0.190394 -0.214298 0.143208
v -0.202928 -0.199340 0.154894
v -0.188727 -0.259636 -0.024754
v -0.180050 -0.228159 0.127742
v -0.200968 -0.252652 -0.042608
v -0.172292 -0.240392 0.109089
v -0.214991 -0.243098 -0.057102
v -0.167420 -0.250526 0.087968
v -0.230259 -0.231341 -0.067679
v -0.165619 -0.258171 0.065189
v -0.232571 -0.168456 0.165291
v -0.166960 -0.263035 0.041627
v -0.217169 -0.183861 0.162351
v -0.230186 -0.229595 -0.068150
v -0.214849 -0.239673 -0.058025
v -0.165247 -0.249222 0.062777
v -0.167055 -0.241749 0.085602
v -0.232498 -0.166710 0.164821
v -0.166595 -0.254257 0.039261
v -0.217027 -0.180437 0.161428
v -0.171046 -0.256661 0.015961
v -0.202721 -0.194368 0.153554
v -0.178431 -0.256340 -0.006231
v -0.190131 -0.207970 0.141503
v -0.188464 -0.253308 -0.026459
v -0.179741 -0.220718 0.125736
v -0.200761 -0.247680 -0.043948
v -0.171948 -0.232124 0.106861
v -0.192099 -0.199918 0.139310
v -0.204268 -0.188042 0.151831
v -0.190433 -0.245255 -0.028652
v -0.180745 -0.246872 -0.008809
v -0.182055 -0.211250 0.123158
v -0.202308 -0.241353 -0.045671
v -0.174520 -0.221603 0.103996
v -0.215914 -0.235315 -0.059212
v -0.169784 -0.230580 0.082560
v -0.230729 -0.227374 -0.068755
v -0.168030 -0.237834 0.059675
v -0.233041 -0.164488 0.164216
v -0.169325 -0.243089 0.036220
v -0.218092 -0.176079 0.160241
v -0.173618 -0.246140 0.013095
v -0.173862 -0.224446 0.056003
v -0.175505 -0.217449 0.078959
v -0.234179 -0.161876 0.163499
v -0.231867 -0.224762 -0.069471
v -0.175045 -0.229958 0.032618
v -0.220324 -0.170955 0.158836
v -0.179006 -0.233771 0.009703
v -0.207508 -0.180604 0.149791
v -0.185594 -0.235740 -0.011862
v -0.196223 -0.190451 0.136713
v -0.194556 -0.235789 -0.031249
v -0.186904 -0.200118 0.120105
v -0.205548 -0.233915 -0.047711
v -0.179908 -0.209234 0.100604
v -0.218146 -0.230192 -0.060617
v -0.200678 -0.225271 -0.034148
v -0.192792 -0.223372 -0.015272
v -0.194102 -0.187751 0.116695
v -0.202345 -0.179933 0.133814
v -0.210357 -0.225652 -0.049990
v -0.187906 -0.195492 0.096815
v -0.221459 -0.224500 -0.062187
v -0.183995 -0.202861 0.074937
v -0.233556 -0.221860 -0.070271
v -0.182519 -0.209572 0.051903
v -0.235868 -0.158975 0.162699
v -0.183535 -0.215369 0.028596
v -0.223637 -0.165263 0.157266
v -0.187004 -0.220029 0.005914
v -0.212317 -0.172340 0.147513
v -0.235731 -0.218780 -0.071124
v -0.194469 -0.199884 0.024308
v -0.193668 -0.193783 0.047530
v -0.227903 -0.159221 0.155593
v -0.238043 -0.155894 0.161846
v -0.197304 -0.205442 0.001875
v -0.218511 -0.163568 0.145084
v -0.202062 -0.210244 -0.018908
v -0.210228 -0.168769 0.130722
v -0.208561 -0.214107 -0.037240
v -0.203372 -0.174623 0.113059
v -0.216551 -0.216880 -0.052419
v -0.198206 -0.180905 0.092775
v -0.225725 -0.218458 -0.063860
v -0.194929 -0.187375 0.070649
v -0.223891 -0.207937 -0.054906
v -0.217903 -0.202724 -0.040405
v -0.210412 -0.166034 0.088640
v -0.214357 -0.161239 0.109338
v -0.230781 -0.212298 -0.065573
v -0.207888 -0.171588 0.066259
v -0.238308 -0.215639 -0.071997
v -0.206880 -0.177687 0.043054
v -0.240620 -0.152754 0.160973
v -0.207428 -0.184096 0.019918
v -0.232959 -0.153061 0.153880
v -0.209510 -0.190571 -0.002261
v -0.225851 -0.154625 0.142597
v -0.213047 -0.196861 -0.022629
v -0.219570 -0.157387 0.127557
v -0.238610 -0.147020 0.152194
v -0.243501 -0.149674 0.160113
v -0.223154 -0.175987 -0.006333
v -0.221912 -0.168614 0.015595
v -0.234056 -0.145855 0.140148
v -0.225326 -0.183735 -0.026294
v -0.230013 -0.146225 0.124440
v -0.228346 -0.191562 -0.043522
v -0.226636 -0.148114 0.105673
v -0.232096 -0.199167 -0.057354
v -0.224056 -0.151450 0.084568
v -0.236433 -0.206257 -0.067260
v -0.222372 -0.156105 0.061936
v -0.241189 -0.212560 -0.072857
v -0.221647 -0.161901 0.038646
v -0.238613 -0.137713 0.080715
v -0.239737 -0.135751 0.102206
v -0.242462 -0.200567 -0.068855
v -0.240849 -0.190907 -0.059671
v -0.237825 -0.141523 0.057846
v -0.244263 -0.209659 -0.073671
v -0.237403 -0.147033 0.034477
v -0.246575 -0.146774 0.159300
v -0.237365 -0.154031 0.011505
v -0.244640 -0.141330 0.150598
v -0.237710 -0.162250 -0.010185
v -0.242809 -0.137595 0.137832
v -0.238427 -0.171373 -0.029761
v -0.241154 -0.135711 0.121492
v -0.239487 -0.181049 -0.046470
v -0.252621 -0.149889 -0.013670
v -0.253193 -0.140909 0.007806
v -0.251776 -0.130162 0.135736
v -0.250816 -0.136210 0.149154
v -0.251846 -0.160248 -0.032897
v -0.252565 -0.126250 0.118825
v -0.250899 -0.171588 -0.049137
v -0.253155 -0.124626 0.099070
v -0.249816 -0.183473 -0.061766
v -0.253523 -0.125352 0.077231
v -0.248638 -0.195447 -0.070299
v -0.253653 -0.128400 0.054147
v -0.247412 -0.207049 -0.074406
v -0.253542 -0.133653 0.030705
v -0.249724 -0.144164 0.158564
v -0.254723 -0.191093 -0.071534
v -0.258650 -0.177153 -0.063560
v -0.269249 -0.117242 0.050980
v -0.268213 -0.114842 0.074248
v -0.250514 -0.204829 -0.075036
v -0.269443 -0.122277 0.027476
v -0.252826 -0.141944 0.157934
v -0.268789 -0.129751 0.004640
v -0.256901 -0.131857 0.147919
v -0.267311 -0.139379 -0.016652
v -0.260610 -0.123841 0.133943
v -0.265067 -0.150789 -0.035582
v -0.263809 -0.118206 0.116542
v -0.262142 -0.163544 -0.051420
v -0.266377 -0.115167 0.096385
v -0.268972 -0.118877 0.132519
v -0.262661 -0.128437 0.146939
v -0.277583 -0.143359 -0.037711
v -0.281218 -0.131122 -0.019019
v -0.274453 -0.111887 0.114730
v -0.272786 -0.157225 -0.053232
v -0.278892 -0.107737 0.094256
v -0.267012 -0.172188 -0.064983
v -0.282120 -0.106586 0.071881
v -0.260484 -0.187674 -0.072514
v -0.284012 -0.108478 0.048468
v -0.253451 -0.203086 -0.075536
v -0.284496 -0.113340 0.024915
v -0.255763 -0.140201 0.157434
v -0.283552 -0.120987 0.002127
v -0.297376 -0.102443 0.046706
v -0.294709 -0.100901 0.070222
v -0.256109 -0.201886 -0.075886
v -0.265698 -0.185319 -0.073202
v -0.298121 -0.107188 0.023119
v -0.258421 -0.139000 0.157084
v -0.296916 -0.114952 0.000366
v -0.267876 -0.126082 0.146251
v -0.293807 -0.125438 -0.020678
v -0.276542 -0.115458 0.131522
v -0.288912 -0.138243 -0.039205
v -0.284088 -0.107536 0.113461
v -0.282421 -0.152874 -0.054502
v -0.290222 -0.102621 0.092762
v -0.274582 -0.168770 -0.065981
v -0.298619 -0.135638 -0.040004
v -0.304593 -0.122544 -0.021567
v -0.292343 -0.105321 0.112781
v -0.283029 -0.113718 0.130987
v -0.290676 -0.150659 -0.055181
v -0.299929 -0.100016 0.091963
v -0.281069 -0.167029 -0.066515
v -0.305495 -0.098007 0.069334
v -0.270166 -0.184120 -0.073570
v -0.308827 -0.099371 0.045763
v -0.258386 -0.201275 -0.076074
v -0.309796 -0.104055 0.022157
v -0.260698 -0.138389 0.156896
v -0.308367 -0.111880 -0.000577
v -0.272344 -0.124884 0.145883
v -0.260196 -0.201276 -0.076091
v -0.273715 -0.184123 -0.073604
v -0.319072 -0.104063 0.022067
v -0.317924 -0.099379 0.045675
v -0.262508 -0.138391 0.156879
v -0.317464 -0.111887 -0.000665
v -0.275893 -0.124887 0.145849
v -0.313162 -0.122551 -0.021650
v -0.288182 -0.113722 0.130937
v -0.306332 -0.135645 -0.040079
v -0.298902 -0.105327 0.112717
v -0.297235 -0.150665 -0.055245
v -0.307641 -0.100023 0.091888
v -0.286222 -0.167034 -0.066565
v -0.314064 -0.098014 0.069251
f 1 2 3
f 1 3 4
f 5 6 7
f 5 7 8
f 9 1 4
f 9 4 10
f 11 5 8
f 11 8 12
f 13 9 10
f 13 10 14
f 15 11 12
f 15 12 16
f 17 13 14
f 17 14 18
f 19 15 16
f 19 16 20
f 21 17 18
f 21 18 22
f 23 24 25
f 26 19 20
f 27 21 22
f 27 22 28
f 29 23 25
f 29 25 30
f 31 27 28
f 31 28 32
f 2 29 30
f 2 30 3
f 6 31 32
f 6 32 7
f 32 28 33
f 32 33 34
f 3 30 35
f 3 35 36
f 7 32 34
f 7 34 37
f 4 3 36
f 4 36 38
f 8 7 37
f 8 37 39
f 10 4 38
f 10 38 40
f 12 8 39
f 12 39 41
f 14 10 40
f 14 40 42
f 16 12 41
f 16 41 43
f 18 14 42
f 18 42 44
f 20 16 43
f 20 43 45
f 22 18 44
f 22 44 46
f 25 24 47
f 26 20 45
f 28 22 46
f 28 46 33
f 30 25 47
f 30 47 35
f 43 41 48
f 43 48 49
f 44 42 50
f 44 50 51
f 45 43 49
f 45 49 52
f 46 44 51
f 46 51 53
f 47 24 54
f 26 45 52
f 33 46 53
f 33 53 55
f 35 47 54
f 35 54 56
f 34 33 55
f 34 55 57
f 36 35 56
f 36 56 58
f 37 34 57
f 37 57 59
f 38 36 58
f 38 58 60
f 39 37 59
f 39 59 61
f 40 38 60
f 40 60 62
f 41 39 61
f 41 61 48
f 42 40 62
f 42 62 50
f 59 57 63
f 59 63 64
f 60 58 65
f 60 65 66
f 61 59 64
f 61 64 67
f 62 60 66
f 62 66 68
f 48 61 67
f 48 67 69
f 50 62 68
f 50 68 70
f 49 48 69
f 49 69 71
f 51 50 70
f 51 70 72
f 52 49 71
f 52 71 73
f 53 51 72
f 53 72 74
f 54 24 75
f 26 52 73
f 55 53 74
f 55 74 76
f 56 54 75
f 56 75 77
f 57 55 76
f 57 76 63
f 58 56 77
f 58 77 65
f 73 71 78
f 73 78 79
f 74 72 80
f 74 80 81
f 75 24 82
f 26 73 79
f 76 74 81
f 76 81 83
f 77 75 82
f 77 82 84
f 63 76 83
f 63 83 85
f 65 77 84
f 65 84 86
f 64 63 85
f 64 85 87
f 66 65 86
f 66 86 88
f 67 64 87
f 67 87 89
f 68 66 88
f 68 88 90
f 69 67 89
f 69 89 91
f 70 68 90
f 70 90 92
f 71 69 91
f 71 91 78
f 72 70 92
f 72 92 80
f 88 86 93
f 88 93 94
f 89 87 95
f 89 95 96
f 90 88 94
f 90 94 97
f 91 89 96
f 91 96 98
f 92 90 97
f 92 97 99
f 78 91 98
f 78 98 100
f 80 92 99
f 80 99 101
f 79 78 100
f 79 100 102
f 81 80 101
f 81 101 103
f 82 24 104
f 26 79 102
f 83 81 103
f 83 103 105
f 84 82 104
f 84 104 106
f 85 83 105
f 85 105 107
f 86 84 106
f 86 106 93
f 87 85 107
f 87 107 95
f 103 101 108
f 103 108 109
f 104 24 110
f 26 102 111
f 105 103 109
f 105 109 112
f 106 104 110
f 106 110 113
f 107 105 112
f 107 112 114
f 93 106 113
f 93 113 115
f 95 107 114
f 95 114 116
f 94 93 115
f 94 115 117
f 96 95 116
f 96 116 118
f 97 94 117
f 97 117 119
f 98 96 118
f 98 118 120
f 99 97 119
f 99 119 121
f 100 98 120
f 100 120 122
f 101 99 121
f 101 121 108
f 102 100 122
f 102 122 111
f 118 116 123
f 118 123 124
f 119 117 125
f 119 125 126
f 120 118 124
f 120 124 127
f 121 119 126
f 121 126 128
f 122 120 127
f 122 127 129
f 108 121 128
f 108 128 130
f 111 122 129
f 111 129 131
f 109 108 130
f 109 130 132
f 110 24 133
f 26 111 131
f 112 109 132
f 112 132 134
f 113 110 133
f 113 133 135
f 114 112 134
f 114 134 136
f 115 113 135
f 115 135 137
f 116 114 136
f 116 136 123
f 117 115 137
f 117 137 125
f 133 24 138
f 26 131 139
f 134 132 140
f 134 140 141
f 135 133 138
f 135 138 142
f 136 134 141
f 136 141 143
f 137 135 142
f 137 142 144
f 123 136 143
f 123 143 145
f 125 137 144
f 125 144 146
f 124 123 145
f 124 145 147
f 126 125 146
f 126 146 148
f 127 124 147
f 127 147 149
f 128 126 148
f 128 148 150
f 129 127 149
f 129 149 151
f 130 128 150
f 130 150 152
f 131 129 151
f 131 151 139
f 132 130 152
f 132 152 140
f 148 146 153
f 148 153 154
f 149 147 155
f 149 155 156
f 150 148 154
f 150 154 157
f 151 149 156
f 151 156 158
f 152 150 157
f 152 157 159
f 139 151 158
f 139 158 160
f 140 152 159
f 140 159 161
f 138 24 162
f 26 139 160
f 141 140 161
f 141 161 163
f 142 138 162
f 142 162 164
f 143 141 163
f 143 163 165
f 144 142 164
f 144 164 166
f 145 143 165
f 145 165 167
f 146 144 166
f 146 166 153
f 147 145 167
f 147 167 155
f 163 161 168
f 163 168 169
f 164 162 170
f 164 170 171
f 165 163 169
f 165 169 172
f 166 164 171
f 166 171 173
f 167 165 172
f 167 172 174
f 153 166 173
f 153 173 175
f 155 167 174
f 155 174 176
f 154 153 175
f 154 175 177
f 156 155 176
f 156 176 178
f 157 154 177
f 157 177 179
f 158 156 178
f 158 178 180
f 159 157 179
f 159 179 181
f 160 158 180
f 160 180 182
f 161 159 181
f 161 181 168
f 162 24 170
f 26 160 182
f 178 176 183
f 178 183 184
f 179 177 185
f 179 185 186
f 180 178 184
f 180 184 187
f 181 179 186
f 181 186 188
f 182 180 187
f 182 187 189
f 168 181 188
f 168 188 190
f 170 24 191
f 26 182 189
f 169 168 190
f 169 190 192
f 171 170 191
f 171 191 193
f 172 169 192
f 172 192 194
f 173 171 193
f 173 193 195
f 174 172 194
f 174 194 196
f 175 173 195
f 175 195 197
f 176 174 196
f 176 196 183
f 177 175 197
f 177 197 185
f 194 192 198
f 194 198 199
f 195 193 200
f 195 200 201
f 196 194 199
f 196 199 202
f 197 195 201
f 197 201 203
f 183 196 202
f 183 202 204
f 185 197 203
f 185 203 205
f 184 183 204
f 184 204 206
f 186 185 205
f 186 205 207
f 187 184 206
f 187 206 208
f 188 186 207
f 188 207 209
f 189 187 208
f 189 208 210
f 190 188 209
f 190 209 211
f 191 24 212
f 26 189 210
f 192 190 211
f 192 211 198
f 193 191 212
f 193 212 200
f 208 206 213
f 208 213 214
f 209 207 215
f 209 215 216
f 210 208 214
f 210 214 217
f 211 209 216
f 211 216 218
f 212 24 219
f 26 210 217
f 198 211 218
f 198 218 220
f 200 212 219
f 200 219 221
f 199 198 220
f 199 220 222
f 201 200 221
f 201 221 223
f 202 199 222
f 202 222 224
f 203 201 223
f 203 223 225
f 204 202 224
f 204 224 226
f 205 203 225
f 205 225 227
f 206 204 226
f 206 226 213
f 207 205 227
f 207 227 215
f 223 221 228
f 223 228 229
f 224 222 230
f 224 230 231
f 225 223 229
f 225 229 232
f 226 224 231
f 226 231 233
f 227 225 232
f 227 232 234
f 213 226 233
f 213 233 235
f 215 227 234
f 215 234 236
f 214 213 235
f 214 235 237
f 216 215 236
f 216 236 238
f 217 214 237
f 217 237 239
f 218 216 238
f 218 238 240
f 219 24 241
f 26 217 239
f 220 218 240
f 220 240 242
f 221 219 241
f 221 241 228
f 222 220 242
f 222 242 230
f 238 236 243
f 238 243 244
f 239 237 245
f 239 245 246
f 240 238 244
f 240 244 247
f 241 24 248
f 26 239 246
f 242 240 247
f 242 247 249
f 228 241 248
f 228 248 250
f 230 242 249
f 230 249 251
f 229 228 250
f 229 250 252
f 231 230 251
f 231 251 253
f 232 229 252
f 232 252 254
f 233 231 253
f 233 253 255
f 234 232 254
f 234 254 256
f 235 233 255
f 235 255 257
f 236 234 256
f 236 256 243
f 237 235 257
f 237 257 245
f 253 251 258
f 253 258 259
f 254 252 260
f 254 260 261
f 255 253 259
f 255 259 262
f 256 254 261
f 256 261 263
f 257 255 262
f 257 262 264
f 243 256 263
f 243 263 265
f 245 257 264
f 245 264 266
f 244 243 265
f 244 265 267
f 246 245 266
f 246 266 268
f 247 244 267
f 247 267 269
f 248 24 270
f 26 246 268
f 249 247 269
f 249 269 271
f 250 248 270
f 250 270 272
f 251 249 271
f 251 271 258
f 252 250 272
f 252 272 260
f 268 266 273
f 268 273 274
f 269 267 275
f 269 275 276
f 270 24 277
f 26 268 274
f 271 269 276
f 271 276 278
f 272 270 277
f 272 277 279
f 258 271 278
f 258 278 280
f 260 272 279
f 260 279 281
f 259 258 280
f 259 280 282
f 261 260 281
f 261 281 283
f 262 259 282
f 262 282 284
f 263 261 283
f 263 283 285
f 264 262 284
f 264 284 286
f 265 263 285
f 265 285 287
f 266 264 286
f 266 286 273
f 267 265 287
f 267 287 275
f 283 281 288
f 283 288 289
f 284 282 290
f 284 290 291
f 285 283 289
f 285 289 292
f 286 284 291
f 286 291 293
f 287 285 292
f 287 292 294
f 273 286 293
f 273 293 295
f 275 287 294
f 275 294 296
f 274 273 295
f 274 295 297
f 276 275 296
f 276 296 298
f 277 24 299
f 26 274 297
f 278 276 298
f 278 298 300
f 279 277 299
f 279 299 301
f 280 278 300
f 280 300 302
f 281 279 301
f 281 301 288
f 282 280 302
f 282 302 290
f 298 296 303
f 298 303 304
f 299 24 305
f 26 297 306
f 300 298 304
f 300 304 307
f 301 299 305
f 301 305 308
f 302 300 307
f 302 307 309
f 288 301 308
f 288 308 310
f 290 302 309
f 290 309 311
f 289 288 310
f 289 310 312
f 291 290 311
f 291 311 313
f 292 289 312
f 292 312 314
f 293 291 313
f 293 313 315
f 294 292 314
f 294 314 316
f 295 293 315
f 295 315 317
f 296 294 316
f 296 316 303
f 297 295 317
f 297 317 306
f 313 311 318
f 313 318 319
f 314 312 320
f 314 320 321
f 315 313 319
f 315 319 322
f 316 314 321
f 316 321 323
f 317 315 322
f 317 322 324
f 303 316 323
f 303 323 325
f 306 317 324
f 306 324 326
f 304 303 325
f 304 325 327
f 305 24 328
f 26 306 326
f 307 304 327
f 307 327 329
f 308 305 328
f 308 328 330
f 309 307 329
f 309 329 331
f 310 308 330
f 310 330 332
f 311 309 331
f 311 331 318
f 312 310 332
f 312 332 320
f 26 326 333
f 329 327 334
f 329 334 335
f 330 328 336
f 330 336 337
f 331 329 335
f 331 335 338
f 332 330 337
f 332 337 339
f 318 331 338
f 318 338 340
f 320 332 339
f 320 339 341
f 319 318 340
f 319 340 342
f 321 320 341
f 321 341 343
f 322 319 342
f 322 342 344
f 323 321 343
f 323 343 345
f 324 322 344
f 324 344 346
f 325 323 345
f 325 345 347
f 326 324 346
f 326 346 333
f 327 325 347
f 327 347 334
f 328 24 336
f 344 342 348
f 344 348 349
f 345 343 350
f 345 350 351
f 346 344 349
f 346 349 352
f 347 345 351
f 347 351 353
f 333 346 352
f 333 352 354
f 334 347 353
f 334 353 355
f 336 24 356
f 26 333 354
f 335 334 355
f 335 355 357
f 337 336 356
f 337 356 358
f 338 335 357
f 338 357 359
f 339 337 358
f 339 358 360
f 340 338 359
f 340 359 361
f 341 339 360
f 341 360 362
f 342 340 361
f 342 361 348
f 343 341 362
f 343 362 350
f 358 356 363
f 358 363 364
f 359 357 365
f 359 365 366
f 360 358 364
f 360 364 367
f 361 359 366
f 361 366 368
f 362 360 367
f 362 367 369
f 348 361 368
f 348 368 370
f 350 362 369
f 350 369 371
f 349 348 370
f 349 370 372
f 351 350 371
f 351 371 373
f 352 349 372
f 352 372 374
f 353 351 373
f 353 373 375
f 354 352 374
f 354 374 376
f 355 353 375
f 355 375 377
f 356 24 363
f 26 354 376
f 357 355 377
f 357 377 365
f 373 371 378
f 373 378 379
f 374 372 380
f 374 380 381
f 375 373 379
f 375 379 382
f 376 374 381
f 376 381 383
f 377 375 382
f 377 382 384
f 363 24 385
f 26 376 383
f 365 377 384
f 365 384 386
f 364 363 385
f 364 385 387
f 366 365 386
f 366 386 388
f 367 364 387
f 367 387 389
f 368 366 388
f 368 388 390
f 369 367 389
f 369 389 391
f 370 368 390
f 370 390 392
f 371 369 391
f 371 391 378
f 372 370 392
f 372 392 380
f 388 386 393
f 388 393 394
f 389 387 395
f 389 395 396
f 390 388 394
f 390 394 397
f 391 389 396
f 391 396 398
f 392 390 397
f 392 397 399
f 378 391 398
f 378 398 400
f 380 392 399
f 380 399 401
f 379 378 400
f 379 400 402
f 381 380 401
f 381 401 403
f 382 379 402
f 382 402 404
f 383 381 403
f 383 403 405
f 384 382 404
f 384 404 406
f 385 24 407
f 26 383 405
f 386 384 406
f 386 406 393
f 387 385 407
f 387 407 395
f 403 401 408
f 403 408 409
f 404 402 410
f 404 410 411
f 405 403 409
f 405 409 412
f 406 404 411
f 406 411 413
f 407 24 414
f 26 405 412
f 393 406 413
f 393 413 415
f 395 407 414
f 395 414 416
f 394 393 415
f 394 415 417
f 396 395 416
f 396 416 418
f 397 394 417
f 397 417 419
f 398 396 418
f 398 418 420
f 399 397 419
f 399 419 421
f 400 398 420
f 400 420 422
f 401 399 421
f 401 421 408
f 402 400 422
f 402 422 410
f 418 416 423
f 418 423 424
f 419 417 425
f 419 425 426
f 420 418 424
f 420 424 427
f 421 419 426
f 421 426 428
f 422 420 427
f 422 427 429
f 408 421 428
f 408 428 430
f 410 422 429
f 410 429 431
f 409 408 430
f 409 430 432
f 411 410 431
f 411 431 433
f 412 409 432
f 412 432 434
f 413 411 433
f 413 433 435
f 414 24 436
f 26 412 434
f 415 413 435
f 415 435 437
f 416 414 436
f 416 436 423
f 417 415 437
f 417 437 425
f 433 431 438
f 433 438 439
f 434 432 440
f 434 440 441
f 435 433 439
f 435 439 442
f 436 24 443
f 26 434 441
f 437 435 442
f 437 442 444
f 423 436 443
f 423 443 445
f 425 437 444
f 425 444 446
f 424 423 445
f 424 445 447
f 426 425 446
f 426 446 448
f 427 424 447
f 427 447 449
f 428 426 448
f 428 448 450
f 429 427 449
f 429 449 451
f 430 428 450
f 430 450 452
f 431 429 451
f 431 451 438
f 432 430 452
f 432 452 440
f 448 446 453
f 448 453 454
f 449 447 455
f 449 455 456
f 450 448 454
f 450 454 457
f 451 449 456
f 451 456 458
f 452 450 457
f 452 457 459
f 438 451 458
f 438 458 460
f 440 452 459
f 440 459 461
f 439 438 460
f 439 460 462
f 441 440 461
f 441 461 463
f 442 439 462
f 442 462 464
f 443 24 465
f 26 441 463
f 444 442 464
f 444 464 466
f 445 443 465
f 445 465 467
f 446 444 466
f 446 466 453
f 447 445 467
f 447 467 455
f 463 461 468
f 463 468 469
f 464 462 470
f 464 470 471
f 465 24 472
f 26 463 469
f 466 464 471
f 466 471 473
f 467 465 472
f 467 472 474
f 453 466 473
f 453 473 475
f 455 467 474
f 455 474 476
f 454 453 475
f 454 475 477
f 456 455 476
f 456 476 478
f 457 454 477
f 457 477 479
f 458 456 478
f 458 478 480
f 459 457 479
f 459 479 481
f 460 458 480
f 460 480 482
f 461 459 481
f 461 481 468
f 462 460 482
f 462 482 470
f 479 477 6
f 479 6 5
f 480 478 1
f 480 1 9
f 481 479 5
f 481 5 11
f 482 480 9
f 482 9 13
f 468 481 11
f 468 11 15
f 470 482 13
f 470 13 17
f 469 468 15
f 469 15 19
f 471 470 17
f 471 17 21
f 472 24 23
f 26 469 19
f 473 471 21
f 473 21 27
f 474 472 23
f 474 23 29
f 475 473 27
f 475 27 31
f 476 474 29
f 476 29 2
f 477 475 31
f 477 31 6
f 478 476 2
f 478 2 1
f 483 484 485
f 483 485 486
f 487 488 489
f 487 489 490
f 491 492 484
f 491 484 483
f 493 494 488
f 493 488 487
f 495 496 492
f 495 492 491
f 497 498 494
f 497 494 493
f 499 500 496
f 499 496 495
f 501 502 498
f 501 498 497
f 503 504 500
f 503 500 499
f 505 506 507
f 508 502 501
f 509 510 504
f 509 504 503
f 511 512 506
f 511 506 505
f 513 514 510
f 513 510 509
f 486 485 512
f 486 512 511
f 490 489 514
f 490 514 513
f 514 515 516
f 514 516 510
f 485 517 518
f 485 518 512
f 489 519 515
f 489 515 514
f 484 520 517
f 484 517 485
f 488 521 519
f 488 519 489
f 492 522 520
f 492 520 484
f 494 523 521
f 494 521 488
f 496 524 522
f 496 522 492
f 498 525 523
f 498 523 494
f 500 526 524
f 500 524 496
f 502 527 525
f 502 525 498
f 504 528 526
f 504 526 500
f 506 529 507
f 508 527 502
f 510 516 528
f 510 528 504
f 512 518 529
f 512 529 506
f 525 530 531
f 525 531 523
f 526 532 533
f 526 533 524
f 527 534 530
f 527 530 525
f 528 535 532
f 528 532 526
f 529 536 507
f 508 534 527
f 516 537 535
f 516 535 528
f 518 538 536
f 518 536 529
f 515 539 537
f 515 537 516
f 517 540 538
f 517 538 518
f 519 541 539
f 519 539 515
f 520 542 540
f 520 540 517
f 521 543 541
f 521 541 519
f 522 544 542
f 522 542 520
f 523 531 543
f 523 543 521
f 524 533 544
f 524 544 522
f 541 545 546
f 541 546 539
f 542 547 548
f 542 548 540
f 543 549 545
f 543 545 541
f 544 550 547
f 544 547 542
f 531 551 549
f 531 549 543
f 533 552 550
f 533 550 544
f 530 553 551
f 530 551 531
f 532 554 552
f 532 552 533
f 534 555 553
f 534 553 530
f 535 556 554
f 535 554 532
f 536 557 507
f 508 555 534
f 537 558 556
f 537 556 535
f 538 559 557
f 538 557 536
f 539 546 558
f 539 558 537
f 540 548 559
f 540 559 538
f 555 560 561
f 555 561 553
f 556 562 563
f 556 563 554
f 557 564 507
f 508 560 555
f 558 565 562
f 558 562 556
f 559 566 564
f 559 564 557
f 546 567 565
f 546 565 558
f 548 568 566
f 548 566 559
f 545 569 567
f 545 567 546
f 547 570 568
f 547 568 548
f 549 571 569
f 549 569 545
f 550 572 570
f 550 570 547
f 551 573 571
f 551 571 549
f 552 574 572
f 552 572 550
f 553 561 573
f 553 573 551
f 554 563 574
f 554 574 552
f 570 575 576
f 570 576 568
f 571 577 578
f 571 578 569
f 572 579 575
f 572 575 570
f 573 580 577
f 573 577 571
f 574 581 579
f 574 579 572
f 561 582 580
f 561 580 573
f 563 583 581
f 563 581 574
f 560 584 582
f 560 582 561
f 562 585 583
f 562 583 563
f 564 586 507
f 508 584 560
f 565 587 585
f 565 585 562
f 566 588 586
f 566 586 564
f 567 589 587
f 567 587 565
f 568 576 588
f 568 588 566
f 569 578 589
f 569 589 567
f 585 590 591
f 585 591 583
f 586 592 507
f 508 593 584
f 587 594 590
f 587 590 585
f 588 595 592
f 588 592 586
f 589 596 594
f 589 594 587
f 576 597 595
f 576 595 588
f 578 598 596
f 578 596 589
f 575 599 597
f 575 597 576
f 577 600 598
f 577 598 578
f 579 601 599
f 579 599 575
f 580 602 600
f 580 600 577
f 581 603 601
f 581 601 579
f 582 604 602
f 582 602 580
f 583 591 603
f 583 603 581
f 584 593 604
f 584 604 582
f 600 605 606
f 600 606 598
f 601 607 608
f 601 608 599
f 602 609 605
f 602 605 600
f 603 610 607
f 603 607 601
f 604 611 609
f 604 609 602
f 591 612 610
f 591 610 603
f 593 613 611
f 593 611 604
f 590 614 612
f 590 612 591
f 592 615 507
f 508 613 593
f 594 616 614
f 594 614 590
f 595 617 615
f 595 615 592
f 596 618 616
f 596 616 594
f 597 619 617
f 597 617 595
f 598 606 618
f 598 618 596
f 599 608 619
f 599 619 597
f 615 620 507
f 508 621 613
f 616 622 623
f 616 623 614
f 617 624 620
f 617 620 615
f 618 625 622
f 618 622 616
f 619 626 624
f 619 624 617
f 606 627 625
f 606 625 618
f 608 628 626
f 608 626 619
f 605 629 627
f 605 627 606
f 607 630 628
f 607 628 608
f 609 631 629
f 609 629 605
f 610 632 630
f 610 630 607
f 611 633 631
f 611 631 609
f 612 634 632
f 612 632 610
f 613 621 633
f 613 633 611
f 614 623 634
f 614 634 612
f 630 635 636
f 630 636 628
f 631 637 638
f 631 638 629
f 632 639 635
f 632 635 630
f 633 640 637
f 633 637 631
f 634 641 639
f 634 639 632
f 621 642 640
f 621 640 633
f 623 643 641
f 623 641 634
f 620 644 507
f 508 642 621
f 622 645 643
f 622 643 623
f 624 646 644
f 624 644 620
f 625 647 645
f 625 645 622
f 626 648 646
f 626 646 624
f 627 649 647
f 627 647 625
f 628 636 648
f 628 648 626
f 629 638 649
f 629 649 627
f 645 650 651
f 645 651 643
f 646 652 653
f 646 653 644
f 647 654 650
f 647 650 645
f 648 655 652
f 648 652 646
f 649 656 654
f 649 654 647
f 636 657 655
f 636 655 648
f 638 658 656
f 638 656 649
f 635 659 657
f 635 657 636
f 637 660 658
f 637 658 638
f 639 661 659
f 639 659 635
f 640 662 660
f 640 660 637
f 641 663 661
f 641 661 639
f 642 664 662
f 642 662 640
f 643 651 663
f 643 663 641
f 644 653 507
f 508 664 642
f 660 665 666
f 660 666 658
f 661 667 668
f 661 668 659
f 662 669 665
f 662 665 660
f 663 670 667
f 663 667 661
f 664 671 669
f 664 669 662
f 651 672 670
f 651 670 663
f 653 673 507
f 508 671 664
f 650 674 672
f 650 672 651
f 652 675 673
f 652 673 653
f 654 676 674
f 654 674 650
f 655 677 675
f 655 675 652
f 656 678 676
f 656 676 654
f 657 679 677
f 657 677 655
f 658 666 678
f 658 678 656
f 659 668 679
f 659 679 657
f 676 680 681
f 676 681 674
f 677 682 683
f 677 683 675
f 678 684 680
f 678 680 676
f 679 685 682
f 679 682 677
f 666 686 684
f 666 684 678
f 668 687 685
f 668 685 679
f 665 688 686
f 665 686 666
f 667 689 687
f 667 687 668
f 669 690 688
f 669 688 665
f 670 691 689
f 670 689 667
f 671 692 690
f 671 690 669
f 672 693 691
f 672 691 670
f 673 694 507
f 508 692 671
f 674 681 693
f 674 693 672
f 675 683 694
f 675 694 673
f 690 695 696
f 690 696 688
f 691 697 698
f 691 698 689
f 692 699 695
f 692 695 690
f 693 700 697
f 693 697 691
f 694 701 507
f 508 699 692
f 681 702 700
f 681 700 693
f 683 703 701
f 683 701 694
f 680 704 702
f 680 702 681
f 682 705 703
f 682 703 683
f 684 706 704
f 684 704 680
f 685 707 705
f 685 705 682
f 686 708 706
f 686 706 684
f 687 709 707
f 687 707 685
f 688 696 708
f 688 708 686
f 689 698 709
f 689 709 687
f 705 710 711
f 705 711 703
f 706 712 713
f 706 713 704
f 707 714 710
f 707 710 705
f 708 715 712
f 708 712 706
f 709 716 714
f 709 714 707
f 696 717 715
f 696 715 708
f 698 718 716
f 698 716 709
f 695 719 717
f 695 717 696
f 697 720 718
f 697 718 698
f 699 721 719
f 699 719 695
f 700 722 720
f 700 720 697
f 701 723 507
f 508 721 699
f 702 724 722
f 702 722 700
f 703 711 723
f 703 723 701
f 704 713 724
f 704 724 702
f 720 725 726
f 720 726 718
f 721 727 728
f 721 728 719
f 722 729 725
f 722 725 720
f 723 730 507
f 508 727 721
f 724 731 729
f 724 729 722
f 711 732 730
f 711 730 723
f 713 733 731
f 713 731 724
f 710 734 732
f 710 732 711
f 712 735 733
f 712 733 713
f 714 736 734
f 714 734 710
f 715 737 735
f 715 735 712
f 716 738 736
f 716 736 714
f 717 739 737
f 717 737 715
f 718 726 738
f 718 738 716
f 719 728 739
f 719 739 717
f 735 740 741
f 735 741 733
f 736 742 743
f 736 743 734
f 737 744 740
f 737 740 735
f 738 745 742
f 738 742 736
f 739 746 744
f 739 744 737
f 726 747 745
f 726 745 738
f 728 748 746
f 728 746 739
f 725 749 747
f 725 747 726
f 727 750 748
f 727 748 728
f 729 751 749
f 729 749 725
f 730 752 507
f 508 750 727
f 731 753 751
f 731 751 729
f 732 754 752
f 732 752 730
f 733 741 753
f 733 753 731
f 734 743 754
f 734 754 732
f 750 755 756
f 750 756 748
f 751 757 758
f 751 758 749
f 752 759 507
f 508 755 750
f 753 760 757
f 753 757 751
f 754 761 759
f 754 759 752
f 741 762 760
f 741 760 753
f 743 763 761
f 743 761 754
f 740 764 762
f 740 762 741
f 742 765 763
f 742 763 743
f 744 766 764
f 744 764 740
f 745 767 765
f 745 765 742
f 746 768 766
f 746 766 744
f 747 769 767
f 747 767 745
f 748 756 768
f 748 768 746
f 749 758 769
f 749 769 747
f 765 770 771
f 765 771 763
f 766 772 773
f 766 773 764
f 767 774 770
f 767 770 765
f 768 775 772
f 768 772 766
f 769 776 774
f 769 774 767
f 756 777 775
f 756 775 768
f 758 778 776
f 758 776 769
f 755 779 777
f 755 777 756
f 757 780 778
f 757 778 758
f 759 781 507
f 508 779 755
f 760 782 780
f 760 780 757
f 761 783 781
f 761 781 759
f 762 784 782
f 762 782 760
f 763 771 783
f 763 783 761
f 764 773 784
f 764 784 762
f 780 785 786
f 780 786 778
f 781 787 507
f 508 788 779
f 782 789 785
f 782 785 780
f 783 790 787
f 783 787 781
f 784 791 789
f 784 789 782
f 771 792 790
f 771 790 783
f 773 793 791
f 773 791 784
f 770 794 792
f 770 792 771
f 772 795 793
f 772 793 773
f 774 796 794
f 774 794 770
f 775 797 795
f 775 795 772
f 776 798 796
f 776 796 774
f 777 799 797
f 777 797 775
f 778 786 798
f 778 798 776
f 779 788 799
f 779 799 777
f 795 800 801
f 795 801 793
f 796 802 803
f 796 803 794
f 797 804 800
f 797 800 795
f 798 805 802
f 798 802 796
f 799 806 804
f 799 804 797
f 786 807 805
f 786 805 798
f 788 808 806
f 788 806 799
f 785 809 807
f 785 807 786
f 787 810 507
f 508 808 788
f 789 811 809
f 789 809 785
f 790 812 810
f 790 810 787
f 791 813 811
f 791 811 789
f 792 814 812
f 792 812 790
f 793 801 813
f 793 813 791
f 794 803 814
f 794 814 792
f 508 815 808
f 811 816 817
f 811 817 809
f 812 818 819
f 812 819 810
f 813 820 816
f 813 816 811
f 814 821 818
f 814 818 812
f 801 822 820
f 801 820 813
f 803 823 821
f 803 821 814
f 800 824 822
f 800 822 801
f 802 825 823
f 802 823 803
f 804 826 824
f 804 824 800
f 805 827 825
f 805 825 802
f 806 828 826
f 806 826 804
f 807 829 827
f 807 827 805
f 808 815 828
f 808 828 806
f 809 817 829
f 809 829 807
f 810 819 507
f 826 830 831
f 826 831 824
f 827 832 833
f 827 833 825
f 828 834 830
f 828 830 826
f 829 835 832
f 829 832 827
f 815 836 834
f 815 834 828
f 817 837 835
f 817 835 829
f 819 838 507
f 508 836 815
f 816 839 837
f 816 837 817
f 818 840 838
f 818 838 819
f 820 841 839
f 820 839 816
f 821 842 840
f 821 840 818
f 822 843 841
f 822 841 820
f 823 844 842
f 823 842 821
f 824 831 843
f 824 843 822
f 825 833 844
f 825 844 823
f 840 845 846
f 840 846 838
f 841 847 848
f 841 848 839
f 842 849 845
f 842 845 840
f 843 850 847
f 843 847 841
f 844 851 849
f 844 849 842
f 831 852 850
f 831 850 843
f 833 853 851
f 833 851 844
f 830 854 852
f 830 852 831
f 832 855 853
f 832 853 833
f 834 856 854
f 834 854 830
f 835 857 855
f 835 855 832
f 836 858 856
f 836 856 834
f 837 859 857
f 837 857 835
f 838 846 507
f 508 858 836
f 839 848 859
f 839 859 837
f 855 860 861
f 855 861 853
f 856 862 863
f 856 863 854
f 857 864 860
f 857 860 855
f 858 865 862
f 858 862 856
f 859 866 864
f 859 864 857
f 846 867 507
f 508 865 858
f 848 868 866
f 848 866 859
f 845 869 867
f 845 867 846
f 847 870 868
f 847 868 848
f 849 871 869
f 849 869 845
f 850 872 870
f 850 870 847
f 851 873 871
f 851 871 849
f 852 874 872
f 852 872 850
f 853 861 873
f 853 873 851
f 854 863 874
f 854 874 852
f 870 875 876
f 870 876 868
f 871 877 878
f 871 878 869
f 872 879 875
f 872 875 870
f 873 880 877
f 873 877 871
f 874 881 879
f 874 879 872
f 861 882 880
f 861 880 873
f 863 883 881
f 863 881 874
f 860 884 882
f 860 882 861
f 862 885 883
f 862 883 863
f 864 886 884
f 864 884 860
f 865 887 885
f 865 885 862
f 866 888 886
f 866 886 864
f 867 889 507
f 508 887 865
f 868 876 888
f 868 888 866
f 869 878 889
f 869 889 867
f 885 890 891
f 885 891 883
f 886 892 893
f 886 893 884
f 887 894 890
f 887 890 885
f 888 895 892
f 888 892 886
f 889 896 507
f 508 894 887
f 876 897 895
f 876 895 888
f 878 898 896
f 878 896 889
f 875 899 897
f 875 897 876
f 877 900 898
f 877 898 878
f 879 901 899
f 879 899 875
f 880 902 900
f 880 900 877
f 881 903 901
f 881 901 879
f 882 904 902
f 882 902 880
f 883 891 903
f 883 903 881
f 884 893 904
f 884 904 882
f 900 905 906
f 900 906 898
f 901 907 908
f 901 908 899
f 902 909 905
f 902 905 900
f 903 910 907
f 903 907 901
f 904 911 909
f 904 909 902
f 891 912 910
f 891 910 903
f 893 913 911
f 893 911 904
f 890 914 912
f 890 912 891
f 892 915 913
f 892 913 893
f 894 916 914
f 894 914 890
f 895 917 915
f 895 915 892
f 896 918 507
f 508 916 894
f 897 919 917
f 897 917 895
f 898 906 918
f 898 918 896
f 899 908 919
f 899 919 897
f 915 920 921
f 915 921 913
f 916 922 923
f 916 923 914
f 917 924 920
f 917 920 915
f 918 925 507
f 508 922 916
f 919 926 924
f 919 924 917
f 906 927 925
f 906 925 918
f 908 928 926
f 908 926 919
f 905 929 927
f 905 927 906
f 907 930 928
f 907 928 908
f 909 931 929
f 909 929 905
f 910 932 930
f 910 930 907
f 911 933 931
f 911 931 909
f 912 934 932
f 912 932 910
f 913 921 933
f 913 933 911
f 914 923 934
f 914 934 912
f 930 935 936
f 930 936 928
f 931 937 938
f 931 938 929
f 932 939 935
f 932 935 930
f 933 940 937
f 933 937 931
f 934 941 939
f 934 939 932
f 921 942 940
f 921 940 933
f 923 943 941
f 923 941 934
f 920 944 942
f 920 942 921
f 922 945 943
f 922 943 923
f 924 946 944
f 924 944 920
f 925 947 507
f 508 945 922
f 926 948 946
f 926 946 924
f 927 949 947
f 927 947 925
f 928 936 948
f 928 948 926
f 929 938 949
f 929 949 927
f 945 950 951
f 945 951 943
f 946 952 953
f 946 953 944
f 947 954 507
f 508 950 945
f 948 955 952
f 948 952 946
f 949 956 954
f 949 954 947
f 936 957 955
f 936 955 948
f 938 958 956
f 938 956 949
f 935 959 957
f 935 957 936
f 937 960 958
f 937 958 938
f 939 961 959
f 939 959 935
f 940 962 960
f 940 960 937
f 941 963 961
f 941 961 939
f 942 964 962
f 942 962 940
f 943 951 963
f 943 963 941
f 944 953 964
f 944 964 942
f 961 487 490
f 961 490 959
f 962 491 483
f 962 483 960
f 963 493 487
f 963 487 961
f 964 495 491
f 964 491 962
f 951 497 493
f 951 493 963
f 953 499 495
f 953 495 964
f 950 501 497
f 950 497 951
f 952 503 499
f 952 499 953
f 954 505 507
f 508 501 950
f 955 509 503
f 955 503 952
f 956 511 505
f 956 505 954
f 957 513 509
f 957 509 955
f 958 486 511
f 958 511 956
f 959 490 513
f 959 513 957
f 960 483 486
f 960 486 958
