# lizard mesh
v -0.143365 0.181038 -0.069178
v -0.161899 0.197865 -0.001588
v -0.22896 0.000164 -0.006601
v -0.175586 0.001866 -0.073721
v -0.101069 0.080051 0.077438
v -0.128927 -0.050908 0.074117
v -0.161899 -0.161684 -0.010704
v -0.143365 -0.141454 -0.077355
v -0.081203 -0.137741 0.071916
v -0.013994 0.127751 0.078647
v 0.000001 -0.035825 0.11258
v 0.081305 0.099766 0.077938
v 0.128953 -0.023043 0.074824
v 0.013955 -0.165591 0.07121
v 0.100952 -0.118078 0.072414
v 0.161902 0.197865 -0.001588
v 0.228963 0.000164 -0.006601
v 0.143367 0.181038 -0.069178
v 0.175588 0.001866 -0.073721
v 0.161902 -0.161684 -0.010704
v 0.143367 -0.141454 -0.077355
v 0.000001 0.225228 -0.068058
v 0.000001 0.001866 -0.073721
v 0.000001 -0.207228 -0.079023
v 0.000001 0.276884 0.000415
v 0.000001 -0.228717 -0.012404
f 1 3 2
f 1 4 3
f 2 6 5
f 2 3 6
f 4 7 3
f 4 8 7
f 3 9 6
f 3 7 9
f 5 11 10
f 5 6 11
f 10 13 12
f 10 11 13
f 6 14 11
f 6 9 14
f 11 15 13
f 11 14 15
f 12 17 16
f 12 13 17
f 16 19 18
f 16 17 19
f 13 20 17
f 13 15 20
f 17 21 19
f 17 20 21
f 18 23 22
f 18 19 23
f 22 4 1
f 22 23 4
f 19 24 23
f 19 21 24
f 23 8 4
f 23 24 8
f 18 25 16
f 18 22 25
f 16 10 12
f 16 25 10
f 22 2 25
f 22 1 2
f 25 5 10
f 25 2 5
f 8 26 7
f 8 24 26
f 7 14 9
f 7 26 14
f 24 20 26
f 24 21 20
f 26 15 14
f 26 20 15
