# lizard mesh
v 0.143969 -0.128493 -0.047333
v 0.156279 -0.091747 -0.049340
v 0.168537 -0.091547 -0.035975
v 0.143969 -0.128493 -0.047333
v 0.168537 -0.091547 -0.035975
v 0.153693 -0.130595 -0.034645
v 0.156279 -0.091747 -0.049340
v 0.163761 -0.050086 -0.050878
v 0.177454 -0.049053 -0.037212
v 0.156279 -0.091747 -0.049340
v 0.177454 -0.049053 -0.037212
v 0.168537 -0.091547 -0.035975
v 0.153693 -0.130595 -0.034645
v 0.168537 -0.091547 -0.035975
v 0.173689 -0.088898 -0.019900
v 0.153693 -0.130595 -0.034645
v 0.173689 -0.088898 -0.019900
v 0.157601 -0.128907 -0.018843
v 0.168537 -0.091547 -0.035975
v 0.177454 -0.049053 -0.037212
v 0.183401 -0.046157 -0.021004
v 0.168537 -0.091547 -0.035975
v 0.183401 -0.046157 -0.021004
v 0.173689 -0.088898 -0.019900
v 0.119549 -0.150337 -0.053166
v 0.127979 -0.127409 -0.056316
v 0.143969 -0.128493 -0.047333
v 0.119549 -0.150337 -0.053166
v 0.143969 -0.128493 -0.047333
v 0.126487 -0.158107 -0.045836
v 0.127979 -0.127409 -0.056316
v 0.136656 -0.092195 -0.059278
v 0.156279 -0.091747 -0.049340
v 0.127979 -0.127409 -0.056316
v 0.156279 -0.091747 -0.049340
v 0.143969 -0.128493 -0.047333
v 0.136656 -0.092195 -0.059278
v 0.142351 -0.050647 -0.061171
v 0.163761 -0.050086 -0.050878
v 0.136656 -0.092195 -0.059278
v 0.163761 -0.050086 -0.050878
v 0.156279 -0.091747 -0.049340
v 0.142351 -0.050647 -0.061171
v 0.144331 -0.006958 -0.062398
v 0.166287 -0.006918 -0.052041
v 0.142351 -0.050647 -0.061171
v 0.166287 -0.006918 -0.052041
v 0.163761 -0.050086 -0.050878
v 0.163761 -0.050086 -0.050878
v 0.166287 -0.006918 -0.052041
v 0.180411 -0.005880 -0.038329
v 0.163761 -0.050086 -0.050878
v 0.180411 -0.005880 -0.038329
v 0.177454 -0.049053 -0.037212
v 0.177454 -0.049053 -0.037212
v 0.180411 -0.005880 -0.038329
v 0.186562 -0.003177 -0.022096
v 0.177454 -0.049053 -0.037212
v 0.186562 -0.003177 -0.022096
v 0.183401 -0.046157 -0.021004
v 0.183401 -0.046157 -0.021004
v 0.186562 -0.003177 -0.022096
v 0.184600 0.001859 -0.004177
v 0.183401 -0.046157 -0.021004
v 0.184600 0.001859 -0.004177
v 0.181546 -0.040125 -0.003112
v 0.173689 -0.088898 -0.019900
v 0.183401 -0.046157 -0.021004
v 0.181546 -0.040125 -0.003112
v 0.173689 -0.088898 -0.019900
v 0.181546 -0.040125 -0.003112
v 0.171774 -0.082049 -0.002049
v 0.157601 -0.128907 -0.018843
v 0.173689 -0.088898 -0.019900
v 0.171774 -0.082049 -0.002049
v 0.157601 -0.128907 -0.018843
v 0.171774 -0.082049 -0.002049
v 0.155616 -0.121528 -0.001048
v 0.135284 -0.163755 -0.017934
v 0.157601 -0.128907 -0.018843
v 0.155616 -0.121528 -0.001048
v 0.135284 -0.163755 -0.017934
v 0.155616 -0.121528 -0.001048
v 0.133401 -0.156175 -0.000170
v 0.132747 -0.163968 -0.033595
v 0.153693 -0.130595 -0.034645
v 0.157601 -0.128907 -0.018843
v 0.132747 -0.163968 -0.033595
v 0.157601 -0.128907 -0.018843
v 0.135284 -0.163755 -0.017934
v 0.126487 -0.158107 -0.045836
v 0.143969 -0.128493 -0.047333
v 0.153693 -0.130595 -0.034645
v 0.126487 -0.158107 -0.045836
v 0.153693 -0.130595 -0.034645
v 0.132747 -0.163968 -0.033595
v 0.147912 -0.107971 0.017424
v 0.163035 -0.070261 0.016532
v 0.148744 -0.055898 0.034591
v 0.147912 -0.107971 0.017424
v 0.148744 -0.055898 0.034591
v 0.135830 -0.091019 0.034969
v 0.163035 -0.070261 0.016532
v 0.172097 -0.030336 0.015556
v 0.156352 -0.018653 0.033935
v 0.163035 -0.070261 0.016532
v 0.156352 -0.018653 0.033935
v 0.148744 -0.055898 0.034591
v 0.135830 -0.091019 0.034969
v 0.148744 -0.055898 0.034591
v 0.130339 -0.042182 0.050894
v 0.135830 -0.091019 0.034969
v 0.130339 -0.042182 0.050894
v 0.120843 -0.074501 0.050058
v 0.148744 -0.055898 0.034591
v 0.156352 -0.018653 0.033935
v 0.135864 -0.007570 0.050928
v 0.148744 -0.055898 0.034591
v 0.135864 -0.007570 0.050928
v 0.130339 -0.042182 0.050894
v 0.133401 -0.156175 -0.000170
v 0.155616 -0.121528 -0.001048
v 0.147912 -0.107971 0.017424
v 0.133401 -0.156175 -0.000170
v 0.147912 -0.107971 0.017424
v 0.127094 -0.141133 0.018228
v 0.155616 -0.121528 -0.001048
v 0.171774 -0.082049 -0.002049
v 0.163035 -0.070261 0.016532
v 0.155616 -0.121528 -0.001048
v 0.163035 -0.070261 0.016532
v 0.147912 -0.107971 0.017424
v 0.171774 -0.082049 -0.002049
v 0.181546 -0.040125 -0.003112
v 0.172097 -0.030336 0.015556
v 0.171774 -0.082049 -0.002049
v 0.172097 -0.030336 0.015556
v 0.163035 -0.070261 0.016532
v 0.181546 -0.040125 -0.003112
v 0.184600 0.001859 -0.004177
v 0.174685 0.009494 0.014555
v 0.181546 -0.040125 -0.003112
v 0.174685 0.009494 0.014555
v 0.172097 -0.030336 0.015556
v 0.172097 -0.030336 0.015556
v 0.174685 0.009494 0.014555
v 0.158175 0.018393 0.033065
v 0.172097 -0.030336 0.015556
v 0.158175 0.018393 0.033065
v 0.156352 -0.018653 0.033935
v 0.156352 -0.018653 0.033935
v 0.158175 0.018393 0.033065
v 0.136724 0.026822 0.050282
v 0.156352 -0.018653 0.033935
v 0.136724 0.026822 0.050282
v 0.135864 -0.007570 0.050928
v 0.135864 -0.007570 0.050928
v 0.136724 0.026822 0.050282
v 0.111988 0.033044 0.065133
v 0.135864 -0.007570 0.050928
v 0.111988 0.033044 0.065133
v 0.112143 0.000375 0.065474
v 0.130339 -0.042182 0.050894
v 0.135864 -0.007570 0.050928
v 0.112143 0.000375 0.065474
v 0.130339 -0.042182 0.050894
v 0.112143 0.000375 0.065474
v 0.108890 -0.032678 0.064490
v 0.120843 -0.074501 0.050058
v 0.130339 -0.042182 0.050894
v 0.108890 -0.032678 0.064490
v 0.120843 -0.074501 0.050058
v 0.108890 -0.032678 0.064490
v 0.103483 -0.063508 0.061839
v 0.106998 -0.101218 0.049657
v 0.120843 -0.074501 0.050058
v 0.103483 -0.063508 0.061839
v 0.106998 -0.101218 0.049657
v 0.103483 -0.063508 0.061839
v 0.098244 -0.085854 0.058669
v 0.117692 -0.121544 0.035448
v 0.135830 -0.091019 0.034969
v 0.120843 -0.074501 0.050058
v 0.117692 -0.121544 0.035448
v 0.120843 -0.074501 0.050058
v 0.106998 -0.101218 0.049657
v 0.127094 -0.141133 0.018228
v 0.147912 -0.107971 0.017424
v 0.135830 -0.091019 0.034969
v 0.127094 -0.141133 0.018228
v 0.135830 -0.091019 0.034969
v 0.117692 -0.121544 0.035448
v 0.163749 0.034423 -0.053020
v 0.156254 0.071884 -0.053488
v 0.168336 0.073284 -0.040155
v 0.163749 0.034423 -0.053020
v 0.168336 0.073284 -0.040155
v 0.177351 0.035368 -0.039352
v 0.156254 0.071884 -0.053488
v 0.143932 0.103894 -0.053225
v 0.153400 0.106859 -0.040666
v 0.156254 0.071884 -0.053488
v 0.153400 0.106859 -0.040666
v 0.168336 0.073284 -0.040155
v 0.177351 0.035368 -0.039352
v 0.168336 0.073284 -0.040155
v 0.173008 0.075694 -0.024073
v 0.177351 0.035368 -0.039352
v 0.173008 0.075694 -0.024073
v 0.183054 0.037810 -0.023132
v 0.168336 0.073284 -0.040155
v 0.153400 0.106859 -0.040666
v 0.156611 0.109658 -0.024892
v 0.168336 0.073284 -0.040155
v 0.156611 0.109658 -0.024892
v 0.173008 0.075694 -0.024073
v 0.144331 -0.006958 -0.062398
v 0.142351 0.035029 -0.063343
v 0.163749 0.034423 -0.053020
v 0.144331 -0.006958 -0.062398
v 0.163749 0.034423 -0.053020
v 0.166287 -0.006918 -0.052041
v 0.142351 0.035029 -0.063343
v 0.136656 0.072726 -0.063460
v 0.156254 0.071884 -0.053488
v 0.142351 0.035029 -0.063343
v 0.156254 0.071884 -0.053488
v 0.163749 0.034423 -0.053020
v 0.136656 0.072726 -0.063460
v 0.127979 0.103726 -0.062177
v 0.143932 0.103894 -0.053225
v 0.136656 0.072726 -0.063460
v 0.143932 0.103894 -0.053225
v 0.156254 0.071884 -0.053488
v 0.127979 0.103726 -0.062177
v 0.119549 0.123665 -0.060113
v 0.126441 0.129730 -0.053134
v 0.127979 0.103726 -0.062177
v 0.126441 0.129730 -0.053134
v 0.143932 0.103894 -0.053225
v 0.143932 0.103894 -0.053225
v 0.126441 0.129730 -0.053134
v 0.132374 0.135488 -0.041188
v 0.143932 0.103894 -0.053225
v 0.132374 0.135488 -0.041188
v 0.153400 0.106859 -0.040666
v 0.153400 0.106859 -0.040666
v 0.132374 0.135488 -0.041188
v 0.134025 0.138937 -0.025609
v 0.153400 0.106859 -0.040666
v 0.134025 0.138937 -0.025609
v 0.156611 0.109658 -0.024892
v 0.156611 0.109658 -0.024892
v 0.134025 0.138937 -0.025609
v 0.130418 0.139994 -0.007679
v 0.156611 0.109658 -0.024892
v 0.130418 0.139994 -0.007679
v 0.153271 0.111616 -0.006960
v 0.173008 0.075694 -0.024073
v 0.156611 0.109658 -0.024892
v 0.153271 0.111616 -0.006960
v 0.173008 0.075694 -0.024073
v 0.153271 0.111616 -0.006960
v 0.170160 0.078626 -0.006123
v 0.183054 0.037810 -0.023132
v 0.173008 0.075694 -0.024073
v 0.170160 0.078626 -0.006123
v 0.183054 0.037810 -0.023132
v 0.170160 0.078626 -0.006123
v 0.180723 0.041787 -0.005189
v 0.186562 -0.003177 -0.022096
v 0.183054 0.037810 -0.023132
v 0.180723 0.041787 -0.005189
v 0.186562 -0.003177 -0.022096
v 0.180723 0.041787 -0.005189
v 0.184600 0.001859 -0.004177
v 0.180411 -0.005880 -0.038329
v 0.177351 0.035368 -0.039352
v 0.183054 0.037810 -0.023132
v 0.180411 -0.005880 -0.038329
v 0.183054 0.037810 -0.023132
v 0.186562 -0.003177 -0.022096
v 0.166287 -0.006918 -0.052041
v 0.163749 0.034423 -0.053020
v 0.177351 0.035368 -0.039352
v 0.166287 -0.006918 -0.052041
v 0.177351 0.035368 -0.039352
v 0.180411 -0.005880 -0.038329
v 0.170526 0.047187 0.013590
v 0.159961 0.081772 0.012677
v 0.143932 0.084787 0.031024
v 0.170526 0.047187 0.013590
v 0.143932 0.084787 0.031024
v 0.153856 0.053209 0.032113
v 0.159961 0.081772 0.012677
v 0.143469 0.112547 0.011833
v 0.129017 0.112425 0.029811
v 0.159961 0.081772 0.012677
v 0.129017 0.112425 0.029811
v 0.143932 0.084787 0.031024
v 0.153856 0.053209 0.032113
v 0.143932 0.084787 0.031024
v 0.123794 0.087438 0.047608
v 0.153856 0.053209 0.032113
v 0.123794 0.087438 0.047608
v 0.132398 0.058891 0.049243
v 0.143932 0.084787 0.031024
v 0.129017 0.112425 0.029811
v 0.111892 0.111551 0.045340
v 0.143932 0.084787 0.031024
v 0.111892 0.111551 0.045340
v 0.123794 0.087438 0.047608
v 0.184600 0.001859 -0.004177
v 0.180723 0.041787 -0.005189
v 0.170526 0.047187 0.013590
v 0.184600 0.001859 -0.004177
v 0.170526 0.047187 0.013590
v 0.174685 0.009494 0.014555
v 0.180723 0.041787 -0.005189
v 0.170160 0.078626 -0.006123
v 0.159961 0.081772 0.012677
v 0.180723 0.041787 -0.005189
v 0.159961 0.081772 0.012677
v 0.170526 0.047187 0.013590
v 0.170160 0.078626 -0.006123
v 0.153271 0.111616 -0.006960
v 0.143469 0.112547 0.011833
v 0.170160 0.078626 -0.006123
v 0.143469 0.112547 0.011833
v 0.159961 0.081772 0.012677
v 0.153271 0.111616 -0.006960
v 0.130418 0.139994 -0.007679
v 0.121459 0.138838 0.011129
v 0.153271 0.111616 -0.006960
v 0.121459 0.138838 0.011129
v 0.143469 0.112547 0.011833
v 0.143469 0.112547 0.011833
v 0.121459 0.138838 0.011129
v 0.109161 0.135621 0.028928
v 0.143469 0.112547 0.011833
v 0.109161 0.135621 0.028928
v 0.129017 0.112425 0.029811
v 0.129017 0.112425 0.029811
v 0.109161 0.135621 0.028928
v 0.096131 0.130673 0.043778
v 0.129017 0.112425 0.029811
v 0.096131 0.130673 0.043778
v 0.111892 0.111551 0.045340
v 0.111892 0.111551 0.045340
v 0.096131 0.130673 0.043778
v 0.086136 0.125699 0.053305
v 0.111892 0.111551 0.045340
v 0.086136 0.125699 0.053305
v 0.092662 0.111681 0.057397
v 0.123794 0.087438 0.047608
v 0.111892 0.111551 0.045340
v 0.092662 0.111681 0.057397
v 0.123794 0.087438 0.047608
v 0.092662 0.111681 0.057397
v 0.100732 0.089953 0.061381
v 0.132398 0.058891 0.049243
v 0.123794 0.087438 0.047608
v 0.100732 0.089953 0.061381
v 0.132398 0.058891 0.049243
v 0.100732 0.089953 0.061381
v 0.107767 0.063330 0.063878
v 0.136724 0.026822 0.050282
v 0.132398 0.058891 0.049243
v 0.107767 0.063330 0.063878
v 0.136724 0.026822 0.050282
v 0.107767 0.063330 0.063878
v 0.111988 0.033044 0.065133
v 0.158175 0.018393 0.033065
v 0.153856 0.053209 0.032113
v 0.132398 0.058891 0.049243
v 0.158175 0.018393 0.033065
v 0.132398 0.058891 0.049243
v 0.136724 0.026822 0.050282
v 0.174685 0.009494 0.014555
v 0.170526 0.047187 0.013590
v 0.153856 0.053209 0.032113
v 0.174685 0.009494 0.014555
v 0.153856 0.053209 0.032113
v 0.158175 0.018393 0.033065
v 0.083131 -0.062385 0.070145
v 0.085269 -0.029922 0.074696
v 0.059930 -0.032014 0.081622
v 0.083131 -0.062385 0.070145
v 0.059930 -0.032014 0.081622
v 0.059846 -0.066742 0.075630
v 0.085269 -0.029922 0.074696
v 0.086502 0.003357 0.076718
v 0.059514 0.002448 0.084600
v 0.085269 -0.029922 0.074696
v 0.059514 0.002448 0.084600
v 0.059930 -0.032014 0.081622
v 0.059846 -0.066742 0.075630
v 0.059930 -0.032014 0.081622
v 0.033258 -0.036085 0.085577
v 0.059846 -0.066742 0.075630
v 0.033258 -0.036085 0.085577
v 0.034392 -0.072214 0.078634
v 0.059930 -0.032014 0.081622
v 0.059514 0.002448 0.084600
v 0.031573 -0.000577 0.089259
v 0.059930 -0.032014 0.081622
v 0.031573 -0.000577 0.089259
v 0.033258 -0.036085 0.085577
v 0.098244 -0.085854 0.058669
v 0.103483 -0.063508 0.061839
v 0.083131 -0.062385 0.070145
v 0.098244 -0.085854 0.058669
v 0.083131 -0.062385 0.070145
v 0.082902 -0.092534 0.062575
v 0.103483 -0.063508 0.061839
v 0.108890 -0.032678 0.064490
v 0.085269 -0.029922 0.074696
v 0.103483 -0.063508 0.061839
v 0.085269 -0.029922 0.074696
v 0.083131 -0.062385 0.070145
v 0.108890 -0.032678 0.064490
v 0.112143 0.000375 0.065474
v 0.086502 0.003357 0.076718
v 0.108890 -0.032678 0.064490
v 0.086502 0.003357 0.076718
v 0.085269 -0.029922 0.074696
v 0.112143 0.000375 0.065474
v 0.111988 0.033044 0.065133
v 0.085417 0.035783 0.076734
v 0.112143 0.000375 0.065474
v 0.085417 0.035783 0.076734
v 0.086502 0.003357 0.076718
v 0.086502 0.003357 0.076718
v 0.085417 0.035783 0.076734
v 0.057624 0.035591 0.084962
v 0.086502 0.003357 0.076718
v 0.057624 0.035591 0.084962
v 0.059514 0.002448 0.084600
v 0.059514 0.002448 0.084600
v 0.057624 0.035591 0.084962
v 0.029017 0.033478 0.089882
v 0.059514 0.002448 0.084600
v 0.029017 0.033478 0.089882
v 0.031573 -0.000577 0.089259
v 0.031573 -0.000577 0.089259
v 0.029017 0.033478 0.089882
v 0.000001 0.030455 0.091561
v 0.031573 -0.000577 0.089259
v 0.000001 0.030455 0.091561
v 0.003089 -0.004014 0.090833
v 0.033258 -0.036085 0.085577
v 0.031573 -0.000577 0.089259
v 0.003089 -0.004014 0.090833
v 0.033258 -0.036085 0.085577
v 0.003089 -0.004014 0.090833
v 0.005783 -0.039851 0.086875
v 0.034392 -0.072214 0.078634
v 0.033258 -0.036085 0.085577
v 0.005783 -0.039851 0.086875
v 0.034392 -0.072214 0.078634
v 0.005783 -0.039851 0.086875
v 0.007690 -0.076269 0.079575
v 0.035349 -0.108155 0.068226
v 0.034392 -0.072214 0.078634
v 0.007690 -0.076269 0.079575
v 0.035349 -0.108155 0.068226
v 0.007690 -0.076269 0.079575
v 0.008414 -0.112480 0.068823
v 0.060681 -0.100871 0.066219
v 0.059846 -0.066742 0.075630
v 0.034392 -0.072214 0.078634
v 0.060681 -0.100871 0.066219
v 0.034392 -0.072214 0.078634
v 0.035349 -0.108155 0.068226
v 0.082902 -0.092534 0.062575
v 0.083131 -0.062385 0.070145
v 0.059846 -0.066742 0.075630
v 0.082902 -0.092534 0.062575
v 0.059846 -0.066742 0.075630
v 0.060681 -0.100871 0.066219
v -0.019325 -0.077322 0.078764
v -0.021924 -0.041763 0.085721
v -0.049284 -0.042628 0.081891
v -0.019325 -0.077322 0.078764
v -0.049284 -0.042628 0.081891
v -0.045725 -0.076258 0.075871
v -0.021924 -0.041763 0.085721
v -0.025520 -0.006610 0.089412
v -0.053821 -0.008846 0.084887
v -0.021924 -0.041763 0.085721
v -0.053821 -0.008846 0.084887
v -0.049284 -0.042628 0.081891
v -0.045725 -0.076258 0.075871
v -0.049284 -0.042628 0.081891
v -0.075730 -0.043998 0.075053
v -0.045725 -0.076258 0.075871
v -0.075730 -0.043998 0.075053
v -0.070532 -0.074948 0.070463
v -0.049284 -0.042628 0.081891
v -0.053821 -0.008846 0.084887
v -0.081386 -0.011654 0.077099
v -0.049284 -0.042628 0.081891
v -0.081386 -0.011654 0.077099
v -0.075730 -0.043998 0.075053
v 0.008414 -0.112480 0.068823
v 0.007690 -0.076269 0.079575
v -0.019325 -0.077322 0.078764
v 0.008414 -0.112480 0.068823
v -0.019325 -0.077322 0.078764
v -0.018867 -0.112504 0.068336
v 0.007690 -0.076269 0.079575
v 0.005783 -0.039851 0.086875
v -0.021924 -0.041763 0.085721
v 0.007690 -0.076269 0.079575
v -0.021924 -0.041763 0.085721
v -0.019325 -0.077322 0.078764
v 0.005783 -0.039851 0.086875
v 0.003089 -0.004014 0.090833
v -0.025520 -0.006610 0.089412
v 0.005783 -0.039851 0.086875
v -0.025520 -0.006610 0.089412
v -0.021924 -0.041763 0.085721
v 0.003089 -0.004014 0.090833
v 0.000001 0.030455 0.091561
v -0.029016 0.027324 0.090038
v 0.003089 -0.004014 0.090833
v -0.029016 0.027324 0.090038
v -0.025520 -0.006610 0.089412
v -0.025520 -0.006610 0.089412
v -0.029016 0.027324 0.090038
v -0.057627 0.024069 0.085254
v -0.025520 -0.006610 0.089412
v -0.057627 0.024069 0.085254
v -0.053821 -0.008846 0.084887
v -0.053821 -0.008846 0.084887
v -0.057627 0.024069 0.085254
v -0.085423 0.020464 0.077123
v -0.053821 -0.008846 0.084887
v -0.085423 0.020464 0.077123
v -0.081386 -0.011654 0.077099
v -0.081386 -0.011654 0.077099
v -0.085423 0.020464 0.077123
v -0.111998 0.016284 0.065558
v -0.081386 -0.011654 0.077099
v -0.111998 0.016284 0.065558
v -0.107792 -0.016046 0.065891
v -0.075730 -0.043998 0.075053
v -0.081386 -0.011654 0.077099
v -0.107792 -0.016046 0.065891
v -0.075730 -0.043998 0.075053
v -0.107792 -0.016046 0.065891
v -0.100768 -0.048056 0.064880
v -0.070532 -0.074948 0.070463
v -0.075730 -0.043998 0.075053
v -0.100768 -0.048056 0.064880
v -0.070532 -0.074948 0.070463
v -0.100768 -0.048056 0.064880
v -0.092701 -0.077214 0.062186
v -0.069155 -0.103290 0.062847
v -0.070532 -0.074948 0.070463
v -0.092701 -0.077214 0.062186
v -0.069155 -0.103290 0.062847
v -0.092701 -0.077214 0.062186
v -0.086173 -0.097892 0.058974
v -0.045249 -0.108978 0.066425
v -0.045725 -0.076258 0.075871
v -0.070532 -0.074948 0.070463
v -0.045249 -0.108978 0.066425
v -0.070532 -0.074948 0.070463
v -0.069155 -0.103290 0.062847
v -0.018867 -0.112504 0.068336
v -0.019325 -0.077322 0.078764
v -0.045725 -0.076258 0.075871
v -0.018867 -0.112504 0.068336
v -0.045725 -0.076258 0.075871
v -0.045249 -0.108978 0.066425
v 0.081365 0.065823 0.075135
v 0.075700 0.092460 0.071593
v 0.049265 0.094220 0.078422
v 0.081365 0.065823 0.075135
v 0.049265 0.094220 0.078422
v 0.053809 0.066404 0.082979
v 0.075700 0.092460 0.071593
v 0.070499 0.114843 0.065651
v 0.045704 0.118496 0.070933
v 0.075700 0.092460 0.071593
v 0.045704 0.118496 0.070933
v 0.049265 0.094220 0.078422
v 0.053809 0.066404 0.082979
v 0.049265 0.094220 0.078422
v 0.021919 0.094391 0.082269
v 0.053809 0.066404 0.082979
v 0.021919 0.094391 0.082269
v 0.025516 0.065307 0.087588
v 0.049265 0.094220 0.078422
v 0.045704 0.118496 0.070933
v 0.019321 0.120277 0.073754
v 0.049265 0.094220 0.078422
v 0.019321 0.120277 0.073754
v 0.021919 0.094391 0.082269
v 0.111988 0.033044 0.065133
v 0.107767 0.063330 0.063878
v 0.081365 0.065823 0.075135
v 0.111988 0.033044 0.065133
v 0.081365 0.065823 0.075135
v 0.085417 0.035783 0.076734
v 0.107767 0.063330 0.063878
v 0.100732 0.089953 0.061381
v 0.075700 0.092460 0.071593
v 0.107767 0.063330 0.063878
v 0.075700 0.092460 0.071593
v 0.081365 0.065823 0.075135
v 0.100732 0.089953 0.061381
v 0.092662 0.111681 0.057397
v 0.070499 0.114843 0.065651
v 0.100732 0.089953 0.061381
v 0.070499 0.114843 0.065651
v 0.075700 0.092460 0.071593
v 0.092662 0.111681 0.057397
v 0.086136 0.125699 0.053305
v 0.069123 0.132326 0.056873
v 0.092662 0.111681 0.057397
v 0.069123 0.132326 0.056873
v 0.070499 0.114843 0.065651
v 0.070499 0.114843 0.065651
v 0.069123 0.132326 0.056873
v 0.045229 0.138841 0.060141
v 0.070499 0.114843 0.065651
v 0.045229 0.138841 0.060141
v 0.045704 0.118496 0.070933
v 0.045704 0.118496 0.070933
v 0.045229 0.138841 0.060141
v 0.018864 0.142535 0.061870
v 0.045704 0.118496 0.070933
v 0.018864 0.142535 0.061870
v 0.019321 0.120277 0.073754
v 0.019321 0.120277 0.073754
v 0.018864 0.142535 0.061870
v -0.008398 0.142450 0.062359
v 0.019321 0.120277 0.073754
v -0.008398 0.142450 0.062359
v -0.007677 0.119272 0.074617
v 0.021919 0.094391 0.082269
v 0.019321 0.120277 0.073754
v -0.007677 0.119272 0.074617
v 0.021919 0.094391 0.082269
v -0.007677 0.119272 0.074617
v -0.005775 0.092578 0.083517
v 0.025516 0.065307 0.087588
v 0.021919 0.094391 0.082269
v -0.005775 0.092578 0.083517
v 0.025516 0.065307 0.087588
v -0.005775 0.092578 0.083517
v -0.003084 0.062821 0.089138
v 0.029017 0.033478 0.089882
v 0.025516 0.065307 0.087588
v -0.003084 0.062821 0.089138
v 0.029017 0.033478 0.089882
v -0.003084 0.062821 0.089138
v 0.000001 0.030455 0.091561
v 0.057624 0.035591 0.084962
v 0.053809 0.066404 0.082979
v 0.025516 0.065307 0.087588
v 0.057624 0.035591 0.084962
v 0.025516 0.065307 0.087588
v 0.029017 0.033478 0.089882
v 0.085417 0.035783 0.076734
v 0.081365 0.065823 0.075135
v 0.053809 0.066404 0.082979
v 0.085417 0.035783 0.076734
v 0.053809 0.066404 0.082979
v 0.057624 0.035591 0.084962
v -0.031564 0.059277 0.087741
v -0.033238 0.088718 0.082413
v -0.059904 0.083617 0.078691
v -0.031564 0.059277 0.087741
v -0.059904 0.083617 0.078691
v -0.059503 0.055116 0.083265
v -0.033238 0.088718 0.082413
v -0.034363 0.115177 0.073883
v -0.059808 0.108994 0.071174
v -0.033238 0.088718 0.082413
v -0.059808 0.108994 0.071174
v -0.059904 0.083617 0.078691
v -0.059503 0.055116 0.083265
v -0.059904 0.083617 0.078691
v -0.085240 0.078399 0.071950
v -0.059503 0.055116 0.083265
v -0.085240 0.078399 0.071950
v -0.086490 0.050820 0.075515
v -0.059904 0.083617 0.078691
v -0.059808 0.108994 0.071174
v -0.083090 0.102298 0.065969
v -0.059904 0.083617 0.078691
v -0.083090 0.102298 0.065969
v -0.085240 0.078399 0.071950
v 0.000001 0.030455 0.091561
v -0.003084 0.062821 0.089138
v -0.031564 0.059277 0.087741
v 0.000001 0.030455 0.091561
v -0.031564 0.059277 0.087741
v -0.029016 0.027324 0.090038
v -0.003084 0.062821 0.089138
v -0.005775 0.092578 0.083517
v -0.033238 0.088718 0.082413
v -0.003084 0.062821 0.089138
v -0.033238 0.088718 0.082413
v -0.031564 0.059277 0.087741
v -0.005775 0.092578 0.083517
v -0.007677 0.119272 0.074617
v -0.034363 0.115177 0.073883
v -0.005775 0.092578 0.083517
v -0.034363 0.115177 0.073883
v -0.033238 0.088718 0.082413
v -0.007677 0.119272 0.074617
v -0.008398 0.142450 0.062359
v -0.035316 0.138195 0.061980
v -0.007677 0.119272 0.074617
v -0.035316 0.138195 0.061980
v -0.034363 0.115177 0.073883
v -0.034363 0.115177 0.073883
v -0.035316 0.138195 0.061980
v -0.060637 0.130749 0.060346
v -0.034363 0.115177 0.073883
v -0.060637 0.130749 0.060346
v -0.059808 0.108994 0.071174
v -0.059808 0.108994 0.071174
v -0.060637 0.130749 0.060346
v -0.082856 0.121589 0.057146
v -0.059808 0.108994 0.071174
v -0.082856 0.121589 0.057146
v -0.083090 0.102298 0.065969
v -0.083090 0.102298 0.065969
v -0.082856 0.121589 0.057146
v -0.098199 0.113681 0.053610
v -0.083090 0.102298 0.065969
v -0.098199 0.113681 0.053610
v -0.103443 0.097994 0.057744
v -0.085240 0.078399 0.071950
v -0.083090 0.102298 0.065969
v -0.103443 0.097994 0.057744
v -0.085240 0.078399 0.071950
v -0.103443 0.097994 0.057744
v -0.108863 0.074590 0.061770
v -0.086490 0.050820 0.075515
v -0.085240 0.078399 0.071950
v -0.108863 0.074590 0.061770
v -0.086490 0.050820 0.075515
v -0.108863 0.074590 0.061770
v -0.112133 0.046919 0.064294
v -0.085423 0.020464 0.077123
v -0.086490 0.050820 0.075515
v -0.112133 0.046919 0.064294
v -0.085423 0.020464 0.077123
v -0.112133 0.046919 0.064294
v -0.111998 0.016284 0.065558
v -0.057627 0.024069 0.085254
v -0.059503 0.055116 0.083265
v -0.086490 0.050820 0.075515
v -0.057627 0.024069 0.085254
v -0.086490 0.050820 0.075515
v -0.085423 0.020464 0.077123
v -0.029016 0.027324 0.090038
v -0.031564 0.059277 0.087741
v -0.059503 0.055116 0.083265
v -0.029016 0.027324 0.090038
v -0.059503 0.055116 0.083265
v -0.057627 0.024069 0.085254
v -0.111931 -0.087118 0.050377
v -0.123829 -0.056318 0.051253
v -0.143961 -0.066995 0.034873
v -0.111931 -0.087118 0.050377
v -0.143961 -0.066995 0.034873
v -0.129050 -0.100971 0.035221
v -0.123829 -0.056318 0.051253
v -0.132422 -0.022645 0.051311
v -0.153877 -0.030460 0.034234
v -0.123829 -0.056318 0.051253
v -0.153877 -0.030460 0.034234
v -0.143961 -0.066995 0.034873
v -0.129050 -0.100971 0.035221
v -0.143961 -0.066995 0.034873
v -0.159981 -0.077572 0.016717
v -0.129050 -0.100971 0.035221
v -0.159981 -0.077572 0.016717
v -0.143493 -0.114548 0.017591
v -0.143961 -0.066995 0.034873
v -0.153877 -0.030460 0.034234
v -0.170541 -0.038102 0.015753
v -0.143961 -0.066995 0.034873
v -0.170541 -0.038102 0.015753
v -0.159981 -0.077572 0.016717
v -0.086173 -0.097892 0.058974
v -0.092701 -0.077214 0.062186
v -0.111931 -0.087118 0.050377
v -0.086173 -0.097892 0.058974
v -0.111931 -0.087118 0.050377
v -0.096167 -0.112020 0.049931
v -0.092701 -0.077214 0.062186
v -0.100768 -0.048056 0.064880
v -0.123829 -0.056318 0.051253
v -0.092701 -0.077214 0.062186
v -0.123829 -0.056318 0.051253
v -0.111931 -0.087118 0.050377
v -0.100768 -0.048056 0.064880
v -0.107792 -0.016046 0.065891
v -0.132422 -0.022645 0.051311
v -0.100768 -0.048056 0.064880
v -0.132422 -0.022645 0.051311
v -0.123829 -0.056318 0.051253
v -0.107792 -0.016046 0.065891
v -0.111998 0.016284 0.065558
v -0.136733 0.011437 0.050672
v -0.107792 -0.016046 0.065891
v -0.136733 0.011437 0.050672
v -0.132422 -0.022645 0.051311
v -0.132422 -0.022645 0.051311
v -0.136733 0.011437 0.050672
v -0.158184 0.006347 0.033371
v -0.132422 -0.022645 0.051311
v -0.158184 0.006347 0.033371
v -0.153877 -0.030460 0.034234
v -0.153877 -0.030460 0.034234
v -0.158184 0.006347 0.033371
v -0.174693 0.001572 0.014755
v -0.153877 -0.030460 0.034234
v -0.174693 0.001572 0.014755
v -0.170541 -0.038102 0.015753
v -0.170541 -0.038102 0.015753
v -0.174693 0.001572 0.014755
v -0.184605 -0.002331 -0.004071
v -0.170541 -0.038102 0.015753
v -0.184605 -0.002331 -0.004071
v -0.180732 -0.044233 -0.003008
v -0.159981 -0.077572 0.016717
v -0.170541 -0.038102 0.015753
v -0.180732 -0.044233 -0.003008
v -0.159981 -0.077572 0.016717
v -0.180732 -0.044233 -0.003008
v -0.170172 -0.085918 -0.001951
v -0.143493 -0.114548 0.017591
v -0.159981 -0.077572 0.016717
v -0.170172 -0.085918 -0.001951
v -0.143493 -0.114548 0.017591
v -0.170172 -0.085918 -0.001951
v -0.153285 -0.125011 -0.000960
v -0.121482 -0.146732 0.018370
v -0.143493 -0.114548 0.017591
v -0.153285 -0.125011 -0.000960
v -0.121482 -0.146732 0.018370
v -0.153285 -0.125011 -0.000960
v -0.130432 -0.159140 -0.000095
v -0.109193 -0.130022 0.035663
v -0.129050 -0.100971 0.035221
v -0.143493 -0.114548 0.017591
v -0.109193 -0.130022 0.035663
v -0.143493 -0.114548 0.017591
v -0.121482 -0.146732 0.018370
v -0.096167 -0.112020 0.049931
v -0.111931 -0.087118 0.050377
v -0.129050 -0.100971 0.035221
v -0.096167 -0.112020 0.049931
v -0.129050 -0.100971 0.035221
v -0.109193 -0.130022 0.035663
v -0.156619 -0.130376 -0.018806
v -0.173015 -0.090530 -0.019859
v -0.168340 -0.092031 -0.035963
v -0.156619 -0.130376 -0.018806
v -0.168340 -0.092031 -0.035963
v -0.153405 -0.131031 -0.034634
v -0.173015 -0.090530 -0.019859
v -0.183059 -0.047890 -0.020959
v -0.177355 -0.049566 -0.037198
v -0.173015 -0.090530 -0.019859
v -0.177355 -0.049566 -0.037198
v -0.168340 -0.092031 -0.035963
v -0.153405 -0.131031 -0.034634
v -0.168340 -0.092031 -0.035963
v -0.156257 -0.091807 -0.049338
v -0.153405 -0.131031 -0.034634
v -0.156257 -0.091807 -0.049338
v -0.143936 -0.128547 -0.047332
v -0.168340 -0.092031 -0.035963
v -0.177355 -0.049566 -0.037198
v -0.163752 -0.050150 -0.050876
v -0.168340 -0.092031 -0.035963
v -0.163752 -0.050150 -0.050876
v -0.156257 -0.091807 -0.049338
v -0.130432 -0.159140 -0.000095
v -0.153285 -0.125011 -0.000960
v -0.156619 -0.130376 -0.018806
v -0.130432 -0.159140 -0.000095
v -0.156619 -0.130376 -0.018806
v -0.134033 -0.165005 -0.017902
v -0.153285 -0.125011 -0.000960
v -0.170172 -0.085918 -0.001951
v -0.173015 -0.090530 -0.019859
v -0.153285 -0.125011 -0.000960
v -0.173015 -0.090530 -0.019859
v -0.156619 -0.130376 -0.018806
v -0.170172 -0.085918 -0.001951
v -0.180732 -0.044233 -0.003008
v -0.183059 -0.047890 -0.020959
v -0.170172 -0.085918 -0.001951
v -0.183059 -0.047890 -0.020959
v -0.173015 -0.090530 -0.019859
v -0.180732 -0.044233 -0.003008
v -0.184605 -0.002331 -0.004071
v -0.186566 -0.004944 -0.022051
v -0.180732 -0.044233 -0.003008
v -0.186566 -0.004944 -0.022051
v -0.183059 -0.047890 -0.020959
v -0.183059 -0.047890 -0.020959
v -0.186566 -0.004944 -0.022051
v -0.180414 -0.006404 -0.038316
v -0.183059 -0.047890 -0.020959
v -0.180414 -0.006404 -0.038316
v -0.177355 -0.049566 -0.037198
v -0.177355 -0.049566 -0.037198
v -0.180414 -0.006404 -0.038316
v -0.166290 -0.006984 -0.052039
v -0.177355 -0.049566 -0.037198
v -0.166290 -0.006984 -0.052039
v -0.163752 -0.050150 -0.050876
v -0.163752 -0.050150 -0.050876
v -0.166290 -0.006984 -0.052039
v -0.144334 -0.006958 -0.062398
v -0.163752 -0.050150 -0.050876
v -0.144334 -0.006958 -0.062398
v -0.142354 -0.050647 -0.061170
v -0.156257 -0.091807 -0.049338
v -0.163752 -0.050150 -0.050876
v -0.142354 -0.050647 -0.061170
v -0.156257 -0.091807 -0.049338
v -0.142354 -0.050647 -0.061170
v -0.136659 -0.092195 -0.059278
v -0.143936 -0.128547 -0.047332
v -0.156257 -0.091807 -0.049338
v -0.136659 -0.092195 -0.059278
v -0.143936 -0.128547 -0.047332
v -0.136659 -0.092195 -0.059278
v -0.127982 -0.127409 -0.056316
v -0.126444 -0.158153 -0.045834
v -0.143936 -0.128547 -0.047332
v -0.127982 -0.127409 -0.056316
v -0.126444 -0.158153 -0.045834
v -0.127982 -0.127409 -0.056316
v -0.119552 -0.150337 -0.053166
v -0.132379 -0.164339 -0.033586
v -0.153405 -0.131031 -0.034634
v -0.143936 -0.128547 -0.047332
v -0.132379 -0.164339 -0.033586
v -0.143936 -0.128547 -0.047332
v -0.126444 -0.158153 -0.045834
v -0.134033 -0.165005 -0.017902
v -0.156619 -0.130376 -0.018806
v -0.153405 -0.131031 -0.034634
v -0.134033 -0.165005 -0.017902
v -0.153405 -0.131031 -0.034634
v -0.132379 -0.164339 -0.033586
v -0.135856 0.043823 0.049625
v -0.130315 0.073316 0.047966
v -0.148726 0.073701 0.031306
v -0.135856 0.043823 0.049625
v -0.148726 0.073701 0.031306
v -0.156347 0.041408 0.032412
v -0.130315 0.073316 0.047966
v -0.120808 0.098952 0.045660
v -0.135801 0.102488 0.030063
v -0.130315 0.073316 0.047966
v -0.135801 0.102488 0.030063
v -0.148726 0.073701 0.031306
v -0.156347 0.041408 0.032412
v -0.148726 0.073701 0.031306
v -0.163024 0.074469 0.012862
v -0.156347 0.041408 0.032412
v -0.163024 0.074469 0.012862
v -0.172095 0.039425 0.013787
v -0.148726 0.073701 0.031306
v -0.135801 0.102488 0.030063
v -0.147894 0.105980 0.011999
v -0.148726 0.073701 0.031306
v -0.147894 0.105980 0.011999
v -0.163024 0.074469 0.012862
v -0.111998 0.016284 0.065558
v -0.112133 0.046919 0.064294
v -0.135856 0.043823 0.049625
v -0.111998 0.016284 0.065558
v -0.135856 0.043823 0.049625
v -0.136733 0.011437 0.050672
v -0.112133 0.046919 0.064294
v -0.108863 0.074590 0.061770
v -0.130315 0.073316 0.047966
v -0.112133 0.046919 0.064294
v -0.130315 0.073316 0.047966
v -0.135856 0.043823 0.049625
v -0.108863 0.074590 0.061770
v -0.103443 0.097994 0.057744
v -0.120808 0.098952 0.045660
v -0.108863 0.074590 0.061770
v -0.120808 0.098952 0.045660
v -0.130315 0.073316 0.047966
v -0.103443 0.097994 0.057744
v -0.098199 0.113681 0.053610
v -0.106955 0.119890 0.044051
v -0.103443 0.097994 0.057744
v -0.106955 0.119890 0.044051
v -0.120808 0.098952 0.045660
v -0.120808 0.098952 0.045660
v -0.106955 0.119890 0.044051
v -0.117657 0.127159 0.029142
v -0.120808 0.098952 0.045660
v -0.117657 0.127159 0.029142
v -0.135801 0.102488 0.030063
v -0.135801 0.102488 0.030063
v -0.117657 0.127159 0.029142
v -0.127071 0.133249 0.011271
v -0.135801 0.102488 0.030063
v -0.127071 0.133249 0.011271
v -0.147894 0.105980 0.011999
v -0.147894 0.105980 0.011999
v -0.127071 0.133249 0.011271
v -0.133391 0.137036 -0.007604
v -0.147894 0.105980 0.011999
v -0.133391 0.137036 -0.007604
v -0.155608 0.108139 -0.006872
v -0.163024 0.074469 0.012862
v -0.147894 0.105980 0.011999
v -0.155608 0.108139 -0.006872
v -0.163024 0.074469 0.012862
v -0.155608 0.108139 -0.006872
v -0.171770 0.074762 -0.006025
v -0.172095 0.039425 0.013787
v -0.163024 0.074469 0.012862
v -0.171770 0.074762 -0.006025
v -0.172095 0.039425 0.013787
v -0.171770 0.074762 -0.006025
v -0.181546 0.037681 -0.005085
v -0.174693 0.001572 0.014755
v -0.172095 0.039425 0.013787
v -0.181546 0.037681 -0.005085
v -0.174693 0.001572 0.014755
v -0.181546 0.037681 -0.005085
v -0.184605 -0.002331 -0.004071
v -0.158184 0.006347 0.033371
v -0.156347 0.041408 0.032412
v -0.172095 0.039425 0.013787
v -0.158184 0.006347 0.033371
v -0.172095 0.039425 0.013787
v -0.174693 0.001572 0.014755
v -0.136733 0.011437 0.050672
v -0.135856 0.043823 0.049625
v -0.156347 0.041408 0.032412
v -0.136733 0.011437 0.050672
v -0.156347 0.041408 0.032412
v -0.158184 0.006347 0.033371
v -0.183403 0.036078 -0.023088
v -0.173689 0.074064 -0.024032
v -0.168539 0.072801 -0.040142
v -0.183403 0.036078 -0.023088
v -0.168539 0.072801 -0.040142
v -0.177457 0.034855 -0.039339
v -0.173689 0.074064 -0.024032
v -0.157599 0.108191 -0.024855
v -0.153695 0.106425 -0.040655
v -0.173689 0.074064 -0.024032
v -0.153695 0.106425 -0.040655
v -0.168539 0.072801 -0.040142
v -0.177457 0.034855 -0.039339
v -0.168539 0.072801 -0.040142
v -0.156282 0.071824 -0.053487
v -0.177457 0.034855 -0.039339
v -0.156282 0.071824 -0.053487
v -0.163764 0.034359 -0.053019
v -0.168539 0.072801 -0.040142
v -0.153695 0.106425 -0.040655
v -0.143972 0.103840 -0.053224
v -0.168539 0.072801 -0.040142
v -0.143972 0.103840 -0.053224
v -0.156282 0.071824 -0.053487
v -0.184605 -0.002331 -0.004071
v -0.181546 0.037681 -0.005085
v -0.183403 0.036078 -0.023088
v -0.184605 -0.002331 -0.004071
v -0.183403 0.036078 -0.023088
v -0.186566 -0.004944 -0.022051
v -0.181546 0.037681 -0.005085
v -0.171770 0.074762 -0.006025
v -0.173689 0.074064 -0.024032
v -0.181546 0.037681 -0.005085
v -0.173689 0.074064 -0.024032
v -0.183403 0.036078 -0.023088
v -0.171770 0.074762 -0.006025
v -0.155608 0.108139 -0.006872
v -0.157599 0.108191 -0.024855
v -0.171770 0.074762 -0.006025
v -0.157599 0.108191 -0.024855
v -0.173689 0.074064 -0.024032
v -0.155608 0.108139 -0.006872
v -0.133391 0.137036 -0.007604
v -0.135281 0.137689 -0.025577
v -0.155608 0.108139 -0.006872
v -0.135281 0.137689 -0.025577
v -0.157599 0.108191 -0.024855
v -0.157599 0.108191 -0.024855
v -0.135281 0.137689 -0.025577
v -0.132748 0.135118 -0.041178
v -0.157599 0.108191 -0.024855
v -0.132748 0.135118 -0.041178
v -0.153695 0.106425 -0.040655
v -0.153695 0.106425 -0.040655
v -0.132748 0.135118 -0.041178
v -0.126490 0.129684 -0.053132
v -0.153695 0.106425 -0.040655
v -0.126490 0.129684 -0.053132
v -0.143972 0.103840 -0.053224
v -0.143972 0.103840 -0.053224
v -0.126490 0.129684 -0.053132
v -0.119552 0.123665 -0.060113
v -0.143972 0.103840 -0.053224
v -0.119552 0.123665 -0.060113
v -0.127981 0.103726 -0.062177
v -0.156282 0.071824 -0.053487
v -0.143972 0.103840 -0.053224
v -0.127981 0.103726 -0.062177
v -0.156282 0.071824 -0.053487
v -0.127981 0.103726 -0.062177
v -0.136659 0.072726 -0.063460
v -0.163764 0.034359 -0.053019
v -0.156282 0.071824 -0.053487
v -0.136659 0.072726 -0.063460
v -0.163764 0.034359 -0.053019
v -0.136659 0.072726 -0.063460
v -0.142354 0.035029 -0.063343
v -0.166290 -0.006984 -0.052039
v -0.163764 0.034359 -0.053019
v -0.142354 0.035029 -0.063343
v -0.166290 -0.006984 -0.052039
v -0.142354 0.035029 -0.063343
v -0.144334 -0.006958 -0.062398
v -0.180414 -0.006404 -0.038316
v -0.177457 0.034855 -0.039339
v -0.163764 0.034359 -0.053019
v -0.180414 -0.006404 -0.038316
v -0.163764 0.034359 -0.053019
v -0.166290 -0.006984 -0.052039
v -0.186566 -0.004944 -0.022051
v -0.183403 0.036078 -0.023088
v -0.177457 0.034855 -0.039339
v -0.186566 -0.004944 -0.022051
v -0.177457 0.034855 -0.039339
v -0.180414 -0.006404 -0.038316
v -0.104398 -0.132402 -0.061615
v -0.109685 -0.094987 -0.065417
v -0.076695 -0.098857 -0.068515
v -0.104398 -0.132402 -0.061615
v -0.076695 -0.098857 -0.068515
v -0.073896 -0.139487 -0.064288
v -0.109685 -0.094987 -0.065417
v -0.113559 -0.051818 -0.067580
v -0.078960 -0.053323 -0.070849
v -0.109685 -0.094987 -0.065417
v -0.078960 -0.053323 -0.070849
v -0.076695 -0.098857 -0.068515
v -0.073896 -0.139487 -0.064288
v -0.076695 -0.098857 -0.068515
v -0.039437 -0.101914 -0.069617
v -0.073896 -0.139487 -0.064288
v -0.039437 -0.101914 -0.069617
v -0.038267 -0.144647 -0.065226
v -0.076695 -0.098857 -0.068515
v -0.078960 -0.053323 -0.070849
v -0.040459 -0.054576 -0.072036
v -0.076695 -0.098857 -0.068515
v -0.040459 -0.054576 -0.072036
v -0.039437 -0.101914 -0.069617
v -0.119552 -0.150337 -0.053166
v -0.127982 -0.127409 -0.056316
v -0.104398 -0.132402 -0.061615
v -0.119552 -0.150337 -0.053166
v -0.104398 -0.132402 -0.061615
v -0.100913 -0.161215 -0.055459
v -0.127982 -0.127409 -0.056316
v -0.136659 -0.092195 -0.059278
v -0.109685 -0.094987 -0.065417
v -0.127982 -0.127409 -0.056316
v -0.109685 -0.094987 -0.065417
v -0.104398 -0.132402 -0.061615
v -0.136659 -0.092195 -0.059278
v -0.142354 -0.050647 -0.061170
v -0.113559 -0.051818 -0.067580
v -0.136659 -0.092195 -0.059278
v -0.113559 -0.051818 -0.067580
v -0.109685 -0.094987 -0.065417
v -0.142354 -0.050647 -0.061170
v -0.144334 -0.006958 -0.062398
v -0.114982 -0.006588 -0.068879
v -0.142354 -0.050647 -0.061170
v -0.114982 -0.006588 -0.068879
v -0.113559 -0.051818 -0.067580
v -0.113559 -0.051818 -0.067580
v -0.114982 -0.006588 -0.068879
v -0.079861 -0.006082 -0.072215
v -0.113559 -0.051818 -0.067580
v -0.079861 -0.006082 -0.072215
v -0.078960 -0.053323 -0.070849
v -0.078960 -0.053323 -0.070849
v -0.079861 -0.006082 -0.072215
v -0.040893 -0.005635 -0.073451
v -0.078960 -0.053323 -0.070849
v -0.040893 -0.005635 -0.073451
v -0.040459 -0.054576 -0.072036
v -0.040459 -0.054576 -0.072036
v -0.040893 -0.005635 -0.073451
v -0.000001 -0.005443 -0.073630
v -0.040459 -0.054576 -0.072036
v -0.000001 -0.005443 -0.073630
v -0.000001 -0.055094 -0.072197
v -0.039437 -0.101914 -0.069617
v -0.040459 -0.054576 -0.072036
v -0.000001 -0.055094 -0.072197
v -0.039437 -0.101914 -0.069617
v -0.000001 -0.055094 -0.072197
v -0.000001 -0.103117 -0.069755
v -0.038267 -0.144647 -0.065226
v -0.039437 -0.101914 -0.069617
v -0.000001 -0.103117 -0.069755
v -0.038267 -0.144647 -0.065226
v -0.000001 -0.103117 -0.069755
v -0.000002 -0.146542 -0.065330
v -0.037479 -0.179822 -0.057895
v -0.038267 -0.144647 -0.065226
v -0.000002 -0.146542 -0.065330
v -0.037479 -0.179822 -0.057895
v -0.000002 -0.146542 -0.065330
v -0.000002 -0.182400 -0.057950
v -0.072087 -0.172433 -0.057244
v -0.073896 -0.139487 -0.064288
v -0.038267 -0.144647 -0.065226
v -0.072087 -0.172433 -0.057244
v -0.038267 -0.144647 -0.065226
v -0.037479 -0.179822 -0.057895
v -0.100913 -0.161215 -0.055459
v -0.104398 -0.132402 -0.061615
v -0.073896 -0.139487 -0.064288
v -0.100913 -0.161215 -0.055459
v -0.073896 -0.139487 -0.064288
v -0.072087 -0.172433 -0.057244
v 0.038264 -0.144647 -0.065226
v 0.039434 -0.101914 -0.069617
v 0.076692 -0.098857 -0.068515
v 0.038264 -0.144647 -0.065226
v 0.076692 -0.098857 -0.068515
v 0.073893 -0.139487 -0.064288
v 0.039434 -0.101914 -0.069617
v 0.040456 -0.054576 -0.072036
v 0.078957 -0.053323 -0.070849
v 0.039434 -0.101914 -0.069617
v 0.078957 -0.053323 -0.070849
v 0.076692 -0.098857 -0.068515
v 0.073893 -0.139487 -0.064288
v 0.076692 -0.098857 -0.068515
v 0.109682 -0.094987 -0.065417
v 0.073893 -0.139487 -0.064288
v 0.109682 -0.094987 -0.065417
v 0.104395 -0.132402 -0.061615
v 0.076692 -0.098857 -0.068515
v 0.078957 -0.053323 -0.070849
v 0.113556 -0.051818 -0.067580
v 0.076692 -0.098857 -0.068515
v 0.113556 -0.051818 -0.067580
v 0.109682 -0.094987 -0.065417
v -0.000002 -0.182400 -0.057950
v -0.000002 -0.146542 -0.065330
v 0.038264 -0.144647 -0.065226
v -0.000002 -0.182400 -0.057950
v 0.038264 -0.144647 -0.065226
v 0.037476 -0.179822 -0.057895
v -0.000002 -0.146542 -0.065330
v -0.000001 -0.103117 -0.069755
v 0.039434 -0.101914 -0.069617
v -0.000002 -0.146542 -0.065330
v 0.039434 -0.101914 -0.069617
v 0.038264 -0.144647 -0.065226
v -0.000001 -0.103117 -0.069755
v -0.000001 -0.055094 -0.072197
v 0.040456 -0.054576 -0.072036
v -0.000001 -0.103117 -0.069755
v 0.040456 -0.054576 -0.072036
v 0.039434 -0.101914 -0.069617
v -0.000001 -0.055094 -0.072197
v -0.000001 -0.005443 -0.073630
v 0.040890 -0.005635 -0.073451
v -0.000001 -0.055094 -0.072197
v 0.040890 -0.005635 -0.073451
v 0.040456 -0.054576 -0.072036
v 0.040456 -0.054576 -0.072036
v 0.040890 -0.005635 -0.073451
v 0.079858 -0.006082 -0.072215
v 0.040456 -0.054576 -0.072036
v 0.079858 -0.006082 -0.072215
v 0.078957 -0.053323 -0.070849
v 0.078957 -0.053323 -0.070849
v 0.079858 -0.006082 -0.072215
v 0.114979 -0.006588 -0.068879
v 0.078957 -0.053323 -0.070849
v 0.114979 -0.006588 -0.068879
v 0.113556 -0.051818 -0.067580
v 0.113556 -0.051818 -0.067580
v 0.114979 -0.006588 -0.068879
v 0.144331 -0.006958 -0.062398
v 0.113556 -0.051818 -0.067580
v 0.144331 -0.006958 -0.062398
v 0.142351 -0.050647 -0.061171
v 0.109682 -0.094987 -0.065417
v 0.113556 -0.051818 -0.067580
v 0.142351 -0.050647 -0.061171
v 0.109682 -0.094987 -0.065417
v 0.142351 -0.050647 -0.061171
v 0.136656 -0.092195 -0.059278
v 0.104395 -0.132402 -0.061615
v 0.109682 -0.094987 -0.065417
v 0.136656 -0.092195 -0.059278
v 0.104395 -0.132402 -0.061615
v 0.136656 -0.092195 -0.059278
v 0.127979 -0.127409 -0.056316
v 0.100910 -0.161215 -0.055459
v 0.104395 -0.132402 -0.061615
v 0.127979 -0.127409 -0.056316
v 0.100910 -0.161215 -0.055459
v 0.127979 -0.127409 -0.056316
v 0.119549 -0.150337 -0.053166
v 0.072084 -0.172433 -0.057244
v 0.073893 -0.139487 -0.064288
v 0.104395 -0.132402 -0.061615
v 0.072084 -0.172433 -0.057244
v 0.104395 -0.132402 -0.061615
v 0.100910 -0.161215 -0.055459
v 0.037476 -0.179822 -0.057895
v 0.038264 -0.144647 -0.065226
v 0.073893 -0.139487 -0.064288
v 0.037476 -0.179822 -0.057895
v 0.073893 -0.139487 -0.064288
v 0.072084 -0.172433 -0.057244
v -0.113559 0.037083 -0.069834
v -0.109685 0.076600 -0.069767
v -0.076695 0.081780 -0.073095
v -0.113559 0.037083 -0.069834
v -0.076695 0.081780 -0.073095
v -0.078960 0.039748 -0.073209
v -0.109685 0.076600 -0.069767
v -0.104398 0.109683 -0.067753
v -0.073896 0.117862 -0.070813
v -0.109685 0.076600 -0.069767
v -0.073896 0.117862 -0.070813
v -0.076695 0.081780 -0.073095
v -0.078960 0.039748 -0.073209
v -0.076695 0.081780 -0.073095
v -0.039436 0.086057 -0.074383
v -0.078960 0.039748 -0.073209
v -0.039436 0.086057 -0.074383
v -0.040459 0.042024 -0.074485
v -0.076695 0.081780 -0.073095
v -0.073896 0.117862 -0.070813
v -0.038267 0.124260 -0.072044
v -0.076695 0.081780 -0.073095
v -0.038267 0.124260 -0.072044
v -0.039436 0.086057 -0.074383
v -0.144334 -0.006958 -0.062398
v -0.142354 0.035029 -0.063343
v -0.113559 0.037083 -0.069834
v -0.144334 -0.006958 -0.062398
v -0.113559 0.037083 -0.069834
v -0.114982 -0.006588 -0.068879
v -0.142354 0.035029 -0.063343
v -0.136659 0.072726 -0.063460
v -0.109685 0.076600 -0.069767
v -0.142354 0.035029 -0.063343
v -0.109685 0.076600 -0.069767
v -0.113559 0.037083 -0.069834
v -0.136659 0.072726 -0.063460
v -0.127981 0.103726 -0.062177
v -0.104398 0.109683 -0.067753
v -0.136659 0.072726 -0.063460
v -0.104398 0.109683 -0.067753
v -0.109685 0.076600 -0.069767
v -0.127981 0.103726 -0.062177
v -0.119552 0.123665 -0.060113
v -0.100913 0.134340 -0.062953
v -0.127981 0.103726 -0.062177
v -0.100913 0.134340 -0.062953
v -0.104398 0.109683 -0.067753
v -0.104398 0.109683 -0.067753
v -0.100913 0.134340 -0.062953
v -0.072087 0.146048 -0.065319
v -0.104398 0.109683 -0.067753
v -0.072087 0.146048 -0.065319
v -0.073896 0.117862 -0.070813
v -0.073896 0.117862 -0.070813
v -0.072087 0.146048 -0.065319
v -0.037479 0.154454 -0.066371
v -0.073896 0.117862 -0.070813
v -0.037479 0.154454 -0.066371
v -0.038267 0.124260 -0.072044
v -0.038267 0.124260 -0.072044
v -0.037479 0.154454 -0.066371
v -0.000001 0.157620 -0.066571
v -0.038267 0.124260 -0.072044
v -0.000001 0.157620 -0.066571
v -0.000001 0.126776 -0.072260
v -0.039436 0.086057 -0.074383
v -0.038267 0.124260 -0.072044
v -0.000001 0.126776 -0.072260
v -0.039436 0.086057 -0.074383
v -0.000001 0.126776 -0.072260
v -0.000001 0.087811 -0.074596
v -0.040459 0.042024 -0.074485
v -0.039436 0.086057 -0.074383
v -0.000001 0.087811 -0.074596
v -0.040459 0.042024 -0.074485
v -0.000001 0.087811 -0.074596
v -0.000001 0.042985 -0.074683
v -0.040893 -0.005635 -0.073451
v -0.040459 0.042024 -0.074485
v -0.000001 0.042985 -0.074683
v -0.040893 -0.005635 -0.073451
v -0.000001 0.042985 -0.074683
v -0.000001 -0.005443 -0.073630
v -0.079861 -0.006082 -0.072215
v -0.078960 0.039748 -0.073209
v -0.040459 0.042024 -0.074485
v -0.079861 -0.006082 -0.072215
v -0.040459 0.042024 -0.074485
v -0.040893 -0.005635 -0.073451
v -0.114982 -0.006588 -0.068879
v -0.113559 0.037083 -0.069834
v -0.078960 0.039748 -0.073209
v -0.114982 -0.006588 -0.068879
v -0.078960 0.039748 -0.073209
v -0.079861 -0.006082 -0.072215
v 0.040456 0.042024 -0.074485
v 0.039434 0.086057 -0.074383
v 0.076692 0.081780 -0.073095
v 0.040456 0.042024 -0.074485
v 0.076692 0.081780 -0.073095
v 0.078957 0.039748 -0.073209
v 0.039434 0.086057 -0.074383
v 0.038265 0.124260 -0.072044
v 0.073893 0.117862 -0.070813
v 0.039434 0.086057 -0.074383
v 0.073893 0.117862 -0.070813
v 0.076692 0.081780 -0.073095
v 0.078957 0.039748 -0.073209
v 0.076692 0.081780 -0.073095
v 0.109682 0.076600 -0.069767
v 0.078957 0.039748 -0.073209
v 0.109682 0.076600 -0.069767
v 0.113556 0.037083 -0.069834
v 0.076692 0.081780 -0.073095
v 0.073893 0.117862 -0.070813
v 0.104395 0.109683 -0.067753
v 0.076692 0.081780 -0.073095
v 0.104395 0.109683 -0.067753
v 0.109682 0.076600 -0.069767
v -0.000001 -0.005443 -0.073630
v -0.000001 0.042985 -0.074683
v 0.040456 0.042024 -0.074485
v -0.000001 -0.005443 -0.073630
v 0.040456 0.042024 -0.074485
v 0.040890 -0.005635 -0.073451
v -0.000001 0.042985 -0.074683
v -0.000001 0.087811 -0.074596
v 0.039434 0.086057 -0.074383
v -0.000001 0.042985 -0.074683
v 0.039434 0.086057 -0.074383
v 0.040456 0.042024 -0.074485
v -0.000001 0.087811 -0.074596
v -0.000001 0.126776 -0.072260
v 0.038265 0.124260 -0.072044
v -0.000001 0.087811 -0.074596
v 0.038265 0.124260 -0.072044
v 0.039434 0.086057 -0.074383
v -0.000001 0.126776 -0.072260
v -0.000001 0.157620 -0.066571
v 0.037477 0.154454 -0.066371
v -0.000001 0.126776 -0.072260
v 0.037477 0.154454 -0.066371
v 0.038265 0.124260 -0.072044
v 0.038265 0.124260 -0.072044
v 0.037477 0.154454 -0.066371
v 0.072084 0.146048 -0.065319
v 0.038265 0.124260 -0.072044
v 0.072084 0.146048 -0.065319
v 0.073893 0.117862 -0.070813
v 0.073893 0.117862 -0.070813
v 0.072084 0.146048 -0.065319
v 0.100910 0.134340 -0.062953
v 0.073893 0.117862 -0.070813
v 0.100910 0.134340 -0.062953
v 0.104395 0.109683 -0.067753
v 0.104395 0.109683 -0.067753
v 0.100910 0.134340 -0.062953
v 0.119549 0.123665 -0.060113
v 0.104395 0.109683 -0.067753
v 0.119549 0.123665 -0.060113
v 0.127979 0.103726 -0.062177
v 0.109682 0.076600 -0.069767
v 0.104395 0.109683 -0.067753
v 0.127979 0.103726 -0.062177
v 0.109682 0.076600 -0.069767
v 0.127979 0.103726 -0.062177
v 0.136656 0.072726 -0.063460
v 0.113556 0.037083 -0.069834
v 0.109682 0.076600 -0.069767
v 0.136656 0.072726 -0.063460
v 0.113556 0.037083 -0.069834
v 0.136656 0.072726 -0.063460
v 0.142351 0.035029 -0.063343
v 0.114979 -0.006588 -0.068879
v 0.113556 0.037083 -0.069834
v 0.142351 0.035029 -0.063343
v 0.114979 -0.006588 -0.068879
v 0.142351 0.035029 -0.063343
v 0.144331 -0.006958 -0.062398
v 0.079858 -0.006082 -0.072215
v 0.078957 0.039748 -0.073209
v 0.113556 0.037083 -0.069834
v 0.079858 -0.006082 -0.072215
v 0.113556 0.037083 -0.069834
v 0.114979 -0.006588 -0.068879
v 0.040890 -0.005635 -0.073451
v 0.040456 0.042024 -0.074485
v 0.078957 0.039748 -0.073209
v 0.040890 -0.005635 -0.073451
v 0.078957 0.039748 -0.073209
v 0.079858 -0.006082 -0.072215
v -0.102495 -0.180015 -0.046027
v -0.072332 -0.195527 -0.046708
v -0.073166 -0.208635 -0.033007
v -0.102495 -0.180015 -0.046027
v -0.073166 -0.208635 -0.033007
v -0.105289 -0.190252 -0.033133
v -0.072332 -0.195527 -0.046708
v -0.037390 -0.204993 -0.046950
v -0.037388 -0.219682 -0.032885
v -0.072332 -0.195527 -0.046708
v -0.037388 -0.219682 -0.032885
v -0.073166 -0.208635 -0.033007
v -0.105289 -0.190252 -0.033133
v -0.073166 -0.208635 -0.033007
v -0.072674 -0.212062 -0.016777
v -0.105289 -0.190252 -0.033133
v -0.072674 -0.212062 -0.016777
v -0.105631 -0.192396 -0.017233
v -0.073166 -0.208635 -0.033007
v -0.037388 -0.219682 -0.032885
v -0.036654 -0.223895 -0.016497
v -0.073166 -0.208635 -0.033007
v -0.036654 -0.223895 -0.016497
v -0.072674 -0.212062 -0.016777
v -0.119552 -0.150337 -0.053166
v -0.100913 -0.161215 -0.055459
v -0.102495 -0.180015 -0.046027
v -0.119552 -0.150337 -0.053166
v -0.102495 -0.180015 -0.046027
v -0.126444 -0.158153 -0.045834
v -0.100913 -0.161215 -0.055459
v -0.072087 -0.172433 -0.057244
v -0.072332 -0.195527 -0.046708
v -0.100913 -0.161215 -0.055459
v -0.072332 -0.195527 -0.046708
v -0.102495 -0.180015 -0.046027
v -0.072087 -0.172433 -0.057244
v -0.037479 -0.179822 -0.057895
v -0.037390 -0.204993 -0.046950
v -0.072087 -0.172433 -0.057244
v -0.037390 -0.204993 -0.046950
v -0.072332 -0.195527 -0.046708
v -0.037479 -0.179822 -0.057895
v -0.000002 -0.182400 -0.057950
v 0.000031 -0.208199 -0.046938
v -0.037479 -0.179822 -0.057895
v 0.000031 -0.208199 -0.046938
v -0.037390 -0.204993 -0.046950
v -0.037390 -0.204993 -0.046950
v 0.000031 -0.208199 -0.046938
v 0.000261 -0.223353 -0.032815
v -0.037390 -0.204993 -0.046950
v 0.000261 -0.223353 -0.032815
v -0.037388 -0.219682 -0.032885
v -0.037388 -0.219682 -0.032885
v 0.000261 -0.223353 -0.032815
v 0.000886 -0.227757 -0.016402
v -0.037388 -0.219682 -0.032885
v 0.000886 -0.227757 -0.016402
v -0.036654 -0.223895 -0.016497
v -0.036654 -0.223895 -0.016497
v 0.000886 -0.227757 -0.016402
v 0.002102 -0.221302 0.001481
v -0.036654 -0.223895 -0.016497
v 0.002102 -0.221302 0.001481
v -0.034460 -0.217605 0.001388
v -0.072674 -0.212062 -0.016777
v -0.036654 -0.223895 -0.016497
v -0.034460 -0.217605 0.001388
v -0.072674 -0.212062 -0.016777
v -0.034460 -0.217605 0.001388
v -0.069685 -0.205853 0.001090
v -0.105631 -0.192396 -0.017233
v -0.072674 -0.212062 -0.016777
v -0.069685 -0.205853 0.001090
v -0.105631 -0.192396 -0.017233
v -0.069685 -0.205853 0.001090
v -0.102150 -0.186285 0.000593
v -0.134033 -0.165005 -0.017902
v -0.105631 -0.192396 -0.017233
v -0.102150 -0.186285 0.000593
v -0.134033 -0.165005 -0.017902
v -0.102150 -0.186285 0.000593
v -0.130432 -0.159140 -0.000095
v -0.132379 -0.164339 -0.033586
v -0.105289 -0.190252 -0.033133
v -0.105631 -0.192396 -0.017233
v -0.132379 -0.164339 -0.033586
v -0.105631 -0.192396 -0.017233
v -0.134033 -0.165005 -0.017902
v -0.126444 -0.158153 -0.045834
v -0.102495 -0.180015 -0.046027
v -0.105289 -0.190252 -0.033133
v -0.126444 -0.158153 -0.045834
v -0.105289 -0.190252 -0.033133
v -0.132379 -0.164339 -0.033586
v -0.094495 -0.172183 0.019052
v -0.063706 -0.190389 0.019578
v -0.056225 -0.167662 0.037425
v -0.094495 -0.172183 0.019052
v -0.056225 -0.167662 0.037425
v -0.084542 -0.152247 0.036521
v -0.063706 -0.190389 0.019578
v -0.030442 -0.201181 0.019887
v -0.025600 -0.176615 0.037940
v -0.063706 -0.190389 0.019578
v -0.025600 -0.176615 0.037940
v -0.056225 -0.167662 0.037425
v -0.084542 -0.152247 0.036521
v -0.056225 -0.167662 0.037425
v -0.049295 -0.139938 0.053373
v -0.084542 -0.152247 0.036521
v -0.049295 -0.139938 0.053373
v -0.074892 -0.128897 0.051437
v -0.056225 -0.167662 0.037425
v -0.025600 -0.176615 0.037940
v -0.021281 -0.146284 0.054445
v -0.056225 -0.167662 0.037425
v -0.021281 -0.146284 0.054445
v -0.049295 -0.139938 0.053373
v -0.130432 -0.159140 -0.000095
v -0.102150 -0.186285 0.000593
v -0.094495 -0.172183 0.019052
v -0.130432 -0.159140 -0.000095
v -0.094495 -0.172183 0.019052
v -0.121482 -0.146732 0.018370
v -0.102150 -0.186285 0.000593
v -0.069685 -0.205853 0.001090
v -0.063706 -0.190389 0.019578
v -0.102150 -0.186285 0.000593
v -0.063706 -0.190389 0.019578
v -0.094495 -0.172183 0.019052
v -0.069685 -0.205853 0.001090
v -0.034460 -0.217605 0.001388
v -0.030442 -0.201181 0.019887
v -0.069685 -0.205853 0.001090
v -0.030442 -0.201181 0.019887
v -0.063706 -0.190389 0.019578
v -0.034460 -0.217605 0.001388
v 0.002102 -0.221302 0.001481
v 0.003976 -0.204314 0.019976
v -0.034460 -0.217605 0.001388
v 0.003976 -0.204314 0.019976
v -0.030442 -0.201181 0.019887
v -0.030442 -0.201181 0.019887
v 0.003976 -0.204314 0.019976
v 0.006048 -0.178853 0.038066
v -0.030442 -0.201181 0.019887
v 0.006048 -0.178853 0.038066
v -0.025600 -0.176615 0.037940
v -0.025600 -0.176615 0.037940
v 0.006048 -0.178853 0.038066
v 0.007724 -0.147411 0.054700
v -0.025600 -0.176615 0.037940
v 0.007724 -0.147411 0.054700
v -0.021281 -0.146284 0.054445
v -0.021281 -0.146284 0.054445
v 0.007724 -0.147411 0.054700
v 0.008414 -0.112480 0.068823
v -0.021281 -0.146284 0.054445
v 0.008414 -0.112480 0.068823
v -0.018867 -0.112504 0.068336
v -0.049295 -0.139938 0.053373
v -0.021281 -0.146284 0.054445
v -0.018867 -0.112504 0.068336
v -0.049295 -0.139938 0.053373
v -0.018867 -0.112504 0.068336
v -0.045249 -0.108978 0.066425
v -0.074892 -0.128897 0.051437
v -0.049295 -0.139938 0.053373
v -0.045249 -0.108978 0.066425
v -0.074892 -0.128897 0.051437
v -0.045249 -0.108978 0.066425
v -0.069155 -0.103290 0.062847
v -0.096167 -0.112020 0.049931
v -0.074892 -0.128897 0.051437
v -0.069155 -0.103290 0.062847
v -0.096167 -0.112020 0.049931
v -0.069155 -0.103290 0.062847
v -0.086173 -0.097892 0.058974
v -0.109193 -0.130022 0.035663
v -0.084542 -0.152247 0.036521
v -0.074892 -0.128897 0.051437
v -0.109193 -0.130022 0.035663
v -0.074892 -0.128897 0.051437
v -0.096167 -0.112020 0.049931
v -0.121482 -0.146732 0.018370
v -0.094495 -0.172183 0.019052
v -0.084542 -0.152247 0.036521
v -0.121482 -0.146732 0.018370
v -0.084542 -0.152247 0.036521
v -0.109193 -0.130022 0.035663
v 0.037451 -0.204980 -0.046950
v 0.072390 -0.195502 -0.046709
v 0.073648 -0.208434 -0.033012
v 0.037451 -0.204980 -0.046950
v 0.073648 -0.208434 -0.033012
v 0.037900 -0.219580 -0.032888
v 0.072390 -0.195502 -0.046709
v 0.102547 -0.179979 -0.046028
v 0.105723 -0.189961 -0.033140
v 0.072390 -0.195502 -0.046709
v 0.105723 -0.189961 -0.033140
v 0.073648 -0.208434 -0.033012
v 0.037900 -0.219580 -0.032888
v 0.073648 -0.208434 -0.033012
v 0.074309 -0.211386 -0.016794
v 0.037900 -0.219580 -0.032888
v 0.074309 -0.211386 -0.016794
v 0.038391 -0.223551 -0.016506
v 0.073648 -0.208434 -0.033012
v 0.105723 -0.189961 -0.033140
v 0.107102 -0.191413 -0.017258
v 0.073648 -0.208434 -0.033012
v 0.107102 -0.191413 -0.017258
v 0.074309 -0.211386 -0.016794
v -0.000002 -0.182400 -0.057950
v 0.037476 -0.179822 -0.057895
v 0.037451 -0.204980 -0.046950
v -0.000002 -0.182400 -0.057950
v 0.037451 -0.204980 -0.046950
v 0.000031 -0.208199 -0.046938
v 0.037476 -0.179822 -0.057895
v 0.072084 -0.172433 -0.057244
v 0.072390 -0.195502 -0.046709
v 0.037476 -0.179822 -0.057895
v 0.072390 -0.195502 -0.046709
v 0.037451 -0.204980 -0.046950
v 0.072084 -0.172433 -0.057244
v 0.100910 -0.161215 -0.055459
v 0.102547 -0.179979 -0.046028
v 0.072084 -0.172433 -0.057244
v 0.102547 -0.179979 -0.046028
v 0.072390 -0.195502 -0.046709
v 0.100910 -0.161215 -0.055459
v 0.119549 -0.150337 -0.053166
v 0.126487 -0.158107 -0.045836
v 0.100910 -0.161215 -0.055459
v 0.126487 -0.158107 -0.045836
v 0.102547 -0.179979 -0.046028
v 0.102547 -0.179979 -0.046028
v 0.126487 -0.158107 -0.045836
v 0.132747 -0.163968 -0.033595
v 0.102547 -0.179979 -0.046028
v 0.132747 -0.163968 -0.033595
v 0.105723 -0.189961 -0.033140
v 0.105723 -0.189961 -0.033140
v 0.132747 -0.163968 -0.033595
v 0.135284 -0.163755 -0.017934
v 0.105723 -0.189961 -0.033140
v 0.135284 -0.163755 -0.017934
v 0.107102 -0.191413 -0.017258
v 0.107102 -0.191413 -0.017258
v 0.135284 -0.163755 -0.017934
v 0.133401 -0.156175 -0.000170
v 0.107102 -0.191413 -0.017258
v 0.133401 -0.156175 -0.000170
v 0.105641 -0.183957 0.000534
v 0.074309 -0.211386 -0.016794
v 0.107102 -0.191413 -0.017258
v 0.105641 -0.183957 0.000534
v 0.074309 -0.211386 -0.016794
v 0.105641 -0.183957 0.000534
v 0.073564 -0.204251 0.001049
v 0.038391 -0.223551 -0.016506
v 0.074309 -0.211386 -0.016794
v 0.073564 -0.204251 0.001049
v 0.038391 -0.223551 -0.016506
v 0.073564 -0.204251 0.001049
v 0.038581 -0.216789 0.001367
v 0.000886 -0.227757 -0.016402
v 0.038391 -0.223551 -0.016506
v 0.038581 -0.216789 0.001367
v 0.000886 -0.227757 -0.016402
v 0.038581 -0.216789 0.001367
v 0.002102 -0.221302 0.001481
v 0.000261 -0.223353 -0.032815
v 0.037900 -0.219580 -0.032888
v 0.038391 -0.223551 -0.016506
v 0.000261 -0.223353 -0.032815
v 0.038391 -0.223551 -0.016506
v 0.000886 -0.227757 -0.016402
v 0.000031 -0.208199 -0.046938
v 0.037451 -0.204980 -0.046950
v 0.037900 -0.219580 -0.032888
v 0.000031 -0.208199 -0.046938
v 0.037900 -0.219580 -0.032888
v 0.000261 -0.223353 -0.032815
v 0.038237 -0.199622 0.019848
v 0.071040 -0.187338 0.019500
v 0.067361 -0.162884 0.037304
v 0.038237 -0.199622 0.019848
v 0.067361 -0.162884 0.037304
v 0.037452 -0.174137 0.037877
v 0.071040 -0.187338 0.019500
v 0.101091 -0.167771 0.018940
v 0.094523 -0.145479 0.036350
v 0.071040 -0.187338 0.019500
v 0.094523 -0.145479 0.036350
v 0.067361 -0.162884 0.037304
v 0.037452 -0.174137 0.037877
v 0.067361 -0.162884 0.037304
v 0.063480 -0.133437 0.053208
v 0.037452 -0.174137 0.037877
v 0.063480 -0.133437 0.053208
v 0.036414 -0.142841 0.054358
v 0.067361 -0.162884 0.037304
v 0.094523 -0.145479 0.036350
v 0.087548 -0.120003 0.051211
v 0.067361 -0.162884 0.037304
v 0.087548 -0.120003 0.051211
v 0.063480 -0.133437 0.053208
v 0.002102 -0.221302 0.001481
v 0.038581 -0.216789 0.001367
v 0.038237 -0.199622 0.019848
v 0.002102 -0.221302 0.001481
v 0.038237 -0.199622 0.019848
v 0.003976 -0.204314 0.019976
v 0.038581 -0.216789 0.001367
v 0.073564 -0.204251 0.001049
v 0.071040 -0.187338 0.019500
v 0.038581 -0.216789 0.001367
v 0.071040 -0.187338 0.019500
v 0.038237 -0.199622 0.019848
v 0.073564 -0.204251 0.001049
v 0.105641 -0.183957 0.000534
v 0.101091 -0.167771 0.018940
v 0.073564 -0.204251 0.001049
v 0.101091 -0.167771 0.018940
v 0.071040 -0.187338 0.019500
v 0.105641 -0.183957 0.000534
v 0.133401 -0.156175 -0.000170
v 0.127094 -0.141133 0.018228
v 0.105641 -0.183957 0.000534
v 0.127094 -0.141133 0.018228
v 0.101091 -0.167771 0.018940
v 0.101091 -0.167771 0.018940
v 0.127094 -0.141133 0.018228
v 0.117692 -0.121544 0.035448
v 0.101091 -0.167771 0.018940
v 0.117692 -0.121544 0.035448
v 0.094523 -0.145479 0.036350
v 0.094523 -0.145479 0.036350
v 0.117692 -0.121544 0.035448
v 0.106998 -0.101218 0.049657
v 0.094523 -0.145479 0.036350
v 0.106998 -0.101218 0.049657
v 0.087548 -0.120003 0.051211
v 0.087548 -0.120003 0.051211
v 0.106998 -0.101218 0.049657
v 0.098244 -0.085854 0.058669
v 0.087548 -0.120003 0.051211
v 0.098244 -0.085854 0.058669
v 0.082902 -0.092534 0.062575
v 0.063480 -0.133437 0.053208
v 0.087548 -0.120003 0.051211
v 0.082902 -0.092534 0.062575
v 0.063480 -0.133437 0.053208
v 0.082902 -0.092534 0.062575
v 0.060681 -0.100871 0.066219
v 0.036414 -0.142841 0.054358
v 0.063480 -0.133437 0.053208
v 0.060681 -0.100871 0.066219
v 0.036414 -0.142841 0.054358
v 0.060681 -0.100871 0.066219
v 0.035349 -0.108155 0.068226
v 0.007724 -0.147411 0.054700
v 0.036414 -0.142841 0.054358
v 0.035349 -0.108155 0.068226
v 0.007724 -0.147411 0.054700
v 0.035349 -0.108155 0.068226
v 0.008414 -0.112480 0.068823
v 0.006048 -0.178853 0.038066
v 0.037452 -0.174137 0.037877
v 0.036414 -0.142841 0.054358
v 0.006048 -0.178853 0.038066
v 0.036414 -0.142841 0.054358
v 0.007724 -0.147411 0.054700
v 0.003976 -0.204314 0.019976
v 0.038237 -0.199622 0.019848
v 0.037452 -0.174137 0.037877
v 0.003976 -0.204314 0.019976
v 0.037452 -0.174137 0.037877
v 0.006048 -0.178853 0.038066
v 0.102492 0.149802 -0.054389
v 0.072329 0.165052 -0.055851
v 0.073162 0.176015 -0.042759
v 0.102492 0.149802 -0.054389
v 0.073162 0.176015 -0.042759
v 0.105285 0.158681 -0.041980
v 0.072329 0.165052 -0.055851
v 0.037387 0.175076 -0.056587
v 0.037385 0.187001 -0.043197
v 0.072329 0.165052 -0.055851
v 0.037385 0.187001 -0.043197
v 0.073162 0.176015 -0.042759
v 0.105285 0.158681 -0.041980
v 0.073162 0.176015 -0.042759
v 0.072669 0.180597 -0.026733
v 0.105285 0.158681 -0.041980
v 0.072669 0.180597 -0.026733
v 0.105625 0.162798 -0.026239
v 0.073162 0.176015 -0.042759
v 0.037385 0.187001 -0.043197
v 0.036651 0.191702 -0.027034
v 0.073162 0.176015 -0.042759
v 0.036651 0.191702 -0.027034
v 0.072669 0.180597 -0.026733
v 0.119549 0.123665 -0.060113
v 0.100910 0.134340 -0.062953
v 0.102492 0.149802 -0.054389
v 0.119549 0.123665 -0.060113
v 0.102492 0.149802 -0.054389
v 0.126441 0.129730 -0.053134
v 0.100910 0.134340 -0.062953
v 0.072084 0.146048 -0.065319
v 0.072329 0.165052 -0.055851
v 0.100910 0.134340 -0.062953
v 0.072329 0.165052 -0.055851
v 0.102492 0.149802 -0.054389
v 0.072084 0.146048 -0.065319
v 0.037477 0.154454 -0.066371
v 0.037387 0.175076 -0.056587
v 0.072084 0.146048 -0.065319
v 0.037387 0.175076 -0.056587
v 0.072329 0.165052 -0.055851
v 0.037477 0.154454 -0.066371
v -0.000001 0.157620 -0.066571
v -0.000034 0.178698 -0.056747
v 0.037477 0.154454 -0.066371
v -0.000034 0.178698 -0.056747
v 0.037387 0.175076 -0.056587
v 0.037387 0.175076 -0.056587
v -0.000034 0.178698 -0.056747
v -0.000264 0.190827 -0.043316
v 0.037387 0.175076 -0.056587
v -0.000264 0.190827 -0.043316
v 0.037385 0.187001 -0.043197
v 0.037385 0.187001 -0.043197
v -0.000264 0.190827 -0.043316
v -0.000887 0.195441 -0.027132
v 0.037385 0.187001 -0.043197
v -0.000887 0.195441 -0.027132
v 0.036651 0.191702 -0.027034
v 0.036651 0.191702 -0.027034
v -0.000887 0.195441 -0.027132
v -0.002100 0.193971 -0.009048
v 0.036651 0.191702 -0.027034
v -0.002100 0.193971 -0.009048
v 0.034457 0.190608 -0.008963
v 0.072669 0.180597 -0.026733
v 0.036651 0.191702 -0.027034
v 0.034457 0.190608 -0.008963
v 0.072669 0.180597 -0.026733
v 0.034457 0.190608 -0.008963
v 0.069677 0.180097 -0.008696
v 0.105625 0.162798 -0.026239
v 0.072669 0.180597 -0.026733
v 0.069677 0.180097 -0.008696
v 0.105625 0.162798 -0.026239
v 0.069677 0.180097 -0.008696
v 0.102138 0.163028 -0.008263
v 0.134025 0.138937 -0.025609
v 0.105625 0.162798 -0.026239
v 0.102138 0.163028 -0.008263
v 0.134025 0.138937 -0.025609
v 0.102138 0.163028 -0.008263
v 0.130418 0.139994 -0.007679
v 0.132374 0.135488 -0.041188
v 0.105285 0.158681 -0.041980
v 0.105625 0.162798 -0.026239
v 0.132374 0.135488 -0.041188
v 0.105625 0.162798 -0.026239
v 0.134025 0.138937 -0.025609
v 0.126441 0.129730 -0.053134
v 0.102492 0.149802 -0.054389
v 0.105285 0.158681 -0.041980
v 0.126441 0.129730 -0.053134
v 0.105285 0.158681 -0.041980
v 0.132374 0.135488 -0.041188
v 0.094477 0.160006 0.010630
v 0.063695 0.175531 0.010300
v 0.056210 0.167163 0.028936
v 0.094477 0.160006 0.010630
v 0.056210 0.167163 0.028936
v 0.084516 0.153958 0.028758
v 0.063695 0.175531 0.010300
v 0.030440 0.184916 0.010098
v 0.025598 0.174948 0.029026
v 0.063695 0.175531 0.010300
v 0.025598 0.174948 0.029026
v 0.056210 0.167163 0.028936
v 0.084516 0.153958 0.028758
v 0.056210 0.167163 0.028936
v 0.049277 0.155005 0.045895
v 0.084516 0.153958 0.028758
v 0.049277 0.155005 0.045895
v 0.074863 0.144921 0.044494
v 0.056210 0.167163 0.028936
v 0.025598 0.174948 0.029026
v 0.021279 0.160799 0.046659
v 0.056210 0.167163 0.028936
v 0.021279 0.160799 0.046659
v 0.049277 0.155005 0.045895
v 0.130418 0.139994 -0.007679
v 0.102138 0.163028 -0.008263
v 0.094477 0.160006 0.010630
v 0.130418 0.139994 -0.007679
v 0.094477 0.160006 0.010630
v 0.121459 0.138838 0.011129
v 0.102138 0.163028 -0.008263
v 0.069677 0.180097 -0.008696
v 0.063695 0.175531 0.010300
v 0.102138 0.163028 -0.008263
v 0.063695 0.175531 0.010300
v 0.094477 0.160006 0.010630
v 0.069677 0.180097 -0.008696
v 0.034457 0.190608 -0.008963
v 0.030440 0.184916 0.010098
v 0.069677 0.180097 -0.008696
v 0.030440 0.184916 0.010098
v 0.063695 0.175531 0.010300
v 0.034457 0.190608 -0.008963
v -0.002100 0.193971 -0.009048
v -0.003970 0.187640 0.010038
v 0.034457 0.190608 -0.008963
v -0.003970 0.187640 0.010038
v 0.030440 0.184916 0.010098
v 0.030440 0.184916 0.010098
v -0.003970 0.187640 0.010038
v -0.006036 0.176829 0.029048
v 0.030440 0.184916 0.010098
v -0.006036 0.176829 0.029048
v 0.025598 0.174948 0.029026
v 0.025598 0.174948 0.029026
v -0.006036 0.176829 0.029048
v -0.007709 0.161709 0.046862
v 0.025598 0.174948 0.029026
v -0.007709 0.161709 0.046862
v 0.021279 0.160799 0.046659
v 0.021279 0.160799 0.046659
v -0.007709 0.161709 0.046862
v -0.008398 0.142450 0.062359
v 0.021279 0.160799 0.046659
v -0.008398 0.142450 0.062359
v 0.018864 0.142535 0.061870
v 0.049277 0.155005 0.045895
v 0.021279 0.160799 0.046659
v 0.018864 0.142535 0.061870
v 0.049277 0.155005 0.045895
v 0.018864 0.142535 0.061870
v 0.045229 0.138841 0.060141
v 0.074863 0.144921 0.044494
v 0.049277 0.155005 0.045895
v 0.045229 0.138841 0.060141
v 0.074863 0.144921 0.044494
v 0.045229 0.138841 0.060141
v 0.069123 0.132326 0.056873
v 0.096131 0.130673 0.043778
v 0.074863 0.144921 0.044494
v 0.069123 0.132326 0.056873
v 0.096131 0.130673 0.043778
v 0.069123 0.132326 0.056873
v 0.086136 0.125699 0.053305
v 0.109161 0.135621 0.028928
v 0.084516 0.153958 0.028758
v 0.074863 0.144921 0.044494
v 0.109161 0.135621 0.028928
v 0.074863 0.144921 0.044494
v 0.096131 0.130673 0.043778
v 0.121459 0.138838 0.011129
v 0.094477 0.160006 0.010630
v 0.084516 0.153958 0.028758
v 0.121459 0.138838 0.011129
v 0.084516 0.153958 0.028758
v 0.109161 0.135621 0.028928
v -0.037454 0.175063 -0.056586
v -0.072393 0.165027 -0.055850
v -0.073649 0.175815 -0.042754
v -0.037454 0.175063 -0.056586
v -0.073649 0.175815 -0.042754
v -0.037902 0.186899 -0.043194
v -0.072393 0.165027 -0.055850
v -0.102549 0.149766 -0.054388
v -0.105724 0.158391 -0.041972
v -0.072393 0.165027 -0.055850
v -0.105724 0.158391 -0.041972
v -0.073649 0.175815 -0.042754
v -0.037902 0.186899 -0.043194
v -0.073649 0.175815 -0.042754
v -0.074306 0.179923 -0.026716
v -0.037902 0.186899 -0.043194
v -0.074306 0.179923 -0.026716
v -0.038390 0.191359 -0.027026
v -0.073649 0.175815 -0.042754
v -0.105724 0.158391 -0.041972
v -0.107099 0.161818 -0.026214
v -0.073649 0.175815 -0.042754
v -0.107099 0.161818 -0.026214
v -0.074306 0.179923 -0.026716
v -0.000001 0.157620 -0.066571
v -0.037479 0.154454 -0.066371
v -0.037454 0.175063 -0.056586
v -0.000001 0.157620 -0.066571
v -0.037454 0.175063 -0.056586
v -0.000034 0.178698 -0.056747
v -0.037479 0.154454 -0.066371
v -0.072087 0.146048 -0.065319
v -0.072393 0.165027 -0.055850
v -0.037479 0.154454 -0.066371
v -0.072393 0.165027 -0.055850
v -0.037454 0.175063 -0.056586
v -0.072087 0.146048 -0.065319
v -0.100913 0.134340 -0.062953
v -0.102549 0.149766 -0.054388
v -0.072087 0.146048 -0.065319
v -0.102549 0.149766 -0.054388
v -0.072393 0.165027 -0.055850
v -0.100913 0.134340 -0.062953
v -0.119552 0.123665 -0.060113
v -0.126490 0.129684 -0.053132
v -0.100913 0.134340 -0.062953
v -0.126490 0.129684 -0.053132
v -0.102549 0.149766 -0.054388
v -0.102549 0.149766 -0.054388
v -0.126490 0.129684 -0.053132
v -0.132748 0.135118 -0.041178
v -0.102549 0.149766 -0.054388
v -0.132748 0.135118 -0.041178
v -0.105724 0.158391 -0.041972
v -0.105724 0.158391 -0.041972
v -0.132748 0.135118 -0.041178
v -0.135281 0.137689 -0.025577
v -0.105724 0.158391 -0.041972
v -0.135281 0.137689 -0.025577
v -0.107099 0.161818 -0.026214
v -0.107099 0.161818 -0.026214
v -0.135281 0.137689 -0.025577
v -0.133391 0.137036 -0.007604
v -0.107099 0.161818 -0.026214
v -0.133391 0.137036 -0.007604
v -0.105630 0.160704 -0.008204
v -0.074306 0.179923 -0.026716
v -0.107099 0.161818 -0.026214
v -0.105630 0.160704 -0.008204
v -0.074306 0.179923 -0.026716
v -0.105630 0.160704 -0.008204
v -0.073555 0.178498 -0.008656
v -0.038390 0.191359 -0.027026
v -0.074306 0.179923 -0.026716
v -0.073555 0.178498 -0.008656
v -0.038390 0.191359 -0.027026
v -0.073555 0.178498 -0.008656
v -0.038575 0.189794 -0.008942
v -0.000887 0.195441 -0.027132
v -0.038390 0.191359 -0.027026
v -0.038575 0.189794 -0.008942
v -0.000887 0.195441 -0.027132
v -0.038575 0.189794 -0.008942
v -0.002100 0.193971 -0.009048
v -0.000264 0.190827 -0.043316
v -0.037902 0.186899 -0.043194
v -0.038390 0.191359 -0.027026
v -0.000264 0.190827 -0.043316
v -0.038390 0.191359 -0.027026
v -0.000887 0.195441 -0.027132
v -0.000034 0.178698 -0.056747
v -0.037454 0.175063 -0.056586
v -0.037902 0.186899 -0.043194
v -0.000034 0.178698 -0.056747
v -0.037902 0.186899 -0.043194
v -0.000264 0.190827 -0.043316
v -0.038222 0.183360 0.010138
v -0.071020 0.172487 0.010377
v -0.067329 0.162396 0.029057
v -0.038222 0.183360 0.010138
v -0.067329 0.162396 0.029057
v -0.037429 0.172477 0.029089
v -0.071020 0.172487 0.010377
v -0.101068 0.155604 0.010741
v -0.094487 0.147206 0.028929
v -0.071020 0.172487 0.010377
v -0.094487 0.147206 0.028929
v -0.067329 0.162396 0.029057
v -0.037429 0.172477 0.029089
v -0.067329 0.162396 0.029057
v -0.063439 0.148518 0.046059
v -0.037429 0.172477 0.029089
v -0.063439 0.148518 0.046059
v -0.036383 0.157365 0.046747
v -0.067329 0.162396 0.029057
v -0.094487 0.147206 0.028929
v -0.087504 0.136046 0.044719
v -0.067329 0.162396 0.029057
v -0.087504 0.136046 0.044719
v -0.063439 0.148518 0.046059
v -0.002100 0.193971 -0.009048
v -0.038575 0.189794 -0.008942
v -0.038222 0.183360 0.010138
v -0.002100 0.193971 -0.009048
v -0.038222 0.183360 0.010138
v -0.003970 0.187640 0.010038
v -0.038575 0.189794 -0.008942
v -0.073555 0.178498 -0.008656
v -0.071020 0.172487 0.010377
v -0.038575 0.189794 -0.008942
v -0.071020 0.172487 0.010377
v -0.038222 0.183360 0.010138
v -0.073555 0.178498 -0.008656
v -0.105630 0.160704 -0.008204
v -0.101068 0.155604 0.010741
v -0.073555 0.178498 -0.008656
v -0.101068 0.155604 0.010741
v -0.071020 0.172487 0.010377
v -0.105630 0.160704 -0.008204
v -0.133391 0.137036 -0.007604
v -0.127071 0.133249 0.011271
v -0.105630 0.160704 -0.008204
v -0.127071 0.133249 0.011271
v -0.101068 0.155604 0.010741
v -0.101068 0.155604 0.010741
v -0.127071 0.133249 0.011271
v -0.117657 0.127159 0.029142
v -0.101068 0.155604 0.010741
v -0.117657 0.127159 0.029142
v -0.094487 0.147206 0.028929
v -0.094487 0.147206 0.028929
v -0.117657 0.127159 0.029142
v -0.106955 0.119890 0.044051
v -0.094487 0.147206 0.028929
v -0.106955 0.119890 0.044051
v -0.087504 0.136046 0.044719
v -0.087504 0.136046 0.044719
v -0.106955 0.119890 0.044051
v -0.098199 0.113681 0.053610
v -0.087504 0.136046 0.044719
v -0.098199 0.113681 0.053610
v -0.082856 0.121589 0.057146
v -0.063439 0.148518 0.046059
v -0.087504 0.136046 0.044719
v -0.082856 0.121589 0.057146
v -0.063439 0.148518 0.046059
v -0.082856 0.121589 0.057146
v -0.060637 0.130749 0.060346
v -0.036383 0.157365 0.046747
v -0.063439 0.148518 0.046059
v -0.060637 0.130749 0.060346
v -0.036383 0.157365 0.046747
v -0.060637 0.130749 0.060346
v -0.035316 0.138195 0.061980
v -0.007709 0.161709 0.046862
v -0.036383 0.157365 0.046747
v -0.035316 0.138195 0.061980
v -0.007709 0.161709 0.046862
v -0.035316 0.138195 0.061980
v -0.008398 0.142450 0.062359
v -0.006036 0.176829 0.029048
v -0.037429 0.172477 0.029089
v -0.036383 0.157365 0.046747
v -0.006036 0.176829 0.029048
v -0.036383 0.157365 0.046747
v -0.007709 0.161709 0.046862
v -0.003970 0.187640 0.010038
v -0.038222 0.183360 0.010138
v -0.037429 0.172477 0.029089
v -0.003970 0.187640 0.010038
v -0.037429 0.172477 0.029089
v -0.006036 0.176829 0.029048
f 1 2 3
f 4 5 6
f 7 8 9
f 10 11 12
f 13 14 15
f 16 17 18
f 19 20 21
f 22 23 24
f 25 26 27
f 28 29 30
f 31 32 33
f 34 35 36
f 37 38 39
f 40 41 42
f 43 44 45
f 46 47 48
f 49 50 51
f 52 53 54
f 55 56 57
f 58 59 60
f 61 62 63
f 64 65 66
f 67 68 69
f 70 71 72
f 73 74 75
f 76 77 78
f 79 80 81
f 82 83 84
f 85 86 87
f 88 89 90
f 91 92 93
f 94 95 96
f 97 98 99
f 100 101 102
f 103 104 105
f 106 107 108
f 109 110 111
f 112 113 114
f 115 116 117
f 118 119 120
f 121 122 123
f 124 125 126
f 127 128 129
f 130 131 132
f 133 134 135
f 136 137 138
f 139 140 141
f 142 143 144
f 145 146 147
f 148 149 150
f 151 152 153
f 154 155 156
f 157 158 159
f 160 161 162
f 163 164 165
f 166 167 168
f 169 170 171
f 172 173 174
f 175 176 177
f 178 179 180
f 181 182 183
f 184 185 186
f 187 188 189
f 190 191 192
f 193 194 195
f 196 197 198
f 199 200 201
f 202 203 204
f 205 206 207
f 208 209 210
f 211 212 213
f 214 215 216
f 217 218 219
f 220 221 222
f 223 224 225
f 226 227 228
f 229 230 231
f 232 233 234
f 235 236 237
f 238 239 240
f 241 242 243
f 244 245 246
f 247 248 249
f 250 251 252
f 253 254 255
f 256 257 258
f 259 260 261
f 262 263 264
f 265 266 267
f 268 269 270
f 271 272 273
f 274 275 276
f 277 278 279
f 280 281 282
f 283 284 285
f 286 287 288
f 289 290 291
f 292 293 294
f 295 296 297
f 298 299 300
f 301 302 303
f 304 305 306
f 307 308 309
f 310 311 312
f 313 314 315
f 316 317 318
f 319 320 321
f 322 323 324
f 325 326 327
f 328 329 330
f 331 332 333
f 334 335 336
f 337 338 339
f 340 341 342
f 343 344 345
f 346 347 348
f 349 350 351
f 352 353 354
f 355 356 357
f 358 359 360
f 361 362 363
f 364 365 366
f 367 368 369
f 370 371 372
f 373 374 375
f 376 377 378
f 379 380 381
f 382 383 384
f 385 386 387
f 388 389 390
f 391 392 393
f 394 395 396
f 397 398 399
f 400 401 402
f 403 404 405
f 406 407 408
f 409 410 411
f 412 413 414
f 415 416 417
f 418 419 420
f 421 422 423
f 424 425 426
f 427 428 429
f 430 431 432
f 433 434 435
f 436 437 438
f 439 440 441
f 442 443 444
f 445 446 447
f 448 449 450
f 451 452 453
f 454 455 456
f 457 458 459
f 460 461 462
f 463 464 465
f 466 467 468
f 469 470 471
f 472 473 474
f 475 476 477
f 478 479 480
f 481 482 483
f 484 485 486
f 487 488 489
f 490 491 492
f 493 494 495
f 496 497 498
f 499 500 501
f 502 503 504
f 505 506 507
f 508 509 510
f 511 512 513
f 514 515 516
f 517 518 519
f 520 521 522
f 523 524 525
f 526 527 528
f 529 530 531
f 532 533 534
f 535 536 537
f 538 539 540
f 541 542 543
f 544 545 546
f 547 548 549
f 550 551 552
f 553 554 555
f 556 557 558
f 559 560 561
f 562 563 564
f 565 566 567
f 568 569 570
f 571 572 573
f 574 575 576
f 577 578 579
f 580 581 582
f 583 584 585
f 586 587 588
f 589 590 591
f 592 593 594
f 595 596 597
f 598 599 600
f 601 602 603
f 604 605 606
f 607 608 609
f 610 611 612
f 613 614 615
f 616 617 618
f 619 620 621
f 622 623 624
f 625 626 627
f 628 629 630
f 631 632 633
f 634 635 636
f 637 638 639
f 640 641 642
f 643 644 645
f 646 647 648
f 649 650 651
f 652 653 654
f 655 656 657
f 658 659 660
f 661 662 663
f 664 665 666
f 667 668 669
f 670 671 672
f 673 674 675
f 676 677 678
f 679 680 681
f 682 683 684
f 685 686 687
f 688 689 690
f 691 692 693
f 694 695 696
f 697 698 699
f 700 701 702
f 703 704 705
f 706 707 708
f 709 710 711
f 712 713 714
f 715 716 717
f 718 719 720
f 721 722 723
f 724 725 726
f 727 728 729
f 730 731 732
f 733 734 735
f 736 737 738
f 739 740 741
f 742 743 744
f 745 746 747
f 748 749 750
f 751 752 753
f 754 755 756
f 757 758 759
f 760 761 762
f 763 764 765
f 766 767 768
f 769 770 771
f 772 773 774
f 775 776 777
f 778 779 780
f 781 782 783
f 784 785 786
f 787 788 789
f 790 791 792
f 793 794 795
f 796 797 798
f 799 800 801
f 802 803 804
f 805 806 807
f 808 809 810
f 811 812 813
f 814 815 816
f 817 818 819
f 820 821 822
f 823 824 825
f 826 827 828
f 829 830 831
f 832 833 834
f 835 836 837
f 838 839 840
f 841 842 843
f 844 845 846
f 847 848 849
f 850 851 852
f 853 854 855
f 856 857 858
f 859 860 861
f 862 863 864
f 865 866 867
f 868 869 870
f 871 872 873
f 874 875 876
f 877 878 879
f 880 881 882
f 883 884 885
f 886 887 888
f 889 890 891
f 892 893 894
f 895 896 897
f 898 899 900
f 901 902 903
f 904 905 906
f 907 908 909
f 910 911 912
f 913 914 915
f 916 917 918
f 919 920 921
f 922 923 924
f 925 926 927
f 928 929 930
f 931 932 933
f 934 935 936
f 937 938 939
f 940 941 942
f 943 944 945
f 946 947 948
f 949 950 951
f 952 953 954
f 955 956 957
f 958 959 960
f 961 962 963
f 964 965 966
f 967 968 969
f 970 971 972
f 973 974 975
f 976 977 978
f 979 980 981
f 982 983 984
f 985 986 987
f 988 989 990
f 991 992 993
f 994 995 996
f 997 998 999
f 1000 1001 1002
f 1003 1004 1005
f 1006 1007 1008
f 1009 1010 1011
f 1012 1013 1014
f 1015 1016 1017
f 1018 1019 1020
f 1021 1022 1023
f 1024 1025 1026
f 1027 1028 1029
f 1030 1031 1032
f 1033 1034 1035
f 1036 1037 1038
f 1039 1040 1041
f 1042 1043 1044
f 1045 1046 1047
f 1048 1049 1050
f 1051 1052 1053
f 1054 1055 1056
f 1057 1058 1059
f 1060 1061 1062
f 1063 1064 1065
f 1066 1067 1068
f 1069 1070 1071
f 1072 1073 1074
f 1075 1076 1077
f 1078 1079 1080
f 1081 1082 1083
f 1084 1085 1086
f 1087 1088 1089
f 1090 1091 1092
f 1093 1094 1095
f 1096 1097 1098
f 1099 1100 1101
f 1102 1103 1104
f 1105 1106 1107
f 1108 1109 1110
f 1111 1112 1113
f 1114 1115 1116
f 1117 1118 1119
f 1120 1121 1122
f 1123 1124 1125
f 1126 1127 1128
f 1129 1130 1131
f 1132 1133 1134
f 1135 1136 1137
f 1138 1139 1140
f 1141 1142 1143
f 1144 1145 1146
f 1147 1148 1149
f 1150 1151 1152
f 1153 1154 1155
f 1156 1157 1158
f 1159 1160 1161
f 1162 1163 1164
f 1165 1166 1167
f 1168 1169 1170
f 1171 1172 1173
f 1174 1175 1176
f 1177 1178 1179
f 1180 1181 1182
f 1183 1184 1185
f 1186 1187 1188
f 1189 1190 1191
f 1192 1193 1194
f 1195 1196 1197
f 1198 1199 1200
f 1201 1202 1203
f 1204 1205 1206
f 1207 1208 1209
f 1210 1211 1212
f 1213 1214 1215
f 1216 1217 1218
f 1219 1220 1221
f 1222 1223 1224
f 1225 1226 1227
f 1228 1229 1230
f 1231 1232 1233
f 1234 1235 1236
f 1237 1238 1239
f 1240 1241 1242
f 1243 1244 1245
f 1246 1247 1248
f 1249 1250 1251
f 1252 1253 1254
f 1255 1256 1257
f 1258 1259 1260
f 1261 1262 1263
f 1264 1265 1266
f 1267 1268 1269
f 1270 1271 1272
f 1273 1274 1275
f 1276 1277 1278
f 1279 1280 1281
f 1282 1283 1284
f 1285 1286 1287
f 1288 1289 1290
f 1291 1292 1293
f 1294 1295 1296
f 1297 1298 1299
f 1300 1301 1302
f 1303 1304 1305
f 1306 1307 1308
f 1309 1310 1311
f 1312 1313 1314
f 1315 1316 1317
f 1318 1319 1320
f 1321 1322 1323
f 1324 1325 1326
f 1327 1328 1329
f 1330 1331 1332
f 1333 1334 1335
f 1336 1337 1338
f 1339 1340 1341
f 1342 1343 1344
f 1345 1346 1347
f 1348 1349 1350
f 1351 1352 1353
f 1354 1355 1356
f 1357 1358 1359
f 1360 1361 1362
f 1363 1364 1365
f 1366 1367 1368
f 1369 1370 1371
f 1372 1373 1374
f 1375 1376 1377
f 1378 1379 1380
f 1381 1382 1383
f 1384 1385 1386
f 1387 1388 1389
f 1390 1391 1392
f 1393 1394 1395
f 1396 1397 1398
f 1399 1400 1401
f 1402 1403 1404
f 1405 1406 1407
f 1408 1409 1410
f 1411 1412 1413
f 1414 1415 1416
f 1417 1418 1419
f 1420 1421 1422
f 1423 1424 1425
f 1426 1427 1428
f 1429 1430 1431
f 1432 1433 1434
f 1435 1436 1437
f 1438 1439 1440
f 1441 1442 1443
f 1444 1445 1446
f 1447 1448 1449
f 1450 1451 1452
f 1453 1454 1455
f 1456 1457 1458
f 1459 1460 1461
f 1462 1463 1464
f 1465 1466 1467
f 1468 1469 1470
f 1471 1472 1473
f 1474 1475 1476
f 1477 1478 1479
f 1480 1481 1482
f 1483 1484 1485
f 1486 1487 1488
f 1489 1490 1491
f 1492 1493 1494
f 1495 1496 1497
f 1498 1499 1500
f 1501 1502 1503
f 1504 1505 1506
f 1507 1508 1509
f 1510 1511 1512
f 1513 1514 1515
f 1516 1517 1518
f 1519 1520 1521
f 1522 1523 1524
f 1525 1526 1527
f 1528 1529 1530
f 1531 1532 1533
f 1534 1535 1536
f 1537 1538 1539
f 1540 1541 1542
f 1543 1544 1545
f 1546 1547 1548
f 1549 1550 1551
f 1552 1553 1554
f 1555 1556 1557
f 1558 1559 1560
f 1561 1562 1563
f 1564 1565 1566
f 1567 1568 1569
f 1570 1571 1572
f 1573 1574 1575
f 1576 1577 1578
f 1579 1580 1581
f 1582 1583 1584
f 1585 1586 1587
f 1588 1589 1590
f 1591 1592 1593
f 1594 1595 1596
f 1597 1598 1599
f 1600 1601 1602
f 1603 1604 1605
f 1606 1607 1608
f 1609 1610 1611
f 1612 1613 1614
f 1615 1616 1617
f 1618 1619 1620
f 1621 1622 1623
f 1624 1625 1626
f 1627 1628 1629
f 1630 1631 1632
f 1633 1634 1635
f 1636 1637 1638
f 1639 1640 1641
f 1642 1643 1644
f 1645 1646 1647
f 1648 1649 1650
f 1651 1652 1653
f 1654 1655 1656
f 1657 1658 1659
f 1660 1661 1662
f 1663 1664 1665
f 1666 1667 1668
f 1669 1670 1671
f 1672 1673 1674
f 1675 1676 1677
f 1678 1679 1680
f 1681 1682 1683
f 1684 1685 1686
f 1687 1688 1689
f 1690 1691 1692
f 1693 1694 1695
f 1696 1697 1698
f 1699 1700 1701
f 1702 1703 1704
f 1705 1706 1707
f 1708 1709 1710
f 1711 1712 1713
f 1714 1715 1716
f 1717 1718 1719
f 1720 1721 1722
f 1723 1724 1725
f 1726 1727 1728
f 1729 1730 1731
f 1732 1733 1734
f 1735 1736 1737
f 1738 1739 1740
f 1741 1742 1743
f 1744 1745 1746
f 1747 1748 1749
f 1750 1751 1752
f 1753 1754 1755
f 1756 1757 1758
f 1759 1760 1761
f 1762 1763 1764
f 1765 1766 1767
f 1768 1769 1770
f 1771 1772 1773
f 1774 1775 1776
f 1777 1778 1779
f 1780 1781 1782
f 1783 1784 1785
f 1786 1787 1788
f 1789 1790 1791
f 1792 1793 1794
f 1795 1796 1797
f 1798 1799 1800
f 1801 1802 1803
f 1804 1805 1806
f 1807 1808 1809
f 1810 1811 1812
f 1813 1814 1815
f 1816 1817 1818
f 1819 1820 1821
f 1822 1823 1824
f 1825 1826 1827
f 1828 1829 1830
f 1831 1832 1833
f 1834 1835 1836
f 1837 1838 1839
f 1840 1841 1842
f 1843 1844 1845
f 1846 1847 1848
f 1849 1850 1851
f 1852 1853 1854
f 1855 1856 1857
f 1858 1859 1860
f 1861 1862 1863
f 1864 1865 1866
f 1867 1868 1869
f 1870 1871 1872
f 1873 1874 1875
f 1876 1877 1878
f 1879 1880 1881
f 1882 1883 1884
f 1885 1886 1887
f 1888 1889 1890
f 1891 1892 1893
f 1894 1895 1896
f 1897 1898 1899
f 1900 1901 1902
f 1903 1904 1905
f 1906 1907 1908
f 1909 1910 1911
f 1912 1913 1914
f 1915 1916 1917
f 1918 1919 1920
f 1921 1922 1923
f 1924 1925 1926
f 1927 1928 1929
f 1930 1931 1932
f 1933 1934 1935
f 1936 1937 1938
f 1939 1940 1941
f 1942 1943 1944
f 1945 1946 1947
f 1948 1949 1950
f 1951 1952 1953
f 1954 1955 1956
f 1957 1958 1959
f 1960 1961 1962
f 1963 1964 1965
f 1966 1967 1968
f 1969 1970 1971
f 1972 1973 1974
f 1975 1976 1977
f 1978 1979 1980
f 1981 1982 1983
f 1984 1985 1986
f 1987 1988 1989
f 1990 1991 1992
f 1993 1994 1995
f 1996 1997 1998
f 1999 2000 2001
f 2002 2003 2004
f 2005 2006 2007
f 2008 2009 2010
f 2011 2012 2013
f 2014 2015 2016
f 2017 2018 2019
f 2020 2021 2022
f 2023 2024 2025
f 2026 2027 2028
f 2029 2030 2031
f 2032 2033 2034
f 2035 2036 2037
f 2038 2039 2040
f 2041 2042 2043
f 2044 2045 2046
f 2047 2048 2049
f 2050 2051 2052
f 2053 2054 2055
f 2056 2057 2058
f 2059 2060 2061
f 2062 2063 2064
f 2065 2066 2067
f 2068 2069 2070
f 2071 2072 2073
f 2074 2075 2076
f 2077 2078 2079
f 2080 2081 2082
f 2083 2084 2085
f 2086 2087 2088
f 2089 2090 2091
f 2092 2093 2094
f 2095 2096 2097
f 2098 2099 2100
f 2101 2102 2103
f 2104 2105 2106
f 2107 2108 2109
f 2110 2111 2112
f 2113 2114 2115
f 2116 2117 2118
f 2119 2120 2121
f 2122 2123 2124
f 2125 2126 2127
f 2128 2129 2130
f 2131 2132 2133
f 2134 2135 2136
f 2137 2138 2139
f 2140 2141 2142
f 2143 2144 2145
f 2146 2147 2148
f 2149 2150 2151
f 2152 2153 2154
f 2155 2156 2157
f 2158 2159 2160
f 2161 2162 2163
f 2164 2165 2166
f 2167 2168 2169
f 2170 2171 2172
f 2173 2174 2175
f 2176 2177 2178
f 2179 2180 2181
f 2182 2183 2184
f 2185 2186 2187
f 2188 2189 2190
f 2191 2192 2193
f 2194 2195 2196
f 2197 2198 2199
f 2200 2201 2202
f 2203 2204 2205
f 2206 2207 2208
f 2209 2210 2211
f 2212 2213 2214
f 2215 2216 2217
f 2218 2219 2220
f 2221 2222 2223
f 2224 2225 2226
f 2227 2228 2229
f 2230 2231 2232
f 2233 2234 2235
f 2236 2237 2238
f 2239 2240 2241
f 2242 2243 2244
f 2245 2246 2247
f 2248 2249 2250
f 2251 2252 2253
f 2254 2255 2256
f 2257 2258 2259
f 2260 2261 2262
f 2263 2264 2265
f 2266 2267 2268
f 2269 2270 2271
f 2272 2273 2274
f 2275 2276 2277
f 2278 2279 2280
f 2281 2282 2283
f 2284 2285 2286
f 2287 2288 2289
f 2290 2291 2292
f 2293 2294 2295
f 2296 2297 2298
f 2299 2300 2301
f 2302 2303 2304
