# lizard mesh
v 0.143969 0.127462 -0.054450
v 0.153693 0.129833 -0.041809
v 0.168538 0.090765 -0.042312
v 0.143969 0.127462 -0.054450
v 0.168538 0.090765 -0.042312
v 0.156280 0.090682 -0.055678
v 0.153693 0.129833 -0.041809
v 0.157601 0.128479 -0.025975
v 0.173689 0.088457 -0.026184
v 0.153693 0.129833 -0.041809
v 0.173689 0.088457 -0.026184
v 0.168538 0.090765 -0.042312
v 0.156280 0.090682 -0.055678
v 0.168538 0.090765 -0.042312
v 0.177454 0.048254 -0.042648
v 0.156280 0.090682 -0.055678
v 0.177454 0.048254 -0.042648
v 0.163762 0.048998 -0.056333
v 0.168538 0.090765 -0.042312
v 0.173689 0.088457 -0.026184
v 0.183401 0.045702 -0.026383
v 0.168538 0.090765 -0.042312
v 0.183401 0.045702 -0.026383
v 0.177454 0.048254 -0.042648
v 0.119549 0.149178 -0.060744
v 0.126488 0.157101 -0.053580
v 0.143969 0.127462 -0.054450
v 0.119549 0.149178 -0.060744
v 0.143969 0.127462 -0.054450
v 0.127979 0.126188 -0.063408
v 0.126488 0.157101 -0.053580
v 0.132747 0.163220 -0.041466
v 0.153693 0.129833 -0.041809
v 0.126488 0.157101 -0.053580
v 0.153693 0.129833 -0.041809
v 0.143969 0.127462 -0.054450
v 0.132747 0.163220 -0.041466
v 0.135284 0.163339 -0.025804
v 0.157601 0.128479 -0.025975
v 0.132747 0.163220 -0.041466
v 0.157601 0.128479 -0.025975
v 0.153693 0.129833 -0.041809
v 0.135284 0.163339 -0.025804
v 0.133402 0.156137 -0.007884
v 0.155616 0.121479 -0.008028
v 0.135284 0.163339 -0.025804
v 0.155616 0.121479 -0.008028
v 0.157601 0.128479 -0.025975
v 0.157601 0.128479 -0.025975
v 0.155616 0.121479 -0.008028
v 0.171774 0.081988 -0.008193
v 0.157601 0.128479 -0.025975
v 0.171774 0.081988 -0.008193
v 0.173689 0.088457 -0.026184
v 0.173689 0.088457 -0.026184
v 0.171774 0.081988 -0.008193
v 0.181546 0.040050 -0.008368
v 0.173689 0.088457 -0.026184
v 0.181546 0.040050 -0.008368
v 0.183401 0.045702 -0.026383
v 0.183401 0.045702 -0.026383
v 0.181546 0.040050 -0.008368
v 0.184600 -0.001947 -0.008543
v 0.183401 0.045702 -0.026383
v 0.184600 -0.001947 -0.008543
v 0.186562 0.002708 -0.026565
v 0.177454 0.048254 -0.042648
v 0.183401 0.045702 -0.026383
v 0.186562 0.002708 -0.026565
v 0.177454 0.048254 -0.042648
v 0.186562 0.002708 -0.026565
v 0.180411 0.005067 -0.042851
v 0.163762 0.048998 -0.056333
v 0.177454 0.048254 -0.042648
v 0.180411 0.005067 -0.042851
v 0.163762 0.048998 -0.056333
v 0.180411 0.005067 -0.042851
v 0.166287 0.005815 -0.056582
v 0.142351 0.049341 -0.066636
v 0.163762 0.048998 -0.056333
v 0.166287 0.005815 -0.056582
v 0.142351 0.049341 -0.066636
v 0.166287 0.005815 -0.056582
v 0.144331 0.005635 -0.066938
v 0.136656 0.090920 -0.065624
v 0.156280 0.090682 -0.055678
v 0.163762 0.048998 -0.056333
v 0.136656 0.090920 -0.065624
v 0.163762 0.048998 -0.056333
v 0.142351 0.049341 -0.066636
v 0.127979 0.126188 -0.063408
v 0.143969 0.127462 -0.054450
v 0.156280 0.090682 -0.055678
v 0.127979 0.126188 -0.063408
v 0.156280 0.090682 -0.055678
v 0.136656 0.090920 -0.065624
v 0.147912 0.108316 0.010727
v 0.135830 0.091739 0.028627
v 0.148744 0.056618 0.028993
v 0.147912 0.108316 0.010727
v 0.148744 0.056618 0.028993
v 0.163035 0.070596 0.010634
v 0.135830 0.091739 0.028627
v 0.120843 0.075545 0.044062
v 0.130339 0.043250 0.045583
v 0.135830 0.091739 0.028627
v 0.130339 0.043250 0.045583
v 0.148744 0.056618 0.028993
v 0.163035 0.070596 0.010634
v 0.148744 0.056618 0.028993
v 0.156352 0.019367 0.029126
v 0.163035 0.070596 0.010634
v 0.156352 0.019367 0.029126
v 0.172098 0.030658 0.010503
v 0.148744 0.056618 0.028993
v 0.130339 0.043250 0.045583
v 0.135864 0.008647 0.046350
v 0.148744 0.056618 0.028993
v 0.135864 0.008647 0.046350
v 0.156352 0.019367 0.029126
v 0.133402 0.156137 -0.007884
v 0.127094 0.141488 0.010829
v 0.147912 0.108316 0.010727
v 0.133402 0.156137 -0.007884
v 0.147912 0.108316 0.010727
v 0.155616 0.121479 -0.008028
v 0.127094 0.141488 0.010829
v 0.117692 0.122268 0.028460
v 0.135830 0.091739 0.028627
v 0.127094 0.141488 0.010829
v 0.135830 0.091739 0.028627
v 0.147912 0.108316 0.010727
v 0.117692 0.122268 0.028460
v 0.106998 0.102247 0.043096
v 0.120843 0.075545 0.044062
v 0.117692 0.122268 0.028460
v 0.120843 0.075545 0.044062
v 0.135830 0.091739 0.028627
v 0.106998 0.102247 0.043096
v 0.098244 0.087078 0.052431
v 0.103483 0.064804 0.056073
v 0.106998 0.102247 0.043096
v 0.103483 0.064804 0.056073
v 0.120843 0.075545 0.044062
v 0.120843 0.075545 0.044062
v 0.103483 0.064804 0.056073
v 0.108891 0.034036 0.059377
v 0.120843 0.075545 0.044062
v 0.108891 0.034036 0.059377
v 0.130339 0.043250 0.045583
v 0.130339 0.043250 0.045583
v 0.108891 0.034036 0.059377
v 0.112143 0.001012 0.061061
v 0.130339 0.043250 0.045583
v 0.112143 0.001012 0.061061
v 0.135864 0.008647 0.046350
v 0.135864 0.008647 0.046350
v 0.112143 0.001012 0.061061
v 0.111988 -0.031658 0.061412
v 0.135864 0.008647 0.046350
v 0.111988 -0.031658 0.061412
v 0.136724 -0.025751 0.046432
v 0.156352 0.019367 0.029126
v 0.135864 0.008647 0.046350
v 0.136724 -0.025751 0.046432
v 0.156352 0.019367 0.029126
v 0.136724 -0.025751 0.046432
v 0.158175 -0.017689 0.029041
v 0.172098 0.030658 0.010503
v 0.156352 0.019367 0.029126
v 0.158175 -0.017689 0.029041
v 0.172098 0.030658 0.010503
v 0.158175 -0.017689 0.029041
v 0.174686 -0.009184 0.010346
v 0.181546 0.040050 -0.008368
v 0.172098 0.030658 0.010503
v 0.174686 -0.009184 0.010346
v 0.181546 0.040050 -0.008368
v 0.174686 -0.009184 0.010346
v 0.184600 -0.001947 -0.008543
v 0.171774 0.081988 -0.008193
v 0.163035 0.070596 0.010634
v 0.172098 0.030658 0.010503
v 0.171774 0.081988 -0.008193
v 0.172098 0.030658 0.010503
v 0.181546 0.040050 -0.008368
v 0.155616 0.121479 -0.008028
v 0.147912 0.108316 0.010727
v 0.163035 0.070596 0.010634
v 0.155616 0.121479 -0.008028
v 0.163035 0.070596 0.010634
v 0.171774 0.081988 -0.008193
v 0.163749 -0.035538 -0.056686
v 0.177352 -0.036194 -0.043001
v 0.168336 -0.074118 -0.043000
v 0.163749 -0.035538 -0.056686
v 0.168336 -0.074118 -0.043000
v 0.156254 -0.073001 -0.056360
v 0.177352 -0.036194 -0.043001
v 0.183054 -0.038292 -0.026733
v 0.173008 -0.076187 -0.026871
v 0.177352 -0.036194 -0.043001
v 0.173008 -0.076187 -0.026871
v 0.168336 -0.074118 -0.043000
v 0.156254 -0.073001 -0.056360
v 0.168336 -0.074118 -0.043000
v 0.153400 -0.107697 -0.042800
v 0.156254 -0.073001 -0.056360
v 0.153400 -0.107697 -0.042800
v 0.143933 -0.104998 -0.055419
v 0.168336 -0.074118 -0.043000
v 0.173008 -0.076187 -0.026871
v 0.156612 -0.110161 -0.026970
v 0.168336 -0.074118 -0.043000
v 0.156612 -0.110161 -0.026970
v 0.153400 -0.107697 -0.042800
v 0.144331 0.005635 -0.066938
v 0.166287 0.005815 -0.056582
v 0.163749 -0.035538 -0.056686
v 0.144331 0.005635 -0.066938
v 0.163749 -0.035538 -0.056686
v 0.142351 -0.036363 -0.066993
v 0.166287 0.005815 -0.056582
v 0.180411 0.005067 -0.042851
v 0.177352 -0.036194 -0.043001
v 0.166287 0.005815 -0.056582
v 0.177352 -0.036194 -0.043001
v 0.163749 -0.035538 -0.056686
v 0.180411 0.005067 -0.042851
v 0.186562 0.002708 -0.026565
v 0.183054 -0.038292 -0.026733
v 0.180411 0.005067 -0.042851
v 0.183054 -0.038292 -0.026733
v 0.177352 -0.036194 -0.043001
v 0.186562 0.002708 -0.026565
v 0.184600 -0.001947 -0.008543
v 0.180723 -0.041888 -0.008710
v 0.186562 0.002708 -0.026565
v 0.180723 -0.041888 -0.008710
v 0.183054 -0.038292 -0.026733
v 0.183054 -0.038292 -0.026733
v 0.180723 -0.041888 -0.008710
v 0.170160 -0.078739 -0.008863
v 0.183054 -0.038292 -0.026733
v 0.170160 -0.078739 -0.008863
v 0.173008 -0.076187 -0.026871
v 0.173008 -0.076187 -0.026871
v 0.170160 -0.078739 -0.008863
v 0.153271 -0.111739 -0.009001
v 0.173008 -0.076187 -0.026871
v 0.153271 -0.111739 -0.009001
v 0.156612 -0.110161 -0.026970
v 0.156612 -0.110161 -0.026970
v 0.153271 -0.111739 -0.009001
v 0.130418 -0.140126 -0.009119
v 0.156612 -0.110161 -0.026970
v 0.130418 -0.140126 -0.009119
v 0.134025 -0.139449 -0.027067
v 0.153400 -0.107697 -0.042800
v 0.156612 -0.110161 -0.026970
v 0.134025 -0.139449 -0.027067
v 0.153400 -0.107697 -0.042800
v 0.134025 -0.139449 -0.027067
v 0.132374 -0.136330 -0.042716
v 0.143933 -0.104998 -0.055419
v 0.153400 -0.107697 -0.042800
v 0.132374 -0.136330 -0.042716
v 0.143933 -0.104998 -0.055419
v 0.132374 -0.136330 -0.042716
v 0.126441 -0.130827 -0.054781
v 0.127979 -0.105020 -0.064372
v 0.143933 -0.104998 -0.055419
v 0.126441 -0.130827 -0.054781
v 0.127979 -0.105020 -0.064372
v 0.126441 -0.130827 -0.054781
v 0.119549 -0.124910 -0.061887
v 0.136656 -0.074054 -0.066312
v 0.156254 -0.073001 -0.056360
v 0.143933 -0.104998 -0.055419
v 0.136656 -0.074054 -0.066312
v 0.143933 -0.104998 -0.055419
v 0.127979 -0.105020 -0.064372
v 0.142351 -0.036363 -0.066993
v 0.163749 -0.035538 -0.056686
v 0.156254 -0.073001 -0.056360
v 0.142351 -0.036363 -0.066993
v 0.156254 -0.073001 -0.056360
v 0.136656 -0.074054 -0.066312
v 0.170526 -0.046889 0.010180
v 0.153856 -0.052517 0.028826
v 0.143932 -0.084111 0.028407
v 0.170526 -0.046889 0.010180
v 0.143932 -0.084111 0.028407
v 0.159961 -0.081485 0.010000
v 0.153856 -0.052517 0.028826
v 0.132398 -0.057835 0.046073
v 0.123794 -0.086411 0.045042
v 0.153856 -0.052517 0.028826
v 0.123794 -0.086411 0.045042
v 0.143932 -0.084111 0.028407
v 0.159961 -0.081485 0.010000
v 0.143932 -0.084111 0.028407
v 0.129017 -0.111769 0.027778
v 0.159961 -0.081485 0.010000
v 0.129017 -0.111769 0.027778
v 0.143469 -0.112271 0.009807
v 0.143932 -0.084111 0.028407
v 0.123794 -0.086411 0.045042
v 0.111892 -0.110566 0.043286
v 0.143932 -0.084111 0.028407
v 0.111892 -0.110566 0.043286
v 0.129017 -0.111769 0.027778
v 0.184600 -0.001947 -0.008543
v 0.174686 -0.009184 0.010346
v 0.170526 -0.046889 0.010180
v 0.184600 -0.001947 -0.008543
v 0.170526 -0.046889 0.010180
v 0.180723 -0.041888 -0.008710
v 0.174686 -0.009184 0.010346
v 0.158175 -0.017689 0.029041
v 0.153856 -0.052517 0.028826
v 0.174686 -0.009184 0.010346
v 0.153856 -0.052517 0.028826
v 0.170526 -0.046889 0.010180
v 0.158175 -0.017689 0.029041
v 0.136724 -0.025751 0.046432
v 0.132398 -0.057835 0.046073
v 0.158175 -0.017689 0.029041
v 0.132398 -0.057835 0.046073
v 0.153856 -0.052517 0.028826
v 0.136724 -0.025751 0.046432
v 0.111988 -0.031658 0.061412
v 0.107767 -0.061963 0.060798
v 0.136724 -0.025751 0.046432
v 0.107767 -0.061963 0.060798
v 0.132398 -0.057835 0.046073
v 0.132398 -0.057835 0.046073
v 0.107767 -0.061963 0.060798
v 0.100732 -0.088634 0.058865
v 0.132398 -0.057835 0.046073
v 0.100732 -0.088634 0.058865
v 0.123794 -0.086411 0.045042
v 0.123794 -0.086411 0.045042
v 0.100732 -0.088634 0.058865
v 0.092662 -0.110441 0.055342
v 0.123794 -0.086411 0.045042
v 0.092662 -0.110441 0.055342
v 0.111892 -0.110566 0.043286
v 0.111892 -0.110566 0.043286
v 0.092662 -0.110441 0.055342
v 0.086136 -0.124542 0.051548
v 0.111892 -0.110566 0.043286
v 0.086136 -0.124542 0.051548
v 0.096131 -0.129716 0.042129
v 0.129017 -0.111769 0.027778
v 0.111892 -0.110566 0.043286
v 0.096131 -0.129716 0.042129
v 0.129017 -0.111769 0.027778
v 0.096131 -0.129716 0.042129
v 0.109161 -0.134978 0.027387
v 0.143469 -0.112271 0.009807
v 0.129017 -0.111769 0.027778
v 0.109161 -0.134978 0.027387
v 0.143469 -0.112271 0.009807
v 0.109161 -0.134978 0.027387
v 0.121459 -0.138571 0.009661
v 0.153271 -0.111739 -0.009001
v 0.143469 -0.112271 0.009807
v 0.121459 -0.138571 0.009661
v 0.153271 -0.111739 -0.009001
v 0.121459 -0.138571 0.009661
v 0.130418 -0.140126 -0.009119
v 0.170160 -0.078739 -0.008863
v 0.159961 -0.081485 0.010000
v 0.143469 -0.112271 0.009807
v 0.170160 -0.078739 -0.008863
v 0.143469 -0.112271 0.009807
v 0.153271 -0.111739 -0.009001
v 0.180723 -0.041888 -0.008710
v 0.170526 -0.046889 0.010180
v 0.159961 -0.081485 0.010000
v 0.180723 -0.041888 -0.008710
v 0.159961 -0.081485 0.010000
v 0.170160 -0.078739 -0.008863
v 0.083131 0.063857 0.064401
v 0.059846 0.068328 0.069793
v 0.059930 0.033735 0.076519
v 0.083131 0.063857 0.064401
v 0.059930 0.033735 0.076519
v 0.085269 0.031498 0.069639
v 0.059846 0.068328 0.069793
v 0.034392 0.073863 0.072681
v 0.033258 0.037889 0.080387
v 0.059846 0.068328 0.069793
v 0.033258 0.037889 0.080387
v 0.059930 0.033735 0.076519
v 0.085269 0.031498 0.069639
v 0.059930 0.033735 0.076519
v 0.059514 -0.000656 0.080227
v 0.085269 0.031498 0.069639
v 0.059514 -0.000656 0.080227
v 0.086502 -0.001732 0.072366
v 0.059930 0.033735 0.076519
v 0.033258 0.037889 0.080387
v 0.031573 0.002467 0.084820
v 0.059930 0.033735 0.076519
v 0.031573 0.002467 0.084820
v 0.059514 -0.000656 0.080227
v 0.098244 0.087078 0.052431
v 0.082902 0.093839 0.056194
v 0.083131 0.063857 0.064401
v 0.098244 0.087078 0.052431
v 0.083131 0.063857 0.064401
v 0.103483 0.064804 0.056073
v 0.082902 0.093839 0.056194
v 0.060681 0.102251 0.059661
v 0.059846 0.068328 0.069793
v 0.082902 0.093839 0.056194
v 0.059846 0.068328 0.069793
v 0.083131 0.063857 0.064401
v 0.060681 0.102251 0.059661
v 0.035349 0.109576 0.061514
v 0.034392 0.073863 0.072681
v 0.060681 0.102251 0.059661
v 0.034392 0.073863 0.072681
v 0.059846 0.068328 0.069793
v 0.035349 0.109576 0.061514
v 0.008414 0.113913 0.062019
v 0.007690 0.077938 0.073536
v 0.035349 0.109576 0.061514
v 0.007690 0.077938 0.073536
v 0.034392 0.073863 0.072681
v 0.034392 0.073863 0.072681
v 0.007690 0.077938 0.073536
v 0.005784 0.041682 0.081605
v 0.034392 0.073863 0.072681
v 0.005784 0.041682 0.081605
v 0.033258 0.037889 0.080387
v 0.033258 0.037889 0.080387
v 0.005784 0.041682 0.081605
v 0.003089 0.005936 0.086321
v 0.033258 0.037889 0.080387
v 0.003089 0.005936 0.086321
v 0.031573 0.002467 0.084820
v 0.031573 0.002467 0.084820
v 0.003089 0.005936 0.086321
v 0.000001 -0.028509 0.087779
v 0.031573 0.002467 0.084820
v 0.000001 -0.028509 0.087779
v 0.029017 -0.031567 0.086164
v 0.059514 -0.000656 0.080227
v 0.031573 0.002467 0.084820
v 0.029017 -0.031567 0.086164
v 0.059514 -0.000656 0.080227
v 0.029017 -0.031567 0.086164
v 0.057624 -0.033784 0.081290
v 0.086502 -0.001732 0.072366
v 0.059514 -0.000656 0.080227
v 0.057624 -0.033784 0.081290
v 0.086502 -0.001732 0.072366
v 0.057624 -0.033784 0.081290
v 0.085417 -0.034150 0.073068
v 0.112143 0.001012 0.061061
v 0.086502 -0.001732 0.072366
v 0.085417 -0.034150 0.073068
v 0.112143 0.001012 0.061061
v 0.085417 -0.034150 0.073068
v 0.111988 -0.031658 0.061412
v 0.108891 0.034036 0.059377
v 0.085269 0.031498 0.069639
v 0.086502 -0.001732 0.072366
v 0.108891 0.034036 0.059377
v 0.086502 -0.001732 0.072366
v 0.112143 0.001012 0.061061
v 0.103483 0.064804 0.056073
v 0.083131 0.063857 0.064401
v 0.085269 0.031498 0.069639
v 0.103483 0.064804 0.056073
v 0.085269 0.031498 0.069639
v 0.108891 0.034036 0.059377
v -0.019325 0.078972 0.072702
v -0.045725 0.077848 0.069832
v -0.049284 0.044353 0.076564
v -0.019325 0.078972 0.072702
v -0.049284 0.044353 0.076564
v -0.021924 0.043569 0.080411
v -0.045725 0.077848 0.069832
v -0.070532 0.076423 0.064454
v -0.075730 0.045578 0.069698
v -0.045725 0.077848 0.069832
v -0.075730 0.045578 0.069698
v -0.049284 0.044353 0.076564
v -0.021924 0.043569 0.080411
v -0.049284 0.044353 0.076564
v -0.053821 0.010642 0.080274
v -0.021924 0.043569 0.080411
v -0.053821 0.010642 0.080274
v -0.025520 0.008502 0.084845
v -0.049284 0.044353 0.076564
v -0.075730 0.045578 0.069698
v -0.081386 0.013285 0.072428
v -0.049284 0.044353 0.076564
v -0.081386 0.013285 0.072428
v -0.053821 0.010642 0.080274
v 0.008414 0.113913 0.062019
v -0.018867 0.113926 0.061532
v -0.019325 0.078972 0.072702
v 0.008414 0.113913 0.062019
v -0.019325 0.078972 0.072702
v 0.007690 0.077938 0.073536
v -0.018867 0.113926 0.061532
v -0.045249 0.110361 0.059695
v -0.045725 0.077848 0.069832
v -0.018867 0.113926 0.061532
v -0.045725 0.077848 0.069832
v -0.019325 0.078972 0.072702
v -0.045249 0.110361 0.059695
v -0.069155 0.104598 0.056239
v -0.070532 0.076423 0.064454
v -0.045249 0.110361 0.059695
v -0.070532 0.076423 0.064454
v -0.045725 0.077848 0.069832
v -0.069155 0.104598 0.056239
v -0.086173 0.099119 0.052481
v -0.092701 0.078513 0.056130
v -0.069155 0.104598 0.056239
v -0.092701 0.078513 0.056130
v -0.070532 0.076423 0.064454
v -0.070532 0.076423 0.064454
v -0.092701 0.078513 0.056130
v -0.100768 0.049420 0.059441
v -0.070532 0.076423 0.064454
v -0.100768 0.049420 0.059441
v -0.075730 0.045578 0.069698
v -0.075730 0.045578 0.069698
v -0.100768 0.049420 0.059441
v -0.107792 0.017437 0.061129
v -0.075730 0.045578 0.069698
v -0.107792 0.017437 0.061129
v -0.081386 0.013285 0.072428
v -0.081386 0.013285 0.072428
v -0.107792 0.017437 0.061129
v -0.111998 -0.014892 0.061481
v -0.081386 0.013285 0.072428
v -0.111998 -0.014892 0.061481
v -0.085423 -0.018826 0.073132
v -0.053821 0.010642 0.080274
v -0.081386 0.013285 0.072428
v -0.085423 -0.018826 0.073132
v -0.053821 0.010642 0.080274
v -0.085423 -0.018826 0.073132
v -0.057627 -0.022258 0.081338
v -0.025520 0.008502 0.084845
v -0.053821 0.010642 0.080274
v -0.057627 -0.022258 0.081338
v -0.025520 0.008502 0.084845
v -0.057627 -0.022258 0.081338
v -0.029016 -0.025412 0.086190
v 0.003089 0.005936 0.086321
v -0.025520 0.008502 0.084845
v -0.029016 -0.025412 0.086190
v 0.003089 0.005936 0.086321
v -0.029016 -0.025412 0.086190
v 0.000001 -0.028509 0.087779
v 0.005784 0.041682 0.081605
v -0.021924 0.043569 0.080411
v -0.025520 0.008502 0.084845
v 0.005784 0.041682 0.081605
v -0.025520 0.008502 0.084845
v 0.003089 0.005936 0.086321
v 0.007690 0.077938 0.073536
v -0.019325 0.078972 0.072702
v -0.021924 0.043569 0.080411
v 0.007690 0.077938 0.073536
v -0.021924 0.043569 0.080411
v 0.005784 0.041682 0.081605
v 0.081365 -0.064217 0.072105
v 0.053809 -0.064632 0.079960
v 0.049265 -0.092539 0.075993
v 0.081365 -0.064217 0.072105
v 0.049265 -0.092539 0.075993
v 0.075700 -0.090924 0.069129
v 0.053809 -0.064632 0.079960
v 0.025516 -0.063438 0.084545
v 0.021919 -0.092627 0.079843
v 0.053809 -0.064632 0.079960
v 0.021919 -0.092627 0.079843
v 0.049265 -0.092539 0.075993
v 0.075700 -0.090924 0.069129
v 0.049265 -0.092539 0.075993
v 0.045704 -0.116968 0.069020
v 0.075700 -0.090924 0.069129
v 0.045704 -0.116968 0.069020
v 0.070499 -0.113428 0.063662
v 0.049265 -0.092539 0.075993
v 0.021919 -0.092627 0.079843
v 0.019321 -0.118689 0.071878
v 0.049265 -0.092539 0.075993
v 0.019321 -0.118689 0.071878
v 0.045704 -0.116968 0.069020
v 0.111988 -0.031658 0.061412
v 0.085417 -0.034150 0.073068
v 0.081365 -0.064217 0.072105
v 0.111988 -0.031658 0.061412
v 0.081365 -0.064217 0.072105
v 0.107767 -0.061963 0.060798
v 0.085417 -0.034150 0.073068
v 0.057624 -0.033784 0.081290
v 0.053809 -0.064632 0.079960
v 0.085417 -0.034150 0.073068
v 0.053809 -0.064632 0.079960
v 0.081365 -0.064217 0.072105
v 0.057624 -0.033784 0.081290
v 0.029017 -0.031567 0.086164
v 0.025516 -0.063438 0.084545
v 0.057624 -0.033784 0.081290
v 0.025516 -0.063438 0.084545
v 0.053809 -0.064632 0.079960
v 0.029017 -0.031567 0.086164
v 0.000001 -0.028509 0.087779
v -0.003084 -0.060920 0.086042
v 0.029017 -0.031567 0.086164
v -0.003084 -0.060920 0.086042
v 0.025516 -0.063438 0.084545
v 0.025516 -0.063438 0.084545
v -0.003084 -0.060920 0.086042
v -0.005775 -0.090788 0.081052
v 0.025516 -0.063438 0.084545
v -0.005775 -0.090788 0.081052
v 0.021919 -0.092627 0.079843
v 0.021919 -0.092627 0.079843
v -0.005775 -0.090788 0.081052
v -0.007677 -0.117665 0.072720
v 0.021919 -0.092627 0.079843
v -0.007677 -0.117665 0.072720
v 0.019321 -0.118689 0.071878
v 0.019321 -0.118689 0.071878
v -0.007677 -0.117665 0.072720
v -0.008398 -0.141098 0.060955
v 0.019321 -0.118689 0.071878
v -0.008398 -0.141098 0.060955
v 0.018864 -0.141193 0.060468
v 0.045704 -0.116968 0.069020
v 0.019321 -0.118689 0.071878
v 0.018864 -0.141193 0.060468
v 0.045704 -0.116968 0.069020
v 0.018864 -0.141193 0.060468
v 0.045229 -0.137536 0.058661
v 0.070499 -0.113428 0.063662
v 0.045704 -0.116968 0.069020
v 0.045229 -0.137536 0.058661
v 0.070499 -0.113428 0.063662
v 0.045229 -0.137536 0.058661
v 0.069123 -0.131092 0.055256
v 0.092662 -0.110441 0.055342
v 0.070499 -0.113428 0.063662
v 0.069123 -0.131092 0.055256
v 0.092662 -0.110441 0.055342
v 0.069123 -0.131092 0.055256
v 0.086136 -0.124542 0.051548
v 0.100732 -0.088634 0.058865
v 0.075700 -0.090924 0.069129
v 0.070499 -0.113428 0.063662
v 0.100732 -0.088634 0.058865
v 0.070499 -0.113428 0.063662
v 0.092662 -0.110441 0.055342
v 0.107767 -0.061963 0.060798
v 0.081365 -0.064217 0.072105
v 0.075700 -0.090924 0.069129
v 0.107767 -0.061963 0.060798
v 0.075700 -0.090924 0.069129
v 0.100732 -0.088634 0.058865
v -0.031564 -0.057406 0.084570
v -0.059503 -0.053341 0.080007
v -0.059904 -0.081932 0.076037
v -0.031564 -0.057406 0.084570
v -0.059904 -0.081932 0.076037
v -0.033238 -0.086953 0.079867
v -0.059503 -0.053341 0.080007
v -0.086490 -0.049209 0.072168
v -0.085240 -0.076858 0.069187
v -0.059503 -0.053341 0.080007
v -0.085240 -0.076858 0.069187
v -0.059904 -0.081932 0.076037
v -0.033238 -0.086953 0.079867
v -0.059904 -0.081932 0.076037
v -0.059808 -0.107462 0.069060
v -0.033238 -0.086953 0.079867
v -0.059808 -0.107462 0.069060
v -0.034363 -0.113587 0.071899
v -0.059904 -0.081932 0.076037
v -0.085240 -0.076858 0.069187
v -0.083090 -0.100879 0.063714
v -0.059904 -0.081932 0.076037
v -0.083090 -0.100879 0.063714
v -0.059808 -0.107462 0.069060
v 0.000001 -0.028509 0.087779
v -0.029016 -0.025412 0.086190
v -0.031564 -0.057406 0.084570
v 0.000001 -0.028509 0.087779
v -0.031564 -0.057406 0.084570
v -0.003084 -0.060920 0.086042
v -0.029016 -0.025412 0.086190
v -0.057627 -0.022258 0.081338
v -0.059503 -0.053341 0.080007
v -0.029016 -0.025412 0.086190
v -0.059503 -0.053341 0.080007
v -0.031564 -0.057406 0.084570
v -0.057627 -0.022258 0.081338
v -0.085423 -0.018826 0.073132
v -0.086490 -0.049209 0.072168
v -0.057627 -0.022258 0.081338
v -0.086490 -0.049209 0.072168
v -0.059503 -0.053341 0.080007
v -0.085423 -0.018826 0.073132
v -0.111998 -0.014892 0.061481
v -0.112133 -0.045547 0.060867
v -0.085423 -0.018826 0.073132
v -0.112133 -0.045547 0.060867
v -0.086490 -0.049209 0.072168
v -0.086490 -0.049209 0.072168
v -0.112133 -0.045547 0.060867
v -0.108863 -0.073265 0.058929
v -0.086490 -0.049209 0.072168
v -0.108863 -0.073265 0.058929
v -0.085240 -0.076858 0.069187
v -0.085240 -0.076858 0.069187
v -0.108863 -0.073265 0.058929
v -0.103443 -0.096750 0.055399
v -0.085240 -0.076858 0.069187
v -0.103443 -0.096750 0.055399
v -0.083090 -0.100879 0.063714
v -0.083090 -0.100879 0.063714
v -0.103443 -0.096750 0.055399
v -0.098199 -0.112521 0.051598
v -0.083090 -0.100879 0.063714
v -0.098199 -0.112521 0.051598
v -0.082856 -0.120352 0.055301
v -0.059808 -0.107462 0.069060
v -0.083090 -0.100879 0.063714
v -0.082856 -0.120352 0.055301
v -0.059808 -0.107462 0.069060
v -0.082856 -0.120352 0.055301
v -0.060638 -0.129442 0.058695
v -0.034363 -0.113587 0.071899
v -0.059808 -0.107462 0.069060
v -0.060638 -0.129442 0.058695
v -0.034363 -0.113587 0.071899
v -0.060638 -0.129442 0.058695
v -0.035316 -0.136852 0.060486
v -0.007677 -0.117665 0.072720
v -0.034363 -0.113587 0.071899
v -0.035316 -0.136852 0.060486
v -0.007677 -0.117665 0.072720
v -0.035316 -0.136852 0.060486
v -0.008398 -0.141098 0.060955
v -0.005775 -0.090788 0.081052
v -0.033238 -0.086953 0.079867
v -0.034363 -0.113587 0.071899
v -0.005775 -0.090788 0.081052
v -0.034363 -0.113587 0.071899
v -0.007677 -0.117665 0.072720
v -0.003084 -0.060920 0.086042
v -0.031564 -0.057406 0.084570
v -0.033238 -0.086953 0.079867
v -0.003084 -0.060920 0.086042
v -0.033238 -0.086953 0.079867
v -0.005775 -0.090788 0.081052
v -0.111931 0.088166 0.044115
v -0.129050 0.101694 0.028668
v -0.143961 0.067719 0.029040
v -0.111931 0.088166 0.044115
v -0.143961 0.067719 0.029040
v -0.123829 0.057391 0.045642
v -0.129050 0.101694 0.028668
v -0.143493 0.114895 0.010755
v -0.159981 0.077908 0.010664
v -0.129050 0.101694 0.028668
v -0.159981 0.077908 0.010664
v -0.143961 0.067719 0.029040
v -0.123829 0.057391 0.045642
v -0.143961 0.067719 0.029040
v -0.153877 0.031178 0.029175
v -0.123829 0.057391 0.045642
v -0.153877 0.031178 0.029175
v -0.132423 0.023727 0.046413
v -0.143961 0.067719 0.029040
v -0.159981 0.077908 0.010664
v -0.170541 0.038427 0.010536
v -0.143961 0.067719 0.029040
v -0.170541 0.038427 0.010536
v -0.153877 0.031178 0.029175
v -0.086173 0.099119 0.052481
v -0.096167 0.113052 0.043141
v -0.111931 0.088166 0.044115
v -0.086173 0.099119 0.052481
v -0.111931 0.088166 0.044115
v -0.092701 0.078513 0.056130
v -0.096167 0.113052 0.043141
v -0.109193 0.130749 0.028495
v -0.129050 0.101694 0.028668
v -0.096167 0.113052 0.043141
v -0.129050 0.101694 0.028668
v -0.111931 0.088166 0.044115
v -0.109193 0.130749 0.028495
v -0.121482 0.147089 0.010852
v -0.143493 0.114895 0.010755
v -0.109193 0.130749 0.028495
v -0.143493 0.114895 0.010755
v -0.129050 0.101694 0.028668
v -0.121482 0.147089 0.010852
v -0.130431 0.159102 -0.007871
v -0.153285 0.124963 -0.008014
v -0.121482 0.147089 0.010852
v -0.153285 0.124963 -0.008014
v -0.143493 0.114895 0.010755
v -0.143493 0.114895 0.010755
v -0.153285 0.124963 -0.008014
v -0.170172 0.085857 -0.008177
v -0.143493 0.114895 0.010755
v -0.170172 0.085857 -0.008177
v -0.159981 0.077908 0.010664
v -0.159981 0.077908 0.010664
v -0.170172 0.085857 -0.008177
v -0.180732 0.044159 -0.008351
v -0.159981 0.077908 0.010664
v -0.180732 0.044159 -0.008351
v -0.170541 0.038427 0.010536
v -0.170541 0.038427 0.010536
v -0.180732 0.044159 -0.008351
v -0.184605 0.002244 -0.008526
v -0.170541 0.038427 0.010536
v -0.184605 0.002244 -0.008526
v -0.174693 -0.001260 0.010379
v -0.153877 0.031178 0.029175
v -0.170541 0.038427 0.010536
v -0.174693 -0.001260 0.010379
v -0.153877 0.031178 0.029175
v -0.174693 -0.001260 0.010379
v -0.158184 -0.005639 0.029091
v -0.132423 0.023727 0.046413
v -0.153877 0.031178 0.029175
v -0.158184 -0.005639 0.029091
v -0.132423 0.023727 0.046413
v -0.158184 -0.005639 0.029091
v -0.136733 -0.010361 0.046497
v -0.107792 0.017437 0.061129
v -0.132423 0.023727 0.046413
v -0.136733 -0.010361 0.046497
v -0.107792 0.017437 0.061129
v -0.136733 -0.010361 0.046497
v -0.111998 -0.014892 0.061481
v -0.100768 0.049420 0.059441
v -0.123829 0.057391 0.045642
v -0.132423 0.023727 0.046413
v -0.100768 0.049420 0.059441
v -0.132423 0.023727 0.046413
v -0.107792 0.017437 0.061129
v -0.092701 0.078513 0.056130
v -0.111931 0.088166 0.044115
v -0.123829 0.057391 0.045642
v -0.092701 0.078513 0.056130
v -0.123829 0.057391 0.045642
v -0.100768 0.049420 0.059441
v -0.156619 0.129949 -0.025969
v -0.153405 0.130268 -0.041808
v -0.168340 0.091249 -0.042310
v -0.156619 0.129949 -0.025969
v -0.168340 0.091249 -0.042310
v -0.173015 0.090090 -0.026178
v -0.153405 0.130268 -0.041808
v -0.143936 0.127516 -0.054450
v -0.156257 0.090742 -0.055678
v -0.153405 0.130268 -0.041808
v -0.156257 0.090742 -0.055678
v -0.168340 0.091249 -0.042310
v -0.173015 0.090090 -0.026178
v -0.168340 0.091249 -0.042310
v -0.177355 0.048768 -0.042646
v -0.173015 0.090090 -0.026178
v -0.177355 0.048768 -0.042646
v -0.183059 0.047435 -0.026375
v -0.168340 0.091249 -0.042310
v -0.156257 0.090742 -0.055678
v -0.163752 0.049062 -0.056333
v -0.168340 0.091249 -0.042310
v -0.163752 0.049062 -0.056333
v -0.177355 0.048768 -0.042646
v -0.130431 0.159102 -0.007871
v -0.134033 0.164590 -0.025799
v -0.156619 0.129949 -0.025969
v -0.130431 0.159102 -0.007871
v -0.156619 0.129949 -0.025969
v -0.153285 0.124963 -0.008014
v -0.134033 0.164590 -0.025799
v -0.132379 0.163591 -0.041465
v -0.153405 0.130268 -0.041808
v -0.134033 0.164590 -0.025799
v -0.153405 0.130268 -0.041808
v -0.156619 0.129949 -0.025969
v -0.132379 0.163591 -0.041465
v -0.126444 0.157147 -0.053580
v -0.143936 0.127516 -0.054450
v -0.132379 0.163591 -0.041465
v -0.143936 0.127516 -0.054450
v -0.153405 0.130268 -0.041808
v -0.126444 0.157147 -0.053580
v -0.119552 0.149178 -0.060744
v -0.127981 0.126188 -0.063408
v -0.126444 0.157147 -0.053580
v -0.127981 0.126188 -0.063408
v -0.143936 0.127516 -0.054450
v -0.143936 0.127516 -0.054450
v -0.127981 0.126188 -0.063408
v -0.136659 0.090920 -0.065624
v -0.143936 0.127516 -0.054450
v -0.136659 0.090920 -0.065624
v -0.156257 0.090742 -0.055678
v -0.156257 0.090742 -0.055678
v -0.136659 0.090920 -0.065624
v -0.142354 0.049341 -0.066636
v -0.156257 0.090742 -0.055678
v -0.142354 0.049341 -0.066636
v -0.163752 0.049062 -0.056333
v -0.163752 0.049062 -0.056333
v -0.142354 0.049341 -0.066636
v -0.144334 0.005635 -0.066938
v -0.163752 0.049062 -0.056333
v -0.144334 0.005635 -0.066938
v -0.166290 0.005880 -0.056582
v -0.177355 0.048768 -0.042646
v -0.163752 0.049062 -0.056333
v -0.166290 0.005880 -0.056582
v -0.177355 0.048768 -0.042646
v -0.166290 0.005880 -0.056582
v -0.180414 0.005591 -0.042849
v -0.183059 0.047435 -0.026375
v -0.177355 0.048768 -0.042646
v -0.180414 0.005591 -0.042849
v -0.183059 0.047435 -0.026375
v -0.180414 0.005591 -0.042849
v -0.186566 0.004476 -0.026557
v -0.180732 0.044159 -0.008351
v -0.183059 0.047435 -0.026375
v -0.186566 0.004476 -0.026557
v -0.180732 0.044159 -0.008351
v -0.186566 0.004476 -0.026557
v -0.184605 0.002244 -0.008526
v -0.170172 0.085857 -0.008177
v -0.173015 0.090090 -0.026178
v -0.183059 0.047435 -0.026375
v -0.170172 0.085857 -0.008177
v -0.183059 0.047435 -0.026375
v -0.180732 0.044159 -0.008351
v -0.153285 0.124963 -0.008014
v -0.156619 0.129949 -0.025969
v -0.173015 0.090090 -0.026178
v -0.153285 0.124963 -0.008014
v -0.173015 0.090090 -0.026178
v -0.170172 0.085857 -0.008177
v -0.135856 -0.042763 0.046136
v -0.156347 -0.040712 0.028875
v -0.148726 -0.073022 0.028453
v -0.135856 -0.042763 0.046136
v -0.148726 -0.073022 0.028453
v -0.130315 -0.072284 0.045101
v -0.156347 -0.040712 0.028875
v -0.172095 -0.039125 0.010212
v -0.163024 -0.074180 0.010030
v -0.156347 -0.040712 0.028875
v -0.163024 -0.074180 0.010030
v -0.148726 -0.073022 0.028453
v -0.130315 -0.072284 0.045101
v -0.148726 -0.073022 0.028453
v -0.135802 -0.101829 0.027820
v -0.130315 -0.072284 0.045101
v -0.135802 -0.101829 0.027820
v -0.120808 -0.097963 0.043338
v -0.148726 -0.073022 0.028453
v -0.163024 -0.074180 0.010030
v -0.147894 -0.105702 0.009835
v -0.148726 -0.073022 0.028453
v -0.147894 -0.105702 0.009835
v -0.135802 -0.101829 0.027820
v -0.111998 -0.014892 0.061481
v -0.136733 -0.010361 0.046497
v -0.135856 -0.042763 0.046136
v -0.111998 -0.014892 0.061481
v -0.135856 -0.042763 0.046136
v -0.112133 -0.045547 0.060867
v -0.136733 -0.010361 0.046497
v -0.158184 -0.005639 0.029091
v -0.156347 -0.040712 0.028875
v -0.136733 -0.010361 0.046497
v -0.156347 -0.040712 0.028875
v -0.135856 -0.042763 0.046136
v -0.158184 -0.005639 0.029091
v -0.174693 -0.001260 0.010379
v -0.172095 -0.039125 0.010212
v -0.158184 -0.005639 0.029091
v -0.172095 -0.039125 0.010212
v -0.156347 -0.040712 0.028875
v -0.174693 -0.001260 0.010379
v -0.184605 0.002244 -0.008526
v -0.181546 -0.037781 -0.008692
v -0.174693 -0.001260 0.010379
v -0.181546 -0.037781 -0.008692
v -0.172095 -0.039125 0.010212
v -0.172095 -0.039125 0.010212
v -0.181546 -0.037781 -0.008692
v -0.171770 -0.074873 -0.008847
v -0.172095 -0.039125 0.010212
v -0.171770 -0.074873 -0.008847
v -0.163024 -0.074180 0.010030
v -0.163024 -0.074180 0.010030
v -0.171770 -0.074873 -0.008847
v -0.155608 -0.108260 -0.008986
v -0.163024 -0.074180 0.010030
v -0.155608 -0.108260 -0.008986
v -0.147894 -0.105702 0.009835
v -0.147894 -0.105702 0.009835
v -0.155608 -0.108260 -0.008986
v -0.133391 -0.137166 -0.009107
v -0.147894 -0.105702 0.009835
v -0.133391 -0.137166 -0.009107
v -0.127072 -0.132981 0.009684
v -0.135802 -0.101829 0.027820
v -0.147894 -0.105702 0.009835
v -0.127072 -0.132981 0.009684
v -0.135802 -0.101829 0.027820
v -0.127072 -0.132981 0.009684
v -0.117658 -0.126514 0.027422
v -0.120808 -0.097963 0.043338
v -0.135802 -0.101829 0.027820
v -0.117658 -0.126514 0.027422
v -0.120808 -0.097963 0.043338
v -0.117658 -0.126514 0.027422
v -0.106956 -0.118930 0.042174
v -0.103443 -0.096750 0.055399
v -0.120808 -0.097963 0.043338
v -0.106956 -0.118930 0.042174
v -0.103443 -0.096750 0.055399
v -0.106956 -0.118930 0.042174
v -0.098199 -0.112521 0.051598
v -0.108863 -0.073265 0.058929
v -0.130315 -0.072284 0.045101
v -0.120808 -0.097963 0.043338
v -0.108863 -0.073265 0.058929
v -0.120808 -0.097963 0.043338
v -0.103443 -0.096750 0.055399
v -0.112133 -0.045547 0.060867
v -0.135856 -0.042763 0.046136
v -0.130315 -0.072284 0.045101
v -0.112133 -0.045547 0.060867
v -0.130315 -0.072284 0.045101
v -0.108863 -0.073265 0.058929
v -0.183403 -0.036559 -0.026726
v -0.177457 -0.035680 -0.042998
v -0.168540 -0.073635 -0.042998
v -0.183403 -0.036559 -0.026726
v -0.168540 -0.073635 -0.042998
v -0.173689 -0.074556 -0.026864
v -0.177457 -0.035680 -0.042998
v -0.163764 -0.035474 -0.056686
v -0.156282 -0.072940 -0.056360
v -0.177457 -0.035680 -0.042998
v -0.156282 -0.072940 -0.056360
v -0.168540 -0.073635 -0.042998
v -0.173689 -0.074556 -0.026864
v -0.168540 -0.073635 -0.042998
v -0.153695 -0.107262 -0.042798
v -0.173689 -0.074556 -0.026864
v -0.153695 -0.107262 -0.042798
v -0.157599 -0.108694 -0.026964
v -0.168540 -0.073635 -0.042998
v -0.156282 -0.072940 -0.056360
v -0.143972 -0.104944 -0.055419
v -0.168540 -0.073635 -0.042998
v -0.143972 -0.104944 -0.055419
v -0.153695 -0.107262 -0.042798
v -0.184605 0.002244 -0.008526
v -0.186566 0.004476 -0.026557
v -0.183403 -0.036559 -0.026726
v -0.184605 0.002244 -0.008526
v -0.183403 -0.036559 -0.026726
v -0.181546 -0.037781 -0.008692
v -0.186566 0.004476 -0.026557
v -0.180414 0.005591 -0.042849
v -0.177457 -0.035680 -0.042998
v -0.186566 0.004476 -0.026557
v -0.177457 -0.035680 -0.042998
v -0.183403 -0.036559 -0.026726
v -0.180414 0.005591 -0.042849
v -0.166290 0.005880 -0.056582
v -0.163764 -0.035474 -0.056686
v -0.180414 0.005591 -0.042849
v -0.163764 -0.035474 -0.056686
v -0.177457 -0.035680 -0.042998
v -0.166290 0.005880 -0.056582
v -0.144334 0.005635 -0.066938
v -0.142354 -0.036363 -0.066993
v -0.166290 0.005880 -0.056582
v -0.142354 -0.036363 -0.066993
v -0.163764 -0.035474 -0.056686
v -0.163764 -0.035474 -0.056686
v -0.142354 -0.036363 -0.066993
v -0.136659 -0.074054 -0.066312
v -0.163764 -0.035474 -0.056686
v -0.136659 -0.074054 -0.066312
v -0.156282 -0.072940 -0.056360
v -0.156282 -0.072940 -0.056360
v -0.136659 -0.074054 -0.066312
v -0.127981 -0.105020 -0.064372
v -0.156282 -0.072940 -0.056360
v -0.127981 -0.105020 -0.064372
v -0.143972 -0.104944 -0.055419
v -0.143972 -0.104944 -0.055419
v -0.127981 -0.105020 -0.064372
v -0.119552 -0.124911 -0.061887
v -0.143972 -0.104944 -0.055419
v -0.119552 -0.124911 -0.061887
v -0.126490 -0.130781 -0.054781
v -0.153695 -0.107262 -0.042798
v -0.143972 -0.104944 -0.055419
v -0.126490 -0.130781 -0.054781
v -0.153695 -0.107262 -0.042798
v -0.126490 -0.130781 -0.054781
v -0.132748 -0.135960 -0.042714
v -0.157599 -0.108694 -0.026964
v -0.153695 -0.107262 -0.042798
v -0.132748 -0.135960 -0.042714
v -0.157599 -0.108694 -0.026964
v -0.132748 -0.135960 -0.042714
v -0.135281 -0.138200 -0.027062
v -0.155608 -0.108260 -0.008986
v -0.157599 -0.108694 -0.026964
v -0.135281 -0.138200 -0.027062
v -0.155608 -0.108260 -0.008986
v -0.135281 -0.138200 -0.027062
v -0.133391 -0.137166 -0.009107
v -0.171770 -0.074873 -0.008847
v -0.173689 -0.074556 -0.026864
v -0.157599 -0.108694 -0.026964
v -0.171770 -0.074873 -0.008847
v -0.157599 -0.108694 -0.026964
v -0.155608 -0.108260 -0.008986
v -0.181546 -0.037781 -0.008692
v -0.183403 -0.036559 -0.026726
v -0.173689 -0.074556 -0.026864
v -0.181546 -0.037781 -0.008692
v -0.173689 -0.074556 -0.026864
v -0.171770 -0.074873 -0.008847
v -0.104398 0.131067 -0.068811
v -0.073896 0.138095 -0.071634
v -0.076695 0.097384 -0.075000
v -0.104398 0.131067 -0.068811
v -0.076695 0.097384 -0.075000
v -0.109685 0.093581 -0.071820
v -0.073896 0.138095 -0.071634
v -0.038267 0.143233 -0.072681
v -0.039436 0.100417 -0.076166
v -0.073896 0.138095 -0.071634
v -0.039436 0.100417 -0.076166
v -0.076695 0.097384 -0.075000
v -0.109685 0.093581 -0.071820
v -0.076695 0.097384 -0.075000
v -0.078960 0.051811 -0.076368
v -0.109685 0.093581 -0.071820
v -0.078960 0.051811 -0.076368
v -0.113559 0.050375 -0.073068
v -0.076695 0.097384 -0.075000
v -0.039436 0.100417 -0.076166
v -0.040459 0.053038 -0.077582
v -0.076695 0.097384 -0.075000
v -0.040459 0.053038 -0.077582
v -0.078960 0.051811 -0.076368
v -0.119552 0.149178 -0.060744
v -0.100913 0.160004 -0.063267
v -0.104398 0.131067 -0.068811
v -0.119552 0.149178 -0.060744
v -0.104398 0.131067 -0.068811
v -0.127981 0.126188 -0.063408
v -0.100913 0.160004 -0.063267
v -0.072087 0.171182 -0.065289
v -0.073896 0.138095 -0.071634
v -0.100913 0.160004 -0.063267
v -0.073896 0.138095 -0.071634
v -0.104398 0.131067 -0.068811
v -0.072087 0.171182 -0.065289
v -0.037479 0.178556 -0.066097
v -0.038267 0.143233 -0.072681
v -0.072087 0.171182 -0.065289
v -0.038267 0.143233 -0.072681
v -0.073896 0.138095 -0.071634
v -0.037479 0.178556 -0.066097
v -0.000001 0.181132 -0.066206
v -0.000001 0.145126 -0.072825
v -0.037479 0.178556 -0.066097
v -0.000001 0.145126 -0.072825
v -0.038267 0.143233 -0.072681
v -0.038267 0.143233 -0.072681
v -0.000001 0.145126 -0.072825
v -0.000001 0.101617 -0.076329
v -0.038267 0.143233 -0.072681
v -0.000001 0.101617 -0.076329
v -0.039436 0.100417 -0.076166
v -0.039436 0.100417 -0.076166
v -0.000001 0.101617 -0.076329
v -0.000001 0.053553 -0.077754
v -0.039436 0.100417 -0.076166
v -0.000001 0.053553 -0.077754
v -0.040459 0.053038 -0.077582
v -0.040459 0.053038 -0.077582
v -0.000001 0.053553 -0.077754
v -0.000001 0.003882 -0.078136
v -0.040459 0.053038 -0.077582
v -0.000001 0.003882 -0.078136
v -0.040893 0.004079 -0.077960
v -0.078960 0.051811 -0.076368
v -0.040459 0.053038 -0.077582
v -0.040893 0.004079 -0.077960
v -0.078960 0.051811 -0.076368
v -0.040893 0.004079 -0.077960
v -0.079860 0.004551 -0.076734
v -0.113559 0.050375 -0.073068
v -0.078960 0.051811 -0.076368
v -0.079860 0.004551 -0.076734
v -0.113559 0.050375 -0.073068
v -0.079860 0.004551 -0.076734
v -0.114982 0.005128 -0.073409
v -0.142354 0.049341 -0.066636
v -0.113559 0.050375 -0.073068
v -0.114982 0.005128 -0.073409
v -0.142354 0.049341 -0.066636
v -0.114982 0.005128 -0.073409
v -0.144334 0.005635 -0.066938
v -0.136659 0.090920 -0.065624
v -0.109685 0.093581 -0.071820
v -0.113559 0.050375 -0.073068
v -0.136659 0.090920 -0.065624
v -0.113559 0.050375 -0.073068
v -0.142354 0.049341 -0.066636
v -0.127981 0.126188 -0.063408
v -0.104398 0.131067 -0.068811
v -0.109685 0.093581 -0.071820
v -0.127981 0.126188 -0.063408
v -0.109685 0.093581 -0.071820
v -0.136659 0.090920 -0.065624
v 0.038265 0.143233 -0.072681
v 0.073893 0.138095 -0.071634
v 0.076692 0.097384 -0.075000
v 0.038265 0.143233 -0.072681
v 0.076692 0.097384 -0.075000
v 0.039434 0.100417 -0.076166
v 0.073893 0.138095 -0.071634
v 0.104395 0.131067 -0.068811
v 0.109682 0.093581 -0.071820
v 0.073893 0.138095 -0.071634
v 0.109682 0.093581 -0.071820
v 0.076692 0.097384 -0.075000
v 0.039434 0.100417 -0.076166
v 0.076692 0.097384 -0.075000
v 0.078957 0.051811 -0.076368
v 0.039434 0.100417 -0.076166
v 0.078957 0.051811 -0.076368
v 0.040456 0.053038 -0.077582
v 0.076692 0.097384 -0.075000
v 0.109682 0.093581 -0.071820
v 0.113556 0.050375 -0.073068
v 0.076692 0.097384 -0.075000
v 0.113556 0.050375 -0.073068
v 0.078957 0.051811 -0.076368
v -0.000001 0.181132 -0.066206
v 0.037477 0.178556 -0.066097
v 0.038265 0.143233 -0.072681
v -0.000001 0.181132 -0.066206
v 0.038265 0.143233 -0.072681
v -0.000001 0.145126 -0.072825
v 0.037477 0.178556 -0.066097
v 0.072084 0.171182 -0.065289
v 0.073893 0.138095 -0.071634
v 0.037477 0.178556 -0.066097
v 0.073893 0.138095 -0.071634
v 0.038265 0.143233 -0.072681
v 0.072084 0.171182 -0.065289
v 0.100910 0.160004 -0.063267
v 0.104395 0.131067 -0.068811
v 0.072084 0.171182 -0.065289
v 0.104395 0.131067 -0.068811
v 0.073893 0.138095 -0.071634
v 0.100910 0.160004 -0.063267
v 0.119549 0.149178 -0.060744
v 0.127979 0.126188 -0.063408
v 0.100910 0.160004 -0.063267
v 0.127979 0.126188 -0.063408
v 0.104395 0.131067 -0.068811
v 0.104395 0.131067 -0.068811
v 0.127979 0.126188 -0.063408
v 0.136656 0.090920 -0.065624
v 0.104395 0.131067 -0.068811
v 0.136656 0.090920 -0.065624
v 0.109682 0.093581 -0.071820
v 0.109682 0.093581 -0.071820
v 0.136656 0.090920 -0.065624
v 0.142351 0.049341 -0.066636
v 0.109682 0.093581 -0.071820
v 0.142351 0.049341 -0.066636
v 0.113556 0.050375 -0.073068
v 0.113556 0.050375 -0.073068
v 0.142351 0.049341 -0.066636
v 0.144331 0.005635 -0.066938
v 0.113556 0.050375 -0.073068
v 0.144331 0.005635 -0.066938
v 0.114979 0.005128 -0.073409
v 0.078957 0.051811 -0.076368
v 0.113556 0.050375 -0.073068
v 0.114979 0.005128 -0.073409
v 0.078957 0.051811 -0.076368
v 0.114979 0.005128 -0.073409
v 0.079858 0.004551 -0.076734
v 0.040456 0.053038 -0.077582
v 0.078957 0.051811 -0.076368
v 0.079858 0.004551 -0.076734
v 0.040456 0.053038 -0.077582
v 0.079858 0.004551 -0.076734
v 0.040890 0.004079 -0.077960
v -0.000001 0.053553 -0.077754
v 0.040456 0.053038 -0.077582
v 0.040890 0.004079 -0.077960
v -0.000001 0.053553 -0.077754
v 0.040890 0.004079 -0.077960
v -0.000001 0.003882 -0.078136
v -0.000001 0.101617 -0.076329
v 0.039434 0.100417 -0.076166
v 0.040456 0.053038 -0.077582
v -0.000001 0.101617 -0.076329
v 0.040456 0.053038 -0.077582
v -0.000001 0.053553 -0.077754
v -0.000001 0.145126 -0.072825
v 0.038265 0.143233 -0.072681
v 0.039434 0.100417 -0.076166
v -0.000001 0.145126 -0.072825
v 0.039434 0.100417 -0.076166
v -0.000001 0.101617 -0.076329
v -0.113559 -0.038554 -0.073439
v -0.078960 -0.041289 -0.076757
v -0.076695 -0.083310 -0.075753
v -0.113559 -0.038554 -0.073439
v -0.076695 -0.083310 -0.075753
v -0.109685 -0.078061 -0.072536
v -0.078960 -0.041289 -0.076757
v -0.040459 -0.043592 -0.077985
v -0.039436 -0.087614 -0.076950
v -0.078960 -0.041289 -0.076757
v -0.039436 -0.087614 -0.076950
v -0.076695 -0.083310 -0.075753
v -0.109685 -0.078061 -0.072536
v -0.076695 -0.083310 -0.075753
v -0.073896 -0.119336 -0.072708
v -0.109685 -0.078061 -0.072536
v -0.073896 -0.119336 -0.072708
v -0.104398 -0.111094 -0.069821
v -0.076695 -0.083310 -0.075753
v -0.039436 -0.087614 -0.076950
v -0.038267 -0.125759 -0.073803
v -0.076695 -0.083310 -0.075753
v -0.038267 -0.125759 -0.073803
v -0.073896 -0.119336 -0.072708
v -0.144334 0.005635 -0.066938
v -0.114982 0.005128 -0.073409
v -0.113559 -0.038554 -0.073439
v -0.144334 0.005635 -0.066938
v -0.113559 -0.038554 -0.073439
v -0.142354 -0.036363 -0.066993
v -0.114982 0.005128 -0.073409
v -0.079860 0.004551 -0.076734
v -0.078960 -0.041289 -0.076757
v -0.114982 0.005128 -0.073409
v -0.078960 -0.041289 -0.076757
v -0.113559 -0.038554 -0.073439
v -0.079860 0.004551 -0.076734
v -0.040893 0.004079 -0.077960
v -0.040459 -0.043592 -0.077985
v -0.079860 0.004551 -0.076734
v -0.040459 -0.043592 -0.077985
v -0.078960 -0.041289 -0.076757
v -0.040893 0.004079 -0.077960
v -0.000001 0.003882 -0.078136
v -0.000001 -0.044557 -0.078163
v -0.040893 0.004079 -0.077960
v -0.000001 -0.044557 -0.078163
v -0.040459 -0.043592 -0.077985
v -0.040459 -0.043592 -0.077985
v -0.000001 -0.044557 -0.078163
v -0.000001 -0.089371 -0.077126
v -0.040459 -0.043592 -0.077985
v -0.000001 -0.089371 -0.077126
v -0.039436 -0.087614 -0.076950
v -0.039436 -0.087614 -0.076950
v -0.000001 -0.089371 -0.077126
v -0.000001 -0.128278 -0.073966
v -0.039436 -0.087614 -0.076950
v -0.000001 -0.128278 -0.073966
v -0.038267 -0.125759 -0.073803
v -0.038267 -0.125759 -0.073803
v -0.000001 -0.128278 -0.073966
v -0.000001 -0.158995 -0.067624
v -0.038267 -0.125759 -0.073803
v -0.000001 -0.158995 -0.067624
v -0.037479 -0.155825 -0.067491
v -0.073896 -0.119336 -0.072708
v -0.038267 -0.125759 -0.073803
v -0.037479 -0.155825 -0.067491
v -0.073896 -0.119336 -0.072708
v -0.037479 -0.155825 -0.067491
v -0.072087 -0.147399 -0.066618
v -0.104398 -0.111094 -0.069821
v -0.073896 -0.119336 -0.072708
v -0.072087 -0.147399 -0.066618
v -0.104398 -0.111094 -0.069821
v -0.072087 -0.147399 -0.066618
v -0.100913 -0.135644 -0.064500
v -0.127981 -0.105020 -0.064372
v -0.104398 -0.111094 -0.069821
v -0.100913 -0.135644 -0.064500
v -0.127981 -0.105020 -0.064372
v -0.100913 -0.135644 -0.064500
v -0.119552 -0.124911 -0.061887
v -0.136659 -0.074054 -0.066312
v -0.109685 -0.078061 -0.072536
v -0.104398 -0.111094 -0.069821
v -0.136659 -0.074054 -0.066312
v -0.104398 -0.111094 -0.069821
v -0.127981 -0.105020 -0.064372
v -0.142354 -0.036363 -0.066993
v -0.113559 -0.038554 -0.073439
v -0.109685 -0.078061 -0.072536
v -0.142354 -0.036363 -0.066993
v -0.109685 -0.078061 -0.072536
v -0.136659 -0.074054 -0.066312
v 0.040456 -0.043592 -0.077985
v 0.078957 -0.041289 -0.076757
v 0.076692 -0.083310 -0.075753
v 0.040456 -0.043592 -0.077985
v 0.076692 -0.083310 -0.075753
v 0.039434 -0.087614 -0.076950
v 0.078957 -0.041289 -0.076757
v 0.113556 -0.038554 -0.073439
v 0.109682 -0.078061 -0.072536
v 0.078957 -0.041289 -0.076757
v 0.109682 -0.078061 -0.072536
v 0.076692 -0.083310 -0.075753
v 0.039434 -0.087614 -0.076950
v 0.076692 -0.083310 -0.075753
v 0.073893 -0.119335 -0.072708
v 0.039434 -0.087614 -0.076950
v 0.073893 -0.119335 -0.072708
v 0.038265 -0.125759 -0.073803
v 0.076692 -0.083310 -0.075753
v 0.109682 -0.078061 -0.072536
v 0.104395 -0.111094 -0.069821
v 0.076692 -0.083310 -0.075753
v 0.104395 -0.111094 -0.069821
v 0.073893 -0.119335 -0.072708
v -0.000001 0.003882 -0.078136
v 0.040890 0.004079 -0.077960
v 0.040456 -0.043592 -0.077985
v -0.000001 0.003882 -0.078136
v 0.040456 -0.043592 -0.077985
v -0.000001 -0.044557 -0.078163
v 0.040890 0.004079 -0.077960
v 0.079858 0.004551 -0.076734
v 0.078957 -0.041289 -0.076757
v 0.040890 0.004079 -0.077960
v 0.078957 -0.041289 -0.076757
v 0.040456 -0.043592 -0.077985
v 0.079858 0.004551 -0.076734
v 0.114979 0.005128 -0.073409
v 0.113556 -0.038554 -0.073439
v 0.079858 0.004551 -0.076734
v 0.113556 -0.038554 -0.073439
v 0.078957 -0.041289 -0.076757
v 0.114979 0.005128 -0.073409
v 0.144331 0.005635 -0.066938
v 0.142351 -0.036363 -0.066993
v 0.114979 0.005128 -0.073409
v 0.142351 -0.036363 -0.066993
v 0.113556 -0.038554 -0.073439
v 0.113556 -0.038554 -0.073439
v 0.142351 -0.036363 -0.066993
v 0.136656 -0.074054 -0.066312
v 0.113556 -0.038554 -0.073439
v 0.136656 -0.074054 -0.066312
v 0.109682 -0.078061 -0.072536
v 0.109682 -0.078061 -0.072536
v 0.136656 -0.074054 -0.066312
v 0.127979 -0.105020 -0.064372
v 0.109682 -0.078061 -0.072536
v 0.127979 -0.105020 -0.064372
v 0.104395 -0.111094 -0.069821
v 0.104395 -0.111094 -0.069821
v 0.127979 -0.105020 -0.064372
v 0.119549 -0.124910 -0.061887
v 0.104395 -0.111094 -0.069821
v 0.119549 -0.124910 -0.061887
v 0.100910 -0.135644 -0.064500
v 0.073893 -0.119335 -0.072708
v 0.104395 -0.111094 -0.069821
v 0.100910 -0.135644 -0.064500
v 0.073893 -0.119335 -0.072708
v 0.100910 -0.135644 -0.064500
v 0.072084 -0.147399 -0.066618
v 0.038265 -0.125759 -0.073803
v 0.073893 -0.119335 -0.072708
v 0.072084 -0.147399 -0.066618
v 0.038265 -0.125759 -0.073803
v 0.072084 -0.147399 -0.066618
v 0.037477 -0.155825 -0.067491
v -0.000001 -0.128278 -0.073966
v 0.038265 -0.125759 -0.073803
v 0.037477 -0.155825 -0.067491
v -0.000001 -0.128278 -0.073966
v 0.037477 -0.155825 -0.067491
v -0.000001 -0.158995 -0.067624
v -0.000001 -0.089371 -0.077126
v 0.039434 -0.087614 -0.076950
v 0.038265 -0.125759 -0.073803
v -0.000001 -0.089371 -0.077126
v 0.038265 -0.125759 -0.073803
v -0.000001 -0.128278 -0.073966
v -0.000001 -0.044557 -0.078163
v 0.040456 -0.043592 -0.077985
v 0.039434 -0.087614 -0.076950
v -0.000001 -0.044557 -0.078163
v 0.039434 -0.087614 -0.076950
v -0.000001 -0.089371 -0.077126
v -0.102495 0.179001 -0.054235
v -0.105289 0.189508 -0.041561
v -0.073165 0.207889 -0.041824
v -0.102495 0.179001 -0.054235
v -0.073165 0.207889 -0.041824
v -0.072332 0.194495 -0.055245
v -0.105289 0.189508 -0.041561
v -0.105631 0.191988 -0.025710
v -0.072674 0.211660 -0.025671
v -0.105289 0.189508 -0.041561
v -0.072674 0.211660 -0.025671
v -0.073165 0.207889 -0.041824
v -0.072332 0.194495 -0.055245
v -0.073165 0.207889 -0.041824
v -0.037388 0.218937 -0.041937
v -0.072332 0.194495 -0.055245
v -0.037388 0.218937 -0.041937
v -0.037390 0.203953 -0.055687
v -0.073165 0.207889 -0.041824
v -0.072674 0.211660 -0.025671
v -0.036654 0.223496 -0.025641
v -0.073165 0.207889 -0.041824
v -0.036654 0.223496 -0.025641
v -0.037388 0.218937 -0.041937
v -0.119552 0.149178 -0.060744
v -0.126444 0.157147 -0.053580
v -0.102495 0.179001 -0.054235
v -0.119552 0.149178 -0.060744
v -0.102495 0.179001 -0.054235
v -0.100913 0.160004 -0.063267
v -0.126444 0.157147 -0.053580
v -0.132379 0.163591 -0.041465
v -0.105289 0.189508 -0.041561
v -0.126444 0.157147 -0.053580
v -0.105289 0.189508 -0.041561
v -0.102495 0.179001 -0.054235
v -0.132379 0.163591 -0.041465
v -0.134033 0.164590 -0.025799
v -0.105631 0.191988 -0.025710
v -0.132379 0.163591 -0.041465
v -0.105631 0.191988 -0.025710
v -0.105289 0.189508 -0.041561
v -0.134033 0.164590 -0.025799
v -0.130431 0.159102 -0.007871
v -0.102149 0.186257 -0.007758
v -0.134033 0.164590 -0.025799
v -0.102149 0.186257 -0.007758
v -0.105631 0.191988 -0.025710
v -0.105631 0.191988 -0.025710
v -0.102149 0.186257 -0.007758
v -0.069685 0.205831 -0.007677
v -0.105631 0.191988 -0.025710
v -0.069685 0.205831 -0.007677
v -0.072674 0.211660 -0.025671
v -0.072674 0.211660 -0.025671
v -0.069685 0.205831 -0.007677
v -0.034460 0.217586 -0.007627
v -0.072674 0.211660 -0.025671
v -0.034460 0.217586 -0.007627
v -0.036654 0.223496 -0.025641
v -0.036654 0.223496 -0.025641
v -0.034460 0.217586 -0.007627
v 0.002103 0.221284 -0.007612
v -0.036654 0.223496 -0.025641
v 0.002103 0.221284 -0.007612
v 0.000886 0.227359 -0.025628
v -0.037388 0.218937 -0.041937
v -0.036654 0.223496 -0.025641
v 0.000886 0.227359 -0.025628
v -0.037388 0.218937 -0.041937
v 0.000886 0.227359 -0.025628
v 0.000262 0.222609 -0.041944
v -0.037390 0.203953 -0.055687
v -0.037388 0.218937 -0.041937
v 0.000262 0.222609 -0.041944
v -0.037390 0.203953 -0.055687
v 0.000262 0.222609 -0.041944
v 0.000031 0.207158 -0.055742
v -0.037479 0.178556 -0.066097
v -0.037390 0.203953 -0.055687
v 0.000031 0.207158 -0.055742
v -0.037479 0.178556 -0.066097
v 0.000031 0.207158 -0.055742
v -0.000001 0.181132 -0.066206
v -0.072087 0.171182 -0.065289
v -0.072332 0.194495 -0.055245
v -0.037390 0.203953 -0.055687
v -0.072087 0.171182 -0.065289
v -0.037390 0.203953 -0.055687
v -0.037479 0.178556 -0.066097
v -0.100913 0.160004 -0.063267
v -0.102495 0.179001 -0.054235
v -0.072332 0.194495 -0.055245
v -0.100913 0.160004 -0.063267
v -0.072332 0.194495 -0.055245
v -0.072087 0.171182 -0.065289
v -0.094495 0.172548 0.010995
v -0.084541 0.152986 0.028882
v -0.056225 0.168417 0.029460
v -0.094495 0.172548 0.010995
v -0.056225 0.168417 0.029460
v -0.063706 0.190762 0.011135
v -0.084541 0.152986 0.028882
v -0.074892 0.129957 0.044289
v -0.049295 0.141037 0.045991
v -0.084541 0.152986 0.028882
v -0.049295 0.141037 0.045991
v -0.056225 0.168417 0.029460
v -0.063706 0.190762 0.011135
v -0.056225 0.168417 0.029460
v -0.025600 0.177379 0.029785
v -0.063706 0.190762 0.011135
v -0.025600 0.177379 0.029785
v -0.030442 0.201558 0.011216
v -0.056225 0.168417 0.029460
v -0.049295 0.141037 0.045991
v -0.021280 0.147404 0.046929
v -0.056225 0.168417 0.029460
v -0.021280 0.147404 0.046929
v -0.025600 0.177379 0.029785
v -0.130431 0.159102 -0.007871
v -0.121482 0.147089 0.010852
v -0.094495 0.172548 0.010995
v -0.130431 0.159102 -0.007871
v -0.094495 0.172548 0.010995
v -0.102149 0.186257 -0.007758
v -0.121482 0.147089 0.010852
v -0.109193 0.130749 0.028495
v -0.084541 0.152986 0.028882
v -0.121482 0.147089 0.010852
v -0.084541 0.152986 0.028882
v -0.094495 0.172548 0.010995
v -0.109193 0.130749 0.028495
v -0.096167 0.113052 0.043141
v -0.074892 0.129957 0.044289
v -0.109193 0.130749 0.028495
v -0.074892 0.129957 0.044289
v -0.084541 0.152986 0.028882
v -0.096167 0.113052 0.043141
v -0.086173 0.099119 0.052481
v -0.069155 0.104598 0.056239
v -0.096167 0.113052 0.043141
v -0.069155 0.104598 0.056239
v -0.074892 0.129957 0.044289
v -0.074892 0.129957 0.044289
v -0.069155 0.104598 0.056239
v -0.045249 0.110361 0.059695
v -0.074892 0.129957 0.044289
v -0.045249 0.110361 0.059695
v -0.049295 0.141037 0.045991
v -0.049295 0.141037 0.045991
v -0.045249 0.110361 0.059695
v -0.018867 0.113926 0.061532
v -0.049295 0.141037 0.045991
v -0.018867 0.113926 0.061532
v -0.021280 0.147404 0.046929
v -0.021280 0.147404 0.046929
v -0.018867 0.113926 0.061532
v 0.008414 0.113913 0.062019
v -0.021280 0.147404 0.046929
v 0.008414 0.113913 0.062019
v 0.007724 0.148536 0.047159
v -0.025600 0.177379 0.029785
v -0.021280 0.147404 0.046929
v 0.007724 0.148536 0.047159
v -0.025600 0.177379 0.029785
v 0.007724 0.148536 0.047159
v 0.006048 0.179619 0.029864
v -0.030442 0.201558 0.011216
v -0.025600 0.177379 0.029785
v 0.006048 0.179619 0.029864
v -0.030442 0.201558 0.011216
v 0.006048 0.179619 0.029864
v 0.003977 0.204692 0.011238
v -0.034460 0.217586 -0.007627
v -0.030442 0.201558 0.011216
v 0.003977 0.204692 0.011238
v -0.034460 0.217586 -0.007627
v 0.003977 0.204692 0.011238
v 0.002103 0.221284 -0.007612
v -0.069685 0.205831 -0.007677
v -0.063706 0.190762 0.011135
v -0.030442 0.201558 0.011216
v -0.069685 0.205831 -0.007677
v -0.030442 0.201558 0.011216
v -0.034460 0.217586 -0.007627
v -0.102149 0.186257 -0.007758
v -0.094495 0.172548 0.010995
v -0.063706 0.190762 0.011135
v -0.102149 0.186257 -0.007758
v -0.063706 0.190762 0.011135
v -0.069685 0.205831 -0.007677
v 0.037451 0.203941 -0.055687
v 0.037901 0.218835 -0.041937
v 0.073648 0.207689 -0.041825
v 0.037451 0.203941 -0.055687
v 0.073648 0.207689 -0.041825
v 0.072390 0.194469 -0.055245
v 0.037901 0.218835 -0.041937
v 0.038391 0.223152 -0.025643
v 0.074309 0.210983 -0.025674
v 0.037901 0.218835 -0.041937
v 0.074309 0.210983 -0.025674
v 0.073648 0.207689 -0.041825
v 0.072390 0.194469 -0.055245
v 0.073648 0.207689 -0.041825
v 0.105723 0.189217 -0.041562
v 0.072390 0.194469 -0.055245
v 0.105723 0.189217 -0.041562
v 0.102547 0.178964 -0.054235
v 0.073648 0.207689 -0.041825
v 0.074309 0.210983 -0.025674
v 0.107102 0.191005 -0.025714
v 0.073648 0.207689 -0.041825
v 0.107102 0.191005 -0.025714
v 0.105723 0.189217 -0.041562
v -0.000001 0.181132 -0.066206
v 0.000031 0.207158 -0.055742
v 0.037451 0.203941 -0.055687
v -0.000001 0.181132 -0.066206
v 0.037451 0.203941 -0.055687
v 0.037477 0.178556 -0.066097
v 0.000031 0.207158 -0.055742
v 0.000262 0.222609 -0.041944
v 0.037901 0.218835 -0.041937
v 0.000031 0.207158 -0.055742
v 0.037901 0.218835 -0.041937
v 0.037451 0.203941 -0.055687
v 0.000262 0.222609 -0.041944
v 0.000886 0.227359 -0.025628
v 0.038391 0.223152 -0.025643
v 0.000262 0.222609 -0.041944
v 0.038391 0.223152 -0.025643
v 0.037901 0.218835 -0.041937
v 0.000886 0.227359 -0.025628
v 0.002103 0.221284 -0.007612
v 0.038581 0.216769 -0.007631
v 0.000886 0.227359 -0.025628
v 0.038581 0.216769 -0.007631
v 0.038391 0.223152 -0.025643
v 0.038391 0.223152 -0.025643
v 0.038581 0.216769 -0.007631
v 0.073564 0.204228 -0.007683
v 0.038391 0.223152 -0.025643
v 0.073564 0.204228 -0.007683
v 0.074309 0.210983 -0.025674
v 0.074309 0.210983 -0.025674
v 0.073564 0.204228 -0.007683
v 0.105641 0.183927 -0.007768
v 0.074309 0.210983 -0.025674
v 0.105641 0.183927 -0.007768
v 0.107102 0.191005 -0.025714
v 0.107102 0.191005 -0.025714
v 0.105641 0.183927 -0.007768
v 0.133402 0.156137 -0.007884
v 0.107102 0.191005 -0.025714
v 0.133402 0.156137 -0.007884
v 0.135284 0.163339 -0.025804
v 0.105723 0.189217 -0.041562
v 0.107102 0.191005 -0.025714
v 0.135284 0.163339 -0.025804
v 0.105723 0.189217 -0.041562
v 0.135284 0.163339 -0.025804
v 0.132747 0.163220 -0.041466
v 0.102547 0.178964 -0.054235
v 0.105723 0.189217 -0.041562
v 0.132747 0.163220 -0.041466
v 0.102547 0.178964 -0.054235
v 0.132747 0.163220 -0.041466
v 0.126488 0.157101 -0.053580
v 0.100910 0.160004 -0.063267
v 0.102547 0.178964 -0.054235
v 0.126488 0.157101 -0.053580
v 0.100910 0.160004 -0.063267
v 0.126488 0.157101 -0.053580
v 0.119549 0.149178 -0.060744
v 0.072084 0.171182 -0.065289
v 0.072390 0.194469 -0.055245
v 0.102547 0.178964 -0.054235
v 0.072084 0.171182 -0.065289
v 0.102547 0.178964 -0.054235
v 0.100910 0.160004 -0.063267
v 0.037477 0.178556 -0.066097
v 0.037451 0.203941 -0.055687
v 0.072390 0.194469 -0.055245
v 0.037477 0.178556 -0.066097
v 0.072390 0.194469 -0.055245
v 0.072084 0.171182 -0.065289
v 0.038237 0.199998 0.011210
v 0.037452 0.174901 0.029775
v 0.067361 0.163637 0.029440
v 0.038237 0.199998 0.011210
v 0.067361 0.163637 0.029440
v 0.071040 0.187709 0.011122
v 0.037452 0.174901 0.029775
v 0.036414 0.143961 0.046914
v 0.063480 0.134534 0.045964
v 0.037452 0.174901 0.029775
v 0.063480 0.134534 0.045964
v 0.067361 0.163637 0.029440
v 0.071040 0.187709 0.011122
v 0.067361 0.163637 0.029440
v 0.094523 0.146217 0.028854
v 0.071040 0.187709 0.011122
v 0.094523 0.146217 0.028854
v 0.101091 0.168135 0.010977
v 0.067361 0.163637 0.029440
v 0.063480 0.134534 0.045964
v 0.087549 0.121061 0.044252
v 0.067361 0.163637 0.029440
v 0.087549 0.121061 0.044252
v 0.094523 0.146217 0.028854
v 0.002103 0.221284 -0.007612
v 0.003977 0.204692 0.011238
v 0.038237 0.199998 0.011210
v 0.002103 0.221284 -0.007612
v 0.038237 0.199998 0.011210
v 0.038581 0.216769 -0.007631
v 0.003977 0.204692 0.011238
v 0.006048 0.179619 0.029864
v 0.037452 0.174901 0.029775
v 0.003977 0.204692 0.011238
v 0.037452 0.174901 0.029775
v 0.038237 0.199998 0.011210
v 0.006048 0.179619 0.029864
v 0.007724 0.148536 0.047159
v 0.036414 0.143961 0.046914
v 0.006048 0.179619 0.029864
v 0.036414 0.143961 0.046914
v 0.037452 0.174901 0.029775
v 0.007724 0.148536 0.047159
v 0.008414 0.113913 0.062019
v 0.035349 0.109576 0.061514
v 0.007724 0.148536 0.047159
v 0.035349 0.109576 0.061514
v 0.036414 0.143961 0.046914
v 0.036414 0.143961 0.046914
v 0.035349 0.109576 0.061514
v 0.060681 0.102251 0.059661
v 0.036414 0.143961 0.046914
v 0.060681 0.102251 0.059661
v 0.063480 0.134534 0.045964
v 0.063480 0.134534 0.045964
v 0.060681 0.102251 0.059661
v 0.082902 0.093839 0.056194
v 0.063480 0.134534 0.045964
v 0.082902 0.093839 0.056194
v 0.087549 0.121061 0.044252
v 0.087549 0.121061 0.044252
v 0.082902 0.093839 0.056194
v 0.098244 0.087078 0.052431
v 0.087549 0.121061 0.044252
v 0.098244 0.087078 0.052431
v 0.106998 0.102247 0.043096
v 0.094523 0.146217 0.028854
v 0.087549 0.121061 0.044252
v 0.106998 0.102247 0.043096
v 0.094523 0.146217 0.028854
v 0.106998 0.102247 0.043096
v 0.117692 0.122268 0.028460
v 0.101091 0.168135 0.010977
v 0.094523 0.146217 0.028854
v 0.117692 0.122268 0.028460
v 0.101091 0.168135 0.010977
v 0.117692 0.122268 0.028460
v 0.127094 0.141488 0.010829
v 0.105641 0.183927 -0.007768
v 0.101091 0.168135 0.010977
v 0.127094 0.141488 0.010829
v 0.105641 0.183927 -0.007768
v 0.127094 0.141488 0.010829
v 0.133402 0.156137 -0.007884
v 0.073564 0.204228 -0.007683
v 0.071040 0.187709 0.011122
v 0.101091 0.168135 0.010977
v 0.073564 0.204228 -0.007683
v 0.101091 0.168135 0.010977
v 0.105641 0.183927 -0.007768
v 0.038581 0.216769 -0.007631
v 0.038237 0.199998 0.011210
v 0.071040 0.187709 0.011122
v 0.038581 0.216769 -0.007631
v 0.071040 0.187709 0.011122
v 0.073564 0.204228 -0.007683
v 0.102492 -0.150921 -0.055611
v 0.105285 -0.159535 -0.043016
v 0.073162 -0.176881 -0.043429
v 0.102492 -0.150921 -0.055611
v 0.073162 -0.176881 -0.043429
v 0.072329 -0.166198 -0.056749
v 0.105285 -0.159535 -0.043016
v 0.105625 -0.163318 -0.027192
v 0.072669 -0.181123 -0.027309
v 0.105285 -0.159535 -0.043016
v 0.072669 -0.181123 -0.027309
v 0.073162 -0.176881 -0.043429
v 0.072329 -0.166198 -0.056749
v 0.073162 -0.176881 -0.043429
v 0.037385 -0.187874 -0.043633
v 0.072329 -0.166198 -0.056749
v 0.037385 -0.187874 -0.043633
v 0.037387 -0.176235 -0.057273
v 0.073162 -0.176881 -0.043429
v 0.072669 -0.181123 -0.027309
v 0.036651 -0.192232 -0.027375
v 0.073162 -0.176881 -0.043429
v 0.036651 -0.192232 -0.027375
v 0.037385 -0.187874 -0.043633
v 0.119549 -0.124910 -0.061887
v 0.126441 -0.130827 -0.054781
v 0.102492 -0.150921 -0.055611
v 0.119549 -0.124910 -0.061887
v 0.102492 -0.150921 -0.055611
v 0.100910 -0.135644 -0.064500
v 0.126441 -0.130827 -0.054781
v 0.132374 -0.136330 -0.042716
v 0.105285 -0.159535 -0.043016
v 0.126441 -0.130827 -0.054781
v 0.105285 -0.159535 -0.043016
v 0.102492 -0.150921 -0.055611
v 0.132374 -0.136330 -0.042716
v 0.134025 -0.139449 -0.027067
v 0.105625 -0.163318 -0.027192
v 0.132374 -0.136330 -0.042716
v 0.105625 -0.163318 -0.027192
v 0.105285 -0.159535 -0.043016
v 0.134025 -0.139449 -0.027067
v 0.130418 -0.140126 -0.009119
v 0.102138 -0.163167 -0.009215
v 0.134025 -0.139449 -0.027067
v 0.102138 -0.163167 -0.009215
v 0.105625 -0.163318 -0.027192
v 0.105625 -0.163318 -0.027192
v 0.102138 -0.163167 -0.009215
v 0.069677 -0.180241 -0.009287
v 0.105625 -0.163318 -0.027192
v 0.069677 -0.180241 -0.009287
v 0.072669 -0.181123 -0.027309
v 0.072669 -0.181123 -0.027309
v 0.069677 -0.180241 -0.009287
v 0.034457 -0.190756 -0.009330
v 0.072669 -0.181123 -0.027309
v 0.034457 -0.190756 -0.009330
v 0.036651 -0.192232 -0.027375
v 0.036651 -0.192232 -0.027375
v 0.034457 -0.190756 -0.009330
v -0.002100 -0.194119 -0.009344
v 0.036651 -0.192232 -0.027375
v -0.002100 -0.194119 -0.009344
v -0.000887 -0.195972 -0.027393
v 0.037385 -0.187874 -0.043633
v 0.036651 -0.192232 -0.027375
v -0.000887 -0.195972 -0.027393
v 0.037385 -0.187874 -0.043633
v -0.000887 -0.195972 -0.027393
v -0.000264 -0.191702 -0.043672
v 0.037387 -0.176235 -0.057273
v 0.037385 -0.187874 -0.043633
v -0.000264 -0.191702 -0.043672
v 0.037387 -0.176235 -0.057273
v -0.000264 -0.191702 -0.043672
v -0.000034 -0.179860 -0.057356
v 0.037477 -0.155825 -0.067491
v 0.037387 -0.176235 -0.057273
v -0.000034 -0.179860 -0.057356
v 0.037477 -0.155825 -0.067491
v -0.000034 -0.179860 -0.057356
v -0.000001 -0.158995 -0.067624
v 0.072084 -0.147399 -0.066618
v 0.072329 -0.166198 -0.056749
v 0.037387 -0.176235 -0.057273
v 0.072084 -0.147399 -0.066618
v 0.037387 -0.176235 -0.057273
v 0.037477 -0.155825 -0.067491
v 0.100910 -0.135644 -0.064500
v 0.102492 -0.150921 -0.055611
v 0.072329 -0.166198 -0.056749
v 0.100910 -0.135644 -0.064500
v 0.072329 -0.166198 -0.056749
v 0.072084 -0.147399 -0.066618
v 0.094477 -0.159745 0.009609
v 0.084516 -0.153315 0.027605
v 0.056210 -0.166513 0.028063
v 0.094477 -0.159745 0.009609
v 0.056210 -0.166513 0.028063
v 0.063695 -0.175274 0.009609
v 0.084516 -0.153315 0.027605
v 0.074863 -0.143947 0.043147
v 0.049277 -0.153999 0.044760
v 0.084516 -0.153315 0.027605
v 0.049277 -0.153999 0.044760
v 0.056210 -0.166513 0.028063
v 0.063695 -0.175274 0.009609
v 0.056210 -0.166513 0.028063
v 0.025598 -0.174295 0.028318
v 0.063695 -0.175274 0.009609
v 0.025598 -0.174295 0.028318
v 0.030440 -0.184661 0.009605
v 0.056210 -0.166513 0.028063
v 0.049277 -0.153999 0.044760
v 0.021279 -0.159775 0.045648
v 0.056210 -0.166513 0.028063
v 0.021279 -0.159775 0.045648
v 0.025598 -0.174295 0.028318
v 0.130418 -0.140126 -0.009119
v 0.121459 -0.138571 0.009661
v 0.094477 -0.159745 0.009609
v 0.130418 -0.140126 -0.009119
v 0.094477 -0.159745 0.009609
v 0.102138 -0.163167 -0.009215
v 0.121459 -0.138571 0.009661
v 0.109161 -0.134978 0.027387
v 0.084516 -0.153315 0.027605
v 0.121459 -0.138571 0.009661
v 0.084516 -0.153315 0.027605
v 0.094477 -0.159745 0.009609
v 0.109161 -0.134978 0.027387
v 0.096131 -0.129716 0.042129
v 0.074863 -0.143947 0.043147
v 0.109161 -0.134978 0.027387
v 0.074863 -0.143947 0.043147
v 0.084516 -0.153315 0.027605
v 0.096131 -0.129716 0.042129
v 0.086136 -0.124542 0.051548
v 0.069123 -0.131092 0.055256
v 0.096131 -0.129716 0.042129
v 0.069123 -0.131092 0.055256
v 0.074863 -0.143947 0.043147
v 0.074863 -0.143947 0.043147
v 0.069123 -0.131092 0.055256
v 0.045229 -0.137536 0.058661
v 0.074863 -0.143947 0.043147
v 0.045229 -0.137536 0.058661
v 0.049277 -0.153999 0.044760
v 0.049277 -0.153999 0.044760
v 0.045229 -0.137536 0.058661
v 0.018864 -0.141193 0.060468
v 0.049277 -0.153999 0.044760
v 0.018864 -0.141193 0.060468
v 0.021279 -0.159775 0.045648
v 0.021279 -0.159775 0.045648
v 0.018864 -0.141193 0.060468
v -0.008398 -0.141098 0.060955
v 0.021279 -0.159775 0.045648
v -0.008398 -0.141098 0.060955
v -0.007709 -0.160680 0.045870
v 0.025598 -0.174295 0.028318
v 0.021279 -0.159775 0.045648
v -0.007709 -0.160680 0.045870
v 0.025598 -0.174295 0.028318
v -0.007709 -0.160680 0.045870
v -0.006036 -0.176174 0.028380
v 0.030440 -0.184661 0.009605
v 0.025598 -0.174295 0.028318
v -0.006036 -0.176174 0.028380
v 0.030440 -0.184661 0.009605
v -0.006036 -0.176174 0.028380
v -0.003970 -0.187385 0.009603
v 0.034457 -0.190756 -0.009330
v 0.030440 -0.184661 0.009605
v -0.003970 -0.187385 0.009603
v 0.034457 -0.190756 -0.009330
v -0.003970 -0.187385 0.009603
v -0.002100 -0.194119 -0.009344
v 0.069677 -0.180241 -0.009287
v 0.063695 -0.175274 0.009609
v 0.030440 -0.184661 0.009605
v 0.069677 -0.180241 -0.009287
v 0.030440 -0.184661 0.009605
v 0.034457 -0.190756 -0.009330
v 0.102138 -0.163167 -0.009215
v 0.094477 -0.159745 0.009609
v 0.063695 -0.175274 0.009609
v 0.102138 -0.163167 -0.009215
v 0.063695 -0.175274 0.009609
v 0.069677 -0.180241 -0.009287
v -0.037454 -0.176223 -0.057273
v -0.037902 -0.187772 -0.043633
v -0.073649 -0.176681 -0.043428
v -0.037454 -0.176223 -0.057273
v -0.073649 -0.176681 -0.043428
v -0.072393 -0.166173 -0.056749
v -0.037902 -0.187772 -0.043633
v -0.038390 -0.191889 -0.027373
v -0.074306 -0.180449 -0.027306
v -0.037902 -0.187772 -0.043633
v -0.074306 -0.180449 -0.027306
v -0.073649 -0.176681 -0.043428
v -0.072393 -0.166173 -0.056749
v -0.073649 -0.176681 -0.043428
v -0.105724 -0.159244 -0.043015
v -0.072393 -0.166173 -0.056749
v -0.105724 -0.159244 -0.043015
v -0.102549 -0.150884 -0.055611
v -0.073649 -0.176681 -0.043428
v -0.074306 -0.180449 -0.027306
v -0.107099 -0.162337 -0.027188
v -0.073649 -0.176681 -0.043428
v -0.107099 -0.162337 -0.027188
v -0.105724 -0.159244 -0.043015
v -0.000001 -0.158995 -0.067624
v -0.000034 -0.179860 -0.057356
v -0.037454 -0.176223 -0.057273
v -0.000001 -0.158995 -0.067624
v -0.037454 -0.176223 -0.057273
v -0.037479 -0.155825 -0.067491
v -0.000034 -0.179860 -0.057356
v -0.000264 -0.191702 -0.043672
v -0.037902 -0.187772 -0.043633
v -0.000034 -0.179860 -0.057356
v -0.037902 -0.187772 -0.043633
v -0.037454 -0.176223 -0.057273
v -0.000264 -0.191702 -0.043672
v -0.000887 -0.195972 -0.027393
v -0.038390 -0.191889 -0.027373
v -0.000264 -0.191702 -0.043672
v -0.038390 -0.191889 -0.027373
v -0.037902 -0.187772 -0.043633
v -0.000887 -0.195972 -0.027393
v -0.002100 -0.194119 -0.009344
v -0.038575 -0.189941 -0.009327
v -0.000887 -0.195972 -0.027393
v -0.038575 -0.189941 -0.009327
v -0.038390 -0.191889 -0.027373
v -0.038390 -0.191889 -0.027373
v -0.038575 -0.189941 -0.009327
v -0.073555 -0.178642 -0.009280
v -0.038390 -0.191889 -0.027373
v -0.073555 -0.178642 -0.009280
v -0.074306 -0.180449 -0.027306
v -0.074306 -0.180449 -0.027306
v -0.073555 -0.178642 -0.009280
v -0.105630 -0.160843 -0.009206
v -0.074306 -0.180449 -0.027306
v -0.105630 -0.160843 -0.009206
v -0.107099 -0.162337 -0.027188
v -0.107099 -0.162337 -0.027188
v -0.105630 -0.160843 -0.009206
v -0.133391 -0.137166 -0.009107
v -0.107099 -0.162337 -0.027188
v -0.133391 -0.137166 -0.009107
v -0.135281 -0.138200 -0.027062
v -0.105724 -0.159244 -0.043015
v -0.107099 -0.162337 -0.027188
v -0.135281 -0.138200 -0.027062
v -0.105724 -0.159244 -0.043015
v -0.135281 -0.138200 -0.027062
v -0.132748 -0.135960 -0.042714
v -0.102549 -0.150884 -0.055611
v -0.105724 -0.159244 -0.043015
v -0.132748 -0.135960 -0.042714
v -0.102549 -0.150884 -0.055611
v -0.132748 -0.135960 -0.042714
v -0.126490 -0.130781 -0.054781
v -0.100913 -0.135644 -0.064500
v -0.102549 -0.150884 -0.055611
v -0.126490 -0.130781 -0.054781
v -0.100913 -0.135644 -0.064500
v -0.126490 -0.130781 -0.054781
v -0.119552 -0.124911 -0.061887
v -0.072087 -0.147399 -0.066618
v -0.072393 -0.166173 -0.056749
v -0.102549 -0.150884 -0.055611
v -0.072087 -0.147399 -0.066618
v -0.102549 -0.150884 -0.055611
v -0.100913 -0.135644 -0.064500
v -0.037479 -0.155825 -0.067491
v -0.037454 -0.176223 -0.057273
v -0.072393 -0.166173 -0.056749
v -0.037479 -0.155825 -0.067491
v -0.072393 -0.166173 -0.056749
v -0.072087 -0.147399 -0.066618
v -0.038222 -0.183105 0.009612
v -0.037429 -0.171823 0.028329
v -0.067329 -0.161745 0.028083
v -0.038222 -0.183105 0.009612
v -0.067329 -0.161745 0.028083
v -0.071020 -0.172229 0.009621
v -0.037429 -0.171823 0.028329
v -0.036383 -0.156340 0.045662
v -0.063439 -0.147510 0.044788
v -0.037429 -0.171823 0.028329
v -0.063439 -0.147510 0.044788
v -0.067329 -0.161745 0.028083
v -0.071020 -0.172229 0.009621
v -0.067329 -0.161745 0.028083
v -0.094487 -0.146560 0.027633
v -0.071020 -0.172229 0.009621
v -0.094487 -0.146560 0.027633
v -0.101068 -0.155342 0.009628
v -0.067329 -0.161745 0.028083
v -0.063439 -0.147510 0.044788
v -0.087504 -0.135069 0.043184
v -0.067329 -0.161745 0.028083
v -0.087504 -0.135069 0.043184
v -0.094487 -0.146560 0.027633
v -0.002100 -0.194119 -0.009344
v -0.003970 -0.187385 0.009603
v -0.038222 -0.183105 0.009612
v -0.002100 -0.194119 -0.009344
v -0.038222 -0.183105 0.009612
v -0.038575 -0.189941 -0.009327
v -0.003970 -0.187385 0.009603
v -0.006036 -0.176174 0.028380
v -0.037429 -0.171823 0.028329
v -0.003970 -0.187385 0.009603
v -0.037429 -0.171823 0.028329
v -0.038222 -0.183105 0.009612
v -0.006036 -0.176174 0.028380
v -0.007709 -0.160680 0.045870
v -0.036383 -0.156340 0.045662
v -0.006036 -0.176174 0.028380
v -0.036383 -0.156340 0.045662
v -0.037429 -0.171823 0.028329
v -0.007709 -0.160680 0.045870
v -0.008398 -0.141098 0.060955
v -0.035316 -0.136852 0.060486
v -0.007709 -0.160680 0.045870
v -0.035316 -0.136852 0.060486
v -0.036383 -0.156340 0.045662
v -0.036383 -0.156340 0.045662
v -0.035316 -0.136852 0.060486
v -0.060638 -0.129442 0.058695
v -0.036383 -0.156340 0.045662
v -0.060638 -0.129442 0.058695
v -0.063439 -0.147510 0.044788
v -0.063439 -0.147510 0.044788
v -0.060638 -0.129442 0.058695
v -0.082856 -0.120352 0.055301
v -0.063439 -0.147510 0.044788
v -0.082856 -0.120352 0.055301
v -0.087504 -0.135069 0.043184
v -0.087504 -0.135069 0.043184
v -0.082856 -0.120352 0.055301
v -0.098199 -0.112521 0.051598
v -0.087504 -0.135069 0.043184
v -0.098199 -0.112521 0.051598
v -0.106956 -0.118930 0.042174
v -0.094487 -0.146560 0.027633
v -0.087504 -0.135069 0.043184
v -0.106956 -0.118930 0.042174
v -0.094487 -0.146560 0.027633
v -0.106956 -0.118930 0.042174
v -0.117658 -0.126514 0.027422
v -0.101068 -0.155342 0.009628
v -0.094487 -0.146560 0.027633
v -0.117658 -0.126514 0.027422
v -0.101068 -0.155342 0.009628
v -0.117658 -0.126514 0.027422
v -0.127072 -0.132981 0.009684
v -0.105630 -0.160843 -0.009206
v -0.101068 -0.155342 0.009628
v -0.127072 -0.132981 0.009684
v -0.105630 -0.160843 -0.009206
v -0.127072 -0.132981 0.009684
v -0.133391 -0.137166 -0.009107
v -0.073555 -0.178642 -0.009280
v -0.071020 -0.172229 0.009621
v -0.101068 -0.155342 0.009628
v -0.073555 -0.178642 -0.009280
v -0.101068 -0.155342 0.009628
v -0.105630 -0.160843 -0.009206
v -0.038575 -0.189941 -0.009327
v -0.038222 -0.183105 0.009612
v -0.071020 -0.172229 0.009621
v -0.038575 -0.189941 -0.009327
v -0.071020 -0.172229 0.009621
v -0.073555 -0.178642 -0.009280
f 1 2 3
f 4 5 6
f 7 8 9
f 10 11 12
f 13 14 15
f 16 17 18
f 19 20 21
f 22 23 24
f 25 26 27
f 28 29 30
f 31 32 33
f 34 35 36
f 37 38 39
f 40 41 42
f 43 44 45
f 46 47 48
f 49 50 51
f 52 53 54
f 55 56 57
f 58 59 60
f 61 62 63
f 64 65 66
f 67 68 69
f 70 71 72
f 73 74 75
f 76 77 78
f 79 80 81
f 82 83 84
f 85 86 87
f 88 89 90
f 91 92 93
f 94 95 96
f 97 98 99
f 100 101 102
f 103 104 105
f 106 107 108
f 109 110 111
f 112 113 114
f 115 116 117
f 118 119 120
f 121 122 123
f 124 125 126
f 127 128 129
f 130 131 132
f 133 134 135
f 136 137 138
f 139 140 141
f 142 143 144
f 145 146 147
f 148 149 150
f 151 152 153
f 154 155 156
f 157 158 159
f 160 161 162
f 163 164 165
f 166 167 168
f 169 170 171
f 172 173 174
f 175 176 177
f 178 179 180
f 181 182 183
f 184 185 186
f 187 188 189
f 190 191 192
f 193 194 195
f 196 197 198
f 199 200 201
f 202 203 204
f 205 206 207
f 208 209 210
f 211 212 213
f 214 215 216
f 217 218 219
f 220 221 222
f 223 224 225
f 226 227 228
f 229 230 231
f 232 233 234
f 235 236 237
f 238 239 240
f 241 242 243
f 244 245 246
f 247 248 249
f 250 251 252
f 253 254 255
f 256 257 258
f 259 260 261
f 262 263 264
f 265 266 267
f 268 269 270
f 271 272 273
f 274 275 276
f 277 278 279
f 280 281 282
f 283 284 285
f 286 287 288
f 289 290 291
f 292 293 294
f 295 296 297
f 298 299 300
f 301 302 303
f 304 305 306
f 307 308 309
f 310 311 312
f 313 314 315
f 316 317 318
f 319 320 321
f 322 323 324
f 325 326 327
f 328 329 330
f 331 332 333
f 334 335 336
f 337 338 339
f 340 341 342
f 343 344 345
f 346 347 348
f 349 350 351
f 352 353 354
f 355 356 357
f 358 359 360
f 361 362 363
f 364 365 366
f 367 368 369
f 370 371 372
f 373 374 375
f 376 377 378
f 379 380 381
f 382 383 384
f 385 386 387
f 388 389 390
f 391 392 393
f 394 395 396
f 397 398 399
f 400 401 402
f 403 404 405
f 406 407 408
f 409 410 411
f 412 413 414
f 415 416 417
f 418 419 420
f 421 422 423
f 424 425 426
f 427 428 429
f 430 431 432
f 433 434 435
f 436 437 438
f 439 440 441
f 442 443 444
f 445 446 447
f 448 449 450
f 451 452 453
f 454 455 456
f 457 458 459
f 460 461 462
f 463 464 465
f 466 467 468
f 469 470 471
f 472 473 474
f 475 476 477
f 478 479 480
f 481 482 483
f 484 485 486
f 487 488 489
f 490 491 492
f 493 494 495
f 496 497 498
f 499 500 501
f 502 503 504
f 505 506 507
f 508 509 510
f 511 512 513
f 514 515 516
f 517 518 519
f 520 521 522
f 523 524 525
f 526 527 528
f 529 530 531
f 532 533 534
f 535 536 537
f 538 539 540
f 541 542 543
f 544 545 546
f 547 548 549
f 550 551 552
f 553 554 555
f 556 557 558
f 559 560 561
f 562 563 564
f 565 566 567
f 568 569 570
f 571 572 573
f 574 575 576
f 577 578 579
f 580 581 582
f 583 584 585
f 586 587 588
f 589 590 591
f 592 593 594
f 595 596 597
f 598 599 600
f 601 602 603
f 604 605 606
f 607 608 609
f 610 611 612
f 613 614 615
f 616 617 618
f 619 620 621
f 622 623 624
f 625 626 627
f 628 629 630
f 631 632 633
f 634 635 636
f 637 638 639
f 640 641 642
f 643 644 645
f 646 647 648
f 649 650 651
f 652 653 654
f 655 656 657
f 658 659 660
f 661 662 663
f 664 665 666
f 667 668 669
f 670 671 672
f 673 674 675
f 676 677 678
f 679 680 681
f 682 683 684
f 685 686 687
f 688 689 690
f 691 692 693
f 694 695 696
f 697 698 699
f 700 701 702
f 703 704 705
f 706 707 708
f 709 710 711
f 712 713 714
f 715 716 717
f 718 719 720
f 721 722 723
f 724 725 726
f 727 728 729
f 730 731 732
f 733 734 735
f 736 737 738
f 739 740 741
f 742 743 744
f 745 746 747
f 748 749 750
f 751 752 753
f 754 755 756
f 757 758 759
f 760 761 762
f 763 764 765
f 766 767 768
f 769 770 771
f 772 773 774
f 775 776 777
f 778 779 780
f 781 782 783
f 784 785 786
f 787 788 789
f 790 791 792
f 793 794 795
f 796 797 798
f 799 800 801
f 802 803 804
f 805 806 807
f 808 809 810
f 811 812 813
f 814 815 816
f 817 818 819
f 820 821 822
f 823 824 825
f 826 827 828
f 829 830 831
f 832 833 834
f 835 836 837
f 838 839 840
f 841 842 843
f 844 845 846
f 847 848 849
f 850 851 852
f 853 854 855
f 856 857 858
f 859 860 861
f 862 863 864
f 865 866 867
f 868 869 870
f 871 872 873
f 874 875 876
f 877 878 879
f 880 881 882
f 883 884 885
f 886 887 888
f 889 890 891
f 892 893 894
f 895 896 897
f 898 899 900
f 901 902 903
f 904 905 906
f 907 908 909
f 910 911 912
f 913 914 915
f 916 917 918
f 919 920 921
f 922 923 924
f 925 926 927
f 928 929 930
f 931 932 933
f 934 935 936
f 937 938 939
f 940 941 942
f 943 944 945
f 946 947 948
f 949 950 951
f 952 953 954
f 955 956 957
f 958 959 960
f 961 962 963
f 964 965 966
f 967 968 969
f 970 971 972
f 973 974 975
f 976 977 978
f 979 980 981
f 982 983 984
f 985 986 987
f 988 989 990
f 991 992 993
f 994 995 996
f 997 998 999
f 1000 1001 1002
f 1003 1004 1005
f 1006 1007 1008
f 1009 1010 1011
f 1012 1013 1014
f 1015 1016 1017
f 1018 1019 1020
f 1021 1022 1023
f 1024 1025 1026
f 1027 1028 1029
f 1030 1031 1032
f 1033 1034 1035
f 1036 1037 1038
f 1039 1040 1041
f 1042 1043 1044
f 1045 1046 1047
f 1048 1049 1050
f 1051 1052 1053
f 1054 1055 1056
f 1057 1058 1059
f 1060 1061 1062
f 1063 1064 1065
f 1066 1067 1068
f 1069 1070 1071
f 1072 1073 1074
f 1075 1076 1077
f 1078 1079 1080
f 1081 1082 1083
f 1084 1085 1086
f 1087 1088 1089
f 1090 1091 1092
f 1093 1094 1095
f 1096 1097 1098
f 1099 1100 1101
f 1102 1103 1104
f 1105 1106 1107
f 1108 1109 1110
f 1111 1112 1113
f 1114 1115 1116
f 1117 1118 1119
f 1120 1121 1122
f 1123 1124 1125
f 1126 1127 1128
f 1129 1130 1131
f 1132 1133 1134
f 1135 1136 1137
f 1138 1139 1140
f 1141 1142 1143
f 1144 1145 1146
f 1147 1148 1149
f 1150 1151 1152
f 1153 1154 1155
f 1156 1157 1158
f 1159 1160 1161
f 1162 1163 1164
f 1165 1166 1167
f 1168 1169 1170
f 1171 1172 1173
f 1174 1175 1176
f 1177 1178 1179
f 1180 1181 1182
f 1183 1184 1185
f 1186 1187 1188
f 1189 1190 1191
f 1192 1193 1194
f 1195 1196 1197
f 1198 1199 1200
f 1201 1202 1203
f 1204 1205 1206
f 1207 1208 1209
f 1210 1211 1212
f 1213 1214 1215
f 1216 1217 1218
f 1219 1220 1221
f 1222 1223 1224
f 1225 1226 1227
f 1228 1229 1230
f 1231 1232 1233
f 1234 1235 1236
f 1237 1238 1239
f 1240 1241 1242
f 1243 1244 1245
f 1246 1247 1248
f 1249 1250 1251
f 1252 1253 1254
f 1255 1256 1257
f 1258 1259 1260
f 1261 1262 1263
f 1264 1265 1266
f 1267 1268 1269
f 1270 1271 1272
f 1273 1274 1275
f 1276 1277 1278
f 1279 1280 1281
f 1282 1283 1284
f 1285 1286 1287
f 1288 1289 1290
f 1291 1292 1293
f 1294 1295 1296
f 1297 1298 1299
f 1300 1301 1302
f 1303 1304 1305
f 1306 1307 1308
f 1309 1310 1311
f 1312 1313 1314
f 1315 1316 1317
f 1318 1319 1320
f 1321 1322 1323
f 1324 1325 1326
f 1327 1328 1329
f 1330 1331 1332
f 1333 1334 1335
f 1336 1337 1338
f 1339 1340 1341
f 1342 1343 1344
f 1345 1346 1347
f 1348 1349 1350
f 1351 1352 1353
f 1354 1355 1356
f 1357 1358 1359
f 1360 1361 1362
f 1363 1364 1365
f 1366 1367 1368
f 1369 1370 1371
f 1372 1373 1374
f 1375 1376 1377
f 1378 1379 1380
f 1381 1382 1383
f 1384 1385 1386
f 1387 1388 1389
f 1390 1391 1392
f 1393 1394 1395
f 1396 1397 1398
f 1399 1400 1401
f 1402 1403 1404
f 1405 1406 1407
f 1408 1409 1410
f 1411 1412 1413
f 1414 1415 1416
f 1417 1418 1419
f 1420 1421 1422
f 1423 1424 1425
f 1426 1427 1428
f 1429 1430 1431
f 1432 1433 1434
f 1435 1436 1437
f 1438 1439 1440
f 1441 1442 1443
f 1444 1445 1446
f 1447 1448 1449
f 1450 1451 1452
f 1453 1454 1455
f 1456 1457 1458
f 1459 1460 1461
f 1462 1463 1464
f 1465 1466 1467
f 1468 1469 1470
f 1471 1472 1473
f 1474 1475 1476
f 1477 1478 1479
f 1480 1481 1482
f 1483 1484 1485
f 1486 1487 1488
f 1489 1490 1491
f 1492 1493 1494
f 1495 1496 1497
f 1498 1499 1500
f 1501 1502 1503
f 1504 1505 1506
f 1507 1508 1509
f 1510 1511 1512
f 1513 1514 1515
f 1516 1517 1518
f 1519 1520 1521
f 1522 1523 1524
f 1525 1526 1527
f 1528 1529 1530
f 1531 1532 1533
f 1534 1535 1536
f 1537 1538 1539
f 1540 1541 1542
f 1543 1544 1545
f 1546 1547 1548
f 1549 1550 1551
f 1552 1553 1554
f 1555 1556 1557
f 1558 1559 1560
f 1561 1562 1563
f 1564 1565 1566
f 1567 1568 1569
f 1570 1571 1572
f 1573 1574 1575
f 1576 1577 1578
f 1579 1580 1581
f 1582 1583 1584
f 1585 1586 1587
f 1588 1589 1590
f 1591 1592 1593
f 1594 1595 1596
f 1597 1598 1599
f 1600 1601 1602
f 1603 1604 1605
f 1606 1607 1608
f 1609 1610 1611
f 1612 1613 1614
f 1615 1616 1617
f 1618 1619 1620
f 1621 1622 1623
f 1624 1625 1626
f 1627 1628 1629
f 1630 1631 1632
f 1633 1634 1635
f 1636 1637 1638
f 1639 1640 1641
f 1642 1643 1644
f 1645 1646 1647
f 1648 1649 1650
f 1651 1652 1653
f 1654 1655 1656
f 1657 1658 1659
f 1660 1661 1662
f 1663 1664 1665
f 1666 1667 1668
f 1669 1670 1671
f 1672 1673 1674
f 1675 1676 1677
f 1678 1679 1680
f 1681 1682 1683
f 1684 1685 1686
f 1687 1688 1689
f 1690 1691 1692
f 1693 1694 1695
f 1696 1697 1698
f 1699 1700 1701
f 1702 1703 1704
f 1705 1706 1707
f 1708 1709 1710
f 1711 1712 1713
f 1714 1715 1716
f 1717 1718 1719
f 1720 1721 1722
f 1723 1724 1725
f 1726 1727 1728
f 1729 1730 1731
f 1732 1733 1734
f 1735 1736 1737
f 1738 1739 1740
f 1741 1742 1743
f 1744 1745 1746
f 1747 1748 1749
f 1750 1751 1752
f 1753 1754 1755
f 1756 1757 1758
f 1759 1760 1761
f 1762 1763 1764
f 1765 1766 1767
f 1768 1769 1770
f 1771 1772 1773
f 1774 1775 1776
f 1777 1778 1779
f 1780 1781 1782
f 1783 1784 1785
f 1786 1787 1788
f 1789 1790 1791
f 1792 1793 1794
f 1795 1796 1797
f 1798 1799 1800
f 1801 1802 1803
f 1804 1805 1806
f 1807 1808 1809
f 1810 1811 1812
f 1813 1814 1815
f 1816 1817 1818
f 1819 1820 1821
f 1822 1823 1824
f 1825 1826 1827
f 1828 1829 1830
f 1831 1832 1833
f 1834 1835 1836
f 1837 1838 1839
f 1840 1841 1842
f 1843 1844 1845
f 1846 1847 1848
f 1849 1850 1851
f 1852 1853 1854
f 1855 1856 1857
f 1858 1859 1860
f 1861 1862 1863
f 1864 1865 1866
f 1867 1868 1869
f 1870 1871 1872
f 1873 1874 1875
f 1876 1877 1878
f 1879 1880 1881
f 1882 1883 1884
f 1885 1886 1887
f 1888 1889 1890
f 1891 1892 1893
f 1894 1895 1896
f 1897 1898 1899
f 1900 1901 1902
f 1903 1904 1905
f 1906 1907 1908
f 1909 1910 1911
f 1912 1913 1914
f 1915 1916 1917
f 1918 1919 1920
f 1921 1922 1923
f 1924 1925 1926
f 1927 1928 1929
f 1930 1931 1932
f 1933 1934 1935
f 1936 1937 1938
f 1939 1940 1941
f 1942 1943 1944
f 1945 1946 1947
f 1948 1949 1950
f 1951 1952 1953
f 1954 1955 1956
f 1957 1958 1959
f 1960 1961 1962
f 1963 1964 1965
f 1966 1967 1968
f 1969 1970 1971
f 1972 1973 1974
f 1975 1976 1977
f 1978 1979 1980
f 1981 1982 1983
f 1984 1985 1986
f 1987 1988 1989
f 1990 1991 1992
f 1993 1994 1995
f 1996 1997 1998
f 1999 2000 2001
f 2002 2003 2004
f 2005 2006 2007
f 2008 2009 2010
f 2011 2012 2013
f 2014 2015 2016
f 2017 2018 2019
f 2020 2021 2022
f 2023 2024 2025
f 2026 2027 2028
f 2029 2030 2031
f 2032 2033 2034
f 2035 2036 2037
f 2038 2039 2040
f 2041 2042 2043
f 2044 2045 2046
f 2047 2048 2049
f 2050 2051 2052
f 2053 2054 2055
f 2056 2057 2058
f 2059 2060 2061
f 2062 2063 2064
f 2065 2066 2067
f 2068 2069 2070
f 2071 2072 2073
f 2074 2075 2076
f 2077 2078 2079
f 2080 2081 2082
f 2083 2084 2085
f 2086 2087 2088
f 2089 2090 2091
f 2092 2093 2094
f 2095 2096 2097
f 2098 2099 2100
f 2101 2102 2103
f 2104 2105 2106
f 2107 2108 2109
f 2110 2111 2112
f 2113 2114 2115
f 2116 2117 2118
f 2119 2120 2121
f 2122 2123 2124
f 2125 2126 2127
f 2128 2129 2130
f 2131 2132 2133
f 2134 2135 2136
f 2137 2138 2139
f 2140 2141 2142
f 2143 2144 2145
f 2146 2147 2148
f 2149 2150 2151
f 2152 2153 2154
f 2155 2156 2157
f 2158 2159 2160
f 2161 2162 2163
f 2164 2165 2166
f 2167 2168 2169
f 2170 2171 2172
f 2173 2174 2175
f 2176 2177 2178
f 2179 2180 2181
f 2182 2183 2184
f 2185 2186 2187
f 2188 2189 2190
f 2191 2192 2193
f 2194 2195 2196
f 2197 2198 2199
f 2200 2201 2202
f 2203 2204 2205
f 2206 2207 2208
f 2209 2210 2211
f 2212 2213 2214
f 2215 2216 2217
f 2218 2219 2220
f 2221 2222 2223
f 2224 2225 2226
f 2227 2228 2229
f 2230 2231 2232
f 2233 2234 2235
f 2236 2237 2238
f 2239 2240 2241
f 2242 2243 2244
f 2245 2246 2247
f 2248 2249 2250
f 2251 2252 2253
f 2254 2255 2256
f 2257 2258 2259
f 2260 2261 2262
f 2263 2264 2265
f 2266 2267 2268
f 2269 2270 2271
f 2272 2273 2274
f 2275 2276 2277
f 2278 2279 2280
f 2281 2282 2283
f 2284 2285 2286
f 2287 2288 2289
f 2290 2291 2292
f 2293 2294 2295
f 2296 2297 2298
f 2299 2300 2301
f 2302 2303 2304
