# lizard mesh
v -0.155620 0.021469 -0.022878
v -0.144167 -0.012263 -0.065325
v -0.137789 -0.023587 -0.054056
v -0.155620 0.021469 -0.022878
v -0.137789 -0.023587 -0.054056
v -0.149068 0.009632 -0.012253
v -0.149068 0.009632 -0.012253
v -0.137789 -0.023587 -0.054056
v -0.126244 -0.030092 -0.043538
v -0.149068 0.009632 -0.012253
v -0.126244 -0.030092 -0.043538
v -0.136815 0.001044 -0.004356
v -0.136815 0.001044 -0.004356
v -0.126244 -0.030092 -0.043538
v -0.111288 -0.030787 -0.035372
v -0.136815 0.001044 -0.004356
v -0.111288 -0.030787 -0.035372
v -0.120727 -0.002987 -0.000389
v -0.120727 -0.002987 -0.000389
v -0.111288 -0.030787 -0.035372
v -0.095200 -0.025567 -0.030802
v -0.120727 -0.002987 -0.000389
v -0.095200 -0.025567 -0.030802
v -0.103252 -0.001850 -0.000956
v -0.220636 0.266334 -0.301282
v -0.230168 0.294408 -0.265953
v -0.230008 0.308887 -0.278745
v -0.220636 0.266334 -0.301282
v -0.230008 0.308887 -0.278745
v -0.220897 0.282051 -0.312514
v -0.220897 0.282051 -0.312514
v -0.230008 0.308887 -0.278745
v -0.222572 0.322738 -0.290799
v -0.220897 0.282051 -0.312514
v -0.222572 0.322738 -0.290799
v -0.214427 0.298751 -0.320985
v -0.214427 0.298751 -0.320985
v -0.222572 0.322738 -0.290799
v -0.208990 0.333853 -0.300281
v -0.214427 0.298751 -0.320985
v -0.208990 0.333853 -0.300281
v -0.202211 0.313888 -0.325405
v -0.202211 0.313888 -0.325405
v -0.208990 0.333853 -0.300281
v -0.188080 0.340356 -0.305504
v -0.202211 0.313888 -0.325405
v -0.188080 0.340356 -0.305504
v -0.183105 0.325704 -0.323942
v -0.144167 -0.012263 -0.065325
v -0.113595 -0.036353 -0.104769
v -0.107682 -0.047312 -0.092901
v -0.144167 -0.012263 -0.065325
v -0.107682 -0.047312 -0.092901
v -0.137789 -0.023587 -0.054056
v -0.137789 -0.023587 -0.054056
v -0.107682 -0.047312 -0.092901
v -0.098024 -0.052329 -0.079947
v -0.137789 -0.023587 -0.054056
v -0.098024 -0.052329 -0.079947
v -0.126244 -0.030092 -0.043538
v -0.126244 -0.030092 -0.043538
v -0.098024 -0.052329 -0.079947
v -0.086093 -0.050641 -0.067880
v -0.126244 -0.030092 -0.043538
v -0.086093 -0.050641 -0.067880
v -0.111288 -0.030787 -0.035372
v -0.111288 -0.030787 -0.035372
v -0.086093 -0.050641 -0.067880
v -0.073704 -0.042505 -0.058536
v -0.111288 -0.030787 -0.035372
v -0.073704 -0.042505 -0.058536
v -0.095200 -0.025567 -0.030802
v -0.195192 0.246283 -0.334110
v -0.220636 0.266334 -0.301282
v -0.220897 0.282051 -0.312514
v -0.195192 0.246283 -0.334110
v -0.220897 0.282051 -0.312514
v -0.196576 0.262886 -0.343893
v -0.196576 0.262886 -0.343893
v -0.220897 0.282051 -0.312514
v -0.214427 0.298751 -0.320985
v -0.196576 0.262886 -0.343893
v -0.214427 0.298751 -0.320985
v -0.192687 0.281619 -0.349034
v -0.192687 0.281619 -0.349034
v -0.214427 0.298751 -0.320985
v -0.202211 0.313888 -0.325405
v -0.192687 0.281619 -0.349034
v -0.202211 0.313888 -0.325405
v -0.184117 0.299630 -0.348750
v -0.184117 0.299630 -0.348750
v -0.202211 0.313888 -0.325405
v -0.183105 0.325704 -0.323942
v -0.184117 0.299630 -0.348750
v -0.183105 0.325704 -0.323942
v -0.169825 0.315239 -0.341076
v -0.113595 -0.036353 -0.104769
v -0.068559 -0.047136 -0.135203
v -0.063329 -0.057931 -0.122873
v -0.113595 -0.036353 -0.104769
v -0.063329 -0.057931 -0.122873
v -0.107682 -0.047312 -0.092901
v -0.107682 -0.047312 -0.092901
v -0.063329 -0.057931 -0.122873
v -0.056452 -0.062282 -0.108040
v -0.107682 -0.047312 -0.092901
v -0.056452 -0.062282 -0.108040
v -0.098024 -0.052329 -0.079947
v -0.098024 -0.052329 -0.079947
v -0.056452 -0.062282 -0.108040
v -0.048976 -0.059528 -0.092962
v -0.098024 -0.052329 -0.079947
v -0.048976 -0.059528 -0.092962
v -0.086093 -0.050641 -0.067880
v -0.086093 -0.050641 -0.067880
v -0.048976 -0.059528 -0.092962
v -0.042038 -0.050087 -0.079935
v -0.086093 -0.050641 -0.067880
v -0.042038 -0.050087 -0.079935
v -0.073704 -0.042505 -0.058536
v -0.157709 0.237309 -0.359440
v -0.195192 0.246283 -0.334110
v -0.196576 0.262886 -0.343893
v -0.157709 0.237309 -0.359440
v -0.196576 0.262886 -0.343893
v -0.160747 0.254308 -0.368105
v -0.160747 0.254308 -0.368105
v -0.196576 0.262886 -0.343893
v -0.192687 0.281619 -0.349034
v -0.160747 0.254308 -0.368105
v -0.192687 0.281619 -0.349034
v -0.160660 0.273951 -0.370677
v -0.160660 0.273951 -0.370677
v -0.192687 0.281619 -0.349034
v -0.184117 0.299630 -0.348750
v -0.160660 0.273951 -0.370677
v -0.184117 0.299630 -0.348750
v -0.157461 0.293248 -0.366763
v -0.157461 0.293248 -0.366763
v -0.184117 0.299630 -0.348750
v -0.169825 0.315239 -0.341076
v -0.157461 0.293248 -0.366763
v -0.169825 0.315239 -0.341076
v -0.150262 0.310555 -0.354297
v -0.068559 -0.047136 -0.135203
v -0.015915 -0.042968 -0.151995
v -0.011484 -0.053827 -0.139410
v -0.068559 -0.047136 -0.135203
v -0.011484 -0.053827 -0.139410
v -0.063329 -0.057931 -0.122873
v -0.063329 -0.057931 -0.122873
v -0.011484 -0.053827 -0.139410
v -0.007858 -0.058435 -0.123540
v -0.063329 -0.057931 -0.122873
v -0.007858 -0.058435 -0.123540
v -0.056452 -0.062282 -0.108040
v -0.056452 -0.062282 -0.108040
v -0.007858 -0.058435 -0.123540
v -0.005589 -0.056093 -0.106801
v -0.056452 -0.062282 -0.108040
v -0.005589 -0.056093 -0.106801
v -0.048976 -0.059528 -0.092962
v -0.048976 -0.059528 -0.092962
v -0.005589 -0.056093 -0.106801
v -0.005023 -0.047157 -0.091741
v -0.048976 -0.059528 -0.092962
v -0.005023 -0.047157 -0.091741
v -0.042038 -0.050087 -0.079935
v -0.113894 0.240778 -0.373415
v -0.157709 0.237309 -0.359440
v -0.160747 0.254308 -0.368105
v -0.113894 0.240778 -0.373415
v -0.160747 0.254308 -0.368105
v -0.118866 0.257623 -0.381464
v -0.118866 0.257623 -0.381464
v -0.160747 0.254308 -0.368105
v -0.160660 0.273951 -0.370677
v -0.118866 0.257623 -0.381464
v -0.160660 0.273951 -0.370677
v -0.123223 0.276915 -0.382618
v -0.123223 0.276915 -0.382618
v -0.160660 0.273951 -0.370677
v -0.157461 0.293248 -0.366763
v -0.123223 0.276915 -0.382618
v -0.157461 0.293248 -0.366763
v -0.126303 0.295715 -0.376702
v -0.126303 0.295715 -0.376702
v -0.157461 0.293248 -0.366763
v -0.150262 0.310555 -0.354297
v -0.126303 0.295715 -0.376702
v -0.150262 0.310555 -0.354297
v -0.127394 0.312365 -0.361591
v -0.015915 -0.042968 -0.151995
v 0.036323 -0.024486 -0.152588
v 0.039961 -0.035624 -0.139994
v -0.015915 -0.042968 -0.151995
v 0.039961 -0.035624 -0.139994
v -0.011484 -0.053827 -0.139410
v -0.011484 -0.053827 -0.139410
v 0.039961 -0.035624 -0.139994
v 0.040361 -0.041375 -0.124088
v -0.011484 -0.053827 -0.139410
v 0.040361 -0.041375 -0.124088
v -0.007858 -0.058435 -0.123540
v -0.007858 -0.058435 -0.123540
v 0.040361 -0.041375 -0.124088
v 0.037463 -0.040861 -0.107290
v -0.007858 -0.058435 -0.123540
v 0.037463 -0.040861 -0.107290
v -0.005589 -0.056093 -0.106801
v -0.005589 -0.056093 -0.106801
v 0.037463 -0.040861 -0.107290
v 0.031707 -0.034161 -0.092158
v -0.005589 -0.056093 -0.106801
v 0.031707 -0.034161 -0.092158
v -0.005023 -0.047157 -0.091741
v -0.070417 0.256160 -0.373909
v -0.113894 0.240778 -0.373415
v -0.118866 0.257623 -0.381464
v -0.070417 0.256160 -0.373909
v -0.118866 0.257623 -0.381464
v -0.077308 0.272327 -0.381936
v -0.077308 0.272327 -0.381936
v -0.118866 0.257623 -0.381464
v -0.123223 0.276915 -0.382618
v -0.077308 0.272327 -0.381936
v -0.123223 0.276915 -0.382618
v -0.086075 0.290058 -0.383040
v -0.086075 0.290058 -0.383040
v -0.123223 0.276915 -0.382618
v -0.126303 0.295715 -0.376702
v -0.086075 0.290058 -0.383040
v -0.126303 0.295715 -0.376702
v -0.095385 0.306654 -0.377053
v -0.095385 0.306654 -0.377053
v -0.126303 0.295715 -0.376702
v -0.127394 0.312365 -0.361591
v -0.095385 0.306654 -0.377053
v -0.127394 0.312365 -0.361591
v -0.104702 0.320394 -0.361849
v 0.036323 -0.024486 -0.152588
v 0.080202 0.005499 -0.136892
v 0.083174 -0.006095 -0.124536
v 0.036323 -0.024486 -0.152588
v 0.083174 -0.006095 -0.124536
v 0.039961 -0.035624 -0.139994
v 0.039961 -0.035624 -0.139994
v 0.083174 -0.006095 -0.124536
v 0.080864 -0.013697 -0.109599
v 0.039961 -0.035624 -0.139994
v 0.080864 -0.013697 -0.109599
v 0.040361 -0.041375 -0.124088
v 0.040361 -0.041375 -0.124088
v 0.080864 -0.013697 -0.109599
v 0.073625 -0.016149 -0.094354
v 0.040361 -0.041375 -0.124088
v 0.073625 -0.016149 -0.094354
v 0.037463 -0.040861 -0.107290
v 0.037463 -0.040861 -0.107290
v 0.073625 -0.016149 -0.094354
v 0.062559 -0.013079 -0.081122
v 0.037463 -0.040861 -0.107290
v 0.062559 -0.013079 -0.081122
v 0.031707 -0.034161 -0.092158
v -0.033897 0.281116 -0.360846
v -0.070417 0.256160 -0.373909
v -0.077308 0.272327 -0.381936
v -0.033897 0.281116 -0.360846
v -0.077308 0.272327 -0.381936
v -0.042400 0.296181 -0.369449
v -0.042400 0.296181 -0.369449
v -0.077308 0.272327 -0.381936
v -0.086075 0.290058 -0.383040
v -0.042400 0.296181 -0.369449
v -0.086075 0.290058 -0.383040
v -0.054872 0.311381 -0.371878
v -0.054872 0.311381 -0.371878
v -0.086075 0.290058 -0.383040
v -0.095385 0.306654 -0.377053
v -0.054872 0.311381 -0.371878
v -0.095385 0.306654 -0.377053
v -0.069414 0.324401 -0.367763
v -0.069414 0.324401 -0.367763
v -0.095385 0.306654 -0.377053
v -0.104702 0.320394 -0.361849
v -0.069414 0.324401 -0.367763
v -0.104702 0.320394 -0.361849
v -0.085641 0.333419 -0.355030
v 0.080202 0.005499 -0.136892
v 0.109041 0.042420 -0.107296
v 0.111575 0.030265 -0.095390
v 0.080202 0.005499 -0.136892
v 0.111575 0.030265 -0.095390
v 0.083174 -0.006095 -0.124536
v 0.083174 -0.006095 -0.124536
v 0.111575 0.030265 -0.095390
v 0.107485 0.020383 -0.082280
v 0.083174 -0.006095 -0.124536
v 0.107485 0.020383 -0.082280
v 0.080864 -0.013697 -0.109599
v 0.080864 -0.013697 -0.109599
v 0.107485 0.020383 -0.082280
v 0.097393 0.014279 -0.069963
v 0.080864 -0.013697 -0.109599
v 0.097393 0.014279 -0.069963
v 0.073625 -0.016149 -0.094354
v 0.073625 -0.016149 -0.094354
v 0.097393 0.014279 -0.069963
v 0.082836 0.012881 -0.060313
v 0.073625 -0.016149 -0.094354
v 0.082836 0.012881 -0.060313
v 0.062559 -0.013079 -0.081122
v -0.009895 0.311845 -0.336214
v -0.033897 0.281116 -0.360846
v -0.042400 0.296181 -0.369449
v -0.009895 0.311845 -0.336214
v -0.042400 0.296181 -0.369449
v -0.019457 0.325554 -0.345904
v -0.019457 0.325554 -0.345904
v -0.042400 0.296181 -0.369449
v -0.054872 0.311381 -0.371878
v -0.019457 0.325554 -0.345904
v -0.054872 0.311381 -0.371878
v -0.034363 0.337637 -0.350832
v -0.034363 0.337637 -0.350832
v -0.054872 0.311381 -0.371878
v -0.069414 0.324401 -0.367763
v -0.034363 0.337637 -0.350832
v -0.069414 0.324401 -0.367763
v -0.052345 0.346253 -0.350246
v -0.052345 0.346253 -0.350246
v -0.069414 0.324401 -0.367763
v -0.085641 0.333419 -0.355030
v -0.052345 0.346253 -0.350246
v -0.085641 0.333419 -0.355030
v -0.073114 0.349457 -0.342174
v 0.109041 0.042420 -0.107296
v 0.118451 0.080656 -0.068307
v 0.120842 0.067921 -0.056993
v 0.109041 0.042420 -0.107296
v 0.120842 0.067921 -0.056993
v 0.111575 0.030265 -0.095390
v 0.111575 0.030265 -0.095390
v 0.120842 0.067921 -0.056993
v 0.116171 0.055679 -0.046291
v 0.111575 0.030265 -0.095390
v 0.116171 0.055679 -0.046291
v 0.107485 0.020383 -0.082280
v 0.107485 0.020383 -0.082280
v 0.116171 0.055679 -0.046291
v 0.105148 0.045792 -0.037830
v 0.107485 0.020383 -0.082280
v 0.105148 0.045792 -0.037830
v 0.097393 0.014279 -0.069963
v 0.097393 0.014279 -0.069963
v 0.105148 0.045792 -0.037830
v 0.089452 0.039766 -0.032899
v 0.097393 0.014279 -0.069963
v 0.089452 0.039766 -0.032899
v 0.082836 0.012881 -0.060313
v -0.002063 0.343669 -0.303764
v -0.009895 0.311845 -0.336214
v -0.019457 0.325554 -0.345904
v -0.002063 0.343669 -0.303764
v -0.019457 0.325554 -0.345904
v -0.011971 0.355973 -0.314886
v -0.011971 0.355973 -0.314886
v -0.019457 0.325554 -0.345904
v -0.034363 0.337637 -0.350832
v -0.011971 0.355973 -0.314886
v -0.034363 0.337637 -0.350832
v -0.027672 0.364828 -0.323105
v -0.027672 0.364828 -0.323105
v -0.034363 0.337637 -0.350832
v -0.052345 0.346253 -0.350246
v -0.027672 0.364828 -0.323105
v -0.052345 0.346253 -0.350246
v -0.046776 0.368884 -0.327169
v -0.046776 0.368884 -0.327169
v -0.052345 0.346253 -0.350246
v -0.073114 0.349457 -0.342174
v -0.046776 0.368884 -0.327169
v -0.073114 0.349457 -0.342174
v -0.069026 0.366067 -0.325238
v 0.118451 0.080656 -0.068307
v 0.106998 0.114388 -0.025859
v 0.109563 0.101141 -0.015190
v 0.118451 0.080656 -0.068307
v 0.109563 0.101141 -0.015190
v 0.120842 0.067921 -0.056993
v 0.120842 0.067921 -0.056993
v 0.109563 0.101141 -0.015190
v 0.105599 0.086815 -0.007109
v 0.120842 0.067921 -0.056993
v 0.105599 0.086815 -0.007109
v 0.116171 0.055679 -0.046291
v 0.116171 0.055679 -0.046291
v 0.105599 0.086815 -0.007109
v 0.095709 0.073592 -0.002847
v 0.116171 0.055679 -0.046291
v 0.095709 0.073592 -0.002847
v 0.105148 0.045792 -0.037830
v 0.105148 0.045792 -0.037830
v 0.095709 0.073592 -0.002847
v 0.081400 0.063484 -0.003053
v 0.105148 0.045792 -0.037830
v 0.081400 0.063484 -0.003053
v 0.089452 0.039766 -0.032899
v -0.011595 0.371743 -0.268435
v -0.002063 0.343669 -0.303764
v -0.011971 0.355973 -0.314886
v -0.011595 0.371743 -0.268435
v -0.011971 0.355973 -0.314886
v -0.021083 0.382808 -0.281117
v -0.021083 0.382808 -0.281117
v -0.011971 0.355973 -0.314886
v -0.027672 0.364828 -0.323105
v -0.021083 0.382808 -0.281117
v -0.027672 0.364828 -0.323105
v -0.035817 0.388815 -0.292920
v -0.035817 0.388815 -0.292920
v -0.027672 0.364828 -0.323105
v -0.046776 0.368884 -0.327169
v -0.035817 0.388815 -0.292920
v -0.046776 0.368884 -0.327169
v -0.053554 0.388849 -0.302046
v -0.053554 0.388849 -0.302046
v -0.046776 0.368884 -0.327169
v -0.069026 0.366067 -0.325238
v -0.053554 0.388849 -0.302046
v -0.069026 0.366067 -0.325238
v -0.074002 0.380719 -0.306799
v 0.106998 0.114388 -0.025859
v 0.076426 0.138478 0.013584
v 0.079455 0.124866 0.023655
v 0.106998 0.114388 -0.025859
v 0.079455 0.124866 0.023655
v 0.109563 0.101141 -0.015190
v 0.109563 0.101141 -0.015190
v 0.079455 0.124866 0.023655
v 0.077379 0.109052 0.029300
v 0.109563 0.101141 -0.015190
v 0.077379 0.109052 0.029300
v 0.105599 0.086815 -0.007109
v 0.105599 0.086815 -0.007109
v 0.077379 0.109052 0.029300
v 0.070514 0.093446 0.029660
v 0.105599 0.086815 -0.007109
v 0.070514 0.093446 0.029660
v 0.095709 0.073592 -0.002847
v 0.095709 0.073592 -0.002847
v 0.070514 0.093446 0.029660
v 0.059904 0.080422 0.024680
v 0.095709 0.073592 -0.002847
v 0.059904 0.080422 0.024680
v 0.081400 0.063484 -0.003053
v -0.037040 0.391793 -0.235607
v -0.011595 0.371743 -0.268435
v -0.021083 0.382808 -0.281117
v -0.037040 0.391793 -0.235607
v -0.021083 0.382808 -0.281117
v -0.045404 0.401974 -0.249738
v -0.045404 0.401974 -0.249738
v -0.021083 0.382808 -0.281117
v -0.035817 0.388815 -0.292920
v -0.045404 0.401974 -0.249738
v -0.035817 0.388815 -0.292920
v -0.057557 0.405947 -0.264870
v -0.057557 0.405947 -0.264870
v -0.035817 0.388815 -0.292920
v -0.053554 0.388849 -0.302046
v -0.057557 0.405947 -0.264870
v -0.053554 0.388849 -0.302046
v -0.071649 0.403107 -0.278701
v -0.071649 0.403107 -0.278701
v -0.053554 0.388849 -0.302046
v -0.074002 0.380719 -0.306799
v -0.071649 0.403107 -0.278701
v -0.074002 0.380719 -0.306799
v -0.087282 0.391184 -0.289665
v 0.076426 0.138478 0.013584
v 0.031390 0.149261 0.044018
v 0.035103 0.135484 0.053627
v 0.076426 0.138478 0.013584
v 0.035103 0.135484 0.053627
v 0.079455 0.124866 0.023655
v 0.079455 0.124866 0.023655
v 0.035103 0.135484 0.053627
v 0.035808 0.119005 0.057393
v 0.079455 0.124866 0.023655
v 0.035808 0.119005 0.057393
v 0.077379 0.109052 0.029300
v 0.077379 0.109052 0.029300
v 0.035808 0.119005 0.057393
v 0.033397 0.102332 0.054743
v 0.077379 0.109052 0.029300
v 0.033397 0.102332 0.054743
v 0.070514 0.093446 0.029660
v 0.070514 0.093446 0.029660
v 0.033397 0.102332 0.054743
v 0.028238 0.088004 0.046079
v 0.070514 0.093446 0.029660
v 0.028238 0.088004 0.046079
v 0.059904 0.080422 0.024680
v -0.074523 0.400767 -0.210277
v -0.037040 0.391793 -0.235607
v -0.045404 0.401974 -0.249738
v -0.074523 0.400767 -0.210277
v -0.045404 0.401974 -0.249738
v -0.081232 0.410552 -0.225526
v -0.081232 0.410552 -0.225526
v -0.045404 0.401974 -0.249738
v -0.057557 0.405947 -0.264870
v -0.081232 0.410552 -0.225526
v -0.057557 0.405947 -0.264870
v -0.089583 0.413614 -0.243228
v -0.089583 0.413614 -0.243228
v -0.057557 0.405947 -0.264870
v -0.071649 0.403107 -0.278701
v -0.089583 0.413614 -0.243228
v -0.071649 0.403107 -0.278701
v -0.098304 0.409489 -0.260688
v -0.098304 0.409489 -0.260688
v -0.071649 0.403107 -0.278701
v -0.087282 0.391184 -0.289665
v -0.098304 0.409489 -0.260688
v -0.087282 0.391184 -0.289665
v -0.106845 0.395868 -0.276445
v 0.031390 0.149261 0.044018
v -0.021254 0.145094 0.060810
v -0.016742 0.131380 0.070164
v 0.031390 0.149261 0.044018
v -0.016742 0.131380 0.070164
v 0.035103 0.135484 0.053627
v 0.035103 0.135484 0.053627
v -0.016742 0.131380 0.070164
v -0.012787 0.115158 0.072893
v 0.035103 0.135484 0.053627
v -0.012787 0.115158 0.072893
v 0.035808 0.119005 0.057393
v 0.035808 0.119005 0.057393
v -0.012787 0.115158 0.072893
v -0.009990 0.098898 0.068582
v 0.035808 0.119005 0.057393
v -0.009990 0.098898 0.068582
v 0.033397 0.102332 0.054743
v 0.033397 0.102332 0.054743
v -0.009990 0.098898 0.068582
v -0.008777 0.085073 0.057886
v 0.033397 0.102332 0.054743
v -0.008777 0.085073 0.057886
v 0.028238 0.088004 0.046079
v -0.118338 0.397299 -0.196301
v -0.074523 0.400767 -0.210277
v -0.081232 0.410552 -0.225526
v -0.118338 0.397299 -0.196301
v -0.081232 0.410552 -0.225526
v -0.123114 0.407236 -0.212167
v -0.123114 0.407236 -0.212167
v -0.081232 0.410552 -0.225526
v -0.089583 0.413614 -0.243228
v -0.123114 0.407236 -0.212167
v -0.089583 0.413614 -0.243228
v -0.127020 0.410651 -0.231286
v -0.127020 0.410651 -0.231286
v -0.089583 0.413614 -0.243228
v -0.098304 0.409489 -0.260688
v -0.127020 0.410651 -0.231286
v -0.098304 0.409489 -0.260688
v -0.129463 0.407023 -0.250749
v -0.129463 0.407023 -0.250749
v -0.098304 0.409489 -0.260688
v -0.106845 0.395868 -0.276445
v -0.129463 0.407023 -0.250749
v -0.106845 0.395868 -0.276445
v -0.129713 0.394058 -0.269150
v -0.021254 0.145094 0.060810
v -0.073492 0.126611 0.061403
v -0.068187 0.113178 0.070748
v -0.021254 0.145094 0.060810
v -0.068187 0.113178 0.070748
v -0.016742 0.131380 0.070164
v -0.016742 0.131380 0.070164
v -0.068187 0.113178 0.070748
v -0.061006 0.098098 0.073441
v -0.016742 0.131380 0.070164
v -0.061006 0.098098 0.073441
v -0.012787 0.115158 0.072893
v -0.012787 0.115158 0.072893
v -0.061006 0.098098 0.073441
v -0.053042 0.083665 0.069071
v -0.012787 0.115158 0.072893
v -0.053042 0.083665 0.069071
v -0.009990 0.098898 0.068582
v -0.009990 0.098898 0.068582
v -0.053042 0.083665 0.069071
v -0.045507 0.072078 0.058303
v -0.009990 0.098898 0.068582
v -0.045507 0.072078 0.058303
v -0.008777 0.085073 0.057886
v -0.161815 0.381916 -0.195808
v -0.118338 0.397299 -0.196301
v -0.123114 0.407236 -0.212167
v -0.161815 0.381916 -0.195808
v -0.123114 0.407236 -0.212167
v -0.164672 0.392532 -0.211695
v -0.164672 0.392532 -0.211695
v -0.123114 0.407236 -0.212167
v -0.127020 0.410651 -0.231286
v -0.164672 0.392532 -0.211695
v -0.127020 0.410651 -0.231286
v -0.164168 0.397507 -0.230865
v -0.164168 0.397507 -0.230865
v -0.127020 0.410651 -0.231286
v -0.129463 0.407023 -0.250749
v -0.164168 0.397507 -0.230865
v -0.129463 0.407023 -0.250749
v -0.160381 0.396083 -0.250398
v -0.160381 0.396083 -0.250398
v -0.129463 0.407023 -0.250749
v -0.129713 0.394058 -0.269150
v -0.160381 0.396083 -0.250398
v -0.129713 0.394058 -0.269150
v -0.152405 0.386029 -0.268893
v -0.073492 0.126611 0.061403
v -0.117371 0.096626 0.045707
v -0.111400 0.083649 0.055291
v -0.073492 0.126611 0.061403
v -0.111400 0.083649 0.055291
v -0.068187 0.113178 0.070748
v -0.068187 0.113178 0.070748
v -0.111400 0.083649 0.055291
v -0.101509 0.070420 0.058952
v -0.068187 0.113178 0.070748
v -0.101509 0.070420 0.058952
v -0.061006 0.098098 0.073441
v -0.061006 0.098098 0.073441
v -0.101509 0.070420 0.058952
v -0.089204 0.058954 0.056135
v -0.061006 0.098098 0.073441
v -0.089204 0.058954 0.056135
v -0.053042 0.083665 0.069071
v -0.053042 0.083665 0.069071
v -0.089204 0.058954 0.056135
v -0.076359 0.050995 0.047267
v -0.053042 0.083665 0.069071
v -0.076359 0.050995 0.047267
v -0.045507 0.072078 0.058303
v -0.198334 0.356960 -0.208871
v -0.161815 0.381916 -0.195808
v -0.164672 0.392532 -0.211695
v -0.198334 0.356960 -0.208871
v -0.164672 0.392532 -0.211695
v -0.199579 0.368678 -0.224182
v -0.199579 0.368678 -0.224182
v -0.164672 0.392532 -0.211695
v -0.164168 0.397507 -0.230865
v -0.199579 0.368678 -0.224182
v -0.164168 0.397507 -0.230865
v -0.195372 0.376185 -0.242027
v -0.195372 0.376185 -0.242027
v -0.164168 0.397507 -0.230865
v -0.160381 0.396083 -0.250398
v -0.195372 0.376185 -0.242027
v -0.160381 0.396083 -0.250398
v -0.186351 0.378336 -0.259688
v -0.186351 0.378336 -0.259688
v -0.160381 0.396083 -0.250398
v -0.152405 0.386029 -0.268893
v -0.186351 0.378336 -0.259688
v -0.152405 0.386029 -0.268893
v -0.171465 0.373004 -0.275711
v -0.117371 0.096626 0.045707
v -0.146211 0.059706 0.016112
v -0.139802 0.047289 0.026145
v -0.117371 0.096626 0.045707
v -0.139802 0.047289 0.026145
v -0.111400 0.083649 0.055291
v -0.111400 0.083649 0.055291
v -0.139802 0.047289 0.026145
v -0.128130 0.036339 0.031634
v -0.111400 0.083649 0.055291
v -0.128130 0.036339 0.031634
v -0.101509 0.070420 0.058952
v -0.101509 0.070420 0.058952
v -0.128130 0.036339 0.031634
v -0.112972 0.028525 0.031744
v -0.101509 0.070420 0.058952
v -0.112972 0.028525 0.031744
v -0.089204 0.058954 0.056135
v -0.089204 0.058954 0.056135
v -0.112972 0.028525 0.031744
v -0.096636 0.025035 0.026458
v -0.089204 0.058954 0.056135
v -0.096636 0.025035 0.026458
v -0.076359 0.050995 0.047267
v -0.222337 0.326232 -0.233503
v -0.198334 0.356960 -0.208871
v -0.199579 0.368678 -0.224182
v -0.222337 0.326232 -0.233503
v -0.199579 0.368678 -0.224182
v -0.222523 0.339306 -0.247727
v -0.222523 0.339306 -0.247727
v -0.199579 0.368678 -0.224182
v -0.195372 0.376185 -0.242027
v -0.222523 0.339306 -0.247727
v -0.195372 0.376185 -0.242027
v -0.215880 0.349929 -0.263073
v -0.215880 0.349929 -0.263073
v -0.195372 0.376185 -0.242027
v -0.186351 0.378336 -0.259688
v -0.215880 0.349929 -0.263073
v -0.186351 0.378336 -0.259688
v -0.203420 0.356484 -0.277205
v -0.203420 0.356484 -0.277205
v -0.186351 0.378336 -0.259688
v -0.171465 0.373004 -0.275711
v -0.203420 0.356484 -0.277205
v -0.171465 0.373004 -0.275711
v -0.183993 0.356966 -0.288567
v -0.146211 0.059706 0.016112
v -0.155620 0.021469 -0.022878
v -0.149068 0.009632 -0.012253
v -0.146211 0.059706 0.016112
v -0.149068 0.009632 -0.012253
v -0.139802 0.047289 0.026145
v -0.139802 0.047289 0.026145
v -0.149068 0.009632 -0.012253
v -0.136815 0.001044 -0.004356
v -0.139802 0.047289 0.026145
v -0.136815 0.001044 -0.004356
v -0.128130 0.036339 0.031634
v -0.128130 0.036339 0.031634
v -0.136815 0.001044 -0.004356
v -0.120727 -0.002987 -0.000389
v -0.128130 0.036339 0.031634
v -0.120727 -0.002987 -0.000389
v -0.112972 0.028525 0.031744
v -0.112972 0.028525 0.031744
v -0.120727 -0.002987 -0.000389
v -0.103252 -0.001850 -0.000956
v -0.112972 0.028525 0.031744
v -0.103252 -0.001850 -0.000956
v -0.096636 0.025035 0.026458
v -0.230168 0.294408 -0.265953
v -0.222337 0.326232 -0.233503
v -0.222523 0.339306 -0.247727
v -0.230168 0.294408 -0.265953
v -0.222523 0.339306 -0.247727
v -0.230008 0.308887 -0.278745
v -0.230008 0.308887 -0.278745
v -0.222523 0.339306 -0.247727
v -0.215880 0.349929 -0.263073
v -0.230008 0.308887 -0.278745
v -0.215880 0.349929 -0.263073
v -0.222572 0.322738 -0.290799
v -0.222572 0.322738 -0.290799
v -0.215880 0.349929 -0.263073
v -0.203420 0.356484 -0.277205
v -0.222572 0.322738 -0.290799
v -0.203420 0.356484 -0.277205
v -0.208990 0.333853 -0.300281
v -0.208990 0.333853 -0.300281
v -0.203420 0.356484 -0.277205
v -0.183993 0.356966 -0.288567
v -0.208990 0.333853 -0.300281
v -0.183993 0.356966 -0.288567
v -0.188080 0.340356 -0.305504
v -0.103252 -0.001850 -0.000956
v -0.095200 -0.025567 -0.030802
v -0.073704 -0.042505 -0.058536
v -0.103252 -0.001850 -0.000956
v -0.073704 -0.042505 -0.058536
v -0.042038 -0.050087 -0.079935
v -0.103252 -0.001850 -0.000956
v -0.042038 -0.050087 -0.079935
v -0.005023 -0.047157 -0.091741
v -0.103252 -0.001850 -0.000956
v -0.005023 -0.047157 -0.091741
v 0.031707 -0.034161 -0.092158
v -0.103252 -0.001850 -0.000956
v 0.031707 -0.034161 -0.092158
v 0.062559 -0.013079 -0.081122
v -0.103252 -0.001850 -0.000956
v 0.062559 -0.013079 -0.081122
v 0.082836 0.012881 -0.060313
v -0.103252 -0.001850 -0.000956
v 0.082836 0.012881 -0.060313
v 0.089452 0.039766 -0.032899
v -0.103252 -0.001850 -0.000956
v 0.089452 0.039766 -0.032899
v 0.081400 0.063484 -0.003053
v -0.103252 -0.001850 -0.000956
v 0.081400 0.063484 -0.003053
v 0.059904 0.080422 0.024680
v -0.103252 -0.001850 -0.000956
v 0.059904 0.080422 0.024680
v 0.028238 0.088004 0.046079
v -0.103252 -0.001850 -0.000956
v 0.028238 0.088004 0.046079
v -0.008777 0.085073 0.057886
v -0.103252 -0.001850 -0.000956
v -0.008777 0.085073 0.057886
v -0.045507 0.072078 0.058303
v -0.103252 -0.001850 -0.000956
v -0.045507 0.072078 0.058303
v -0.076359 0.050995 0.047267
v -0.103252 -0.001850 -0.000956
v -0.076359 0.050995 0.047267
v -0.096636 0.025035 0.026458
v -0.155620 0.021469 -0.022878
v -0.230168 0.294408 -0.265953
v -0.220636 0.266334 -0.301282
v -0.155620 0.021469 -0.022878
v -0.220636 0.266334 -0.301282
v -0.144167 -0.012263 -0.065325
v -0.146211 0.059706 0.016112
v -0.222337 0.326232 -0.233503
v -0.230168 0.294408 -0.265953
v -0.146211 0.059706 0.016112
v -0.230168 0.294408 -0.265953
v -0.155620 0.021469 -0.022878
v -0.183105 0.325704 -0.323942
v -0.188080 0.340356 -0.305504
v -0.183993 0.356966 -0.288567
v -0.183105 0.325704 -0.323942
v -0.183993 0.356966 -0.288567
v -0.171465 0.373004 -0.275711
v -0.183105 0.325704 -0.323942
v -0.171465 0.373004 -0.275711
v -0.152405 0.386029 -0.268893
v -0.183105 0.325704 -0.323942
v -0.152405 0.386029 -0.268893
v -0.129713 0.394058 -0.269150
v -0.183105 0.325704 -0.323942
v -0.129713 0.394058 -0.269150
v -0.106845 0.395868 -0.276445
v -0.183105 0.325704 -0.323942
v -0.106845 0.395868 -0.276445
v -0.087282 0.391184 -0.289665
v -0.183105 0.325704 -0.323942
v -0.087282 0.391184 -0.289665
v -0.074002 0.380719 -0.306799
v -0.183105 0.325704 -0.323942
v -0.074002 0.380719 -0.306799
v -0.069026 0.366067 -0.325238
v -0.183105 0.325704 -0.323942
v -0.069026 0.366067 -0.325238
v -0.073114 0.349457 -0.342174
v -0.183105 0.325704 -0.323942
v -0.073114 0.349457 -0.342174
v -0.085641 0.333419 -0.355030
v -0.183105 0.325704 -0.323942
v -0.085641 0.333419 -0.355030
v -0.104702 0.320394 -0.361849
v -0.183105 0.325704 -0.323942
v -0.104702 0.320394 -0.361849
v -0.127394 0.312365 -0.361591
v -0.183105 0.325704 -0.323942
v -0.127394 0.312365 -0.361591
v -0.150262 0.310555 -0.354297
v -0.183105 0.325704 -0.323942
v -0.150262 0.310555 -0.354297
v -0.169825 0.315239 -0.341076
v -0.144167 -0.012263 -0.065325
v -0.220636 0.266334 -0.301282
v -0.195192 0.246283 -0.334110
v -0.144167 -0.012263 -0.065325
v -0.195192 0.246283 -0.334110
v -0.113595 -0.036353 -0.104769
v -0.113595 -0.036353 -0.104769
v -0.195192 0.246283 -0.334110
v -0.157709 0.237309 -0.359440
v -0.113595 -0.036353 -0.104769
v -0.157709 0.237309 -0.359440
v -0.068559 -0.047136 -0.135203
v -0.068559 -0.047136 -0.135203
v -0.157709 0.237309 -0.359440
v -0.113894 0.240778 -0.373415
v -0.068559 -0.047136 -0.135203
v -0.113894 0.240778 -0.373415
v -0.015915 -0.042968 -0.151995
v -0.015915 -0.042968 -0.151995
v -0.113894 0.240778 -0.373415
v -0.070417 0.256160 -0.373909
v -0.015915 -0.042968 -0.151995
v -0.070417 0.256160 -0.373909
v 0.036323 -0.024486 -0.152588
v 0.036323 -0.024486 -0.152588
v -0.070417 0.256160 -0.373909
v -0.033897 0.281116 -0.360846
v 0.036323 -0.024486 -0.152588
v -0.033897 0.281116 -0.360846
v 0.080202 0.005499 -0.136892
v 0.080202 0.005499 -0.136892
v -0.033897 0.281116 -0.360846
v -0.009895 0.311845 -0.336214
v 0.080202 0.005499 -0.136892
v -0.009895 0.311845 -0.336214
v 0.109041 0.042420 -0.107296
v 0.109041 0.042420 -0.107296
v -0.009895 0.311845 -0.336214
v -0.002063 0.343669 -0.303764
v 0.109041 0.042420 -0.107296
v -0.002063 0.343669 -0.303764
v 0.118451 0.080656 -0.068307
v 0.118451 0.080656 -0.068307
v -0.002063 0.343669 -0.303764
v -0.011595 0.371743 -0.268435
v 0.118451 0.080656 -0.068307
v -0.011595 0.371743 -0.268435
v 0.106998 0.114388 -0.025859
v 0.106998 0.114388 -0.025859
v -0.011595 0.371743 -0.268435
v -0.037040 0.391793 -0.235607
v 0.106998 0.114388 -0.025859
v -0.037040 0.391793 -0.235607
v 0.076426 0.138478 0.013584
v 0.076426 0.138478 0.013584
v -0.037040 0.391793 -0.235607
v -0.074523 0.400767 -0.210277
v 0.076426 0.138478 0.013584
v -0.074523 0.400767 -0.210277
v 0.031390 0.149261 0.044018
v 0.031390 0.149261 0.044018
v -0.074523 0.400767 -0.210277
v -0.118338 0.397299 -0.196301
v 0.031390 0.149261 0.044018
v -0.118338 0.397299 -0.196301
v -0.021254 0.145094 0.060810
v -0.021254 0.145094 0.060810
v -0.118338 0.397299 -0.196301
v -0.161815 0.381916 -0.195808
v -0.021254 0.145094 0.060810
v -0.161815 0.381916 -0.195808
v -0.073492 0.126611 0.061403
v -0.073492 0.126611 0.061403
v -0.161815 0.381916 -0.195808
v -0.198334 0.356960 -0.208871
v -0.073492 0.126611 0.061403
v -0.198334 0.356960 -0.208871
v -0.117371 0.096626 0.045707
v -0.117371 0.096626 0.045707
v -0.198334 0.356960 -0.208871
v -0.222337 0.326232 -0.233503
v -0.117371 0.096626 0.045707
v -0.222337 0.326232 -0.233503
v -0.146211 0.059706 0.016112
f 1 2 3
f 4 5 6
f 7 8 9
f 10 11 12
f 13 14 15
f 16 17 18
f 19 20 21
f 22 23 24
f 25 26 27
f 28 29 30
f 31 32 33
f 34 35 36
f 37 38 39
f 40 41 42
f 43 44 45
f 46 47 48
f 49 50 51
f 52 53 54
f 55 56 57
f 58 59 60
f 61 62 63
f 64 65 66
f 67 68 69
f 70 71 72
f 73 74 75
f 76 77 78
f 79 80 81
f 82 83 84
f 85 86 87
f 88 89 90
f 91 92 93
f 94 95 96
f 97 98 99
f 100 101 102
f 103 104 105
f 106 107 108
f 109 110 111
f 112 113 114
f 115 116 117
f 118 119 120
f 121 122 123
f 124 125 126
f 127 128 129
f 130 131 132
f 133 134 135
f 136 137 138
f 139 140 141
f 142 143 144
f 145 146 147
f 148 149 150
f 151 152 153
f 154 155 156
f 157 158 159
f 160 161 162
f 163 164 165
f 166 167 168
f 169 170 171
f 172 173 174
f 175 176 177
f 178 179 180
f 181 182 183
f 184 185 186
f 187 188 189
f 190 191 192
f 193 194 195
f 196 197 198
f 199 200 201
f 202 203 204
f 205 206 207
f 208 209 210
f 211 212 213
f 214 215 216
f 217 218 219
f 220 221 222
f 223 224 225
f 226 227 228
f 229 230 231
f 232 233 234
f 235 236 237
f 238 239 240
f 241 242 243
f 244 245 246
f 247 248 249
f 250 251 252
f 253 254 255
f 256 257 258
f 259 260 261
f 262 263 264
f 265 266 267
f 268 269 270
f 271 272 273
f 274 275 276
f 277 278 279
f 280 281 282
f 283 284 285
f 286 287 288
f 289 290 291
f 292 293 294
f 295 296 297
f 298 299 300
f 301 302 303
f 304 305 306
f 307 308 309
f 310 311 312
f 313 314 315
f 316 317 318
f 319 320 321
f 322 323 324
f 325 326 327
f 328 329 330
f 331 332 333
f 334 335 336
f 337 338 339
f 340 341 342
f 343 344 345
f 346 347 348
f 349 350 351
f 352 353 354
f 355 356 357
f 358 359 360
f 361 362 363
f 364 365 366
f 367 368 369
f 370 371 372
f 373 374 375
f 376 377 378
f 379 380 381
f 382 383 384
f 385 386 387
f 388 389 390
f 391 392 393
f 394 395 396
f 397 398 399
f 400 401 402
f 403 404 405
f 406 407 408
f 409 410 411
f 412 413 414
f 415 416 417
f 418 419 420
f 421 422 423
f 424 425 426
f 427 428 429
f 430 431 432
f 433 434 435
f 436 437 438
f 439 440 441
f 442 443 444
f 445 446 447
f 448 449 450
f 451 452 453
f 454 455 456
f 457 458 459
f 460 461 462
f 463 464 465
f 466 467 468
f 469 470 471
f 472 473 474
f 475 476 477
f 478 479 480
f 481 482 483
f 484 485 486
f 487 488 489
f 490 491 492
f 493 494 495
f 496 497 498
f 499 500 501
f 502 503 504
f 505 506 507
f 508 509 510
f 511 512 513
f 514 515 516
f 517 518 519
f 520 521 522
f 523 524 525
f 526 527 528
f 529 530 531
f 532 533 534
f 535 536 537
f 538 539 540
f 541 542 543
f 544 545 546
f 547 548 549
f 550 551 552
f 553 554 555
f 556 557 558
f 559 560 561
f 562 563 564
f 565 566 567
f 568 569 570
f 571 572 573
f 574 575 576
f 577 578 579
f 580 581 582
f 583 584 585
f 586 587 588
f 589 590 591
f 592 593 594
f 595 596 597
f 598 599 600
f 601 602 603
f 604 605 606
f 607 608 609
f 610 611 612
f 613 614 615
f 616 617 618
f 619 620 621
f 622 623 624
f 625 626 627
f 628 629 630
f 631 632 633
f 634 635 636
f 637 638 639
f 640 641 642
f 643 644 645
f 646 647 648
f 649 650 651
f 652 653 654
f 655 656 657
f 658 659 660
f 661 662 663
f 664 665 666
f 667 668 669
f 670 671 672
f 673 674 675
f 676 677 678
f 679 680 681
f 682 683 684
f 685 686 687
f 688 689 690
f 691 692 693
f 694 695 696
f 697 698 699
f 700 701 702
f 703 704 705
f 706 707 708
f 709 710 711
f 712 713 714
f 715 716 717
f 718 719 720
f 721 722 723
f 724 725 726
f 727 728 729
f 730 731 732
f 733 734 735
f 736 737 738
f 739 740 741
f 742 743 744
f 745 746 747
f 748 749 750
f 751 752 753
f 754 755 756
f 757 758 759
f 760 761 762
f 763 764 765
f 766 767 768
f 769 770 771
f 772 773 774
f 775 776 777
f 778 779 780
f 781 782 783
f 784 785 786
f 787 788 789
f 790 791 792
f 793 794 795
f 796 797 798
f 799 800 801
f 802 803 804
f 805 806 807
f 808 809 810
f 811 812 813
f 814 815 816
f 817 818 819
f 820 821 822
f 823 824 825
f 826 827 828
f 829 830 831
f 832 833 834
f 835 836 837
f 838 839 840
f 841 842 843
f 844 845 846
f 847 848 849
f 850 851 852
f 853 854 855
f 856 857 858
f 859 860 861
f 862 863 864
f 865 866 867
f 868 869 870
f 871 872 873
f 874 875 876
f 877 878 879
f 880 881 882
f 883 884 885
f 886 887 888
f 889 890 891
f 892 893 894
f 895 896 897
f 898 899 900
f 901 902 903
f 904 905 906
f 907 908 909
f 910 911 912
f 913 914 915
f 916 917 918
f 919 920 921
f 922 923 924
f 925 926 927
f 928 929 930
f 931 932 933
f 934 935 936
f 937 938 939
f 940 941 942
f 943 944 945
f 946 947 948
