# lizard mesh
v -0.063807 -0.164386 -0.272993
v -0.071137 -0.123816 -0.291939
v -0.063416 -0.130938 -0.307780
v -0.063807 -0.164386 -0.272993
v -0.063416 -0.130938 -0.307780
v -0.056410 -0.169717 -0.289670
v -0.056410 -0.169717 -0.289670
v -0.063416 -0.130938 -0.307780
v -0.049508 -0.136765 -0.320127
v -0.056410 -0.169717 -0.289670
v -0.049508 -0.136765 -0.320127
v -0.043246 -0.171429 -0.303939
v -0.043246 -0.171429 -0.303939
v -0.049508 -0.136765 -0.320127
v -0.031531 -0.140410 -0.327101
v -0.043246 -0.171429 -0.303939
v -0.031531 -0.140410 -0.327101
v -0.026319 -0.169260 -0.313628
v -0.026319 -0.169260 -0.313628
v -0.031531 -0.140410 -0.327101
v -0.012221 -0.141317 -0.327640
v -0.026319 -0.169260 -0.313628
v -0.012221 -0.141317 -0.327640
v -0.008206 -0.163541 -0.317262
v -0.040086 -0.198277 -0.254359
v -0.063807 -0.164386 -0.272993
v -0.056410 -0.169717 -0.289670
v -0.040086 -0.198277 -0.254359
v -0.056410 -0.169717 -0.289670
v -0.033735 -0.202113 -0.271858
v -0.033735 -0.202113 -0.271858
v -0.056410 -0.169717 -0.289670
v -0.043246 -0.171429 -0.303939
v -0.033735 -0.202113 -0.271858
v -0.043246 -0.171429 -0.303939
v -0.022977 -0.200387 -0.288017
v -0.022977 -0.200387 -0.288017
v -0.043246 -0.171429 -0.303939
v -0.026319 -0.169260 -0.313628
v -0.022977 -0.200387 -0.288017
v -0.026319 -0.169260 -0.313628
v -0.009449 -0.193362 -0.300376
v -0.009449 -0.193362 -0.300376
v -0.026319 -0.169260 -0.313628
v -0.008206 -0.163541 -0.317262
v -0.009449 -0.193362 -0.300376
v -0.008206 -0.163541 -0.317262
v 0.004789 -0.182107 -0.307054
v -0.003584 -0.220331 -0.238874
v -0.040086 -0.198277 -0.254359
v -0.033735 -0.202113 -0.271858
v -0.003584 -0.220331 -0.238874
v -0.033735 -0.202113 -0.271858
v 0.001156 -0.223194 -0.257057
v 0.001156 -0.223194 -0.257057
v -0.033735 -0.202113 -0.271858
v -0.022977 -0.200387 -0.288017
v 0.001156 -0.223194 -0.257057
v -0.022977 -0.200387 -0.288017
v 0.008211 -0.219231 -0.274786
v 0.008211 -0.219231 -0.274786
v -0.022977 -0.200387 -0.288017
v -0.009449 -0.193362 -0.300376
v 0.008211 -0.219231 -0.274786
v -0.009449 -0.193362 -0.300376
v 0.016509 -0.209046 -0.289364
v 0.016509 -0.209046 -0.289364
v -0.009449 -0.193362 -0.300376
v 0.004789 -0.182107 -0.307054
v 0.016509 -0.209046 -0.289364
v 0.004789 -0.182107 -0.307054
v 0.024785 -0.194189 -0.298571
v 0.040143 -0.227190 -0.228895
v -0.003584 -0.220331 -0.238874
v 0.001156 -0.223194 -0.257057
v 0.040143 -0.227190 -0.228895
v 0.001156 -0.223194 -0.257057
v 0.042952 -0.229749 -0.247518
v 0.042952 -0.229749 -0.247518
v 0.001156 -0.223194 -0.257057
v 0.008211 -0.219231 -0.274786
v 0.042952 -0.229749 -0.247518
v 0.008211 -0.219231 -0.274786
v 0.045572 -0.225091 -0.266260
v 0.045572 -0.225091 -0.266260
v 0.008211 -0.219231 -0.274786
v 0.016509 -0.209046 -0.289364
v 0.045572 -0.225091 -0.266260
v 0.016509 -0.209046 -0.289364
v 0.047604 -0.213923 -0.282268
v 0.047604 -0.213923 -0.282268
v 0.016509 -0.209046 -0.289364
v 0.024785 -0.194189 -0.298571
v 0.047604 -0.213923 -0.282268
v 0.024785 -0.194189 -0.298571
v 0.048738 -0.197946 -0.293104
v 0.084435 -0.217808 -0.225941
v 0.040143 -0.227190 -0.228895
v 0.042952 -0.229749 -0.247518
v 0.084435 -0.217808 -0.225941
v 0.042952 -0.229749 -0.247518
v 0.085290 -0.220782 -0.244695
v 0.085290 -0.220782 -0.244695
v 0.042952 -0.229749 -0.247518
v 0.045572 -0.225091 -0.266260
v 0.085290 -0.220782 -0.244695
v 0.045572 -0.225091 -0.266260
v 0.083417 -0.217075 -0.263736
v 0.083417 -0.217075 -0.263736
v 0.045572 -0.225091 -0.266260
v 0.047604 -0.213923 -0.282268
v 0.083417 -0.217075 -0.263736
v 0.047604 -0.213923 -0.282268
v 0.079103 -0.207252 -0.280167
v 0.079103 -0.207252 -0.280167
v 0.047604 -0.213923 -0.282268
v 0.048738 -0.197946 -0.293104
v 0.079103 -0.207252 -0.280167
v 0.048738 -0.197946 -0.293104
v 0.073002 -0.192807 -0.291486
v 0.122552 -0.193616 -0.230463
v 0.084435 -0.217808 -0.225941
v 0.085290 -0.220782 -0.244695
v 0.122552 -0.193616 -0.230463
v 0.085290 -0.220782 -0.244695
v 0.121724 -0.197658 -0.249017
v 0.121724 -0.197658 -0.249017
v 0.085290 -0.220782 -0.244695
v 0.083417 -0.217075 -0.263736
v 0.121724 -0.197658 -0.249017
v 0.083417 -0.217075 -0.263736
v 0.115985 -0.196405 -0.267600
v 0.115985 -0.196405 -0.267600
v 0.083417 -0.217075 -0.263736
v 0.079103 -0.207252 -0.280167
v 0.115985 -0.196405 -0.267600
v 0.079103 -0.207252 -0.280167
v 0.106209 -0.190047 -0.283383
v 0.106209 -0.190047 -0.283383
v 0.079103 -0.207252 -0.280167
v 0.073002 -0.192807 -0.291486
v 0.106209 -0.190047 -0.283383
v 0.073002 -0.192807 -0.291486
v 0.093883 -0.179554 -0.293963
v 0.148689 -0.158295 -0.241771
v 0.122552 -0.193616 -0.230463
v 0.121724 -0.197658 -0.249017
v 0.148689 -0.158295 -0.241771
v 0.121724 -0.197658 -0.249017
v 0.146708 -0.163896 -0.259826
v 0.146708 -0.163896 -0.259826
v 0.121724 -0.197658 -0.249017
v 0.115985 -0.196405 -0.267600
v 0.146708 -0.163896 -0.259826
v 0.115985 -0.196405 -0.267600
v 0.138318 -0.166226 -0.277262
v 0.138318 -0.166226 -0.277262
v 0.115985 -0.196405 -0.267600
v 0.106209 -0.190047 -0.283383
v 0.138318 -0.166226 -0.277262
v 0.106209 -0.190047 -0.283383
v 0.124796 -0.164930 -0.291425
v 0.124796 -0.164930 -0.291425
v 0.106209 -0.190047 -0.283383
v 0.093883 -0.179554 -0.293963
v 0.124796 -0.164930 -0.291425
v 0.093883 -0.179554 -0.293963
v 0.108201 -0.160205 -0.300158
v 0.158868 -0.117224 -0.258145
v 0.148689 -0.158295 -0.241771
v 0.146708 -0.163896 -0.259826
v 0.158868 -0.117224 -0.258145
v 0.146708 -0.163896 -0.259826
v 0.156438 -0.124637 -0.275477
v 0.156438 -0.124637 -0.275477
v 0.146708 -0.163896 -0.259826
v 0.138318 -0.166226 -0.277262
v 0.156438 -0.124637 -0.275477
v 0.138318 -0.166226 -0.277262
v 0.147015 -0.131133 -0.291252
v 0.147015 -0.131133 -0.291252
v 0.138318 -0.166226 -0.277262
v 0.124796 -0.164930 -0.291425
v 0.147015 -0.131133 -0.291252
v 0.124796 -0.164930 -0.291425
v 0.132035 -0.135722 -0.303069
v 0.132035 -0.135722 -0.303069
v 0.124796 -0.164930 -0.291425
v 0.108201 -0.160205 -0.300158
v 0.132035 -0.135722 -0.303069
v 0.108201 -0.160205 -0.300158
v 0.113777 -0.137706 -0.309128
v 0.151539 -0.076654 -0.277091
v 0.158868 -0.117224 -0.258145
v 0.156438 -0.124637 -0.275477
v 0.151539 -0.076654 -0.277091
v 0.156438 -0.124637 -0.275477
v 0.149432 -0.085858 -0.293587
v 0.149432 -0.085858 -0.293587
v 0.156438 -0.124637 -0.275477
v 0.147015 -0.131133 -0.291252
v 0.149432 -0.085858 -0.293587
v 0.147015 -0.131133 -0.291252
v 0.140753 -0.096469 -0.307440
v 0.140753 -0.096469 -0.307440
v 0.147015 -0.131133 -0.291252
v 0.132035 -0.135722 -0.303069
v 0.140753 -0.096469 -0.307440
v 0.132035 -0.135722 -0.303069
v 0.126822 -0.106871 -0.316542
v 0.126822 -0.106871 -0.316542
v 0.132035 -0.135722 -0.303069
v 0.113777 -0.137706 -0.309128
v 0.126822 -0.106871 -0.316542
v 0.113777 -0.137706 -0.309128
v 0.109762 -0.115482 -0.319507
v 0.127817 -0.042762 -0.295725
v 0.151539 -0.076654 -0.277091
v 0.149432 -0.085858 -0.293587
v 0.127817 -0.042762 -0.295725
v 0.149432 -0.085858 -0.293587
v 0.126757 -0.053462 -0.311399
v 0.126757 -0.053462 -0.311399
v 0.149432 -0.085858 -0.293587
v 0.140753 -0.096469 -0.307440
v 0.126757 -0.053462 -0.311399
v 0.140753 -0.096469 -0.307440
v 0.120484 -0.067511 -0.323362
v 0.120484 -0.067511 -0.323362
v 0.140753 -0.096469 -0.307440
v 0.126822 -0.106871 -0.316542
v 0.120484 -0.067511 -0.323362
v 0.126822 -0.106871 -0.316542
v 0.109953 -0.082770 -0.329793
v 0.109953 -0.082770 -0.329793
v 0.126822 -0.106871 -0.316542
v 0.109762 -0.115482 -0.319507
v 0.109953 -0.082770 -0.329793
v 0.109762 -0.115482 -0.319507
v 0.096767 -0.096916 -0.329714
v 0.091315 -0.020709 -0.311211
v 0.127817 -0.042762 -0.295725
v 0.126757 -0.053462 -0.311399
v 0.091315 -0.020709 -0.311211
v 0.126757 -0.053462 -0.311399
v 0.091866 -0.032382 -0.326201
v 0.091866 -0.032382 -0.326201
v 0.126757 -0.053462 -0.311399
v 0.120484 -0.067511 -0.323362
v 0.091866 -0.032382 -0.326201
v 0.120484 -0.067511 -0.323362
v 0.089296 -0.048667 -0.336593
v 0.089296 -0.048667 -0.336593
v 0.120484 -0.067511 -0.323362
v 0.109953 -0.082770 -0.329793
v 0.089296 -0.048667 -0.336593
v 0.109953 -0.082770 -0.329793
v 0.083995 -0.067086 -0.340806
v 0.083995 -0.067086 -0.340806
v 0.109953 -0.082770 -0.329793
v 0.096767 -0.096916 -0.329714
v 0.083995 -0.067086 -0.340806
v 0.096767 -0.096916 -0.329714
v 0.076771 -0.084834 -0.338197
v 0.047589 -0.013850 -0.321190
v 0.091315 -0.020709 -0.311211
v 0.091866 -0.032382 -0.326201
v 0.047589 -0.013850 -0.321190
v 0.091866 -0.032382 -0.326201
v 0.050070 -0.025826 -0.335739
v 0.050070 -0.025826 -0.335739
v 0.091866 -0.032382 -0.326201
v 0.089296 -0.048667 -0.336593
v 0.050070 -0.025826 -0.335739
v 0.089296 -0.048667 -0.336593
v 0.051935 -0.042807 -0.345119
v 0.051935 -0.042807 -0.345119
v 0.089296 -0.048667 -0.336593
v 0.083995 -0.067086 -0.340806
v 0.051935 -0.042807 -0.345119
v 0.083995 -0.067086 -0.340806
v 0.052900 -0.062209 -0.347902
v 0.052900 -0.062209 -0.347902
v 0.083995 -0.067086 -0.340806
v 0.076771 -0.084834 -0.338197
v 0.052900 -0.062209 -0.347902
v 0.076771 -0.084834 -0.338197
v 0.052818 -0.081077 -0.343664
v 0.003296 -0.023231 -0.324143
v 0.047589 -0.013850 -0.321190
v 0.050070 -0.025826 -0.335739
v 0.003296 -0.023231 -0.324143
v 0.050070 -0.025826 -0.335739
v 0.007732 -0.034793 -0.338562
v 0.007732 -0.034793 -0.338562
v 0.050070 -0.025826 -0.335739
v 0.051935 -0.042807 -0.345119
v 0.007732 -0.034793 -0.338562
v 0.051935 -0.042807 -0.345119
v 0.014090 -0.050823 -0.347643
v 0.014090 -0.050823 -0.347643
v 0.051935 -0.042807 -0.345119
v 0.052900 -0.062209 -0.347902
v 0.014090 -0.050823 -0.347643
v 0.052900 -0.062209 -0.347902
v 0.021401 -0.068880 -0.350002
v 0.021401 -0.068880 -0.350002
v 0.052900 -0.062209 -0.347902
v 0.052818 -0.081077 -0.343664
v 0.021401 -0.068880 -0.350002
v 0.052818 -0.081077 -0.343664
v 0.028554 -0.086216 -0.345282
v -0.034821 -0.047424 -0.319622
v 0.003296 -0.023231 -0.324143
v 0.007732 -0.034793 -0.338562
v -0.034821 -0.047424 -0.319622
v 0.007732 -0.034793 -0.338562
v -0.028702 -0.057917 -0.334240
v -0.028702 -0.057917 -0.334240
v 0.007732 -0.034793 -0.338562
v 0.014090 -0.050823 -0.347643
v -0.028702 -0.057917 -0.334240
v 0.014090 -0.050823 -0.347643
v -0.018478 -0.071493 -0.343779
v -0.018478 -0.071493 -0.343779
v 0.014090 -0.050823 -0.347643
v 0.021401 -0.068880 -0.350002
v -0.018478 -0.071493 -0.343779
v 0.021401 -0.068880 -0.350002
v -0.005705 -0.086084 -0.346787
v -0.005705 -0.086084 -0.346787
v 0.021401 -0.068880 -0.350002
v 0.028554 -0.086216 -0.345282
v -0.005705 -0.086084 -0.346787
v 0.028554 -0.086216 -0.345282
v 0.007673 -0.099469 -0.342805
v -0.060958 -0.082744 -0.308313
v -0.034821 -0.047424 -0.319622
v -0.028702 -0.057917 -0.334240
v -0.060958 -0.082744 -0.308313
v -0.028702 -0.057917 -0.334240
v -0.053686 -0.091679 -0.323431
v -0.053686 -0.091679 -0.323431
v -0.028702 -0.057917 -0.334240
v -0.018478 -0.071493 -0.343779
v -0.053686 -0.091679 -0.323431
v -0.018478 -0.071493 -0.343779
v -0.040811 -0.101672 -0.334117
v -0.040811 -0.101672 -0.334117
v -0.018478 -0.071493 -0.343779
v -0.005705 -0.086084 -0.346787
v -0.040811 -0.101672 -0.334117
v -0.005705 -0.086084 -0.346787
v -0.024292 -0.111202 -0.338745
v -0.024292 -0.111202 -0.338745
v -0.005705 -0.086084 -0.346787
v 0.007673 -0.099469 -0.342805
v -0.024292 -0.111202 -0.338745
v 0.007673 -0.099469 -0.342805
v -0.006645 -0.118818 -0.336610
v -0.071137 -0.123816 -0.291939
v -0.060958 -0.082744 -0.308313
v -0.053686 -0.091679 -0.323431
v -0.071137 -0.123816 -0.291939
v -0.053686 -0.091679 -0.323431
v -0.063416 -0.130938 -0.307780
v -0.063416 -0.130938 -0.307780
v -0.053686 -0.091679 -0.323431
v -0.040811 -0.101672 -0.334117
v -0.063416 -0.130938 -0.307780
v -0.040811 -0.101672 -0.334117
v -0.049508 -0.136765 -0.320127
v -0.049508 -0.136765 -0.320127
v -0.040811 -0.101672 -0.334117
v -0.024292 -0.111202 -0.338745
v -0.049508 -0.136765 -0.320127
v -0.024292 -0.111202 -0.338745
v -0.031531 -0.140410 -0.327101
v -0.031531 -0.140410 -0.327101
v -0.024292 -0.111202 -0.338745
v -0.006645 -0.118818 -0.336610
v -0.031531 -0.140410 -0.327101
v -0.006645 -0.118818 -0.336610
v -0.012221 -0.141317 -0.327640
v -0.088440 -0.078749 -0.189164
v -0.071137 -0.123816 -0.291939
v -0.063807 -0.164386 -0.272993
v -0.088440 -0.078749 -0.189164
v -0.063807 -0.164386 -0.272993
v -0.081054 -0.119634 -0.170071
v -0.078183 -0.037359 -0.205664
v -0.060958 -0.082744 -0.308313
v -0.071137 -0.123816 -0.291939
v -0.078183 -0.037359 -0.205664
v -0.071137 -0.123816 -0.291939
v -0.088440 -0.078749 -0.189164
v -0.008206 -0.163541 -0.317262
v -0.012221 -0.141317 -0.327640
v -0.006645 -0.118818 -0.336610
v -0.008206 -0.163541 -0.317262
v -0.006645 -0.118818 -0.336610
v 0.007673 -0.099469 -0.342805
v -0.008206 -0.163541 -0.317262
v 0.007673 -0.099469 -0.342805
v 0.028554 -0.086216 -0.345282
v -0.008206 -0.163541 -0.317262
v 0.028554 -0.086216 -0.345282
v 0.052818 -0.081077 -0.343664
v -0.008206 -0.163541 -0.317262
v 0.052818 -0.081077 -0.343664
v 0.076771 -0.084834 -0.338197
v -0.008206 -0.163541 -0.317262
v 0.076771 -0.084834 -0.338197
v 0.096767 -0.096916 -0.329714
v -0.008206 -0.163541 -0.317262
v 0.096767 -0.096916 -0.329714
v 0.109762 -0.115482 -0.319507
v -0.008206 -0.163541 -0.317262
v 0.109762 -0.115482 -0.319507
v 0.113777 -0.137706 -0.309128
v -0.008206 -0.163541 -0.317262
v 0.113777 -0.137706 -0.309128
v 0.108201 -0.160205 -0.300158
v -0.008206 -0.163541 -0.317262
v 0.108201 -0.160205 -0.300158
v 0.093883 -0.179554 -0.293963
v -0.008206 -0.163541 -0.317262
v 0.093883 -0.179554 -0.293963
v 0.073002 -0.192807 -0.291486
v -0.008206 -0.163541 -0.317262
v 0.073002 -0.192807 -0.291486
v 0.048738 -0.197946 -0.293104
v -0.008206 -0.163541 -0.317262
v 0.048738 -0.197946 -0.293104
v 0.024785 -0.194189 -0.298571
v -0.008206 -0.163541 -0.317262
v 0.024785 -0.194189 -0.298571
v 0.004789 -0.182107 -0.307054
v -0.081054 -0.119634 -0.170071
v -0.063807 -0.164386 -0.272993
v -0.040086 -0.198277 -0.254359
v -0.081054 -0.119634 -0.170071
v -0.040086 -0.198277 -0.254359
v -0.057149 -0.153788 -0.151292
v -0.057149 -0.153788 -0.151292
v -0.040086 -0.198277 -0.254359
v -0.003584 -0.220331 -0.238874
v -0.057149 -0.153788 -0.151292
v -0.003584 -0.220331 -0.238874
v -0.020364 -0.176013 -0.135687
v -0.020364 -0.176013 -0.135687
v -0.003584 -0.220331 -0.238874
v 0.040143 -0.227190 -0.228895
v -0.020364 -0.176013 -0.135687
v 0.040143 -0.227190 -0.228895
v 0.023701 -0.182924 -0.125630
v 0.023701 -0.182924 -0.125630
v 0.040143 -0.227190 -0.228895
v 0.084435 -0.217808 -0.225941
v 0.023701 -0.182924 -0.125630
v 0.084435 -0.217808 -0.225941
v 0.068338 -0.173471 -0.122654
v 0.068338 -0.173471 -0.122654
v 0.084435 -0.217808 -0.225941
v 0.122552 -0.193616 -0.230463
v 0.068338 -0.173471 -0.122654
v 0.122552 -0.193616 -0.230463
v 0.106750 -0.149091 -0.127211
v 0.106750 -0.149091 -0.127211
v 0.122552 -0.193616 -0.230463
v 0.148689 -0.158295 -0.241771
v 0.106750 -0.149091 -0.127211
v 0.148689 -0.158295 -0.241771
v 0.133090 -0.113496 -0.138607
v 0.133090 -0.113496 -0.138607
v 0.148689 -0.158295 -0.241771
v 0.158868 -0.117224 -0.258145
v 0.133090 -0.113496 -0.138607
v 0.158868 -0.117224 -0.258145
v 0.143348 -0.072106 -0.155107
v 0.143348 -0.072106 -0.155107
v 0.158868 -0.117224 -0.258145
v 0.151539 -0.076654 -0.277091
v 0.143348 -0.072106 -0.155107
v 0.151539 -0.076654 -0.277091
v 0.135961 -0.031222 -0.174200
v 0.135961 -0.031222 -0.174200
v 0.151539 -0.076654 -0.277091
v 0.127817 -0.042762 -0.295725
v 0.135961 -0.031222 -0.174200
v 0.127817 -0.042762 -0.295725
v 0.112056 0.002933 -0.192979
v 0.112056 0.002933 -0.192979
v 0.127817 -0.042762 -0.295725
v 0.091315 -0.020709 -0.311211
v 0.112056 0.002933 -0.192979
v 0.091315 -0.020709 -0.311211
v 0.075271 0.025157 -0.208584
v 0.075271 0.025157 -0.208584
v 0.091315 -0.020709 -0.311211
v 0.047589 -0.013850 -0.321190
v 0.075271 0.025157 -0.208584
v 0.047589 -0.013850 -0.321190
v 0.031206 0.032069 -0.218641
v 0.031206 0.032069 -0.218641
v 0.047589 -0.013850 -0.321190
v 0.003296 -0.023231 -0.324143
v 0.031206 0.032069 -0.218641
v 0.003296 -0.023231 -0.324143
v -0.013431 0.022615 -0.221617
v -0.013431 0.022615 -0.221617
v 0.003296 -0.023231 -0.324143
v -0.034821 -0.047424 -0.319622
v -0.013431 0.022615 -0.221617
v -0.034821 -0.047424 -0.319622
v -0.051843 -0.001765 -0.217060
v -0.051843 -0.001765 -0.217060
v -0.034821 -0.047424 -0.319622
v -0.060958 -0.082744 -0.308313
v -0.051843 -0.001765 -0.217060
v -0.060958 -0.082744 -0.308313
v -0.078183 -0.037359 -0.205664
v -0.096632 -0.074201 -0.067180
v -0.094525 -0.064997 -0.050684
v -0.101531 -0.026218 -0.068794
v -0.096632 -0.074201 -0.067180
v -0.101531 -0.026218 -0.068794
v -0.103961 -0.033631 -0.086126
v -0.094525 -0.064997 -0.050684
v -0.085846 -0.054387 -0.036831
v -0.092108 -0.019723 -0.053019
v -0.094525 -0.064997 -0.050684
v -0.092108 -0.019723 -0.053019
v -0.101531 -0.026218 -0.068794
v -0.085846 -0.054387 -0.036831
v -0.071915 -0.043984 -0.027729
v -0.077128 -0.015133 -0.041202
v -0.085846 -0.054387 -0.036831
v -0.077128 -0.015133 -0.041202
v -0.092108 -0.019723 -0.053019
v -0.071915 -0.043984 -0.027729
v -0.054855 -0.035374 -0.024765
v -0.058870 -0.013149 -0.035143
v -0.071915 -0.043984 -0.027729
v -0.058870 -0.013149 -0.035143
v -0.077128 -0.015133 -0.041202
v -0.072910 -0.108093 -0.048546
v -0.071850 -0.097393 -0.032872
v -0.094525 -0.064997 -0.050684
v -0.072910 -0.108093 -0.048546
v -0.094525 -0.064997 -0.050684
v -0.096632 -0.074201 -0.067180
v -0.071850 -0.097393 -0.032872
v -0.065577 -0.083345 -0.020909
v -0.085846 -0.054387 -0.036831
v -0.071850 -0.097393 -0.032872
v -0.085846 -0.054387 -0.036831
v -0.094525 -0.064997 -0.050684
v -0.065577 -0.083345 -0.020909
v -0.055046 -0.068086 -0.014478
v -0.071915 -0.043984 -0.027729
v -0.065577 -0.083345 -0.020909
v -0.071915 -0.043984 -0.027729
v -0.085846 -0.054387 -0.036831
v -0.055046 -0.068086 -0.014478
v -0.041860 -0.053940 -0.014557
v -0.054855 -0.035374 -0.024765
v -0.055046 -0.068086 -0.014478
v -0.054855 -0.035374 -0.024765
v -0.071915 -0.043984 -0.027729
v -0.036408 -0.130147 -0.033060
v -0.036959 -0.118474 -0.018070
v -0.071850 -0.097393 -0.032872
v -0.036408 -0.130147 -0.033060
v -0.071850 -0.097393 -0.032872
v -0.072910 -0.108093 -0.048546
v -0.036959 -0.118474 -0.018070
v -0.034389 -0.102188 -0.007678
v -0.065577 -0.083345 -0.020909
v -0.036959 -0.118474 -0.018070
v -0.065577 -0.083345 -0.020909
v -0.071850 -0.097393 -0.032872
v -0.034389 -0.102188 -0.007678
v -0.029088 -0.083769 -0.003465
v -0.055046 -0.068086 -0.014478
v -0.034389 -0.102188 -0.007678
v -0.055046 -0.068086 -0.014478
v -0.065577 -0.083345 -0.020909
v -0.029088 -0.083769 -0.003465
v -0.021864 -0.066021 -0.006074
v -0.041860 -0.053940 -0.014557
v -0.029088 -0.083769 -0.003465
v -0.041860 -0.053940 -0.014557
v -0.055046 -0.068086 -0.014478
v 0.007318 -0.137005 -0.023081
v 0.004837 -0.125029 -0.008532
v -0.036959 -0.118474 -0.018070
v 0.007318 -0.137005 -0.023081
v -0.036959 -0.118474 -0.018070
v -0.036408 -0.130147 -0.033060
v 0.004837 -0.125029 -0.008532
v 0.002972 -0.108048 0.000848
v -0.034389 -0.102188 -0.007678
v 0.004837 -0.125029 -0.008532
v -0.034389 -0.102188 -0.007678
v -0.036959 -0.118474 -0.018070
v 0.002972 -0.108048 0.000848
v 0.002007 -0.088646 0.003631
v -0.029088 -0.083769 -0.003465
v 0.002972 -0.108048 0.000848
v -0.029088 -0.083769 -0.003465
v -0.034389 -0.102188 -0.007678
v 0.002007 -0.088646 0.003631
v 0.002089 -0.069778 -0.000607
v -0.021864 -0.066021 -0.006074
v 0.002007 -0.088646 0.003631
v -0.021864 -0.066021 -0.006074
v -0.029088 -0.083769 -0.003465
v 0.051611 -0.127624 -0.020128
v 0.047175 -0.116062 -0.005709
v 0.004837 -0.125029 -0.008532
v 0.051611 -0.127624 -0.020128
v 0.004837 -0.125029 -0.008532
v 0.007318 -0.137005 -0.023081
v 0.047175 -0.116062 -0.005709
v 0.040817 -0.100033 0.003372
v 0.002972 -0.108048 0.000848
v 0.047175 -0.116062 -0.005709
v 0.002972 -0.108048 0.000848
v 0.004837 -0.125029 -0.008532
v 0.040817 -0.100033 0.003372
v 0.033506 -0.081975 0.005731
v 0.002007 -0.088646 0.003631
v 0.040817 -0.100033 0.003372
v 0.002007 -0.088646 0.003631
v 0.002972 -0.108048 0.000848
v 0.033506 -0.081975 0.005731
v 0.026353 -0.064639 0.001011
v 0.002089 -0.069778 -0.000607
v 0.033506 -0.081975 0.005731
v 0.002089 -0.069778 -0.000607
v 0.002007 -0.088646 0.003631
v 0.089728 -0.103432 -0.024650
v 0.083609 -0.092938 -0.010031
v 0.047175 -0.116062 -0.005709
v 0.089728 -0.103432 -0.024650
v 0.047175 -0.116062 -0.005709
v 0.051611 -0.127624 -0.020128
v 0.083609 -0.092938 -0.010031
v 0.073385 -0.079362 -0.000492
v 0.040817 -0.100033 0.003372
v 0.083609 -0.092938 -0.010031
v 0.040817 -0.100033 0.003372
v 0.047175 -0.116062 -0.005709
v 0.073385 -0.079362 -0.000492
v 0.060612 -0.064771 0.002516
v 0.033506 -0.081975 0.005731
v 0.073385 -0.079362 -0.000492
v 0.033506 -0.081975 0.005731
v 0.040817 -0.100033 0.003372
v 0.060612 -0.064771 0.002516
v 0.047234 -0.051386 -0.001466
v 0.026353 -0.064639 0.001011
v 0.060612 -0.064771 0.002516
v 0.026353 -0.064639 0.001011
v 0.033506 -0.081975 0.005731
v 0.115865 -0.068111 -0.035958
v 0.108593 -0.059176 -0.020840
v 0.083609 -0.092938 -0.010031
v 0.115865 -0.068111 -0.035958
v 0.083609 -0.092938 -0.010031
v 0.089728 -0.103432 -0.024650
v 0.108593 -0.059176 -0.020840
v 0.095718 -0.049183 -0.010154
v 0.073385 -0.079362 -0.000492
v 0.108593 -0.059176 -0.020840
v 0.073385 -0.079362 -0.000492
v 0.083609 -0.092938 -0.010031
v 0.095718 -0.049183 -0.010154
v 0.079199 -0.039653 -0.005526
v 0.060612 -0.064771 0.002516
v 0.095718 -0.049183 -0.010154
v 0.060612 -0.064771 0.002516
v 0.073385 -0.079362 -0.000492
v 0.079199 -0.039653 -0.005526
v 0.061552 -0.032038 -0.007661
v 0.047234 -0.051386 -0.001466
v 0.079199 -0.039653 -0.005526
v 0.047234 -0.051386 -0.001466
v 0.060612 -0.064771 0.002516
v 0.126044 -0.027040 -0.052332
v 0.118323 -0.019917 -0.036491
v 0.108593 -0.059176 -0.020840
v 0.126044 -0.027040 -0.052332
v 0.108593 -0.059176 -0.020840
v 0.115865 -0.068111 -0.035958
v 0.118323 -0.019917 -0.036491
v 0.104415 -0.014090 -0.024144
v 0.095718 -0.049183 -0.010154
v 0.118323 -0.019917 -0.036491
v 0.095718 -0.049183 -0.010154
v 0.108593 -0.059176 -0.020840
v 0.104415 -0.014090 -0.024144
v 0.086438 -0.010446 -0.017170
v 0.079199 -0.039653 -0.005526
v 0.104415 -0.014090 -0.024144
v 0.079199 -0.039653 -0.005526
v 0.095718 -0.049183 -0.010154
v 0.086438 -0.010446 -0.017170
v 0.067128 -0.009538 -0.016631
v 0.061552 -0.032038 -0.007661
v 0.086438 -0.010446 -0.017170
v 0.061552 -0.032038 -0.007661
v 0.079199 -0.039653 -0.005526
v 0.118714 0.013530 -0.071278
v 0.111317 0.018862 -0.054601
v 0.118323 -0.019917 -0.036491
v 0.118714 0.013530 -0.071278
v 0.118323 -0.019917 -0.036491
v 0.126044 -0.027040 -0.052332
v 0.111317 0.018862 -0.054601
v 0.098153 0.020574 -0.040332
v 0.104415 -0.014090 -0.024144
v 0.111317 0.018862 -0.054601
v 0.104415 -0.014090 -0.024144
v 0.118323 -0.019917 -0.036491
v 0.098153 0.020574 -0.040332
v 0.081225 0.018405 -0.030643
v 0.086438 -0.010446 -0.017170
v 0.098153 0.020574 -0.040332
v 0.086438 -0.010446 -0.017170
v 0.104415 -0.014090 -0.024144
v 0.081225 0.018405 -0.030643
v 0.063113 0.012686 -0.027009
v 0.067128 -0.009538 -0.016631
v 0.081225 0.018405 -0.030643
v 0.067128 -0.009538 -0.016631
v 0.086438 -0.010446 -0.017170
v 0.094993 0.047422 -0.089912
v 0.088642 0.051258 -0.072413
v 0.111317 0.018862 -0.054601
v 0.094993 0.047422 -0.089912
v 0.111317 0.018862 -0.054601
v 0.118714 0.013530 -0.071278
v 0.088642 0.051258 -0.072413
v 0.077884 0.049532 -0.056254
v 0.098153 0.020574 -0.040332
v 0.088642 0.051258 -0.072413
v 0.098153 0.020574 -0.040332
v 0.111317 0.018862 -0.054601
v 0.077884 0.049532 -0.056254
v 0.064356 0.042507 -0.043895
v 0.081225 0.018405 -0.030643
v 0.077884 0.049532 -0.056254
v 0.081225 0.018405 -0.030643
v 0.098153 0.020574 -0.040332
v 0.064356 0.042507 -0.043895
v 0.050118 0.031252 -0.037217
v 0.063113 0.012686 -0.027009
v 0.064356 0.042507 -0.043895
v 0.063113 0.012686 -0.027009
v 0.081225 0.018405 -0.030643
v 0.058491 0.069476 -0.105397
v 0.053751 0.072338 -0.087215
v 0.088642 0.051258 -0.072413
v 0.058491 0.069476 -0.105397
v 0.088642 0.051258 -0.072413
v 0.094993 0.047422 -0.089912
v 0.053751 0.072338 -0.087215
v 0.046695 0.068375 -0.069485
v 0.077884 0.049532 -0.056254
v 0.053751 0.072338 -0.087215
v 0.077884 0.049532 -0.056254
v 0.088642 0.051258 -0.072413
v 0.046695 0.068375 -0.069485
v 0.038398 0.058190 -0.054907
v 0.064356 0.042507 -0.043895
v 0.046695 0.068375 -0.069485
v 0.064356 0.042507 -0.043895
v 0.077884 0.049532 -0.056254
v 0.038398 0.058190 -0.054907
v 0.030122 0.043333 -0.045700
v 0.050118 0.031252 -0.037217
v 0.038398 0.058190 -0.054907
v 0.050118 0.031252 -0.037217
v 0.064356 0.042507 -0.043895
v 0.014765 0.076334 -0.115376
v 0.011955 0.078894 -0.096753
v 0.053751 0.072338 -0.087215
v 0.014765 0.076334 -0.115376
v 0.053751 0.072338 -0.087215
v 0.058491 0.069476 -0.105397
v 0.011955 0.078894 -0.096753
v 0.009335 0.074235 -0.078011
v 0.046695 0.068375 -0.069485
v 0.011955 0.078894 -0.096753
v 0.046695 0.068375 -0.069485
v 0.053751 0.072338 -0.087215
v 0.009335 0.074235 -0.078011
v 0.007303 0.063067 -0.062003
v 0.038398 0.058190 -0.054907
v 0.009335 0.074235 -0.078011
v 0.038398 0.058190 -0.054907
v 0.046695 0.068375 -0.069485
v 0.007303 0.063067 -0.062003
v 0.006168 0.047090 -0.051167
v 0.030122 0.043333 -0.045700
v 0.007303 0.063067 -0.062003
v 0.030122 0.043333 -0.045700
v 0.038398 0.058190 -0.054907
v -0.029528 0.066953 -0.118330
v -0.030383 0.069927 -0.099577
v 0.011955 0.078894 -0.096753
v -0.029528 0.066953 -0.118330
v 0.011955 0.078894 -0.096753
v 0.014765 0.076334 -0.115376
v -0.030383 0.069927 -0.099577
v -0.028510 0.066220 -0.080535
v 0.009335 0.074235 -0.078011
v -0.030383 0.069927 -0.099577
v 0.009335 0.074235 -0.078011
v 0.011955 0.078894 -0.096753
v -0.028510 0.066220 -0.080535
v -0.024196 0.056396 -0.064104
v 0.007303 0.063067 -0.062003
v -0.028510 0.066220 -0.080535
v 0.007303 0.063067 -0.062003
v 0.009335 0.074235 -0.078011
v -0.024196 0.056396 -0.064104
v -0.018095 0.041951 -0.052785
v 0.006168 0.047090 -0.051167
v -0.024196 0.056396 -0.064104
v 0.006168 0.047090 -0.051167
v 0.007303 0.063067 -0.062003
v -0.067645 0.042761 -0.113808
v -0.066817 0.046802 -0.095254
v -0.030383 0.069927 -0.099577
v -0.067645 0.042761 -0.113808
v -0.030383 0.069927 -0.099577
v -0.029528 0.066953 -0.118330
v -0.066817 0.046802 -0.095254
v -0.061078 0.045549 -0.076671
v -0.028510 0.066220 -0.080535
v -0.066817 0.046802 -0.095254
v -0.028510 0.066220 -0.080535
v -0.030383 0.069927 -0.099577
v -0.061078 0.045549 -0.076671
v -0.051302 0.039192 -0.060888
v -0.024196 0.056396 -0.064104
v -0.061078 0.045549 -0.076671
v -0.024196 0.056396 -0.064104
v -0.028510 0.066220 -0.080535
v -0.051302 0.039192 -0.060888
v -0.038976 0.028699 -0.050308
v -0.018095 0.041951 -0.052785
v -0.051302 0.039192 -0.060888
v -0.018095 0.041951 -0.052785
v -0.024196 0.056396 -0.064104
v -0.093782 0.007440 -0.102500
v -0.091801 0.013041 -0.084445
v -0.066817 0.046802 -0.095254
v -0.093782 0.007440 -0.102500
v -0.066817 0.046802 -0.095254
v -0.067645 0.042761 -0.113808
v -0.091801 0.013041 -0.084445
v -0.083411 0.015370 -0.067009
v -0.061078 0.045549 -0.076671
v -0.091801 0.013041 -0.084445
v -0.061078 0.045549 -0.076671
v -0.066817 0.046802 -0.095254
v -0.083411 0.015370 -0.067009
v -0.069889 0.014074 -0.052846
v -0.051302 0.039192 -0.060888
v -0.083411 0.015370 -0.067009
v -0.051302 0.039192 -0.060888
v -0.061078 0.045549 -0.076671
v -0.069889 0.014074 -0.052846
v -0.053294 0.009350 -0.044113
v -0.038976 0.028699 -0.050308
v -0.069889 0.014074 -0.052846
v -0.038976 0.028699 -0.050308
v -0.051302 0.039192 -0.060888
v -0.103961 -0.033631 -0.086126
v -0.101531 -0.026218 -0.068794
v -0.091801 0.013041 -0.084445
v -0.103961 -0.033631 -0.086126
v -0.091801 0.013041 -0.084445
v -0.093782 0.007440 -0.102500
v -0.101531 -0.026218 -0.068794
v -0.092108 -0.019723 -0.053019
v -0.083411 0.015370 -0.067009
v -0.101531 -0.026218 -0.068794
v -0.083411 0.015370 -0.067009
v -0.091801 0.013041 -0.084445
v -0.092108 -0.019723 -0.053019
v -0.077128 -0.015133 -0.041202
v -0.069889 0.014074 -0.052846
v -0.092108 -0.019723 -0.053019
v -0.069889 0.014074 -0.052846
v -0.083411 0.015370 -0.067009
v -0.077128 -0.015133 -0.041202
v -0.058870 -0.013149 -0.035143
v -0.053294 0.009350 -0.044113
v -0.077128 -0.015133 -0.041202
v -0.053294 0.009350 -0.044113
v -0.069889 0.014074 -0.052846
v -0.088440 -0.078749 -0.189164
v -0.081054 -0.119634 -0.170071
v -0.096632 -0.074201 -0.067180
v -0.088440 -0.078749 -0.189164
v -0.096632 -0.074201 -0.067180
v -0.103961 -0.033631 -0.086126
v -0.078183 -0.037359 -0.205664
v -0.088440 -0.078749 -0.189164
v -0.103961 -0.033631 -0.086126
v -0.078183 -0.037359 -0.205664
v -0.103961 -0.033631 -0.086126
v -0.093782 0.007440 -0.102500
v -0.054855 -0.035374 -0.024765
v -0.041860 -0.053940 -0.014557
v -0.021864 -0.066021 -0.006074
v -0.054855 -0.035374 -0.024765
v -0.021864 -0.066021 -0.006074
v 0.002089 -0.069778 -0.000607
v -0.054855 -0.035374 -0.024765
v 0.002089 -0.069778 -0.000607
v 0.026353 -0.064639 0.001011
v -0.054855 -0.035374 -0.024765
v 0.026353 -0.064639 0.001011
v 0.047234 -0.051386 -0.001466
v -0.054855 -0.035374 -0.024765
v 0.047234 -0.051386 -0.001466
v 0.061552 -0.032038 -0.007661
v -0.054855 -0.035374 -0.024765
v 0.061552 -0.032038 -0.007661
v 0.067128 -0.009538 -0.016631
v -0.054855 -0.035374 -0.024765
v 0.067128 -0.009538 -0.016631
v 0.063113 0.012686 -0.027009
v -0.054855 -0.035374 -0.024765
v 0.063113 0.012686 -0.027009
v 0.050118 0.031252 -0.037217
v -0.054855 -0.035374 -0.024765
v 0.050118 0.031252 -0.037217
v 0.030122 0.043333 -0.045700
v -0.054855 -0.035374 -0.024765
v 0.030122 0.043333 -0.045700
v 0.006168 0.047090 -0.051167
v -0.054855 -0.035374 -0.024765
v 0.006168 0.047090 -0.051167
v -0.018095 0.041951 -0.052785
v -0.054855 -0.035374 -0.024765
v -0.018095 0.041951 -0.052785
v -0.038976 0.028699 -0.050308
v -0.054855 -0.035374 -0.024765
v -0.038976 0.028699 -0.050308
v -0.053294 0.009350 -0.044113
v -0.054855 -0.035374 -0.024765
v -0.053294 0.009350 -0.044113
v -0.058870 -0.013149 -0.035143
v -0.081054 -0.119634 -0.170071
v -0.057149 -0.153788 -0.151292
v -0.072910 -0.108093 -0.048546
v -0.081054 -0.119634 -0.170071
v -0.072910 -0.108093 -0.048546
v -0.096632 -0.074201 -0.067180
v -0.057149 -0.153788 -0.151292
v -0.020364 -0.176013 -0.135687
v -0.036408 -0.130147 -0.033060
v -0.057149 -0.153788 -0.151292
v -0.036408 -0.130147 -0.033060
v -0.072910 -0.108093 -0.048546
v -0.020364 -0.176013 -0.135687
v 0.023701 -0.182924 -0.125630
v 0.007318 -0.137005 -0.023081
v -0.020364 -0.176013 -0.135687
v 0.007318 -0.137005 -0.023081
v -0.036408 -0.130147 -0.033060
v 0.023701 -0.182924 -0.125630
v 0.068338 -0.173471 -0.122654
v 0.051611 -0.127624 -0.020128
v 0.023701 -0.182924 -0.125630
v 0.051611 -0.127624 -0.020128
v 0.007318 -0.137005 -0.023081
v 0.068338 -0.173471 -0.122654
v 0.106750 -0.149091 -0.127211
v 0.089728 -0.103432 -0.024650
v 0.068338 -0.173471 -0.122654
v 0.089728 -0.103432 -0.024650
v 0.051611 -0.127624 -0.020128
v 0.106750 -0.149091 -0.127211
v 0.133090 -0.113496 -0.138607
v 0.115865 -0.068111 -0.035958
v 0.106750 -0.149091 -0.127211
v 0.115865 -0.068111 -0.035958
v 0.089728 -0.103432 -0.024650
v 0.133090 -0.113496 -0.138607
v 0.143348 -0.072106 -0.155107
v 0.126044 -0.027040 -0.052332
v 0.133090 -0.113496 -0.138607
v 0.126044 -0.027040 -0.052332
v 0.115865 -0.068111 -0.035958
v 0.143348 -0.072106 -0.155107
v 0.135961 -0.031222 -0.174200
v 0.118714 0.013530 -0.071278
v 0.143348 -0.072106 -0.155107
v 0.118714 0.013530 -0.071278
v 0.126044 -0.027040 -0.052332
v 0.135961 -0.031222 -0.174200
v 0.112056 0.002933 -0.192979
v 0.094993 0.047422 -0.089912
v 0.135961 -0.031222 -0.174200
v 0.094993 0.047422 -0.089912
v 0.118714 0.013530 -0.071278
v 0.112056 0.002933 -0.192979
v 0.075271 0.025157 -0.208584
v 0.058491 0.069476 -0.105397
v 0.112056 0.002933 -0.192979
v 0.058491 0.069476 -0.105397
v 0.094993 0.047422 -0.089912
v 0.075271 0.025157 -0.208584
v 0.031206 0.032069 -0.218641
v 0.014765 0.076334 -0.115376
v 0.075271 0.025157 -0.208584
v 0.014765 0.076334 -0.115376
v 0.058491 0.069476 -0.105397
v 0.031206 0.032069 -0.218641
v -0.013431 0.022615 -0.221617
v -0.029528 0.066953 -0.118330
v 0.031206 0.032069 -0.218641
v -0.029528 0.066953 -0.118330
v 0.014765 0.076334 -0.115376
v -0.013431 0.022615 -0.221617
v -0.051843 -0.001765 -0.217060
v -0.067645 0.042761 -0.113808
v -0.013431 0.022615 -0.221617
v -0.067645 0.042761 -0.113808
v -0.029528 0.066953 -0.118330
v -0.051843 -0.001765 -0.217060
v -0.078183 -0.037359 -0.205664
v -0.093782 0.007440 -0.102500
v -0.051843 -0.001765 -0.217060
v -0.093782 0.007440 -0.102500
v -0.067645 0.042761 -0.113808
f 1 2 3
f 4 5 6
f 7 8 9
f 10 11 12
f 13 14 15
f 16 17 18
f 19 20 21
f 22 23 24
f 25 26 27
f 28 29 30
f 31 32 33
f 34 35 36
f 37 38 39
f 40 41 42
f 43 44 45
f 46 47 48
f 49 50 51
f 52 53 54
f 55 56 57
f 58 59 60
f 61 62 63
f 64 65 66
f 67 68 69
f 70 71 72
f 73 74 75
f 76 77 78
f 79 80 81
f 82 83 84
f 85 86 87
f 88 89 90
f 91 92 93
f 94 95 96
f 97 98 99
f 100 101 102
f 103 104 105
f 106 107 108
f 109 110 111
f 112 113 114
f 115 116 117
f 118 119 120
f 121 122 123
f 124 125 126
f 127 128 129
f 130 131 132
f 133 134 135
f 136 137 138
f 139 140 141
f 142 143 144
f 145 146 147
f 148 149 150
f 151 152 153
f 154 155 156
f 157 158 159
f 160 161 162
f 163 164 165
f 166 167 168
f 169 170 171
f 172 173 174
f 175 176 177
f 178 179 180
f 181 182 183
f 184 185 186
f 187 188 189
f 190 191 192
f 193 194 195
f 196 197 198
f 199 200 201
f 202 203 204
f 205 206 207
f 208 209 210
f 211 212 213
f 214 215 216
f 217 218 219
f 220 221 222
f 223 224 225
f 226 227 228
f 229 230 231
f 232 233 234
f 235 236 237
f 238 239 240
f 241 242 243
f 244 245 246
f 247 248 249
f 250 251 252
f 253 254 255
f 256 257 258
f 259 260 261
f 262 263 264
f 265 266 267
f 268 269 270
f 271 272 273
f 274 275 276
f 277 278 279
f 280 281 282
f 283 284 285
f 286 287 288
f 289 290 291
f 292 293 294
f 295 296 297
f 298 299 300
f 301 302 303
f 304 305 306
f 307 308 309
f 310 311 312
f 313 314 315
f 316 317 318
f 319 320 321
f 322 323 324
f 325 326 327
f 328 329 330
f 331 332 333
f 334 335 336
f 337 338 339
f 340 341 342
f 343 344 345
f 346 347 348
f 349 350 351
f 352 353 354
f 355 356 357
f 358 359 360
f 361 362 363
f 364 365 366
f 367 368 369
f 370 371 372
f 373 374 375
f 376 377 378
f 379 380 381
f 382 383 384
f 385 386 387
f 388 389 390
f 391 392 393
f 394 395 396
f 397 398 399
f 400 401 402
f 403 404 405
f 406 407 408
f 409 410 411
f 412 413 414
f 415 416 417
f 418 419 420
f 421 422 423
f 424 425 426
f 427 428 429
f 430 431 432
f 433 434 435
f 436 437 438
f 439 440 441
f 442 443 444
f 445 446 447
f 448 449 450
f 451 452 453
f 454 455 456
f 457 458 459
f 460 461 462
f 463 464 465
f 466 467 468
f 469 470 471
f 472 473 474
f 475 476 477
f 478 479 480
f 481 482 483
f 484 485 486
f 487 488 489
f 490 491 492
f 493 494 495
f 496 497 498
f 499 500 501
f 502 503 504
f 505 506 507
f 508 509 510
f 511 512 513
f 514 515 516
f 517 518 519
f 520 521 522
f 523 524 525
f 526 527 528
f 529 530 531
f 532 533 534
f 535 536 537
f 538 539 540
f 541 542 543
f 544 545 546
f 547 548 549
f 550 551 552
f 553 554 555
f 556 557 558
f 559 560 561
f 562 563 564
f 565 566 567
f 568 569 570
f 571 572 573
f 574 575 576
f 577 578 579
f 580 581 582
f 583 584 585
f 586 587 588
f 589 590 591
f 592 593 594
f 595 596 597
f 598 599 600
f 601 602 603
f 604 605 606
f 607 608 609
f 610 611 612
f 613 614 615
f 616 617 618
f 619 620 621
f 622 623 624
f 625 626 627
f 628 629 630
f 631 632 633
f 634 635 636
f 637 638 639
f 640 641 642
f 643 644 645
f 646 647 648
f 649 650 651
f 652 653 654
f 655 656 657
f 658 659 660
f 661 662 663
f 664 665 666
f 667 668 669
f 670 671 672
f 673 674 675
f 676 677 678
f 679 680 681
f 682 683 684
f 685 686 687
f 688 689 690
f 691 692 693
f 694 695 696
f 697 698 699
f 700 701 702
f 703 704 705
f 706 707 708
f 709 710 711
f 712 713 714
f 715 716 717
f 718 719 720
f 721 722 723
f 724 725 726
f 727 728 729
f 730 731 732
f 733 734 735
f 736 737 738
f 739 740 741
f 742 743 744
f 745 746 747
f 748 749 750
f 751 752 753
f 754 755 756
f 757 758 759
f 760 761 762
f 763 764 765
f 766 767 768
f 769 770 771
f 772 773 774
f 775 776 777
f 778 779 780
f 781 782 783
f 784 785 786
f 787 788 789
f 790 791 792
f 793 794 795
f 796 797 798
f 799 800 801
f 802 803 804
f 805 806 807
f 808 809 810
f 811 812 813
f 814 815 816
f 817 818 819
f 820 821 822
f 823 824 825
f 826 827 828
f 829 830 831
f 832 833 834
f 835 836 837
f 838 839 840
f 841 842 843
f 844 845 846
f 847 848 849
f 850 851 852
f 853 854 855
f 856 857 858
f 859 860 861
f 862 863 864
f 865 866 867
f 868 869 870
f 871 872 873
f 874 875 876
f 877 878 879
f 880 881 882
f 883 884 885
f 886 887 888
f 889 890 891
f 892 893 894
f 895 896 897
f 898 899 900
f 901 902 903
f 904 905 906
f 907 908 909
f 910 911 912
f 913 914 915
f 916 917 918
f 919 920 921
f 922 923 924
f 925 926 927
f 928 929 930
f 931 932 933
f 934 935 936
f 937 938 939
f 940 941 942
f 943 944 945
f 946 947 948
f 949 950 951
f 952 953 954
f 955 956 957
f 958 959 960
f 961 962 963
f 964 965 966
f 967 968 969
f 970 971 972
f 973 974 975
f 976 977 978
f 979 980 981
f 982 983 984
f 985 986 987
f 988 989 990
f 991 992 993
f 994 995 996
f 997 998 999
f 1000 1001 1002
f 1003 1004 1005
f 1006 1007 1008
f 1009 1010 1011
f 1012 1013 1014
f 1015 1016 1017
f 1018 1019 1020
f 1021 1022 1023
f 1024 1025 1026
f 1027 1028 1029
f 1030 1031 1032
f 1033 1034 1035
f 1036 1037 1038
f 1039 1040 1041
f 1042 1043 1044
