# lizard mesh
v 0.143365 -0.181038 -0.069178
v 0.175585 -0.001866 -0.073721
v 0.228960 -0.000164 -0.006601
v 0.143365 -0.181038 -0.069178
v 0.228960 -0.000164 -0.006601
v 0.161899 -0.197864 -0.001588
v 0.161899 -0.197864 -0.001588
v 0.228960 -0.000164 -0.006601
v 0.128927 0.050908 0.074118
v 0.161899 -0.197864 -0.001588
v 0.128927 0.050908 0.074118
v 0.101068 -0.080050 0.077438
v 0.175585 -0.001866 -0.073721
v 0.143365 0.141454 -0.077355
v 0.161899 0.161684 -0.010704
v 0.175585 -0.001866 -0.073721
v 0.161899 0.161684 -0.010704
v 0.228960 -0.000164 -0.006601
v 0.228960 -0.000164 -0.006601
v 0.161899 0.161684 -0.010704
v 0.081203 0.137741 0.071916
v 0.228960 -0.000164 -0.006601
v 0.081203 0.137741 0.071916
v 0.128927 0.050908 0.074118
v 0.101068 -0.080050 0.077438
v 0.128927 0.050908 0.074118
v -0.000002 0.035825 0.112581
v 0.101068 -0.080050 0.077438
v -0.000002 0.035825 0.112581
v 0.013994 -0.127750 0.078648
v 0.013994 -0.127750 0.078648
v -0.000002 0.035825 0.112581
v -0.128954 0.023043 0.074824
v 0.013994 -0.127750 0.078648
v -0.128954 0.023043 0.074824
v -0.081305 -0.099766 0.077938
v 0.128927 0.050908 0.074118
v 0.081203 0.137741 0.071916
v -0.013955 0.165591 0.071210
v 0.128927 0.050908 0.074118
v -0.013955 0.165591 0.071210
v -0.000002 0.035825 0.112581
v -0.000002 0.035825 0.112581
v -0.013955 0.165591 0.071210
v -0.100952 0.118078 0.072415
v -0.000002 0.035825 0.112581
v -0.100952 0.118078 0.072415
v -0.128954 0.023043 0.074824
v -0.081305 -0.099766 0.077938
v -0.128954 0.023043 0.074824
v -0.228963 -0.000164 -0.006600
v -0.081305 -0.099766 0.077938
v -0.228963 -0.000164 -0.006600
v -0.161902 -0.197864 -0.001588
v -0.161902 -0.197864 -0.001588
v -0.228963 -0.000164 -0.006600
v -0.175588 -0.001866 -0.073721
v -0.161902 -0.197864 -0.001588
v -0.175588 -0.001866 -0.073721
v -0.143368 -0.181038 -0.069178
v -0.128954 0.023043 0.074824
v -0.100952 0.118078 0.072415
v -0.161902 0.161684 -0.010704
v -0.128954 0.023043 0.074824
v -0.161902 0.161684 -0.010704
v -0.228963 -0.000164 -0.006600
v -0.228963 -0.000164 -0.006600
v -0.161902 0.161684 -0.010704
v -0.143368 0.141454 -0.077355
v -0.228963 -0.000164 -0.006600
v -0.143368 0.141454 -0.077355
v -0.175588 -0.001866 -0.073721
v -0.143368 -0.181038 -0.069178
v -0.175588 -0.001866 -0.073721
v -0.000001 -0.001866 -0.073721
v -0.143368 -0.181038 -0.069178
v -0.000001 -0.001866 -0.073721
v -0.000002 -0.225228 -0.068058
v -0.000002 -0.225228 -0.068058
v -0.000001 -0.001866 -0.073721
v 0.175585 -0.001866 -0.073721
v -0.000002 -0.225228 -0.068058
v 0.175585 -0.001866 -0.073721
v 0.143365 -0.181038 -0.069178
v -0.175588 -0.001866 -0.073721
v -0.143368 0.141454 -0.077355
v -0.000001 0.207228 -0.079023
v -0.175588 -0.001866 -0.073721
v -0.000001 0.207228 -0.079023
v -0.000001 -0.001866 -0.073721
v -0.000001 -0.001866 -0.073721
v -0.000001 0.207228 -0.079023
v 0.143365 0.141454 -0.077355
v -0.000001 -0.001866 -0.073721
v 0.143365 0.141454 -0.077355
v 0.175585 -0.001866 -0.073721
v -0.143368 -0.181038 -0.069178
v -0.000002 -0.225228 -0.068058
v -0.000002 -0.276884 0.000416
v -0.143368 -0.181038 -0.069178
v -0.000002 -0.276884 0.000416
v -0.161902 -0.197864 -0.001588
v -0.161902 -0.197864 -0.001588
v -0.000002 -0.276884 0.000416
v 0.013994 -0.127750 0.078648
v -0.161902 -0.197864 -0.001588
v 0.013994 -0.127750 0.078648
v -0.081305 -0.099766 0.077938
v -0.000002 -0.225228 -0.068058
v 0.143365 -0.181038 -0.069178
v 0.161899 -0.197864 -0.001588
v -0.000002 -0.225228 -0.068058
v 0.161899 -0.197864 -0.001588
v -0.000002 -0.276884 0.000416
v -0.000002 -0.276884 0.000416
v 0.161899 -0.197864 -0.001588
v 0.101068 -0.080050 0.077438
v -0.000002 -0.276884 0.000416
v 0.101068 -0.080050 0.077438
v 0.013994 -0.127750 0.078648
v 0.143365 0.141454 -0.077355
v -0.000001 0.207228 -0.079023
v -0.000001 0.228717 -0.012404
v 0.143365 0.141454 -0.077355
v -0.000001 0.228717 -0.012404
v 0.161899 0.161684 -0.010704
v 0.161899 0.161684 -0.010704
v -0.000001 0.228717 -0.012404
v -0.013955 0.165591 0.071210
v 0.161899 0.161684 -0.010704
v -0.013955 0.165591 0.071210
v 0.081203 0.137741 0.071916
v -0.000001 0.207228 -0.079023
v -0.143368 0.141454 -0.077355
v -0.161902 0.161684 -0.010704
v -0.000001 0.207228 -0.079023
v -0.161902 0.161684 -0.010704
v -0.000001 0.228717 -0.012404
v -0.000001 0.228717 -0.012404
v -0.161902 0.161684 -0.010704
v -0.100952 0.118078 0.072415
v -0.000001 0.228717 -0.012404
v -0.100952 0.118078 0.072415
v -0.013955 0.165591 0.071210
f 1 2 3
f 4 5 6
f 7 8 9
f 10 11 12
f 13 14 15
f 16 17 18
f 19 20 21
f 22 23 24
f 25 26 27
f 28 29 30
f 31 32 33
f 34 35 36
f 37 38 39
f 40 41 42
f 43 44 45
f 46 47 48
f 49 50 51
f 52 53 54
f 55 56 57
f 58 59 60
f 61 62 63
f 64 65 66
f 67 68 69
f 70 71 72
f 73 74 75
f 76 77 78
f 79 80 81
f 82 83 84
f 85 86 87
f 88 89 90
f 91 92 93
f 94 95 96
f 97 98 99
f 100 101 102
f 103 104 105
f 106 107 108
f 109 110 111
f 112 113 114
f 115 116 117
f 118 119 120
f 121 122 123
f 124 125 126
f 127 128 129
f 130 131 132
f 133 134 135
f 136 137 138
f 139 140 141
f 142 143 144
