# lizard mesh
v 0.143365 0.179532 -0.077403
v 0.161899 0.197787 -0.010184
v 0.228960 0.000024 -0.011009
v 0.143365 0.179532 -0.077403
v 0.228960 0.000024 -0.011009
v 0.175586 0.000304 -0.078150
v 0.161899 0.197787 -0.010184
v 0.101069 0.081673 0.071319
v 0.128927 -0.049327 0.070773
v 0.161899 0.197787 -0.010184
v 0.128927 -0.049327 0.070773
v 0.228960 0.000024 -0.011009
v 0.175586 0.000304 -0.078150
v 0.228960 0.000024 -0.011009
v 0.161899 -0.161875 -0.011684
v 0.175586 0.000304 -0.078150
v 0.161899 -0.161875 -0.011684
v 0.143365 -0.143061 -0.078748
v 0.228960 0.000024 -0.011009
v 0.128927 -0.049327 0.070773
v 0.081203 -0.136187 0.070410
v 0.228960 0.000024 -0.011009
v 0.081203 -0.136187 0.070410
v 0.161899 -0.161875 -0.011684
v 0.101069 0.081673 0.071319
v 0.013994 0.129388 0.071518
v -0.000002 -0.033433 0.108907
v 0.101069 0.081673 0.071319
v -0.000002 -0.033433 0.108907
v 0.128927 -0.049327 0.070773
v 0.013994 0.129388 0.071518
v -0.081305 0.101394 0.071401
v -0.128954 -0.021453 0.070889
v 0.013994 0.129388 0.071518
v -0.128954 -0.021453 0.070889
v -0.000002 -0.033433 0.108907
v 0.128927 -0.049327 0.070773
v -0.000002 -0.033433 0.108907
v -0.013955 -0.164046 0.070294
v 0.128927 -0.049327 0.070773
v -0.013955 -0.164046 0.070294
v 0.081203 -0.136187 0.070410
v -0.000002 -0.033433 0.108907
v -0.128954 -0.021453 0.070889
v -0.100952 -0.116519 0.070492
v -0.000002 -0.033433 0.108907
v -0.100952 -0.116519 0.070492
v -0.013955 -0.164046 0.070294
v -0.081305 0.101394 0.071401
v -0.161902 0.197787 -0.010184
v -0.228963 0.000024 -0.011009
v -0.081305 0.101394 0.071401
v -0.228963 0.000024 -0.011009
v -0.128954 -0.021453 0.070889
v -0.161902 0.197787 -0.010184
v -0.143368 0.179532 -0.077403
v -0.175588 0.000304 -0.078150
v -0.161902 0.197787 -0.010184
v -0.175588 0.000304 -0.078150
v -0.228963 0.000024 -0.011009
v -0.128954 -0.021453 0.070889
v -0.228963 0.000024 -0.011009
v -0.161902 -0.161875 -0.011684
v -0.128954 -0.021453 0.070889
v -0.161902 -0.161875 -0.011684
v -0.100952 -0.116519 0.070492
v -0.228963 0.000024 -0.011009
v -0.175588 0.000304 -0.078150
v -0.143368 -0.143061 -0.078748
v -0.228963 0.000024 -0.011009
v -0.143368 -0.143061 -0.078748
v -0.161902 -0.161875 -0.011684
v -0.143368 0.179532 -0.077403
v -0.000001 0.223736 -0.077219
v -0.000001 0.000304 -0.078150
v -0.143368 0.179532 -0.077403
v -0.000001 0.000304 -0.078150
v -0.175588 0.000304 -0.078150
v -0.000001 0.223736 -0.077219
v 0.143365 0.179532 -0.077403
v 0.175586 0.000304 -0.078150
v -0.000001 0.223736 -0.077219
v 0.175586 0.000304 -0.078150
v -0.000001 0.000304 -0.078150
v -0.175588 0.000304 -0.078150
v -0.000001 0.000304 -0.078150
v -0.000001 -0.208856 -0.079023
v -0.175588 0.000304 -0.078150
v -0.000001 -0.208856 -0.079023
v -0.143368 -0.143061 -0.078748
v -0.000001 0.000304 -0.078150
v 0.175586 0.000304 -0.078150
v 0.143365 -0.143061 -0.078748
v -0.000001 0.000304 -0.078150
v 0.143365 -0.143061 -0.078748
v -0.000001 -0.208856 -0.079023
v -0.143368 0.179532 -0.077403
v -0.161902 0.197787 -0.010184
v -0.000002 0.276831 -0.009854
v -0.143368 0.179532 -0.077403
v -0.000002 0.276831 -0.009854
v -0.000001 0.223736 -0.077219
v -0.161902 0.197787 -0.010184
v -0.081305 0.101394 0.071401
v 0.013994 0.129388 0.071518
v -0.161902 0.197787 -0.010184
v 0.013994 0.129388 0.071518
v -0.000002 0.276831 -0.009854
v -0.000001 0.223736 -0.077219
v -0.000002 0.276831 -0.009854
v 0.161899 0.197787 -0.010184
v -0.000001 0.223736 -0.077219
v 0.161899 0.197787 -0.010184
v 0.143365 0.179532 -0.077403
v -0.000002 0.276831 -0.009854
v 0.013994 0.129388 0.071518
v 0.101069 0.081673 0.071319
v -0.000002 0.276831 -0.009854
v 0.101069 0.081673 0.071319
v 0.161899 0.197787 -0.010184
v 0.143365 -0.143061 -0.078748
v 0.161899 -0.161875 -0.011684
v -0.000002 -0.228929 -0.011964
v 0.143365 -0.143061 -0.078748
v -0.000002 -0.228929 -0.011964
v -0.000001 -0.208856 -0.079023
v 0.161899 -0.161875 -0.011684
v 0.081203 -0.136187 0.070410
v -0.013955 -0.164046 0.070294
v 0.161899 -0.161875 -0.011684
v -0.013955 -0.164046 0.070294
v -0.000002 -0.228929 -0.011964
v -0.000001 -0.208856 -0.079023
v -0.000002 -0.228929 -0.011964
v -0.161902 -0.161875 -0.011684
v -0.000001 -0.208856 -0.079023
v -0.161902 -0.161875 -0.011684
v -0.143368 -0.143061 -0.078748
v -0.000002 -0.228929 -0.011964
v -0.013955 -0.164046 0.070294
v -0.100952 -0.116519 0.070492
v -0.000002 -0.228929 -0.011964
v -0.100952 -0.116519 0.070492
v -0.161902 -0.161875 -0.011684
f 1 2 3
f 4 5 6
f 7 8 9
f 10 11 12
f 13 14 15
f 16 17 18
f 19 20 21
f 22 23 24
f 25 26 27
f 28 29 30
f 31 32 33
f 34 35 36
f 37 38 39
f 40 41 42
f 43 44 45
f 46 47 48
f 49 50 51
f 52 53 54
f 55 56 57
f 58 59 60
f 61 62 63
f 64 65 66
f 67 68 69
f 70 71 72
f 73 74 75
f 76 77 78
f 79 80 81
f 82 83 84
f 85 86 87
f 88 89 90
f 91 92 93
f 94 95 96
f 97 98 99
f 100 101 102
f 103 104 105
f 106 107 108
f 109 110 111
f 112 113 114
f 115 116 117
f 118 119 120
f 121 122 123
f 124 125 126
f 127 128 129
f 130 131 132
f 133 134 135
f 136 137 138
f 139 140 141
f 142 143 144
