# lizard mesh
v -0.148766 0.158134 -0.241830
v -0.146781 0.163742 -0.259882
v -0.156443 0.124472 -0.275548
v -0.148766 0.158134 -0.241830
v -0.156443 0.124472 -0.275548
v -0.158874 0.117052 -0.258219
v -0.146781 0.163742 -0.259882
v -0.138383 0.166088 -0.277312
v -0.147020 0.130986 -0.291315
v -0.146781 0.163742 -0.259882
v -0.147020 0.130986 -0.291315
v -0.156443 0.124472 -0.275548
v -0.138383 0.166088 -0.277312
v -0.124850 0.164815 -0.291466
v -0.132039 0.135599 -0.303121
v -0.138383 0.166088 -0.277312
v -0.132039 0.135599 -0.303121
v -0.147020 0.130986 -0.291315
v -0.124850 0.164815 -0.291466
v -0.108243 0.160117 -0.300190
v -0.113780 0.137611 -0.309168
v -0.124850 0.164815 -0.291466
v -0.113780 0.137611 -0.309168
v -0.132039 0.135599 -0.303121
v -0.122687 0.193490 -0.230496
v -0.121854 0.197538 -0.249049
v -0.146781 0.163742 -0.259882
v -0.122687 0.193490 -0.230496
v -0.146781 0.163742 -0.259882
v -0.148766 0.158134 -0.241830
v -0.121854 0.197538 -0.249049
v -0.116101 0.196297 -0.267628
v -0.138383 0.166088 -0.277312
v -0.121854 0.197538 -0.249049
v -0.138383 0.166088 -0.277312
v -0.146781 0.163742 -0.259882
v -0.116101 0.196297 -0.267628
v -0.106305 0.189958 -0.283406
v -0.124850 0.164815 -0.291466
v -0.116101 0.196297 -0.267628
v -0.124850 0.164815 -0.291466
v -0.138383 0.166088 -0.277312
v -0.106305 0.189958 -0.283406
v -0.093957 0.179485 -0.293981
v -0.108243 0.160117 -0.300190
v -0.106305 0.189958 -0.283406
v -0.108243 0.160117 -0.300190
v -0.124850 0.164815 -0.291466
v -0.084609 0.217737 -0.225944
v -0.085456 0.220715 -0.244698
v -0.121854 0.197538 -0.249049
v -0.084609 0.217737 -0.225944
v -0.121854 0.197538 -0.249049
v -0.122687 0.193490 -0.230496
v -0.085456 0.220715 -0.244698
v -0.083566 0.217015 -0.263739
v -0.116101 0.196297 -0.267628
v -0.085456 0.220715 -0.244698
v -0.116101 0.196297 -0.267628
v -0.121854 0.197538 -0.249049
v -0.083566 0.217015 -0.263739
v -0.079226 0.207201 -0.280170
v -0.106305 0.189958 -0.283406
v -0.083566 0.217015 -0.263739
v -0.106305 0.189958 -0.283406
v -0.116101 0.196297 -0.267628
v -0.079226 0.207201 -0.280170
v -0.073097 0.192768 -0.291488
v -0.093957 0.179485 -0.293981
v -0.079226 0.207201 -0.280170
v -0.093957 0.179485 -0.293981
v -0.106305 0.189958 -0.283406
v -0.040328 0.227184 -0.228867
v -0.043129 0.229744 -0.247492
v -0.085456 0.220715 -0.244698
v -0.040328 0.227184 -0.228867
v -0.085456 0.220715 -0.244698
v -0.084609 0.217737 -0.225944
v -0.043129 0.229744 -0.247492
v -0.045731 0.225086 -0.266236
v -0.083566 0.217015 -0.263739
v -0.043129 0.229744 -0.247492
v -0.083566 0.217015 -0.263739
v -0.085456 0.220715 -0.244698
v -0.045731 0.225086 -0.266236
v -0.047736 0.213919 -0.282248
v -0.079226 0.207201 -0.280170
v -0.045731 0.225086 -0.266236
v -0.079226 0.207201 -0.280170
v -0.083566 0.217015 -0.263739
v -0.047736 0.213919 -0.282248
v -0.048840 0.197942 -0.293089
v -0.073097 0.192768 -0.291488
v -0.047736 0.213919 -0.282248
v -0.073097 0.192768 -0.291488
v -0.079226 0.207201 -0.280170
v 0.003415 0.220392 -0.238820
v -0.001317 0.223252 -0.257005
v -0.043129 0.229744 -0.247492
v 0.003415 0.220392 -0.238820
v -0.043129 0.229744 -0.247492
v -0.040328 0.227184 -0.228867
v -0.001317 0.223252 -0.257005
v -0.008356 0.219282 -0.274740
v -0.045731 0.225086 -0.266236
v -0.001317 0.223252 -0.257005
v -0.045731 0.225086 -0.266236
v -0.043129 0.229744 -0.247492
v -0.008356 0.219282 -0.274740
v -0.016629 0.209088 -0.289326
v -0.047736 0.213919 -0.282248
v -0.008356 0.219282 -0.274740
v -0.047736 0.213919 -0.282248
v -0.045731 0.225086 -0.266236
v -0.016629 0.209088 -0.289326
v -0.024878 0.194222 -0.298541
v -0.048840 0.197942 -0.293089
v -0.016629 0.209088 -0.289326
v -0.048840 0.197942 -0.293089
v -0.047736 0.213919 -0.282248
v 0.039959 0.198395 -0.254287
v 0.033614 0.202226 -0.271789
v -0.001317 0.223252 -0.257005
v 0.039959 0.198395 -0.254287
v -0.001317 0.223252 -0.257005
v 0.003415 0.220392 -0.238820
v 0.033614 0.202226 -0.271789
v 0.022869 0.200488 -0.287956
v -0.008356 0.219282 -0.274740
v 0.033614 0.202226 -0.271789
v -0.008356 0.219282 -0.274740
v -0.001317 0.223252 -0.257005
v 0.022869 0.200488 -0.287956
v 0.009359 0.193446 -0.300325
v -0.016629 0.209088 -0.289326
v 0.022869 0.200488 -0.287956
v -0.016629 0.209088 -0.289326
v -0.008356 0.219282 -0.274740
v 0.009359 0.193446 -0.300325
v -0.004859 0.182172 -0.307014
v -0.024878 0.194222 -0.298541
v 0.009359 0.193446 -0.300325
v -0.024878 0.194222 -0.298541
v -0.016629 0.209088 -0.289326
v 0.063742 0.164542 -0.272914
v 0.056347 0.169867 -0.289594
v 0.033614 0.202226 -0.271789
v 0.063742 0.164542 -0.272914
v 0.033614 0.202226 -0.271789
v 0.039959 0.198395 -0.254287
v 0.056347 0.169867 -0.289594
v 0.043190 0.171563 -0.303871
v 0.022869 0.200488 -0.287956
v 0.056347 0.169867 -0.289594
v 0.022869 0.200488 -0.287956
v 0.033614 0.202226 -0.271789
v 0.043190 0.171563 -0.303871
v 0.026272 0.169372 -0.313571
v 0.009359 0.193446 -0.300325
v 0.043190 0.171563 -0.303871
v 0.009359 0.193446 -0.300325
v 0.022869 0.200488 -0.287956
v 0.026272 0.169372 -0.313571
v 0.008170 0.163627 -0.317218
v -0.004859 0.182172 -0.307014
v 0.026272 0.169372 -0.313571
v -0.004859 0.182172 -0.307014
v 0.009359 0.193446 -0.300325
v 0.071143 0.123987 -0.291865
v 0.063421 0.131102 -0.307709
v 0.056347 0.169867 -0.289594
v 0.071143 0.123987 -0.291865
v 0.056347 0.169867 -0.289594
v 0.063742 0.164542 -0.272914
v 0.063421 0.131102 -0.307709
v 0.049513 0.136912 -0.320063
v 0.043190 0.171563 -0.303871
v 0.063421 0.131102 -0.307709
v 0.043190 0.171563 -0.303871
v 0.056347 0.169867 -0.289594
v 0.049513 0.136912 -0.320063
v 0.031535 0.140532 -0.327048
v 0.026272 0.169372 -0.313571
v 0.049513 0.136912 -0.320063
v 0.026272 0.169372 -0.313571
v 0.043190 0.171563 -0.303871
v 0.031535 0.140532 -0.327048
v 0.012224 0.141411 -0.327599
v 0.008170 0.163627 -0.317218
v 0.031535 0.140532 -0.327048
v 0.008170 0.163627 -0.317218
v 0.026272 0.169372 -0.313571
v 0.061034 0.082905 -0.308254
v 0.053759 0.091833 -0.323375
v 0.063421 0.131102 -0.307709
v 0.061034 0.082905 -0.308254
v 0.063421 0.131102 -0.307709
v 0.071143 0.123987 -0.291865
v 0.053759 0.091833 -0.323375
v 0.040876 0.101809 -0.334067
v 0.049513 0.136912 -0.320063
v 0.053759 0.091833 -0.323375
v 0.049513 0.136912 -0.320063
v 0.063421 0.131102 -0.307709
v 0.040876 0.101809 -0.334067
v 0.024346 0.111316 -0.338703
v 0.031535 0.140532 -0.327048
v 0.040876 0.101809 -0.334067
v 0.031535 0.140532 -0.327048
v 0.049513 0.136912 -0.320063
v 0.024346 0.111316 -0.338703
v 0.006686 0.118906 -0.336578
v 0.012224 0.141411 -0.327599
v 0.024346 0.111316 -0.338703
v 0.012224 0.141411 -0.327599
v 0.031535 0.140532 -0.327048
v 0.034956 0.047548 -0.319588
v 0.028832 0.058037 -0.334208
v 0.053759 0.091833 -0.323375
v 0.034956 0.047548 -0.319588
v 0.053759 0.091833 -0.323375
v 0.061034 0.082905 -0.308254
v 0.028832 0.058037 -0.334208
v 0.018594 0.071600 -0.343751
v 0.040876 0.101809 -0.334067
v 0.028832 0.058037 -0.334208
v 0.040876 0.101809 -0.334067
v 0.053759 0.091833 -0.323375
v 0.018594 0.071600 -0.343751
v 0.005801 0.086173 -0.346763
v 0.024346 0.111316 -0.338703
v 0.018594 0.071600 -0.343751
v 0.024346 0.111316 -0.338703
v 0.040876 0.101809 -0.334067
v 0.005801 0.086173 -0.346763
v -0.007599 0.099537 -0.342786
v 0.006686 0.118906 -0.336578
v 0.005801 0.086173 -0.346763
v 0.006686 0.118906 -0.336578
v 0.024346 0.111316 -0.338703
v -0.003123 0.023301 -0.324140
v -0.007566 0.034860 -0.338559
v 0.028832 0.058037 -0.334208
v -0.003123 0.023301 -0.324140
v 0.028832 0.058037 -0.334208
v 0.034956 0.047548 -0.319588
v -0.007566 0.034860 -0.338559
v -0.013941 0.050883 -0.347640
v 0.018594 0.071600 -0.343751
v -0.007566 0.034860 -0.338559
v 0.018594 0.071600 -0.343751
v 0.028832 0.058037 -0.334208
v -0.013941 0.050883 -0.347640
v -0.021278 0.068930 -0.350000
v 0.005801 0.086173 -0.346763
v -0.013941 0.050883 -0.347640
v 0.005801 0.086173 -0.346763
v 0.018594 0.071600 -0.343751
v -0.021278 0.068930 -0.350000
v -0.028459 0.086255 -0.345280
v -0.007599 0.099537 -0.342786
v -0.021278 0.068930 -0.350000
v -0.007599 0.099537 -0.342786
v 0.005801 0.086173 -0.346763
v -0.047404 0.013855 -0.321217
v -0.049893 0.025831 -0.335765
v -0.007566 0.034860 -0.338559
v -0.047404 0.013855 -0.321217
v -0.007566 0.034860 -0.338559
v -0.003123 0.023301 -0.324140
v -0.049893 0.025831 -0.335765
v -0.051776 0.042811 -0.345142
v -0.013941 0.050883 -0.347640
v -0.049893 0.025831 -0.335765
v -0.013941 0.050883 -0.347640
v -0.007566 0.034860 -0.338559
v -0.051776 0.042811 -0.345142
v -0.052768 0.062212 -0.347921
v -0.021278 0.068930 -0.350000
v -0.051776 0.042811 -0.345142
v -0.021278 0.068930 -0.350000
v -0.013941 0.050883 -0.347640
v -0.052768 0.062212 -0.347921
v -0.052716 0.081080 -0.343678
v -0.028459 0.086255 -0.345280
v -0.052768 0.062212 -0.347921
v -0.028459 0.086255 -0.345280
v -0.021278 0.068930 -0.350000
v -0.091146 0.020647 -0.311264
v -0.091705 0.032323 -0.326251
v -0.049893 0.025831 -0.335765
v -0.091146 0.020647 -0.311264
v -0.049893 0.025831 -0.335765
v -0.047404 0.013855 -0.321217
v -0.091705 0.032323 -0.326251
v -0.089151 0.048615 -0.336638
v -0.051776 0.042811 -0.345142
v -0.091705 0.032323 -0.326251
v -0.051776 0.042811 -0.345142
v -0.049893 0.025831 -0.335765
v -0.089151 0.048615 -0.336638
v -0.083875 0.067042 -0.340843
v -0.052768 0.062212 -0.347921
v -0.089151 0.048615 -0.336638
v -0.052768 0.062212 -0.347921
v -0.051776 0.042811 -0.345142
v -0.083875 0.067042 -0.340843
v -0.076679 0.084801 -0.338226
v -0.052716 0.081080 -0.343678
v -0.083875 0.067042 -0.340843
v -0.052716 0.081080 -0.343678
v -0.052768 0.062212 -0.347921
v -0.127691 0.042644 -0.295797
v -0.126636 0.053349 -0.311467
v -0.091705 0.032323 -0.326251
v -0.127691 0.042644 -0.295797
v -0.091705 0.032323 -0.326251
v -0.091146 0.020647 -0.311264
v -0.126636 0.053349 -0.311467
v -0.120376 0.067410 -0.323423
v -0.089151 0.048615 -0.336638
v -0.126636 0.053349 -0.311467
v -0.089151 0.048615 -0.336638
v -0.091705 0.032323 -0.326251
v -0.120376 0.067410 -0.323423
v -0.109863 0.082685 -0.329844
v -0.083875 0.067042 -0.340843
v -0.120376 0.067410 -0.323423
v -0.083875 0.067042 -0.340843
v -0.089151 0.048615 -0.336638
v -0.109863 0.082685 -0.329844
v -0.096698 0.096851 -0.329753
v -0.076679 0.084801 -0.338226
v -0.109863 0.082685 -0.329844
v -0.076679 0.084801 -0.338226
v -0.083875 0.067042 -0.340843
v -0.151473 0.076497 -0.277170
v -0.149369 0.085708 -0.293662
v -0.126636 0.053349 -0.311467
v -0.151473 0.076497 -0.277170
v -0.126636 0.053349 -0.311467
v -0.127691 0.042644 -0.295797
v -0.149369 0.085708 -0.293662
v -0.140697 0.096334 -0.307508
v -0.120376 0.067410 -0.323423
v -0.149369 0.085708 -0.293662
v -0.120376 0.067410 -0.323423
v -0.126636 0.053349 -0.311467
v -0.140697 0.096334 -0.307508
v -0.126776 0.106759 -0.316598
v -0.109863 0.082685 -0.329844
v -0.140697 0.096334 -0.307508
v -0.109863 0.082685 -0.329844
v -0.120376 0.067410 -0.323423
v -0.126776 0.106759 -0.316598
v -0.109726 0.115395 -0.319550
v -0.096698 0.096851 -0.329753
v -0.126776 0.106759 -0.316598
v -0.096698 0.096851 -0.329753
v -0.109863 0.082685 -0.329844
v -0.158874 0.117052 -0.258219
v -0.156443 0.124472 -0.275548
v -0.149369 0.085708 -0.293662
v -0.158874 0.117052 -0.258219
v -0.149369 0.085708 -0.293662
v -0.151473 0.076497 -0.277170
v -0.156443 0.124472 -0.275548
v -0.147020 0.130986 -0.291315
v -0.140697 0.096334 -0.307508
v -0.156443 0.124472 -0.275548
v -0.140697 0.096334 -0.307508
v -0.149369 0.085708 -0.293662
v -0.147020 0.130986 -0.291315
v -0.132039 0.135599 -0.303121
v -0.126776 0.106759 -0.316598
v -0.147020 0.130986 -0.291315
v -0.126776 0.106759 -0.316598
v -0.140697 0.096334 -0.307508
v -0.132039 0.135599 -0.303121
v -0.113780 0.137611 -0.309168
v -0.109726 0.115395 -0.319550
v -0.132039 0.135599 -0.303121
v -0.109726 0.115395 -0.319550
v -0.126776 0.106759 -0.316598
v -0.143353 0.071933 -0.155182
v -0.133167 0.113334 -0.138666
v -0.148766 0.158134 -0.241830
v -0.143353 0.071933 -0.155182
v -0.148766 0.158134 -0.241830
v -0.158874 0.117052 -0.258219
v -0.135895 0.031063 -0.174280
v -0.143353 0.071933 -0.155182
v -0.158874 0.117052 -0.258219
v -0.135895 0.031063 -0.174280
v -0.158874 0.117052 -0.258219
v -0.151473 0.076497 -0.277170
v -0.108243 0.160117 -0.300190
v -0.093957 0.179485 -0.293981
v -0.073097 0.192768 -0.291488
v -0.108243 0.160117 -0.300190
v -0.073097 0.192768 -0.291488
v -0.048840 0.197942 -0.293089
v -0.108243 0.160117 -0.300190
v -0.048840 0.197942 -0.293089
v -0.024878 0.194222 -0.298541
v -0.108243 0.160117 -0.300190
v -0.024878 0.194222 -0.298541
v -0.004859 0.182172 -0.307014
v -0.108243 0.160117 -0.300190
v -0.004859 0.182172 -0.307014
v 0.008170 0.163627 -0.317218
v -0.108243 0.160117 -0.300190
v 0.008170 0.163627 -0.317218
v 0.012224 0.141411 -0.327599
v -0.108243 0.160117 -0.300190
v 0.012224 0.141411 -0.327599
v 0.006686 0.118906 -0.336578
v -0.108243 0.160117 -0.300190
v 0.006686 0.118906 -0.336578
v -0.007599 0.099537 -0.342786
v -0.108243 0.160117 -0.300190
v -0.007599 0.099537 -0.342786
v -0.028459 0.086255 -0.345280
v -0.108243 0.160117 -0.300190
v -0.028459 0.086255 -0.345280
v -0.052716 0.081080 -0.343678
v -0.108243 0.160117 -0.300190
v -0.052716 0.081080 -0.343678
v -0.076679 0.084801 -0.338226
v -0.108243 0.160117 -0.300190
v -0.076679 0.084801 -0.338226
v -0.096698 0.096851 -0.329753
v -0.108243 0.160117 -0.300190
v -0.096698 0.096851 -0.329753
v -0.109726 0.115395 -0.319550
v -0.108243 0.160117 -0.300190
v -0.109726 0.115395 -0.319550
v -0.113780 0.137611 -0.309168
v -0.133167 0.113334 -0.138666
v -0.106886 0.148964 -0.127244
v -0.122687 0.193490 -0.230496
v -0.133167 0.113334 -0.138666
v -0.122687 0.193490 -0.230496
v -0.148766 0.158134 -0.241830
v -0.106886 0.148964 -0.127244
v -0.068513 0.173399 -0.122657
v -0.084609 0.217737 -0.225944
v -0.106886 0.148964 -0.127244
v -0.084609 0.217737 -0.225944
v -0.122687 0.193490 -0.230496
v -0.068513 0.173399 -0.122657
v -0.023888 0.182919 -0.125603
v -0.040328 0.227184 -0.228867
v -0.068513 0.173399 -0.122657
v -0.040328 0.227184 -0.228867
v -0.084609 0.217737 -0.225944
v -0.023888 0.182919 -0.125603
v 0.020193 0.176074 -0.135633
v 0.003415 0.220392 -0.238820
v -0.023888 0.182919 -0.125603
v 0.003415 0.220392 -0.238820
v -0.040328 0.227184 -0.228867
v 0.020193 0.176074 -0.135633
v 0.057021 0.153906 -0.151220
v 0.039959 0.198395 -0.254287
v 0.020193 0.176074 -0.135633
v 0.039959 0.198395 -0.254287
v 0.003415 0.220392 -0.238820
v 0.057021 0.153906 -0.151220
v 0.080988 0.119791 -0.169991
v 0.063742 0.164542 -0.272914
v 0.057021 0.153906 -0.151220
v 0.063742 0.164542 -0.272914
v 0.039959 0.198395 -0.254287
v 0.080988 0.119791 -0.169991
v 0.088446 0.078922 -0.189089
v 0.071143 0.123987 -0.291865
v 0.080988 0.119791 -0.169991
v 0.071143 0.123987 -0.291865
v 0.063742 0.164542 -0.272914
v 0.088446 0.078922 -0.189089
v 0.078260 0.037521 -0.205605
v 0.061034 0.082905 -0.308254
v 0.088446 0.078922 -0.189089
v 0.061034 0.082905 -0.308254
v 0.071143 0.123987 -0.291865
v 0.078260 0.037521 -0.205605
v 0.051979 0.001891 -0.217027
v 0.034956 0.047548 -0.319588
v 0.078260 0.037521 -0.205605
v 0.034956 0.047548 -0.319588
v 0.061034 0.082905 -0.308254
v 0.051979 0.001891 -0.217027
v 0.013606 -0.022544 -0.221614
v -0.003123 0.023301 -0.324140
v 0.051979 0.001891 -0.217027
v -0.003123 0.023301 -0.324140
v 0.034956 0.047548 -0.319588
v 0.013606 -0.022544 -0.221614
v -0.031019 -0.032064 -0.218668
v -0.047404 0.013855 -0.321217
v 0.013606 -0.022544 -0.221614
v -0.047404 0.013855 -0.321217
v -0.003123 0.023301 -0.324140
v -0.031019 -0.032064 -0.218668
v -0.075100 -0.025219 -0.208638
v -0.091146 0.020647 -0.311264
v -0.031019 -0.032064 -0.218668
v -0.091146 0.020647 -0.311264
v -0.047404 0.013855 -0.321217
v -0.075100 -0.025219 -0.208638
v -0.111928 -0.003052 -0.193051
v -0.127691 0.042644 -0.295797
v -0.075100 -0.025219 -0.208638
v -0.127691 0.042644 -0.295797
v -0.091146 0.020647 -0.311264
v -0.111928 -0.003052 -0.193051
v -0.135895 0.031063 -0.174280
v -0.151473 0.076497 -0.277170
v -0.111928 -0.003052 -0.193051
v -0.151473 0.076497 -0.277170
v -0.127691 0.042644 -0.295797
v -0.115941 0.067950 -0.036017
v -0.126050 0.026867 -0.052406
v -0.118328 0.019753 -0.036563
v -0.115941 0.067950 -0.036017
v -0.118328 0.019753 -0.036563
v -0.108666 0.059022 -0.020896
v -0.108666 0.059022 -0.020896
v -0.118328 0.019753 -0.036563
v -0.104420 0.013943 -0.024208
v -0.108666 0.059022 -0.020896
v -0.104420 0.013943 -0.024208
v -0.095783 0.049045 -0.010204
v -0.095783 0.049045 -0.010204
v -0.104420 0.013943 -0.024208
v -0.086442 0.010323 -0.017223
v -0.095783 0.049045 -0.010204
v -0.086442 0.010323 -0.017223
v -0.079253 0.039538 -0.005568
v -0.079253 0.039538 -0.005568
v -0.086442 0.010323 -0.017223
v -0.067131 0.009444 -0.016672
v -0.079253 0.039538 -0.005568
v -0.067131 0.009444 -0.016672
v -0.061594 0.031949 -0.007693
v -0.089863 0.103306 -0.024683
v -0.115941 0.067950 -0.036017
v -0.108666 0.059022 -0.020896
v -0.089863 0.103306 -0.024683
v -0.108666 0.059022 -0.020896
v -0.083739 0.092818 -0.010063
v -0.083739 0.092818 -0.010063
v -0.108666 0.059022 -0.020896
v -0.095783 0.049045 -0.010204
v -0.083739 0.092818 -0.010063
v -0.095783 0.049045 -0.010204
v -0.073501 0.079255 -0.000521
v -0.073501 0.079255 -0.000521
v -0.095783 0.049045 -0.010204
v -0.079253 0.039538 -0.005568
v -0.073501 0.079255 -0.000521
v -0.079253 0.039538 -0.005568
v -0.060708 0.064682 0.002492
v -0.060708 0.064682 0.002492
v -0.079253 0.039538 -0.005568
v -0.061594 0.031949 -0.007693
v -0.060708 0.064682 0.002492
v -0.061594 0.031949 -0.007693
v -0.047308 0.051317 -0.001485
v -0.051784 0.127553 -0.020131
v -0.089863 0.103306 -0.024683
v -0.083739 0.092818 -0.010063
v -0.051784 0.127553 -0.020131
v -0.083739 0.092818 -0.010063
v -0.047341 0.115995 -0.005712
v -0.047341 0.115995 -0.005712
v -0.083739 0.092818 -0.010063
v -0.073501 0.079255 -0.000521
v -0.047341 0.115995 -0.005712
v -0.073501 0.079255 -0.000521
v -0.040966 0.099972 0.003369
v -0.040966 0.099972 0.003369
v -0.073501 0.079255 -0.000521
v -0.060708 0.064682 0.002492
v -0.040966 0.099972 0.003369
v -0.060708 0.064682 0.002492
v -0.033629 0.081924 0.005729
v -0.033629 0.081924 0.005729
v -0.060708 0.064682 0.002492
v -0.047308 0.051317 -0.001485
v -0.033629 0.081924 0.005729
v -0.047308 0.051317 -0.001485
v -0.026448 0.064600 0.001008
v -0.007503 0.137000 -0.023054
v -0.051784 0.127553 -0.020131
v -0.047341 0.115995 -0.005712
v -0.007503 0.137000 -0.023054
v -0.047341 0.115995 -0.005712
v -0.005014 0.125024 -0.008506
v -0.005014 0.125024 -0.008506
v -0.047341 0.115995 -0.005712
v -0.040966 0.099972 0.003369
v -0.005014 0.125024 -0.008506
v -0.040966 0.099972 0.003369
v -0.003131 0.108043 0.000871
v -0.003131 0.108043 0.000871
v -0.040966 0.099972 0.003369
v -0.033629 0.081924 0.005729
v -0.003131 0.108043 0.000871
v -0.033629 0.081924 0.005729
v -0.002139 0.088642 0.003650
v -0.002139 0.088642 0.003650
v -0.033629 0.081924 0.005729
v -0.026448 0.064600 0.001008
v -0.002139 0.088642 0.003650
v -0.026448 0.064600 0.001008
v -0.002191 0.069775 -0.000593
v 0.036239 0.130207 -0.033007
v -0.007503 0.137000 -0.023054
v -0.005014 0.125024 -0.008506
v 0.036239 0.130207 -0.033007
v -0.005014 0.125024 -0.008506
v 0.036798 0.118532 -0.018020
v 0.036798 0.118532 -0.018020
v -0.005014 0.125024 -0.008506
v -0.003131 0.108043 0.000871
v 0.036798 0.118532 -0.018020
v -0.003131 0.108043 0.000871
v 0.034244 0.102240 -0.007633
v 0.034244 0.102240 -0.007633
v -0.003131 0.108043 0.000871
v -0.002139 0.088642 0.003650
v 0.034244 0.102240 -0.007633
v -0.002139 0.088642 0.003650
v 0.028968 0.083812 -0.003428
v 0.028968 0.083812 -0.003428
v -0.002139 0.088642 0.003650
v -0.002191 0.069775 -0.000593
v 0.028968 0.083812 -0.003428
v -0.002191 0.069775 -0.000593
v 0.021771 0.066054 -0.006045
v 0.072783 0.108210 -0.048474
v 0.036239 0.130207 -0.033007
v 0.036798 0.118532 -0.018020
v 0.072783 0.108210 -0.048474
v 0.036798 0.118532 -0.018020
v 0.071729 0.097506 -0.032804
v 0.071729 0.097506 -0.032804
v 0.036798 0.118532 -0.018020
v 0.034244 0.102240 -0.007633
v 0.071729 0.097506 -0.032804
v 0.034244 0.102240 -0.007633
v 0.065469 0.083445 -0.020848
v 0.065469 0.083445 -0.020848
v 0.034244 0.102240 -0.007633
v 0.028968 0.083812 -0.003428
v 0.065469 0.083445 -0.020848
v 0.028968 0.083812 -0.003428
v 0.054956 0.068169 -0.014427
v 0.054956 0.068169 -0.014427
v 0.028968 0.083812 -0.003428
v 0.021771 0.066054 -0.006045
v 0.054956 0.068169 -0.014427
v 0.021771 0.066054 -0.006045
v 0.041791 0.054004 -0.014518
v 0.096566 0.074358 -0.067101
v 0.072783 0.108210 -0.048474
v 0.071729 0.097506 -0.032804
v 0.096566 0.074358 -0.067101
v 0.071729 0.097506 -0.032804
v 0.094462 0.065147 -0.050609
v 0.094462 0.065147 -0.050609
v 0.071729 0.097506 -0.032804
v 0.065469 0.083445 -0.020848
v 0.094462 0.065147 -0.050609
v 0.065469 0.083445 -0.020848
v 0.085790 0.054520 -0.036764
v 0.085790 0.054520 -0.036764
v 0.065469 0.083445 -0.020848
v 0.054956 0.068169 -0.014427
v 0.085790 0.054520 -0.036764
v 0.054956 0.068169 -0.014427
v 0.071869 0.044095 -0.027673
v 0.071869 0.044095 -0.027673
v 0.054956 0.068169 -0.014427
v 0.041791 0.054004 -0.014518
v 0.071869 0.044095 -0.027673
v 0.041791 0.054004 -0.014518
v 0.054819 0.035459 -0.024722
v 0.103967 0.033803 -0.086052
v 0.096566 0.074358 -0.067101
v 0.094462 0.065147 -0.050609
v 0.103967 0.033803 -0.086052
v 0.094462 0.065147 -0.050609
v 0.101536 0.026382 -0.068723
v 0.101536 0.026382 -0.068723
v 0.094462 0.065147 -0.050609
v 0.085790 0.054520 -0.036764
v 0.101536 0.026382 -0.068723
v 0.085790 0.054520 -0.036764
v 0.092113 0.019869 -0.052956
v 0.092113 0.019869 -0.052956
v 0.085790 0.054520 -0.036764
v 0.071869 0.044095 -0.027673
v 0.092113 0.019869 -0.052956
v 0.071869 0.044095 -0.027673
v 0.077132 0.015255 -0.041150
v 0.077132 0.015255 -0.041150
v 0.071869 0.044095 -0.027673
v 0.054819 0.035459 -0.024722
v 0.077132 0.015255 -0.041150
v 0.054819 0.035459 -0.024722
v 0.058873 0.013243 -0.035103
v 0.093859 -0.007280 -0.102441
v 0.103967 0.033803 -0.086052
v 0.101536 0.026382 -0.068723
v 0.093859 -0.007280 -0.102441
v 0.101536 0.026382 -0.068723
v 0.091874 -0.012887 -0.084389
v 0.091874 -0.012887 -0.084389
v 0.101536 0.026382 -0.068723
v 0.092113 0.019869 -0.052956
v 0.091874 -0.012887 -0.084389
v 0.092113 0.019869 -0.052956
v 0.083476 -0.015233 -0.066960
v 0.083476 -0.015233 -0.066960
v 0.092113 0.019869 -0.052956
v 0.077132 0.015255 -0.041150
v 0.083476 -0.015233 -0.066960
v 0.077132 0.015255 -0.041150
v 0.069943 -0.013960 -0.052805
v 0.069943 -0.013960 -0.052805
v 0.077132 0.015255 -0.041150
v 0.058873 0.013243 -0.035103
v 0.069943 -0.013960 -0.052805
v 0.058873 0.013243 -0.035103
v 0.053336 -0.009262 -0.044081
v 0.067780 -0.042636 -0.113775
v 0.093859 -0.007280 -0.102441
v 0.091874 -0.012887 -0.084389
v 0.067780 -0.042636 -0.113775
v 0.091874 -0.012887 -0.084389
v 0.066947 -0.046683 -0.095223
v 0.066947 -0.046683 -0.095223
v 0.091874 -0.012887 -0.084389
v 0.083476 -0.015233 -0.066960
v 0.066947 -0.046683 -0.095223
v 0.083476 -0.015233 -0.066960
v 0.061194 -0.045443 -0.076643
v 0.061194 -0.045443 -0.076643
v 0.083476 -0.015233 -0.066960
v 0.069943 -0.013960 -0.052805
v 0.061194 -0.045443 -0.076643
v 0.069943 -0.013960 -0.052805
v 0.051398 -0.039103 -0.060865
v 0.051398 -0.039103 -0.060865
v 0.069943 -0.013960 -0.052805
v 0.053336 -0.009262 -0.044081
v 0.051398 -0.039103 -0.060865
v 0.053336 -0.009262 -0.044081
v 0.039050 -0.028630 -0.050290
v 0.029702 -0.066883 -0.118327
v 0.067780 -0.042636 -0.113775
v 0.066947 -0.046683 -0.095223
v 0.029702 -0.066883 -0.118327
v 0.066947 -0.046683 -0.095223
v 0.030549 -0.069860 -0.099573
v 0.030549 -0.069860 -0.099573
v 0.066947 -0.046683 -0.095223
v 0.061194 -0.045443 -0.076643
v 0.030549 -0.069860 -0.099573
v 0.061194 -0.045443 -0.076643
v 0.028659 -0.066160 -0.080532
v 0.028659 -0.066160 -0.080532
v 0.061194 -0.045443 -0.076643
v 0.051398 -0.039103 -0.060865
v 0.028659 -0.066160 -0.080532
v 0.051398 -0.039103 -0.060865
v 0.024319 -0.056346 -0.064102
v 0.024319 -0.056346 -0.064102
v 0.051398 -0.039103 -0.060865
v 0.039050 -0.028630 -0.050290
v 0.024319 -0.056346 -0.064102
v 0.039050 -0.028630 -0.050290
v 0.018190 -0.041913 -0.052783
v -0.014579 -0.076329 -0.115404
v 0.029702 -0.066883 -0.118327
v 0.030549 -0.069860 -0.099573
v -0.014579 -0.076329 -0.115404
v 0.030549 -0.069860 -0.099573
v -0.011778 -0.078889 -0.096780
v -0.011778 -0.078889 -0.096780
v 0.030549 -0.069860 -0.099573
v 0.028659 -0.066160 -0.080532
v -0.011778 -0.078889 -0.096780
v 0.028659 -0.066160 -0.080532
v -0.009176 -0.074231 -0.078035
v -0.009176 -0.074231 -0.078035
v 0.028659 -0.066160 -0.080532
v 0.024319 -0.056346 -0.064102
v -0.009176 -0.074231 -0.078035
v 0.024319 -0.056346 -0.064102
v -0.007171 -0.063064 -0.062023
v -0.007171 -0.063064 -0.062023
v 0.024319 -0.056346 -0.064102
v 0.018190 -0.041913 -0.052783
v -0.007171 -0.063064 -0.062023
v 0.018190 -0.041913 -0.052783
v -0.006067 -0.047088 -0.051182
v -0.058322 -0.069537 -0.105451
v -0.014579 -0.076329 -0.115404
v -0.011778 -0.078889 -0.096780
v -0.058322 -0.069537 -0.105451
v -0.011778 -0.078889 -0.096780
v -0.053590 -0.072397 -0.087266
v -0.053590 -0.072397 -0.087266
v -0.011778 -0.078889 -0.096780
v -0.009176 -0.074231 -0.078035
v -0.053590 -0.072397 -0.087266
v -0.009176 -0.074231 -0.078035
v -0.046551 -0.068428 -0.069531
v -0.046551 -0.068428 -0.069531
v -0.009176 -0.074231 -0.078035
v -0.007171 -0.063064 -0.062023
v -0.046551 -0.068428 -0.069531
v -0.007171 -0.063064 -0.062023
v -0.038278 -0.058234 -0.054945
v -0.038278 -0.058234 -0.054945
v -0.007171 -0.063064 -0.062023
v -0.006067 -0.047088 -0.051182
v -0.038278 -0.058234 -0.054945
v -0.006067 -0.047088 -0.051182
v -0.030029 -0.043367 -0.045730
v -0.094866 -0.047540 -0.089984
v -0.058322 -0.069537 -0.105451
v -0.053590 -0.072397 -0.087266
v -0.094866 -0.047540 -0.089984
v -0.053590 -0.072397 -0.087266
v -0.088521 -0.051371 -0.072482
v -0.088521 -0.051371 -0.072482
v -0.053590 -0.072397 -0.087266
v -0.046551 -0.068428 -0.069531
v -0.088521 -0.051371 -0.072482
v -0.046551 -0.068428 -0.069531
v -0.077776 -0.049633 -0.056315
v -0.077776 -0.049633 -0.056315
v -0.046551 -0.068428 -0.069531
v -0.038278 -0.058234 -0.054945
v -0.077776 -0.049633 -0.056315
v -0.038278 -0.058234 -0.054945
v -0.064266 -0.042591 -0.043946
v -0.064266 -0.042591 -0.043946
v -0.038278 -0.058234 -0.054945
v -0.030029 -0.043367 -0.045730
v -0.064266 -0.042591 -0.043946
v -0.030029 -0.043367 -0.045730
v -0.050049 -0.031317 -0.037257
v -0.118649 -0.013687 -0.071357
v -0.094866 -0.047540 -0.089984
v -0.088521 -0.051371 -0.072482
v -0.118649 -0.013687 -0.071357
v -0.088521 -0.051371 -0.072482
v -0.111254 -0.019012 -0.054677
v -0.111254 -0.019012 -0.054677
v -0.088521 -0.051371 -0.072482
v -0.077776 -0.049633 -0.056315
v -0.111254 -0.019012 -0.054677
v -0.077776 -0.049633 -0.056315
v -0.098097 -0.020708 -0.040400
v -0.098097 -0.020708 -0.040400
v -0.077776 -0.049633 -0.056315
v -0.064266 -0.042591 -0.043946
v -0.098097 -0.020708 -0.040400
v -0.064266 -0.042591 -0.043946
v -0.081179 -0.018517 -0.030700
v -0.081179 -0.018517 -0.030700
v -0.064266 -0.042591 -0.043946
v -0.050049 -0.031317 -0.037257
v -0.081179 -0.018517 -0.030700
v -0.050049 -0.031317 -0.037257
v -0.063077 -0.012772 -0.027053
v -0.126050 0.026867 -0.052406
v -0.118649 -0.013687 -0.071357
v -0.111254 -0.019012 -0.054677
v -0.126050 0.026867 -0.052406
v -0.111254 -0.019012 -0.054677
v -0.118328 0.019753 -0.036563
v -0.118328 0.019753 -0.036563
v -0.111254 -0.019012 -0.054677
v -0.098097 -0.020708 -0.040400
v -0.118328 0.019753 -0.036563
v -0.098097 -0.020708 -0.040400
v -0.104420 0.013943 -0.024208
v -0.104420 0.013943 -0.024208
v -0.098097 -0.020708 -0.040400
v -0.081179 -0.018517 -0.030700
v -0.104420 0.013943 -0.024208
v -0.081179 -0.018517 -0.030700
v -0.086442 0.010323 -0.017223
v -0.086442 0.010323 -0.017223
v -0.081179 -0.018517 -0.030700
v -0.063077 -0.012772 -0.027053
v -0.086442 0.010323 -0.017223
v -0.063077 -0.012772 -0.027053
v -0.067131 0.009444 -0.016672
v -0.143353 0.071933 -0.155182
v -0.126050 0.026867 -0.052406
v -0.115941 0.067950 -0.036017
v -0.143353 0.071933 -0.155182
v -0.115941 0.067950 -0.036017
v -0.133167 0.113334 -0.138666
v -0.135895 0.031063 -0.174280
v -0.118649 -0.013687 -0.071357
v -0.126050 0.026867 -0.052406
v -0.135895 0.031063 -0.174280
v -0.126050 0.026867 -0.052406
v -0.143353 0.071933 -0.155182
v -0.061594 0.031949 -0.007693
v -0.067131 0.009444 -0.016672
v -0.063077 -0.012772 -0.027053
v -0.061594 0.031949 -0.007693
v -0.063077 -0.012772 -0.027053
v -0.050049 -0.031317 -0.037257
v -0.061594 0.031949 -0.007693
v -0.050049 -0.031317 -0.037257
v -0.030029 -0.043367 -0.045730
v -0.061594 0.031949 -0.007693
v -0.030029 -0.043367 -0.045730
v -0.006067 -0.047088 -0.051182
v -0.061594 0.031949 -0.007693
v -0.006067 -0.047088 -0.051182
v 0.018190 -0.041913 -0.052783
v -0.061594 0.031949 -0.007693
v 0.018190 -0.041913 -0.052783
v 0.039050 -0.028630 -0.050290
v -0.061594 0.031949 -0.007693
v 0.039050 -0.028630 -0.050290
v 0.053336 -0.009262 -0.044081
v -0.061594 0.031949 -0.007693
v 0.053336 -0.009262 -0.044081
v 0.058873 0.013243 -0.035103
v -0.061594 0.031949 -0.007693
v 0.058873 0.013243 -0.035103
v 0.054819 0.035459 -0.024722
v -0.061594 0.031949 -0.007693
v 0.054819 0.035459 -0.024722
v 0.041791 0.054004 -0.014518
v -0.061594 0.031949 -0.007693
v 0.041791 0.054004 -0.014518
v 0.021771 0.066054 -0.006045
v -0.061594 0.031949 -0.007693
v 0.021771 0.066054 -0.006045
v -0.002191 0.069775 -0.000593
v -0.061594 0.031949 -0.007693
v -0.002191 0.069775 -0.000593
v -0.026448 0.064600 0.001008
v -0.061594 0.031949 -0.007693
v -0.026448 0.064600 0.001008
v -0.047308 0.051317 -0.001485
v -0.133167 0.113334 -0.138666
v -0.115941 0.067950 -0.036017
v -0.089863 0.103306 -0.024683
v -0.133167 0.113334 -0.138666
v -0.089863 0.103306 -0.024683
v -0.106886 0.148964 -0.127244
v -0.106886 0.148964 -0.127244
v -0.089863 0.103306 -0.024683
v -0.051784 0.127553 -0.020131
v -0.106886 0.148964 -0.127244
v -0.051784 0.127553 -0.020131
v -0.068513 0.173399 -0.122657
v -0.068513 0.173399 -0.122657
v -0.051784 0.127553 -0.020131
v -0.007503 0.137000 -0.023054
v -0.068513 0.173399 -0.122657
v -0.007503 0.137000 -0.023054
v -0.023888 0.182919 -0.125603
v -0.023888 0.182919 -0.125603
v -0.007503 0.137000 -0.023054
v 0.036239 0.130207 -0.033007
v -0.023888 0.182919 -0.125603
v 0.036239 0.130207 -0.033007
v 0.020193 0.176074 -0.135633
v 0.020193 0.176074 -0.135633
v 0.036239 0.130207 -0.033007
v 0.072783 0.108210 -0.048474
v 0.020193 0.176074 -0.135633
v 0.072783 0.108210 -0.048474
v 0.057021 0.153906 -0.151220
v 0.057021 0.153906 -0.151220
v 0.072783 0.108210 -0.048474
v 0.096566 0.074358 -0.067101
v 0.057021 0.153906 -0.151220
v 0.096566 0.074358 -0.067101
v 0.080988 0.119791 -0.169991
v 0.080988 0.119791 -0.169991
v 0.096566 0.074358 -0.067101
v 0.103967 0.033803 -0.086052
v 0.080988 0.119791 -0.169991
v 0.103967 0.033803 -0.086052
v 0.088446 0.078922 -0.189089
v 0.088446 0.078922 -0.189089
v 0.103967 0.033803 -0.086052
v 0.093859 -0.007280 -0.102441
v 0.088446 0.078922 -0.189089
v 0.093859 -0.007280 -0.102441
v 0.078260 0.037521 -0.205605
v 0.078260 0.037521 -0.205605
v 0.093859 -0.007280 -0.102441
v 0.067780 -0.042636 -0.113775
v 0.078260 0.037521 -0.205605
v 0.067780 -0.042636 -0.113775
v 0.051979 0.001891 -0.217027
v 0.051979 0.001891 -0.217027
v 0.067780 -0.042636 -0.113775
v 0.029702 -0.066883 -0.118327
v 0.051979 0.001891 -0.217027
v 0.029702 -0.066883 -0.118327
v 0.013606 -0.022544 -0.221614
v 0.013606 -0.022544 -0.221614
v 0.029702 -0.066883 -0.118327
v -0.014579 -0.076329 -0.115404
v 0.013606 -0.022544 -0.221614
v -0.014579 -0.076329 -0.115404
v -0.031019 -0.032064 -0.218668
v -0.031019 -0.032064 -0.218668
v -0.014579 -0.076329 -0.115404
v -0.058322 -0.069537 -0.105451
v -0.031019 -0.032064 -0.218668
v -0.058322 -0.069537 -0.105451
v -0.075100 -0.025219 -0.208638
v -0.075100 -0.025219 -0.208638
v -0.058322 -0.069537 -0.105451
v -0.094866 -0.047540 -0.089984
v -0.075100 -0.025219 -0.208638
v -0.094866 -0.047540 -0.089984
v -0.111928 -0.003052 -0.193051
v -0.111928 -0.003052 -0.193051
v -0.094866 -0.047540 -0.089984
v -0.118649 -0.013687 -0.071357
v -0.111928 -0.003052 -0.193051
v -0.118649 -0.013687 -0.071357
v -0.135895 0.031063 -0.174280
f 1 2 3
f 4 5 6
f 7 8 9
f 10 11 12
f 13 14 15
f 16 17 18
f 19 20 21
f 22 23 24
f 25 26 27
f 28 29 30
f 31 32 33
f 34 35 36
f 37 38 39
f 40 41 42
f 43 44 45
f 46 47 48
f 49 50 51
f 52 53 54
f 55 56 57
f 58 59 60
f 61 62 63
f 64 65 66
f 67 68 69
f 70 71 72
f 73 74 75
f 76 77 78
f 79 80 81
f 82 83 84
f 85 86 87
f 88 89 90
f 91 92 93
f 94 95 96
f 97 98 99
f 100 101 102
f 103 104 105
f 106 107 108
f 109 110 111
f 112 113 114
f 115 116 117
f 118 119 120
f 121 122 123
f 124 125 126
f 127 128 129
f 130 131 132
f 133 134 135
f 136 137 138
f 139 140 141
f 142 143 144
f 145 146 147
f 148 149 150
f 151 152 153
f 154 155 156
f 157 158 159
f 160 161 162
f 163 164 165
f 166 167 168
f 169 170 171
f 172 173 174
f 175 176 177
f 178 179 180
f 181 182 183
f 184 185 186
f 187 188 189
f 190 191 192
f 193 194 195
f 196 197 198
f 199 200 201
f 202 203 204
f 205 206 207
f 208 209 210
f 211 212 213
f 214 215 216
f 217 218 219
f 220 221 222
f 223 224 225
f 226 227 228
f 229 230 231
f 232 233 234
f 235 236 237
f 238 239 240
f 241 242 243
f 244 245 246
f 247 248 249
f 250 251 252
f 253 254 255
f 256 257 258
f 259 260 261
f 262 263 264
f 265 266 267
f 268 269 270
f 271 272 273
f 274 275 276
f 277 278 279
f 280 281 282
f 283 284 285
f 286 287 288
f 289 290 291
f 292 293 294
f 295 296 297
f 298 299 300
f 301 302 303
f 304 305 306
f 307 308 309
f 310 311 312
f 313 314 315
f 316 317 318
f 319 320 321
f 322 323 324
f 325 326 327
f 328 329 330
f 331 332 333
f 334 335 336
f 337 338 339
f 340 341 342
f 343 344 345
f 346 347 348
f 349 350 351
f 352 353 354
f 355 356 357
f 358 359 360
f 361 362 363
f 364 365 366
f 367 368 369
f 370 371 372
f 373 374 375
f 376 377 378
f 379 380 381
f 382 383 384
f 385 386 387
f 388 389 390
f 391 392 393
f 394 395 396
f 397 398 399
f 400 401 402
f 403 404 405
f 406 407 408
f 409 410 411
f 412 413 414
f 415 416 417
f 418 419 420
f 421 422 423
f 424 425 426
f 427 428 429
f 430 431 432
f 433 434 435
f 436 437 438
f 439 440 441
f 442 443 444
f 445 446 447
f 448 449 450
f 451 452 453
f 454 455 456
f 457 458 459
f 460 461 462
f 463 464 465
f 466 467 468
f 469 470 471
f 472 473 474
f 475 476 477
f 478 479 480
f 481 482 483
f 484 485 486
f 487 488 489
f 490 491 492
f 493 494 495
f 496 497 498
f 499 500 501
f 502 503 504
f 505 506 507
f 508 509 510
f 511 512 513
f 514 515 516
f 517 518 519
f 520 521 522
f 523 524 525
f 526 527 528
f 529 530 531
f 532 533 534
f 535 536 537
f 538 539 540
f 541 542 543
f 544 545 546
f 547 548 549
f 550 551 552
f 553 554 555
f 556 557 558
f 559 560 561
f 562 563 564
f 565 566 567
f 568 569 570
f 571 572 573
f 574 575 576
f 577 578 579
f 580 581 582
f 583 584 585
f 586 587 588
f 589 590 591
f 592 593 594
f 595 596 597
f 598 599 600
f 601 602 603
f 604 605 606
f 607 608 609
f 610 611 612
f 613 614 615
f 616 617 618
f 619 620 621
f 622 623 624
f 625 626 627
f 628 629 630
f 631 632 633
f 634 635 636
f 637 638 639
f 640 641 642
f 643 644 645
f 646 647 648
f 649 650 651
f 652 653 654
f 655 656 657
f 658 659 660
f 661 662 663
f 664 665 666
f 667 668 669
f 670 671 672
f 673 674 675
f 676 677 678
f 679 680 681
f 682 683 684
f 685 686 687
f 688 689 690
f 691 692 693
f 694 695 696
f 697 698 699
f 700 701 702
f 703 704 705
f 706 707 708
f 709 710 711
f 712 713 714
f 715 716 717
f 718 719 720
f 721 722 723
f 724 725 726
f 727 728 729
f 730 731 732
f 733 734 735
f 736 737 738
f 739 740 741
f 742 743 744
f 745 746 747
f 748 749 750
f 751 752 753
f 754 755 756
f 757 758 759
f 760 761 762
f 763 764 765
f 766 767 768
f 769 770 771
f 772 773 774
f 775 776 777
f 778 779 780
f 781 782 783
f 784 785 786
f 787 788 789
f 790 791 792
f 793 794 795
f 796 797 798
f 799 800 801
f 802 803 804
f 805 806 807
f 808 809 810
f 811 812 813
f 814 815 816
f 817 818 819
f 820 821 822
f 823 824 825
f 826 827 828
f 829 830 831
f 832 833 834
f 835 836 837
f 838 839 840
f 841 842 843
f 844 845 846
f 847 848 849
f 850 851 852
f 853 854 855
f 856 857 858
f 859 860 861
f 862 863 864
f 865 866 867
f 868 869 870
f 871 872 873
f 874 875 876
f 877 878 879
f 880 881 882
f 883 884 885
f 886 887 888
f 889 890 891
f 892 893 894
f 895 896 897
f 898 899 900
f 901 902 903
f 904 905 906
f 907 908 909
f 910 911 912
f 913 914 915
f 916 917 918
f 919 920 921
f 922 923 924
f 925 926 927
f 928 929 930
f 931 932 933
f 934 935 936
f 937 938 939
f 940 941 942
f 943 944 945
f 946 947 948
f 949 950 951
f 952 953 954
f 955 956 957
f 958 959 960
f 961 962 963
f 964 965 966
f 967 968 969
f 970 971 972
f 973 974 975
f 976 977 978
f 979 980 981
f 982 983 984
f 985 986 987
f 988 989 990
f 991 992 993
f 994 995 996
f 997 998 999
f 1000 1001 1002
f 1003 1004 1005
f 1006 1007 1008
f 1009 1010 1011
f 1012 1013 1014
f 1015 1016 1017
f 1018 1019 1020
f 1021 1022 1023
f 1024 1025 1026
f 1027 1028 1029
f 1030 1031 1032
f 1033 1034 1035
f 1036 1037 1038
f 1039 1040 1041
f 1042 1043 1044
