# lizard mesh
v -0.118458 -0.080388 -0.068610
v -0.120849 -0.067657 -0.057291
v -0.111436 -0.029987 -0.095640
v -0.118458 -0.080388 -0.068610
v -0.111436 -0.029987 -0.095640
v -0.108900 -0.042137 -0.107550
v -0.120849 -0.067657 -0.057291
v -0.116177 -0.055432 -0.046570
v -0.107354 -0.020123 -0.082514
v -0.120849 -0.067657 -0.057291
v -0.107354 -0.020123 -0.082514
v -0.111436 -0.029987 -0.095640
v -0.116177 -0.055432 -0.046570
v -0.105153 -0.045571 -0.038079
v -0.097276 -0.014047 -0.070171
v -0.116177 -0.055432 -0.046570
v -0.097276 -0.014047 -0.070171
v -0.107354 -0.020123 -0.082514
v -0.105153 -0.045571 -0.038079
v -0.089457 -0.039578 -0.033111
v -0.082737 -0.012683 -0.060490
v -0.105153 -0.045571 -0.038079
v -0.082737 -0.012683 -0.060490
v -0.097276 -0.014047 -0.070171
v 0.010012 -0.311595 -0.336441
v 0.019569 -0.325314 -0.346123
v 0.011966 -0.355744 -0.315144
v 0.010012 -0.311595 -0.336441
v 0.011966 -0.355744 -0.315144
v 0.002058 -0.343430 -0.304032
v 0.019569 -0.325314 -0.346123
v 0.034464 -0.337420 -0.351030
v 0.027667 -0.364621 -0.323339
v 0.019569 -0.325314 -0.346123
v 0.027667 -0.364621 -0.323339
v 0.011966 -0.355744 -0.315144
v 0.034464 -0.337420 -0.351030
v 0.052428 -0.346069 -0.350415
v 0.046772 -0.368708 -0.327367
v 0.034464 -0.337420 -0.351030
v 0.046772 -0.368708 -0.327367
v 0.027667 -0.364621 -0.323339
v 0.052428 -0.346069 -0.350415
v 0.073175 -0.349317 -0.342304
v 0.069023 -0.365933 -0.325388
v 0.052428 -0.346069 -0.350415
v 0.069023 -0.365933 -0.325388
v 0.046772 -0.368708 -0.327367
v -0.108900 -0.042137 -0.107550
v -0.111436 -0.029987 -0.095640
v -0.082910 0.006345 -0.124699
v -0.108900 -0.042137 -0.107550
v -0.082910 0.006345 -0.124699
v -0.079934 -0.005245 -0.137058
v -0.111436 -0.029987 -0.095640
v -0.107354 -0.020123 -0.082514
v -0.080617 0.013931 -0.109751
v -0.111436 -0.029987 -0.095640
v -0.080617 0.013931 -0.109751
v -0.082910 0.006345 -0.124699
v -0.107354 -0.020123 -0.082514
v -0.097276 -0.014047 -0.070171
v -0.073404 0.016358 -0.094490
v -0.107354 -0.020123 -0.082514
v -0.073404 0.016358 -0.094490
v -0.080617 0.013931 -0.109751
v -0.097276 -0.014047 -0.070171
v -0.082737 -0.012683 -0.060490
v -0.062370 0.013256 -0.081238
v -0.097276 -0.014047 -0.070171
v -0.062370 0.013256 -0.081238
v -0.073404 0.016358 -0.094490
v 0.034120 -0.280890 -0.361000
v 0.042613 -0.295964 -0.369598
v 0.019569 -0.325314 -0.346123
v 0.034120 -0.280890 -0.361000
v 0.019569 -0.325314 -0.346123
v 0.010012 -0.311595 -0.336441
v 0.042613 -0.295964 -0.369598
v 0.055062 -0.311184 -0.372014
v 0.034464 -0.337420 -0.351030
v 0.042613 -0.295964 -0.369598
v 0.034464 -0.337420 -0.351030
v 0.019569 -0.325314 -0.346123
v 0.055062 -0.311184 -0.372014
v 0.069572 -0.324234 -0.367879
v 0.052428 -0.346069 -0.350415
v 0.055062 -0.311184 -0.372014
v 0.052428 -0.346069 -0.350415
v 0.034464 -0.337420 -0.351030
v 0.069572 -0.324234 -0.367879
v 0.085758 -0.333291 -0.355121
v 0.073175 -0.349317 -0.342304
v 0.069572 -0.324234 -0.367879
v 0.073175 -0.349317 -0.342304
v 0.052428 -0.346069 -0.350415
v -0.079934 -0.005245 -0.137058
v -0.082910 0.006345 -0.124699
v -0.039612 0.035808 -0.140046
v -0.079934 -0.005245 -0.137058
v -0.039612 0.035808 -0.140046
v -0.035969 0.024673 -0.152641
v -0.082910 0.006345 -0.124699
v -0.080617 0.013931 -0.109751
v -0.040034 0.041546 -0.124136
v -0.082910 0.006345 -0.124699
v -0.040034 0.041546 -0.124136
v -0.039612 0.035808 -0.140046
v -0.080617 0.013931 -0.109751
v -0.073404 0.016358 -0.094490
v -0.037171 0.041014 -0.107332
v -0.080617 0.013931 -0.109751
v -0.037171 0.041014 -0.107332
v -0.040034 0.041546 -0.124136
v -0.073404 0.016358 -0.094490
v -0.062370 0.013256 -0.081238
v -0.031458 0.034292 -0.092195
v -0.073404 0.016358 -0.094490
v -0.031458 0.034292 -0.092195
v -0.037171 0.041014 -0.107332
v 0.070711 -0.255990 -0.373969
v 0.077589 -0.272163 -0.381995
v 0.042613 -0.295964 -0.369598
v 0.070711 -0.255990 -0.373969
v 0.042613 -0.295964 -0.369598
v 0.034120 -0.280890 -0.361000
v 0.077589 -0.272163 -0.381995
v 0.086327 -0.289909 -0.383095
v 0.055062 -0.311184 -0.372014
v 0.077589 -0.272163 -0.381995
v 0.055062 -0.311184 -0.372014
v 0.042613 -0.295964 -0.369598
v 0.086327 -0.289909 -0.383095
v 0.095594 -0.306527 -0.377103
v 0.069572 -0.324234 -0.367879
v 0.086327 -0.289909 -0.383095
v 0.069572 -0.324234 -0.367879
v 0.055062 -0.311184 -0.372014
v 0.095594 -0.306527 -0.377103
v 0.104856 -0.320296 -0.361891
v 0.085758 -0.333291 -0.355121
v 0.095594 -0.306527 -0.377103
v 0.085758 -0.333291 -0.355121
v 0.069572 -0.324234 -0.367879
v -0.035969 0.024673 -0.152641
v -0.039612 0.035808 -0.140046
v 0.011864 0.053917 -0.139343
v -0.035969 0.024673 -0.152641
v 0.011864 0.053917 -0.139343
v 0.016301 0.043060 -0.151928
v -0.039612 0.035808 -0.140046
v -0.040034 0.041546 -0.124136
v 0.008214 0.058519 -0.123477
v -0.039612 0.035808 -0.140046
v 0.008214 0.058519 -0.123477
v 0.011864 0.053917 -0.139343
v -0.040034 0.041546 -0.124136
v -0.037171 0.041014 -0.107332
v 0.005907 0.056168 -0.106744
v -0.040034 0.041546 -0.124136
v 0.005907 0.056168 -0.106744
v 0.008214 0.058519 -0.123477
v -0.037171 0.041014 -0.107332
v -0.031458 0.034292 -0.092195
v 0.005294 0.047221 -0.091693
v -0.037171 0.041014 -0.107332
v 0.005294 0.047221 -0.091693
v 0.005907 0.056168 -0.106744
v 0.114215 -0.240687 -0.373375
v 0.119173 -0.257535 -0.381427
v 0.077589 -0.272163 -0.381995
v 0.114215 -0.240687 -0.373375
v 0.077589 -0.272163 -0.381995
v 0.070711 -0.255990 -0.373969
v 0.119173 -0.257535 -0.381427
v 0.123497 -0.276833 -0.382588
v 0.086327 -0.289909 -0.383095
v 0.119173 -0.257535 -0.381427
v 0.086327 -0.289909 -0.383095
v 0.077589 -0.272163 -0.381995
v 0.123497 -0.276833 -0.382588
v 0.126531 -0.295644 -0.376680
v 0.095594 -0.306527 -0.377103
v 0.123497 -0.276833 -0.382588
v 0.095594 -0.306527 -0.377103
v 0.086327 -0.289909 -0.383095
v 0.126531 -0.295644 -0.376680
v 0.127561 -0.312308 -0.361581
v 0.104856 -0.320296 -0.361891
v 0.126531 -0.295644 -0.376680
v 0.104856 -0.320296 -0.361891
v 0.095594 -0.306527 -0.377103
v 0.016301 0.043060 -0.151928
v 0.011864 0.053917 -0.139343
v 0.063683 0.057914 -0.122698
v 0.016301 0.043060 -0.151928
v 0.063683 0.057914 -0.122698
v 0.068919 0.047119 -0.135026
v 0.011864 0.053917 -0.139343
v 0.008214 0.058519 -0.123477
v 0.056784 0.062266 -0.107875
v 0.011864 0.053917 -0.139343
v 0.056784 0.062266 -0.107875
v 0.063683 0.057914 -0.122698
v 0.008214 0.058519 -0.123477
v 0.005907 0.056168 -0.106744
v 0.049272 0.059513 -0.092815
v 0.008214 0.058519 -0.123477
v 0.049272 0.059513 -0.092815
v 0.056784 0.062266 -0.107875
v 0.005907 0.056168 -0.106744
v 0.005294 0.047221 -0.091693
v 0.042291 0.050074 -0.079809
v 0.005907 0.056168 -0.106744
v 0.042291 0.050074 -0.079809
v 0.049272 0.059513 -0.092815
v 0.158008 -0.237309 -0.359308
v 0.161033 -0.254306 -0.367981
v 0.119173 -0.257535 -0.381427
v 0.158008 -0.237309 -0.359308
v 0.119173 -0.257535 -0.381427
v 0.114215 -0.240687 -0.373375
v 0.161033 -0.254306 -0.367981
v 0.160915 -0.273947 -0.370569
v 0.123497 -0.276833 -0.382588
v 0.161033 -0.254306 -0.367981
v 0.123497 -0.276833 -0.382588
v 0.119173 -0.257535 -0.381427
v 0.160915 -0.273947 -0.370569
v 0.157674 -0.293241 -0.366677
v 0.126531 -0.295644 -0.376680
v 0.160915 -0.273947 -0.370569
v 0.126531 -0.295644 -0.376680
v 0.123497 -0.276833 -0.382588
v 0.157674 -0.293241 -0.366677
v 0.150418 -0.310545 -0.354239
v 0.127561 -0.312308 -0.361581
v 0.157674 -0.293241 -0.366677
v 0.127561 -0.312308 -0.361581
v 0.126531 -0.295644 -0.376680
v 0.068919 0.047119 -0.135026
v 0.063683 0.057914 -0.122698
v 0.107955 0.047191 -0.092645
v 0.068919 0.047119 -0.135026
v 0.107955 0.047191 -0.092645
v 0.113874 0.036231 -0.104509
v 0.063683 0.057914 -0.122698
v 0.056784 0.062266 -0.107875
v 0.098281 0.052215 -0.079706
v 0.063683 0.057914 -0.122698
v 0.098281 0.052215 -0.079706
v 0.107955 0.047191 -0.092645
v 0.056784 0.062266 -0.107875
v 0.049272 0.059513 -0.092815
v 0.086322 0.050540 -0.067665
v 0.056784 0.062266 -0.107875
v 0.086322 0.050540 -0.067665
v 0.098281 0.052215 -0.079706
v 0.049272 0.059513 -0.092815
v 0.042291 0.050074 -0.079809
v 0.073900 0.042419 -0.058352
v 0.049272 0.059513 -0.092815
v 0.073900 0.042419 -0.058352
v 0.086322 0.050540 -0.067665
v 0.195423 -0.246371 -0.333910
v 0.196797 -0.262968 -0.343704
v 0.161033 -0.254306 -0.367981
v 0.195423 -0.246371 -0.333910
v 0.161033 -0.254306 -0.367981
v 0.158008 -0.237309 -0.359308
v 0.196797 -0.262968 -0.343704
v 0.192884 -0.281690 -0.348867
v 0.160915 -0.273947 -0.370569
v 0.196797 -0.262968 -0.343704
v 0.160915 -0.273947 -0.370569
v 0.161033 -0.254306 -0.367981
v 0.192884 -0.281690 -0.348867
v 0.184281 -0.299686 -0.348615
v 0.157674 -0.293241 -0.366677
v 0.192884 -0.281690 -0.348867
v 0.157674 -0.293241 -0.366677
v 0.160915 -0.273947 -0.370569
v 0.184281 -0.299686 -0.348615
v 0.169946 -0.315275 -0.340982
v 0.150418 -0.310545 -0.354239
v 0.184281 -0.299686 -0.348615
v 0.150418 -0.310545 -0.354239
v 0.157674 -0.293241 -0.366677
v 0.113874 0.036231 -0.104509
v 0.107955 0.047191 -0.092645
v 0.137941 0.023381 -0.053758
v 0.113874 0.036231 -0.104509
v 0.137941 0.023381 -0.053758
v 0.144322 0.012054 -0.065023
v 0.107955 0.047191 -0.092645
v 0.098281 0.052215 -0.079706
v 0.126386 0.029898 -0.043258
v 0.107955 0.047191 -0.092645
v 0.126386 0.029898 -0.043258
v 0.137941 0.023381 -0.053758
v 0.098281 0.052215 -0.079706
v 0.086322 0.050540 -0.067665
v 0.111416 0.030614 -0.035122
v 0.098281 0.052215 -0.079706
v 0.111416 0.030614 -0.035122
v 0.126386 0.029898 -0.043258
v 0.086322 0.050540 -0.067665
v 0.073900 0.042419 -0.058352
v 0.095308 0.025419 -0.030589
v 0.086322 0.050540 -0.067665
v 0.095308 0.025419 -0.030589
v 0.111416 0.030614 -0.035122
v 0.220764 -0.266493 -0.301046
v 0.221020 -0.282202 -0.312291
v 0.196797 -0.262968 -0.343704
v 0.220764 -0.266493 -0.301046
v 0.196797 -0.262968 -0.343704
v 0.195423 -0.246371 -0.333910
v 0.221020 -0.282202 -0.312291
v 0.214537 -0.298883 -0.320788
v 0.192884 -0.281690 -0.348867
v 0.221020 -0.282202 -0.312291
v 0.192884 -0.281690 -0.348867
v 0.196797 -0.262968 -0.343704
v 0.214537 -0.298883 -0.320788
v 0.202302 -0.313995 -0.325244
v 0.184281 -0.299686 -0.348615
v 0.214537 -0.298883 -0.320788
v 0.184281 -0.299686 -0.348615
v 0.192884 -0.281690 -0.348867
v 0.202302 -0.313995 -0.325244
v 0.183172 -0.325777 -0.323830
v 0.169946 -0.315275 -0.340982
v 0.202302 -0.313995 -0.325244
v 0.169946 -0.315275 -0.340982
v 0.184281 -0.299686 -0.348615
v 0.144322 0.012054 -0.065023
v 0.137941 0.023381 -0.053758
v 0.149076 -0.009892 -0.011959
v 0.144322 0.012054 -0.065023
v 0.149076 -0.009892 -0.011959
v 0.155628 -0.021732 -0.022580
v 0.137941 0.023381 -0.053758
v 0.126386 0.029898 -0.043258
v 0.136822 -0.001289 -0.004080
v 0.137941 0.023381 -0.053758
v 0.136822 -0.001289 -0.004080
v 0.149076 -0.009892 -0.011959
v 0.126386 0.029898 -0.043258
v 0.111416 0.030614 -0.035122
v 0.120733 0.002769 -0.000142
v 0.126386 0.029898 -0.043258
v 0.120733 0.002769 -0.000142
v 0.136822 -0.001289 -0.004080
v 0.111416 0.030614 -0.035122
v 0.095308 0.025419 -0.030589
v 0.103258 0.001664 -0.000746
v 0.111416 0.030614 -0.035122
v 0.103258 0.001664 -0.000746
v 0.120733 0.002769 -0.000142
v 0.230174 -0.294612 -0.265721
v 0.230014 -0.309081 -0.278524
v 0.221020 -0.282202 -0.312291
v 0.230174 -0.294612 -0.265721
v 0.221020 -0.282202 -0.312291
v 0.220764 -0.266493 -0.301046
v 0.230014 -0.309081 -0.278524
v 0.222577 -0.322909 -0.290605
v 0.214537 -0.298883 -0.320788
v 0.230014 -0.309081 -0.278524
v 0.214537 -0.298883 -0.320788
v 0.221020 -0.282202 -0.312291
v 0.222577 -0.322909 -0.290605
v 0.208994 -0.333992 -0.300123
v 0.202302 -0.313995 -0.325244
v 0.222577 -0.322909 -0.290605
v 0.202302 -0.313995 -0.325244
v 0.214537 -0.298883 -0.320788
v 0.208994 -0.333992 -0.300123
v 0.188083 -0.340453 -0.305393
v 0.183172 -0.325777 -0.323830
v 0.208994 -0.333992 -0.300123
v 0.183172 -0.325777 -0.323830
v 0.202302 -0.313995 -0.325244
v 0.155628 -0.021732 -0.022580
v 0.149076 -0.009892 -0.011959
v 0.139663 -0.047562 0.026390
v 0.155628 -0.021732 -0.022580
v 0.139663 -0.047562 0.026390
v 0.146070 -0.059983 0.016360
v 0.149076 -0.009892 -0.011959
v 0.136822 -0.001289 -0.004080
v 0.128000 -0.036597 0.031864
v 0.149076 -0.009892 -0.011959
v 0.128000 -0.036597 0.031864
v 0.139663 -0.047562 0.026390
v 0.136822 -0.001289 -0.004080
v 0.120733 0.002769 -0.000142
v 0.112856 -0.028755 0.031950
v 0.136822 -0.001289 -0.004080
v 0.112856 -0.028755 0.031950
v 0.128000 -0.036597 0.031864
v 0.120733 0.002769 -0.000142
v 0.103258 0.001664 -0.000746
v 0.096538 -0.025231 0.026633
v 0.120733 0.002769 -0.000142
v 0.096538 -0.025231 0.026633
v 0.112856 -0.028755 0.031950
v 0.222220 -0.326448 -0.233312
v 0.222411 -0.339511 -0.247546
v 0.230014 -0.309081 -0.278524
v 0.222220 -0.326448 -0.233312
v 0.230014 -0.309081 -0.278524
v 0.230174 -0.294612 -0.265721
v 0.222411 -0.339511 -0.247546
v 0.215780 -0.350110 -0.262914
v 0.222577 -0.322909 -0.290605
v 0.222411 -0.339511 -0.247546
v 0.222577 -0.322909 -0.290605
v 0.230014 -0.309081 -0.278524
v 0.215780 -0.350110 -0.262914
v 0.203337 -0.356632 -0.277076
v 0.208994 -0.333992 -0.300123
v 0.215780 -0.350110 -0.262914
v 0.208994 -0.333992 -0.300123
v 0.222577 -0.322909 -0.290605
v 0.203337 -0.356632 -0.277076
v 0.183932 -0.357069 -0.288478
v 0.188083 -0.340453 -0.305393
v 0.203337 -0.356632 -0.277076
v 0.188083 -0.340453 -0.305393
v 0.208994 -0.333992 -0.300123
v 0.146070 -0.059983 0.016360
v 0.139663 -0.047562 0.026390
v 0.111137 -0.083895 0.055449
v 0.146070 -0.059983 0.016360
v 0.111137 -0.083895 0.055449
v 0.117104 -0.096875 0.045868
v 0.139663 -0.047562 0.026390
v 0.128000 -0.036597 0.031864
v 0.101263 -0.070651 0.059102
v 0.139663 -0.047562 0.026390
v 0.101263 -0.070651 0.059102
v 0.111137 -0.083895 0.055449
v 0.128000 -0.036597 0.031864
v 0.112856 -0.028755 0.031950
v 0.088984 -0.059160 0.056268
v 0.128000 -0.036597 0.031864
v 0.088984 -0.059160 0.056268
v 0.101263 -0.070651 0.059102
v 0.112856 -0.028755 0.031950
v 0.096538 -0.025231 0.026633
v 0.076171 -0.051171 0.047381
v 0.112856 -0.028755 0.031950
v 0.076171 -0.051171 0.047381
v 0.088984 -0.059160 0.056268
v 0.198112 -0.357153 -0.208753
v 0.199367 -0.368861 -0.224071
v 0.222411 -0.339511 -0.247546
v 0.198112 -0.357153 -0.208753
v 0.222411 -0.339511 -0.247546
v 0.222220 -0.326448 -0.233312
v 0.199367 -0.368861 -0.224071
v 0.195181 -0.376345 -0.241930
v 0.215780 -0.350110 -0.262914
v 0.199367 -0.368861 -0.224071
v 0.215780 -0.350110 -0.262914
v 0.222411 -0.339511 -0.247546
v 0.195181 -0.376345 -0.241930
v 0.186193 -0.378467 -0.259611
v 0.203337 -0.356632 -0.277076
v 0.195181 -0.376345 -0.241930
v 0.203337 -0.356632 -0.277076
v 0.215780 -0.350110 -0.262914
v 0.186193 -0.378467 -0.259611
v 0.171349 -0.373095 -0.275660
v 0.183932 -0.357069 -0.288478
v 0.186193 -0.378467 -0.259611
v 0.183932 -0.357069 -0.288478
v 0.203337 -0.356632 -0.277076
v 0.117104 -0.096875 0.045868
v 0.111137 -0.083895 0.055449
v 0.067840 -0.113358 0.070796
v 0.117104 -0.096875 0.045868
v 0.067840 -0.113358 0.070796
v 0.073139 -0.126792 0.061451
v 0.111137 -0.083895 0.055449
v 0.101263 -0.070651 0.059102
v 0.060680 -0.098266 0.073486
v 0.111137 -0.083895 0.055449
v 0.060680 -0.098266 0.073486
v 0.067840 -0.113358 0.070796
v 0.101263 -0.070651 0.059102
v 0.088984 -0.059160 0.056268
v 0.052751 -0.083816 0.069111
v 0.101263 -0.070651 0.059102
v 0.052751 -0.083816 0.069111
v 0.060680 -0.098266 0.073486
v 0.088984 -0.059160 0.056268
v 0.076171 -0.051171 0.047381
v 0.045259 -0.072206 0.058338
v 0.088984 -0.059160 0.056268
v 0.045259 -0.072206 0.058338
v 0.052751 -0.083816 0.069111
v 0.161521 -0.382052 -0.195784
v 0.164391 -0.392662 -0.211674
v 0.199367 -0.368861 -0.224071
v 0.161521 -0.382052 -0.195784
v 0.199367 -0.368861 -0.224071
v 0.198112 -0.357153 -0.208753
v 0.164391 -0.392662 -0.211674
v 0.163917 -0.397620 -0.230848
v 0.195181 -0.376345 -0.241930
v 0.164391 -0.392662 -0.211674
v 0.195181 -0.376345 -0.241930
v 0.199367 -0.368861 -0.224071
v 0.163917 -0.397620 -0.230848
v 0.160172 -0.396174 -0.250388
v 0.186193 -0.378467 -0.259611
v 0.163917 -0.397620 -0.230848
v 0.186193 -0.378467 -0.259611
v 0.195181 -0.376345 -0.241930
v 0.160172 -0.396174 -0.250388
v 0.152251 -0.386091 -0.268891
v 0.171349 -0.373095 -0.275660
v 0.160172 -0.396174 -0.250388
v 0.171349 -0.373095 -0.275660
v 0.186193 -0.378467 -0.259611
v 0.073139 -0.126792 0.061451
v 0.067840 -0.113358 0.070796
v 0.016363 -0.131466 0.070093
v 0.073139 -0.126792 0.061451
v 0.016363 -0.131466 0.070093
v 0.020869 -0.145180 0.060738
v 0.067840 -0.113358 0.070796
v 0.060680 -0.098266 0.073486
v 0.012431 -0.115239 0.072827
v 0.067840 -0.113358 0.070796
v 0.012431 -0.115239 0.072827
v 0.016363 -0.131466 0.070093
v 0.060680 -0.098266 0.073486
v 0.052751 -0.083816 0.069111
v 0.009673 -0.098970 0.068523
v 0.060680 -0.098266 0.073486
v 0.009673 -0.098970 0.068523
v 0.012431 -0.115239 0.072827
v 0.052751 -0.083816 0.069111
v 0.045259 -0.072206 0.058338
v 0.008507 -0.085135 0.057836
v 0.052751 -0.083816 0.069111
v 0.008507 -0.085135 0.057836
v 0.009673 -0.098970 0.068523
v 0.118017 -0.397356 -0.196378
v 0.122807 -0.407290 -0.212242
v 0.164391 -0.392662 -0.211674
v 0.118017 -0.397356 -0.196378
v 0.164391 -0.392662 -0.211674
v 0.161521 -0.382052 -0.195784
v 0.122807 -0.407290 -0.212242
v 0.126746 -0.410697 -0.231356
v 0.163917 -0.397620 -0.230848
v 0.122807 -0.407290 -0.212242
v 0.163917 -0.397620 -0.230848
v 0.164391 -0.392662 -0.211674
v 0.126746 -0.410697 -0.231356
v 0.129235 -0.407057 -0.250810
v 0.160172 -0.396174 -0.250388
v 0.126746 -0.410697 -0.231356
v 0.160172 -0.396174 -0.250388
v 0.163917 -0.397620 -0.230848
v 0.129235 -0.407057 -0.250810
v 0.129546 -0.394078 -0.269201
v 0.152251 -0.386091 -0.268891
v 0.129235 -0.407057 -0.250810
v 0.152251 -0.386091 -0.268891
v 0.160172 -0.396174 -0.250388
v 0.020869 -0.145180 0.060738
v 0.016363 -0.131466 0.070093
v -0.035456 -0.135463 0.053448
v 0.020869 -0.145180 0.060738
v -0.035456 -0.135463 0.053448
v -0.031749 -0.149239 0.043836
v 0.016363 -0.131466 0.070093
v 0.012431 -0.115239 0.072827
v -0.036138 -0.118986 0.057226
v 0.016363 -0.131466 0.070093
v -0.036138 -0.118986 0.057226
v -0.035456 -0.135463 0.053448
v 0.012431 -0.115239 0.072827
v 0.009673 -0.098970 0.068523
v -0.033692 -0.102315 0.054594
v 0.012431 -0.115239 0.072827
v -0.033692 -0.102315 0.054594
v -0.036138 -0.118986 0.057226
v 0.009673 -0.098970 0.068523
v 0.008507 -0.085135 0.057836
v -0.028490 -0.087989 0.045952
v 0.009673 -0.098970 0.068523
v -0.028490 -0.087989 0.045952
v -0.033692 -0.102315 0.054594
v 0.074224 -0.400734 -0.210445
v 0.080947 -0.410519 -0.225688
v 0.122807 -0.407290 -0.212242
v 0.074224 -0.400734 -0.210445
v 0.122807 -0.407290 -0.212242
v 0.118017 -0.397356 -0.196378
v 0.080947 -0.410519 -0.225688
v 0.089328 -0.413583 -0.243375
v 0.126746 -0.410697 -0.231356
v 0.080947 -0.410519 -0.225688
v 0.126746 -0.410697 -0.231356
v 0.122807 -0.407290 -0.212242
v 0.089328 -0.413583 -0.243375
v 0.098092 -0.409459 -0.260814
v 0.129235 -0.407057 -0.250810
v 0.089328 -0.413583 -0.243375
v 0.129235 -0.407057 -0.250810
v 0.126746 -0.410697 -0.231356
v 0.098092 -0.409459 -0.260814
v 0.106689 -0.395841 -0.276543
v 0.129546 -0.394078 -0.269201
v 0.098092 -0.409459 -0.260814
v 0.129546 -0.394078 -0.269201
v 0.129235 -0.407057 -0.250810
v -0.031749 -0.149239 0.043836
v -0.035456 -0.135463 0.053448
v -0.079728 -0.124741 0.023395
v -0.031749 -0.149239 0.043836
v -0.079728 -0.124741 0.023395
v -0.076703 -0.138351 0.013319
v -0.035456 -0.135463 0.053448
v -0.036138 -0.118986 0.057226
v -0.077635 -0.108935 0.029057
v -0.035456 -0.135463 0.053448
v -0.077635 -0.108935 0.029057
v -0.079728 -0.124741 0.023395
v -0.036138 -0.118986 0.057226
v -0.033692 -0.102315 0.054594
v -0.070742 -0.093342 0.029443
v -0.036138 -0.118986 0.057226
v -0.070742 -0.093342 0.029443
v -0.077635 -0.108935 0.029057
v -0.033692 -0.102315 0.054594
v -0.028490 -0.087989 0.045952
v -0.060099 -0.080333 0.024495
v -0.033692 -0.102315 0.054594
v -0.060099 -0.080333 0.024495
v -0.070742 -0.093342 0.029443
v 0.036809 -0.391672 -0.235843
v 0.045183 -0.401857 -0.249965
v 0.080947 -0.410519 -0.225688
v 0.036809 -0.391672 -0.235843
v 0.080947 -0.410519 -0.225688
v 0.074224 -0.400734 -0.210445
v 0.045183 -0.401857 -0.249965
v 0.057360 -0.405840 -0.265076
v 0.089328 -0.413583 -0.243375
v 0.045183 -0.401857 -0.249965
v 0.089328 -0.413583 -0.243375
v 0.080947 -0.410519 -0.225688
v 0.057360 -0.405840 -0.265076
v 0.071484 -0.403015 -0.278876
v 0.098092 -0.409459 -0.260814
v 0.057360 -0.405840 -0.265076
v 0.098092 -0.409459 -0.260814
v 0.089328 -0.413583 -0.243375
v 0.071484 -0.403015 -0.278876
v 0.087161 -0.391111 -0.289799
v 0.106689 -0.395841 -0.276543
v 0.071484 -0.403015 -0.278876
v 0.106689 -0.395841 -0.276543
v 0.098092 -0.409459 -0.260814
v -0.076703 -0.138351 0.013319
v -0.079728 -0.124741 0.023395
v -0.109714 -0.100930 -0.015492
v -0.076703 -0.138351 0.013319
v -0.109714 -0.100930 -0.015492
v -0.107152 -0.114173 -0.026167
v -0.079728 -0.124741 0.023395
v -0.077635 -0.108935 0.029057
v -0.105741 -0.086618 -0.007391
v -0.079728 -0.124741 0.023395
v -0.105741 -0.086618 -0.007391
v -0.109714 -0.100930 -0.015492
v -0.077635 -0.108935 0.029057
v -0.070742 -0.093342 0.029443
v -0.095836 -0.073416 -0.003099
v -0.077635 -0.108935 0.029057
v -0.095836 -0.073416 -0.003099
v -0.105741 -0.086618 -0.007391
v -0.070742 -0.093342 0.029443
v -0.060099 -0.080333 0.024495
v -0.081507 -0.063334 -0.003268
v -0.070742 -0.093342 0.029443
v -0.081507 -0.063334 -0.003268
v -0.095836 -0.073416 -0.003099
v 0.011467 -0.371550 -0.268707
v 0.020960 -0.382623 -0.281378
v 0.045183 -0.401857 -0.249965
v 0.011467 -0.371550 -0.268707
v 0.045183 -0.401857 -0.249965
v 0.036809 -0.391672 -0.235843
v 0.020960 -0.382623 -0.281378
v 0.035707 -0.388647 -0.293156
v 0.057360 -0.405840 -0.265076
v 0.020960 -0.382623 -0.281378
v 0.057360 -0.405840 -0.265076
v 0.045183 -0.401857 -0.249965
v 0.035707 -0.388647 -0.293156
v 0.053463 -0.388705 -0.302246
v 0.071484 -0.403015 -0.278876
v 0.035707 -0.388647 -0.293156
v 0.071484 -0.403015 -0.278876
v 0.057360 -0.405840 -0.265076
v 0.053463 -0.388705 -0.302246
v 0.073935 -0.380609 -0.306951
v 0.087161 -0.391111 -0.289799
v 0.053463 -0.388705 -0.302246
v 0.087161 -0.391111 -0.289799
v 0.071484 -0.403015 -0.278876
v -0.107152 -0.114173 -0.026167
v -0.109714 -0.100930 -0.015492
v -0.120849 -0.067657 -0.057291
v -0.107152 -0.114173 -0.026167
v -0.120849 -0.067657 -0.057291
v -0.118458 -0.080388 -0.068610
v -0.109714 -0.100930 -0.015492
v -0.105741 -0.086618 -0.007391
v -0.116177 -0.055432 -0.046570
v -0.109714 -0.100930 -0.015492
v -0.116177 -0.055432 -0.046570
v -0.120849 -0.067657 -0.057291
v -0.105741 -0.086618 -0.007391
v -0.095836 -0.073416 -0.003099
v -0.105153 -0.045571 -0.038079
v -0.105741 -0.086618 -0.007391
v -0.105153 -0.045571 -0.038079
v -0.116177 -0.055432 -0.046570
v -0.095836 -0.073416 -0.003099
v -0.081507 -0.063334 -0.003268
v -0.089457 -0.039578 -0.033111
v -0.095836 -0.073416 -0.003099
v -0.089457 -0.039578 -0.033111
v -0.105153 -0.045571 -0.038079
v 0.002058 -0.343430 -0.304032
v 0.011966 -0.355744 -0.315144
v 0.020960 -0.382623 -0.281378
v 0.002058 -0.343430 -0.304032
v 0.020960 -0.382623 -0.281378
v 0.011467 -0.371550 -0.268707
v 0.011966 -0.355744 -0.315144
v 0.027667 -0.364621 -0.323339
v 0.035707 -0.388647 -0.293156
v 0.011966 -0.355744 -0.315144
v 0.035707 -0.388647 -0.293156
v 0.020960 -0.382623 -0.281378
v 0.027667 -0.364621 -0.323339
v 0.046772 -0.368708 -0.327367
v 0.053463 -0.388705 -0.302246
v 0.027667 -0.364621 -0.323339
v 0.053463 -0.388705 -0.302246
v 0.035707 -0.388647 -0.293156
v 0.046772 -0.368708 -0.327367
v 0.069023 -0.365933 -0.325388
v 0.073935 -0.380609 -0.306951
v 0.046772 -0.368708 -0.327367
v 0.073935 -0.380609 -0.306951
v 0.053463 -0.388705 -0.302246
v -0.089457 -0.039578 -0.033111
v -0.081507 -0.063334 -0.003268
v -0.060099 -0.080333 0.024495
v -0.089457 -0.039578 -0.033111
v -0.060099 -0.080333 0.024495
v -0.028490 -0.087989 0.045952
v -0.089457 -0.039578 -0.033111
v -0.028490 -0.087989 0.045952
v 0.008507 -0.085135 0.057836
v -0.089457 -0.039578 -0.033111
v 0.008507 -0.085135 0.057836
v 0.045259 -0.072206 0.058338
v -0.089457 -0.039578 -0.033111
v 0.045259 -0.072206 0.058338
v 0.076171 -0.051171 0.047381
v -0.089457 -0.039578 -0.033111
v 0.076171 -0.051171 0.047381
v 0.096538 -0.025231 0.026633
v -0.089457 -0.039578 -0.033111
v 0.096538 -0.025231 0.026633
v 0.103258 0.001664 -0.000746
v -0.089457 -0.039578 -0.033111
v 0.103258 0.001664 -0.000746
v 0.095308 0.025419 -0.030589
v -0.089457 -0.039578 -0.033111
v 0.095308 0.025419 -0.030589
v 0.073900 0.042419 -0.058352
v -0.089457 -0.039578 -0.033111
v 0.073900 0.042419 -0.058352
v 0.042291 0.050074 -0.079809
v -0.089457 -0.039578 -0.033111
v 0.042291 0.050074 -0.079809
v 0.005294 0.047221 -0.091693
v -0.089457 -0.039578 -0.033111
v 0.005294 0.047221 -0.091693
v -0.031458 0.034292 -0.092195
v -0.089457 -0.039578 -0.033111
v -0.031458 0.034292 -0.092195
v -0.062370 0.013256 -0.081238
v -0.089457 -0.039578 -0.033111
v -0.062370 0.013256 -0.081238
v -0.082737 -0.012683 -0.060490
v -0.118458 -0.080388 -0.068610
v -0.108900 -0.042137 -0.107550
v 0.010012 -0.311595 -0.336441
v -0.118458 -0.080388 -0.068610
v 0.010012 -0.311595 -0.336441
v 0.002058 -0.343430 -0.304032
v -0.107152 -0.114173 -0.026167
v -0.118458 -0.080388 -0.068610
v 0.002058 -0.343430 -0.304032
v -0.107152 -0.114173 -0.026167
v 0.002058 -0.343430 -0.304032
v 0.011467 -0.371550 -0.268707
v 0.073175 -0.349317 -0.342304
v 0.085758 -0.333291 -0.355121
v 0.104856 -0.320296 -0.361891
v 0.073175 -0.349317 -0.342304
v 0.104856 -0.320296 -0.361891
v 0.127561 -0.312308 -0.361581
v 0.073175 -0.349317 -0.342304
v 0.127561 -0.312308 -0.361581
v 0.150418 -0.310545 -0.354239
v 0.073175 -0.349317 -0.342304
v 0.150418 -0.310545 -0.354239
v 0.169946 -0.315275 -0.340982
v 0.073175 -0.349317 -0.342304
v 0.169946 -0.315275 -0.340982
v 0.183172 -0.325777 -0.323830
v 0.073175 -0.349317 -0.342304
v 0.183172 -0.325777 -0.323830
v 0.188083 -0.340453 -0.305393
v 0.073175 -0.349317 -0.342304
v 0.188083 -0.340453 -0.305393
v 0.183932 -0.357069 -0.288478
v 0.073175 -0.349317 -0.342304
v 0.183932 -0.357069 -0.288478
v 0.171349 -0.373095 -0.275660
v 0.073175 -0.349317 -0.342304
v 0.171349 -0.373095 -0.275660
v 0.152251 -0.386091 -0.268891
v 0.073175 -0.349317 -0.342304
v 0.152251 -0.386091 -0.268891
v 0.129546 -0.394078 -0.269201
v 0.073175 -0.349317 -0.342304
v 0.129546 -0.394078 -0.269201
v 0.106689 -0.395841 -0.276543
v 0.073175 -0.349317 -0.342304
v 0.106689 -0.395841 -0.276543
v 0.087161 -0.391111 -0.289799
v 0.073175 -0.349317 -0.342304
v 0.087161 -0.391111 -0.289799
v 0.073935 -0.380609 -0.306951
v 0.073175 -0.349317 -0.342304
v 0.073935 -0.380609 -0.306951
v 0.069023 -0.365933 -0.325388
v -0.108900 -0.042137 -0.107550
v -0.079934 -0.005245 -0.137058
v 0.034120 -0.280890 -0.361000
v -0.108900 -0.042137 -0.107550
v 0.034120 -0.280890 -0.361000
v 0.010012 -0.311595 -0.336441
v -0.079934 -0.005245 -0.137058
v -0.035969 0.024673 -0.152641
v 0.070711 -0.255990 -0.373969
v -0.079934 -0.005245 -0.137058
v 0.070711 -0.255990 -0.373969
v 0.034120 -0.280890 -0.361000
v -0.035969 0.024673 -0.152641
v 0.016301 0.043060 -0.151928
v 0.114215 -0.240687 -0.373375
v -0.035969 0.024673 -0.152641
v 0.114215 -0.240687 -0.373375
v 0.070711 -0.255990 -0.373969
v 0.016301 0.043060 -0.151928
v 0.068919 0.047119 -0.135026
v 0.158008 -0.237309 -0.359308
v 0.016301 0.043060 -0.151928
v 0.158008 -0.237309 -0.359308
v 0.114215 -0.240687 -0.373375
v 0.068919 0.047119 -0.135026
v 0.113874 0.036231 -0.104509
v 0.195423 -0.246371 -0.333910
v 0.068919 0.047119 -0.135026
v 0.195423 -0.246371 -0.333910
v 0.158008 -0.237309 -0.359308
v 0.113874 0.036231 -0.104509
v 0.144322 0.012054 -0.065023
v 0.220764 -0.266493 -0.301046
v 0.113874 0.036231 -0.104509
v 0.220764 -0.266493 -0.301046
v 0.195423 -0.246371 -0.333910
v 0.144322 0.012054 -0.065023
v 0.155628 -0.021732 -0.022580
v 0.230174 -0.294612 -0.265721
v 0.144322 0.012054 -0.065023
v 0.230174 -0.294612 -0.265721
v 0.220764 -0.266493 -0.301046
v 0.155628 -0.021732 -0.022580
v 0.146070 -0.059983 0.016360
v 0.222220 -0.326448 -0.233312
v 0.155628 -0.021732 -0.022580
v 0.222220 -0.326448 -0.233312
v 0.230174 -0.294612 -0.265721
v 0.146070 -0.059983 0.016360
v 0.117104 -0.096875 0.045868
v 0.198112 -0.357153 -0.208753
v 0.146070 -0.059983 0.016360
v 0.198112 -0.357153 -0.208753
v 0.222220 -0.326448 -0.233312
v 0.117104 -0.096875 0.045868
v 0.073139 -0.126792 0.061451
v 0.161521 -0.382052 -0.195784
v 0.117104 -0.096875 0.045868
v 0.161521 -0.382052 -0.195784
v 0.198112 -0.357153 -0.208753
v 0.073139 -0.126792 0.061451
v 0.020869 -0.145180 0.060738
v 0.118017 -0.397356 -0.196378
v 0.073139 -0.126792 0.061451
v 0.118017 -0.397356 -0.196378
v 0.161521 -0.382052 -0.195784
v 0.020869 -0.145180 0.060738
v -0.031749 -0.149239 0.043836
v 0.074224 -0.400734 -0.210445
v 0.020869 -0.145180 0.060738
v 0.074224 -0.400734 -0.210445
v 0.118017 -0.397356 -0.196378
v -0.031749 -0.149239 0.043836
v -0.076703 -0.138351 0.013319
v 0.036809 -0.391672 -0.235843
v -0.031749 -0.149239 0.043836
v 0.036809 -0.391672 -0.235843
v 0.074224 -0.400734 -0.210445
v -0.076703 -0.138351 0.013319
v -0.107152 -0.114173 -0.026167
v 0.011467 -0.371550 -0.268707
v -0.076703 -0.138351 0.013319
v 0.011467 -0.371550 -0.268707
v 0.036809 -0.391672 -0.235843
f 1 2 3
f 4 5 6
f 7 8 9
f 10 11 12
f 13 14 15
f 16 17 18
f 19 20 21
f 22 23 24
f 25 26 27
f 28 29 30
f 31 32 33
f 34 35 36
f 37 38 39
f 40 41 42
f 43 44 45
f 46 47 48
f 49 50 51
f 52 53 54
f 55 56 57
f 58 59 60
f 61 62 63
f 64 65 66
f 67 68 69
f 70 71 72
f 73 74 75
f 76 77 78
f 79 80 81
f 82 83 84
f 85 86 87
f 88 89 90
f 91 92 93
f 94 95 96
f 97 98 99
f 100 101 102
f 103 104 105
f 106 107 108
f 109 110 111
f 112 113 114
f 115 116 117
f 118 119 120
f 121 122 123
f 124 125 126
f 127 128 129
f 130 131 132
f 133 134 135
f 136 137 138
f 139 140 141
f 142 143 144
f 145 146 147
f 148 149 150
f 151 152 153
f 154 155 156
f 157 158 159
f 160 161 162
f 163 164 165
f 166 167 168
f 169 170 171
f 172 173 174
f 175 176 177
f 178 179 180
f 181 182 183
f 184 185 186
f 187 188 189
f 190 191 192
f 193 194 195
f 196 197 198
f 199 200 201
f 202 203 204
f 205 206 207
f 208 209 210
f 211 212 213
f 214 215 216
f 217 218 219
f 220 221 222
f 223 224 225
f 226 227 228
f 229 230 231
f 232 233 234
f 235 236 237
f 238 239 240
f 241 242 243
f 244 245 246
f 247 248 249
f 250 251 252
f 253 254 255
f 256 257 258
f 259 260 261
f 262 263 264
f 265 266 267
f 268 269 270
f 271 272 273
f 274 275 276
f 277 278 279
f 280 281 282
f 283 284 285
f 286 287 288
f 289 290 291
f 292 293 294
f 295 296 297
f 298 299 300
f 301 302 303
f 304 305 306
f 307 308 309
f 310 311 312
f 313 314 315
f 316 317 318
f 319 320 321
f 322 323 324
f 325 326 327
f 328 329 330
f 331 332 333
f 334 335 336
f 337 338 339
f 340 341 342
f 343 344 345
f 346 347 348
f 349 350 351
f 352 353 354
f 355 356 357
f 358 359 360
f 361 362 363
f 364 365 366
f 367 368 369
f 370 371 372
f 373 374 375
f 376 377 378
f 379 380 381
f 382 383 384
f 385 386 387
f 388 389 390
f 391 392 393
f 394 395 396
f 397 398 399
f 400 401 402
f 403 404 405
f 406 407 408
f 409 410 411
f 412 413 414
f 415 416 417
f 418 419 420
f 421 422 423
f 424 425 426
f 427 428 429
f 430 431 432
f 433 434 435
f 436 437 438
f 439 440 441
f 442 443 444
f 445 446 447
f 448 449 450
f 451 452 453
f 454 455 456
f 457 458 459
f 460 461 462
f 463 464 465
f 466 467 468
f 469 470 471
f 472 473 474
f 475 476 477
f 478 479 480
f 481 482 483
f 484 485 486
f 487 488 489
f 490 491 492
f 493 494 495
f 496 497 498
f 499 500 501
f 502 503 504
f 505 506 507
f 508 509 510
f 511 512 513
f 514 515 516
f 517 518 519
f 520 521 522
f 523 524 525
f 526 527 528
f 529 530 531
f 532 533 534
f 535 536 537
f 538 539 540
f 541 542 543
f 544 545 546
f 547 548 549
f 550 551 552
f 553 554 555
f 556 557 558
f 559 560 561
f 562 563 564
f 565 566 567
f 568 569 570
f 571 572 573
f 574 575 576
f 577 578 579
f 580 581 582
f 583 584 585
f 586 587 588
f 589 590 591
f 592 593 594
f 595 596 597
f 598 599 600
f 601 602 603
f 604 605 606
f 607 608 609
f 610 611 612
f 613 614 615
f 616 617 618
f 619 620 621
f 622 623 624
f 625 626 627
f 628 629 630
f 631 632 633
f 634 635 636
f 637 638 639
f 640 641 642
f 643 644 645
f 646 647 648
f 649 650 651
f 652 653 654
f 655 656 657
f 658 659 660
f 661 662 663
f 664 665 666
f 667 668 669
f 670 671 672
f 673 674 675
f 676 677 678
f 679 680 681
f 682 683 684
f 685 686 687
f 688 689 690
f 691 692 693
f 694 695 696
f 697 698 699
f 700 701 702
f 703 704 705
f 706 707 708
f 709 710 711
f 712 713 714
f 715 716 717
f 718 719 720
f 721 722 723
f 724 725 726
f 727 728 729
f 730 731 732
f 733 734 735
f 736 737 738
f 739 740 741
f 742 743 744
f 745 746 747
f 748 749 750
f 751 752 753
f 754 755 756
f 757 758 759
f 760 761 762
f 763 764 765
f 766 767 768
f 769 770 771
f 772 773 774
f 775 776 777
f 778 779 780
f 781 782 783
f 784 785 786
f 787 788 789
f 790 791 792
f 793 794 795
f 796 797 798
f 799 800 801
f 802 803 804
f 805 806 807
f 808 809 810
f 811 812 813
f 814 815 816
f 817 818 819
f 820 821 822
f 823 824 825
f 826 827 828
f 829 830 831
f 832 833 834
f 835 836 837
f 838 839 840
f 841 842 843
f 844 845 846
f 847 848 849
f 850 851 852
f 853 854 855
f 856 857 858
f 859 860 861
f 862 863 864
f 865 866 867
f 868 869 870
f 871 872 873
f 874 875 876
f 877 878 879
f 880 881 882
f 883 884 885
f 886 887 888
f 889 890 891
f 892 893 894
f 895 896 897
f 898 899 900
f 901 902 903
f 904 905 906
f 907 908 909
f 910 911 912
f 913 914 915
f 916 917 918
f 919 920 921
f 922 923 924
f 925 926 927
f 928 929 930
f 931 932 933
f 934 935 936
f 937 938 939
f 940 941 942
f 943 944 945
f 946 947 948
