# lizard mesh
v -0.067023 -0.051398 -0.003423
v -0.061256 -0.095116 0.025084
v -0.387754 -0.081252 0.105311
v -0.067023 -0.051398 -0.003423
v -0.387754 -0.081252 0.105311
v -0.392676 -0.043947 0.080987
v -0.380383 -0.106219 0.141777
v -0.371683 -0.115049 0.184834
v -0.387392 -0.102866 0.188032
v -0.380383 -0.106219 0.141777
v -0.387392 -0.102866 0.188032
v -0.395168 -0.094974 0.149545
v -0.395168 -0.094974 0.149545
v -0.387392 -0.102866 0.188032
v -0.397886 -0.085654 0.190187
v -0.395168 -0.094974 0.149545
v -0.397886 -0.085654 0.190187
v -0.404358 -0.079085 0.158155
v -0.404358 -0.079085 0.158155
v -0.397886 -0.085654 0.190187
v -0.401568 -0.066033 0.190972
v -0.404358 -0.079085 0.158155
v -0.401568 -0.066033 0.190972
v -0.406554 -0.060973 0.166296
v -0.069041 0.000122 -0.013360
v -0.067023 -0.051398 -0.003423
v -0.392676 -0.043947 0.080987
v -0.069041 0.000122 -0.013360
v -0.392676 -0.043947 0.080987
v -0.394398 0.000014 0.072508
v -0.387754 -0.081252 0.105311
v -0.380383 -0.106219 0.141777
v -0.395168 -0.094974 0.149545
v -0.387754 -0.081252 0.105311
v -0.395168 -0.094974 0.149545
v -0.401757 -0.072656 0.116948
v -0.401757 -0.072656 0.116948
v -0.395168 -0.094974 0.149545
v -0.404358 -0.079085 0.158155
v -0.401757 -0.072656 0.116948
v -0.404358 -0.079085 0.158155
v -0.409842 -0.060510 0.131025
v -0.409842 -0.060510 0.131025
v -0.404358 -0.079085 0.158155
v -0.406554 -0.060973 0.166296
v -0.409842 -0.060510 0.131025
v -0.406554 -0.060973 0.166296
v -0.410779 -0.046664 0.145397
v -0.067003 0.051601 -0.003215
v -0.069041 0.000122 -0.013360
v -0.394398 0.000014 0.072508
v -0.067003 0.051601 -0.003215
v -0.394398 0.000014 0.072508
v -0.392658 0.043941 0.081164
v -0.392676 -0.043947 0.080987
v -0.387754 -0.081252 0.105311
v -0.401757 -0.072656 0.116948
v -0.392676 -0.043947 0.080987
v -0.401757 -0.072656 0.116948
v -0.406157 -0.039310 0.095205
v -0.406157 -0.039310 0.095205
v -0.401757 -0.072656 0.116948
v -0.409842 -0.060510 0.131025
v -0.406157 -0.039310 0.095205
v -0.409842 -0.060510 0.131025
v -0.413504 -0.032757 0.112928
v -0.413504 -0.032757 0.112928
v -0.409842 -0.060510 0.131025
v -0.410779 -0.046664 0.145397
v -0.413504 -0.032757 0.112928
v -0.410779 -0.046664 0.145397
v -0.413599 -0.025285 0.131457
v -0.061217 0.095202 0.025468
v -0.067003 0.051601 -0.003215
v -0.392658 0.043941 0.081164
v -0.061217 0.095202 0.025468
v -0.392658 0.043941 0.081164
v -0.387721 0.081145 0.105639
v -0.394398 0.000014 0.072508
v -0.392676 -0.043947 0.080987
v -0.406157 -0.039310 0.095205
v -0.394398 0.000014 0.072508
v -0.406157 -0.039310 0.095205
v -0.407696 -0.000013 0.087626
v -0.407696 -0.000013 0.087626
v -0.406157 -0.039310 0.095205
v -0.413504 -0.032757 0.112928
v -0.407696 -0.000013 0.087626
v -0.413504 -0.032757 0.112928
v -0.414785 -0.000050 0.106620
v -0.414785 -0.000050 0.106620
v -0.413504 -0.032757 0.112928
v -0.413599 -0.025285 0.131457
v -0.414785 -0.000050 0.106620
v -0.413599 -0.025285 0.131457
v -0.414586 -0.000091 0.126598
v -0.052567 0.124286 0.068322
v -0.061217 0.095202 0.025468
v -0.387721 0.081145 0.105639
v -0.052567 0.124286 0.068322
v -0.387721 0.081145 0.105639
v -0.380340 0.105962 0.142206
v -0.392658 0.043941 0.081164
v -0.394398 0.000014 0.072508
v -0.407696 -0.000013 0.087626
v -0.392658 0.043941 0.081164
v -0.407696 -0.000013 0.087626
v -0.406141 0.039252 0.095364
v -0.406141 0.039252 0.095364
v -0.407696 -0.000013 0.087626
v -0.414785 -0.000050 0.106620
v -0.406141 0.039252 0.095364
v -0.414785 -0.000050 0.106620
v -0.413491 0.032630 0.113060
v -0.413491 0.032630 0.113060
v -0.414785 -0.000050 0.106620
v -0.414586 -0.000091 0.126598
v -0.413491 0.032630 0.113060
v -0.414586 -0.000091 0.126598
v -0.413589 0.025083 0.131559
v -0.042367 0.134426 0.118823
v -0.052567 0.124286 0.068322
v -0.380340 0.105962 0.142206
v -0.042367 0.134426 0.118823
v -0.380340 0.105962 0.142206
v -0.371637 0.114614 0.185297
v -0.387721 0.081145 0.105639
v -0.392658 0.043941 0.081164
v -0.406141 0.039252 0.095364
v -0.387721 0.081145 0.105639
v -0.406141 0.039252 0.095364
v -0.401728 0.072507 0.117241
v -0.401728 0.072507 0.117241
v -0.406141 0.039252 0.095364
v -0.413491 0.032630 0.113060
v -0.401728 0.072507 0.117241
v -0.413491 0.032630 0.113060
v -0.409818 0.060308 0.131269
v -0.409818 0.060308 0.131269
v -0.413491 0.032630 0.113060
v -0.413589 0.025083 0.131559
v -0.409818 0.060308 0.131269
v -0.413589 0.025083 0.131559
v -0.410760 0.046405 0.145585
v -0.032172 0.124078 0.169282
v -0.042367 0.134426 0.118823
v -0.371637 0.114614 0.185297
v -0.032172 0.124078 0.169282
v -0.371637 0.114614 0.185297
v -0.362937 0.105784 0.228354
v -0.380340 0.105962 0.142206
v -0.387721 0.081145 0.105639
v -0.401728 0.072507 0.117241
v -0.380340 0.105962 0.142206
v -0.401728 0.072507 0.117241
v -0.395130 0.094691 0.149928
v -0.395130 0.094691 0.149928
v -0.401728 0.072507 0.117241
v -0.409818 0.060308 0.131269
v -0.395130 0.094691 0.149928
v -0.409818 0.060308 0.131269
v -0.404326 0.078772 0.158473
v -0.404326 0.078772 0.158473
v -0.409818 0.060308 0.131269
v -0.410760 0.046405 0.145585
v -0.404326 0.078772 0.158473
v -0.410760 0.046405 0.145585
v -0.406529 0.060628 0.166542
v -0.023533 0.094817 0.212018
v -0.032172 0.124078 0.169282
v -0.362937 0.105784 0.228354
v -0.023533 0.094817 0.212018
v -0.362937 0.105784 0.228354
v -0.355565 0.080817 0.264820
v -0.371637 0.114614 0.185297
v -0.380340 0.105962 0.142206
v -0.395130 0.094691 0.149928
v -0.371637 0.114614 0.185297
v -0.395130 0.094691 0.149928
v -0.387350 0.102425 0.188447
v -0.387350 0.102425 0.188447
v -0.395130 0.094691 0.149928
v -0.404326 0.078772 0.158473
v -0.387350 0.102425 0.188447
v -0.404326 0.078772 0.158473
v -0.397851 0.085209 0.190532
v -0.397851 0.085209 0.190532
v -0.404326 0.078772 0.158473
v -0.406529 0.060628 0.166542
v -0.397851 0.085209 0.190532
v -0.406529 0.060628 0.166542
v -0.401542 0.065586 0.191237
v -0.017765 0.051099 0.240524
v -0.023533 0.094817 0.212018
v -0.355565 0.080817 0.264820
v -0.017765 0.051099 0.240524
v -0.355565 0.080817 0.264820
v -0.350644 0.043512 0.289144
v -0.362937 0.105784 0.228354
v -0.371637 0.114614 0.185297
v -0.387350 0.102425 0.188447
v -0.362937 0.105784 0.228354
v -0.387350 0.102425 0.188447
v -0.379574 0.094532 0.226934
v -0.379574 0.094532 0.226934
v -0.387350 0.102425 0.188447
v -0.397851 0.085209 0.190532
v -0.379574 0.094532 0.226934
v -0.397851 0.085209 0.190532
v -0.391379 0.078640 0.222565
v -0.391379 0.078640 0.222565
v -0.397851 0.085209 0.190532
v -0.401542 0.065586 0.191237
v -0.391379 0.078640 0.222565
v -0.401542 0.065586 0.191237
v -0.396556 0.060526 0.215913
v -0.015747 -0.000422 0.250461
v -0.017765 0.051099 0.240524
v -0.350644 0.043512 0.289144
v -0.015747 -0.000422 0.250461
v -0.350644 0.043512 0.289144
v -0.348922 -0.000449 0.297623
v -0.355565 0.080817 0.264820
v -0.362937 0.105784 0.228354
v -0.379574 0.094532 0.226934
v -0.355565 0.080817 0.264820
v -0.379574 0.094532 0.226934
v -0.372984 0.072214 0.259530
v -0.372984 0.072214 0.259530
v -0.379574 0.094532 0.226934
v -0.391379 0.078640 0.222565
v -0.372984 0.072214 0.259530
v -0.391379 0.078640 0.222565
v -0.385895 0.060064 0.249695
v -0.385895 0.060064 0.249695
v -0.391379 0.078640 0.222565
v -0.396556 0.060526 0.215913
v -0.385895 0.060064 0.249695
v -0.396556 0.060526 0.215913
v -0.392331 0.046217 0.236812
v -0.017786 -0.051900 0.240316
v -0.015747 -0.000422 0.250461
v -0.348922 -0.000449 0.297623
v -0.017786 -0.051900 0.240316
v -0.348922 -0.000449 0.297623
v -0.350662 -0.044376 0.288967
v -0.350644 0.043512 0.289144
v -0.355565 0.080817 0.264820
v -0.372984 0.072214 0.259530
v -0.350644 0.043512 0.289144
v -0.372984 0.072214 0.259530
v -0.368585 0.038869 0.281273
v -0.368585 0.038869 0.281273
v -0.372984 0.072214 0.259530
v -0.385895 0.060064 0.249695
v -0.368585 0.038869 0.281273
v -0.385895 0.060064 0.249695
v -0.382233 0.032311 0.267792
v -0.382233 0.032311 0.267792
v -0.385895 0.060064 0.249695
v -0.392331 0.046217 0.236812
v -0.382233 0.032311 0.267792
v -0.392331 0.046217 0.236812
v -0.389511 0.024838 0.250752
v -0.023571 -0.095501 0.211634
v -0.017786 -0.051900 0.240316
v -0.350662 -0.044376 0.288967
v -0.023571 -0.095501 0.211634
v -0.350662 -0.044376 0.288967
v -0.355598 -0.081580 0.264492
v -0.348922 -0.000449 0.297623
v -0.350644 0.043512 0.289144
v -0.368585 0.038869 0.281273
v -0.348922 -0.000449 0.297623
v -0.368585 0.038869 0.281273
v -0.367046 -0.000428 0.288853
v -0.367046 -0.000428 0.288853
v -0.368585 0.038869 0.281273
v -0.382233 0.032311 0.267792
v -0.367046 -0.000428 0.288853
v -0.382233 0.032311 0.267792
v -0.380952 -0.000395 0.274100
v -0.380952 -0.000395 0.274100
v -0.382233 0.032311 0.267792
v -0.389511 0.024838 0.250752
v -0.380952 -0.000395 0.274100
v -0.389511 0.024838 0.250752
v -0.388524 -0.000357 0.255611
v -0.032222 -0.124585 0.168780
v -0.023571 -0.095501 0.211634
v -0.355598 -0.081580 0.264492
v -0.032222 -0.124585 0.168780
v -0.355598 -0.081580 0.264492
v -0.362980 -0.106397 0.227925
v -0.350662 -0.044376 0.288967
v -0.348922 -0.000449 0.297623
v -0.367046 -0.000428 0.288853
v -0.350662 -0.044376 0.288967
v -0.367046 -0.000428 0.288853
v -0.368601 -0.039693 0.281115
v -0.368601 -0.039693 0.281115
v -0.367046 -0.000428 0.288853
v -0.380952 -0.000395 0.274100
v -0.368601 -0.039693 0.281115
v -0.380952 -0.000395 0.274100
v -0.382246 -0.033076 0.267660
v -0.382246 -0.033076 0.267660
v -0.380952 -0.000395 0.274100
v -0.388524 -0.000357 0.255611
v -0.382246 -0.033076 0.267660
v -0.388524 -0.000357 0.255611
v -0.389521 -0.025531 0.250650
v -0.042421 -0.134725 0.118279
v -0.032222 -0.124585 0.168780
v -0.362980 -0.106397 0.227925
v -0.042421 -0.134725 0.118279
v -0.362980 -0.106397 0.227925
v -0.371683 -0.115049 0.184834
v -0.355598 -0.081580 0.264492
v -0.350662 -0.044376 0.288967
v -0.368601 -0.039693 0.281115
v -0.355598 -0.081580 0.264492
v -0.368601 -0.039693 0.281115
v -0.373014 -0.072949 0.259237
v -0.373014 -0.072949 0.259237
v -0.368601 -0.039693 0.281115
v -0.382246 -0.033076 0.267660
v -0.373014 -0.072949 0.259237
v -0.382246 -0.033076 0.267660
v -0.385919 -0.060754 0.249451
v -0.385919 -0.060754 0.249451
v -0.382246 -0.033076 0.267660
v -0.389521 -0.025531 0.250650
v -0.385919 -0.060754 0.249451
v -0.389521 -0.025531 0.250650
v -0.392350 -0.046852 0.236624
v -0.362980 -0.106397 0.227925
v -0.355598 -0.081580 0.264492
v -0.373014 -0.072949 0.259237
v -0.362980 -0.106397 0.227925
v -0.373014 -0.072949 0.259237
v -0.379612 -0.095132 0.226551
v -0.379612 -0.095132 0.226551
v -0.373014 -0.072949 0.259237
v -0.385919 -0.060754 0.249451
v -0.379612 -0.095132 0.226551
v -0.385919 -0.060754 0.249451
v -0.391411 -0.079217 0.222246
v -0.391411 -0.079217 0.222246
v -0.385919 -0.060754 0.249451
v -0.392350 -0.046852 0.236624
v -0.391411 -0.079217 0.222246
v -0.392350 -0.046852 0.236624
v -0.396581 -0.061075 0.215667
v -0.371683 -0.115049 0.184834
v -0.362980 -0.106397 0.227925
v -0.379612 -0.095132 0.226551
v -0.371683 -0.115049 0.184834
v -0.379612 -0.095132 0.226551
v -0.387392 -0.102866 0.188032
v -0.387392 -0.102866 0.188032
v -0.379612 -0.095132 0.226551
v -0.391411 -0.079217 0.222246
v -0.387392 -0.102866 0.188032
v -0.391411 -0.079217 0.222246
v -0.397886 -0.085654 0.190187
v -0.397886 -0.085654 0.190187
v -0.391411 -0.079217 0.222246
v -0.396581 -0.061075 0.215667
v -0.397886 -0.085654 0.190187
v -0.396581 -0.061075 0.215667
v -0.401568 -0.066033 0.190972
v -0.061256 -0.095116 0.025084
v -0.052617 -0.124377 0.067820
v -0.380383 -0.106219 0.141777
v -0.061256 -0.095116 0.025084
v -0.380383 -0.106219 0.141777
v -0.387754 -0.081252 0.105311
v -0.406554 -0.060973 0.166296
v -0.401568 -0.066033 0.190972
v -0.396581 -0.061075 0.215667
v -0.406554 -0.060973 0.166296
v -0.396581 -0.061075 0.215667
v -0.392350 -0.046852 0.236624
v -0.406554 -0.060973 0.166296
v -0.392350 -0.046852 0.236624
v -0.389521 -0.025531 0.250650
v -0.406554 -0.060973 0.166296
v -0.389521 -0.025531 0.250650
v -0.388524 -0.000357 0.255611
v -0.406554 -0.060973 0.166296
v -0.388524 -0.000357 0.255611
v -0.389511 0.024838 0.250752
v -0.406554 -0.060973 0.166296
v -0.389511 0.024838 0.250752
v -0.392331 0.046217 0.236812
v -0.406554 -0.060973 0.166296
v -0.392331 0.046217 0.236812
v -0.396556 0.060526 0.215913
v -0.406554 -0.060973 0.166296
v -0.396556 0.060526 0.215913
v -0.401542 0.065586 0.191237
v -0.406554 -0.060973 0.166296
v -0.401542 0.065586 0.191237
v -0.406529 0.060628 0.166542
v -0.406554 -0.060973 0.166296
v -0.406529 0.060628 0.166542
v -0.410760 0.046405 0.145585
v -0.406554 -0.060973 0.166296
v -0.410760 0.046405 0.145585
v -0.413589 0.025083 0.131559
v -0.406554 -0.060973 0.166296
v -0.413589 0.025083 0.131559
v -0.414586 -0.000091 0.126598
v -0.406554 -0.060973 0.166296
v -0.414586 -0.000091 0.126598
v -0.413599 -0.025285 0.131457
v -0.406554 -0.060973 0.166296
v -0.413599 -0.025285 0.131457
v -0.410779 -0.046664 0.145397
v -0.052617 -0.124377 0.067820
v -0.034413 -0.118838 0.066495
v -0.024672 -0.128725 0.114706
v -0.052617 -0.124377 0.067820
v -0.024672 -0.128725 0.114706
v -0.042421 -0.134725 0.118279
v -0.034413 -0.118838 0.066495
v -0.019626 -0.098930 0.071967
v -0.011518 -0.107159 0.112093
v -0.034413 -0.118838 0.066495
v -0.011518 -0.107159 0.112093
v -0.024672 -0.128725 0.114706
v -0.019626 -0.098930 0.071967
v -0.013141 -0.076240 0.080300
v -0.006895 -0.082579 0.111210
v -0.019626 -0.098930 0.071967
v -0.006895 -0.082579 0.111210
v -0.011518 -0.107159 0.112093
v -0.061256 -0.095116 0.025084
v -0.042667 -0.090882 0.025663
v -0.034413 -0.118838 0.066495
v -0.061256 -0.095116 0.025084
v -0.034413 -0.118838 0.066495
v -0.052617 -0.124377 0.067820
v -0.042667 -0.090882 0.025663
v -0.026495 -0.075662 0.037983
v -0.019626 -0.098930 0.071967
v -0.042667 -0.090882 0.025663
v -0.019626 -0.098930 0.071967
v -0.034413 -0.118838 0.066495
v -0.026495 -0.075662 0.037983
v -0.018433 -0.058316 0.054121
v -0.013141 -0.076240 0.080300
v -0.026495 -0.075662 0.037983
v -0.013141 -0.076240 0.080300
v -0.019626 -0.098930 0.071967
v -0.067023 -0.051398 -0.003423
v -0.048178 -0.049111 -0.001574
v -0.042667 -0.090882 0.025663
v -0.067023 -0.051398 -0.003423
v -0.042667 -0.090882 0.025663
v -0.061256 -0.095116 0.025084
v -0.048178 -0.049111 -0.001574
v -0.031082 -0.040897 0.015314
v -0.026495 -0.075662 0.037983
v -0.048178 -0.049111 -0.001574
v -0.026495 -0.075662 0.037983
v -0.042667 -0.090882 0.025663
v -0.031082 -0.040897 0.015314
v -0.021966 -0.031536 0.036659
v -0.018433 -0.058316 0.054121
v -0.031082 -0.040897 0.015314
v -0.018433 -0.058316 0.054121
v -0.026495 -0.075662 0.037983
v -0.069041 0.000122 -0.013360
v -0.050106 0.000114 -0.011068
v -0.048178 -0.049111 -0.001574
v -0.069041 0.000122 -0.013360
v -0.048178 -0.049111 -0.001574
v -0.067023 -0.051398 -0.003423
v -0.050106 0.000114 -0.011068
v -0.032686 0.000073 0.007412
v -0.031082 -0.040897 0.015314
v -0.050106 0.000114 -0.011068
v -0.031082 -0.040897 0.015314
v -0.048178 -0.049111 -0.001574
v -0.032686 0.000073 0.007412
v -0.023202 0.000024 0.030572
v -0.021966 -0.031536 0.036659
v -0.032686 0.000073 0.007412
v -0.021966 -0.031536 0.036659
v -0.031082 -0.040897 0.015314
v -0.067003 0.051601 -0.003215
v -0.048158 0.049299 -0.001375
v -0.050106 0.000114 -0.011068
v -0.067003 0.051601 -0.003215
v -0.050106 0.000114 -0.011068
v -0.069041 0.000122 -0.013360
v -0.048158 0.049299 -0.001375
v -0.031065 0.041010 0.015480
v -0.032686 0.000073 0.007412
v -0.048158 0.049299 -0.001375
v -0.032686 0.000073 0.007412
v -0.050106 0.000114 -0.011068
v -0.031065 0.041010 0.015480
v -0.021953 0.031559 0.036786
v -0.023202 0.000024 0.030572
v -0.031065 0.041010 0.015480
v -0.023202 0.000024 0.030572
v -0.032686 0.000073 0.007412
v -0.061217 0.095202 0.025468
v -0.042631 0.090957 0.026030
v -0.048158 0.049299 -0.001375
v -0.061217 0.095202 0.025468
v -0.048158 0.049299 -0.001375
v -0.067003 0.051601 -0.003215
v -0.042631 0.090957 0.026030
v -0.026465 0.075681 0.038289
v -0.031065 0.041010 0.015480
v -0.042631 0.090957 0.026030
v -0.031065 0.041010 0.015480
v -0.048158 0.049299 -0.001375
v -0.026465 0.075681 0.038289
v -0.018409 0.058267 0.054357
v -0.021953 0.031559 0.036786
v -0.026465 0.075681 0.038289
v -0.021953 0.031559 0.036786
v -0.031065 0.041010 0.015480
v -0.052567 0.124286 0.068322
v -0.034365 0.118745 0.066975
v -0.042631 0.090957 0.026030
v -0.052567 0.124286 0.068322
v -0.042631 0.090957 0.026030
v -0.061217 0.095202 0.025468
v -0.034365 0.118745 0.066975
v -0.019585 0.098809 0.072366
v -0.026465 0.075681 0.038289
v -0.034365 0.118745 0.066975
v -0.026465 0.075681 0.038289
v -0.042631 0.090957 0.026030
v -0.019585 0.098809 0.072366
v -0.013110 0.076083 0.080608
v -0.018409 0.058267 0.054357
v -0.019585 0.098809 0.072366
v -0.018409 0.058267 0.054357
v -0.026465 0.075681 0.038289
v -0.042367 0.134426 0.118823
v -0.024620 0.128433 0.115225
v -0.034365 0.118745 0.066975
v -0.042367 0.134426 0.118823
v -0.034365 0.118745 0.066975
v -0.052567 0.124286 0.068322
v -0.024620 0.128433 0.115225
v -0.011475 0.106873 0.112525
v -0.019585 0.098809 0.072366
v -0.024620 0.128433 0.115225
v -0.019585 0.098809 0.072366
v -0.034365 0.118745 0.066975
v -0.011475 0.106873 0.112525
v -0.006862 0.082294 0.111543
v -0.013110 0.076083 0.080608
v -0.011475 0.106873 0.112525
v -0.013110 0.076083 0.080608
v -0.019585 0.098809 0.072366
v -0.032172 0.124078 0.169282
v -0.014879 0.118546 0.163436
v -0.024620 0.128433 0.115225
v -0.032172 0.124078 0.169282
v -0.024620 0.128433 0.115225
v -0.042367 0.134426 0.118823
v -0.014879 0.118546 0.163436
v -0.003367 0.098644 0.152651
v -0.011475 0.106873 0.112525
v -0.014879 0.118546 0.163436
v -0.011475 0.106873 0.112525
v -0.024620 0.128433 0.115225
v -0.003367 0.098644 0.152651
v -0.000617 0.075955 0.142453
v -0.006862 0.082294 0.111543
v -0.003367 0.098644 0.152651
v -0.006862 0.082294 0.111543
v -0.011475 0.106873 0.112525
v -0.023533 0.094817 0.212018
v -0.006625 0.090590 0.204268
v -0.014879 0.118546 0.163436
v -0.023533 0.094817 0.212018
v -0.014879 0.118546 0.163436
v -0.032172 0.124078 0.169282
v -0.006625 0.090590 0.204268
v 0.003503 0.075376 0.186635
v -0.003367 0.098644 0.152651
v -0.006625 0.090590 0.204268
v -0.003367 0.098644 0.152651
v -0.014879 0.118546 0.163436
v 0.003503 0.075376 0.186635
v 0.004675 0.058031 0.168631
v -0.000617 0.075955 0.142453
v 0.003503 0.075376 0.186635
v -0.000617 0.075955 0.142453
v -0.003367 0.098644 0.152651
v -0.017765 0.051099 0.240524
v -0.001114 0.048819 0.231505
v -0.006625 0.090590 0.204268
v -0.017765 0.051099 0.240524
v -0.006625 0.090590 0.204268
v -0.023533 0.094817 0.212018
v -0.001114 0.048819 0.231505
v 0.008089 0.040610 0.209304
v 0.003503 0.075376 0.186635
v -0.001114 0.048819 0.231505
v 0.003503 0.075376 0.186635
v -0.006625 0.090590 0.204268
v 0.008089 0.040610 0.209304
v 0.008208 0.031251 0.186094
v 0.004675 0.058031 0.168631
v 0.008089 0.040610 0.209304
v 0.004675 0.058031 0.168631
v 0.003503 0.075376 0.186635
v -0.015747 -0.000422 0.250461
v 0.000814 -0.000406 0.240999
v -0.001114 0.048819 0.231505
v -0.015747 -0.000422 0.250461
v -0.001114 0.048819 0.231505
v -0.017765 0.051099 0.240524
v 0.000814 -0.000406 0.240999
v 0.009694 -0.000359 0.217206
v 0.008089 0.040610 0.209304
v 0.000814 -0.000406 0.240999
v 0.008089 0.040610 0.209304
v -0.001114 0.048819 0.231505
v 0.009694 -0.000359 0.217206
v 0.009445 -0.000309 0.192181
v 0.008208 0.031251 0.186094
v 0.009694 -0.000359 0.217206
v 0.008208 0.031251 0.186094
v 0.008089 0.040610 0.209304
v -0.017786 -0.051900 0.240316
v -0.001134 -0.049591 0.231306
v 0.000814 -0.000406 0.240999
v -0.017786 -0.051900 0.240316
v 0.000814 -0.000406 0.240999
v -0.015747 -0.000422 0.250461
v -0.001134 -0.049591 0.231306
v 0.008073 -0.041296 0.209139
v 0.009694 -0.000359 0.217206
v -0.001134 -0.049591 0.231306
v 0.009694 -0.000359 0.217206
v 0.000814 -0.000406 0.240999
v 0.008073 -0.041296 0.209139
v 0.008196 -0.031843 0.185966
v 0.009445 -0.000309 0.192181
v 0.008073 -0.041296 0.209139
v 0.009445 -0.000309 0.192181
v 0.009694 -0.000359 0.217206
v -0.023571 -0.095501 0.211634
v -0.006662 -0.091249 0.203901
v -0.001134 -0.049591 0.231306
v -0.023571 -0.095501 0.211634
v -0.001134 -0.049591 0.231306
v -0.017786 -0.051900 0.240316
v -0.006662 -0.091249 0.203901
v 0.003472 -0.075968 0.186330
v 0.008073 -0.041296 0.209139
v -0.006662 -0.091249 0.203901
v 0.008073 -0.041296 0.209139
v -0.001134 -0.049591 0.231306
v 0.003472 -0.075968 0.186330
v 0.004652 -0.058552 0.168396
v 0.008196 -0.031843 0.185966
v 0.003472 -0.075968 0.186330
v 0.008196 -0.031843 0.185966
v 0.008073 -0.041296 0.209139
v -0.032222 -0.124585 0.168780
v -0.014927 -0.119037 0.162956
v -0.006662 -0.091249 0.203901
v -0.032222 -0.124585 0.168780
v -0.006662 -0.091249 0.203901
v -0.023571 -0.095501 0.211634
v -0.014927 -0.119037 0.162956
v -0.003407 -0.099096 0.152252
v 0.003472 -0.075968 0.186330
v -0.014927 -0.119037 0.162956
v 0.003472 -0.075968 0.186330
v -0.006662 -0.091249 0.203901
v -0.003407 -0.099096 0.152252
v -0.000647 -0.076368 0.142145
v 0.004652 -0.058552 0.168396
v -0.003407 -0.099096 0.152252
v 0.004652 -0.058552 0.168396
v 0.003472 -0.075968 0.186330
v -0.042421 -0.134725 0.118279
v -0.024672 -0.128725 0.114706
v -0.014927 -0.119037 0.162956
v -0.042421 -0.134725 0.118279
v -0.014927 -0.119037 0.162956
v -0.032222 -0.124585 0.168780
v -0.024672 -0.128725 0.114706
v -0.011518 -0.107159 0.112093
v -0.003407 -0.099096 0.152252
v -0.024672 -0.128725 0.114706
v -0.003407 -0.099096 0.152252
v -0.014927 -0.119037 0.162956
v -0.011518 -0.107159 0.112093
v -0.006895 -0.082579 0.111210
v -0.000647 -0.076368 0.142145
v -0.011518 -0.107159 0.112093
v -0.000647 -0.076368 0.142145
v -0.003407 -0.099096 0.152252
v -0.013141 -0.076240 0.080300
v -0.018433 -0.058316 0.054121
v -0.021966 -0.031536 0.036659
v -0.013141 -0.076240 0.080300
v -0.021966 -0.031536 0.036659
v -0.023202 0.000024 0.030572
v -0.013141 -0.076240 0.080300
v -0.023202 0.000024 0.030572
v -0.021953 0.031559 0.036786
v -0.013141 -0.076240 0.080300
v -0.021953 0.031559 0.036786
v -0.018409 0.058267 0.054357
v -0.013141 -0.076240 0.080300
v -0.018409 0.058267 0.054357
v -0.013110 0.076083 0.080608
v -0.013141 -0.076240 0.080300
v -0.013110 0.076083 0.080608
v -0.006862 0.082294 0.111543
v -0.013141 -0.076240 0.080300
v -0.006862 0.082294 0.111543
v -0.000617 0.075955 0.142453
v -0.013141 -0.076240 0.080300
v -0.000617 0.075955 0.142453
v 0.004675 0.058031 0.168631
v -0.013141 -0.076240 0.080300
v 0.004675 0.058031 0.168631
v 0.008208 0.031251 0.186094
v -0.013141 -0.076240 0.080300
v 0.008208 0.031251 0.186094
v 0.009445 -0.000309 0.192181
v -0.013141 -0.076240 0.080300
v 0.009445 -0.000309 0.192181
v 0.008196 -0.031843 0.185966
v -0.013141 -0.076240 0.080300
v 0.008196 -0.031843 0.185966
v 0.004652 -0.058552 0.168396
v -0.013141 -0.076240 0.080300
v 0.004652 -0.058552 0.168396
v -0.000647 -0.076368 0.142145
v -0.013141 -0.076240 0.080300
v -0.000647 -0.076368 0.142145
v -0.006895 -0.082579 0.111210
v -0.052617 -0.124377 0.067820
v -0.042421 -0.134725 0.118279
v -0.371683 -0.115049 0.184834
v -0.052617 -0.124377 0.067820
v -0.371683 -0.115049 0.184834
v -0.380383 -0.106219 0.141777
f 1 2 3
f 4 5 6
f 7 8 9
f 10 11 12
f 13 14 15
f 16 17 18
f 19 20 21
f 22 23 24
f 25 26 27
f 28 29 30
f 31 32 33
f 34 35 36
f 37 38 39
f 40 41 42
f 43 44 45
f 46 47 48
f 49 50 51
f 52 53 54
f 55 56 57
f 58 59 60
f 61 62 63
f 64 65 66
f 67 68 69
f 70 71 72
f 73 74 75
f 76 77 78
f 79 80 81
f 82 83 84
f 85 86 87
f 88 89 90
f 91 92 93
f 94 95 96
f 97 98 99
f 100 101 102
f 103 104 105
f 106 107 108
f 109 110 111
f 112 113 114
f 115 116 117
f 118 119 120
f 121 122 123
f 124 125 126
f 127 128 129
f 130 131 132
f 133 134 135
f 136 137 138
f 139 140 141
f 142 143 144
f 145 146 147
f 148 149 150
f 151 152 153
f 154 155 156
f 157 158 159
f 160 161 162
f 163 164 165
f 166 167 168
f 169 170 171
f 172 173 174
f 175 176 177
f 178 179 180
f 181 182 183
f 184 185 186
f 187 188 189
f 190 191 192
f 193 194 195
f 196 197 198
f 199 200 201
f 202 203 204
f 205 206 207
f 208 209 210
f 211 212 213
f 214 215 216
f 217 218 219
f 220 221 222
f 223 224 225
f 226 227 228
f 229 230 231
f 232 233 234
f 235 236 237
f 238 239 240
f 241 242 243
f 244 245 246
f 247 248 249
f 250 251 252
f 253 254 255
f 256 257 258
f 259 260 261
f 262 263 264
f 265 266 267
f 268 269 270
f 271 272 273
f 274 275 276
f 277 278 279
f 280 281 282
f 283 284 285
f 286 287 288
f 289 290 291
f 292 293 294
f 295 296 297
f 298 299 300
f 301 302 303
f 304 305 306
f 307 308 309
f 310 311 312
f 313 314 315
f 316 317 318
f 319 320 321
f 322 323 324
f 325 326 327
f 328 329 330
f 331 332 333
f 334 335 336
f 337 338 339
f 340 341 342
f 343 344 345
f 346 347 348
f 349 350 351
f 352 353 354
f 355 356 357
f 358 359 360
f 361 362 363
f 364 365 366
f 367 368 369
f 370 371 372
f 373 374 375
f 376 377 378
f 379 380 381
f 382 383 384
f 385 386 387
f 388 389 390
f 391 392 393
f 394 395 396
f 397 398 399
f 400 401 402
f 403 404 405
f 406 407 408
f 409 410 411
f 412 413 414
f 415 416 417
f 418 419 420
f 421 422 423
f 424 425 426
f 427 428 429
f 430 431 432
f 433 434 435
f 436 437 438
f 439 440 441
f 442 443 444
f 445 446 447
f 448 449 450
f 451 452 453
f 454 455 456
f 457 458 459
f 460 461 462
f 463 464 465
f 466 467 468
f 469 470 471
f 472 473 474
f 475 476 477
f 478 479 480
f 481 482 483
f 484 485 486
f 487 488 489
f 490 491 492
f 493 494 495
f 496 497 498
f 499 500 501
f 502 503 504
f 505 506 507
f 508 509 510
f 511 512 513
f 514 515 516
f 517 518 519
f 520 521 522
f 523 524 525
f 526 527 528
f 529 530 531
f 532 533 534
f 535 536 537
f 538 539 540
f 541 542 543
f 544 545 546
f 547 548 549
f 550 551 552
f 553 554 555
f 556 557 558
f 559 560 561
f 562 563 564
f 565 566 567
f 568 569 570
f 571 572 573
f 574 575 576
f 577 578 579
f 580 581 582
f 583 584 585
f 586 587 588
f 589 590 591
f 592 593 594
f 595 596 597
f 598 599 600
f 601 602 603
f 604 605 606
f 607 608 609
f 610 611 612
f 613 614 615
f 616 617 618
f 619 620 621
f 622 623 624
f 625 626 627
f 628 629 630
f 631 632 633
f 634 635 636
f 637 638 639
f 640 641 642
f 643 644 645
f 646 647 648
f 649 650 651
f 652 653 654
f 655 656 657
f 658 659 660
f 661 662 663
f 664 665 666
f 667 668 669
f 670 671 672
f 673 674 675
f 676 677 678
f 679 680 681
f 682 683 684
f 685 686 687
f 688 689 690
f 691 692 693
f 694 695 696
f 697 698 699
f 700 701 702
f 703 704 705
f 706 707 708
f 709 710 711
f 712 713 714
f 715 716 717
f 718 719 720
f 721 722 723
f 724 725 726
f 727 728 729
f 730 731 732
f 733 734 735
f 736 737 738
f 739 740 741
f 742 743 744
f 745 746 747
f 748 749 750
f 751 752 753
f 754 755 756
