# lizard mesh
v -0.461764 -0.017703 0.248072
v -0.459809 -0.032528 0.257739
v -0.527224 -0.026364 0.277686
v -0.461764 -0.017703 0.248072
v -0.527224 -0.026364 0.277686
v -0.528805 -0.014383 0.269873
v -0.524856 -0.034383 0.289398
v -0.522062 -0.037219 0.303226
v -0.539231 -0.032737 0.306704
v -0.524856 -0.034383 0.289398
v -0.539231 -0.032737 0.306704
v -0.541685 -0.030246 0.294557
v -0.541685 -0.030246 0.294557
v -0.539231 -0.032737 0.306704
v -0.545531 -0.028012 0.307986
v -0.541685 -0.030246 0.294557
v -0.545531 -0.028012 0.307986
v -0.547627 -0.025884 0.297612
v -0.547627 -0.025884 0.297612
v -0.545531 -0.028012 0.307986
v -0.549247 -0.020151 0.308753
v -0.547627 -0.025884 0.297612
v -0.549247 -0.020151 0.308753
v -0.550747 -0.018628 0.301326
v -0.462449 -0.000232 0.244703
v -0.461764 -0.017703 0.248072
v -0.528805 -0.014383 0.269873
v -0.462449 -0.000232 0.244703
v -0.528805 -0.014383 0.269873
v -0.529358 -0.000264 0.267150
v -0.527224 -0.026364 0.277686
v -0.524856 -0.034383 0.289398
v -0.541685 -0.030246 0.294557
v -0.527224 -0.026364 0.277686
v -0.541685 -0.030246 0.294557
v -0.543765 -0.023203 0.284269
v -0.543765 -0.023203 0.284269
v -0.541685 -0.030246 0.294557
v -0.547627 -0.025884 0.297612
v -0.543765 -0.023203 0.284269
v -0.547627 -0.025884 0.297612
v -0.549403 -0.019868 0.288825
v -0.549403 -0.019868 0.288825
v -0.547627 -0.025884 0.297612
v -0.550747 -0.018628 0.301326
v -0.549403 -0.019868 0.288825
v -0.550747 -0.018628 0.301326
v -0.552019 -0.014321 0.295036
v -0.461757 0.017225 0.248143
v -0.462449 -0.000232 0.244703
v -0.529358 -0.000264 0.267150
v -0.461757 0.017225 0.248143
v -0.529358 -0.000264 0.267150
v -0.528799 0.013844 0.269930
v -0.528805 -0.014383 0.269873
v -0.527224 -0.026364 0.277686
v -0.543765 -0.023203 0.284269
v -0.528805 -0.014383 0.269873
v -0.543765 -0.023203 0.284269
v -0.545153 -0.012678 0.277407
v -0.545153 -0.012678 0.277407
v -0.543765 -0.023203 0.284269
v -0.549403 -0.019868 0.288825
v -0.545153 -0.012678 0.277407
v -0.549403 -0.019868 0.288825
v -0.550589 -0.010880 0.282964
v -0.550589 -0.010880 0.282964
v -0.549403 -0.019868 0.288825
v -0.552019 -0.014321 0.295036
v -0.550589 -0.010880 0.282964
v -0.552019 -0.014321 0.295036
v -0.552868 -0.007887 0.290841
v -0.459795 0.032010 0.257869
v -0.461757 0.017225 0.248143
v -0.528799 0.013844 0.269930
v -0.459795 0.032010 0.257869
v -0.528799 0.013844 0.269930
v -0.527213 0.025793 0.277791
v -0.529358 -0.000264 0.267150
v -0.528805 -0.014383 0.269873
v -0.545153 -0.012678 0.277407
v -0.529358 -0.000264 0.267150
v -0.545153 -0.012678 0.277407
v -0.545639 -0.000276 0.275015
v -0.545639 -0.000276 0.275015
v -0.545153 -0.012678 0.277407
v -0.550589 -0.010880 0.282964
v -0.545639 -0.000276 0.275015
v -0.550589 -0.010880 0.282964
v -0.551004 -0.000287 0.280921
v -0.551004 -0.000287 0.280921
v -0.550589 -0.010880 0.282964
v -0.552868 -0.007887 0.290841
v -0.551004 -0.000287 0.280921
v -0.552868 -0.007887 0.290841
v -0.553165 -0.000304 0.289378
v -0.456862 0.041873 0.272401
v -0.459795 0.032010 0.257869
v -0.527213 0.025793 0.277791
v -0.456862 0.041873 0.272401
v -0.527213 0.025793 0.277791
v -0.524843 0.033764 0.289535
v -0.528799 0.013844 0.269930
v -0.529358 -0.000264 0.267150
v -0.545639 -0.000276 0.275015
v -0.528799 0.013844 0.269930
v -0.545639 -0.000276 0.275015
v -0.545148 0.012116 0.277457
v -0.545148 0.012116 0.277457
v -0.545639 -0.000276 0.275015
v -0.551004 -0.000287 0.280921
v -0.545148 0.012116 0.277457
v -0.551004 -0.000287 0.280921
v -0.550585 0.010297 0.283007
v -0.550585 0.010297 0.283007
v -0.551004 -0.000287 0.280921
v -0.553165 -0.000304 0.289378
v -0.550585 0.010297 0.283007
v -0.553165 -0.000304 0.289378
v -0.552864 0.007273 0.290871
v -0.453403 0.045311 0.289526
v -0.456862 0.041873 0.272401
v -0.524843 0.033764 0.289535
v -0.453403 0.045311 0.289526
v -0.524843 0.033764 0.289535
v -0.522047 0.036543 0.303375
v -0.527213 0.025793 0.277791
v -0.528799 0.013844 0.269930
v -0.545148 0.012116 0.277457
v -0.527213 0.025793 0.277791
v -0.545148 0.012116 0.277457
v -0.543755 0.022612 0.284362
v -0.543755 0.022612 0.284362
v -0.545148 0.012116 0.277457
v -0.550585 0.010297 0.283007
v -0.543755 0.022612 0.284362
v -0.550585 0.010297 0.283007
v -0.549396 0.019261 0.288904
v -0.549396 0.019261 0.288904
v -0.550585 0.010297 0.283007
v -0.552864 0.007273 0.290871
v -0.549396 0.019261 0.288904
v -0.552864 0.007273 0.290871
v -0.552013 0.013690 0.295093
v -0.449946 0.041802 0.306637
v -0.453403 0.045311 0.289526
v -0.522047 0.036543 0.303375
v -0.449946 0.041802 0.306637
v -0.522047 0.036543 0.303375
v -0.519253 0.033707 0.317204
v -0.524843 0.033764 0.289535
v -0.527213 0.025793 0.277791
v -0.543755 0.022612 0.284362
v -0.524843 0.033764 0.289535
v -0.543755 0.022612 0.284362
v -0.541673 0.029613 0.294678
v -0.541673 0.029613 0.294678
v -0.543755 0.022612 0.284362
v -0.549396 0.019261 0.288904
v -0.541673 0.029613 0.294678
v -0.549396 0.019261 0.288904
v -0.547617 0.025241 0.297715
v -0.547617 0.025241 0.297715
v -0.549396 0.019261 0.288904
v -0.552013 0.013690 0.295093
v -0.547617 0.025241 0.297715
v -0.552013 0.013690 0.295093
v -0.550740 0.017971 0.301400
v -0.447016 0.031880 0.321129
v -0.449946 0.041802 0.306637
v -0.519253 0.033707 0.317204
v -0.447016 0.031880 0.321129
v -0.519253 0.033707 0.317204
v -0.516886 0.025688 0.328916
v -0.522047 0.036543 0.303375
v -0.524843 0.033764 0.289535
v -0.541673 0.029613 0.294678
v -0.522047 0.036543 0.303375
v -0.541673 0.029613 0.294678
v -0.539218 0.032054 0.306834
v -0.539218 0.032054 0.306834
v -0.541673 0.029613 0.294678
v -0.547617 0.025241 0.297715
v -0.539218 0.032054 0.306834
v -0.547617 0.025241 0.297715
v -0.545520 0.027326 0.308098
v -0.545520 0.027326 0.308098
v -0.547617 0.025241 0.297715
v -0.550740 0.017971 0.301400
v -0.545520 0.027326 0.308098
v -0.550740 0.017971 0.301400
v -0.549239 0.019463 0.308833
v -0.445061 0.017055 0.330796
v -0.447016 0.031880 0.321129
v -0.516886 0.025688 0.328916
v -0.445061 0.017055 0.330796
v -0.516886 0.025688 0.328916
v -0.515305 0.013707 0.336728
v -0.519253 0.033707 0.317204
v -0.522047 0.036543 0.303375
v -0.539218 0.032054 0.306834
v -0.519253 0.033707 0.317204
v -0.539218 0.032054 0.306834
v -0.536763 0.029563 0.318981
v -0.536763 0.029563 0.318981
v -0.539218 0.032054 0.306834
v -0.545520 0.027326 0.308098
v -0.536763 0.029563 0.318981
v -0.545520 0.027326 0.308098
v -0.543424 0.025198 0.318472
v -0.543424 0.025198 0.318472
v -0.545520 0.027326 0.308098
v -0.549239 0.019463 0.308833
v -0.543424 0.025198 0.318472
v -0.549239 0.019463 0.308833
v -0.547738 0.017940 0.316260
v -0.444376 -0.000416 0.334166
v -0.445061 0.017055 0.330796
v -0.515305 0.013707 0.336728
v -0.444376 -0.000416 0.334166
v -0.515305 0.013707 0.336728
v -0.514752 -0.000413 0.339451
v -0.516886 0.025688 0.328916
v -0.519253 0.033707 0.317204
v -0.536763 0.029563 0.318981
v -0.516886 0.025688 0.328916
v -0.536763 0.029563 0.318981
v -0.534684 0.022519 0.329269
v -0.534684 0.022519 0.329269
v -0.536763 0.029563 0.318981
v -0.543424 0.025198 0.318472
v -0.534684 0.022519 0.329269
v -0.543424 0.025198 0.318472
v -0.541648 0.019182 0.327259
v -0.541648 0.019182 0.327259
v -0.543424 0.025198 0.318472
v -0.547738 0.017940 0.316260
v -0.541648 0.019182 0.327259
v -0.547738 0.017940 0.316260
v -0.546466 0.013634 0.322549
v -0.445068 -0.017873 0.330726
v -0.444376 -0.000416 0.334166
v -0.514752 -0.000413 0.339451
v -0.445068 -0.017873 0.330726
v -0.514752 -0.000413 0.339451
v -0.515311 -0.014521 0.336671
v -0.515305 0.013707 0.336728
v -0.516886 0.025688 0.328916
v -0.534684 0.022519 0.329269
v -0.515305 0.013707 0.336728
v -0.534684 0.022519 0.329269
v -0.533295 0.011995 0.336131
v -0.533295 0.011995 0.336131
v -0.534684 0.022519 0.329269
v -0.541648 0.019182 0.327259
v -0.533295 0.011995 0.336131
v -0.541648 0.019182 0.327259
v -0.540462 0.010194 0.333120
v -0.540462 0.010194 0.333120
v -0.541648 0.019182 0.327259
v -0.546466 0.013634 0.322549
v -0.540462 0.010194 0.333120
v -0.546466 0.013634 0.322549
v -0.545618 0.007199 0.326745
v -0.447029 -0.032658 0.320999
v -0.445068 -0.017873 0.330726
v -0.515311 -0.014521 0.336671
v -0.447029 -0.032658 0.320999
v -0.515311 -0.014521 0.336671
v -0.516896 -0.026470 0.328810
v -0.514752 -0.000413 0.339451
v -0.515305 0.013707 0.336728
v -0.533295 0.011995 0.336131
v -0.514752 -0.000413 0.339451
v -0.533295 0.011995 0.336131
v -0.532810 -0.000407 0.338523
v -0.532810 -0.000407 0.338523
v -0.533295 0.011995 0.336131
v -0.540462 0.010194 0.333120
v -0.532810 -0.000407 0.338523
v -0.540462 0.010194 0.333120
v -0.540047 -0.000399 0.335163
v -0.540047 -0.000399 0.335163
v -0.540462 0.010194 0.333120
v -0.545618 0.007199 0.326745
v -0.540047 -0.000399 0.335163
v -0.545618 0.007199 0.326745
v -0.545321 -0.000384 0.328208
v -0.449963 -0.042521 0.306467
v -0.447029 -0.032658 0.320999
v -0.516896 -0.026470 0.328810
v -0.449963 -0.042521 0.306467
v -0.516896 -0.026470 0.328810
v -0.519267 -0.034440 0.317066
v -0.515311 -0.014521 0.336671
v -0.514752 -0.000413 0.339451
v -0.532810 -0.000407 0.338523
v -0.515311 -0.014521 0.336671
v -0.532810 -0.000407 0.338523
v -0.533300 -0.012799 0.336081
v -0.533300 -0.012799 0.336081
v -0.532810 -0.000407 0.338523
v -0.540047 -0.000399 0.335163
v -0.533300 -0.012799 0.336081
v -0.540047 -0.000399 0.335163
v -0.540466 -0.010983 0.333077
v -0.540466 -0.010983 0.333077
v -0.540047 -0.000399 0.335163
v -0.545321 -0.000384 0.328208
v -0.540466 -0.010983 0.333077
v -0.545321 -0.000384 0.328208
v -0.545621 -0.007960 0.326714
v -0.453422 -0.045959 0.289342
v -0.449963 -0.042521 0.306467
v -0.519267 -0.034440 0.317066
v -0.453422 -0.045959 0.289342
v -0.519267 -0.034440 0.317066
v -0.522062 -0.037219 0.303226
v -0.516896 -0.026470 0.328810
v -0.515311 -0.014521 0.336671
v -0.533300 -0.012799 0.336081
v -0.516896 -0.026470 0.328810
v -0.533300 -0.012799 0.336081
v -0.534693 -0.023295 0.329176
v -0.534693 -0.023295 0.329176
v -0.533300 -0.012799 0.336081
v -0.540466 -0.010983 0.333077
v -0.534693 -0.023295 0.329176
v -0.540466 -0.010983 0.333077
v -0.541655 -0.019947 0.327180
v -0.541655 -0.019947 0.327180
v -0.540466 -0.010983 0.333077
v -0.545621 -0.007960 0.326714
v -0.541655 -0.019947 0.327180
v -0.545621 -0.007960 0.326714
v -0.546472 -0.014378 0.322493
v -0.519267 -0.034440 0.317066
v -0.516896 -0.026470 0.328810
v -0.534693 -0.023295 0.329176
v -0.519267 -0.034440 0.317066
v -0.534693 -0.023295 0.329176
v -0.536775 -0.030296 0.318860
v -0.536775 -0.030296 0.318860
v -0.534693 -0.023295 0.329176
v -0.541655 -0.019947 0.327180
v -0.536775 -0.030296 0.318860
v -0.541655 -0.019947 0.327180
v -0.543434 -0.025927 0.318369
v -0.543434 -0.025927 0.318369
v -0.541655 -0.019947 0.327180
v -0.546472 -0.014378 0.322493
v -0.543434 -0.025927 0.318369
v -0.546472 -0.014378 0.322493
v -0.547745 -0.018658 0.316186
v -0.522062 -0.037219 0.303226
v -0.519267 -0.034440 0.317066
v -0.536775 -0.030296 0.318860
v -0.522062 -0.037219 0.303226
v -0.536775 -0.030296 0.318860
v -0.539231 -0.032737 0.306704
v -0.539231 -0.032737 0.306704
v -0.536775 -0.030296 0.318860
v -0.543434 -0.025927 0.318369
v -0.539231 -0.032737 0.306704
v -0.543434 -0.025927 0.318369
v -0.545531 -0.028012 0.307986
v -0.545531 -0.028012 0.307986
v -0.543434 -0.025927 0.318369
v -0.547745 -0.018658 0.316186
v -0.545531 -0.028012 0.307986
v -0.547745 -0.018658 0.316186
v -0.549247 -0.020151 0.308753
v -0.459809 -0.032528 0.257739
v -0.456879 -0.042450 0.272231
v -0.524856 -0.034383 0.289398
v -0.459809 -0.032528 0.257739
v -0.524856 -0.034383 0.289398
v -0.527224 -0.026364 0.277686
v -0.550747 -0.018628 0.301326
v -0.549247 -0.020151 0.308753
v -0.547745 -0.018658 0.316186
v -0.550747 -0.018628 0.301326
v -0.547745 -0.018658 0.316186
v -0.546472 -0.014378 0.322493
v -0.550747 -0.018628 0.301326
v -0.546472 -0.014378 0.322493
v -0.545621 -0.007960 0.326714
v -0.550747 -0.018628 0.301326
v -0.545621 -0.007960 0.326714
v -0.545321 -0.000384 0.328208
v -0.550747 -0.018628 0.301326
v -0.545321 -0.000384 0.328208
v -0.545618 0.007199 0.326745
v -0.550747 -0.018628 0.301326
v -0.545618 0.007199 0.326745
v -0.546466 0.013634 0.322549
v -0.550747 -0.018628 0.301326
v -0.546466 0.013634 0.322549
v -0.547738 0.017940 0.316260
v -0.550747 -0.018628 0.301326
v -0.547738 0.017940 0.316260
v -0.549239 0.019463 0.308833
v -0.550747 -0.018628 0.301326
v -0.549239 0.019463 0.308833
v -0.550740 0.017971 0.301400
v -0.550747 -0.018628 0.301326
v -0.550740 0.017971 0.301400
v -0.552013 0.013690 0.295093
v -0.550747 -0.018628 0.301326
v -0.552013 0.013690 0.295093
v -0.552864 0.007273 0.290871
v -0.550747 -0.018628 0.301326
v -0.552864 0.007273 0.290871
v -0.553165 -0.000304 0.289378
v -0.550747 -0.018628 0.301326
v -0.553165 -0.000304 0.289378
v -0.552868 -0.007887 0.290841
v -0.550747 -0.018628 0.301326
v -0.552868 -0.007887 0.290841
v -0.552019 -0.014321 0.295036
v -0.026922 -0.093473 0.163653
v -0.013260 -0.089316 0.162659
v -0.005949 -0.096737 0.198844
v -0.026922 -0.093473 0.163653
v -0.005949 -0.096737 0.198844
v -0.019270 -0.101240 0.201525
v -0.013260 -0.089316 0.162659
v -0.002161 -0.074374 0.166766
v 0.003924 -0.080550 0.196883
v -0.013260 -0.089316 0.162659
v 0.003924 -0.080550 0.196883
v -0.005949 -0.096737 0.198844
v -0.002161 -0.074374 0.166766
v 0.002706 -0.057344 0.173020
v 0.007394 -0.062102 0.196220
v -0.002161 -0.074374 0.166766
v 0.007394 -0.062102 0.196220
v 0.003924 -0.080550 0.196883
v -0.033406 -0.071512 0.131578
v -0.019455 -0.068333 0.132013
v -0.013260 -0.089316 0.162659
v -0.033406 -0.071512 0.131578
v -0.013260 -0.089316 0.162659
v -0.026922 -0.093473 0.163653
v -0.019455 -0.068333 0.132013
v -0.007317 -0.056910 0.141259
v -0.002161 -0.074374 0.166766
v -0.019455 -0.068333 0.132013
v -0.002161 -0.074374 0.166766
v -0.013260 -0.089316 0.162659
v -0.007317 -0.056910 0.141259
v -0.001266 -0.043891 0.153372
v 0.002706 -0.057344 0.173020
v -0.007317 -0.056910 0.141259
v 0.002706 -0.057344 0.173020
v -0.002161 -0.074374 0.166766
v -0.037735 -0.038699 0.110183
v -0.023591 -0.036982 0.111570
v -0.019455 -0.068333 0.132013
v -0.037735 -0.038699 0.110183
v -0.019455 -0.068333 0.132013
v -0.033406 -0.071512 0.131578
v -0.023591 -0.036982 0.111570
v -0.010759 -0.030817 0.124245
v -0.007317 -0.056910 0.141259
v -0.023591 -0.036982 0.111570
v -0.007317 -0.056910 0.141259
v -0.019455 -0.068333 0.132013
v -0.010759 -0.030817 0.124245
v -0.003917 -0.023791 0.140266
v -0.001266 -0.043891 0.153372
v -0.010759 -0.030817 0.124245
v -0.001266 -0.043891 0.153372
v -0.007317 -0.056910 0.141259
v -0.039250 -0.000031 0.102724
v -0.025038 -0.000037 0.104445
v -0.023591 -0.036982 0.111570
v -0.039250 -0.000031 0.102724
v -0.023591 -0.036982 0.111570
v -0.037735 -0.038699 0.110183
v -0.025038 -0.000037 0.104445
v -0.011964 -0.000068 0.118315
v -0.010759 -0.030817 0.124245
v -0.025038 -0.000037 0.104445
v -0.010759 -0.030817 0.124245
v -0.023591 -0.036982 0.111570
v -0.011964 -0.000068 0.118315
v -0.004845 -0.000104 0.135697
v -0.003917 -0.023791 0.140266
v -0.011964 -0.000068 0.118315
v -0.003917 -0.023791 0.140266
v -0.010759 -0.030817 0.124245
v -0.037720 0.038607 0.110339
v -0.023576 0.036879 0.111720
v -0.025038 -0.000037 0.104445
v -0.037720 0.038607 0.110339
v -0.025038 -0.000037 0.104445
v -0.039250 -0.000031 0.102724
v -0.023576 0.036879 0.111720
v -0.010747 0.030657 0.124370
v -0.011964 -0.000068 0.118315
v -0.023576 0.036879 0.111720
v -0.011964 -0.000068 0.118315
v -0.025038 -0.000037 0.104445
v -0.010747 0.030657 0.124370
v -0.003908 0.023564 0.140361
v -0.004845 -0.000104 0.135697
v -0.010747 0.030657 0.124370
v -0.004845 -0.000104 0.135697
v -0.011964 -0.000068 0.118315
v -0.033378 0.071331 0.131866
v -0.019427 0.068145 0.132288
v -0.023576 0.036879 0.111720
v -0.033378 0.071331 0.131866
v -0.023576 0.036879 0.111720
v -0.037720 0.038607 0.110339
v -0.019427 0.068145 0.132288
v -0.007294 0.056680 0.141489
v -0.010747 0.030657 0.124370
v -0.019427 0.068145 0.132288
v -0.010747 0.030657 0.124370
v -0.023576 0.036879 0.111720
v -0.007294 0.056680 0.141489
v -0.001248 0.043610 0.153549
v -0.003908 0.023564 0.140361
v -0.007294 0.056680 0.141489
v -0.003908 0.023564 0.140361
v -0.010747 0.030657 0.124370
v -0.026885 0.093160 0.164030
v -0.013224 0.089002 0.163019
v -0.019427 0.068145 0.132288
v -0.026885 0.093160 0.164030
v -0.019427 0.068145 0.132288
v -0.033378 0.071331 0.131866
v -0.013224 0.089002 0.163019
v -0.002131 0.074039 0.167066
v -0.007294 0.056680 0.141489
v -0.013224 0.089002 0.163019
v -0.007294 0.056680 0.141489
v -0.019427 0.068145 0.132288
v -0.002131 0.074039 0.167066
v 0.002729 0.056982 0.173251
v -0.001248 0.043610 0.153549
v -0.002131 0.074039 0.167066
v -0.001248 0.043610 0.153549
v -0.007294 0.056680 0.141489
v -0.019229 0.100770 0.201933
v -0.005910 0.096273 0.199233
v -0.013224 0.089002 0.163019
v -0.019229 0.100770 0.201933
v -0.013224 0.089002 0.163019
v -0.026885 0.093160 0.164030
v -0.005910 0.096273 0.199233
v 0.003957 0.080091 0.197207
v -0.002131 0.074039 0.167066
v -0.005910 0.096273 0.199233
v -0.002131 0.074039 0.167066
v -0.013224 0.089002 0.163019
v 0.003957 0.080091 0.197207
v 0.007419 0.061644 0.196470
v 0.002729 0.056982 0.173251
v 0.003957 0.080091 0.197207
v 0.002729 0.056982 0.173251
v -0.002131 0.074039 0.167066
v -0.011577 0.093004 0.239805
v 0.001402 0.088852 0.235418
v -0.005910 0.096273 0.199233
v -0.011577 0.093004 0.239805
v -0.005910 0.096273 0.199233
v -0.019229 0.100770 0.201933
v 0.001402 0.088852 0.235418
v 0.010042 0.073915 0.227323
v 0.003957 0.080091 0.197207
v 0.001402 0.088852 0.235418
v 0.003957 0.080091 0.197207
v -0.005910 0.096273 0.199233
v 0.010042 0.073915 0.227323
v 0.012106 0.056886 0.219669
v 0.007419 0.061644 0.196470
v 0.010042 0.073915 0.227323
v 0.007419 0.061644 0.196470
v 0.003957 0.080091 0.197207
v -0.005093 0.071042 0.271881
v 0.007597 0.067870 0.266064
v 0.001402 0.088852 0.235418
v -0.005093 0.071042 0.271881
v 0.001402 0.088852 0.235418
v -0.011577 0.093004 0.239805
v 0.007597 0.067870 0.266064
v 0.015198 0.056451 0.252830
v 0.010042 0.073915 0.227323
v 0.007597 0.067870 0.266064
v 0.010042 0.073915 0.227323
v 0.001402 0.088852 0.235418
v 0.015198 0.056451 0.252830
v 0.016078 0.043433 0.239317
v 0.012106 0.056886 0.219669
v 0.015198 0.056451 0.252830
v 0.012106 0.056886 0.219669
v 0.010042 0.073915 0.227323
v -0.000764 0.038230 0.293276
v 0.011733 0.036519 0.286506
v 0.007597 0.067870 0.266064
v -0.000764 0.038230 0.293276
v 0.007597 0.067870 0.266064
v -0.005093 0.071042 0.271881
v 0.011733 0.036519 0.286506
v 0.018640 0.030358 0.269844
v 0.015198 0.056451 0.252830
v 0.011733 0.036519 0.286506
v 0.015198 0.056451 0.252830
v 0.007597 0.067870 0.266064
v 0.018640 0.030358 0.269844
v 0.018730 0.023333 0.252423
v 0.016078 0.043433 0.239317
v 0.018640 0.030358 0.269844
v 0.016078 0.043433 0.239317
v 0.015198 0.056451 0.252830
v 0.000750 -0.000439 0.300734
v 0.013180 -0.000427 0.293632
v 0.011733 0.036519 0.286506
v 0.000750 -0.000439 0.300734
v 0.011733 0.036519 0.286506
v -0.000764 0.038230 0.293276
v 0.013180 -0.000427 0.293632
v 0.019845 -0.000392 0.275775
v 0.018640 0.030358 0.269844
v 0.013180 -0.000427 0.293632
v 0.018640 0.030358 0.269844
v 0.011733 0.036519 0.286506
v 0.019845 -0.000392 0.275775
v 0.019658 -0.000354 0.256992
v 0.018730 0.023333 0.252423
v 0.019845 -0.000392 0.275775
v 0.018730 0.023333 0.252423
v 0.018640 0.030358 0.269844
v -0.000780 -0.039076 0.293120
v 0.011718 -0.037343 0.286357
v 0.013180 -0.000427 0.293632
v -0.000780 -0.039076 0.293120
v 0.013180 -0.000427 0.293632
v 0.000750 -0.000439 0.300734
v 0.011718 -0.037343 0.286357
v 0.018628 -0.031117 0.269720
v 0.019845 -0.000392 0.275775
v 0.011718 -0.037343 0.286357
v 0.019845 -0.000392 0.275775
v 0.013180 -0.000427 0.293632
v 0.018628 -0.031117 0.269720
v 0.018720 -0.024022 0.252328
v 0.019658 -0.000354 0.256992
v 0.018628 -0.031117 0.269720
v 0.019658 -0.000354 0.256992
v 0.019845 -0.000392 0.275775
v -0.005122 -0.071800 0.271592
v 0.007569 -0.068609 0.265789
v 0.011718 -0.037343 0.286357
v -0.005122 -0.071800 0.271592
v 0.011718 -0.037343 0.286357
v -0.000780 -0.039076 0.293120
v 0.007569 -0.068609 0.265789
v 0.015175 -0.057140 0.252601
v 0.018628 -0.031117 0.269720
v 0.007569 -0.068609 0.265789
v 0.018628 -0.031117 0.269720
v 0.011718 -0.037343 0.286357
v 0.015175 -0.057140 0.252601
v 0.016060 -0.044068 0.239141
v 0.018720 -0.024022 0.252328
v 0.015175 -0.057140 0.252601
v 0.018720 -0.024022 0.252328
v 0.018628 -0.031117 0.269720
v -0.011615 -0.093629 0.239429
v 0.001366 -0.089465 0.235058
v 0.007569 -0.068609 0.265789
v -0.011615 -0.093629 0.239429
v 0.007569 -0.068609 0.265789
v -0.005122 -0.071800 0.271592
v 0.001366 -0.089465 0.235058
v 0.010012 -0.074498 0.227024
v 0.015175 -0.057140 0.252601
v 0.001366 -0.089465 0.235058
v 0.015175 -0.057140 0.252601
v 0.007569 -0.068609 0.265789
v 0.010012 -0.074498 0.227024
v 0.012083 -0.057440 0.219438
v 0.016060 -0.044068 0.239141
v 0.010012 -0.074498 0.227024
v 0.016060 -0.044068 0.239141
v 0.015175 -0.057140 0.252601
v -0.019270 -0.101240 0.201525
v -0.005949 -0.096737 0.198844
v 0.001366 -0.089465 0.235058
v -0.019270 -0.101240 0.201525
v 0.001366 -0.089465 0.235058
v -0.011615 -0.093629 0.239429
v -0.005949 -0.096737 0.198844
v 0.003924 -0.080550 0.196883
v 0.010012 -0.074498 0.227024
v -0.005949 -0.096737 0.198844
v 0.010012 -0.074498 0.227024
v 0.001366 -0.089465 0.235058
v 0.003924 -0.080550 0.196883
v 0.007394 -0.062102 0.196220
v 0.012083 -0.057440 0.219438
v 0.003924 -0.080550 0.196883
v 0.012083 -0.057440 0.219438
v 0.010012 -0.074498 0.227024
v 0.002706 -0.057344 0.173020
v -0.001266 -0.043891 0.153372
v -0.003917 -0.023791 0.140266
v 0.002706 -0.057344 0.173020
v -0.003917 -0.023791 0.140266
v -0.004845 -0.000104 0.135697
v 0.002706 -0.057344 0.173020
v -0.004845 -0.000104 0.135697
v -0.003908 0.023564 0.140361
v 0.002706 -0.057344 0.173020
v -0.003908 0.023564 0.140361
v -0.001248 0.043610 0.153549
v 0.002706 -0.057344 0.173020
v -0.001248 0.043610 0.153549
v 0.002729 0.056982 0.173251
v 0.002706 -0.057344 0.173020
v 0.002729 0.056982 0.173251
v 0.007419 0.061644 0.196470
v 0.002706 -0.057344 0.173020
v 0.007419 0.061644 0.196470
v 0.012106 0.056886 0.219669
v 0.002706 -0.057344 0.173020
v 0.012106 0.056886 0.219669
v 0.016078 0.043433 0.239317
v 0.002706 -0.057344 0.173020
v 0.016078 0.043433 0.239317
v 0.018730 0.023333 0.252423
v 0.002706 -0.057344 0.173020
v 0.018730 0.023333 0.252423
v 0.019658 -0.000354 0.256992
v 0.002706 -0.057344 0.173020
v 0.019658 -0.000354 0.256992
v 0.018720 -0.024022 0.252328
v 0.002706 -0.057344 0.173020
v 0.018720 -0.024022 0.252328
v 0.016060 -0.044068 0.239141
v 0.002706 -0.057344 0.173020
v 0.016060 -0.044068 0.239141
v 0.012083 -0.057440 0.219438
v 0.002706 -0.057344 0.173020
v 0.012083 -0.057440 0.219438
v 0.007394 -0.062102 0.196220
v -0.456879 -0.042450 0.272231
v -0.453422 -0.045959 0.289342
v -0.522062 -0.037219 0.303226
v -0.456879 -0.042450 0.272231
v -0.522062 -0.037219 0.303226
v -0.524856 -0.034383 0.289398
v -0.026922 -0.093473 0.163653
v -0.019270 -0.101240 0.201525
v -0.106101 -0.090183 0.219089
v -0.026922 -0.093473 0.163653
v -0.106101 -0.090183 0.219089
v -0.112914 -0.083268 0.185369
v -0.112914 -0.083268 0.185369
v -0.106101 -0.090183 0.219089
v -0.192931 -0.079127 0.236652
v -0.112914 -0.083268 0.185369
v -0.192931 -0.079127 0.236652
v -0.198905 -0.073064 0.207084
v -0.198905 -0.073064 0.207084
v -0.192931 -0.079127 0.236652
v -0.279761 -0.068071 0.254215
v -0.198905 -0.073064 0.207084
v -0.279761 -0.068071 0.254215
v -0.284896 -0.062859 0.228800
v -0.284896 -0.062859 0.228800
v -0.279761 -0.068071 0.254215
v -0.366591 -0.057015 0.271779
v -0.284896 -0.062859 0.228800
v -0.366591 -0.057015 0.271779
v -0.370888 -0.052655 0.250516
v -0.370888 -0.052655 0.250516
v -0.366591 -0.057015 0.271779
v -0.453422 -0.045959 0.289342
v -0.370888 -0.052655 0.250516
v -0.453422 -0.045959 0.289342
v -0.456879 -0.042450 0.272231
v -0.033406 -0.071512 0.131578
v -0.026922 -0.093473 0.163653
v -0.112914 -0.083268 0.185369
v -0.033406 -0.071512 0.131578
v -0.112914 -0.083268 0.185369
v -0.118687 -0.063715 0.156810
v -0.118687 -0.063715 0.156810
v -0.112914 -0.083268 0.185369
v -0.198905 -0.073064 0.207084
v -0.118687 -0.063715 0.156810
v -0.198905 -0.073064 0.207084
v -0.203967 -0.055918 0.182042
v -0.203967 -0.055918 0.182042
v -0.198905 -0.073064 0.207084
v -0.284896 -0.062859 0.228800
v -0.203967 -0.055918 0.182042
v -0.284896 -0.062859 0.228800
v -0.289248 -0.048121 0.207275
v -0.289248 -0.048121 0.207275
v -0.284896 -0.062859 0.228800
v -0.370888 -0.052655 0.250516
v -0.289248 -0.048121 0.207275
v -0.370888 -0.052655 0.250516
v -0.374528 -0.040324 0.232507
v -0.374528 -0.040324 0.232507
v -0.370888 -0.052655 0.250516
v -0.456879 -0.042450 0.272231
v -0.374528 -0.040324 0.232507
v -0.456879 -0.042450 0.272231
v -0.459809 -0.032528 0.257739
v -0.019270 -0.101240 0.201525
v -0.011615 -0.093629 0.239429
v -0.099285 -0.083407 0.252836
v -0.019270 -0.101240 0.201525
v -0.099285 -0.083407 0.252836
v -0.106101 -0.090183 0.219089
v -0.106101 -0.090183 0.219089
v -0.099285 -0.083407 0.252836
v -0.186954 -0.073186 0.266244
v -0.106101 -0.090183 0.219089
v -0.186954 -0.073186 0.266244
v -0.192931 -0.079127 0.236652
v -0.192931 -0.079127 0.236652
v -0.186954 -0.073186 0.266244
v -0.274624 -0.062964 0.279652
v -0.192931 -0.079127 0.236652
v -0.274624 -0.062964 0.279652
v -0.279761 -0.068071 0.254215
v -0.279761 -0.068071 0.254215
v -0.274624 -0.062964 0.279652
v -0.362293 -0.052742 0.293059
v -0.279761 -0.068071 0.254215
v -0.362293 -0.052742 0.293059
v -0.366591 -0.057015 0.271779
v -0.366591 -0.057015 0.271779
v -0.362293 -0.052742 0.293059
v -0.449963 -0.042521 0.306467
v -0.366591 -0.057015 0.271779
v -0.449963 -0.042521 0.306467
v -0.453422 -0.045959 0.289342
v -0.011615 -0.093629 0.239429
v -0.005122 -0.071800 0.271592
v -0.093504 -0.063972 0.281474
v -0.011615 -0.093629 0.239429
v -0.093504 -0.063972 0.281474
v -0.099285 -0.083407 0.252836
v -0.099285 -0.083407 0.252836
v -0.093504 -0.063972 0.281474
v -0.181885 -0.056143 0.291355
v -0.099285 -0.083407 0.252836
v -0.181885 -0.056143 0.291355
v -0.186954 -0.073186 0.266244
v -0.186954 -0.073186 0.266244
v -0.181885 -0.056143 0.291355
v -0.270267 -0.048315 0.301236
v -0.186954 -0.073186 0.266244
v -0.270267 -0.048315 0.301236
v -0.274624 -0.062964 0.279652
v -0.274624 -0.062964 0.279652
v -0.270267 -0.048315 0.301236
v -0.358648 -0.040486 0.311118
v -0.274624 -0.062964 0.279652
v -0.358648 -0.040486 0.311118
v -0.362293 -0.052742 0.293059
v -0.362293 -0.052742 0.293059
v -0.358648 -0.040486 0.311118
v -0.447029 -0.032658 0.320999
v -0.362293 -0.052742 0.293059
v -0.447029 -0.032658 0.320999
v -0.449963 -0.042521 0.306467
v -0.005122 -0.071800 0.271592
v -0.000780 -0.039076 0.293120
v -0.089638 -0.034835 0.300641
v -0.005122 -0.071800 0.271592
v -0.089638 -0.034835 0.300641
v -0.093504 -0.063972 0.281474
v -0.093504 -0.063972 0.281474
v -0.089638 -0.034835 0.300641
v -0.178495 -0.030595 0.308162
v -0.093504 -0.063972 0.281474
v -0.178495 -0.030595 0.308162
v -0.181885 -0.056143 0.291355
v -0.181885 -0.056143 0.291355
v -0.178495 -0.030595 0.308162
v -0.267353 -0.026354 0.315683
v -0.181885 -0.056143 0.291355
v -0.267353 -0.026354 0.315683
v -0.270267 -0.048315 0.301236
v -0.270267 -0.048315 0.301236
v -0.267353 -0.026354 0.315683
v -0.356210 -0.022114 0.323204
v -0.270267 -0.048315 0.301236
v -0.356210 -0.022114 0.323204
v -0.358648 -0.040486 0.311118
v -0.358648 -0.040486 0.311118
v -0.356210 -0.022114 0.323204
v -0.445068 -0.017873 0.330726
v -0.358648 -0.040486 0.311118
v -0.445068 -0.017873 0.330726
v -0.447029 -0.032658 0.320999
v -0.000780 -0.039076 0.293120
v 0.000750 -0.000439 0.300734
v -0.088275 -0.000434 0.307421
v -0.000780 -0.039076 0.293120
v -0.088275 -0.000434 0.307421
v -0.089638 -0.034835 0.300641
v -0.089638 -0.034835 0.300641
v -0.088275 -0.000434 0.307421
v -0.177300 -0.000430 0.314107
v -0.089638 -0.034835 0.300641
v -0.177300 -0.000430 0.314107
v -0.178495 -0.030595 0.308162
v -0.178495 -0.030595 0.308162
v -0.177300 -0.000430 0.314107
v -0.266326 -0.000425 0.320793
v -0.178495 -0.030595 0.308162
v -0.266326 -0.000425 0.320793
v -0.267353 -0.026354 0.315683
v -0.267353 -0.026354 0.315683
v -0.266326 -0.000425 0.320793
v -0.355351 -0.000421 0.327480
v -0.267353 -0.026354 0.315683
v -0.355351 -0.000421 0.327480
v -0.356210 -0.022114 0.323204
v -0.356210 -0.022114 0.323204
v -0.355351 -0.000421 0.327480
v -0.444376 -0.000416 0.334166
v -0.356210 -0.022114 0.323204
v -0.444376 -0.000416 0.334166
v -0.445068 -0.017873 0.330726
v 0.000750 -0.000439 0.300734
v -0.000764 0.038230 0.293276
v -0.089624 0.033995 0.300780
v 0.000750 -0.000439 0.300734
v -0.089624 0.033995 0.300780
v -0.088275 -0.000434 0.307421
v -0.088275 -0.000434 0.307421
v -0.089624 0.033995 0.300780
v -0.178483 0.029760 0.308284
v -0.088275 -0.000434 0.307421
v -0.178483 0.029760 0.308284
v -0.177300 -0.000430 0.314107
v -0.177300 -0.000430 0.314107
v -0.178483 0.029760 0.308284
v -0.267342 0.025525 0.315788
v -0.177300 -0.000430 0.314107
v -0.267342 0.025525 0.315788
v -0.266326 -0.000425 0.320793
v -0.266326 -0.000425 0.320793
v -0.267342 0.025525 0.315788
v -0.356201 0.021290 0.323292
v -0.266326 -0.000425 0.320793
v -0.356201 0.021290 0.323292
v -0.355351 -0.000421 0.327480
v -0.355351 -0.000421 0.327480
v -0.356201 0.021290 0.323292
v -0.445061 0.017055 0.330796
v -0.355351 -0.000421 0.327480
v -0.445061 0.017055 0.330796
v -0.444376 -0.000416 0.334166
v -0.000764 0.038230 0.293276
v -0.005093 0.071042 0.271881
v -0.093478 0.063210 0.281731
v -0.000764 0.038230 0.293276
v -0.093478 0.063210 0.281731
v -0.089624 0.033995 0.300780
v -0.089624 0.033995 0.300780
v -0.093478 0.063210 0.281731
v -0.181863 0.055377 0.291580
v -0.089624 0.033995 0.300780
v -0.181863 0.055377 0.291580
v -0.178483 0.029760 0.308284
v -0.178483 0.029760 0.308284
v -0.181863 0.055377 0.291580
v -0.270247 0.047545 0.301430
v -0.178483 0.029760 0.308284
v -0.270247 0.047545 0.301430
v -0.267342 0.025525 0.315788
v -0.267342 0.025525 0.315788
v -0.270247 0.047545 0.301430
v -0.358632 0.039712 0.311280
v -0.267342 0.025525 0.315788
v -0.358632 0.039712 0.311280
v -0.356201 0.021290 0.323292
v -0.356201 0.021290 0.323292
v -0.358632 0.039712 0.311280
v -0.447016 0.031880 0.321129
v -0.356201 0.021290 0.323292
v -0.447016 0.031880 0.321129
v -0.445061 0.017055 0.330796
v -0.005093 0.071042 0.271881
v -0.011577 0.093004 0.239805
v -0.099251 0.082763 0.253172
v -0.005093 0.071042 0.271881
v -0.099251 0.082763 0.253172
v -0.093478 0.063210 0.281731
v -0.093478 0.063210 0.281731
v -0.099251 0.082763 0.253172
v -0.186925 0.072523 0.266538
v -0.093478 0.063210 0.281731
v -0.186925 0.072523 0.266538
v -0.181863 0.055377 0.291580
v -0.181863 0.055377 0.291580
v -0.186925 0.072523 0.266538
v -0.274599 0.062283 0.279905
v -0.181863 0.055377 0.291580
v -0.274599 0.062283 0.279905
v -0.270247 0.047545 0.301430
v -0.270247 0.047545 0.301430
v -0.274599 0.062283 0.279905
v -0.362272 0.052042 0.293271
v -0.270247 0.047545 0.301430
v -0.362272 0.052042 0.293271
v -0.358632 0.039712 0.311280
v -0.358632 0.039712 0.311280
v -0.362272 0.052042 0.293271
v -0.449946 0.041802 0.306637
v -0.358632 0.039712 0.311280
v -0.449946 0.041802 0.306637
v -0.447016 0.031880 0.321129
v -0.011577 0.093004 0.239805
v -0.019229 0.100770 0.201933
v -0.106064 0.089679 0.219452
v -0.011577 0.093004 0.239805
v -0.106064 0.089679 0.219452
v -0.099251 0.082763 0.253172
v -0.099251 0.082763 0.253172
v -0.106064 0.089679 0.219452
v -0.192899 0.078587 0.236971
v -0.099251 0.082763 0.253172
v -0.192899 0.078587 0.236971
v -0.186925 0.072523 0.266538
v -0.186925 0.072523 0.266538
v -0.192899 0.078587 0.236971
v -0.279734 0.067495 0.254489
v -0.186925 0.072523 0.266538
v -0.279734 0.067495 0.254489
v -0.274599 0.062283 0.279905
v -0.274599 0.062283 0.279905
v -0.279734 0.067495 0.254489
v -0.366569 0.056403 0.272008
v -0.274599 0.062283 0.279905
v -0.366569 0.056403 0.272008
v -0.362272 0.052042 0.293271
v -0.362272 0.052042 0.293271
v -0.366569 0.056403 0.272008
v -0.453403 0.045311 0.289526
v -0.362272 0.052042 0.293271
v -0.453403 0.045311 0.289526
v -0.449946 0.041802 0.306637
v -0.019229 0.100770 0.201933
v -0.026885 0.093160 0.164030
v -0.112880 0.082902 0.185704
v -0.019229 0.100770 0.201933
v -0.112880 0.082902 0.185704
v -0.106064 0.089679 0.219452
v -0.106064 0.089679 0.219452
v -0.112880 0.082902 0.185704
v -0.198876 0.072645 0.207379
v -0.106064 0.089679 0.219452
v -0.198876 0.072645 0.207379
v -0.192899 0.078587 0.236971
v -0.192899 0.078587 0.236971
v -0.198876 0.072645 0.207379
v -0.284871 0.062388 0.229053
v -0.192899 0.078587 0.236971
v -0.284871 0.062388 0.229053
v -0.279734 0.067495 0.254489
v -0.279734 0.067495 0.254489
v -0.284871 0.062388 0.229053
v -0.370867 0.052130 0.250727
v -0.279734 0.067495 0.254489
v -0.370867 0.052130 0.250727
v -0.366569 0.056403 0.272008
v -0.366569 0.056403 0.272008
v -0.370867 0.052130 0.250727
v -0.456862 0.041873 0.272401
v -0.366569 0.056403 0.272008
v -0.456862 0.041873 0.272401
v -0.453403 0.045311 0.289526
v -0.026885 0.093160 0.164030
v -0.033378 0.071331 0.131866
v -0.118661 0.063467 0.157067
v -0.026885 0.093160 0.164030
v -0.118661 0.063467 0.157067
v -0.112880 0.082902 0.185704
v -0.112880 0.082902 0.185704
v -0.118661 0.063467 0.157067
v -0.203945 0.055603 0.182268
v -0.112880 0.082902 0.185704
v -0.203945 0.055603 0.182268
v -0.198876 0.072645 0.207379
v -0.198876 0.072645 0.207379
v -0.203945 0.055603 0.182268
v -0.289228 0.047738 0.207468
v -0.198876 0.072645 0.207379
v -0.289228 0.047738 0.207468
v -0.284871 0.062388 0.229053
v -0.284871 0.062388 0.229053
v -0.289228 0.047738 0.207468
v -0.374512 0.039874 0.232669
v -0.284871 0.062388 0.229053
v -0.374512 0.039874 0.232669
v -0.370867 0.052130 0.250727
v -0.370867 0.052130 0.250727
v -0.374512 0.039874 0.232669
v -0.459795 0.032010 0.257869
v -0.370867 0.052130 0.250727
v -0.459795 0.032010 0.257869
v -0.456862 0.041873 0.272401
v -0.033378 0.071331 0.131866
v -0.037720 0.038607 0.110339
v -0.122527 0.034330 0.137900
v -0.033378 0.071331 0.131866
v -0.122527 0.034330 0.137900
v -0.118661 0.063467 0.157067
v -0.118661 0.063467 0.157067
v -0.122527 0.034330 0.137900
v -0.207335 0.030054 0.165460
v -0.118661 0.063467 0.157067
v -0.207335 0.030054 0.165460
v -0.203945 0.055603 0.182268
v -0.203945 0.055603 0.182268
v -0.207335 0.030054 0.165460
v -0.292142 0.025778 0.193021
v -0.203945 0.055603 0.182268
v -0.292142 0.025778 0.193021
v -0.289228 0.047738 0.207468
v -0.289228 0.047738 0.207468
v -0.292142 0.025778 0.193021
v -0.376950 0.021501 0.220582
v -0.289228 0.047738 0.207468
v -0.376950 0.021501 0.220582
v -0.374512 0.039874 0.232669
v -0.374512 0.039874 0.232669
v -0.376950 0.021501 0.220582
v -0.461757 0.017225 0.248143
v -0.374512 0.039874 0.232669
v -0.461757 0.017225 0.248143
v -0.459795 0.032010 0.257869
v -0.037720 0.038607 0.110339
v -0.039250 -0.000031 0.102724
v -0.123890 -0.000071 0.131120
v -0.037720 0.038607 0.110339
v -0.123890 -0.000071 0.131120
v -0.122527 0.034330 0.137900
v -0.122527 0.034330 0.137900
v -0.123890 -0.000071 0.131120
v -0.208529 -0.000111 0.159516
v -0.122527 0.034330 0.137900
v -0.208529 -0.000111 0.159516
v -0.207335 0.030054 0.165460
v -0.207335 0.030054 0.165460
v -0.208529 -0.000111 0.159516
v -0.293169 -0.000151 0.187911
v -0.207335 0.030054 0.165460
v -0.293169 -0.000151 0.187911
v -0.292142 0.025778 0.193021
v -0.292142 0.025778 0.193021
v -0.293169 -0.000151 0.187911
v -0.377809 -0.000192 0.216307
v -0.292142 0.025778 0.193021
v -0.377809 -0.000192 0.216307
v -0.376950 0.021501 0.220582
v -0.376950 0.021501 0.220582
v -0.377809 -0.000192 0.216307
v -0.462449 -0.000232 0.244703
v -0.376950 0.021501 0.220582
v -0.462449 -0.000232 0.244703
v -0.461757 0.017225 0.248143
v -0.039250 -0.000031 0.102724
v -0.037735 -0.038699 0.110183
v -0.122541 -0.034500 0.137761
v -0.039250 -0.000031 0.102724
v -0.122541 -0.034500 0.137761
v -0.123890 -0.000071 0.131120
v -0.123890 -0.000071 0.131120
v -0.122541 -0.034500 0.137761
v -0.207347 -0.030300 0.165339
v -0.123890 -0.000071 0.131120
v -0.207347 -0.030300 0.165339
v -0.208529 -0.000111 0.159516
v -0.208529 -0.000111 0.159516
v -0.207347 -0.030300 0.165339
v -0.292153 -0.026101 0.192916
v -0.208529 -0.000111 0.159516
v -0.292153 -0.026101 0.192916
v -0.293169 -0.000151 0.187911
v -0.293169 -0.000151 0.187911
v -0.292153 -0.026101 0.192916
v -0.376959 -0.021902 0.220494
v -0.293169 -0.000151 0.187911
v -0.376959 -0.021902 0.220494
v -0.377809 -0.000192 0.216307
v -0.377809 -0.000192 0.216307
v -0.376959 -0.021902 0.220494
v -0.461764 -0.017703 0.248072
v -0.377809 -0.000192 0.216307
v -0.461764 -0.017703 0.248072
v -0.462449 -0.000232 0.244703
v -0.037735 -0.038699 0.110183
v -0.033406 -0.071512 0.131578
v -0.118687 -0.063715 0.156810
v -0.037735 -0.038699 0.110183
v -0.118687 -0.063715 0.156810
v -0.122541 -0.034500 0.137761
v -0.122541 -0.034500 0.137761
v -0.118687 -0.063715 0.156810
v -0.203967 -0.055918 0.182042
v -0.122541 -0.034500 0.137761
v -0.203967 -0.055918 0.182042
v -0.207347 -0.030300 0.165339
v -0.207347 -0.030300 0.165339
v -0.203967 -0.055918 0.182042
v -0.289248 -0.048121 0.207275
v -0.207347 -0.030300 0.165339
v -0.289248 -0.048121 0.207275
v -0.292153 -0.026101 0.192916
v -0.292153 -0.026101 0.192916
v -0.289248 -0.048121 0.207275
v -0.374528 -0.040324 0.232507
v -0.292153 -0.026101 0.192916
v -0.374528 -0.040324 0.232507
v -0.376959 -0.021902 0.220494
v -0.376959 -0.021902 0.220494
v -0.374528 -0.040324 0.232507
v -0.459809 -0.032528 0.257739
v -0.376959 -0.021902 0.220494
v -0.459809 -0.032528 0.257739
v -0.461764 -0.017703 0.248072
f 1 2 3
f 4 5 6
f 7 8 9
f 10 11 12
f 13 14 15
f 16 17 18
f 19 20 21
f 22 23 24
f 25 26 27
f 28 29 30
f 31 32 33
f 34 35 36
f 37 38 39
f 40 41 42
f 43 44 45
f 46 47 48
f 49 50 51
f 52 53 54
f 55 56 57
f 58 59 60
f 61 62 63
f 64 65 66
f 67 68 69
f 70 71 72
f 73 74 75
f 76 77 78
f 79 80 81
f 82 83 84
f 85 86 87
f 88 89 90
f 91 92 93
f 94 95 96
f 97 98 99
f 100 101 102
f 103 104 105
f 106 107 108
f 109 110 111
f 112 113 114
f 115 116 117
f 118 119 120
f 121 122 123
f 124 125 126
f 127 128 129
f 130 131 132
f 133 134 135
f 136 137 138
f 139 140 141
f 142 143 144
f 145 146 147
f 148 149 150
f 151 152 153
f 154 155 156
f 157 158 159
f 160 161 162
f 163 164 165
f 166 167 168
f 169 170 171
f 172 173 174
f 175 176 177
f 178 179 180
f 181 182 183
f 184 185 186
f 187 188 189
f 190 191 192
f 193 194 195
f 196 197 198
f 199 200 201
f 202 203 204
f 205 206 207
f 208 209 210
f 211 212 213
f 214 215 216
f 217 218 219
f 220 221 222
f 223 224 225
f 226 227 228
f 229 230 231
f 232 233 234
f 235 236 237
f 238 239 240
f 241 242 243
f 244 245 246
f 247 248 249
f 250 251 252
f 253 254 255
f 256 257 258
f 259 260 261
f 262 263 264
f 265 266 267
f 268 269 270
f 271 272 273
f 274 275 276
f 277 278 279
f 280 281 282
f 283 284 285
f 286 287 288
f 289 290 291
f 292 293 294
f 295 296 297
f 298 299 300
f 301 302 303
f 304 305 306
f 307 308 309
f 310 311 312
f 313 314 315
f 316 317 318
f 319 320 321
f 322 323 324
f 325 326 327
f 328 329 330
f 331 332 333
f 334 335 336
f 337 338 339
f 340 341 342
f 343 344 345
f 346 347 348
f 349 350 351
f 352 353 354
f 355 356 357
f 358 359 360
f 361 362 363
f 364 365 366
f 367 368 369
f 370 371 372
f 373 374 375
f 376 377 378
f 379 380 381
f 382 383 384
f 385 386 387
f 388 389 390
f 391 392 393
f 394 395 396
f 397 398 399
f 400 401 402
f 403 404 405
f 406 407 408
f 409 410 411
f 412 413 414
f 415 416 417
f 418 419 420
f 421 422 423
f 424 425 426
f 427 428 429
f 430 431 432
f 433 434 435
f 436 437 438
f 439 440 441
f 442 443 444
f 445 446 447
f 448 449 450
f 451 452 453
f 454 455 456
f 457 458 459
f 460 461 462
f 463 464 465
f 466 467 468
f 469 470 471
f 472 473 474
f 475 476 477
f 478 479 480
f 481 482 483
f 484 485 486
f 487 488 489
f 490 491 492
f 493 494 495
f 496 497 498
f 499 500 501
f 502 503 504
f 505 506 507
f 508 509 510
f 511 512 513
f 514 515 516
f 517 518 519
f 520 521 522
f 523 524 525
f 526 527 528
f 529 530 531
f 532 533 534
f 535 536 537
f 538 539 540
f 541 542 543
f 544 545 546
f 547 548 549
f 550 551 552
f 553 554 555
f 556 557 558
f 559 560 561
f 562 563 564
f 565 566 567
f 568 569 570
f 571 572 573
f 574 575 576
f 577 578 579
f 580 581 582
f 583 584 585
f 586 587 588
f 589 590 591
f 592 593 594
f 595 596 597
f 598 599 600
f 601 602 603
f 604 605 606
f 607 608 609
f 610 611 612
f 613 614 615
f 616 617 618
f 619 620 621
f 622 623 624
f 625 626 627
f 628 629 630
f 631 632 633
f 634 635 636
f 637 638 639
f 640 641 642
f 643 644 645
f 646 647 648
f 649 650 651
f 652 653 654
f 655 656 657
f 658 659 660
f 661 662 663
f 664 665 666
f 667 668 669
f 670 671 672
f 673 674 675
f 676 677 678
f 679 680 681
f 682 683 684
f 685 686 687
f 688 689 690
f 691 692 693
f 694 695 696
f 697 698 699
f 700 701 702
f 703 704 705
f 706 707 708
f 709 710 711
f 712 713 714
f 715 716 717
f 718 719 720
f 721 722 723
f 724 725 726
f 727 728 729
f 730 731 732
f 733 734 735
f 736 737 738
f 739 740 741
f 742 743 744
f 745 746 747
f 748 749 750
f 751 752 753
f 754 755 756
f 757 758 759
f 760 761 762
f 763 764 765
f 766 767 768
f 769 770 771
f 772 773 774
f 775 776 777
f 778 779 780
f 781 782 783
f 784 785 786
f 787 788 789
f 790 791 792
f 793 794 795
f 796 797 798
f 799 800 801
f 802 803 804
f 805 806 807
f 808 809 810
f 811 812 813
f 814 815 816
f 817 818 819
f 820 821 822
f 823 824 825
f 826 827 828
f 829 830 831
f 832 833 834
f 835 836 837
f 838 839 840
f 841 842 843
f 844 845 846
f 847 848 849
f 850 851 852
f 853 854 855
f 856 857 858
f 859 860 861
f 862 863 864
f 865 866 867
f 868 869 870
f 871 872 873
f 874 875 876
f 877 878 879
f 880 881 882
f 883 884 885
f 886 887 888
f 889 890 891
f 892 893 894
f 895 896 897
f 898 899 900
f 901 902 903
f 904 905 906
f 907 908 909
f 910 911 912
f 913 914 915
f 916 917 918
f 919 920 921
f 922 923 924
f 925 926 927
f 928 929 930
f 931 932 933
f 934 935 936
f 937 938 939
f 940 941 942
f 943 944 945
f 946 947 948
f 949 950 951
f 952 953 954
f 955 956 957
f 958 959 960
f 961 962 963
f 964 965 966
f 967 968 969
f 970 971 972
f 973 974 975
f 976 977 978
f 979 980 981
f 982 983 984
f 985 986 987
f 988 989 990
f 991 992 993
f 994 995 996
f 997 998 999
f 1000 1001 1002
f 1003 1004 1005
f 1006 1007 1008
f 1009 1010 1011
f 1012 1013 1014
f 1015 1016 1017
f 1018 1019 1020
f 1021 1022 1023
f 1024 1025 1026
f 1027 1028 1029
f 1030 1031 1032
f 1033 1034 1035
f 1036 1037 1038
f 1039 1040 1041
f 1042 1043 1044
f 1045 1046 1047
f 1048 1049 1050
f 1051 1052 1053
f 1054 1055 1056
f 1057 1058 1059
f 1060 1061 1062
f 1063 1064 1065
f 1066 1067 1068
f 1069 1070 1071
f 1072 1073 1074
f 1075 1076 1077
f 1078 1079 1080
f 1081 1082 1083
f 1084 1085 1086
f 1087 1088 1089
f 1090 1091 1092
f 1093 1094 1095
f 1096 1097 1098
f 1099 1100 1101
f 1102 1103 1104
f 1105 1106 1107
f 1108 1109 1110
f 1111 1112 1113
f 1114 1115 1116
f 1117 1118 1119
f 1120 1121 1122
f 1123 1124 1125
f 1126 1127 1128
f 1129 1130 1131
f 1132 1133 1134
f 1135 1136 1137
f 1138 1139 1140
f 1141 1142 1143
f 1144 1145 1146
f 1147 1148 1149
f 1150 1151 1152
f 1153 1154 1155
f 1156 1157 1158
f 1159 1160 1161
f 1162 1163 1164
f 1165 1166 1167
f 1168 1169 1170
f 1171 1172 1173
f 1174 1175 1176
f 1177 1178 1179
f 1180 1181 1182
f 1183 1184 1185
f 1186 1187 1188
f 1189 1190 1191
f 1192 1193 1194
f 1195 1196 1197
f 1198 1199 1200
f 1201 1202 1203
f 1204 1205 1206
f 1207 1208 1209
f 1210 1211 1212
f 1213 1214 1215
f 1216 1217 1218
f 1219 1220 1221
f 1222 1223 1224
f 1225 1226 1227
f 1228 1229 1230
f 1231 1232 1233
f 1234 1235 1236
