# lizard mesh
v -0.109444 -0.062425 -0.132443
v -0.102421 -0.115663 -0.097729
v -0.500020 -0.098779 -0.000031
v -0.109444 -0.062425 -0.132443
v -0.500020 -0.098779 -0.000031
v -0.506013 -0.053351 -0.029652
v -0.491043 -0.129184 0.044377
v -0.480449 -0.139937 0.096809
v -0.499578 -0.125101 0.100704
v -0.491043 -0.129184 0.044377
v -0.499578 -0.125101 0.100704
v -0.509048 -0.115490 0.053835
v -0.509048 -0.115490 0.053835
v -0.499578 -0.125101 0.100704
v -0.512357 -0.104141 0.103329
v -0.509048 -0.115490 0.053835
v -0.512357 -0.104141 0.103329
v -0.520239 -0.096141 0.064320
v -0.520239 -0.096141 0.064320
v -0.512357 -0.104141 0.103329
v -0.516842 -0.080247 0.104284
v -0.520239 -0.096141 0.064320
v -0.516842 -0.080247 0.104284
v -0.522913 -0.074085 0.074235
v -0.111902 0.000315 -0.144544
v -0.109444 -0.062425 -0.132443
v -0.506013 -0.053351 -0.029652
v -0.111902 0.000315 -0.144544
v -0.506013 -0.053351 -0.029652
v -0.508110 0.000184 -0.039978
v -0.500020 -0.098779 -0.000031
v -0.491043 -0.129184 0.044377
v -0.509048 -0.115490 0.053835
v -0.500020 -0.098779 -0.000031
v -0.509048 -0.115490 0.053835
v -0.517072 -0.088311 0.014141
v -0.517072 -0.088311 0.014141
v -0.509048 -0.115490 0.053835
v -0.520239 -0.096141 0.064320
v -0.517072 -0.088311 0.014141
v -0.520239 -0.096141 0.064320
v -0.526918 -0.073521 0.031282
v -0.526918 -0.073521 0.031282
v -0.520239 -0.096141 0.064320
v -0.522913 -0.074085 0.074235
v -0.526918 -0.073521 0.031282
v -0.522913 -0.074085 0.074235
v -0.528058 -0.056660 0.048785
v -0.109419 0.063005 -0.132190
v -0.111902 0.000315 -0.144544
v -0.508110 0.000184 -0.039978
v -0.109419 0.063005 -0.132190
v -0.508110 0.000184 -0.039978
v -0.505991 0.053676 -0.029436
v -0.506013 -0.053351 -0.029652
v -0.500020 -0.098779 -0.000031
v -0.517072 -0.088311 0.014141
v -0.506013 -0.053351 -0.029652
v -0.517072 -0.088311 0.014141
v -0.522429 -0.047704 -0.012337
v -0.522429 -0.047704 -0.012337
v -0.517072 -0.088311 0.014141
v -0.526918 -0.073521 0.031282
v -0.522429 -0.047704 -0.012337
v -0.526918 -0.073521 0.031282
v -0.531377 -0.039724 0.009245
v -0.531377 -0.039724 0.009245
v -0.526918 -0.073521 0.031282
v -0.528058 -0.056660 0.048785
v -0.531377 -0.039724 0.009245
v -0.528058 -0.056660 0.048785
v -0.531492 -0.030625 0.031809
v -0.102374 0.116100 -0.097261
v -0.109419 0.063005 -0.132190
v -0.505991 0.053676 -0.029436
v -0.102374 0.116100 -0.097261
v -0.505991 0.053676 -0.029436
v -0.499980 0.098981 0.000369
v -0.508110 0.000184 -0.039978
v -0.506013 -0.053351 -0.029652
v -0.522429 -0.047704 -0.012337
v -0.508110 0.000184 -0.039978
v -0.522429 -0.047704 -0.012337
v -0.524304 0.000150 -0.021567
v -0.524304 0.000150 -0.021567
v -0.522429 -0.047704 -0.012337
v -0.531377 -0.039724 0.009245
v -0.524304 0.000150 -0.021567
v -0.531377 -0.039724 0.009245
v -0.532937 0.000105 0.001563
v -0.532937 0.000105 0.001563
v -0.531377 -0.039724 0.009245
v -0.531492 -0.030625 0.031809
v -0.532937 0.000105 0.001563
v -0.531492 -0.030625 0.031809
v -0.532694 0.000056 0.025891
v -0.091839 0.151517 -0.045075
v -0.102374 0.116100 -0.097261
v -0.499980 0.098981 0.000369
v -0.091839 0.151517 -0.045075
v -0.499980 0.098981 0.000369
v -0.490991 0.129203 0.044898
v -0.505991 0.053676 -0.029436
v -0.508110 0.000184 -0.039978
v -0.524304 0.000150 -0.021567
v -0.505991 0.053676 -0.029436
v -0.524304 0.000150 -0.021567
v -0.522410 0.047966 -0.012144
v -0.522410 0.047966 -0.012144
v -0.524304 0.000150 -0.021567
v -0.532937 0.000105 0.001563
v -0.522410 0.047966 -0.012144
v -0.532937 0.000105 0.001563
v -0.531361 0.039902 0.009406
v -0.531361 0.039902 0.009406
v -0.532937 0.000105 0.001563
v -0.532694 0.000056 0.025891
v -0.531361 0.039902 0.009406
v -0.532694 0.000056 0.025891
v -0.531480 0.030712 0.031933
v -0.079419 0.163865 0.016423
v -0.091839 0.151517 -0.045075
v -0.490991 0.129203 0.044898
v -0.079419 0.163865 0.016423
v -0.490991 0.129203 0.044898
v -0.480392 0.139739 0.097374
v -0.499980 0.098981 0.000369
v -0.505991 0.053676 -0.029436
v -0.522410 0.047966 -0.012144
v -0.499980 0.098981 0.000369
v -0.522410 0.047966 -0.012144
v -0.517036 0.088463 0.014498
v -0.517036 0.088463 0.014498
v -0.522410 0.047966 -0.012144
v -0.531361 0.039902 0.009406
v -0.517036 0.088463 0.014498
v -0.531361 0.039902 0.009406
v -0.526888 0.073608 0.031580
v -0.526888 0.073608 0.031580
v -0.531361 0.039902 0.009406
v -0.531480 0.030712 0.031933
v -0.526888 0.073608 0.031580
v -0.531480 0.030712 0.031933
v -0.528035 0.056677 0.049014
v -0.067003 0.151264 0.077871
v -0.079419 0.163865 0.016423
v -0.480392 0.139739 0.097374
v -0.067003 0.151264 0.077871
v -0.480392 0.139739 0.097374
v -0.469798 0.128987 0.149807
v -0.490991 0.129203 0.044898
v -0.499980 0.098981 0.000369
v -0.517036 0.088463 0.014498
v -0.490991 0.129203 0.044898
v -0.517036 0.088463 0.014498
v -0.509001 0.115478 0.054302
v -0.509001 0.115478 0.054302
v -0.517036 0.088463 0.014498
v -0.526888 0.073608 0.031580
v -0.509001 0.115478 0.054302
v -0.526888 0.073608 0.031580
v -0.520201 0.096092 0.064709
v -0.520201 0.096092 0.064709
v -0.526888 0.073608 0.031580
v -0.528035 0.056677 0.049014
v -0.520201 0.096092 0.064709
v -0.528035 0.056677 0.049014
v -0.522883 0.073996 0.074534
v -0.056483 0.115632 0.129913
v -0.067003 0.151264 0.077871
v -0.469798 0.128987 0.149807
v -0.056483 0.115632 0.129913
v -0.469798 0.128987 0.149807
v -0.460821 0.098582 0.194214
v -0.480392 0.139739 0.097374
v -0.490991 0.129203 0.044898
v -0.509001 0.115478 0.054302
v -0.480392 0.139739 0.097374
v -0.509001 0.115478 0.054302
v -0.499527 0.124896 0.101209
v -0.499527 0.124896 0.101209
v -0.509001 0.115478 0.054302
v -0.520201 0.096092 0.064709
v -0.499527 0.124896 0.101209
v -0.520201 0.096092 0.064709
v -0.512316 0.103931 0.103749
v -0.512316 0.103931 0.103749
v -0.520201 0.096092 0.064709
v -0.522883 0.073996 0.074534
v -0.512316 0.103931 0.103749
v -0.522883 0.073996 0.074534
v -0.516809 0.080035 0.104608
v -0.049459 0.062393 0.164628
v -0.056483 0.115632 0.129913
v -0.460821 0.098582 0.194214
v -0.049459 0.062393 0.164628
v -0.460821 0.098582 0.194214
v -0.454828 0.053154 0.223835
v -0.469798 0.128987 0.149807
v -0.480392 0.139739 0.097374
v -0.499527 0.124896 0.101209
v -0.469798 0.128987 0.149807
v -0.499527 0.124896 0.101209
v -0.490058 0.115285 0.148077
v -0.490058 0.115285 0.148077
v -0.499527 0.124896 0.101209
v -0.512316 0.103931 0.103749
v -0.490058 0.115285 0.148077
v -0.512316 0.103931 0.103749
v -0.504434 0.095931 0.142757
v -0.504434 0.095931 0.142757
v -0.512316 0.103931 0.103749
v -0.516809 0.080035 0.104608
v -0.504434 0.095931 0.142757
v -0.516809 0.080035 0.104608
v -0.510738 0.073873 0.134657
v -0.047002 -0.000347 0.176729
v -0.049459 0.062393 0.164628
v -0.454828 0.053154 0.223835
v -0.047002 -0.000347 0.176729
v -0.454828 0.053154 0.223835
v -0.452731 -0.000381 0.234161
v -0.460821 0.098582 0.194214
v -0.469798 0.128987 0.149807
v -0.490058 0.115285 0.148077
v -0.460821 0.098582 0.194214
v -0.490058 0.115285 0.148077
v -0.482033 0.088106 0.187772
v -0.482033 0.088106 0.187772
v -0.490058 0.115285 0.148077
v -0.504434 0.095931 0.142757
v -0.482033 0.088106 0.187772
v -0.504434 0.095931 0.142757
v -0.497755 0.073311 0.175795
v -0.497755 0.073311 0.175795
v -0.504434 0.095931 0.142757
v -0.510738 0.073873 0.134657
v -0.497755 0.073311 0.175795
v -0.510738 0.073873 0.134657
v -0.505593 0.056448 0.160106
v -0.049485 -0.063036 0.164374
v -0.047002 -0.000347 0.176729
v -0.452731 -0.000381 0.234161
v -0.049485 -0.063036 0.164374
v -0.452731 -0.000381 0.234161
v -0.454850 -0.053873 0.223619
v -0.454828 0.053154 0.223835
v -0.460821 0.098582 0.194214
v -0.482033 0.088106 0.187772
v -0.454828 0.053154 0.223835
v -0.482033 0.088106 0.187772
v -0.476676 0.047499 0.214250
v -0.476676 0.047499 0.214250
v -0.482033 0.088106 0.187772
v -0.497755 0.073311 0.175795
v -0.476676 0.047499 0.214250
v -0.497755 0.073311 0.175795
v -0.493296 0.039514 0.197833
v -0.493296 0.039514 0.197833
v -0.497755 0.073311 0.175795
v -0.505593 0.056448 0.160106
v -0.493296 0.039514 0.197833
v -0.505593 0.056448 0.160106
v -0.502159 0.030413 0.177082
v -0.056530 -0.116132 0.129445
v -0.049485 -0.063036 0.164374
v -0.454850 -0.053873 0.223619
v -0.056530 -0.116132 0.129445
v -0.454850 -0.053873 0.223619
v -0.460861 -0.099179 0.193814
v -0.452731 -0.000381 0.234161
v -0.454828 0.053154 0.223835
v -0.476676 0.047499 0.214250
v -0.452731 -0.000381 0.234161
v -0.476676 0.047499 0.214250
v -0.474802 -0.000355 0.223480
v -0.474802 -0.000355 0.223480
v -0.476676 0.047499 0.214250
v -0.493296 0.039514 0.197833
v -0.474802 -0.000355 0.223480
v -0.493296 0.039514 0.197833
v -0.491736 -0.000315 0.205515
v -0.491736 -0.000315 0.205515
v -0.493296 0.039514 0.197833
v -0.502159 0.030413 0.177082
v -0.491736 -0.000315 0.205515
v -0.502159 0.030413 0.177082
v -0.500957 -0.000268 0.183000
v -0.067064 -0.151549 0.077259
v -0.056530 -0.116132 0.129445
v -0.460861 -0.099179 0.193814
v -0.067064 -0.151549 0.077259
v -0.460861 -0.099179 0.193814
v -0.469850 -0.129400 0.149285
v -0.454850 -0.053873 0.223619
v -0.452731 -0.000381 0.234161
v -0.474802 -0.000355 0.223480
v -0.454850 -0.053873 0.223619
v -0.474802 -0.000355 0.223480
v -0.476695 -0.048171 0.214057
v -0.476695 -0.048171 0.214057
v -0.474802 -0.000355 0.223480
v -0.491736 -0.000315 0.205515
v -0.476695 -0.048171 0.214057
v -0.491736 -0.000315 0.205515
v -0.493312 -0.040112 0.197672
v -0.493312 -0.040112 0.197672
v -0.491736 -0.000315 0.205515
v -0.500957 -0.000268 0.183000
v -0.493312 -0.040112 0.197672
v -0.500957 -0.000268 0.183000
v -0.502171 -0.030924 0.176958
v -0.079485 -0.163897 0.015761
v -0.067064 -0.151549 0.077259
v -0.469850 -0.129400 0.149285
v -0.079485 -0.163897 0.015761
v -0.469850 -0.129400 0.149285
v -0.480449 -0.139937 0.096809
v -0.460861 -0.099179 0.193814
v -0.454850 -0.053873 0.223619
v -0.476695 -0.048171 0.214057
v -0.460861 -0.099179 0.193814
v -0.476695 -0.048171 0.214057
v -0.482069 -0.088668 0.187415
v -0.482069 -0.088668 0.187415
v -0.476695 -0.048171 0.214057
v -0.493312 -0.040112 0.197672
v -0.482069 -0.088668 0.187415
v -0.493312 -0.040112 0.197672
v -0.497785 -0.073818 0.175498
v -0.497785 -0.073818 0.175498
v -0.493312 -0.040112 0.197672
v -0.502171 -0.030924 0.176958
v -0.497785 -0.073818 0.175498
v -0.502171 -0.030924 0.176958
v -0.505616 -0.056889 0.159877
v -0.469850 -0.129400 0.149285
v -0.460861 -0.099179 0.193814
v -0.482069 -0.088668 0.187415
v -0.469850 -0.129400 0.149285
v -0.482069 -0.088668 0.187415
v -0.490104 -0.115683 0.147611
v -0.490104 -0.115683 0.147611
v -0.482069 -0.088668 0.187415
v -0.497785 -0.073818 0.175498
v -0.490104 -0.115683 0.147611
v -0.497785 -0.073818 0.175498
v -0.504472 -0.096302 0.142369
v -0.504472 -0.096302 0.142369
v -0.497785 -0.073818 0.175498
v -0.505616 -0.056889 0.159877
v -0.504472 -0.096302 0.142369
v -0.505616 -0.056889 0.159877
v -0.510768 -0.074209 0.134358
v -0.480449 -0.139937 0.096809
v -0.469850 -0.129400 0.149285
v -0.490104 -0.115683 0.147611
v -0.480449 -0.139937 0.096809
v -0.490104 -0.115683 0.147611
v -0.499578 -0.125101 0.100704
v -0.499578 -0.125101 0.100704
v -0.490104 -0.115683 0.147611
v -0.504472 -0.096302 0.142369
v -0.499578 -0.125101 0.100704
v -0.504472 -0.096302 0.142369
v -0.512357 -0.104141 0.103329
v -0.512357 -0.104141 0.103329
v -0.504472 -0.096302 0.142369
v -0.510768 -0.074209 0.134358
v -0.512357 -0.104141 0.103329
v -0.510768 -0.074209 0.134358
v -0.516842 -0.080247 0.104284
v -0.102421 -0.115663 -0.097729
v -0.091901 -0.151296 -0.045687
v -0.491043 -0.129184 0.044377
v -0.102421 -0.115663 -0.097729
v -0.491043 -0.129184 0.044377
v -0.500020 -0.098779 -0.000031
v -0.522913 -0.074085 0.074235
v -0.516842 -0.080247 0.104284
v -0.510768 -0.074209 0.134358
v -0.522913 -0.074085 0.074235
v -0.510768 -0.074209 0.134358
v -0.505616 -0.056889 0.159877
v -0.522913 -0.074085 0.074235
v -0.505616 -0.056889 0.159877
v -0.502171 -0.030924 0.176958
v -0.522913 -0.074085 0.074235
v -0.502171 -0.030924 0.176958
v -0.500957 -0.000268 0.183000
v -0.522913 -0.074085 0.074235
v -0.500957 -0.000268 0.183000
v -0.502159 0.030413 0.177082
v -0.522913 -0.074085 0.074235
v -0.502159 0.030413 0.177082
v -0.505593 0.056448 0.160106
v -0.522913 -0.074085 0.074235
v -0.505593 0.056448 0.160106
v -0.510738 0.073873 0.134657
v -0.522913 -0.074085 0.074235
v -0.510738 0.073873 0.134657
v -0.516809 0.080035 0.104608
v -0.522913 -0.074085 0.074235
v -0.516809 0.080035 0.104608
v -0.522883 0.073996 0.074534
v -0.522913 -0.074085 0.074235
v -0.522883 0.073996 0.074534
v -0.528035 0.056677 0.049014
v -0.522913 -0.074085 0.074235
v -0.528035 0.056677 0.049014
v -0.531480 0.030712 0.031933
v -0.522913 -0.074085 0.074235
v -0.531480 0.030712 0.031933
v -0.532694 0.000056 0.025891
v -0.522913 -0.074085 0.074235
v -0.532694 0.000056 0.025891
v -0.531492 -0.030625 0.031809
v -0.522913 -0.074085 0.074235
v -0.531492 -0.030625 0.031809
v -0.528058 -0.056660 0.048785
v -0.091901 -0.151296 -0.045687
v -0.069733 -0.144551 -0.047300
v -0.057870 -0.156591 0.011410
v -0.091901 -0.151296 -0.045687
v -0.057870 -0.156591 0.011410
v -0.079485 -0.163897 0.015761
v -0.069733 -0.144551 -0.047300
v -0.051724 -0.120308 -0.040636
v -0.041851 -0.130329 0.008228
v -0.069733 -0.144551 -0.047300
v -0.041851 -0.130329 0.008228
v -0.057870 -0.156591 0.011410
v -0.051724 -0.120308 -0.040636
v -0.043828 -0.092676 -0.030489
v -0.036222 -0.100396 0.007152
v -0.051724 -0.120308 -0.040636
v -0.036222 -0.100396 0.007152
v -0.041851 -0.130329 0.008228
v -0.102421 -0.115663 -0.097729
v -0.079784 -0.110506 -0.097024
v -0.069733 -0.144551 -0.047300
v -0.102421 -0.115663 -0.097729
v -0.069733 -0.144551 -0.047300
v -0.091901 -0.151296 -0.045687
v -0.079784 -0.110506 -0.097024
v -0.060090 -0.091973 -0.082021
v -0.051724 -0.120308 -0.040636
v -0.079784 -0.110506 -0.097024
v -0.051724 -0.120308 -0.040636
v -0.069733 -0.144551 -0.047300
v -0.060090 -0.091973 -0.082021
v -0.050272 -0.070849 -0.062368
v -0.043828 -0.092676 -0.030489
v -0.060090 -0.091973 -0.082021
v -0.043828 -0.092676 -0.030489
v -0.051724 -0.120308 -0.040636
v -0.109444 -0.062425 -0.132443
v -0.086495 -0.059640 -0.130191
v -0.079784 -0.110506 -0.097024
v -0.109444 -0.062425 -0.132443
v -0.079784 -0.110506 -0.097024
v -0.102421 -0.115663 -0.097729
v -0.086495 -0.059640 -0.130191
v -0.065676 -0.049637 -0.109626
v -0.060090 -0.091973 -0.082021
v -0.086495 -0.059640 -0.130191
v -0.060090 -0.091973 -0.082021
v -0.079784 -0.110506 -0.097024
v -0.065676 -0.049637 -0.109626
v -0.054574 -0.038237 -0.083633
v -0.050272 -0.070849 -0.062368
v -0.065676 -0.049637 -0.109626
v -0.050272 -0.070849 -0.062368
v -0.060090 -0.091973 -0.082021
v -0.111902 0.000315 -0.144544
v -0.088843 0.000305 -0.141753
v -0.086495 -0.059640 -0.130191
v -0.111902 0.000315 -0.144544
v -0.086495 -0.059640 -0.130191
v -0.109444 -0.062425 -0.132443
v -0.088843 0.000305 -0.141753
v -0.067630 0.000255 -0.119249
v -0.065676 -0.049637 -0.109626
v -0.088843 0.000305 -0.141753
v -0.065676 -0.049637 -0.109626
v -0.086495 -0.059640 -0.130191
v -0.067630 0.000255 -0.119249
v -0.056080 0.000196 -0.091046
v -0.054574 -0.038237 -0.083633
v -0.067630 0.000255 -0.119249
v -0.054574 -0.038237 -0.083633
v -0.065676 -0.049637 -0.109626
v -0.109419 0.063005 -0.132190
v -0.086471 0.060201 -0.129949
v -0.088843 0.000305 -0.141753
v -0.109419 0.063005 -0.132190
v -0.088843 0.000305 -0.141753
v -0.111902 0.000315 -0.144544
v -0.086471 0.060201 -0.129949
v -0.065656 0.050106 -0.109425
v -0.067630 0.000255 -0.119249
v -0.086471 0.060201 -0.129949
v -0.067630 0.000255 -0.119249
v -0.088843 0.000305 -0.141753
v -0.065656 0.050106 -0.109425
v -0.054559 0.038597 -0.083478
v -0.056080 0.000196 -0.091046
v -0.065656 0.050106 -0.109425
v -0.056080 0.000196 -0.091046
v -0.067630 0.000255 -0.119249
v -0.102374 0.116100 -0.097261
v -0.079740 0.110931 -0.096577
v -0.086471 0.060201 -0.129949
v -0.102374 0.116100 -0.097261
v -0.086471 0.060201 -0.129949
v -0.109419 0.063005 -0.132190
v -0.079740 0.110931 -0.096577
v -0.060053 0.092328 -0.081649
v -0.065656 0.050106 -0.109425
v -0.079740 0.110931 -0.096577
v -0.065656 0.050106 -0.109425
v -0.086471 0.060201 -0.129949
v -0.060053 0.092328 -0.081649
v -0.050243 0.071122 -0.062081
v -0.054559 0.038597 -0.083478
v -0.060053 0.092328 -0.081649
v -0.054559 0.038597 -0.083478
v -0.065656 0.050106 -0.109425
v -0.091839 0.151517 -0.045075
v -0.069674 0.144770 -0.046716
v -0.079740 0.110931 -0.096577
v -0.091839 0.151517 -0.045075
v -0.079740 0.110931 -0.096577
v -0.102374 0.116100 -0.097261
v -0.069674 0.144770 -0.046716
v -0.051676 0.120493 -0.040150
v -0.060053 0.092328 -0.081649
v -0.069674 0.144770 -0.046716
v -0.060053 0.092328 -0.081649
v -0.079740 0.110931 -0.096577
v -0.051676 0.120493 -0.040150
v -0.043790 0.092818 -0.030114
v -0.050243 0.071122 -0.062081
v -0.051676 0.120493 -0.040150
v -0.050243 0.071122 -0.062081
v -0.060053 0.092328 -0.081649
v -0.079419 0.163865 0.016423
v -0.057807 0.156568 0.012042
v -0.069674 0.144770 -0.046716
v -0.079419 0.163865 0.016423
v -0.069674 0.144770 -0.046716
v -0.091839 0.151517 -0.045075
v -0.057807 0.156568 0.012042
v -0.041799 0.130312 0.008754
v -0.051676 0.120493 -0.040150
v -0.057807 0.156568 0.012042
v -0.051676 0.120493 -0.040150
v -0.069674 0.144770 -0.046716
v -0.041799 0.130312 0.008754
v -0.036182 0.100382 0.007558
v -0.043790 0.092818 -0.030114
v -0.041799 0.130312 0.008754
v -0.043790 0.092818 -0.030114
v -0.051676 0.120493 -0.040150
v -0.067003 0.151264 0.077871
v -0.045944 0.144528 0.070752
v -0.057807 0.156568 0.012042
v -0.067003 0.151264 0.077871
v -0.057807 0.156568 0.012042
v -0.079419 0.163865 0.016423
v -0.045944 0.144528 0.070752
v -0.031926 0.120292 0.057618
v -0.041799 0.130312 0.008754
v -0.045944 0.144528 0.070752
v -0.041799 0.130312 0.008754
v -0.057807 0.156568 0.012042
v -0.031926 0.120292 0.057618
v -0.028576 0.092662 0.045199
v -0.036182 0.100382 0.007558
v -0.031926 0.120292 0.057618
v -0.036182 0.100382 0.007558
v -0.041799 0.130312 0.008754
v -0.056483 0.115632 0.129913
v -0.035893 0.110483 0.120476
v -0.045944 0.144528 0.070752
v -0.056483 0.115632 0.129913
v -0.045944 0.144528 0.070752
v -0.067003 0.151264 0.077871
v -0.035893 0.110483 0.120476
v -0.023560 0.091956 0.099003
v -0.031926 0.120292 0.057618
v -0.035893 0.110483 0.120476
v -0.031926 0.120292 0.057618
v -0.045944 0.144528 0.070752
v -0.023560 0.091956 0.099003
v -0.022132 0.070835 0.077079
v -0.028576 0.092662 0.045199
v -0.023560 0.091956 0.099003
v -0.028576 0.092662 0.045199
v -0.031926 0.120292 0.057618
v -0.049459 0.062393 0.164628
v -0.029182 0.059617 0.153643
v -0.035893 0.110483 0.120476
v -0.049459 0.062393 0.164628
v -0.035893 0.110483 0.120476
v -0.056483 0.115632 0.129913
v -0.029182 0.059617 0.153643
v -0.017975 0.049620 0.126608
v -0.023560 0.091956 0.099003
v -0.029182 0.059617 0.153643
v -0.023560 0.091956 0.099003
v -0.035893 0.110483 0.120476
v -0.017975 0.049620 0.126608
v -0.017829 0.038223 0.098344
v -0.022132 0.070835 0.077079
v -0.017975 0.049620 0.126608
v -0.022132 0.070835 0.077079
v -0.023560 0.091956 0.099003
v -0.047002 -0.000347 0.176729
v -0.026834 -0.000328 0.165205
v -0.029182 0.059617 0.153643
v -0.047002 -0.000347 0.176729
v -0.029182 0.059617 0.153643
v -0.049459 0.062393 0.164628
v -0.026834 -0.000328 0.165205
v -0.016020 -0.000271 0.136231
v -0.017975 0.049620 0.126608
v -0.026834 -0.000328 0.165205
v -0.017975 0.049620 0.126608
v -0.029182 0.059617 0.153643
v -0.016020 -0.000271 0.136231
v -0.016324 -0.000210 0.105756
v -0.017829 0.038223 0.098344
v -0.016020 -0.000271 0.136231
v -0.017829 0.038223 0.098344
v -0.017975 0.049620 0.126608
v -0.049485 -0.063036 0.164374
v -0.029206 -0.060224 0.153401
v -0.026834 -0.000328 0.165205
v -0.049485 -0.063036 0.164374
v -0.026834 -0.000328 0.165205
v -0.047002 -0.000347 0.176729
v -0.029206 -0.060224 0.153401
v -0.017995 -0.050123 0.126407
v -0.016020 -0.000271 0.136231
v -0.029206 -0.060224 0.153401
v -0.016020 -0.000271 0.136231
v -0.026834 -0.000328 0.165205
v -0.017995 -0.050123 0.126407
v -0.017845 -0.038611 0.098188
v -0.016324 -0.000210 0.105756
v -0.017995 -0.050123 0.126407
v -0.016324 -0.000210 0.105756
v -0.016020 -0.000271 0.136231
v -0.056530 -0.116132 0.129445
v -0.035938 -0.110954 0.120029
v -0.029206 -0.060224 0.153401
v -0.056530 -0.116132 0.129445
v -0.029206 -0.060224 0.153401
v -0.049485 -0.063036 0.164374
v -0.035938 -0.110954 0.120029
v -0.023597 -0.092345 0.098631
v -0.017995 -0.050123 0.126407
v -0.035938 -0.110954 0.120029
v -0.017995 -0.050123 0.126407
v -0.029206 -0.060224 0.153401
v -0.023597 -0.092345 0.098631
v -0.022160 -0.071136 0.076792
v -0.017845 -0.038611 0.098188
v -0.023597 -0.092345 0.098631
v -0.017845 -0.038611 0.098188
v -0.017995 -0.050123 0.126407
v -0.067064 -0.151549 0.077259
v -0.046003 -0.144793 0.070168
v -0.035938 -0.110954 0.120029
v -0.067064 -0.151549 0.077259
v -0.035938 -0.110954 0.120029
v -0.056530 -0.116132 0.129445
v -0.046003 -0.144793 0.070168
v -0.031974 -0.120509 0.057132
v -0.023597 -0.092345 0.098631
v -0.046003 -0.144793 0.070168
v -0.023597 -0.092345 0.098631
v -0.035938 -0.110954 0.120029
v -0.031974 -0.120509 0.057132
v -0.028614 -0.092832 0.044824
v -0.022160 -0.071136 0.076792
v -0.031974 -0.120509 0.057132
v -0.022160 -0.071136 0.076792
v -0.023597 -0.092345 0.098631
v -0.079485 -0.163897 0.015761
v -0.057870 -0.156591 0.011410
v -0.046003 -0.144793 0.070168
v -0.079485 -0.163897 0.015761
v -0.046003 -0.144793 0.070168
v -0.067064 -0.151549 0.077259
v -0.057870 -0.156591 0.011410
v -0.041851 -0.130329 0.008228
v -0.031974 -0.120509 0.057132
v -0.057870 -0.156591 0.011410
v -0.031974 -0.120509 0.057132
v -0.046003 -0.144793 0.070168
v -0.041851 -0.130329 0.008228
v -0.036222 -0.100396 0.007152
v -0.028614 -0.092832 0.044824
v -0.041851 -0.130329 0.008228
v -0.028614 -0.092832 0.044824
v -0.031974 -0.120509 0.057132
v -0.043828 -0.092676 -0.030489
v -0.050272 -0.070849 -0.062368
v -0.054574 -0.038237 -0.083633
v -0.043828 -0.092676 -0.030489
v -0.054574 -0.038237 -0.083633
v -0.056080 0.000196 -0.091046
v -0.043828 -0.092676 -0.030489
v -0.056080 0.000196 -0.091046
v -0.054559 0.038597 -0.083478
v -0.043828 -0.092676 -0.030489
v -0.054559 0.038597 -0.083478
v -0.050243 0.071122 -0.062081
v -0.043828 -0.092676 -0.030489
v -0.050243 0.071122 -0.062081
v -0.043790 0.092818 -0.030114
v -0.043828 -0.092676 -0.030489
v -0.043790 0.092818 -0.030114
v -0.036182 0.100382 0.007558
v -0.043828 -0.092676 -0.030489
v -0.036182 0.100382 0.007558
v -0.028576 0.092662 0.045199
v -0.043828 -0.092676 -0.030489
v -0.028576 0.092662 0.045199
v -0.022132 0.070835 0.077079
v -0.043828 -0.092676 -0.030489
v -0.022132 0.070835 0.077079
v -0.017829 0.038223 0.098344
v -0.043828 -0.092676 -0.030489
v -0.017829 0.038223 0.098344
v -0.016324 -0.000210 0.105756
v -0.043828 -0.092676 -0.030489
v -0.016324 -0.000210 0.105756
v -0.017845 -0.038611 0.098188
v -0.043828 -0.092676 -0.030489
v -0.017845 -0.038611 0.098188
v -0.022160 -0.071136 0.076792
v -0.043828 -0.092676 -0.030489
v -0.022160 -0.071136 0.076792
v -0.028614 -0.092832 0.044824
v -0.043828 -0.092676 -0.030489
v -0.028614 -0.092832 0.044824
v -0.036222 -0.100396 0.007152
v -0.091901 -0.151296 -0.045687
v -0.079485 -0.163897 0.015761
v -0.480449 -0.139937 0.096809
v -0.091901 -0.151296 -0.045687
v -0.480449 -0.139937 0.096809
v -0.491043 -0.129184 0.044377
f 1 2 3
f 4 5 6
f 7 8 9
f 10 11 12
f 13 14 15
f 16 17 18
f 19 20 21
f 22 23 24
f 25 26 27
f 28 29 30
f 31 32 33
f 34 35 36
f 37 38 39
f 40 41 42
f 43 44 45
f 46 47 48
f 49 50 51
f 52 53 54
f 55 56 57
f 58 59 60
f 61 62 63
f 64 65 66
f 67 68 69
f 70 71 72
f 73 74 75
f 76 77 78
f 79 80 81
f 82 83 84
f 85 86 87
f 88 89 90
f 91 92 93
f 94 95 96
f 97 98 99
f 100 101 102
f 103 104 105
f 106 107 108
f 109 110 111
f 112 113 114
f 115 116 117
f 118 119 120
f 121 122 123
f 124 125 126
f 127 128 129
f 130 131 132
f 133 134 135
f 136 137 138
f 139 140 141
f 142 143 144
f 145 146 147
f 148 149 150
f 151 152 153
f 154 155 156
f 157 158 159
f 160 161 162
f 163 164 165
f 166 167 168
f 169 170 171
f 172 173 174
f 175 176 177
f 178 179 180
f 181 182 183
f 184 185 186
f 187 188 189
f 190 191 192
f 193 194 195
f 196 197 198
f 199 200 201
f 202 203 204
f 205 206 207
f 208 209 210
f 211 212 213
f 214 215 216
f 217 218 219
f 220 221 222
f 223 224 225
f 226 227 228
f 229 230 231
f 232 233 234
f 235 236 237
f 238 239 240
f 241 242 243
f 244 245 246
f 247 248 249
f 250 251 252
f 253 254 255
f 256 257 258
f 259 260 261
f 262 263 264
f 265 266 267
f 268 269 270
f 271 272 273
f 274 275 276
f 277 278 279
f 280 281 282
f 283 284 285
f 286 287 288
f 289 290 291
f 292 293 294
f 295 296 297
f 298 299 300
f 301 302 303
f 304 305 306
f 307 308 309
f 310 311 312
f 313 314 315
f 316 317 318
f 319 320 321
f 322 323 324
f 325 326 327
f 328 329 330
f 331 332 333
f 334 335 336
f 337 338 339
f 340 341 342
f 343 344 345
f 346 347 348
f 349 350 351
f 352 353 354
f 355 356 357
f 358 359 360
f 361 362 363
f 364 365 366
f 367 368 369
f 370 371 372
f 373 374 375
f 376 377 378
f 379 380 381
f 382 383 384
f 385 386 387
f 388 389 390
f 391 392 393
f 394 395 396
f 397 398 399
f 400 401 402
f 403 404 405
f 406 407 408
f 409 410 411
f 412 413 414
f 415 416 417
f 418 419 420
f 421 422 423
f 424 425 426
f 427 428 429
f 430 431 432
f 433 434 435
f 436 437 438
f 439 440 441
f 442 443 444
f 445 446 447
f 448 449 450
f 451 452 453
f 454 455 456
f 457 458 459
f 460 461 462
f 463 464 465
f 466 467 468
f 469 470 471
f 472 473 474
f 475 476 477
f 478 479 480
f 481 482 483
f 484 485 486
f 487 488 489
f 490 491 492
f 493 494 495
f 496 497 498
f 499 500 501
f 502 503 504
f 505 506 507
f 508 509 510
f 511 512 513
f 514 515 516
f 517 518 519
f 520 521 522
f 523 524 525
f 526 527 528
f 529 530 531
f 532 533 534
f 535 536 537
f 538 539 540
f 541 542 543
f 544 545 546
f 547 548 549
f 550 551 552
f 553 554 555
f 556 557 558
f 559 560 561
f 562 563 564
f 565 566 567
f 568 569 570
f 571 572 573
f 574 575 576
f 577 578 579
f 580 581 582
f 583 584 585
f 586 587 588
f 589 590 591
f 592 593 594
f 595 596 597
f 598 599 600
f 601 602 603
f 604 605 606
f 607 608 609
f 610 611 612
f 613 614 615
f 616 617 618
f 619 620 621
f 622 623 624
f 625 626 627
f 628 629 630
f 631 632 633
f 634 635 636
f 637 638 639
f 640 641 642
f 643 644 645
f 646 647 648
f 649 650 651
f 652 653 654
f 655 656 657
f 658 659 660
f 661 662 663
f 664 665 666
f 667 668 669
f 670 671 672
f 673 674 675
f 676 677 678
f 679 680 681
f 682 683 684
f 685 686 687
f 688 689 690
f 691 692 693
f 694 695 696
f 697 698 699
f 700 701 702
f 703 704 705
f 706 707 708
f 709 710 711
f 712 713 714
f 715 716 717
f 718 719 720
f 721 722 723
f 724 725 726
f 727 728 729
f 730 731 732
f 733 734 735
f 736 737 738
f 739 740 741
f 742 743 744
f 745 746 747
f 748 749 750
f 751 752 753
f 754 755 756
