# lizard mesh
v 0.058379 0.142023 -0.040291
v 0.027507 0.131212 -0.085022
v 0.013930 0.129220 -0.074649
v 0.044333 0.139867 -0.030597
v 0.003929 0.121117 -0.063668
v 0.032425 0.131097 -0.022379
v -0.000974 0.108138 -0.053752
v 0.024469 0.117048 -0.016887
v -0.000032 0.092258 -0.046410
v 0.021675 0.099859 -0.014959
v 0.339055 0.109205 -0.288964
v 0.364749 0.118203 -0.251735
v 0.380059 0.112986 -0.262302
v 0.355499 0.104386 -0.297888
v 0.393039 0.100996 -0.271260
v 0.371085 0.093308 -0.303069
v 0.401711 0.084059 -0.277245
v 0.383439 0.077660 -0.303720
v 0.403818 0.061693 -0.278700
v 0.390408 0.056997 -0.298130
v 0.001335 0.100425 -0.122943
v -0.011844 0.098901 -0.111994
v -0.020230 0.092699 -0.098672
v -0.022543 0.082765 -0.085005
v -0.018433 0.070611 -0.073073
v 0.317272 0.083582 -0.320525
v 0.334678 0.079893 -0.328056
v 0.352474 0.071415 -0.330036
v 0.367949 0.059438 -0.326164
v 0.379039 0.043624 -0.314603
v -0.016152 0.054350 -0.148281
v -0.029066 0.053525 -0.136947
v -0.036372 0.050168 -0.122061
v -0.036955 0.044792 -0.105887
v -0.030729 0.038214 -0.090889
v 0.302718 0.045234 -0.341613
v 0.320766 0.043238 -0.348213
v 0.340038 0.038650 -0.348055
v 0.357599 0.032168 -0.341161
v 0.371443 0.023609 -0.325609
v -0.022292 -0.000000 -0.157178
v -0.035114 -0.000000 -0.145710
v -0.042040 -0.000000 -0.130274
v -0.042016 -0.000000 -0.113220
v -0.035047 -0.000000 -0.097145
v 0.297607 -0.000000 -0.349019
v 0.315881 -0.000000 -0.355292
v 0.335671 -0.000000 -0.354382
v 0.353965 -0.000000 -0.346427
v 0.368775 -0.000000 -0.329474
v -0.016152 -0.054350 -0.148281
v -0.029066 -0.053525 -0.136947
v -0.036372 -0.050169 -0.122061
v -0.036955 -0.044792 -0.105887
v -0.030729 -0.038215 -0.090889
v 0.302718 -0.045235 -0.341613
v 0.320766 -0.043238 -0.348213
v 0.340038 -0.038650 -0.348054
v 0.357599 -0.032168 -0.341161
v 0.371443 -0.023609 -0.325609
v 0.001336 -0.100425 -0.122943
v -0.011844 -0.098901 -0.111994
v -0.020230 -0.092700 -0.098672
v -0.022543 -0.082766 -0.085005
v -0.018434 -0.070611 -0.073073
v 0.317272 -0.083582 -0.320525
v 0.334678 -0.079893 -0.328056
v 0.352474 -0.071415 -0.330036
v 0.367949 -0.059439 -0.326165
v 0.379039 -0.043624 -0.314603
v 0.027507 -0.131212 -0.085022
v 0.013930 -0.129220 -0.074649
v 0.003929 -0.121118 -0.063668
v -0.000974 -0.108138 -0.053752
v -0.000032 -0.092258 -0.046410
v 0.339055 -0.109206 -0.288964
v 0.355499 -0.104386 -0.297888
v 0.371085 -0.093309 -0.303069
v 0.383440 -0.077660 -0.303720
v 0.390408 -0.056997 -0.298130
v 0.058379 -0.142023 -0.040291
v 0.044333 -0.139867 -0.030597
v 0.032425 -0.131097 -0.022379
v 0.024469 -0.117048 -0.016887
v 0.021675 -0.099859 -0.014959
v 0.364749 -0.118203 -0.251735
v 0.380059 -0.112986 -0.262302
v 0.393039 -0.100996 -0.271260
v 0.401711 -0.084059 -0.277246
v 0.403818 -0.061693 -0.278700
v 0.089250 -0.131212 0.004440
v 0.074735 -0.129220 0.013455
v 0.060922 -0.121118 0.018911
v 0.049911 -0.108138 0.019977
v 0.043381 -0.092258 0.016492
v 0.390442 -0.109206 -0.214506
v 0.404619 -0.104386 -0.226716
v 0.414992 -0.093309 -0.239451
v 0.419983 -0.077660 -0.250771
v 0.417228 -0.056997 -0.259269
v 0.115422 -0.100425 0.042361
v 0.100510 -0.098901 0.050800
v 0.085080 -0.092700 0.053915
v 0.071481 -0.082765 0.051230
v 0.061783 -0.070611 0.043155
v 0.412225 -0.083582 -0.182945
v 0.425440 -0.079893 -0.196548
v 0.433604 -0.071415 -0.212484
v 0.435473 -0.059439 -0.228326
v 0.428597 -0.043624 -0.242796
v 0.132909 -0.054350 0.067699
v 0.117731 -0.053525 0.075754
v 0.101222 -0.050169 0.077303
v 0.085893 -0.044792 0.072112
v 0.074078 -0.038215 0.060971
v 0.426779 -0.045235 -0.161857
v 0.439352 -0.043238 -0.176391
v 0.446039 -0.038650 -0.194465
v 0.445823 -0.032168 -0.213330
v 0.436193 -0.023609 -0.231790
v 0.139050 -0.000000 0.076597
v 0.123779 -0.000000 0.084516
v 0.106890 -0.000000 0.085516
v 0.090953 -0.000000 0.079445
v 0.078396 -0.000000 0.067227
v 0.431890 -0.000000 -0.154452
v 0.444237 -0.000000 -0.169312
v 0.450406 -0.000000 -0.188138
v 0.449458 -0.000000 -0.208064
v 0.438861 -0.000000 -0.227925
v 0.132909 0.054350 0.067699
v 0.117731 0.053525 0.075754
v 0.101221 0.050168 0.077303
v 0.085893 0.044792 0.072112
v 0.074078 0.038214 0.060971
v 0.426779 0.045234 -0.161857
v 0.439352 0.043238 -0.176391
v 0.446039 0.038650 -0.194465
v 0.445823 0.032168 -0.213330
v 0.436193 0.023609 -0.231790
v 0.115422 0.100425 0.042361
v 0.100510 0.098901 0.050800
v 0.085080 0.092699 0.053915
v 0.071481 0.082765 0.051230
v 0.061783 0.070611 0.043155
v 0.412225 0.083582 -0.182945
v 0.425440 0.079893 -0.196548
v 0.433604 0.071415 -0.212484
v 0.435473 0.059439 -0.228326
v 0.428597 0.043624 -0.242796
v 0.089250 0.131212 0.004440
v 0.074735 0.129220 0.013455
v 0.060921 0.121117 0.018911
v 0.049911 0.108138 0.019977
v 0.043381 0.092258 0.016492
v 0.390442 0.109206 -0.214506
v 0.404619 0.104386 -0.226716
v 0.414992 0.093308 -0.239451
v 0.419983 0.077660 -0.250771
v 0.417228 0.056997 -0.259269
f 1 2 3
f 1 3 4
f 4 3 5
f 4 5 6
f 6 5 7
f 6 7 8
f 8 7 9
f 8 9 10
f 11 12 13
f 11 13 14
f 14 13 15
f 14 15 16
f 16 15 17
f 16 17 18
f 18 17 19
f 18 19 20
f 2 21 22
f 2 22 3
f 3 22 23
f 3 23 5
f 5 23 24
f 5 24 7
f 7 24 25
f 7 25 9
f 26 11 14
f 26 14 27
f 27 14 16
f 27 16 28
f 28 16 18
f 28 18 29
f 29 18 20
f 29 20 30
f 21 31 32
f 21 32 22
f 22 32 33
f 22 33 23
f 23 33 34
f 23 34 24
f 24 34 35
f 24 35 25
f 36 26 27
f 36 27 37
f 37 27 28
f 37 28 38
f 38 28 29
f 38 29 39
f 39 29 30
f 39 30 40
f 31 41 42
f 31 42 32
f 32 42 43
f 32 43 33
f 33 43 44
f 33 44 34
f 34 44 45
f 34 45 35
f 46 36 37
f 46 37 47
f 47 37 38
f 47 38 48
f 48 38 39
f 48 39 49
f 49 39 40
f 49 40 50
f 41 51 52
f 41 52 42
f 42 52 53
f 42 53 43
f 43 53 54
f 43 54 44
f 44 54 55
f 44 55 45
f 56 46 47
f 56 47 57
f 57 47 48
f 57 48 58
f 58 48 49
f 58 49 59
f 59 49 50
f 59 50 60
f 51 61 62
f 51 62 52
f 52 62 63
f 52 63 53
f 53 63 64
f 53 64 54
f 54 64 65
f 54 65 55
f 66 56 57
f 66 57 67
f 67 57 58
f 67 58 68
f 68 58 59
f 68 59 69
f 69 59 60
f 69 60 70
f 61 71 72
f 61 72 62
f 62 72 73
f 62 73 63
f 63 73 74
f 63 74 64
f 64 74 75
f 64 75 65
f 76 66 67
f 76 67 77
f 77 67 68
f 77 68 78
f 78 68 69
f 78 69 79
f 79 69 70
f 79 70 80
f 71 81 82
f 71 82 72
f 72 82 83
f 72 83 73
f 73 83 84
f 73 84 74
f 74 84 85
f 74 85 75
f 86 76 77
f 86 77 87
f 87 77 78
f 87 78 88
f 88 78 79
f 88 79 89
f 89 79 80
f 89 80 90
f 81 91 92
f 81 92 82
f 82 92 93
f 82 93 83
f 83 93 94
f 83 94 84
f 84 94 95
f 84 95 85
f 96 86 87
f 96 87 97
f 97 87 88
f 97 88 98
f 98 88 89
f 98 89 99
f 99 89 90
f 99 90 100
f 91 101 102
f 91 102 92
f 92 102 103
f 92 103 93
f 93 103 104
f 93 104 94
f 94 104 105
f 94 105 95
f 106 96 97
f 106 97 107
f 107 97 98
f 107 98 108
f 108 98 99
f 108 99 109
f 109 99 100
f 109 100 110
f 101 111 112
f 101 112 102
f 102 112 113
f 102 113 103
f 103 113 114
f 103 114 104
f 104 114 115
f 104 115 105
f 116 106 107
f 116 107 117
f 117 107 108
f 117 108 118
f 118 108 109
f 118 109 119
f 119 109 110
f 119 110 120
f 111 121 122
f 111 122 112
f 112 122 123
f 112 123 113
f 113 123 124
f 113 124 114
f 114 124 125
f 114 125 115
f 126 116 117
f 126 117 127
f 127 117 118
f 127 118 128
f 128 118 119
f 128 119 129
f 129 119 120
f 129 120 130
f 121 131 132
f 121 132 122
f 122 132 133
f 122 133 123
f 123 133 134
f 123 134 124
f 124 134 135
f 124 135 125
f 136 126 127
f 136 127 137
f 137 127 128
f 137 128 138
f 138 128 129
f 138 129 139
f 139 129 130
f 139 130 140
f 131 141 142
f 131 142 132
f 132 142 143
f 132 143 133
f 133 143 144
f 133 144 134
f 134 144 145
f 134 145 135
f 146 136 137
f 146 137 147
f 147 137 138
f 147 138 148
f 148 138 139
f 148 139 149
f 149 139 140
f 149 140 150
f 141 151 152
f 141 152 142
f 142 152 153
f 142 153 143
f 143 153 154
f 143 154 144
f 144 154 155
f 144 155 145
f 156 146 147
f 156 147 157
f 157 147 148
f 157 148 158
f 158 148 149
f 158 149 159
f 159 149 150
f 159 150 160
f 151 1 4
f 151 4 152
f 152 4 6
f 152 6 153
f 153 6 8
f 153 8 154
f 154 8 10
f 154 10 155
f 12 156 157
f 12 157 13
f 13 157 158
f 13 158 15
f 15 158 159
f 15 159 17
f 17 159 160
f 17 160 19
f 10 9 25
f 10 25 35
f 10 35 45
f 10 45 55
f 10 55 65
f 10 65 75
f 10 75 85
f 10 85 95
f 10 95 105
f 10 105 115
f 10 115 125
f 10 125 135
f 10 135 145
f 10 145 155
f 1 12 11
f 1 11 2
f 151 156 12
f 151 12 1
f 20 19 160
f 20 160 150
f 20 150 140
f 20 140 130
f 20 130 120
f 20 120 110
f 20 110 100
f 20 100 90
f 20 90 80
f 20 80 70
f 20 70 60
f 20 60 50
f 20 50 40
f 20 40 30
f 2 11 26
f 2 26 21
f 21 26 36
f 21 36 31
f 31 36 46
f 31 46 41
f 41 46 56
f 41 56 51
f 51 56 66
f 51 66 61
f 61 66 76
f 61 76 71
f 71 76 86
f 71 86 81
f 81 86 96
f 81 96 91
f 91 96 106
f 91 106 101
f 101 106 116
f 101 116 111
f 111 116 126
f 111 126 121
f 121 126 136
f 121 136 131
f 131 136 146
f 131 146 141
f 141 146 156
f 141 156 151
