# lizard mesh
v 0.039941 -0.057645 -0.042025
v 0.042183 -0.062530 -0.029950
v 0.029074 -0.068575 -0.030594
v 0.027767 -0.062529 -0.043653
v 0.044006 -0.065514 -0.016025
v 0.030282 -0.072219 -0.016066
v 0.014503 -0.072217 -0.031065
v 0.013767 -0.065511 -0.044768
v 0.015256 -0.076280 -0.016058
v 0.046224 -0.047467 -0.048634
v 0.049615 -0.050669 -0.041170
v 0.038597 -0.050668 -0.051643
v 0.053229 -0.053993 -0.029750
v 0.055788 -0.056206 -0.016143
v 0.056942 -0.056985 -0.001437
v 0.044936 -0.066530 -0.001132
v 0.031015 -0.073442 -0.000778
v 0.015818 -0.077645 -0.000392
v -0.000017 -0.079061 0.000009
v -0.000418 -0.077644 -0.015825
v -0.000802 -0.073439 -0.031022
v -0.001154 -0.066525 -0.044942
v 0.013289 -0.056201 -0.056541
v -0.001456 -0.056979 -0.056948
v 0.027009 -0.053990 -0.054674
v 0.044762 -0.065511 0.013789
v 0.043647 -0.062524 0.027788
v 0.030587 -0.068569 0.029096
v 0.031058 -0.072216 0.014527
v 0.042020 -0.057636 0.039960
v 0.029944 -0.062519 0.042204
v 0.016059 -0.072211 0.030306
v 0.016051 -0.076276 0.015281
v 0.016019 -0.065501 0.044028
v 0.056535 -0.056202 0.013308
v 0.054669 -0.053986 0.027027
v 0.051638 -0.050660 0.038614
v 0.048629 -0.047457 0.046240
v 0.041165 -0.050656 0.049632
v 0.029745 -0.053978 0.053247
v 0.016137 -0.056189 0.055807
v 0.001432 -0.056966 0.056961
v 0.001126 -0.066515 0.044958
v 0.000771 -0.073432 0.031039
v 0.000385 -0.077640 0.015844
v -0.016047 -0.065505 -0.044012
v -0.016090 -0.072211 -0.030289
v -0.030616 -0.068562 -0.029080
v -0.029971 -0.062516 -0.042190
v -0.016083 -0.076273 -0.015263
v -0.031089 -0.072206 -0.014510
v -0.043674 -0.062512 -0.027773
v -0.042044 -0.057628 -0.039947
v -0.044790 -0.065495 -0.013774
v -0.016161 -0.056195 -0.055794
v -0.015851 -0.077639 0.000411
v -0.031046 -0.073429 0.000795
v -0.044964 -0.066510 0.001147
v -0.056966 -0.056960 0.001451
v -0.056559 -0.056182 -0.013294
v -0.054692 -0.053970 -0.027014
v -0.051659 -0.050647 -0.038602
v -0.041187 -0.050651 -0.049620
v -0.048649 -0.047447 -0.046228
v -0.029768 -0.053978 -0.053235
v -0.015288 -0.076270 0.016076
v -0.014534 -0.072204 0.031082
v -0.029103 -0.068556 0.030610
v -0.030313 -0.072202 0.016083
v -0.013795 -0.065495 0.044784
v -0.027794 -0.062507 0.043668
v -0.042210 -0.062505 0.029965
v -0.044034 -0.065492 0.016040
v -0.039966 -0.057618 0.042039
v -0.013313 -0.056182 0.056554
v -0.027032 -0.053966 0.054687
v -0.038619 -0.050639 0.051655
v -0.046244 -0.047436 0.048645
v -0.049636 -0.050638 0.041182
v -0.053252 -0.053963 0.029763
v -0.055812 -0.056178 0.016156
v 0.042445 -0.041008 0.056579
v 0.044507 -0.028881 0.061413
v 0.031576 -0.029853 0.067790
v 0.030444 -0.042942 0.061771
v 0.046055 -0.014914 0.064358
v 0.032512 -0.015300 0.071411
v 0.017120 -0.030691 0.071803
v 0.016558 -0.044408 0.065109
v 0.017599 -0.015669 0.075855
v 0.051912 -0.039910 0.049358
v 0.055323 -0.028403 0.052596
v 0.057595 -0.014736 0.054751
v 0.058398 -0.000006 0.055510
v 0.046636 -0.000002 0.065359
v 0.032892 0.000002 0.072625
v 0.017802 0.000005 0.077216
v 0.002004 0.000009 0.079036
v 0.001965 -0.015831 0.077619
v 0.001855 -0.031032 0.073416
v 0.001676 -0.044957 0.066504
v 0.046061 0.014910 0.064355
v 0.044519 0.028876 0.061406
v 0.031589 0.029856 0.067783
v 0.032519 0.015303 0.071408
v 0.042462 0.041004 0.056569
v 0.030463 0.042943 0.061761
v 0.017133 0.030700 0.071796
v 0.017606 0.015680 0.075851
v 0.016577 0.044416 0.065099
v 0.057601 0.014724 0.054748
v 0.055335 0.028392 0.052589
v 0.051929 0.039900 0.049349
v 0.048649 0.047447 0.046228
v 0.041186 0.050651 0.049620
v 0.029768 0.053978 0.053235
v 0.016161 0.056195 0.055794
v 0.001456 0.056979 0.056948
v 0.001695 0.044972 0.066493
v 0.001868 0.031049 0.073409
v 0.001971 0.015848 0.077615
v -0.013256 -0.044402 0.065865
v -0.013473 -0.030684 0.072579
v -0.028114 -0.029841 0.069304
v -0.027294 -0.042929 0.063235
v -0.013740 -0.015663 0.076650
v -0.028858 -0.015287 0.072967
v -0.041350 -0.028862 0.063589
v -0.039541 -0.040991 0.058657
v -0.042741 -0.014895 0.066610
v -0.013866 0.000012 0.078019
v -0.029169 0.000015 0.074199
v -0.043264 0.000017 0.067638
v -0.055510 0.000019 0.058398
v -0.054753 -0.014712 0.057600
v -0.052598 -0.028380 0.055332
v -0.049362 -0.039888 0.051926
v -0.013733 0.015686 0.076646
v -0.013460 0.030707 0.072572
v -0.028101 0.029869 0.069297
v -0.028852 0.015316 0.072964
v -0.013237 0.044423 0.065855
v -0.027275 0.042956 0.063225
v -0.041338 0.028895 0.063583
v -0.042735 0.014929 0.066606
v -0.039523 0.041021 0.058648
v -0.013289 0.056201 0.056541
v -0.027009 0.053990 0.054674
v -0.038597 0.050668 0.051643
v -0.046224 0.047467 0.048634
v -0.049345 0.039921 0.051917
v -0.052586 0.028415 0.055326
v -0.054746 0.014748 0.057596
v 0.042044 0.057627 0.039947
v 0.043674 0.062512 0.027773
v 0.030616 0.068562 0.029080
v 0.029971 0.062516 0.042190
v 0.044790 0.065495 0.013774
v 0.031088 0.072206 0.014510
v 0.016090 0.072211 0.030289
v 0.016046 0.065505 0.044012
v 0.016083 0.076273 0.015263
v 0.051659 0.050647 0.038602
v 0.054692 0.053970 0.027014
v 0.056559 0.056181 0.013294
v 0.056966 0.056960 -0.001451
v 0.044964 0.066510 -0.001147
v 0.031046 0.073429 -0.000795
v 0.015851 0.077639 -0.000411
v 0.000017 0.079061 -0.000009
v 0.000418 0.077644 0.015825
v 0.000802 0.073439 0.031022
v 0.001154 0.066525 0.044942
v 0.044034 0.065492 -0.016040
v 0.042210 0.062505 -0.029965
v 0.029103 0.068556 -0.030610
v 0.030313 0.072202 -0.016083
v 0.039966 0.057618 -0.042039
v 0.027794 0.062507 -0.043668
v 0.014534 0.072204 -0.031082
v 0.015288 0.076270 -0.016076
v 0.013795 0.065495 -0.044784
v 0.055812 0.056178 -0.016156
v 0.053252 0.053963 -0.029763
v 0.049636 0.050638 -0.041182
v 0.046244 0.047436 -0.048645
v 0.038619 0.050639 -0.051655
v 0.027032 0.053966 -0.054687
v 0.013313 0.056182 -0.056554
v -0.001432 0.056966 -0.056961
v -0.001126 0.066515 -0.044958
v -0.000771 0.073432 -0.031039
v -0.000385 0.077640 -0.015844
v -0.013767 0.065511 0.044768
v -0.014503 0.072217 0.031065
v -0.029074 0.068575 0.030594
v -0.027767 0.062529 0.043653
v -0.015256 0.076280 0.016058
v -0.030282 0.072219 0.016066
v -0.042184 0.062530 0.029950
v -0.039941 0.057645 0.042025
v -0.044006 0.065514 0.016025
v -0.015818 0.077645 0.000392
v -0.031015 0.073442 0.000778
v -0.044936 0.066530 0.001132
v -0.056942 0.056985 0.001437
v -0.055788 0.056205 0.016143
v -0.053229 0.053993 0.029750
v -0.049615 0.050669 0.041170
v -0.016051 0.076276 -0.015281
v -0.016059 0.072210 -0.030306
v -0.030587 0.068568 -0.029096
v -0.031058 0.072216 -0.014527
v -0.016019 0.065501 -0.044028
v -0.029944 0.062519 -0.042204
v -0.043647 0.062523 -0.027788
v -0.044762 0.065511 -0.013789
v -0.042020 0.057636 -0.039960
v -0.016138 0.056189 -0.055807
v -0.029745 0.053978 -0.053247
v -0.041165 0.050656 -0.049632
v -0.048629 0.047457 -0.046240
v -0.051638 0.050660 -0.038614
v -0.054669 0.053986 -0.027027
v -0.056535 0.056202 -0.013308
v 0.039541 0.040991 -0.058657
v 0.041350 0.028862 -0.063589
v 0.028113 0.029840 -0.069304
v 0.027293 0.042929 -0.063235
v 0.042741 0.014895 -0.066610
v 0.028858 0.015287 -0.072967
v 0.013473 0.030684 -0.072579
v 0.013256 0.044402 -0.065865
v 0.013740 0.015663 -0.076650
v 0.049362 0.039888 -0.051926
v 0.052598 0.028380 -0.055332
v 0.054752 0.014711 -0.057600
v 0.055510 -0.000019 -0.058398
v 0.043264 -0.000017 -0.067638
v 0.029169 -0.000015 -0.074199
v 0.013866 -0.000012 -0.078019
v -0.002004 -0.000009 -0.079036
v -0.001965 0.015831 -0.077619
v -0.001855 0.031032 -0.073416
v -0.001677 0.044957 -0.066504
v 0.042734 -0.014929 -0.066606
v 0.041338 -0.028895 -0.063583
v 0.028101 -0.029869 -0.069297
v 0.028852 -0.015316 -0.072964
v 0.039523 -0.041021 -0.058648
v 0.027275 -0.042956 -0.063225
v 0.013460 -0.030707 -0.072572
v 0.013733 -0.015687 -0.076646
v 0.013237 -0.044423 -0.065855
v 0.054746 -0.014748 -0.057596
v 0.052586 -0.028415 -0.055326
v 0.049345 -0.039921 -0.051917
v -0.001696 -0.044972 -0.066493
v -0.001868 -0.031049 -0.073409
v -0.001971 -0.015848 -0.077615
v -0.016558 0.044408 -0.065109
v -0.017121 0.030690 -0.071803
v -0.031577 0.029853 -0.067790
v -0.030445 0.042942 -0.061771
v -0.017600 0.015669 -0.075855
v -0.032512 0.015300 -0.071411
v -0.044507 0.028880 -0.061413
v -0.042445 0.041008 -0.056579
v -0.046055 0.014914 -0.064358
v -0.017802 -0.000005 -0.077216
v -0.032892 -0.000002 -0.072625
v -0.046636 0.000002 -0.065359
v -0.058398 0.000006 -0.055510
v -0.057595 0.014736 -0.054751
v -0.055323 0.028403 -0.052596
v -0.051913 0.039910 -0.049358
v -0.017606 -0.015680 -0.075851
v -0.017134 -0.030700 -0.071796
v -0.031589 -0.029856 -0.067783
v -0.032519 -0.015303 -0.071408
v -0.016577 -0.044417 -0.065099
v -0.030463 -0.042943 -0.061761
v -0.044519 -0.028876 -0.061406
v -0.046061 -0.014910 -0.064355
v -0.042462 -0.041004 -0.056569
v -0.051930 -0.039900 -0.049349
v -0.055335 -0.028392 -0.052589
v -0.057601 -0.014724 -0.054748
v 0.056582 0.040989 -0.042458
v 0.061774 0.042926 -0.030459
v 0.067793 0.029837 -0.031587
v 0.061415 0.028860 -0.044517
v 0.065113 0.044397 -0.016572
v 0.071806 0.030678 -0.017131
v 0.071413 0.015283 -0.032518
v 0.064359 0.014893 -0.046060
v 0.075856 0.015656 -0.017605
v 0.066508 0.044950 -0.001691
v 0.073418 0.031025 -0.001865
v 0.077620 0.015823 -0.001970
v 0.079036 -0.000017 -0.002004
v 0.077215 -0.000019 -0.017802
v 0.072625 -0.000019 -0.032892
v 0.065359 -0.000019 -0.046636
v 0.065869 0.044400 0.013242
v 0.063238 0.042932 0.027279
v 0.069306 0.029843 0.028104
v 0.072582 0.030681 0.013463
v 0.058661 0.040998 0.039527
v 0.063592 0.028870 0.041341
v 0.072969 0.015290 0.028853
v 0.076651 0.015660 0.013734
v 0.066611 0.014903 0.042736
v 0.067638 -0.000009 0.043264
v 0.074199 -0.000012 0.029169
v 0.078018 -0.000015 0.013866
v 0.064353 -0.014931 -0.046057
v 0.071406 -0.015321 -0.032514
v 0.067780 -0.029873 -0.031579
v 0.061403 -0.028897 -0.044510
v 0.075849 -0.015693 -0.017601
v 0.071793 -0.030713 -0.017123
v 0.061756 -0.042959 -0.030449
v 0.056565 -0.041023 -0.042449
v 0.065095 -0.044428 -0.016562
v 0.077613 -0.015856 -0.001966
v 0.073405 -0.031056 -0.001858
v 0.066489 -0.044979 -0.001681
v 0.076644 -0.015689 0.013738
v 0.072962 -0.015314 0.028857
v 0.069294 -0.029866 0.028111
v 0.072569 -0.030709 0.013470
v 0.066604 -0.014921 0.042740
v 0.063580 -0.028887 0.041348
v 0.063220 -0.042953 0.027290
v 0.065850 -0.044425 0.013252
v 0.058644 -0.041014 0.039537
v -0.058661 -0.040998 -0.039527
v -0.063238 -0.042932 -0.027279
v -0.069306 -0.029843 -0.028104
v -0.063592 -0.028870 -0.041341
v -0.065869 -0.044400 -0.013242
v -0.072582 -0.030682 -0.013463
v -0.072969 -0.015290 -0.028853
v -0.066611 -0.014903 -0.042736
v -0.076651 -0.015660 -0.013734
v -0.066508 -0.044950 0.001691
v -0.073419 -0.031025 0.001865
v -0.077620 -0.015823 0.001970
v -0.079036 0.000017 0.002004
v -0.078018 0.000015 -0.013866
v -0.074199 0.000012 -0.029169
v -0.067638 0.000009 -0.043264
v -0.065113 -0.044397 0.016572
v -0.061775 -0.042926 0.030459
v -0.067793 -0.029837 0.031587
v -0.071806 -0.030678 0.017131
v -0.056582 -0.040989 0.042458
v -0.061415 -0.028860 0.044517
v -0.071413 -0.015283 0.032518
v -0.075856 -0.015657 0.017605
v -0.064359 -0.014893 0.046060
v -0.065359 0.000019 0.046636
v -0.072625 0.000019 0.032892
v -0.077215 0.000018 0.017802
v -0.066604 0.014921 -0.042740
v -0.072962 0.015314 -0.028857
v -0.069294 0.029866 -0.028111
v -0.063580 0.028887 -0.041348
v -0.076644 0.015689 -0.013738
v -0.072569 0.030709 -0.013470
v -0.063220 0.042953 -0.027290
v -0.058644 0.041014 -0.039537
v -0.065851 0.044425 -0.013252
v -0.077614 0.015856 0.001966
v -0.073405 0.031056 0.001858
v -0.066489 0.044978 0.001681
v -0.075849 0.015693 0.017601
v -0.071406 0.015321 0.032514
v -0.067780 0.029873 0.031579
v -0.071793 0.030712 0.017123
v -0.064353 0.014931 0.046057
v -0.061403 0.028897 0.044510
v -0.061756 0.042959 0.030449
v -0.065095 0.044428 0.016562
v -0.056565 0.041023 0.042449
v 0.036771 -0.107476 -0.304493
v -0.007717 -0.116318 -0.303364
v -0.008179 -0.111188 -0.321660
v 0.034344 -0.102736 -0.322739
v -0.008570 -0.099394 -0.337171
v 0.029441 -0.091839 -0.338136
v -0.008829 -0.082733 -0.347536
v 0.022807 -0.076445 -0.348339
v -0.008918 -0.063740 -0.351178
v 0.015453 -0.058897 -0.351796
v 0.074489 -0.082277 -0.305453
v 0.070398 -0.078649 -0.323656
v 0.061669 -0.070309 -0.338955
v 0.049630 -0.058525 -0.349021
v 0.036115 -0.045092 -0.352322
v 0.099696 -0.044557 -0.306096
v 0.094493 -0.042594 -0.324271
v 0.083206 -0.038080 -0.339505
v 0.067556 -0.031701 -0.349479
v 0.049924 -0.024429 -0.352674
v 0.108554 -0.000059 -0.306325
v 0.102960 -0.000060 -0.324491
v 0.090775 -0.000059 -0.339701
v 0.073855 -0.000057 -0.349642
v 0.054776 -0.000053 -0.352800
v 0.099715 0.044443 -0.306106
v 0.094511 0.042478 -0.324281
v 0.083222 0.037964 -0.339514
v 0.067569 0.031590 -0.349486
v 0.049934 0.024325 -0.352680
v 0.074524 0.082173 -0.305472
v 0.070431 0.078543 -0.323675
v 0.061699 0.070203 -0.338972
v 0.049655 0.058422 -0.349035
v 0.036134 0.044994 -0.352332
v 0.036816 0.107389 -0.304519
v 0.034388 0.102645 -0.322763
v 0.029480 0.091747 -0.338157
v 0.022840 0.076353 -0.348357
v 0.015478 0.058807 -0.351810
v -0.007667 0.116250 -0.303392
v -0.008132 0.111115 -0.321686
v -0.008528 0.099318 -0.337195
v -0.008794 0.082655 -0.347556
v -0.008891 0.063661 -0.351193
v -0.052155 0.107408 -0.302263
v -0.050656 0.102664 -0.320607
v -0.046539 0.091764 -0.336230
v -0.040431 0.076367 -0.346753
v -0.033261 0.058818 -0.350574
v -0.089873 0.082209 -0.301304
v -0.086710 0.078577 -0.319690
v -0.078767 0.070233 -0.335410
v -0.067254 0.058447 -0.346071
v -0.053923 0.045013 -0.350049
v -0.115080 0.044489 -0.300660
v -0.110804 0.042522 -0.319075
v -0.100305 0.038004 -0.334861
v -0.085180 0.031623 -0.345613
v -0.067732 0.024350 -0.349696
v -0.123938 -0.000009 -0.300431
v -0.119271 -0.000012 -0.318856
v -0.107873 -0.000017 -0.334665
v -0.091479 -0.000021 -0.345450
v -0.072584 -0.000026 -0.349571
v -0.115099 -0.044511 -0.300650
v -0.110822 -0.042550 -0.319065
v -0.100321 -0.038040 -0.334852
v -0.085193 -0.031668 -0.345606
v -0.067742 -0.024404 -0.349691
v -0.089908 -0.082242 -0.301284
v -0.086743 -0.078615 -0.319672
v -0.078797 -0.070278 -0.335394
v -0.067279 -0.058500 -0.346057
v -0.053942 -0.045073 -0.350038
v -0.052200 -0.107457 -0.302238
v -0.050700 -0.102718 -0.320583
v -0.046578 -0.091823 -0.336208
v -0.040463 -0.076431 -0.346735
v -0.033286 -0.058886 -0.350560
v -0.004839 -0.117207 -0.189856
v 0.039993 -0.108296 -0.190994
v -0.049667 -0.108277 -0.188720
v 0.078004 -0.082902 -0.191960
v 0.103407 -0.044889 -0.192608
v 0.112333 -0.000046 -0.192840
v 0.103426 0.044800 -0.192619
v 0.078039 0.082824 -0.191980
v 0.040039 0.108234 -0.191019
v -0.004789 0.117164 -0.189883
v -0.049621 0.108254 -0.188746
v -0.087632 0.082859 -0.187779
v -0.113035 0.044847 -0.187131
v -0.121961 0.000004 -0.186899
v -0.113054 -0.044843 -0.187120
v -0.087667 -0.082866 -0.187760
v 0.042527 -0.107450 -0.077476
v 0.041028 -0.102706 -0.059132
v -0.001496 -0.111158 -0.058053
v -0.001961 -0.116292 -0.076347
v 0.036911 -0.091806 -0.043509
v -0.001100 -0.099361 -0.042545
v 0.030803 -0.076410 -0.032986
v -0.000834 -0.082697 -0.032184
v 0.023633 -0.058860 -0.029165
v -0.000738 -0.063704 -0.028547
v 0.080245 -0.082251 -0.078436
v 0.077082 -0.078619 -0.060049
v 0.069139 -0.070275 -0.044329
v 0.057626 -0.058490 -0.033669
v 0.044295 -0.045056 -0.029691
v 0.105452 -0.044531 -0.079079
v 0.101176 -0.042564 -0.060664
v 0.090676 -0.038046 -0.044879
v 0.075551 -0.031666 -0.034126
v 0.058104 -0.024393 -0.030043
v 0.114310 -0.000033 -0.079308
v 0.109643 -0.000030 -0.060883
v 0.098245 -0.000026 -0.045075
v 0.081851 -0.000021 -0.034289
v 0.062956 -0.000017 -0.030169
v 0.105471 0.044468 -0.079089
v 0.101194 0.042507 -0.060674
v 0.090692 0.037998 -0.044888
v 0.075565 0.031626 -0.034133
v 0.058114 0.024361 -0.030049
v 0.080280 0.082199 -0.078455
v 0.077115 0.078573 -0.060067
v 0.069169 0.070236 -0.044345
v 0.057650 0.058457 -0.033682
v 0.044314 0.045030 -0.029701
v 0.042572 0.107414 -0.077502
v 0.041072 0.102675 -0.059156
v 0.036950 0.091780 -0.043531
v 0.030835 0.076389 -0.033004
v 0.023658 0.058843 -0.029179
v -0.001912 0.116275 -0.076375
v -0.001449 0.111145 -0.058079
v -0.001058 0.099352 -0.042568
v -0.000799 0.082690 -0.032203
v -0.000711 0.063698 -0.028562
v -0.046399 0.107433 -0.075246
v -0.043973 0.102693 -0.057000
v -0.039069 0.091797 -0.041604
v -0.032435 0.076402 -0.031400
v -0.025081 0.058854 -0.027943
v -0.084117 0.082234 -0.074287
v -0.080026 0.078606 -0.056083
v -0.071297 0.070266 -0.040784
v -0.059258 0.058482 -0.030718
v -0.045743 0.045050 -0.027418
v -0.109324 0.044514 -0.073643
v -0.104121 0.042551 -0.055468
v -0.092835 0.038037 -0.040234
v -0.077184 0.031658 -0.030261
v -0.059552 0.024387 -0.027065
v -0.118182 0.000016 -0.073414
v -0.112588 0.000017 -0.055249
v -0.100403 0.000017 -0.040038
v -0.083483 0.000014 -0.030097
v -0.064404 0.000010 -0.026940
v -0.109343 -0.044485 -0.073633
v -0.104139 -0.042520 -0.055458
v -0.092851 -0.038007 -0.040225
v -0.077197 -0.031633 -0.030253
v -0.059562 -0.024368 -0.027060
v -0.084152 -0.082216 -0.074267
v -0.080060 -0.078586 -0.056065
v -0.071327 -0.070245 -0.040767
v -0.059283 -0.058464 -0.030704
v -0.045762 -0.045037 -0.027407
v -0.046444 -0.107431 -0.075221
v -0.044016 -0.102688 -0.056976
v -0.039108 -0.091790 -0.041582
v -0.032468 -0.076396 -0.031382
v -0.025106 -0.058850 -0.027929
f 1 2 3
f 1 3 4
f 2 5 6
f 2 6 3
f 4 3 7
f 4 7 8
f 3 6 9
f 3 9 7
f 10 11 1
f 10 1 12
f 11 13 2
f 11 2 1
f 13 14 5
f 13 5 2
f 14 15 16
f 14 16 5
f 5 16 17
f 5 17 6
f 6 17 18
f 6 18 9
f 9 18 19
f 9 19 20
f 7 9 20
f 7 20 21
f 8 7 21
f 8 21 22
f 23 8 22
f 23 22 24
f 25 4 8
f 25 8 23
f 12 1 4
f 12 4 25
f 26 27 28
f 26 28 29
f 27 30 31
f 27 31 28
f 29 28 32
f 29 32 33
f 28 31 34
f 28 34 32
f 15 35 26
f 15 26 16
f 35 36 27
f 35 27 26
f 36 37 30
f 36 30 27
f 37 38 39
f 37 39 30
f 30 39 40
f 30 40 31
f 31 40 41
f 31 41 34
f 34 41 42
f 34 42 43
f 32 34 43
f 32 43 44
f 33 32 44
f 33 44 45
f 18 33 45
f 18 45 19
f 17 29 33
f 17 33 18
f 16 26 29
f 16 29 17
f 46 47 48
f 46 48 49
f 47 50 51
f 47 51 48
f 49 48 52
f 49 52 53
f 48 51 54
f 48 54 52
f 24 22 46
f 24 46 55
f 22 21 47
f 22 47 46
f 21 20 50
f 21 50 47
f 20 19 56
f 20 56 50
f 50 56 57
f 50 57 51
f 51 57 58
f 51 58 54
f 54 58 59
f 54 59 60
f 52 54 60
f 52 60 61
f 53 52 61
f 53 61 62
f 63 53 62
f 63 62 64
f 65 49 53
f 65 53 63
f 55 46 49
f 55 49 65
f 66 67 68
f 66 68 69
f 67 70 71
f 67 71 68
f 69 68 72
f 69 72 73
f 68 71 74
f 68 74 72
f 19 45 66
f 19 66 56
f 45 44 67
f 45 67 66
f 44 43 70
f 44 70 67
f 43 42 75
f 43 75 70
f 70 75 76
f 70 76 71
f 71 76 77
f 71 77 74
f 74 77 78
f 74 78 79
f 72 74 79
f 72 79 80
f 73 72 80
f 73 80 81
f 58 73 81
f 58 81 59
f 57 69 73
f 57 73 58
f 56 66 69
f 56 69 57
f 82 83 84
f 82 84 85
f 83 86 87
f 83 87 84
f 85 84 88
f 85 88 89
f 84 87 90
f 84 90 88
f 38 91 82
f 38 82 39
f 91 92 83
f 91 83 82
f 92 93 86
f 92 86 83
f 93 94 95
f 93 95 86
f 86 95 96
f 86 96 87
f 87 96 97
f 87 97 90
f 90 97 98
f 90 98 99
f 88 90 99
f 88 99 100
f 89 88 100
f 89 100 101
f 41 89 101
f 41 101 42
f 40 85 89
f 40 89 41
f 39 82 85
f 39 85 40
f 102 103 104
f 102 104 105
f 103 106 107
f 103 107 104
f 105 104 108
f 105 108 109
f 104 107 110
f 104 110 108
f 94 111 102
f 94 102 95
f 111 112 103
f 111 103 102
f 112 113 106
f 112 106 103
f 113 114 115
f 113 115 106
f 106 115 116
f 106 116 107
f 107 116 117
f 107 117 110
f 110 117 118
f 110 118 119
f 108 110 119
f 108 119 120
f 109 108 120
f 109 120 121
f 97 109 121
f 97 121 98
f 96 105 109
f 96 109 97
f 95 102 105
f 95 105 96
f 122 123 124
f 122 124 125
f 123 126 127
f 123 127 124
f 125 124 128
f 125 128 129
f 124 127 130
f 124 130 128
f 42 101 122
f 42 122 75
f 101 100 123
f 101 123 122
f 100 99 126
f 100 126 123
f 99 98 131
f 99 131 126
f 126 131 132
f 126 132 127
f 127 132 133
f 127 133 130
f 130 133 134
f 130 134 135
f 128 130 135
f 128 135 136
f 129 128 136
f 129 136 137
f 77 129 137
f 77 137 78
f 76 125 129
f 76 129 77
f 75 122 125
f 75 125 76
f 138 139 140
f 138 140 141
f 139 142 143
f 139 143 140
f 141 140 144
f 141 144 145
f 140 143 146
f 140 146 144
f 98 121 138
f 98 138 131
f 121 120 139
f 121 139 138
f 120 119 142
f 120 142 139
f 119 118 147
f 119 147 142
f 142 147 148
f 142 148 143
f 143 148 149
f 143 149 146
f 146 149 150
f 146 150 151
f 144 146 151
f 144 151 152
f 145 144 152
f 145 152 153
f 133 145 153
f 133 153 134
f 132 141 145
f 132 145 133
f 131 138 141
f 131 141 132
f 154 155 156
f 154 156 157
f 155 158 159
f 155 159 156
f 157 156 160
f 157 160 161
f 156 159 162
f 156 162 160
f 114 163 154
f 114 154 115
f 163 164 155
f 163 155 154
f 164 165 158
f 164 158 155
f 165 166 167
f 165 167 158
f 158 167 168
f 158 168 159
f 159 168 169
f 159 169 162
f 162 169 170
f 162 170 171
f 160 162 171
f 160 171 172
f 161 160 172
f 161 172 173
f 117 161 173
f 117 173 118
f 116 157 161
f 116 161 117
f 115 154 157
f 115 157 116
f 174 175 176
f 174 176 177
f 175 178 179
f 175 179 176
f 177 176 180
f 177 180 181
f 176 179 182
f 176 182 180
f 166 183 174
f 166 174 167
f 183 184 175
f 183 175 174
f 184 185 178
f 184 178 175
f 185 186 187
f 185 187 178
f 178 187 188
f 178 188 179
f 179 188 189
f 179 189 182
f 182 189 190
f 182 190 191
f 180 182 191
f 180 191 192
f 181 180 192
f 181 192 193
f 169 181 193
f 169 193 170
f 168 177 181
f 168 181 169
f 167 174 177
f 167 177 168
f 194 195 196
f 194 196 197
f 195 198 199
f 195 199 196
f 197 196 200
f 197 200 201
f 196 199 202
f 196 202 200
f 118 173 194
f 118 194 147
f 173 172 195
f 173 195 194
f 172 171 198
f 172 198 195
f 171 170 203
f 171 203 198
f 198 203 204
f 198 204 199
f 199 204 205
f 199 205 202
f 202 205 206
f 202 206 207
f 200 202 207
f 200 207 208
f 201 200 208
f 201 208 209
f 149 201 209
f 149 209 150
f 148 197 201
f 148 201 149
f 147 194 197
f 147 197 148
f 210 211 212
f 210 212 213
f 211 214 215
f 211 215 212
f 213 212 216
f 213 216 217
f 212 215 218
f 212 218 216
f 170 193 210
f 170 210 203
f 193 192 211
f 193 211 210
f 192 191 214
f 192 214 211
f 191 190 219
f 191 219 214
f 214 219 220
f 214 220 215
f 215 220 221
f 215 221 218
f 218 221 222
f 218 222 223
f 216 218 223
f 216 223 224
f 217 216 224
f 217 224 225
f 205 217 225
f 205 225 206
f 204 213 217
f 204 217 205
f 203 210 213
f 203 213 204
f 226 227 228
f 226 228 229
f 227 230 231
f 227 231 228
f 229 228 232
f 229 232 233
f 228 231 234
f 228 234 232
f 186 235 226
f 186 226 187
f 235 236 227
f 235 227 226
f 236 237 230
f 236 230 227
f 237 238 239
f 237 239 230
f 230 239 240
f 230 240 231
f 231 240 241
f 231 241 234
f 234 241 242
f 234 242 243
f 232 234 243
f 232 243 244
f 233 232 244
f 233 244 245
f 189 233 245
f 189 245 190
f 188 229 233
f 188 233 189
f 187 226 229
f 187 229 188
f 246 247 248
f 246 248 249
f 247 250 251
f 247 251 248
f 249 248 252
f 249 252 253
f 248 251 254
f 248 254 252
f 238 255 246
f 238 246 239
f 255 256 247
f 255 247 246
f 256 257 250
f 256 250 247
f 257 10 12
f 257 12 250
f 250 12 25
f 250 25 251
f 251 25 23
f 251 23 254
f 254 23 24
f 254 24 258
f 252 254 258
f 252 258 259
f 253 252 259
f 253 259 260
f 241 253 260
f 241 260 242
f 240 249 253
f 240 253 241
f 239 246 249
f 239 249 240
f 261 262 263
f 261 263 264
f 262 265 266
f 262 266 263
f 264 263 267
f 264 267 268
f 263 266 269
f 263 269 267
f 190 245 261
f 190 261 219
f 245 244 262
f 245 262 261
f 244 243 265
f 244 265 262
f 243 242 270
f 243 270 265
f 265 270 271
f 265 271 266
f 266 271 272
f 266 272 269
f 269 272 273
f 269 273 274
f 267 269 274
f 267 274 275
f 268 267 275
f 268 275 276
f 221 268 276
f 221 276 222
f 220 264 268
f 220 268 221
f 219 261 264
f 219 264 220
f 277 278 279
f 277 279 280
f 278 281 282
f 278 282 279
f 280 279 283
f 280 283 284
f 279 282 285
f 279 285 283
f 242 260 277
f 242 277 270
f 260 259 278
f 260 278 277
f 259 258 281
f 259 281 278
f 258 24 55
f 258 55 281
f 281 55 65
f 281 65 282
f 282 65 63
f 282 63 285
f 285 63 64
f 285 64 286
f 283 285 286
f 283 286 287
f 284 283 287
f 284 287 288
f 272 284 288
f 272 288 273
f 271 280 284
f 271 284 272
f 270 277 280
f 270 280 271
f 289 290 291
f 289 291 292
f 290 293 294
f 290 294 291
f 292 291 295
f 292 295 296
f 291 294 297
f 291 297 295
f 186 185 289
f 186 289 235
f 185 184 290
f 185 290 289
f 184 183 293
f 184 293 290
f 183 166 298
f 183 298 293
f 293 298 299
f 293 299 294
f 294 299 300
f 294 300 297
f 297 300 301
f 297 301 302
f 295 297 302
f 295 302 303
f 296 295 303
f 296 303 304
f 237 296 304
f 237 304 238
f 236 292 296
f 236 296 237
f 235 289 292
f 235 292 236
f 305 306 307
f 305 307 308
f 306 309 310
f 306 310 307
f 308 307 311
f 308 311 312
f 307 310 313
f 307 313 311
f 166 165 305
f 166 305 298
f 165 164 306
f 165 306 305
f 164 163 309
f 164 309 306
f 163 114 113
f 163 113 309
f 309 113 112
f 309 112 310
f 310 112 111
f 310 111 313
f 313 111 94
f 313 94 314
f 311 313 314
f 311 314 315
f 312 311 315
f 312 315 316
f 300 312 316
f 300 316 301
f 299 308 312
f 299 312 300
f 298 305 308
f 298 308 299
f 317 318 319
f 317 319 320
f 318 321 322
f 318 322 319
f 320 319 323
f 320 323 324
f 319 322 325
f 319 325 323
f 238 304 317
f 238 317 255
f 304 303 318
f 304 318 317
f 303 302 321
f 303 321 318
f 302 301 326
f 302 326 321
f 321 326 327
f 321 327 322
f 322 327 328
f 322 328 325
f 325 328 15
f 325 15 14
f 323 325 14
f 323 14 13
f 324 323 13
f 324 13 11
f 257 324 11
f 257 11 10
f 256 320 324
f 256 324 257
f 255 317 320
f 255 320 256
f 329 330 331
f 329 331 332
f 330 333 334
f 330 334 331
f 332 331 335
f 332 335 336
f 331 334 337
f 331 337 335
f 301 316 329
f 301 329 326
f 316 315 330
f 316 330 329
f 315 314 333
f 315 333 330
f 314 94 93
f 314 93 333
f 333 93 92
f 333 92 334
f 334 92 91
f 334 91 337
f 337 91 38
f 337 38 37
f 335 337 37
f 335 37 36
f 336 335 36
f 336 36 35
f 328 336 35
f 328 35 15
f 327 332 336
f 327 336 328
f 326 329 332
f 326 332 327
f 338 339 340
f 338 340 341
f 339 342 343
f 339 343 340
f 341 340 344
f 341 344 345
f 340 343 346
f 340 346 344
f 64 62 338
f 64 338 286
f 62 61 339
f 62 339 338
f 61 60 342
f 61 342 339
f 60 59 347
f 60 347 342
f 342 347 348
f 342 348 343
f 343 348 349
f 343 349 346
f 346 349 350
f 346 350 351
f 344 346 351
f 344 351 352
f 345 344 352
f 345 352 353
f 288 345 353
f 288 353 273
f 287 341 345
f 287 345 288
f 286 338 341
f 286 341 287
f 354 355 356
f 354 356 357
f 355 358 359
f 355 359 356
f 357 356 360
f 357 360 361
f 356 359 362
f 356 362 360
f 59 81 354
f 59 354 347
f 81 80 355
f 81 355 354
f 80 79 358
f 80 358 355
f 79 78 137
f 79 137 358
f 358 137 136
f 358 136 359
f 359 136 135
f 359 135 362
f 362 135 134
f 362 134 363
f 360 362 363
f 360 363 364
f 361 360 364
f 361 364 365
f 349 361 365
f 349 365 350
f 348 357 361
f 348 361 349
f 347 354 357
f 347 357 348
f 366 367 368
f 366 368 369
f 367 370 371
f 367 371 368
f 369 368 372
f 369 372 373
f 368 371 374
f 368 374 372
f 273 353 366
f 273 366 274
f 353 352 367
f 353 367 366
f 352 351 370
f 352 370 367
f 351 350 375
f 351 375 370
f 370 375 376
f 370 376 371
f 371 376 377
f 371 377 374
f 374 377 206
f 374 206 225
f 372 374 225
f 372 225 224
f 373 372 224
f 373 224 223
f 276 373 223
f 276 223 222
f 275 369 373
f 275 373 276
f 274 366 369
f 274 369 275
f 378 379 380
f 378 380 381
f 379 382 383
f 379 383 380
f 381 380 384
f 381 384 385
f 380 383 386
f 380 386 384
f 350 365 378
f 350 378 375
f 365 364 379
f 365 379 378
f 364 363 382
f 364 382 379
f 363 134 153
f 363 153 382
f 382 153 152
f 382 152 383
f 383 152 151
f 383 151 386
f 386 151 150
f 386 150 209
f 384 386 209
f 384 209 208
f 385 384 208
f 385 208 207
f 377 385 207
f 377 207 206
f 376 381 385
f 376 385 377
f 375 378 381
f 375 381 376
f 387 388 389
f 387 389 390
f 390 389 391
f 390 391 392
f 392 391 393
f 392 393 394
f 394 393 395
f 394 395 396
f 397 387 390
f 397 390 398
f 398 390 392
f 398 392 399
f 399 392 394
f 399 394 400
f 400 394 396
f 400 396 401
f 402 397 398
f 402 398 403
f 403 398 399
f 403 399 404
f 404 399 400
f 404 400 405
f 405 400 401
f 405 401 406
f 407 402 403
f 407 403 408
f 408 403 404
f 408 404 409
f 409 404 405
f 409 405 410
f 410 405 406
f 410 406 411
f 412 407 408
f 412 408 413
f 413 408 409
f 413 409 414
f 414 409 410
f 414 410 415
f 415 410 411
f 415 411 416
f 417 412 413
f 417 413 418
f 418 413 414
f 418 414 419
f 419 414 415
f 419 415 420
f 420 415 416
f 420 416 421
f 422 417 418
f 422 418 423
f 423 418 419
f 423 419 424
f 424 419 420
f 424 420 425
f 425 420 421
f 425 421 426
f 427 422 423
f 427 423 428
f 428 423 424
f 428 424 429
f 429 424 425
f 429 425 430
f 430 425 426
f 430 426 431
f 432 427 428
f 432 428 433
f 433 428 429
f 433 429 434
f 434 429 430
f 434 430 435
f 435 430 431
f 435 431 436
f 437 432 433
f 437 433 438
f 438 433 434
f 438 434 439
f 439 434 435
f 439 435 440
f 440 435 436
f 440 436 441
f 442 437 438
f 442 438 443
f 443 438 439
f 443 439 444
f 444 439 440
f 444 440 445
f 445 440 441
f 445 441 446
f 447 442 443
f 447 443 448
f 448 443 444
f 448 444 449
f 449 444 445
f 449 445 450
f 450 445 446
f 450 446 451
f 452 447 448
f 452 448 453
f 453 448 449
f 453 449 454
f 454 449 450
f 454 450 455
f 455 450 451
f 455 451 456
f 457 452 453
f 457 453 458
f 458 453 454
f 458 454 459
f 459 454 455
f 459 455 460
f 460 455 456
f 460 456 461
f 462 457 458
f 462 458 463
f 463 458 459
f 463 459 464
f 464 459 460
f 464 460 465
f 465 460 461
f 465 461 466
f 388 462 463
f 388 463 389
f 389 463 464
f 389 464 391
f 391 464 465
f 391 465 393
f 393 465 466
f 393 466 395
f 467 388 387
f 467 387 468
f 469 462 388
f 469 388 467
f 396 395 466
f 396 466 461
f 396 461 456
f 396 456 451
f 396 451 446
f 396 446 441
f 396 441 436
f 396 436 431
f 396 431 426
f 396 426 421
f 396 421 416
f 396 416 411
f 396 411 406
f 396 406 401
f 468 387 397
f 468 397 470
f 470 397 402
f 470 402 471
f 471 402 407
f 471 407 472
f 472 407 412
f 472 412 473
f 473 412 417
f 473 417 474
f 474 417 422
f 474 422 475
f 475 422 427
f 475 427 476
f 476 427 432
f 476 432 477
f 477 432 437
f 477 437 478
f 478 437 442
f 478 442 479
f 479 442 447
f 479 447 480
f 480 447 452
f 480 452 481
f 481 452 457
f 481 457 482
f 482 457 462
f 482 462 469
f 483 484 485
f 483 485 486
f 484 487 488
f 484 488 485
f 487 489 490
f 487 490 488
f 489 491 492
f 489 492 490
f 493 494 484
f 493 484 483
f 494 495 487
f 494 487 484
f 495 496 489
f 495 489 487
f 496 497 491
f 496 491 489
f 498 499 494
f 498 494 493
f 499 500 495
f 499 495 494
f 500 501 496
f 500 496 495
f 501 502 497
f 501 497 496
f 503 504 499
f 503 499 498
f 504 505 500
f 504 500 499
f 505 506 501
f 505 501 500
f 506 507 502
f 506 502 501
f 508 509 504
f 508 504 503
f 509 510 505
f 509 505 504
f 510 511 506
f 510 506 505
f 511 512 507
f 511 507 506
f 513 514 509
f 513 509 508
f 514 515 510
f 514 510 509
f 515 516 511
f 515 511 510
f 516 517 512
f 516 512 511
f 518 519 514
f 518 514 513
f 519 520 515
f 519 515 514
f 520 521 516
f 520 516 515
f 521 522 517
f 521 517 516
f 523 524 519
f 523 519 518
f 524 525 520
f 524 520 519
f 525 526 521
f 525 521 520
f 526 527 522
f 526 522 521
f 528 529 524
f 528 524 523
f 529 530 525
f 529 525 524
f 530 531 526
f 530 526 525
f 531 532 527
f 531 527 526
f 533 534 529
f 533 529 528
f 534 535 530
f 534 530 529
f 535 536 531
f 535 531 530
f 536 537 532
f 536 532 531
f 538 539 534
f 538 534 533
f 539 540 535
f 539 535 534
f 540 541 536
f 540 536 535
f 541 542 537
f 541 537 536
f 543 544 539
f 543 539 538
f 544 545 540
f 544 540 539
f 545 546 541
f 545 541 540
f 546 547 542
f 546 542 541
f 548 549 544
f 548 544 543
f 549 550 545
f 549 545 544
f 550 551 546
f 550 546 545
f 551 552 547
f 551 547 546
f 553 554 549
f 553 549 548
f 554 555 550
f 554 550 549
f 555 556 551
f 555 551 550
f 556 557 552
f 556 552 551
f 558 559 554
f 558 554 553
f 559 560 555
f 559 555 554
f 560 561 556
f 560 556 555
f 561 562 557
f 561 557 556
f 486 485 559
f 486 559 558
f 485 488 560
f 485 560 559
f 488 490 561
f 488 561 560
f 490 492 562
f 490 562 561
f 467 468 483
f 467 483 486
f 469 467 486
f 469 486 558
f 491 497 502
f 491 502 507
f 491 507 512
f 491 512 517
f 491 517 522
f 491 522 527
f 491 527 532
f 491 532 537
f 491 537 542
f 491 542 547
f 491 547 552
f 491 552 557
f 491 557 562
f 491 562 492
f 468 470 493
f 468 493 483
f 470 471 498
f 470 498 493
f 471 472 503
f 471 503 498
f 472 473 508
f 472 508 503
f 473 474 513
f 473 513 508
f 474 475 518
f 474 518 513
f 475 476 523
f 475 523 518
f 476 477 528
f 476 528 523
f 477 478 533
f 477 533 528
f 478 479 538
f 478 538 533
f 479 480 543
f 479 543 538
f 480 481 548
f 480 548 543
f 481 482 553
f 481 553 548
f 482 469 558
f 482 558 553
