# lizard mesh
v 0.037478 0.034973 0.166585
v 0.026349 0.039723 0.165708
v 0.027220 0.042786 0.178584
v 0.039232 0.037165 0.178388
v 0.013531 0.042679 0.164902
v 0.013863 0.046221 0.178463
v 0.027963 0.043420 0.192342
v 0.040554 0.037312 0.191499
v 0.014176 0.047147 0.192717
v 0.043408 0.026985 0.158947
v 0.036486 0.030449 0.156635
v 0.046332 0.028493 0.166325
v 0.025929 0.034046 0.154226
v 0.013388 0.036443 0.152612
v -0.000131 0.037290 0.152024
v -0.000155 0.043697 0.164563
v -0.000182 0.047389 0.178347
v -0.000211 0.048410 0.192788
v -0.000241 0.046809 0.207297
v 0.014298 0.045529 0.207068
v 0.028252 0.041741 0.206332
v 0.041033 0.035517 0.205101
v 0.051368 0.028900 0.189992
v 0.052057 0.026925 0.203388
v 0.049362 0.029392 0.177289
v -0.013843 0.042685 0.164847
v -0.026664 0.039734 0.165601
v -0.027586 0.042797 0.178473
v -0.014227 0.046227 0.178407
v -0.037799 0.034989 0.166433
v -0.039600 0.037181 0.178228
v -0.028385 0.043432 0.192228
v -0.014598 0.047153 0.192659
v -0.040975 0.037329 0.191334
v -0.013652 0.036448 0.152557
v -0.026201 0.034057 0.154121
v -0.036769 0.030464 0.156487
v -0.043701 0.027003 0.158771
v -0.046655 0.028512 0.166137
v -0.049728 0.029412 0.177088
v -0.051786 0.028920 0.189783
v -0.052530 0.026946 0.203176
v -0.041510 0.035533 0.204934
v -0.028731 0.041753 0.206217
v -0.014779 0.045534 0.207009
v 0.040499 0.031892 0.218331
v 0.027907 0.037858 0.219875
v 0.027109 0.031934 0.232304
v 0.039125 0.026668 0.230351
v 0.014118 0.041450 0.220922
v 0.013749 0.035063 0.233696
v 0.026190 0.024114 0.242979
v 0.037326 0.020068 0.240371
v 0.013367 0.026536 0.244818
v 0.051313 0.023545 0.216497
v -0.000270 0.042653 0.221289
v -0.000297 0.036106 0.234201
v -0.000322 0.027353 0.245471
v -0.000342 0.016581 0.254540
v 0.013180 0.016017 0.253723
v 0.025729 0.014425 0.251354
v 0.036298 0.012036 0.247780
v 0.046184 0.013988 0.238130
v 0.043232 0.009736 0.244332
v 0.049256 0.019070 0.228387
v -0.014656 0.041456 0.220863
v -0.028442 0.037870 0.219761
v -0.027697 0.031945 0.232194
v -0.014341 0.035069 0.233640
v -0.041030 0.031908 0.218166
v -0.039707 0.026684 0.230192
v -0.026824 0.024125 0.242872
v -0.014007 0.026541 0.244762
v -0.037951 0.020083 0.240219
v -0.051841 0.023566 0.216288
v -0.049833 0.019090 0.228187
v -0.046803 0.014007 0.237942
v -0.043877 0.009754 0.244156
v -0.036957 0.012051 0.247632
v -0.026401 0.014436 0.251249
v -0.013861 0.016023 0.253668
v -0.053056 0.020034 0.163380
v -0.057535 0.009475 0.159425
v -0.063110 0.007976 0.171366
v -0.057563 0.019573 0.174634
v -0.060270 -0.002823 0.155558
v -0.066452 -0.004964 0.167958
v -0.066483 0.006088 0.184605
v -0.060330 0.018357 0.187462
v -0.070210 -0.007358 0.181532
v -0.046633 0.020795 0.154513
v -0.049676 0.011047 0.149425
v -0.051701 -0.000847 0.144945
v -0.052414 -0.013958 0.141564
v -0.061199 -0.016139 0.152350
v -0.067573 -0.018668 0.164864
v -0.071462 -0.021430 0.178533
v -0.072794 -0.024308 0.192781
v -0.071494 -0.010058 0.195662
v -0.067636 0.003618 0.198433
v -0.061291 0.016144 0.200976
v -0.060264 -0.029655 0.150138
v -0.057524 -0.042489 0.148928
v -0.063099 -0.045745 0.160514
v -0.066446 -0.032498 0.162396
v -0.053041 -0.053753 0.148475
v -0.057548 -0.057698 0.159025
v -0.066472 -0.049145 0.173448
v -0.070204 -0.035562 0.175835
v -0.060313 -0.061558 0.171318
v -0.051696 -0.027352 0.139590
v -0.049665 -0.040052 0.139102
v -0.046618 -0.051010 0.140008
v -0.043684 -0.058382 0.141523
v -0.046636 -0.062634 0.147725
v -0.049708 -0.067716 0.157468
v -0.051765 -0.072191 0.169358
v -0.052509 -0.075571 0.182467
v -0.061274 -0.064765 0.184632
v -0.067625 -0.052236 0.187150
v -0.071488 -0.038559 0.189905
v -0.060385 0.012937 0.214294
v -0.066540 0.000526 0.212139
v -0.063221 -0.002876 0.225086
v -0.057671 0.009075 0.226598
v -0.070268 -0.013055 0.209737
v -0.066566 -0.016121 0.223191
v -0.057694 -0.006134 0.236695
v -0.053208 0.005128 0.237166
v -0.060434 -0.018967 0.235474
v -0.071521 -0.027187 0.207034
v -0.067688 -0.029951 0.220718
v -0.061366 -0.032483 0.233258
v -0.052625 -0.034667 0.244080
v -0.051910 -0.021273 0.246056
v -0.049876 -0.008574 0.246552
v -0.046821 0.002383 0.245659
v -0.070262 -0.041260 0.204039
v -0.066529 -0.054707 0.200982
v -0.063210 -0.056597 0.214234
v -0.066560 -0.043655 0.217629
v -0.060369 -0.066979 0.198150
v -0.057655 -0.068195 0.210988
v -0.057683 -0.058098 0.226198
v -0.060429 -0.045799 0.230053
v -0.053193 -0.068658 0.222261
v -0.051820 -0.077546 0.195863
v -0.049813 -0.078038 0.208566
v -0.046784 -0.077139 0.219530
v -0.043860 -0.075631 0.226907
v -0.046806 -0.069422 0.231154
v -0.049866 -0.059673 0.236230
v -0.051904 -0.047778 0.240702
v -0.037777 -0.068714 0.145484
v -0.026641 -0.072760 0.142876
v -0.027561 -0.080580 0.153550
v -0.039577 -0.075314 0.155504
v -0.013819 -0.075182 0.141037
v -0.014201 -0.083709 0.152158
v -0.028358 -0.086504 0.165979
v -0.040951 -0.080538 0.167524
v -0.014570 -0.090096 0.164933
v -0.036750 -0.060682 0.138074
v -0.026181 -0.063071 0.134500
v -0.013631 -0.064663 0.132132
v -0.000110 -0.065227 0.131315
v -0.000130 -0.075999 0.140383
v -0.000155 -0.084752 0.151654
v -0.000182 -0.091299 0.164565
v -0.000211 -0.095455 0.178558
v -0.014750 -0.094175 0.178787
v -0.028703 -0.090387 0.179523
v -0.041485 -0.084163 0.180754
v 0.013556 -0.075187 0.141092
v 0.026372 -0.072771 0.142983
v 0.027245 -0.080591 0.153661
v 0.013889 -0.083715 0.152215
v 0.037499 -0.068729 0.145636
v 0.039255 -0.075329 0.155663
v 0.027990 -0.086516 0.166093
v 0.014205 -0.090102 0.164991
v 0.040579 -0.080554 0.167689
v 0.013409 -0.064669 0.132186
v 0.025949 -0.063082 0.134606
v 0.036505 -0.060697 0.138222
v 0.043426 -0.058400 0.141699
v 0.046351 -0.062653 0.147913
v 0.049382 -0.067736 0.157668
v 0.051389 -0.072212 0.169566
v 0.052078 -0.075592 0.182678
v 0.041058 -0.084179 0.180921
v 0.028279 -0.090399 0.179638
v 0.014327 -0.094180 0.178845
v -0.041006 -0.085958 0.194356
v -0.028415 -0.092066 0.193513
v -0.027671 -0.091432 0.207271
v -0.039684 -0.085811 0.207467
v -0.014628 -0.095793 0.193138
v -0.014314 -0.094867 0.207391
v -0.026801 -0.088369 0.220147
v -0.037929 -0.083619 0.219270
v -0.013983 -0.091325 0.220952
v -0.000241 -0.097056 0.193067
v -0.000270 -0.096035 0.207508
v -0.000297 -0.092343 0.221292
v -0.000321 -0.085936 0.233831
v -0.013840 -0.085089 0.233243
v -0.026381 -0.082692 0.231628
v -0.036938 -0.079095 0.229220
v 0.014146 -0.095799 0.193196
v 0.027933 -0.092078 0.193627
v 0.027134 -0.091443 0.207381
v 0.013776 -0.094873 0.207448
v 0.040523 -0.085975 0.194521
v 0.039148 -0.085827 0.207626
v 0.026213 -0.088380 0.220254
v 0.013391 -0.091331 0.221008
v 0.037347 -0.083635 0.219422
v 0.051334 -0.077566 0.196071
v 0.049276 -0.078058 0.208766
v 0.046203 -0.077158 0.219717
v 0.043250 -0.075649 0.227083
v 0.036317 -0.079110 0.229368
v 0.025749 -0.082703 0.231733
v 0.013201 -0.085094 0.233298
v 0.052756 -0.053774 0.148688
v 0.057242 -0.042512 0.149159
v 0.062769 -0.045770 0.160768
v 0.057219 -0.057721 0.159257
v 0.059983 -0.029679 0.150381
v 0.066114 -0.032524 0.162664
v 0.066088 -0.049172 0.173716
v 0.059933 -0.061583 0.171561
v 0.069817 -0.035591 0.176118
v 0.046369 -0.051029 0.140196
v 0.049424 -0.040072 0.139302
v 0.051458 -0.027373 0.139799
v 0.052173 -0.013979 0.141775
v 0.060914 -0.016163 0.152596
v 0.067236 -0.018695 0.165136
v 0.071069 -0.021459 0.178821
v 0.072342 -0.024338 0.193074
v 0.071042 -0.038588 0.190192
v 0.067184 -0.052264 0.187422
v 0.060839 -0.064790 0.184878
v 0.059977 -0.002847 0.155801
v 0.057232 0.009452 0.159656
v 0.062758 0.007951 0.171620
v 0.066108 -0.004991 0.168226
v 0.052741 0.020012 0.163594
v 0.057203 0.019549 0.174866
v 0.066077 0.006061 0.184873
v 0.069811 -0.007386 0.181815
v 0.059917 0.018333 0.187705
v 0.051452 -0.000868 0.145153
v 0.049414 0.011027 0.149625
v 0.046354 0.020776 0.154701
v 0.060823 0.016119 0.201223
v 0.067173 0.003590 0.198705
v 0.071037 -0.010087 0.195950
v 0.059878 -0.067003 0.198393
v 0.066032 -0.054734 0.201249
v 0.062659 -0.056622 0.214489
v 0.057112 -0.068219 0.211220
v 0.069758 -0.041288 0.204322
v 0.066000 -0.043682 0.217897
v 0.057083 -0.058121 0.226430
v 0.052604 -0.068680 0.222474
v 0.059818 -0.045823 0.230296
v 0.071010 -0.027216 0.207322
v 0.067121 -0.029978 0.220990
v 0.060748 -0.032507 0.233505
v 0.051962 -0.034688 0.244291
v 0.051250 -0.047799 0.240910
v 0.049224 -0.059693 0.236430
v 0.046181 -0.069441 0.231341
v 0.069753 -0.013084 0.210020
v 0.066020 0.000499 0.212407
v 0.062648 -0.002901 0.225341
v 0.065995 -0.016148 0.223459
v 0.059862 0.012912 0.214537
v 0.057096 0.009052 0.226830
v 0.057072 -0.006157 0.236927
v 0.059812 -0.018991 0.235717
v 0.052589 0.005107 0.237380
v 0.046166 0.002364 0.245847
v 0.049214 -0.008594 0.246752
v 0.051244 -0.021294 0.246264
v 0.037527 -0.050749 0.133700
v 0.026405 -0.051601 0.128929
v 0.027310 -0.038727 0.125868
v 0.039311 -0.038950 0.131511
v 0.013591 -0.052378 0.125950
v 0.013959 -0.038818 0.122409
v 0.028085 -0.024971 0.125235
v 0.040663 -0.025842 0.131366
v 0.014306 -0.024566 0.121483
v -0.000094 -0.052687 0.124907
v -0.000084 -0.038903 0.121216
v -0.000079 -0.024463 0.120194
v -0.000079 -0.009954 0.121796
v 0.014457 -0.010215 0.123102
v 0.028401 -0.010982 0.126915
v 0.041169 -0.012241 0.133163
v -0.013783 -0.052373 0.125895
v -0.026609 -0.051591 0.128822
v -0.027496 -0.038716 0.125758
v -0.014131 -0.038813 0.122352
v -0.037750 -0.050734 0.133547
v -0.039520 -0.038934 0.131352
v -0.028264 -0.024960 0.125122
v -0.014469 -0.024560 0.121425
v -0.040866 -0.025826 0.131202
v -0.041374 -0.012225 0.132996
v -0.028581 -0.010970 0.126800
v -0.014621 -0.010209 0.123044
v 0.040658 0.000990 0.136787
v 0.028080 0.002562 0.130797
v 0.027298 0.014993 0.136721
v 0.039300 0.013013 0.142009
v 0.014300 0.003639 0.127181
v 0.013947 0.016415 0.133567
v 0.026389 0.025670 0.144539
v 0.037512 0.023037 0.148605
v 0.013574 0.027537 0.142094
v -0.000085 0.004039 0.125952
v -0.000095 0.016951 0.132499
v -0.000111 0.028221 0.141252
v -0.014475 0.003645 0.127123
v -0.028269 0.002574 0.130684
v -0.027507 0.015004 0.136610
v -0.014143 0.016421 0.133510
v -0.040872 0.001006 0.136622
v -0.039531 0.013029 0.141849
v -0.026625 0.025680 0.144432
v -0.013800 0.027543 0.142039
v -0.037765 0.023052 0.148453
v 0.037298 0.002088 0.252307
v 0.026157 0.002945 0.257033
v 0.027044 -0.009930 0.260097
v 0.039069 -0.009712 0.254502
v 0.013332 0.003727 0.259960
v 0.013680 -0.009833 0.263502
v 0.027812 -0.023686 0.260733
v 0.040415 -0.022820 0.254653
v 0.014017 -0.024086 0.264429
v -0.000358 0.004042 0.260947
v -0.000368 -0.009743 0.264639
v -0.000373 -0.024183 0.265660
v -0.000372 -0.038692 0.264059
v 0.014169 -0.038437 0.262811
v 0.028129 -0.037675 0.259055
v 0.040922 -0.036421 0.252859
v -0.014043 0.003732 0.259905
v -0.026856 0.002955 0.256925
v -0.027761 -0.009919 0.259986
v -0.014410 -0.009828 0.263446
v -0.037979 0.002103 0.252155
v -0.039763 -0.009696 0.254343
v -0.028537 -0.023675 0.260619
v -0.014757 -0.024080 0.264371
v -0.041115 -0.022804 0.254488
v -0.041621 -0.036404 0.252692
v -0.028853 -0.037664 0.258940
v -0.014908 -0.038431 0.262752
v 0.040420 -0.049652 0.249232
v 0.027817 -0.051220 0.255171
v 0.027055 -0.063650 0.249245
v 0.039079 -0.061675 0.244005
v 0.014023 -0.052291 0.258732
v 0.013691 -0.065067 0.252345
v 0.026173 -0.074326 0.241423
v 0.037313 -0.071698 0.237402
v 0.013348 -0.076189 0.243816
v -0.000367 -0.052685 0.259903
v -0.000356 -0.065597 0.253356
v -0.000341 -0.076867 0.244603
v -0.014752 -0.052285 0.258674
v -0.028531 -0.051208 0.255057
v -0.027750 -0.063639 0.249134
v -0.014399 -0.065061 0.252288
v -0.041109 -0.049636 0.249068
v -0.039752 -0.061659 0.243846
v -0.026840 -0.074316 0.241316
v -0.014026 -0.076183 0.243761
v -0.037963 -0.071683 0.237250
v -0.017703 0.461764 0.248072
v -0.032528 0.459808 0.257739
v -0.026364 0.527224 0.277686
v -0.014383 0.528804 0.269873
v -0.034383 0.524856 0.289398
v -0.037219 0.522062 0.303226
v -0.032737 0.539231 0.306704
v -0.030246 0.541685 0.294557
v -0.028012 0.545531 0.307986
v -0.025884 0.547627 0.297612
v -0.020151 0.549247 0.308753
v -0.018628 0.550747 0.301326
v -0.000232 0.462449 0.244703
v -0.000264 0.529358 0.267150
v -0.023203 0.543765 0.284269
v -0.019868 0.549403 0.288825
v -0.014321 0.552019 0.295036
v 0.017225 0.461757 0.248143
v 0.013844 0.528799 0.269930
v -0.012679 0.545153 0.277407
v -0.010880 0.550589 0.282964
v -0.007887 0.552868 0.290841
v 0.032010 0.459795 0.257869
v 0.025793 0.527213 0.277791
v -0.000276 0.545639 0.275015
v -0.000287 0.551004 0.280921
v -0.000304 0.553165 0.289378
v 0.041873 0.456862 0.272401
v 0.033764 0.524843 0.289535
v 0.012116 0.545148 0.277457
v 0.010297 0.550585 0.283007
v 0.007273 0.552864 0.290871
v 0.045311 0.453403 0.289526
v 0.036543 0.522047 0.303375
v 0.022612 0.543755 0.284362
v 0.019261 0.549396 0.288904
v 0.013690 0.552013 0.295093
v 0.041802 0.449946 0.306637
v 0.033707 0.519253 0.317204
v 0.029613 0.541673 0.294678
v 0.025241 0.547617 0.297715
v 0.017971 0.550740 0.301400
v 0.031880 0.447016 0.321129
v 0.025688 0.516886 0.328916
v 0.032054 0.539218 0.306834
v 0.027326 0.545520 0.308098
v 0.019463 0.549239 0.308833
v 0.017055 0.445061 0.330796
v 0.013707 0.515305 0.336728
v 0.029563 0.536763 0.318981
v 0.025198 0.543424 0.318472
v 0.017940 0.547738 0.316260
v -0.000416 0.444376 0.334166
v -0.000413 0.514752 0.339451
v 0.022519 0.534684 0.329269
v 0.019182 0.541648 0.327259
v 0.013634 0.546466 0.322549
v -0.017873 0.445068 0.330726
v -0.014521 0.515311 0.336671
v 0.011995 0.533295 0.336131
v 0.010194 0.540462 0.333120
v 0.007199 0.545618 0.326745
v -0.032658 0.447029 0.320999
v -0.026470 0.516896 0.328810
v -0.000407 0.532809 0.338523
v -0.000399 0.540047 0.335163
v -0.000384 0.545321 0.328208
v -0.042521 0.449963 0.306467
v -0.034440 0.519267 0.317066
v -0.012799 0.533300 0.336081
v -0.010983 0.540466 0.333077
v -0.007961 0.545621 0.326714
v -0.045959 0.453422 0.289342
v -0.023295 0.534693 0.329176
v -0.019947 0.541655 0.327180
v -0.014378 0.546472 0.322493
v -0.030296 0.536775 0.318860
v -0.025927 0.543434 0.318369
v -0.018658 0.547745 0.316186
v -0.042450 0.456879 0.272231
v -0.093473 0.026922 0.163653
v -0.089316 0.013260 0.162659
v -0.096737 0.005949 0.198844
v -0.101240 0.019270 0.201525
v -0.074374 0.002161 0.166766
v -0.080550 -0.003924 0.196883
v -0.057344 -0.002706 0.173020
v -0.062102 -0.007394 0.196220
v -0.071512 0.033406 0.131578
v -0.068333 0.019455 0.132013
v -0.056910 0.007317 0.141259
v -0.043891 0.001266 0.153372
v -0.038699 0.037735 0.110183
v -0.036982 0.023591 0.111570
v -0.030817 0.010759 0.124245
v -0.023791 0.003917 0.140266
v -0.000031 0.039250 0.102724
v -0.000037 0.025038 0.104445
v -0.000068 0.011964 0.118315
v -0.000104 0.004845 0.135697
v 0.038607 0.037720 0.110339
v 0.036879 0.023576 0.111720
v 0.030657 0.010747 0.124370
v 0.023564 0.003908 0.140361
v 0.071331 0.033378 0.131866
v 0.068145 0.019427 0.132288
v 0.056680 0.007294 0.141489
v 0.043610 0.001248 0.153549
v 0.093160 0.026885 0.164030
v 0.089002 0.013224 0.163019
v 0.074039 0.002131 0.167066
v 0.056982 -0.002729 0.173251
v 0.100770 0.019230 0.201933
v 0.096273 0.005910 0.199233
v 0.080091 -0.003957 0.197207
v 0.061644 -0.007419 0.196470
v 0.093004 0.011577 0.239805
v 0.088852 -0.001402 0.235418
v 0.073915 -0.010042 0.227323
v 0.056886 -0.012106 0.219669
v 0.071042 0.005093 0.271881
v 0.067870 -0.007597 0.266064
v 0.056451 -0.015198 0.252830
v 0.043433 -0.016078 0.239317
v 0.038230 0.000765 0.293276
v 0.036519 -0.011733 0.286506
v 0.030358 -0.018640 0.269844
v 0.023333 -0.018730 0.252423
v -0.000439 -0.000750 0.300734
v -0.000427 -0.013180 0.293632
v -0.000392 -0.019845 0.275775
v -0.000354 -0.019658 0.256992
v -0.039076 0.000780 0.293120
v -0.037343 -0.011718 0.286357
v -0.031117 -0.018628 0.269720
v -0.024022 -0.018720 0.252328
v -0.071800 0.005122 0.271592
v -0.068609 -0.007569 0.265789
v -0.057140 -0.015175 0.252601
v -0.044068 -0.016060 0.239141
v -0.093629 0.011615 0.239429
v -0.089465 -0.001366 0.235058
v -0.074498 -0.010012 0.227024
v -0.057440 -0.012083 0.219438
v -0.090183 0.106101 0.219089
v -0.083268 0.112914 0.185369
v -0.079127 0.192931 0.236652
v -0.073064 0.198905 0.207084
v -0.068071 0.279761 0.254215
v -0.062859 0.284896 0.228800
v -0.057015 0.366591 0.271779
v -0.052655 0.370888 0.250516
v -0.063715 0.118687 0.156810
v -0.055918 0.203967 0.182042
v -0.048121 0.289248 0.207275
v -0.040325 0.374528 0.232507
v -0.083407 0.099285 0.252836
v -0.073186 0.186954 0.266244
v -0.062964 0.274624 0.279652
v -0.052742 0.362293 0.293059
v -0.063972 0.093504 0.281474
v -0.056143 0.181885 0.291355
v -0.048315 0.270267 0.301236
v -0.040487 0.358648 0.311118
v -0.034835 0.089638 0.300641
v -0.030595 0.178495 0.308162
v -0.026354 0.267353 0.315683
v -0.022114 0.356210 0.323204
v -0.000434 0.088275 0.307421
v -0.000430 0.177300 0.314107
v -0.000425 0.266326 0.320793
v -0.000421 0.355351 0.327480
v 0.033995 0.089624 0.300780
v 0.029760 0.178483 0.308284
v 0.025525 0.267342 0.315788
v 0.021290 0.356201 0.323292
v 0.063210 0.093478 0.281731
v 0.055377 0.181863 0.291580
v 0.047545 0.270247 0.301430
v 0.039712 0.358632 0.311280
v 0.082763 0.099251 0.253172
v 0.072523 0.186925 0.266538
v 0.062283 0.274599 0.279905
v 0.052042 0.362272 0.293271
v 0.089679 0.106064 0.219452
v 0.078587 0.192899 0.236971
v 0.067495 0.279734 0.254489
v 0.056403 0.366569 0.272008
v 0.082902 0.112880 0.185704
v 0.072645 0.198876 0.207379
v 0.062388 0.284871 0.229053
v 0.052130 0.370867 0.250727
v 0.063467 0.118661 0.157067
v 0.055603 0.203945 0.182268
v 0.047738 0.289228 0.207468
v 0.039874 0.374512 0.232669
v 0.034330 0.122527 0.137900
v 0.030054 0.207335 0.165460
v 0.025778 0.292142 0.193021
v 0.021501 0.376950 0.220582
v -0.000071 0.123890 0.131120
v -0.000111 0.208529 0.159516
v -0.000151 0.293169 0.187911
v -0.000192 0.377809 0.216307
v -0.034500 0.122541 0.137761
v -0.030300 0.207347 0.165339
v -0.026101 0.292153 0.192916
v -0.021902 0.376959 0.220494
f 1 2 3
f 1 3 4
f 2 5 6
f 2 6 3
f 4 3 7
f 4 7 8
f 3 6 9
f 3 9 7
f 10 11 1
f 10 1 12
f 11 13 2
f 11 2 1
f 13 14 5
f 13 5 2
f 14 15 16
f 14 16 5
f 5 16 17
f 5 17 6
f 6 17 18
f 6 18 9
f 9 18 19
f 9 19 20
f 7 9 20
f 7 20 21
f 8 7 21
f 8 21 22
f 23 8 22
f 23 22 24
f 25 4 8
f 25 8 23
f 12 1 4
f 12 4 25
f 26 27 28
f 26 28 29
f 27 30 31
f 27 31 28
f 29 28 32
f 29 32 33
f 28 31 34
f 28 34 32
f 15 35 26
f 15 26 16
f 35 36 27
f 35 27 26
f 36 37 30
f 36 30 27
f 37 38 39
f 37 39 30
f 30 39 40
f 30 40 31
f 31 40 41
f 31 41 34
f 34 41 42
f 34 42 43
f 32 34 43
f 32 43 44
f 33 32 44
f 33 44 45
f 18 33 45
f 18 45 19
f 17 29 33
f 17 33 18
f 16 26 29
f 16 29 17
f 46 47 48
f 46 48 49
f 47 50 51
f 47 51 48
f 49 48 52
f 49 52 53
f 48 51 54
f 48 54 52
f 24 22 46
f 24 46 55
f 22 21 47
f 22 47 46
f 21 20 50
f 21 50 47
f 20 19 56
f 20 56 50
f 50 56 57
f 50 57 51
f 51 57 58
f 51 58 54
f 54 58 59
f 54 59 60
f 52 54 60
f 52 60 61
f 53 52 61
f 53 61 62
f 63 53 62
f 63 62 64
f 65 49 53
f 65 53 63
f 55 46 49
f 55 49 65
f 66 67 68
f 66 68 69
f 67 70 71
f 67 71 68
f 69 68 72
f 69 72 73
f 68 71 74
f 68 74 72
f 19 45 66
f 19 66 56
f 45 44 67
f 45 67 66
f 44 43 70
f 44 70 67
f 43 42 75
f 43 75 70
f 70 75 76
f 70 76 71
f 71 76 77
f 71 77 74
f 74 77 78
f 74 78 79
f 72 74 79
f 72 79 80
f 73 72 80
f 73 80 81
f 58 73 81
f 58 81 59
f 57 69 73
f 57 73 58
f 56 66 69
f 56 69 57
f 82 83 84
f 82 84 85
f 83 86 87
f 83 87 84
f 85 84 88
f 85 88 89
f 84 87 90
f 84 90 88
f 38 91 82
f 38 82 39
f 91 92 83
f 91 83 82
f 92 93 86
f 92 86 83
f 93 94 95
f 93 95 86
f 86 95 96
f 86 96 87
f 87 96 97
f 87 97 90
f 90 97 98
f 90 98 99
f 88 90 99
f 88 99 100
f 89 88 100
f 89 100 101
f 41 89 101
f 41 101 42
f 40 85 89
f 40 89 41
f 39 82 85
f 39 85 40
f 102 103 104
f 102 104 105
f 103 106 107
f 103 107 104
f 105 104 108
f 105 108 109
f 104 107 110
f 104 110 108
f 94 111 102
f 94 102 95
f 111 112 103
f 111 103 102
f 112 113 106
f 112 106 103
f 113 114 115
f 113 115 106
f 106 115 116
f 106 116 107
f 107 116 117
f 107 117 110
f 110 117 118
f 110 118 119
f 108 110 119
f 108 119 120
f 109 108 120
f 109 120 121
f 97 109 121
f 97 121 98
f 96 105 109
f 96 109 97
f 95 102 105
f 95 105 96
f 122 123 124
f 122 124 125
f 123 126 127
f 123 127 124
f 125 124 128
f 125 128 129
f 124 127 130
f 124 130 128
f 42 101 122
f 42 122 75
f 101 100 123
f 101 123 122
f 100 99 126
f 100 126 123
f 99 98 131
f 99 131 126
f 126 131 132
f 126 132 127
f 127 132 133
f 127 133 130
f 130 133 134
f 130 134 135
f 128 130 135
f 128 135 136
f 129 128 136
f 129 136 137
f 77 129 137
f 77 137 78
f 76 125 129
f 76 129 77
f 75 122 125
f 75 125 76
f 138 139 140
f 138 140 141
f 139 142 143
f 139 143 140
f 141 140 144
f 141 144 145
f 140 143 146
f 140 146 144
f 98 121 138
f 98 138 131
f 121 120 139
f 121 139 138
f 120 119 142
f 120 142 139
f 119 118 147
f 119 147 142
f 142 147 148
f 142 148 143
f 143 148 149
f 143 149 146
f 146 149 150
f 146 150 151
f 144 146 151
f 144 151 152
f 145 144 152
f 145 152 153
f 133 145 153
f 133 153 134
f 132 141 145
f 132 145 133
f 131 138 141
f 131 141 132
f 154 155 156
f 154 156 157
f 155 158 159
f 155 159 156
f 157 156 160
f 157 160 161
f 156 159 162
f 156 162 160
f 114 163 154
f 114 154 115
f 163 164 155
f 163 155 154
f 164 165 158
f 164 158 155
f 165 166 167
f 165 167 158
f 158 167 168
f 158 168 159
f 159 168 169
f 159 169 162
f 162 169 170
f 162 170 171
f 160 162 171
f 160 171 172
f 161 160 172
f 161 172 173
f 117 161 173
f 117 173 118
f 116 157 161
f 116 161 117
f 115 154 157
f 115 157 116
f 174 175 176
f 174 176 177
f 175 178 179
f 175 179 176
f 177 176 180
f 177 180 181
f 176 179 182
f 176 182 180
f 166 183 174
f 166 174 167
f 183 184 175
f 183 175 174
f 184 185 178
f 184 178 175
f 185 186 187
f 185 187 178
f 178 187 188
f 178 188 179
f 179 188 189
f 179 189 182
f 182 189 190
f 182 190 191
f 180 182 191
f 180 191 192
f 181 180 192
f 181 192 193
f 169 181 193
f 169 193 170
f 168 177 181
f 168 181 169
f 167 174 177
f 167 177 168
f 194 195 196
f 194 196 197
f 195 198 199
f 195 199 196
f 197 196 200
f 197 200 201
f 196 199 202
f 196 202 200
f 118 173 194
f 118 194 147
f 173 172 195
f 173 195 194
f 172 171 198
f 172 198 195
f 171 170 203
f 171 203 198
f 198 203 204
f 198 204 199
f 199 204 205
f 199 205 202
f 202 205 206
f 202 206 207
f 200 202 207
f 200 207 208
f 201 200 208
f 201 208 209
f 149 201 209
f 149 209 150
f 148 197 201
f 148 201 149
f 147 194 197
f 147 197 148
f 210 211 212
f 210 212 213
f 211 214 215
f 211 215 212
f 213 212 216
f 213 216 217
f 212 215 218
f 212 218 216
f 170 193 210
f 170 210 203
f 193 192 211
f 193 211 210
f 192 191 214
f 192 214 211
f 191 190 219
f 191 219 214
f 214 219 220
f 214 220 215
f 215 220 221
f 215 221 218
f 218 221 222
f 218 222 223
f 216 218 223
f 216 223 224
f 217 216 224
f 217 224 225
f 205 217 225
f 205 225 206
f 204 213 217
f 204 217 205
f 203 210 213
f 203 213 204
f 226 227 228
f 226 228 229
f 227 230 231
f 227 231 228
f 229 228 232
f 229 232 233
f 228 231 234
f 228 234 232
f 186 235 226
f 186 226 187
f 235 236 227
f 235 227 226
f 236 237 230
f 236 230 227
f 237 238 239
f 237 239 230
f 230 239 240
f 230 240 231
f 231 240 241
f 231 241 234
f 234 241 242
f 234 242 243
f 232 234 243
f 232 243 244
f 233 232 244
f 233 244 245
f 189 233 245
f 189 245 190
f 188 229 233
f 188 233 189
f 187 226 229
f 187 229 188
f 246 247 248
f 246 248 249
f 247 250 251
f 247 251 248
f 249 248 252
f 249 252 253
f 248 251 254
f 248 254 252
f 238 255 246
f 238 246 239
f 255 256 247
f 255 247 246
f 256 257 250
f 256 250 247
f 257 10 12
f 257 12 250
f 250 12 25
f 250 25 251
f 251 25 23
f 251 23 254
f 254 23 24
f 254 24 258
f 252 254 258
f 252 258 259
f 253 252 259
f 253 259 260
f 241 253 260
f 241 260 242
f 240 249 253
f 240 253 241
f 239 246 249
f 239 249 240
f 261 262 263
f 261 263 264
f 262 265 266
f 262 266 263
f 264 263 267
f 264 267 268
f 263 266 269
f 263 269 267
f 190 245 261
f 190 261 219
f 245 244 262
f 245 262 261
f 244 243 265
f 244 265 262
f 243 242 270
f 243 270 265
f 265 270 271
f 265 271 266
f 266 271 272
f 266 272 269
f 269 272 273
f 269 273 274
f 267 269 274
f 267 274 275
f 268 267 275
f 268 275 276
f 221 268 276
f 221 276 222
f 220 264 268
f 220 268 221
f 219 261 264
f 219 264 220
f 277 278 279
f 277 279 280
f 278 281 282
f 278 282 279
f 280 279 283
f 280 283 284
f 279 282 285
f 279 285 283
f 242 260 277
f 242 277 270
f 260 259 278
f 260 278 277
f 259 258 281
f 259 281 278
f 258 24 55
f 258 55 281
f 281 55 65
f 281 65 282
f 282 65 63
f 282 63 285
f 285 63 64
f 285 64 286
f 283 285 286
f 283 286 287
f 284 283 287
f 284 287 288
f 272 284 288
f 272 288 273
f 271 280 284
f 271 284 272
f 270 277 280
f 270 280 271
f 289 290 291
f 289 291 292
f 290 293 294
f 290 294 291
f 292 291 295
f 292 295 296
f 291 294 297
f 291 297 295
f 186 185 289
f 186 289 235
f 185 184 290
f 185 290 289
f 184 183 293
f 184 293 290
f 183 166 298
f 183 298 293
f 293 298 299
f 293 299 294
f 294 299 300
f 294 300 297
f 297 300 301
f 297 301 302
f 295 297 302
f 295 302 303
f 296 295 303
f 296 303 304
f 237 296 304
f 237 304 238
f 236 292 296
f 236 296 237
f 235 289 292
f 235 292 236
f 305 306 307
f 305 307 308
f 306 309 310
f 306 310 307
f 308 307 311
f 308 311 312
f 307 310 313
f 307 313 311
f 166 165 305
f 166 305 298
f 165 164 306
f 165 306 305
f 164 163 309
f 164 309 306
f 163 114 113
f 163 113 309
f 309 113 112
f 309 112 310
f 310 112 111
f 310 111 313
f 313 111 94
f 313 94 314
f 311 313 314
f 311 314 315
f 312 311 315
f 312 315 316
f 300 312 316
f 300 316 301
f 299 308 312
f 299 312 300
f 298 305 308
f 298 308 299
f 317 318 319
f 317 319 320
f 318 321 322
f 318 322 319
f 320 319 323
f 320 323 324
f 319 322 325
f 319 325 323
f 238 304 317
f 238 317 255
f 304 303 318
f 304 318 317
f 303 302 321
f 303 321 318
f 302 301 326
f 302 326 321
f 321 326 327
f 321 327 322
f 322 327 328
f 322 328 325
f 325 328 15
f 325 15 14
f 323 325 14
f 323 14 13
f 324 323 13
f 324 13 11
f 257 324 11
f 257 11 10
f 256 320 324
f 256 324 257
f 255 317 320
f 255 320 256
f 329 330 331
f 329 331 332
f 330 333 334
f 330 334 331
f 332 331 335
f 332 335 336
f 331 334 337
f 331 337 335
f 301 316 329
f 301 329 326
f 316 315 330
f 316 330 329
f 315 314 333
f 315 333 330
f 314 94 93
f 314 93 333
f 333 93 92
f 333 92 334
f 334 92 91
f 334 91 337
f 337 91 38
f 337 38 37
f 335 337 37
f 335 37 36
f 336 335 36
f 336 36 35
f 328 336 35
f 328 35 15
f 327 332 336
f 327 336 328
f 326 329 332
f 326 332 327
f 338 339 340
f 338 340 341
f 339 342 343
f 339 343 340
f 341 340 344
f 341 344 345
f 340 343 346
f 340 346 344
f 64 62 338
f 64 338 286
f 62 61 339
f 62 339 338
f 61 60 342
f 61 342 339
f 60 59 347
f 60 347 342
f 342 347 348
f 342 348 343
f 343 348 349
f 343 349 346
f 346 349 350
f 346 350 351
f 344 346 351
f 344 351 352
f 345 344 352
f 345 352 353
f 288 345 353
f 288 353 273
f 287 341 345
f 287 345 288
f 286 338 341
f 286 341 287
f 354 355 356
f 354 356 357
f 355 358 359
f 355 359 356
f 357 356 360
f 357 360 361
f 356 359 362
f 356 362 360
f 59 81 354
f 59 354 347
f 81 80 355
f 81 355 354
f 80 79 358
f 80 358 355
f 79 78 137
f 79 137 358
f 358 137 136
f 358 136 359
f 359 136 135
f 359 135 362
f 362 135 134
f 362 134 363
f 360 362 363
f 360 363 364
f 361 360 364
f 361 364 365
f 349 361 365
f 349 365 350
f 348 357 361
f 348 361 349
f 347 354 357
f 347 357 348
f 366 367 368
f 366 368 369
f 367 370 371
f 367 371 368
f 369 368 372
f 369 372 373
f 368 371 374
f 368 374 372
f 273 353 366
f 273 366 274
f 353 352 367
f 353 367 366
f 352 351 370
f 352 370 367
f 351 350 375
f 351 375 370
f 370 375 376
f 370 376 371
f 371 376 377
f 371 377 374
f 374 377 206
f 374 206 225
f 372 374 225
f 372 225 224
f 373 372 224
f 373 224 223
f 276 373 223
f 276 223 222
f 275 369 373
f 275 373 276
f 274 366 369
f 274 369 275
f 378 379 380
f 378 380 381
f 379 382 383
f 379 383 380
f 381 380 384
f 381 384 385
f 380 383 386
f 380 386 384
f 350 365 378
f 350 378 375
f 365 364 379
f 365 379 378
f 364 363 382
f 364 382 379
f 363 134 153
f 363 153 382
f 382 153 152
f 382 152 383
f 383 152 151
f 383 151 386
f 386 151 150
f 386 150 209
f 384 386 209
f 384 209 208
f 385 384 208
f 385 208 207
f 377 385 207
f 377 207 206
f 376 381 385
f 376 385 377
f 375 378 381
f 375 381 376
f 387 388 389
f 387 389 390
f 391 392 393
f 391 393 394
f 394 393 395
f 394 395 396
f 396 395 397
f 396 397 398
f 399 387 390
f 399 390 400
f 389 391 394
f 389 394 401
f 401 394 396
f 401 396 402
f 402 396 398
f 402 398 403
f 404 399 400
f 404 400 405
f 390 389 401
f 390 401 406
f 406 401 402
f 406 402 407
f 407 402 403
f 407 403 408
f 409 404 405
f 409 405 410
f 400 390 406
f 400 406 411
f 411 406 407
f 411 407 412
f 412 407 408
f 412 408 413
f 414 409 410
f 414 410 415
f 405 400 411
f 405 411 416
f 416 411 412
f 416 412 417
f 417 412 413
f 417 413 418
f 419 414 415
f 419 415 420
f 410 405 416
f 410 416 421
f 421 416 417
f 421 417 422
f 422 417 418
f 422 418 423
f 424 419 420
f 424 420 425
f 415 410 421
f 415 421 426
f 426 421 422
f 426 422 427
f 427 422 423
f 427 423 428
f 429 424 425
f 429 425 430
f 420 415 426
f 420 426 431
f 431 426 427
f 431 427 432
f 432 427 428
f 432 428 433
f 434 429 430
f 434 430 435
f 425 420 431
f 425 431 436
f 436 431 432
f 436 432 437
f 437 432 433
f 437 433 438
f 439 434 435
f 439 435 440
f 430 425 436
f 430 436 441
f 441 436 437
f 441 437 442
f 442 437 438
f 442 438 443
f 444 439 440
f 444 440 445
f 435 430 441
f 435 441 446
f 446 441 442
f 446 442 447
f 447 442 443
f 447 443 448
f 449 444 445
f 449 445 450
f 440 435 446
f 440 446 451
f 451 446 447
f 451 447 452
f 452 447 448
f 452 448 453
f 454 449 450
f 454 450 455
f 445 440 451
f 445 451 456
f 456 451 452
f 456 452 457
f 457 452 453
f 457 453 458
f 459 454 455
f 459 455 392
f 450 445 456
f 450 456 460
f 460 456 457
f 460 457 461
f 461 457 458
f 461 458 462
f 455 450 460
f 455 460 463
f 463 460 461
f 463 461 464
f 464 461 462
f 464 462 465
f 392 455 463
f 392 463 393
f 393 463 464
f 393 464 395
f 395 464 465
f 395 465 397
f 388 466 391
f 388 391 389
f 398 397 465
f 398 465 462
f 398 462 458
f 398 458 453
f 398 453 448
f 398 448 443
f 398 443 438
f 398 438 433
f 398 433 428
f 398 428 423
f 398 423 418
f 398 418 413
f 398 413 408
f 398 408 403
f 467 468 469
f 467 469 470
f 468 471 472
f 468 472 469
f 471 473 474
f 471 474 472
f 475 476 468
f 475 468 467
f 476 477 471
f 476 471 468
f 477 478 473
f 477 473 471
f 479 480 476
f 479 476 475
f 480 481 477
f 480 477 476
f 481 482 478
f 481 478 477
f 483 484 480
f 483 480 479
f 484 485 481
f 484 481 480
f 485 486 482
f 485 482 481
f 487 488 484
f 487 484 483
f 488 489 485
f 488 485 484
f 489 490 486
f 489 486 485
f 491 492 488
f 491 488 487
f 492 493 489
f 492 489 488
f 493 494 490
f 493 490 489
f 495 496 492
f 495 492 491
f 496 497 493
f 496 493 492
f 497 498 494
f 497 494 493
f 499 500 496
f 499 496 495
f 500 501 497
f 500 497 496
f 501 502 498
f 501 498 497
f 503 504 500
f 503 500 499
f 504 505 501
f 504 501 500
f 505 506 502
f 505 502 501
f 507 508 504
f 507 504 503
f 508 509 505
f 508 505 504
f 509 510 506
f 509 506 505
f 511 512 508
f 511 508 507
f 512 513 509
f 512 509 508
f 513 514 510
f 513 510 509
f 515 516 512
f 515 512 511
f 516 517 513
f 516 513 512
f 517 518 514
f 517 514 513
f 519 520 516
f 519 516 515
f 520 521 517
f 520 517 516
f 521 522 518
f 521 518 517
f 523 524 520
f 523 520 519
f 524 525 521
f 524 521 520
f 525 526 522
f 525 522 521
f 527 528 524
f 527 524 523
f 528 529 525
f 528 525 524
f 529 530 526
f 529 526 525
f 470 469 528
f 470 528 527
f 469 472 529
f 469 529 528
f 472 474 530
f 472 530 529
f 473 478 482
f 473 482 486
f 473 486 490
f 473 490 494
f 473 494 498
f 473 498 502
f 473 502 506
f 473 506 510
f 473 510 514
f 473 514 518
f 473 518 522
f 473 522 526
f 473 526 530
f 473 530 474
f 466 459 392
f 466 392 391
f 467 470 531
f 467 531 532
f 532 531 533
f 532 533 534
f 534 533 535
f 534 535 536
f 536 535 537
f 536 537 538
f 538 537 459
f 538 459 466
f 475 467 532
f 475 532 539
f 539 532 534
f 539 534 540
f 540 534 536
f 540 536 541
f 541 536 538
f 541 538 542
f 542 538 466
f 542 466 388
f 470 527 543
f 470 543 531
f 531 543 544
f 531 544 533
f 533 544 545
f 533 545 535
f 535 545 546
f 535 546 537
f 537 546 454
f 537 454 459
f 527 523 547
f 527 547 543
f 543 547 548
f 543 548 544
f 544 548 549
f 544 549 545
f 545 549 550
f 545 550 546
f 546 550 449
f 546 449 454
f 523 519 551
f 523 551 547
f 547 551 552
f 547 552 548
f 548 552 553
f 548 553 549
f 549 553 554
f 549 554 550
f 550 554 444
f 550 444 449
f 519 515 555
f 519 555 551
f 551 555 556
f 551 556 552
f 552 556 557
f 552 557 553
f 553 557 558
f 553 558 554
f 554 558 439
f 554 439 444
f 515 511 559
f 515 559 555
f 555 559 560
f 555 560 556
f 556 560 561
f 556 561 557
f 557 561 562
f 557 562 558
f 558 562 434
f 558 434 439
f 511 507 563
f 511 563 559
f 559 563 564
f 559 564 560
f 560 564 565
f 560 565 561
f 561 565 566
f 561 566 562
f 562 566 429
f 562 429 434
f 507 503 567
f 507 567 563
f 563 567 568
f 563 568 564
f 564 568 569
f 564 569 565
f 565 569 570
f 565 570 566
f 566 570 424
f 566 424 429
f 503 499 571
f 503 571 567
f 567 571 572
f 567 572 568
f 568 572 573
f 568 573 569
f 569 573 574
f 569 574 570
f 570 574 419
f 570 419 424
f 499 495 575
f 499 575 571
f 571 575 576
f 571 576 572
f 572 576 577
f 572 577 573
f 573 577 578
f 573 578 574
f 574 578 414
f 574 414 419
f 495 491 579
f 495 579 575
f 575 579 580
f 575 580 576
f 576 580 581
f 576 581 577
f 577 581 582
f 577 582 578
f 578 582 409
f 578 409 414
f 491 487 583
f 491 583 579
f 579 583 584
f 579 584 580
f 580 584 585
f 580 585 581
f 581 585 586
f 581 586 582
f 582 586 404
f 582 404 409
f 487 483 587
f 487 587 583
f 583 587 588
f 583 588 584
f 584 588 589
f 584 589 585
f 585 589 590
f 585 590 586
f 586 590 399
f 586 399 404
f 483 479 591
f 483 591 587
f 587 591 592
f 587 592 588
f 588 592 593
f 588 593 589
f 589 593 594
f 589 594 590
f 590 594 387
f 590 387 399
f 479 475 539
f 479 539 591
f 591 539 540
f 591 540 592
f 592 540 541
f 592 541 593
f 593 541 542
f 593 542 594
f 594 542 388
f 594 388 387
