# lizard mesh
v 0.050097 0.063344 0.071725
v 0.035269 0.069673 0.070557
v 0.036429 0.073753 0.087713
v 0.052434 0.066264 0.087451
v 0.018192 0.073611 0.069484
v 0.018633 0.078330 0.087552
v 0.037420 0.074599 0.106043
v 0.054196 0.066460 0.104920
v 0.019051 0.079564 0.106543
v 0.057998 0.052701 0.061549
v 0.048776 0.057316 0.058468
v 0.061894 0.054710 0.071379
v 0.034710 0.062109 0.055260
v 0.018001 0.065302 0.053108
v -0.000011 0.066430 0.052325
v -0.000043 0.074967 0.069032
v -0.000080 0.079886 0.087397
v -0.000118 0.081247 0.106637
v -0.000158 0.079113 0.125968
v 0.019213 0.077408 0.125664
v 0.037804 0.072362 0.124683
v 0.054834 0.064068 0.123042
v 0.068604 0.055252 0.102912
v 0.069522 0.052620 0.120760
v 0.065930 0.055908 0.085987
v -0.018281 0.073619 0.069410
v -0.035364 0.069687 0.070415
v -0.036592 0.073768 0.087565
v -0.018793 0.078338 0.087476
v -0.050199 0.063364 0.071523
v -0.052598 0.066285 0.087239
v -0.037657 0.074614 0.105891
v -0.019287 0.079572 0.106465
v -0.054431 0.066482 0.104700
v -0.018027 0.065309 0.053036
v -0.034747 0.062123 0.055119
v -0.048827 0.057335 0.058271
v -0.058063 0.052724 0.061315
v -0.061998 0.054735 0.071129
v -0.066093 0.055935 0.085720
v -0.068835 0.055279 0.102634
v -0.069826 0.052648 0.120479
v -0.055143 0.064090 0.122820
v -0.038117 0.072377 0.124529
v -0.019528 0.077415 0.125585
v 0.054122 0.059238 0.140670
v 0.037345 0.067188 0.142728
v 0.036282 0.059294 0.159288
v 0.052291 0.052278 0.156685
v 0.018973 0.071973 0.144122
v 0.018481 0.063464 0.161142
v 0.035057 0.048876 0.173510
v 0.049894 0.043485 0.170035
v 0.017972 0.052102 0.175960
v 0.068531 0.048118 0.138226
v -0.000196 0.073576 0.144612
v -0.000233 0.064853 0.161815
v -0.000266 0.053191 0.176831
v -0.000293 0.038838 0.188914
v 0.017723 0.038088 0.187825
v 0.034444 0.035967 0.184669
v 0.048525 0.032784 0.179907
v 0.061697 0.035384 0.167049
v 0.057764 0.029719 0.175313
v 0.065790 0.042155 0.154068
v -0.019365 0.071981 0.144044
v -0.037732 0.067203 0.142576
v -0.036739 0.059309 0.159140
v -0.018945 0.063472 0.161067
v -0.054505 0.059260 0.140451
v -0.052741 0.052299 0.156473
v -0.035576 0.048890 0.173367
v -0.018500 0.052109 0.175886
v -0.050401 0.043505 0.169833
v -0.068907 0.048146 0.137949
v -0.066233 0.042182 0.153802
v -0.062195 0.035409 0.166799
v -0.058298 0.029743 0.175078
v -0.049077 0.032804 0.179710
v -0.035013 0.035981 0.184529
v -0.018305 0.038095 0.187752
v -0.070527 0.043439 0.067456
v -0.076494 0.029371 0.062186
v -0.083923 0.027374 0.078096
v -0.076532 0.042825 0.082450
v -0.080138 0.012986 0.057034
v -0.088375 0.010133 0.073555
v -0.088417 0.024858 0.095735
v -0.080218 0.041205 0.099541
v -0.093382 0.006944 0.091641
v -0.061969 0.044453 0.055642
v -0.066023 0.031465 0.048862
v -0.068722 0.015618 0.042893
v -0.069671 -0.001850 0.038388
v -0.081377 -0.004755 0.052759
v -0.089869 -0.008125 0.069433
v -0.095050 -0.011805 0.087644
v -0.096825 -0.015641 0.106628
v -0.095093 0.003346 0.110467
v -0.089953 0.021567 0.114158
v -0.081499 0.038256 0.117547
v -0.080131 -0.022764 0.049813
v -0.076480 -0.039863 0.048200
v -0.083908 -0.044201 0.063637
v -0.088368 -0.026552 0.066144
v -0.070507 -0.054871 0.047596
v -0.076511 -0.060128 0.061653
v -0.088402 -0.048732 0.080869
v -0.093375 -0.030635 0.084050
v -0.080196 -0.065271 0.078032
v -0.068715 -0.019696 0.035759
v -0.066009 -0.036617 0.035109
v -0.061949 -0.051217 0.036316
v -0.058040 -0.061039 0.038334
v -0.061973 -0.066704 0.046597
v -0.066066 -0.073475 0.059578
v -0.068807 -0.079438 0.075420
v -0.069798 -0.083940 0.092886
v -0.081477 -0.069543 0.095771
v -0.089938 -0.052851 0.099125
v -0.095085 -0.034628 0.102796
v -0.080292 0.033983 0.135291
v -0.088493 0.017448 0.132420
v -0.084070 0.012915 0.149671
v -0.076675 0.028839 0.151685
v -0.093460 -0.000647 0.129220
v -0.088527 -0.004733 0.147145
v -0.076706 0.008574 0.165138
v -0.070729 0.023579 0.165766
v -0.080358 -0.008523 0.163511
v -0.095129 -0.019476 0.125619
v -0.090022 -0.023158 0.143851
v -0.081599 -0.026532 0.160559
v -0.069953 -0.029442 0.174977
v -0.069000 -0.011596 0.177610
v -0.066290 0.005323 0.178271
v -0.062219 0.019922 0.177081
v -0.093452 -0.038226 0.121629
v -0.088477 -0.056143 0.117554
v -0.084056 -0.058660 0.135212
v -0.088519 -0.041418 0.139735
v -0.080270 -0.072493 0.113782
v -0.076654 -0.074114 0.130887
v -0.076692 -0.060661 0.151152
v -0.080350 -0.044274 0.156289
v -0.070709 -0.074731 0.145906
v -0.068880 -0.086572 0.110735
v -0.066207 -0.087228 0.127660
v -0.062170 -0.086030 0.142267
v -0.058274 -0.084021 0.152097
v -0.062199 -0.075748 0.157755
v -0.066276 -0.062759 0.164518
v -0.068992 -0.046910 0.170476
v -0.050170 -0.074805 0.043611
v -0.035333 -0.080196 0.040137
v -0.036558 -0.090614 0.054359
v -0.052567 -0.083598 0.056961
v -0.018248 -0.083422 0.037687
v -0.018757 -0.094784 0.052504
v -0.037621 -0.098508 0.070919
v -0.054399 -0.090558 0.072977
v -0.019250 -0.103293 0.069525
v -0.048802 -0.064104 0.033739
v -0.034720 -0.067287 0.028978
v -0.017999 -0.069408 0.025821
v 0.000017 -0.070158 0.024733
v -0.000011 -0.084511 0.036816
v -0.000043 -0.096173 0.051832
v -0.000080 -0.104896 0.069035
v -0.000119 -0.110433 0.087678
v -0.019490 -0.108728 0.087983
v -0.038080 -0.103682 0.088964
v -0.055110 -0.095388 0.090604
v 0.018224 -0.083429 0.037760
v 0.035300 -0.080210 0.040279
v 0.036463 -0.090629 0.054506
v 0.018669 -0.094792 0.052580
v 0.050125 -0.074825 0.043814
v 0.052465 -0.083619 0.057173
v 0.037456 -0.098523 0.071071
v 0.019088 -0.103301 0.069602
v 0.054228 -0.090580 0.073196
v 0.018028 -0.069415 0.025894
v 0.034737 -0.067301 0.029118
v 0.048801 -0.064124 0.033936
v 0.058022 -0.061063 0.038568
v 0.061919 -0.066729 0.046848
v 0.065957 -0.073502 0.059845
v 0.068631 -0.079466 0.075698
v 0.069550 -0.083969 0.093168
v 0.054867 -0.095410 0.090826
v 0.037841 -0.103697 0.089117
v 0.019252 -0.108736 0.088061
v -0.054472 -0.097780 0.108727
v -0.037696 -0.105919 0.107604
v -0.036705 -0.105073 0.125934
v -0.052710 -0.097584 0.126195
v -0.019327 -0.110884 0.107104
v -0.018909 -0.109650 0.126095
v -0.035545 -0.100993 0.143089
v -0.050373 -0.094664 0.141921
v -0.018468 -0.104931 0.144163
v -0.000158 -0.112567 0.107009
v -0.000197 -0.111206 0.126249
v -0.000233 -0.106288 0.144615
v -0.000265 -0.097751 0.161321
v -0.018277 -0.096622 0.160538
v -0.034987 -0.093429 0.158387
v -0.049052 -0.088636 0.155178
v 0.019011 -0.110892 0.107181
v 0.037380 -0.105934 0.107755
v 0.036315 -0.105088 0.126081
v 0.018517 -0.109658 0.126170
v 0.054155 -0.097802 0.108946
v 0.052322 -0.097605 0.126408
v 0.035088 -0.101007 0.143232
v 0.018005 -0.104939 0.144236
v 0.049923 -0.094685 0.142124
v 0.068558 -0.086599 0.111012
v 0.065817 -0.087255 0.127926
v 0.061722 -0.086055 0.142517
v 0.057787 -0.084044 0.152332
v 0.048550 -0.088656 0.155375
v 0.034470 -0.093443 0.158527
v 0.017751 -0.096629 0.160611
v 0.070453 -0.054899 0.047881
v 0.076430 -0.039894 0.048508
v 0.083794 -0.044235 0.063976
v 0.076399 -0.060159 0.061962
v 0.080081 -0.022797 0.050136
v 0.088251 -0.026587 0.066501
v 0.088216 -0.048768 0.081226
v 0.080016 -0.065303 0.078355
v 0.093184 -0.030673 0.084427
v 0.061943 -0.051242 0.036566
v 0.066014 -0.036643 0.035375
v 0.068723 -0.019724 0.036037
v 0.069676 -0.001878 0.038670
v 0.081323 -0.004788 0.053088
v 0.089746 -0.008162 0.069796
v 0.094852 -0.011844 0.088028
v 0.096549 -0.015680 0.107019
v 0.094817 -0.034666 0.103179
v 0.089677 -0.052887 0.099488
v 0.081223 -0.069576 0.096099
v 0.080074 0.012954 0.057358
v 0.076416 0.029340 0.062494
v 0.083779 0.027340 0.078435
v 0.088243 0.010098 0.073912
v 0.070433 0.043410 0.067741
v 0.076378 0.042794 0.082759
v 0.088201 0.024823 0.096092
v 0.093176 0.006906 0.092018
v 0.079994 0.041173 0.099865
v 0.068716 0.015590 0.043171
v 0.066000 0.031438 0.049129
v 0.061923 0.044428 0.055892
v 0.081201 0.038223 0.117876
v 0.089661 0.021531 0.114521
v 0.094809 0.003308 0.110851
v 0.079942 -0.072525 0.114106
v 0.088141 -0.056179 0.117911
v 0.083647 -0.058694 0.135551
v 0.076256 -0.074145 0.131196
v 0.093106 -0.038264 0.122006
v 0.088099 -0.041453 0.140091
v 0.076218 -0.060691 0.151461
v 0.070251 -0.074759 0.146191
v 0.079862 -0.044306 0.156612
v 0.094774 -0.019515 0.126002
v 0.089592 -0.023195 0.144214
v 0.081101 -0.026565 0.160887
v 0.069395 -0.029470 0.175258
v 0.068446 -0.046938 0.170754
v 0.065747 -0.062785 0.164785
v 0.061693 -0.075773 0.158005
v 0.093099 -0.000685 0.129597
v 0.088126 0.017412 0.132777
v 0.083632 0.012881 0.150010
v 0.088091 -0.004768 0.147502
v 0.079920 0.033951 0.135615
v 0.076235 0.028808 0.151994
v 0.076204 0.008543 0.165447
v 0.079855 -0.008556 0.163834
v 0.070230 0.023551 0.166050
v 0.061673 0.019896 0.177331
v 0.065733 0.005297 0.178538
v 0.068439 -0.011624 0.177887
v 0.050162 -0.050869 0.027910
v 0.035343 -0.052005 0.021555
v 0.036549 -0.034852 0.017477
v 0.052540 -0.035149 0.024995
v 0.018271 -0.053040 0.017585
v 0.018761 -0.034973 0.012867
v 0.037582 -0.016524 0.016633
v 0.054341 -0.017684 0.024802
v 0.019223 -0.015983 0.011634
v 0.000037 -0.053452 0.016196
v 0.000051 -0.035086 0.011278
v 0.000058 -0.015846 0.009916
v 0.000057 0.003485 0.012051
v 0.019424 0.003137 0.013791
v 0.038004 0.002115 0.018871
v 0.055015 0.000437 0.027195
v -0.018202 -0.053033 0.017512
v -0.035289 -0.051990 0.021412
v -0.036472 -0.034837 0.017329
v -0.018665 -0.034965 0.012792
v -0.050133 -0.050849 0.027708
v -0.052493 -0.035128 0.024783
v -0.037494 -0.016509 0.016481
v -0.019115 -0.015976 0.011557
v -0.054286 -0.017662 0.024583
v -0.054962 0.000459 0.026973
v -0.037917 0.002130 0.018718
v -0.019317 0.003145 0.013713
v 0.054333 0.018066 0.032024
v 0.037575 0.020161 0.024044
v 0.036534 0.036724 0.031935
v 0.052525 0.034085 0.038981
v 0.019215 0.021596 0.019225
v 0.018746 0.038618 0.027733
v 0.035322 0.050948 0.042352
v 0.050142 0.047441 0.047770
v 0.018249 0.053436 0.039095
v 0.000050 0.022128 0.017588
v 0.000036 0.039332 0.026311
v 0.000015 0.054348 0.037973
v -0.019123 0.021604 0.019148
v -0.037502 0.020176 0.023892
v -0.036486 0.036738 0.031788
v -0.018680 0.038625 0.027658
v -0.054293 0.018088 0.031804
v -0.052507 0.034107 0.038769
v -0.035311 0.050962 0.042209
v -0.018223 0.053444 0.039021
v -0.050154 0.047461 0.047567
v 0.049857 0.019529 0.185939
v 0.035013 0.020670 0.192235
v 0.036196 0.003517 0.196317
v 0.052216 0.003808 0.188864
v 0.017925 0.021713 0.196135
v 0.018389 0.003645 0.200855
v 0.037218 -0.014811 0.197165
v 0.054010 -0.013658 0.189064
v 0.018839 -0.015345 0.202090
v -0.000314 0.022132 0.197451
v -0.000327 0.003766 0.202369
v -0.000334 -0.015474 0.203730
v -0.000333 -0.034805 0.201596
v 0.019041 -0.034465 0.199934
v 0.037641 -0.033450 0.194929
v 0.054686 -0.031779 0.186673
v -0.018547 0.021720 0.196061
v -0.035620 0.020685 0.192092
v -0.036825 0.003532 0.196170
v -0.019037 0.003653 0.200779
v -0.050438 0.019549 0.185736
v -0.052816 0.003829 0.188652
v -0.037859 -0.014796 0.197013
v -0.019499 -0.015337 0.202013
v -0.054617 -0.013636 0.188845
v -0.055291 -0.031757 0.186451
v -0.038280 -0.033435 0.194776
v -0.019701 -0.034457 0.199855
v 0.054017 -0.049408 0.181842
v 0.037226 -0.051496 0.189754
v 0.036210 -0.068058 0.181859
v 0.052231 -0.065427 0.174878
v 0.018846 -0.052924 0.194499
v 0.018404 -0.069945 0.185989
v 0.035034 -0.082282 0.171437
v 0.049877 -0.078781 0.166079
v 0.017947 -0.084764 0.174626
v -0.000326 -0.053449 0.196059
v -0.000312 -0.070652 0.187336
v -0.000291 -0.085668 0.175674
v -0.019492 -0.052916 0.194421
v -0.037851 -0.051481 0.189603
v -0.036810 -0.068044 0.181711
v -0.019022 -0.069938 0.185913
v -0.054610 -0.049386 0.181623
v -0.052801 -0.065406 0.174666
v -0.035598 -0.082268 0.171295
v -0.018525 -0.084756 0.174552
v -0.050418 -0.078761 0.165877
v -0.051398 0.067024 -0.003423
v -0.095116 0.061256 0.025084
v -0.081252 0.387755 0.105311
v -0.043947 0.392676 0.080987
v -0.106219 0.380383 0.141777
v -0.115049 0.371683 0.184834
v -0.102866 0.387392 0.188032
v -0.094974 0.395168 0.149545
v -0.085655 0.397886 0.190187
v -0.079085 0.404358 0.158155
v -0.066033 0.401569 0.190972
v -0.060973 0.406554 0.166296
v 0.000122 0.069042 -0.013360
v 0.000014 0.394398 0.072508
v -0.072656 0.401758 0.116948
v -0.060510 0.409842 0.131025
v -0.046664 0.410779 0.145398
v 0.051601 0.067003 -0.003215
v 0.043941 0.392658 0.081165
v -0.039310 0.406157 0.095205
v -0.032757 0.413504 0.112928
v -0.025285 0.413599 0.131457
v 0.095202 0.061218 0.025468
v 0.081145 0.387722 0.105639
v -0.000013 0.407696 0.087626
v -0.000050 0.414785 0.106620
v -0.000091 0.414586 0.126598
v 0.124286 0.052567 0.068322
v 0.105962 0.380340 0.142206
v 0.039252 0.406141 0.095364
v 0.032630 0.413491 0.113060
v 0.025083 0.413589 0.131559
v 0.134426 0.042367 0.118823
v 0.114614 0.371637 0.185298
v 0.072507 0.401728 0.117242
v 0.060308 0.409818 0.131269
v 0.046405 0.410760 0.145586
v 0.124078 0.032172 0.169282
v 0.105784 0.362938 0.228354
v 0.094691 0.395130 0.149928
v 0.078772 0.404326 0.158473
v 0.060627 0.406530 0.166542
v 0.094817 0.023533 0.212018
v 0.080817 0.355566 0.264820
v 0.102425 0.387350 0.188447
v 0.085209 0.397852 0.190533
v 0.065586 0.401542 0.191238
v 0.051099 0.017765 0.240524
v 0.043512 0.350644 0.289144
v 0.094532 0.379574 0.226934
v 0.078640 0.391379 0.222565
v 0.060526 0.396556 0.215913
v -0.000422 0.015747 0.250461
v -0.000449 0.348922 0.297623
v 0.072214 0.372985 0.259530
v 0.060064 0.385895 0.249695
v 0.046217 0.392332 0.236812
v -0.051900 0.017786 0.240316
v -0.044376 0.350662 0.288967
v 0.038868 0.368585 0.281273
v 0.032311 0.382233 0.267792
v 0.024838 0.389511 0.250752
v -0.095501 0.023572 0.211634
v -0.081580 0.355598 0.264492
v -0.000428 0.367046 0.288853
v -0.000396 0.380952 0.274100
v -0.000357 0.388524 0.255611
v -0.124585 0.032222 0.168780
v -0.106397 0.362980 0.227925
v -0.039693 0.368601 0.281115
v -0.033076 0.382247 0.267660
v -0.025531 0.389521 0.250650
v -0.134725 0.042422 0.118279
v -0.072949 0.373014 0.259237
v -0.060754 0.385919 0.249451
v -0.046852 0.392350 0.236624
v -0.095132 0.379612 0.226551
v -0.079217 0.391411 0.222246
v -0.061075 0.396581 0.215668
v -0.124377 0.052617 0.067820
v -0.118838 0.034413 0.066495
v -0.128725 0.024672 0.114706
v -0.098930 0.019626 0.071967
v -0.107159 0.011518 0.112093
v -0.076240 0.013141 0.080300
v -0.082579 0.006896 0.111210
v -0.090882 0.042668 0.025663
v -0.075662 0.026496 0.037983
v -0.058316 0.018433 0.054121
v -0.049111 0.048178 -0.001573
v -0.040897 0.031082 0.015314
v -0.031536 0.021966 0.036659
v 0.000114 0.050106 -0.011068
v 0.000073 0.032687 0.007412
v 0.000024 0.023202 0.030572
v 0.049299 0.048158 -0.001375
v 0.041010 0.031065 0.015480
v 0.031559 0.021953 0.036787
v 0.090957 0.042631 0.026030
v 0.075681 0.026465 0.038289
v 0.058267 0.018410 0.054357
v 0.118745 0.034365 0.066975
v 0.098809 0.019586 0.072367
v 0.076083 0.013110 0.080608
v 0.128433 0.024620 0.115225
v 0.106873 0.011475 0.112525
v 0.082294 0.006862 0.111543
v 0.118546 0.014879 0.163436
v 0.098644 0.003368 0.152651
v 0.075955 0.000617 0.142453
v 0.090590 0.006625 0.204268
v 0.075376 -0.003502 0.186636
v 0.058031 -0.004675 0.168632
v 0.048819 0.001114 0.231505
v 0.040610 -0.008089 0.209304
v 0.031251 -0.008208 0.186094
v -0.000406 -0.000814 0.240999
v -0.000359 -0.009694 0.217206
v -0.000309 -0.009444 0.192181
v -0.049591 0.001134 0.231306
v -0.041296 -0.008072 0.209139
v -0.031843 -0.008195 0.185966
v -0.091249 0.006662 0.203901
v -0.075968 -0.003472 0.186330
v -0.058552 -0.004652 0.168396
v -0.119037 0.014927 0.162957
v -0.099096 0.003407 0.152252
v -0.076368 0.000648 0.142145
f 1 2 3
f 1 3 4
f 2 5 6
f 2 6 3
f 4 3 7
f 4 7 8
f 3 6 9
f 3 9 7
f 10 11 1
f 10 1 12
f 11 13 2
f 11 2 1
f 13 14 5
f 13 5 2
f 14 15 16
f 14 16 5
f 5 16 17
f 5 17 6
f 6 17 18
f 6 18 9
f 9 18 19
f 9 19 20
f 7 9 20
f 7 20 21
f 8 7 21
f 8 21 22
f 23 8 22
f 23 22 24
f 25 4 8
f 25 8 23
f 12 1 4
f 12 4 25
f 26 27 28
f 26 28 29
f 27 30 31
f 27 31 28
f 29 28 32
f 29 32 33
f 28 31 34
f 28 34 32
f 15 35 26
f 15 26 16
f 35 36 27
f 35 27 26
f 36 37 30
f 36 30 27
f 37 38 39
f 37 39 30
f 30 39 40
f 30 40 31
f 31 40 41
f 31 41 34
f 34 41 42
f 34 42 43
f 32 34 43
f 32 43 44
f 33 32 44
f 33 44 45
f 18 33 45
f 18 45 19
f 17 29 33
f 17 33 18
f 16 26 29
f 16 29 17
f 46 47 48
f 46 48 49
f 47 50 51
f 47 51 48
f 49 48 52
f 49 52 53
f 48 51 54
f 48 54 52
f 24 22 46
f 24 46 55
f 22 21 47
f 22 47 46
f 21 20 50
f 21 50 47
f 20 19 56
f 20 56 50
f 50 56 57
f 50 57 51
f 51 57 58
f 51 58 54
f 54 58 59
f 54 59 60
f 52 54 60
f 52 60 61
f 53 52 61
f 53 61 62
f 63 53 62
f 63 62 64
f 65 49 53
f 65 53 63
f 55 46 49
f 55 49 65
f 66 67 68
f 66 68 69
f 67 70 71
f 67 71 68
f 69 68 72
f 69 72 73
f 68 71 74
f 68 74 72
f 19 45 66
f 19 66 56
f 45 44 67
f 45 67 66
f 44 43 70
f 44 70 67
f 43 42 75
f 43 75 70
f 70 75 76
f 70 76 71
f 71 76 77
f 71 77 74
f 74 77 78
f 74 78 79
f 72 74 79
f 72 79 80
f 73 72 80
f 73 80 81
f 58 73 81
f 58 81 59
f 57 69 73
f 57 73 58
f 56 66 69
f 56 69 57
f 82 83 84
f 82 84 85
f 83 86 87
f 83 87 84
f 85 84 88
f 85 88 89
f 84 87 90
f 84 90 88
f 38 91 82
f 38 82 39
f 91 92 83
f 91 83 82
f 92 93 86
f 92 86 83
f 93 94 95
f 93 95 86
f 86 95 96
f 86 96 87
f 87 96 97
f 87 97 90
f 90 97 98
f 90 98 99
f 88 90 99
f 88 99 100
f 89 88 100
f 89 100 101
f 41 89 101
f 41 101 42
f 40 85 89
f 40 89 41
f 39 82 85
f 39 85 40
f 102 103 104
f 102 104 105
f 103 106 107
f 103 107 104
f 105 104 108
f 105 108 109
f 104 107 110
f 104 110 108
f 94 111 102
f 94 102 95
f 111 112 103
f 111 103 102
f 112 113 106
f 112 106 103
f 113 114 115
f 113 115 106
f 106 115 116
f 106 116 107
f 107 116 117
f 107 117 110
f 110 117 118
f 110 118 119
f 108 110 119
f 108 119 120
f 109 108 120
f 109 120 121
f 97 109 121
f 97 121 98
f 96 105 109
f 96 109 97
f 95 102 105
f 95 105 96
f 122 123 124
f 122 124 125
f 123 126 127
f 123 127 124
f 125 124 128
f 125 128 129
f 124 127 130
f 124 130 128
f 42 101 122
f 42 122 75
f 101 100 123
f 101 123 122
f 100 99 126
f 100 126 123
f 99 98 131
f 99 131 126
f 126 131 132
f 126 132 127
f 127 132 133
f 127 133 130
f 130 133 134
f 130 134 135
f 128 130 135
f 128 135 136
f 129 128 136
f 129 136 137
f 77 129 137
f 77 137 78
f 76 125 129
f 76 129 77
f 75 122 125
f 75 125 76
f 138 139 140
f 138 140 141
f 139 142 143
f 139 143 140
f 141 140 144
f 141 144 145
f 140 143 146
f 140 146 144
f 98 121 138
f 98 138 131
f 121 120 139
f 121 139 138
f 120 119 142
f 120 142 139
f 119 118 147
f 119 147 142
f 142 147 148
f 142 148 143
f 143 148 149
f 143 149 146
f 146 149 150
f 146 150 151
f 144 146 151
f 144 151 152
f 145 144 152
f 145 152 153
f 133 145 153
f 133 153 134
f 132 141 145
f 132 145 133
f 131 138 141
f 131 141 132
f 154 155 156
f 154 156 157
f 155 158 159
f 155 159 156
f 157 156 160
f 157 160 161
f 156 159 162
f 156 162 160
f 114 163 154
f 114 154 115
f 163 164 155
f 163 155 154
f 164 165 158
f 164 158 155
f 165 166 167
f 165 167 158
f 158 167 168
f 158 168 159
f 159 168 169
f 159 169 162
f 162 169 170
f 162 170 171
f 160 162 171
f 160 171 172
f 161 160 172
f 161 172 173
f 117 161 173
f 117 173 118
f 116 157 161
f 116 161 117
f 115 154 157
f 115 157 116
f 174 175 176
f 174 176 177
f 175 178 179
f 175 179 176
f 177 176 180
f 177 180 181
f 176 179 182
f 176 182 180
f 166 183 174
f 166 174 167
f 183 184 175
f 183 175 174
f 184 185 178
f 184 178 175
f 185 186 187
f 185 187 178
f 178 187 188
f 178 188 179
f 179 188 189
f 179 189 182
f 182 189 190
f 182 190 191
f 180 182 191
f 180 191 192
f 181 180 192
f 181 192 193
f 169 181 193
f 169 193 170
f 168 177 181
f 168 181 169
f 167 174 177
f 167 177 168
f 194 195 196
f 194 196 197
f 195 198 199
f 195 199 196
f 197 196 200
f 197 200 201
f 196 199 202
f 196 202 200
f 118 173 194
f 118 194 147
f 173 172 195
f 173 195 194
f 172 171 198
f 172 198 195
f 171 170 203
f 171 203 198
f 198 203 204
f 198 204 199
f 199 204 205
f 199 205 202
f 202 205 206
f 202 206 207
f 200 202 207
f 200 207 208
f 201 200 208
f 201 208 209
f 149 201 209
f 149 209 150
f 148 197 201
f 148 201 149
f 147 194 197
f 147 197 148
f 210 211 212
f 210 212 213
f 211 214 215
f 211 215 212
f 213 212 216
f 213 216 217
f 212 215 218
f 212 218 216
f 170 193 210
f 170 210 203
f 193 192 211
f 193 211 210
f 192 191 214
f 192 214 211
f 191 190 219
f 191 219 214
f 214 219 220
f 214 220 215
f 215 220 221
f 215 221 218
f 218 221 222
f 218 222 223
f 216 218 223
f 216 223 224
f 217 216 224
f 217 224 225
f 205 217 225
f 205 225 206
f 204 213 217
f 204 217 205
f 203 210 213
f 203 213 204
f 226 227 228
f 226 228 229
f 227 230 231
f 227 231 228
f 229 228 232
f 229 232 233
f 228 231 234
f 228 234 232
f 186 235 226
f 186 226 187
f 235 236 227
f 235 227 226
f 236 237 230
f 236 230 227
f 237 238 239
f 237 239 230
f 230 239 240
f 230 240 231
f 231 240 241
f 231 241 234
f 234 241 242
f 234 242 243
f 232 234 243
f 232 243 244
f 233 232 244
f 233 244 245
f 189 233 245
f 189 245 190
f 188 229 233
f 188 233 189
f 187 226 229
f 187 229 188
f 246 247 248
f 246 248 249
f 247 250 251
f 247 251 248
f 249 248 252
f 249 252 253
f 248 251 254
f 248 254 252
f 238 255 246
f 238 246 239
f 255 256 247
f 255 247 246
f 256 257 250
f 256 250 247
f 257 10 12
f 257 12 250
f 250 12 25
f 250 25 251
f 251 25 23
f 251 23 254
f 254 23 24
f 254 24 258
f 252 254 258
f 252 258 259
f 253 252 259
f 253 259 260
f 241 253 260
f 241 260 242
f 240 249 253
f 240 253 241
f 239 246 249
f 239 249 240
f 261 262 263
f 261 263 264
f 262 265 266
f 262 266 263
f 264 263 267
f 264 267 268
f 263 266 269
f 263 269 267
f 190 245 261
f 190 261 219
f 245 244 262
f 245 262 261
f 244 243 265
f 244 265 262
f 243 242 270
f 243 270 265
f 265 270 271
f 265 271 266
f 266 271 272
f 266 272 269
f 269 272 273
f 269 273 274
f 267 269 274
f 267 274 275
f 268 267 275
f 268 275 276
f 221 268 276
f 221 276 222
f 220 264 268
f 220 268 221
f 219 261 264
f 219 264 220
f 277 278 279
f 277 279 280
f 278 281 282
f 278 282 279
f 280 279 283
f 280 283 284
f 279 282 285
f 279 285 283
f 242 260 277
f 242 277 270
f 260 259 278
f 260 278 277
f 259 258 281
f 259 281 278
f 258 24 55
f 258 55 281
f 281 55 65
f 281 65 282
f 282 65 63
f 282 63 285
f 285 63 64
f 285 64 286
f 283 285 286
f 283 286 287
f 284 283 287
f 284 287 288
f 272 284 288
f 272 288 273
f 271 280 284
f 271 284 272
f 270 277 280
f 270 280 271
f 289 290 291
f 289 291 292
f 290 293 294
f 290 294 291
f 292 291 295
f 292 295 296
f 291 294 297
f 291 297 295
f 186 185 289
f 186 289 235
f 185 184 290
f 185 290 289
f 184 183 293
f 184 293 290
f 183 166 298
f 183 298 293
f 293 298 299
f 293 299 294
f 294 299 300
f 294 300 297
f 297 300 301
f 297 301 302
f 295 297 302
f 295 302 303
f 296 295 303
f 296 303 304
f 237 296 304
f 237 304 238
f 236 292 296
f 236 296 237
f 235 289 292
f 235 292 236
f 305 306 307
f 305 307 308
f 306 309 310
f 306 310 307
f 308 307 311
f 308 311 312
f 307 310 313
f 307 313 311
f 166 165 305
f 166 305 298
f 165 164 306
f 165 306 305
f 164 163 309
f 164 309 306
f 163 114 113
f 163 113 309
f 309 113 112
f 309 112 310
f 310 112 111
f 310 111 313
f 313 111 94
f 313 94 314
f 311 313 314
f 311 314 315
f 312 311 315
f 312 315 316
f 300 312 316
f 300 316 301
f 299 308 312
f 299 312 300
f 298 305 308
f 298 308 299
f 317 318 319
f 317 319 320
f 318 321 322
f 318 322 319
f 320 319 323
f 320 323 324
f 319 322 325
f 319 325 323
f 238 304 317
f 238 317 255
f 304 303 318
f 304 318 317
f 303 302 321
f 303 321 318
f 302 301 326
f 302 326 321
f 321 326 327
f 321 327 322
f 322 327 328
f 322 328 325
f 325 328 15
f 325 15 14
f 323 325 14
f 323 14 13
f 324 323 13
f 324 13 11
f 257 324 11
f 257 11 10
f 256 320 324
f 256 324 257
f 255 317 320
f 255 320 256
f 329 330 331
f 329 331 332
f 330 333 334
f 330 334 331
f 332 331 335
f 332 335 336
f 331 334 337
f 331 337 335
f 301 316 329
f 301 329 326
f 316 315 330
f 316 330 329
f 315 314 333
f 315 333 330
f 314 94 93
f 314 93 333
f 333 93 92
f 333 92 334
f 334 92 91
f 334 91 337
f 337 91 38
f 337 38 37
f 335 337 37
f 335 37 36
f 336 335 36
f 336 36 35
f 328 336 35
f 328 35 15
f 327 332 336
f 327 336 328
f 326 329 332
f 326 332 327
f 338 339 340
f 338 340 341
f 339 342 343
f 339 343 340
f 341 340 344
f 341 344 345
f 340 343 346
f 340 346 344
f 64 62 338
f 64 338 286
f 62 61 339
f 62 339 338
f 61 60 342
f 61 342 339
f 60 59 347
f 60 347 342
f 342 347 348
f 342 348 343
f 343 348 349
f 343 349 346
f 346 349 350
f 346 350 351
f 344 346 351
f 344 351 352
f 345 344 352
f 345 352 353
f 288 345 353
f 288 353 273
f 287 341 345
f 287 345 288
f 286 338 341
f 286 341 287
f 354 355 356
f 354 356 357
f 355 358 359
f 355 359 356
f 357 356 360
f 357 360 361
f 356 359 362
f 356 362 360
f 59 81 354
f 59 354 347
f 81 80 355
f 81 355 354
f 80 79 358
f 80 358 355
f 79 78 137
f 79 137 358
f 358 137 136
f 358 136 359
f 359 136 135
f 359 135 362
f 362 135 134
f 362 134 363
f 360 362 363
f 360 363 364
f 361 360 364
f 361 364 365
f 349 361 365
f 349 365 350
f 348 357 361
f 348 361 349
f 347 354 357
f 347 357 348
f 366 367 368
f 366 368 369
f 367 370 371
f 367 371 368
f 369 368 372
f 369 372 373
f 368 371 374
f 368 374 372
f 273 353 366
f 273 366 274
f 353 352 367
f 353 367 366
f 352 351 370
f 352 370 367
f 351 350 375
f 351 375 370
f 370 375 376
f 370 376 371
f 371 376 377
f 371 377 374
f 374 377 206
f 374 206 225
f 372 374 225
f 372 225 224
f 373 372 224
f 373 224 223
f 276 373 223
f 276 223 222
f 275 369 373
f 275 373 276
f 274 366 369
f 274 369 275
f 378 379 380
f 378 380 381
f 379 382 383
f 379 383 380
f 381 380 384
f 381 384 385
f 380 383 386
f 380 386 384
f 350 365 378
f 350 378 375
f 365 364 379
f 365 379 378
f 364 363 382
f 364 382 379
f 363 134 153
f 363 153 382
f 382 153 152
f 382 152 383
f 383 152 151
f 383 151 386
f 386 151 150
f 386 150 209
f 384 386 209
f 384 209 208
f 385 384 208
f 385 208 207
f 377 385 207
f 377 207 206
f 376 381 385
f 376 385 377
f 375 378 381
f 375 381 376
f 387 388 389
f 387 389 390
f 391 392 393
f 391 393 394
f 394 393 395
f 394 395 396
f 396 395 397
f 396 397 398
f 399 387 390
f 399 390 400
f 389 391 394
f 389 394 401
f 401 394 396
f 401 396 402
f 402 396 398
f 402 398 403
f 404 399 400
f 404 400 405
f 390 389 401
f 390 401 406
f 406 401 402
f 406 402 407
f 407 402 403
f 407 403 408
f 409 404 405
f 409 405 410
f 400 390 406
f 400 406 411
f 411 406 407
f 411 407 412
f 412 407 408
f 412 408 413
f 414 409 410
f 414 410 415
f 405 400 411
f 405 411 416
f 416 411 412
f 416 412 417
f 417 412 413
f 417 413 418
f 419 414 415
f 419 415 420
f 410 405 416
f 410 416 421
f 421 416 417
f 421 417 422
f 422 417 418
f 422 418 423
f 424 419 420
f 424 420 425
f 415 410 421
f 415 421 426
f 426 421 422
f 426 422 427
f 427 422 423
f 427 423 428
f 429 424 425
f 429 425 430
f 420 415 426
f 420 426 431
f 431 426 427
f 431 427 432
f 432 427 428
f 432 428 433
f 434 429 430
f 434 430 435
f 425 420 431
f 425 431 436
f 436 431 432
f 436 432 437
f 437 432 433
f 437 433 438
f 439 434 435
f 439 435 440
f 430 425 436
f 430 436 441
f 441 436 437
f 441 437 442
f 442 437 438
f 442 438 443
f 444 439 440
f 444 440 445
f 435 430 441
f 435 441 446
f 446 441 442
f 446 442 447
f 447 442 443
f 447 443 448
f 449 444 445
f 449 445 450
f 440 435 446
f 440 446 451
f 451 446 447
f 451 447 452
f 452 447 448
f 452 448 453
f 454 449 450
f 454 450 455
f 445 440 451
f 445 451 456
f 456 451 452
f 456 452 457
f 457 452 453
f 457 453 458
f 459 454 455
f 459 455 392
f 450 445 456
f 450 456 460
f 460 456 457
f 460 457 461
f 461 457 458
f 461 458 462
f 455 450 460
f 455 460 463
f 463 460 461
f 463 461 464
f 464 461 462
f 464 462 465
f 392 455 463
f 392 463 393
f 393 463 464
f 393 464 395
f 395 464 465
f 395 465 397
f 388 466 391
f 388 391 389
f 398 397 465
f 398 465 462
f 398 462 458
f 398 458 453
f 398 453 448
f 398 448 443
f 398 443 438
f 398 438 433
f 398 433 428
f 398 428 423
f 398 423 418
f 398 418 413
f 398 413 408
f 398 408 403
f 466 467 468
f 466 468 459
f 467 469 470
f 467 470 468
f 469 471 472
f 469 472 470
f 388 473 467
f 388 467 466
f 473 474 469
f 473 469 467
f 474 475 471
f 474 471 469
f 387 476 473
f 387 473 388
f 476 477 474
f 476 474 473
f 477 478 475
f 477 475 474
f 399 479 476
f 399 476 387
f 479 480 477
f 479 477 476
f 480 481 478
f 480 478 477
f 404 482 479
f 404 479 399
f 482 483 480
f 482 480 479
f 483 484 481
f 483 481 480
f 409 485 482
f 409 482 404
f 485 486 483
f 485 483 482
f 486 487 484
f 486 484 483
f 414 488 485
f 414 485 409
f 488 489 486
f 488 486 485
f 489 490 487
f 489 487 486
f 419 491 488
f 419 488 414
f 491 492 489
f 491 489 488
f 492 493 490
f 492 490 489
f 424 494 491
f 424 491 419
f 494 495 492
f 494 492 491
f 495 496 493
f 495 493 492
f 429 497 494
f 429 494 424
f 497 498 495
f 497 495 494
f 498 499 496
f 498 496 495
f 434 500 497
f 434 497 429
f 500 501 498
f 500 498 497
f 501 502 499
f 501 499 498
f 439 503 500
f 439 500 434
f 503 504 501
f 503 501 500
f 504 505 502
f 504 502 501
f 444 506 503
f 444 503 439
f 506 507 504
f 506 504 503
f 507 508 505
f 507 505 504
f 449 509 506
f 449 506 444
f 509 510 507
f 509 507 506
f 510 511 508
f 510 508 507
f 454 512 509
f 454 509 449
f 512 513 510
f 512 510 509
f 513 514 511
f 513 511 510
f 459 468 512
f 459 512 454
f 468 470 513
f 468 513 512
f 470 472 514
f 470 514 513
f 471 475 478
f 471 478 481
f 471 481 484
f 471 484 487
f 471 487 490
f 471 490 493
f 471 493 496
f 471 496 499
f 471 499 502
f 471 502 505
f 471 505 508
f 471 508 511
f 471 511 514
f 471 514 472
f 466 459 392
f 466 392 391
