# lizard mesh
v 0.076893 0.116066 -0.054663
v 0.054197 0.125754 -0.056451
v 0.055973 0.131999 -0.030191
v 0.080471 0.120535 -0.030592
v 0.028057 0.131782 -0.058094
v 0.028733 0.139005 -0.030438
v 0.057490 0.133293 -0.002135
v 0.083168 0.120836 -0.003854
v 0.029373 0.140894 -0.001369
v 0.088988 0.099775 -0.070239
v 0.074871 0.106839 -0.074955
v 0.094951 0.102851 -0.055192
v 0.053342 0.114175 -0.079866
v 0.027765 0.119063 -0.083159
v 0.000195 0.120790 -0.084358
v 0.000146 0.133858 -0.058786
v 0.000091 0.141386 -0.030675
v 0.000031 0.143469 -0.001224
v -0.000029 0.140203 0.028364
v 0.029621 0.137593 0.027898
v 0.058078 0.129869 0.026397
v 0.084144 0.117174 0.023886
v 0.105221 0.103679 -0.006927
v 0.106626 0.099652 0.020393
v 0.101129 0.104684 -0.032834
v -0.027769 0.131793 -0.058207
v -0.053918 0.125775 -0.056669
v -0.055797 0.132022 -0.030417
v -0.028554 0.139016 -0.030553
v -0.076625 0.116097 -0.054973
v -0.080298 0.120568 -0.030917
v -0.057427 0.133316 -0.002367
v -0.029310 0.140906 -0.001488
v -0.083103 0.120870 -0.004190
v -0.027381 0.119074 -0.083271
v -0.052973 0.114197 -0.080081
v -0.074525 0.106869 -0.075257
v -0.088663 0.099811 -0.070598
v -0.094686 0.102889 -0.055575
v -0.100954 0.104725 -0.033242
v -0.105150 0.103722 -0.007352
v -0.106667 0.099695 0.019962
v -0.084193 0.117208 0.023546
v -0.058131 0.129892 0.026162
v -0.029678 0.137605 0.027778
v 0.083055 0.109782 0.050868
v 0.057374 0.121950 0.054017
v 0.055747 0.109867 0.079365
v 0.080252 0.099128 0.075382
v 0.029254 0.129274 0.056151
v 0.028501 0.116250 0.082204
v 0.053872 0.093920 0.101134
v 0.076583 0.085668 0.095816
v 0.027722 0.098858 0.104885
v 0.105109 0.092760 0.047127
v -0.000088 0.131728 0.056901
v -0.000144 0.118375 0.083233
v -0.000194 0.100525 0.106218
v -0.000236 0.078556 0.124712
v 0.027340 0.077408 0.123046
v 0.052934 0.074161 0.118215
v 0.074488 0.069289 0.110927
v 0.094649 0.073269 0.091245
v 0.088629 0.064598 0.103894
v 0.100915 0.083633 0.071376
v -0.029428 0.129286 0.056033
v -0.057543 0.121973 0.053785
v -0.056023 0.109890 0.079140
v -0.028786 0.116261 0.082088
v -0.083216 0.109815 0.050532
v -0.080516 0.099160 0.075057
v -0.054242 0.093942 0.100916
v -0.028105 0.098870 0.104772
v -0.076935 0.085699 0.095506
v -0.105261 0.092802 0.046702
v -0.101168 0.083674 0.070968
v -0.094987 0.073307 0.090862
v -0.089022 0.064634 0.103535
v -0.074908 0.069319 0.110625
v -0.053381 0.074182 0.118001
v -0.027806 0.077419 0.122935
v -0.107740 0.085598 -0.061198
v -0.116874 0.064066 -0.069265
v -0.128245 0.061008 -0.044912
v -0.116933 0.084658 -0.038246
v -0.122452 0.038985 -0.077150
v -0.135060 0.034619 -0.051862
v -0.135124 0.057158 -0.017912
v -0.122575 0.082179 -0.012087
v -0.142724 0.029737 -0.024179
v -0.094641 0.087151 -0.079281
v -0.100847 0.067270 -0.089659
v -0.104978 0.043014 -0.098796
v -0.106430 0.016277 -0.105690
v -0.124348 0.011829 -0.083694
v -0.137346 0.006671 -0.058172
v -0.145277 0.001038 -0.030296
v -0.147994 -0.004832 -0.001239
v -0.145343 0.024230 0.004637
v -0.137475 0.052120 0.010288
v -0.124535 0.077665 0.015475
v -0.122441 -0.015736 -0.088204
v -0.116852 -0.041909 -0.090673
v -0.128223 -0.048549 -0.067043
v -0.135048 -0.021534 -0.063205
v -0.107709 -0.064881 -0.091596
v -0.116900 -0.072927 -0.070080
v -0.135101 -0.055484 -0.040666
v -0.142713 -0.027784 -0.035799
v -0.122541 -0.080800 -0.045010
v -0.104967 -0.011040 -0.109715
v -0.100826 -0.036939 -0.110711
v -0.094611 -0.059287 -0.108863
v -0.088627 -0.074322 -0.105774
v -0.094647 -0.082993 -0.093125
v -0.100913 -0.093357 -0.073256
v -0.105108 -0.102484 -0.049007
v -0.106624 -0.109376 -0.022272
v -0.124501 -0.087339 -0.017858
v -0.137452 -0.061788 -0.012723
v -0.145331 -0.033896 -0.007105
v -0.122687 0.071125 0.042635
v -0.135240 0.045815 0.038240
v -0.128471 0.038877 0.064645
v -0.117151 0.063250 0.067728
v -0.142843 0.018117 0.033342
v -0.135292 0.011864 0.060779
v -0.117199 0.032232 0.088320
v -0.108050 0.055200 0.089280
v -0.122788 0.006062 0.085829
v -0.145397 -0.010704 0.027829
v -0.137581 -0.016340 0.055736
v -0.124688 -0.021503 0.081311
v -0.106861 -0.025958 0.103380
v -0.105403 0.001358 0.107410
v -0.101255 0.027256 0.108422
v -0.095024 0.049601 0.106600
v -0.142831 -0.039403 0.021722
v -0.135217 -0.066827 0.015486
v -0.128448 -0.070680 0.042513
v -0.135281 -0.044288 0.049436
v -0.122654 -0.091854 0.009711
v -0.117119 -0.094335 0.035894
v -0.117177 -0.073742 0.066912
v -0.122777 -0.048660 0.074774
v -0.108019 -0.095279 0.058882
v -0.105219 -0.113404 0.005047
v -0.101127 -0.114408 0.030954
v -0.094949 -0.112575 0.053312
v -0.088986 -0.109499 0.068359
v -0.094994 -0.096837 0.077018
v -0.101234 -0.076954 0.087371
v -0.105391 -0.052696 0.096491
v -0.076581 -0.095392 -0.097696
v -0.053870 -0.103644 -0.103014
v -0.055745 -0.119592 -0.081245
v -0.080250 -0.108852 -0.077262
v -0.027720 -0.108582 -0.106765
v -0.028499 -0.125974 -0.084084
v -0.057372 -0.131674 -0.055897
v -0.083053 -0.119506 -0.052748
v -0.029252 -0.138998 -0.058031
v -0.074486 -0.079013 -0.112807
v -0.052932 -0.083885 -0.120095
v -0.027338 -0.087132 -0.124926
v 0.000238 -0.088280 -0.126592
v 0.000196 -0.110249 -0.108098
v 0.000146 -0.128099 -0.085113
v 0.000090 -0.141452 -0.058781
v 0.000031 -0.149927 -0.030244
v -0.029620 -0.147317 -0.029778
v -0.058076 -0.139593 -0.028277
v -0.084142 -0.126898 -0.025766
v 0.028107 -0.108594 -0.106652
v 0.054244 -0.103666 -0.102796
v 0.056025 -0.119614 -0.081020
v 0.028787 -0.125986 -0.083968
v 0.076937 -0.095423 -0.097386
v 0.080518 -0.108884 -0.076937
v 0.057545 -0.131697 -0.055665
v 0.029430 -0.139010 -0.057913
v 0.083217 -0.119539 -0.052412
v 0.027808 -0.087143 -0.124815
v 0.053383 -0.083907 -0.119881
v 0.074909 -0.079043 -0.112505
v 0.089023 -0.074358 -0.105415
v 0.094989 -0.083031 -0.092742
v 0.101170 -0.093398 -0.072848
v 0.105263 -0.102527 -0.048582
v 0.106669 -0.109419 -0.021842
v 0.084195 -0.126933 -0.025426
v 0.058133 -0.139616 -0.028042
v 0.029680 -0.147329 -0.029658
v -0.083166 -0.130560 0.001974
v -0.057488 -0.143017 0.000255
v -0.055971 -0.141723 0.028311
v -0.080469 -0.130259 0.028712
v -0.029371 -0.150618 -0.000511
v -0.028731 -0.148729 0.028558
v -0.054195 -0.135478 0.054571
v -0.076891 -0.125791 0.052783
v -0.028056 -0.141506 0.056214
v -0.000030 -0.153194 -0.000656
v -0.000089 -0.151110 0.028795
v -0.000144 -0.143582 0.056906
v -0.000193 -0.130514 0.082478
v -0.027763 -0.128787 0.081279
v -0.053340 -0.123899 0.077986
v -0.074869 -0.116563 0.073075
v 0.029312 -0.150630 -0.000392
v 0.057429 -0.143040 0.000487
v 0.055799 -0.141746 0.028537
v 0.028555 -0.148740 0.028673
v 0.083105 -0.130594 0.002310
v 0.080300 -0.130292 0.029037
v 0.053920 -0.135500 0.054789
v 0.027771 -0.141517 0.056327
v 0.076627 -0.125822 0.053093
v 0.105152 -0.113446 0.005472
v 0.100955 -0.114449 0.031362
v 0.094687 -0.112613 0.053695
v 0.088665 -0.109535 0.068718
v 0.074526 -0.116593 0.073377
v 0.052975 -0.123921 0.078201
v 0.027383 -0.128798 0.081391
v 0.108052 -0.064924 -0.091160
v 0.117201 -0.041956 -0.090200
v 0.128473 -0.048601 -0.066525
v 0.117153 -0.072975 -0.069607
v 0.122790 -0.015786 -0.087709
v 0.135294 -0.021588 -0.062659
v 0.135242 -0.055539 -0.040120
v 0.122689 -0.080849 -0.044515
v 0.142845 -0.027841 -0.035222
v 0.095026 -0.059325 -0.108480
v 0.101257 -0.036980 -0.110302
v 0.105404 -0.011083 -0.109290
v 0.106863 0.016233 -0.105260
v 0.124690 0.011779 -0.083191
v 0.137582 0.006615 -0.057616
v 0.145399 0.000980 -0.029709
v 0.147996 -0.004892 -0.000641
v 0.145345 -0.033954 -0.006517
v 0.137477 -0.061844 -0.012168
v 0.124537 -0.087389 -0.017355
v 0.122778 0.038936 -0.076654
v 0.117179 0.064018 -0.068792
v 0.128450 0.060956 -0.044393
v 0.135282 0.034564 -0.051316
v 0.108021 0.085555 -0.060762
v 0.117121 0.084611 -0.037774
v 0.135218 0.057103 -0.017366
v 0.142833 0.029679 -0.023602
v 0.122656 0.082130 -0.011591
v 0.105393 0.042972 -0.098371
v 0.101236 0.067230 -0.089251
v 0.094996 0.087113 -0.078898
v 0.124503 0.077615 0.015978
v 0.137453 0.052064 0.010843
v 0.145333 0.024171 0.005225
v 0.122577 -0.091903 0.010207
v 0.135126 -0.066882 0.016032
v 0.128247 -0.070732 0.043032
v 0.116935 -0.094382 0.036367
v 0.142726 -0.039461 0.022299
v 0.135062 -0.044343 0.049982
v 0.116876 -0.073790 0.067385
v 0.107742 -0.095322 0.059318
v 0.122454 -0.048709 0.075270
v 0.145279 -0.010762 0.028416
v 0.137348 -0.016395 0.056292
v 0.124350 -0.021553 0.081814
v 0.106432 -0.026001 0.103810
v 0.104980 -0.052738 0.096916
v 0.100849 -0.076995 0.087779
v 0.094643 -0.096875 0.077402
v 0.142714 0.018060 0.033919
v 0.135103 0.045760 0.038786
v 0.128224 0.038825 0.065163
v 0.135050 0.011809 0.061326
v 0.122543 0.071075 0.043130
v 0.116902 0.063203 0.068200
v 0.116854 0.032185 0.088793
v 0.122443 0.006012 0.086324
v 0.107711 0.055157 0.089716
v 0.094613 0.049563 0.106983
v 0.100827 0.027215 0.108831
v 0.104968 0.001316 0.107835
v 0.076993 -0.058756 -0.121729
v 0.054311 -0.060493 -0.131457
v 0.056156 -0.034238 -0.137699
v 0.080632 -0.034693 -0.126191
v 0.028179 -0.062078 -0.137533
v 0.028929 -0.034424 -0.144754
v 0.057738 -0.006185 -0.138990
v 0.083390 -0.007961 -0.126487
v 0.029636 -0.005357 -0.146642
v 0.000269 -0.062708 -0.139659
v 0.000290 -0.034597 -0.147188
v 0.000300 -0.005147 -0.149271
v 0.000300 0.024442 -0.146005
v 0.029944 0.023910 -0.143340
v 0.058383 0.022345 -0.135565
v 0.084421 0.019777 -0.122823
v -0.027648 -0.062067 -0.137645
v -0.053804 -0.060471 -0.131676
v -0.055613 -0.034215 -0.137925
v -0.028358 -0.034412 -0.144870
v -0.076525 -0.058725 -0.122039
v -0.080136 -0.034661 -0.126516
v -0.057179 -0.006161 -0.139222
v -0.029046 -0.005345 -0.146761
v -0.082881 -0.007927 -0.126822
v -0.083916 0.019811 -0.123163
v -0.057826 0.022369 -0.135800
v -0.029355 0.023922 -0.143460
v 0.083378 0.046761 -0.115432
v 0.057727 0.049968 -0.127647
v 0.056134 0.075319 -0.115568
v 0.080611 0.071281 -0.104783
v 0.029625 0.052164 -0.135023
v 0.028905 0.078218 -0.122000
v 0.054278 0.097092 -0.099623
v 0.076962 0.091723 -0.091331
v 0.028145 0.100901 -0.104609
v 0.000288 0.052979 -0.137529
v 0.000267 0.079311 -0.124177
v 0.000235 0.102296 -0.106327
v -0.029058 0.052176 -0.135141
v -0.057190 0.049991 -0.127879
v -0.055636 0.075342 -0.115793
v -0.028381 0.078230 -0.122115
v -0.082892 0.046794 -0.115768
v -0.080158 0.071314 -0.105108
v -0.053836 0.097114 -0.099842
v -0.027682 0.100912 -0.104722
v -0.076556 0.091754 -0.091641
v 0.076527 0.049000 0.120159
v 0.053806 0.050747 0.129796
v 0.055615 0.024491 0.136045
v 0.080138 0.024936 0.124636
v 0.027650 0.052343 0.135765
v 0.028359 0.024688 0.142990
v 0.057181 -0.003563 0.137342
v 0.082883 -0.001797 0.124942
v 0.029048 -0.004379 0.144881
v -0.000268 0.052984 0.137779
v -0.000288 0.024873 0.145308
v -0.000299 -0.004578 0.147391
v -0.000298 -0.034167 0.144125
v 0.029357 -0.033646 0.141580
v 0.057828 -0.032093 0.133920
v 0.083918 -0.029535 0.121283
v -0.028177 0.052354 0.135653
v -0.054309 0.050769 0.129577
v -0.056155 0.024514 0.135819
v -0.028927 0.024699 0.142874
v -0.076992 0.049031 0.119849
v -0.080631 0.024969 0.124311
v -0.057736 -0.003540 0.137110
v -0.029635 -0.004367 0.144762
v -0.083388 -0.001764 0.124607
v -0.084419 -0.029501 0.120943
v -0.058381 -0.032070 0.133685
v -0.029943 -0.033634 0.141460
v 0.082894 -0.056519 0.113888
v 0.057192 -0.059715 0.125999
v 0.055638 -0.085066 0.113913
v 0.080160 -0.081038 0.103228
v 0.029060 -0.061900 0.133261
v 0.028383 -0.087954 0.120235
v 0.053838 -0.106838 0.097962
v 0.076558 -0.101478 0.089761
v 0.027683 -0.110636 0.102842
v -0.000287 -0.062703 0.135649
v -0.000265 -0.089036 0.122297
v -0.000234 -0.112020 0.104447
v -0.029623 -0.061888 0.133143
v -0.057725 -0.059692 0.125767
v -0.056132 -0.085043 0.113688
v -0.028904 -0.087942 0.120120
v -0.083376 -0.056485 0.113552
v -0.080609 -0.081005 0.102903
v -0.054277 -0.106816 0.097743
v -0.028143 -0.110625 0.102729
v -0.076961 -0.101447 0.089451
v -0.062425 0.109444 -0.132443
v -0.115663 0.102421 -0.097729
v -0.098779 0.500020 -0.000031
v -0.053351 0.506013 -0.029652
v -0.129184 0.491043 0.044377
v -0.139937 0.480449 0.096809
v -0.125101 0.499578 0.100704
v -0.115490 0.509048 0.053835
v -0.104141 0.512357 0.103329
v -0.096141 0.520239 0.064320
v -0.080247 0.516842 0.104284
v -0.074085 0.522913 0.074235
v 0.000315 0.111902 -0.144544
v 0.000184 0.508110 -0.039978
v -0.088311 0.517072 0.014141
v -0.073521 0.526918 0.031282
v -0.056660 0.528058 0.048785
v 0.063004 0.109419 -0.132190
v 0.053676 0.505991 -0.029436
v -0.047704 0.522429 -0.012337
v -0.039724 0.531377 0.009245
v -0.030625 0.531493 0.031809
v 0.116100 0.102374 -0.097261
v 0.098981 0.499980 0.000369
v 0.000150 0.524304 -0.021567
v 0.000105 0.532937 0.001563
v 0.000056 0.532694 0.025892
v 0.151517 0.091839 -0.045075
v 0.129203 0.490991 0.044898
v 0.047966 0.522410 -0.012144
v 0.039902 0.531361 0.009406
v 0.030712 0.531480 0.031933
v 0.163865 0.079419 0.016423
v 0.139739 0.480392 0.097374
v 0.088463 0.517036 0.014498
v 0.073608 0.526888 0.031580
v 0.056677 0.528035 0.049014
v 0.151264 0.067003 0.077871
v 0.128987 0.469798 0.149807
v 0.115478 0.509001 0.054302
v 0.096092 0.520201 0.064709
v 0.073996 0.522883 0.074534
v 0.115632 0.056483 0.129913
v 0.098582 0.460821 0.194214
v 0.124896 0.499527 0.101209
v 0.103931 0.512316 0.103749
v 0.080035 0.516809 0.104608
v 0.062393 0.049459 0.164628
v 0.053154 0.454828 0.223835
v 0.115285 0.490058 0.148077
v 0.095931 0.504434 0.142758
v 0.073873 0.510738 0.134657
v -0.000347 0.047002 0.176729
v -0.000381 0.452731 0.234161
v 0.088106 0.482033 0.187772
v 0.073311 0.497755 0.175795
v 0.056448 0.505593 0.160106
v -0.063036 0.049485 0.164374
v -0.053873 0.454850 0.223619
v 0.047499 0.476676 0.214250
v 0.039513 0.493296 0.197833
v 0.030413 0.502159 0.177082
v -0.116132 0.056530 0.129445
v -0.099179 0.460861 0.193814
v -0.000355 0.474802 0.223480
v -0.000315 0.491736 0.205515
v -0.000268 0.500957 0.183000
v -0.151549 0.067064 0.077259
v -0.129400 0.469850 0.149285
v -0.048171 0.476695 0.214057
v -0.040112 0.493312 0.197672
v -0.030924 0.502171 0.176958
v -0.163897 0.079485 0.015761
v -0.088668 0.482069 0.187415
v -0.073818 0.497785 0.175498
v -0.056889 0.505616 0.159878
v -0.115683 0.490104 0.147611
v -0.096302 0.504473 0.142369
v -0.074209 0.510768 0.134358
v -0.151296 0.091901 -0.045686
v -0.144551 0.069733 -0.047300
v -0.156591 0.057870 0.011410
v -0.120308 0.051724 -0.040636
v -0.130329 0.041851 0.008228
v -0.092676 0.043828 -0.030488
v -0.100396 0.036222 0.007153
v -0.110506 0.079784 -0.097024
v -0.091973 0.060090 -0.082021
v -0.070849 0.050272 -0.062368
v -0.059640 0.086495 -0.130191
v -0.049637 0.065676 -0.109626
v -0.038237 0.054574 -0.083633
v 0.000305 0.088843 -0.141753
v 0.000255 0.067630 -0.119249
v 0.000196 0.056080 -0.091046
v 0.060201 0.086471 -0.129949
v 0.050106 0.065655 -0.109425
v 0.038597 0.054559 -0.083478
v 0.110931 0.079740 -0.096577
v 0.092328 0.060053 -0.081649
v 0.071122 0.050243 -0.062081
v 0.144770 0.069674 -0.046716
v 0.120493 0.051676 -0.040150
v 0.092818 0.043790 -0.030114
v 0.156568 0.057807 0.012042
v 0.130312 0.041799 0.008754
v 0.100382 0.036182 0.007558
v 0.144528 0.045944 0.070752
v 0.120292 0.031926 0.057618
v 0.092662 0.028576 0.045199
v 0.110483 0.035893 0.120476
v 0.091956 0.023560 0.099003
v 0.070835 0.022132 0.077079
v 0.059617 0.029182 0.153644
v 0.049620 0.017974 0.126609
v 0.038223 0.017829 0.098344
v -0.000328 0.026834 0.165205
v -0.000271 0.016020 0.136231
v -0.000210 0.016324 0.105756
v -0.060224 0.029206 0.153401
v -0.050123 0.017995 0.126407
v -0.038611 0.017845 0.098188
v -0.110954 0.035938 0.120029
v -0.092345 0.023597 0.098631
v -0.071136 0.022160 0.076792
v -0.144793 0.046003 0.070168
v -0.120509 0.031974 0.057132
v -0.092832 0.028614 0.044824
f 1 2 3
f 1 3 4
f 2 5 6
f 2 6 3
f 4 3 7
f 4 7 8
f 3 6 9
f 3 9 7
f 10 11 1
f 10 1 12
f 11 13 2
f 11 2 1
f 13 14 5
f 13 5 2
f 14 15 16
f 14 16 5
f 5 16 17
f 5 17 6
f 6 17 18
f 6 18 9
f 9 18 19
f 9 19 20
f 7 9 20
f 7 20 21
f 8 7 21
f 8 21 22
f 23 8 22
f 23 22 24
f 25 4 8
f 25 8 23
f 12 1 4
f 12 4 25
f 26 27 28
f 26 28 29
f 27 30 31
f 27 31 28
f 29 28 32
f 29 32 33
f 28 31 34
f 28 34 32
f 15 35 26
f 15 26 16
f 35 36 27
f 35 27 26
f 36 37 30
f 36 30 27
f 37 38 39
f 37 39 30
f 30 39 40
f 30 40 31
f 31 40 41
f 31 41 34
f 34 41 42
f 34 42 43
f 32 34 43
f 32 43 44
f 33 32 44
f 33 44 45
f 18 33 45
f 18 45 19
f 17 29 33
f 17 33 18
f 16 26 29
f 16 29 17
f 46 47 48
f 46 48 49
f 47 50 51
f 47 51 48
f 49 48 52
f 49 52 53
f 48 51 54
f 48 54 52
f 24 22 46
f 24 46 55
f 22 21 47
f 22 47 46
f 21 20 50
f 21 50 47
f 20 19 56
f 20 56 50
f 50 56 57
f 50 57 51
f 51 57 58
f 51 58 54
f 54 58 59
f 54 59 60
f 52 54 60
f 52 60 61
f 53 52 61
f 53 61 62
f 63 53 62
f 63 62 64
f 65 49 53
f 65 53 63
f 55 46 49
f 55 49 65
f 66 67 68
f 66 68 69
f 67 70 71
f 67 71 68
f 69 68 72
f 69 72 73
f 68 71 74
f 68 74 72
f 19 45 66
f 19 66 56
f 45 44 67
f 45 67 66
f 44 43 70
f 44 70 67
f 43 42 75
f 43 75 70
f 70 75 76
f 70 76 71
f 71 76 77
f 71 77 74
f 74 77 78
f 74 78 79
f 72 74 79
f 72 79 80
f 73 72 80
f 73 80 81
f 58 73 81
f 58 81 59
f 57 69 73
f 57 73 58
f 56 66 69
f 56 69 57
f 82 83 84
f 82 84 85
f 83 86 87
f 83 87 84
f 85 84 88
f 85 88 89
f 84 87 90
f 84 90 88
f 38 91 82
f 38 82 39
f 91 92 83
f 91 83 82
f 92 93 86
f 92 86 83
f 93 94 95
f 93 95 86
f 86 95 96
f 86 96 87
f 87 96 97
f 87 97 90
f 90 97 98
f 90 98 99
f 88 90 99
f 88 99 100
f 89 88 100
f 89 100 101
f 41 89 101
f 41 101 42
f 40 85 89
f 40 89 41
f 39 82 85
f 39 85 40
f 102 103 104
f 102 104 105
f 103 106 107
f 103 107 104
f 105 104 108
f 105 108 109
f 104 107 110
f 104 110 108
f 94 111 102
f 94 102 95
f 111 112 103
f 111 103 102
f 112 113 106
f 112 106 103
f 113 114 115
f 113 115 106
f 106 115 116
f 106 116 107
f 107 116 117
f 107 117 110
f 110 117 118
f 110 118 119
f 108 110 119
f 108 119 120
f 109 108 120
f 109 120 121
f 97 109 121
f 97 121 98
f 96 105 109
f 96 109 97
f 95 102 105
f 95 105 96
f 122 123 124
f 122 124 125
f 123 126 127
f 123 127 124
f 125 124 128
f 125 128 129
f 124 127 130
f 124 130 128
f 42 101 122
f 42 122 75
f 101 100 123
f 101 123 122
f 100 99 126
f 100 126 123
f 99 98 131
f 99 131 126
f 126 131 132
f 126 132 127
f 127 132 133
f 127 133 130
f 130 133 134
f 130 134 135
f 128 130 135
f 128 135 136
f 129 128 136
f 129 136 137
f 77 129 137
f 77 137 78
f 76 125 129
f 76 129 77
f 75 122 125
f 75 125 76
f 138 139 140
f 138 140 141
f 139 142 143
f 139 143 140
f 141 140 144
f 141 144 145
f 140 143 146
f 140 146 144
f 98 121 138
f 98 138 131
f 121 120 139
f 121 139 138
f 120 119 142
f 120 142 139
f 119 118 147
f 119 147 142
f 142 147 148
f 142 148 143
f 143 148 149
f 143 149 146
f 146 149 150
f 146 150 151
f 144 146 151
f 144 151 152
f 145 144 152
f 145 152 153
f 133 145 153
f 133 153 134
f 132 141 145
f 132 145 133
f 131 138 141
f 131 141 132
f 154 155 156
f 154 156 157
f 155 158 159
f 155 159 156
f 157 156 160
f 157 160 161
f 156 159 162
f 156 162 160
f 114 163 154
f 114 154 115
f 163 164 155
f 163 155 154
f 164 165 158
f 164 158 155
f 165 166 167
f 165 167 158
f 158 167 168
f 158 168 159
f 159 168 169
f 159 169 162
f 162 169 170
f 162 170 171
f 160 162 171
f 160 171 172
f 161 160 172
f 161 172 173
f 117 161 173
f 117 173 118
f 116 157 161
f 116 161 117
f 115 154 157
f 115 157 116
f 174 175 176
f 174 176 177
f 175 178 179
f 175 179 176
f 177 176 180
f 177 180 181
f 176 179 182
f 176 182 180
f 166 183 174
f 166 174 167
f 183 184 175
f 183 175 174
f 184 185 178
f 184 178 175
f 185 186 187
f 185 187 178
f 178 187 188
f 178 188 179
f 179 188 189
f 179 189 182
f 182 189 190
f 182 190 191
f 180 182 191
f 180 191 192
f 181 180 192
f 181 192 193
f 169 181 193
f 169 193 170
f 168 177 181
f 168 181 169
f 167 174 177
f 167 177 168
f 194 195 196
f 194 196 197
f 195 198 199
f 195 199 196
f 197 196 200
f 197 200 201
f 196 199 202
f 196 202 200
f 118 173 194
f 118 194 147
f 173 172 195
f 173 195 194
f 172 171 198
f 172 198 195
f 171 170 203
f 171 203 198
f 198 203 204
f 198 204 199
f 199 204 205
f 199 205 202
f 202 205 206
f 202 206 207
f 200 202 207
f 200 207 208
f 201 200 208
f 201 208 209
f 149 201 209
f 149 209 150
f 148 197 201
f 148 201 149
f 147 194 197
f 147 197 148
f 210 211 212
f 210 212 213
f 211 214 215
f 211 215 212
f 213 212 216
f 213 216 217
f 212 215 218
f 212 218 216
f 170 193 210
f 170 210 203
f 193 192 211
f 193 211 210
f 192 191 214
f 192 214 211
f 191 190 219
f 191 219 214
f 214 219 220
f 214 220 215
f 215 220 221
f 215 221 218
f 218 221 222
f 218 222 223
f 216 218 223
f 216 223 224
f 217 216 224
f 217 224 225
f 205 217 225
f 205 225 206
f 204 213 217
f 204 217 205
f 203 210 213
f 203 213 204
f 226 227 228
f 226 228 229
f 227 230 231
f 227 231 228
f 229 228 232
f 229 232 233
f 228 231 234
f 228 234 232
f 186 235 226
f 186 226 187
f 235 236 227
f 235 227 226
f 236 237 230
f 236 230 227
f 237 238 239
f 237 239 230
f 230 239 240
f 230 240 231
f 231 240 241
f 231 241 234
f 234 241 242
f 234 242 243
f 232 234 243
f 232 243 244
f 233 232 244
f 233 244 245
f 189 233 245
f 189 245 190
f 188 229 233
f 188 233 189
f 187 226 229
f 187 229 188
f 246 247 248
f 246 248 249
f 247 250 251
f 247 251 248
f 249 248 252
f 249 252 253
f 248 251 254
f 248 254 252
f 238 255 246
f 238 246 239
f 255 256 247
f 255 247 246
f 256 257 250
f 256 250 247
f 257 10 12
f 257 12 250
f 250 12 25
f 250 25 251
f 251 25 23
f 251 23 254
f 254 23 24
f 254 24 258
f 252 254 258
f 252 258 259
f 253 252 259
f 253 259 260
f 241 253 260
f 241 260 242
f 240 249 253
f 240 253 241
f 239 246 249
f 239 249 240
f 261 262 263
f 261 263 264
f 262 265 266
f 262 266 263
f 264 263 267
f 264 267 268
f 263 266 269
f 263 269 267
f 190 245 261
f 190 261 219
f 245 244 262
f 245 262 261
f 244 243 265
f 244 265 262
f 243 242 270
f 243 270 265
f 265 270 271
f 265 271 266
f 266 271 272
f 266 272 269
f 269 272 273
f 269 273 274
f 267 269 274
f 267 274 275
f 268 267 275
f 268 275 276
f 221 268 276
f 221 276 222
f 220 264 268
f 220 268 221
f 219 261 264
f 219 264 220
f 277 278 279
f 277 279 280
f 278 281 282
f 278 282 279
f 280 279 283
f 280 283 284
f 279 282 285
f 279 285 283
f 242 260 277
f 242 277 270
f 260 259 278
f 260 278 277
f 259 258 281
f 259 281 278
f 258 24 55
f 258 55 281
f 281 55 65
f 281 65 282
f 282 65 63
f 282 63 285
f 285 63 64
f 285 64 286
f 283 285 286
f 283 286 287
f 284 283 287
f 284 287 288
f 272 284 288
f 272 288 273
f 271 280 284
f 271 284 272
f 270 277 280
f 270 280 271
f 289 290 291
f 289 291 292
f 290 293 294
f 290 294 291
f 292 291 295
f 292 295 296
f 291 294 297
f 291 297 295
f 186 185 289
f 186 289 235
f 185 184 290
f 185 290 289
f 184 183 293
f 184 293 290
f 183 166 298
f 183 298 293
f 293 298 299
f 293 299 294
f 294 299 300
f 294 300 297
f 297 300 301
f 297 301 302
f 295 297 302
f 295 302 303
f 296 295 303
f 296 303 304
f 237 296 304
f 237 304 238
f 236 292 296
f 236 296 237
f 235 289 292
f 235 292 236
f 305 306 307
f 305 307 308
f 306 309 310
f 306 310 307
f 308 307 311
f 308 311 312
f 307 310 313
f 307 313 311
f 166 165 305
f 166 305 298
f 165 164 306
f 165 306 305
f 164 163 309
f 164 309 306
f 163 114 113
f 163 113 309
f 309 113 112
f 309 112 310
f 310 112 111
f 310 111 313
f 313 111 94
f 313 94 314
f 311 313 314
f 311 314 315
f 312 311 315
f 312 315 316
f 300 312 316
f 300 316 301
f 299 308 312
f 299 312 300
f 298 305 308
f 298 308 299
f 317 318 319
f 317 319 320
f 318 321 322
f 318 322 319
f 320 319 323
f 320 323 324
f 319 322 325
f 319 325 323
f 238 304 317
f 238 317 255
f 304 303 318
f 304 318 317
f 303 302 321
f 303 321 318
f 302 301 326
f 302 326 321
f 321 326 327
f 321 327 322
f 322 327 328
f 322 328 325
f 325 328 15
f 325 15 14
f 323 325 14
f 323 14 13
f 324 323 13
f 324 13 11
f 257 324 11
f 257 11 10
f 256 320 324
f 256 324 257
f 255 317 320
f 255 320 256
f 329 330 331
f 329 331 332
f 330 333 334
f 330 334 331
f 332 331 335
f 332 335 336
f 331 334 337
f 331 337 335
f 301 316 329
f 301 329 326
f 316 315 330
f 316 330 329
f 315 314 333
f 315 333 330
f 314 94 93
f 314 93 333
f 333 93 92
f 333 92 334
f 334 92 91
f 334 91 337
f 337 91 38
f 337 38 37
f 335 337 37
f 335 37 36
f 336 335 36
f 336 36 35
f 328 336 35
f 328 35 15
f 327 332 336
f 327 336 328
f 326 329 332
f 326 332 327
f 338 339 340
f 338 340 341
f 339 342 343
f 339 343 340
f 341 340 344
f 341 344 345
f 340 343 346
f 340 346 344
f 64 62 338
f 64 338 286
f 62 61 339
f 62 339 338
f 61 60 342
f 61 342 339
f 60 59 347
f 60 347 342
f 342 347 348
f 342 348 343
f 343 348 349
f 343 349 346
f 346 349 350
f 346 350 351
f 344 346 351
f 344 351 352
f 345 344 352
f 345 352 353
f 288 345 353
f 288 353 273
f 287 341 345
f 287 345 288
f 286 338 341
f 286 341 287
f 354 355 356
f 354 356 357
f 355 358 359
f 355 359 356
f 357 356 360
f 357 360 361
f 356 359 362
f 356 362 360
f 59 81 354
f 59 354 347
f 81 80 355
f 81 355 354
f 80 79 358
f 80 358 355
f 79 78 137
f 79 137 358
f 358 137 136
f 358 136 359
f 359 136 135
f 359 135 362
f 362 135 134
f 362 134 363
f 360 362 363
f 360 363 364
f 361 360 364
f 361 364 365
f 349 361 365
f 349 365 350
f 348 357 361
f 348 361 349
f 347 354 357
f 347 357 348
f 366 367 368
f 366 368 369
f 367 370 371
f 367 371 368
f 369 368 372
f 369 372 373
f 368 371 374
f 368 374 372
f 273 353 366
f 273 366 274
f 353 352 367
f 353 367 366
f 352 351 370
f 352 370 367
f 351 350 375
f 351 375 370
f 370 375 376
f 370 376 371
f 371 376 377
f 371 377 374
f 374 377 206
f 374 206 225
f 372 374 225
f 372 225 224
f 373 372 224
f 373 224 223
f 276 373 223
f 276 223 222
f 275 369 373
f 275 373 276
f 274 366 369
f 274 369 275
f 378 379 380
f 378 380 381
f 379 382 383
f 379 383 380
f 381 380 384
f 381 384 385
f 380 383 386
f 380 386 384
f 350 365 378
f 350 378 375
f 365 364 379
f 365 379 378
f 364 363 382
f 364 382 379
f 363 134 153
f 363 153 382
f 382 153 152
f 382 152 383
f 383 152 151
f 383 151 386
f 386 151 150
f 386 150 209
f 384 386 209
f 384 209 208
f 385 384 208
f 385 208 207
f 377 385 207
f 377 207 206
f 376 381 385
f 376 385 377
f 375 378 381
f 375 381 376
f 387 388 389
f 387 389 390
f 391 392 393
f 391 393 394
f 394 393 395
f 394 395 396
f 396 395 397
f 396 397 398
f 399 387 390
f 399 390 400
f 389 391 394
f 389 394 401
f 401 394 396
f 401 396 402
f 402 396 398
f 402 398 403
f 404 399 400
f 404 400 405
f 390 389 401
f 390 401 406
f 406 401 402
f 406 402 407
f 407 402 403
f 407 403 408
f 409 404 405
f 409 405 410
f 400 390 406
f 400 406 411
f 411 406 407
f 411 407 412
f 412 407 408
f 412 408 413
f 414 409 410
f 414 410 415
f 405 400 411
f 405 411 416
f 416 411 412
f 416 412 417
f 417 412 413
f 417 413 418
f 419 414 415
f 419 415 420
f 410 405 416
f 410 416 421
f 421 416 417
f 421 417 422
f 422 417 418
f 422 418 423
f 424 419 420
f 424 420 425
f 415 410 421
f 415 421 426
f 426 421 422
f 426 422 427
f 427 422 423
f 427 423 428
f 429 424 425
f 429 425 430
f 420 415 426
f 420 426 431
f 431 426 427
f 431 427 432
f 432 427 428
f 432 428 433
f 434 429 430
f 434 430 435
f 425 420 431
f 425 431 436
f 436 431 432
f 436 432 437
f 437 432 433
f 437 433 438
f 439 434 435
f 439 435 440
f 430 425 436
f 430 436 441
f 441 436 437
f 441 437 442
f 442 437 438
f 442 438 443
f 444 439 440
f 444 440 445
f 435 430 441
f 435 441 446
f 446 441 442
f 446 442 447
f 447 442 443
f 447 443 448
f 449 444 445
f 449 445 450
f 440 435 446
f 440 446 451
f 451 446 447
f 451 447 452
f 452 447 448
f 452 448 453
f 454 449 450
f 454 450 455
f 445 440 451
f 445 451 456
f 456 451 452
f 456 452 457
f 457 452 453
f 457 453 458
f 459 454 455
f 459 455 392
f 450 445 456
f 450 456 460
f 460 456 457
f 460 457 461
f 461 457 458
f 461 458 462
f 455 450 460
f 455 460 463
f 463 460 461
f 463 461 464
f 464 461 462
f 464 462 465
f 392 455 463
f 392 463 393
f 393 463 464
f 393 464 395
f 395 464 465
f 395 465 397
f 388 466 391
f 388 391 389
f 398 397 465
f 398 465 462
f 398 462 458
f 398 458 453
f 398 453 448
f 398 448 443
f 398 443 438
f 398 438 433
f 398 433 428
f 398 428 423
f 398 423 418
f 398 418 413
f 398 413 408
f 398 408 403
f 466 467 468
f 466 468 459
f 467 469 470
f 467 470 468
f 469 471 472
f 469 472 470
f 388 473 467
f 388 467 466
f 473 474 469
f 473 469 467
f 474 475 471
f 474 471 469
f 387 476 473
f 387 473 388
f 476 477 474
f 476 474 473
f 477 478 475
f 477 475 474
f 399 479 476
f 399 476 387
f 479 480 477
f 479 477 476
f 480 481 478
f 480 478 477
f 404 482 479
f 404 479 399
f 482 483 480
f 482 480 479
f 483 484 481
f 483 481 480
f 409 485 482
f 409 482 404
f 485 486 483
f 485 483 482
f 486 487 484
f 486 484 483
f 414 488 485
f 414 485 409
f 488 489 486
f 488 486 485
f 489 490 487
f 489 487 486
f 419 491 488
f 419 488 414
f 491 492 489
f 491 489 488
f 492 493 490
f 492 490 489
f 424 494 491
f 424 491 419
f 494 495 492
f 494 492 491
f 495 496 493
f 495 493 492
f 429 497 494
f 429 494 424
f 497 498 495
f 497 495 494
f 498 499 496
f 498 496 495
f 434 500 497
f 434 497 429
f 500 501 498
f 500 498 497
f 501 502 499
f 501 499 498
f 439 503 500
f 439 500 434
f 503 504 501
f 503 501 500
f 504 505 502
f 504 502 501
f 444 506 503
f 444 503 439
f 506 507 504
f 506 504 503
f 507 508 505
f 507 505 504
f 449 509 506
f 449 506 444
f 509 510 507
f 509 507 506
f 510 511 508
f 510 508 507
f 454 512 509
f 454 509 449
f 512 513 510
f 512 510 509
f 513 514 511
f 513 511 510
f 459 468 512
f 459 512 454
f 468 470 513
f 468 513 512
f 470 472 514
f 470 514 513
f 471 475 478
f 471 478 481
f 471 481 484
f 471 484 487
f 471 487 490
f 471 490 493
f 471 493 496
f 471 496 499
f 471 499 502
f 471 502 505
f 471 505 508
f 471 508 511
f 471 511 514
f 471 514 472
f 466 459 392
f 466 392 391
