# lizard mesh
v -0.040835 0.057632 -0.041177
v -0.042822 0.062518 -0.029057
v -0.029730 0.068566 -0.029979
v -0.028699 0.062518 -0.043063
v -0.044350 0.065503 -0.015097
v -0.030631 0.072211 -0.015430
v -0.015173 0.072211 -0.030759
v -0.014726 0.065503 -0.044474
v -0.015609 0.076275 -0.015740
v -0.047254 0.047452 -0.047649
v -0.050487 0.050654 -0.040116
v -0.039693 0.050654 -0.050820
v -0.053859 0.053978 -0.028622
v -0.056130 0.056192 -0.014964
v -0.056972 0.056973 -0.000238
v -0.044964 0.066520 -0.000188
v -0.031040 0.073436 -0.000130
v -0.015839 0.077642 -0.000066
v 0.000000 0.079061 -0.000000
v 0.000066 0.077642 -0.015839
v 0.000130 0.073436 -0.031040
v 0.000188 0.066520 -0.044964
v -0.014495 0.056192 -0.056253
v 0.000238 0.056973 -0.056972
v -0.028172 0.053978 -0.054096
v -0.044474 0.065503 0.014726
v -0.043063 0.062518 0.028699
v -0.029979 0.068566 0.029730
v -0.030759 0.072211 0.015173
v -0.041177 0.057632 0.040835
v -0.029057 0.062518 0.042822
v -0.015429 0.072211 0.030631
v -0.015740 0.076275 0.015609
v -0.015097 0.065503 0.044350
v -0.056253 0.056192 0.014495
v -0.054096 0.053978 0.028172
v -0.050819 0.050654 0.039693
v -0.047649 0.047452 0.047254
v -0.040116 0.050654 0.050487
v -0.028622 0.053978 0.053859
v -0.014964 0.056192 0.056130
v -0.000238 0.056973 0.056972
v -0.000187 0.066520 0.044964
v -0.000129 0.073436 0.031040
v -0.000066 0.077642 0.015839
v 0.015097 0.065503 -0.044350
v 0.015430 0.072211 -0.030631
v 0.029979 0.068566 -0.029730
v 0.029057 0.062518 -0.042822
v 0.015740 0.076275 -0.015609
v 0.030759 0.072211 -0.015174
v 0.043063 0.062518 -0.028699
v 0.041177 0.057632 -0.040835
v 0.044474 0.065503 -0.014726
v 0.014964 0.056192 -0.056130
v 0.015839 0.077642 0.000066
v 0.031040 0.073436 0.000129
v 0.044964 0.066520 0.000187
v 0.056972 0.056973 0.000238
v 0.056253 0.056192 -0.014496
v 0.054096 0.053978 -0.028172
v 0.050820 0.050654 -0.039693
v 0.040116 0.050654 -0.050487
v 0.047649 0.047452 -0.047254
v 0.028622 0.053978 -0.053859
v 0.015609 0.076275 0.015740
v 0.015174 0.072211 0.030759
v 0.029730 0.068566 0.029979
v 0.030631 0.072211 0.015429
v 0.014726 0.065503 0.044474
v 0.028699 0.062518 0.043063
v 0.042822 0.062518 0.029057
v 0.044350 0.065503 0.015097
v 0.040835 0.057632 0.041177
v 0.014496 0.056192 0.056253
v 0.028172 0.053978 0.054096
v 0.039693 0.050654 0.050819
v 0.047254 0.047452 0.047649
v 0.050487 0.050654 0.040116
v 0.053859 0.053978 0.028622
v 0.056130 0.056192 0.014964
v -0.041246 0.041006 0.057460
v -0.043203 0.028878 0.062338
v -0.030140 0.029855 0.068440
v -0.029139 0.042943 0.062397
v -0.044685 0.014912 0.065317
v -0.030996 0.015302 0.072082
v -0.015603 0.030695 0.072146
v -0.015185 0.044412 0.065440
v -0.015992 0.015675 0.076209
v -0.050864 0.039905 0.050442
v -0.054203 0.028398 0.053752
v -0.056426 0.014730 0.055957
v -0.057210 0.000000 0.056734
v -0.045241 0.000000 0.066332
v -0.031346 0.000000 0.073306
v -0.016163 0.000000 0.077575
v -0.000330 0.000000 0.079061
v -0.000324 0.015840 0.077641
v -0.000306 0.031041 0.073435
v -0.000277 0.044964 0.066519
v -0.044685 -0.014912 0.065317
v -0.043203 -0.028878 0.062338
v -0.030140 -0.029855 0.068440
v -0.030996 -0.015302 0.072082
v -0.041246 -0.041006 0.057460
v -0.029139 -0.042942 0.062397
v -0.015603 -0.030695 0.072146
v -0.015993 -0.015674 0.076209
v -0.015185 -0.044412 0.065440
v -0.056426 -0.014730 0.055957
v -0.054203 -0.028397 0.053752
v -0.050864 -0.039905 0.050442
v -0.047649 -0.047452 0.047254
v -0.040116 -0.050653 0.050487
v -0.028622 -0.053978 0.053859
v -0.014964 -0.056192 0.056130
v -0.000238 -0.056972 0.056972
v -0.000277 -0.044964 0.066519
v -0.000306 -0.031040 0.073435
v -0.000324 -0.015839 0.077641
v 0.014639 0.044412 0.065565
v 0.015000 0.030695 0.072274
v 0.029569 0.029855 0.068689
v 0.028617 0.042943 0.062637
v 0.015356 0.015675 0.076339
v 0.030394 0.015302 0.072338
v 0.042682 0.028878 0.062696
v 0.040765 0.041006 0.057802
v 0.044139 0.014912 0.065688
v 0.015516 0.000000 0.077707
v 0.030734 0.000000 0.073564
v 0.044687 0.000000 0.066707
v 0.056734 0.000000 0.057209
v 0.055957 0.014730 0.056426
v 0.053752 0.028398 0.054203
v 0.050442 0.039905 0.050864
v 0.015356 -0.015674 0.076339
v 0.015000 -0.030695 0.072274
v 0.029569 -0.029855 0.068689
v 0.030394 -0.015302 0.072338
v 0.014639 -0.044412 0.065565
v 0.028617 -0.042942 0.062637
v 0.042682 -0.028878 0.062696
v 0.044139 -0.014912 0.065688
v 0.040765 -0.041006 0.057802
v 0.014496 -0.056192 0.056253
v 0.028172 -0.053978 0.054096
v 0.039693 -0.050653 0.050819
v 0.047254 -0.047452 0.047649
v 0.050442 -0.039905 0.050864
v 0.053752 -0.028397 0.054203
v 0.055957 -0.014730 0.056426
v -0.041177 -0.057632 0.040835
v -0.043063 -0.062517 0.028699
v -0.029979 -0.068565 0.029730
v -0.029057 -0.062517 0.042822
v -0.044474 -0.065503 0.014726
v -0.030759 -0.072211 0.015173
v -0.015430 -0.072211 0.030631
v -0.015097 -0.065503 0.044350
v -0.015740 -0.076275 0.015609
v -0.050819 -0.050653 0.039693
v -0.054096 -0.053978 0.028172
v -0.056253 -0.056192 0.014495
v -0.056972 -0.056972 -0.000238
v -0.044964 -0.066520 -0.000188
v -0.031040 -0.073436 -0.000130
v -0.015839 -0.077642 -0.000066
v 0.000000 -0.079061 -0.000000
v -0.000066 -0.077642 0.015839
v -0.000129 -0.073436 0.031040
v -0.000187 -0.066520 0.044964
v -0.044350 -0.065503 -0.015097
v -0.042822 -0.062517 -0.029057
v -0.029730 -0.068565 -0.029979
v -0.030631 -0.072211 -0.015430
v -0.040835 -0.057632 -0.041177
v -0.028699 -0.062517 -0.043063
v -0.015173 -0.072211 -0.030759
v -0.015609 -0.076275 -0.015740
v -0.014726 -0.065503 -0.044474
v -0.056130 -0.056192 -0.014964
v -0.053859 -0.053978 -0.028622
v -0.050487 -0.050653 -0.040116
v -0.047254 -0.047452 -0.047649
v -0.039693 -0.050653 -0.050820
v -0.028172 -0.053978 -0.054096
v -0.014495 -0.056192 -0.056253
v 0.000238 -0.056972 -0.056972
v 0.000188 -0.066520 -0.044964
v 0.000129 -0.073436 -0.031040
v 0.000066 -0.077642 -0.015839
v 0.014726 -0.065503 0.044474
v 0.015174 -0.072211 0.030759
v 0.029730 -0.068565 0.029979
v 0.028699 -0.062517 0.043063
v 0.015609 -0.076275 0.015740
v 0.030631 -0.072211 0.015429
v 0.042822 -0.062518 0.029057
v 0.040835 -0.057632 0.041177
v 0.044350 -0.065503 0.015097
v 0.015839 -0.077642 0.000066
v 0.031040 -0.073436 0.000129
v 0.044964 -0.066520 0.000187
v 0.056972 -0.056972 0.000238
v 0.056130 -0.056192 0.014964
v 0.053859 -0.053978 0.028622
v 0.050487 -0.050653 0.040116
v 0.015740 -0.076275 -0.015609
v 0.015430 -0.072211 -0.030631
v 0.029979 -0.068565 -0.029730
v 0.030759 -0.072211 -0.015174
v 0.015097 -0.065503 -0.044350
v 0.029057 -0.062517 -0.042822
v 0.043063 -0.062518 -0.028699
v 0.044474 -0.065503 -0.014726
v 0.041177 -0.057632 -0.040835
v 0.014964 -0.056192 -0.056130
v 0.028622 -0.053978 -0.053859
v 0.040116 -0.050653 -0.050487
v 0.047649 -0.047452 -0.047254
v 0.050820 -0.050653 -0.039693
v 0.054096 -0.053978 -0.028172
v 0.056253 -0.056192 -0.014496
v -0.040765 -0.041006 -0.057802
v -0.042681 -0.028878 -0.062696
v -0.029568 -0.029855 -0.068689
v -0.028617 -0.042942 -0.062638
v -0.044139 -0.014912 -0.065688
v -0.030394 -0.015302 -0.072338
v -0.015000 -0.030695 -0.072274
v -0.014638 -0.044412 -0.065565
v -0.015356 -0.015674 -0.076340
v -0.050442 -0.039905 -0.050864
v -0.053752 -0.028397 -0.054203
v -0.055957 -0.014730 -0.056426
v -0.056734 0.000000 -0.057210
v -0.044686 0.000000 -0.066707
v -0.030734 0.000000 -0.073565
v -0.015515 0.000000 -0.077707
v 0.000330 0.000000 -0.079061
v 0.000324 -0.015839 -0.077641
v 0.000306 -0.031040 -0.073435
v 0.000277 -0.044964 -0.066519
v -0.044139 0.014912 -0.065688
v -0.042681 0.028878 -0.062696
v -0.029568 0.029855 -0.068689
v -0.030394 0.015302 -0.072338
v -0.040765 0.041006 -0.057802
v -0.028617 0.042943 -0.062638
v -0.015000 0.030695 -0.072274
v -0.015356 0.015675 -0.076340
v -0.014638 0.044412 -0.065565
v -0.055957 0.014730 -0.056426
v -0.053752 0.028398 -0.054203
v -0.050442 0.039905 -0.050864
v 0.000277 0.044964 -0.066519
v 0.000306 0.031041 -0.073435
v 0.000324 0.015840 -0.077641
v 0.015185 -0.044412 -0.065440
v 0.015603 -0.030695 -0.072146
v 0.030140 -0.029855 -0.068440
v 0.029139 -0.042942 -0.062397
v 0.015993 -0.015674 -0.076209
v 0.030996 -0.015302 -0.072082
v 0.043203 -0.028878 -0.062338
v 0.041246 -0.041006 -0.057460
v 0.044685 -0.014912 -0.065317
v 0.016163 0.000000 -0.077575
v 0.031346 0.000000 -0.073306
v 0.045241 0.000000 -0.066332
v 0.057210 0.000000 -0.056734
v 0.056426 -0.014730 -0.055957
v 0.054203 -0.028397 -0.053752
v 0.050864 -0.039905 -0.050442
v 0.015993 0.015675 -0.076209
v 0.015603 0.030695 -0.072146
v 0.030140 0.029855 -0.068440
v 0.030996 0.015302 -0.072082
v 0.015185 0.044412 -0.065440
v 0.029139 0.042943 -0.062397
v 0.043203 0.028878 -0.062338
v 0.044685 0.014912 -0.065317
v 0.041246 0.041006 -0.057460
v 0.050864 0.039905 -0.050442
v 0.054203 0.028398 -0.053752
v 0.056426 0.014730 -0.055957
v -0.057460 -0.041006 -0.041246
v -0.062397 -0.042942 -0.029139
v -0.068440 -0.029855 -0.030140
v -0.062338 -0.028878 -0.043203
v -0.065440 -0.044412 -0.015185
v -0.072146 -0.030695 -0.015603
v -0.072082 -0.015302 -0.030996
v -0.065317 -0.014912 -0.044685
v -0.076209 -0.015674 -0.015993
v -0.066519 -0.044964 -0.000277
v -0.073435 -0.031040 -0.000306
v -0.077641 -0.015839 -0.000324
v -0.079061 0.000000 -0.000330
v -0.077575 0.000000 -0.016163
v -0.073306 0.000000 -0.031346
v -0.066332 0.000000 -0.045241
v -0.065565 -0.044412 0.014638
v -0.062637 -0.042942 0.028617
v -0.068689 -0.029855 0.029568
v -0.072274 -0.030695 0.015000
v -0.057802 -0.041006 0.040765
v -0.062696 -0.028878 0.042681
v -0.072338 -0.015302 0.030394
v -0.076339 -0.015674 0.015356
v -0.065688 -0.014912 0.044139
v -0.066707 0.000000 0.044686
v -0.073564 0.000000 0.030734
v -0.077707 0.000000 0.015515
v -0.065317 0.014912 -0.044685
v -0.072082 0.015302 -0.030996
v -0.068440 0.029855 -0.030140
v -0.062338 0.028878 -0.043203
v -0.076209 0.015675 -0.015993
v -0.072146 0.030695 -0.015603
v -0.062397 0.042943 -0.029139
v -0.057460 0.041006 -0.041246
v -0.065440 0.044412 -0.015185
v -0.077641 0.015840 -0.000324
v -0.073435 0.031041 -0.000306
v -0.066519 0.044964 -0.000277
v -0.076339 0.015675 0.015356
v -0.072338 0.015302 0.030394
v -0.068689 0.029855 0.029568
v -0.072274 0.030695 0.015000
v -0.065688 0.014912 0.044139
v -0.062696 0.028878 0.042681
v -0.062637 0.042943 0.028617
v -0.065565 0.044412 0.014638
v -0.057802 0.041006 0.040765
v 0.057802 0.041006 -0.040765
v 0.062638 0.042943 -0.028617
v 0.068689 0.029855 -0.029569
v 0.062696 0.028878 -0.042682
v 0.065565 0.044412 -0.014639
v 0.072274 0.030695 -0.015000
v 0.072338 0.015302 -0.030394
v 0.065688 0.014912 -0.044139
v 0.076340 0.015675 -0.015356
v 0.066519 0.044964 0.000277
v 0.073435 0.031041 0.000306
v 0.077641 0.015840 0.000324
v 0.079061 0.000000 0.000330
v 0.077707 0.000000 -0.015516
v 0.073565 0.000000 -0.030734
v 0.066707 0.000000 -0.044686
v 0.065440 0.044412 0.015185
v 0.062397 0.042943 0.029139
v 0.068440 0.029855 0.030140
v 0.072146 0.030695 0.015603
v 0.057460 0.041006 0.041246
v 0.062338 0.028878 0.043203
v 0.072082 0.015302 0.030996
v 0.076209 0.015675 0.015992
v 0.065317 0.014912 0.044685
v 0.066332 0.000000 0.045241
v 0.073306 0.000000 0.031346
v 0.077575 0.000000 0.016163
v 0.065688 -0.014912 -0.044139
v 0.072338 -0.015302 -0.030394
v 0.068689 -0.029855 -0.029569
v 0.062696 -0.028878 -0.042682
v 0.076340 -0.015674 -0.015356
v 0.072274 -0.030695 -0.015000
v 0.062638 -0.042942 -0.028617
v 0.057802 -0.041006 -0.040765
v 0.065565 -0.044412 -0.014639
v 0.077641 -0.015839 0.000324
v 0.073435 -0.031040 0.000306
v 0.066519 -0.044964 0.000277
v 0.076209 -0.015674 0.015992
v 0.072082 -0.015302 0.030996
v 0.068440 -0.029855 0.030140
v 0.072146 -0.030695 0.015603
v 0.065317 -0.014912 0.044685
v 0.062338 -0.028878 0.043203
v 0.062397 -0.042942 0.029139
v 0.065440 -0.044412 0.015185
v 0.057460 -0.041006 0.041246
v -0.043234 0.107432 -0.303658
v 0.001266 0.116284 -0.303472
v 0.001342 0.111152 -0.321773
v -0.041194 0.102691 -0.321951
v 0.001407 0.099356 -0.337288
v -0.036615 0.091793 -0.337446
v 0.001450 0.082694 -0.347654
v -0.030195 0.076399 -0.347786
v 0.001465 0.063701 -0.351294
v -0.022912 0.058852 -0.351396
v -0.080959 0.082225 -0.303815
v -0.077253 0.078596 -0.322101
v -0.068848 0.070256 -0.337581
v -0.057023 0.058474 -0.347898
v -0.043578 0.045043 -0.351482
v -0.106166 0.044500 -0.303920
v -0.101348 0.042536 -0.322201
v -0.090386 0.038022 -0.337670
v -0.074949 0.031646 -0.347973
v -0.057386 0.024377 -0.351540
v -0.115017 0.000000 -0.303957
v -0.109809 0.000000 -0.322237
v -0.097949 0.000000 -0.337702
v -0.081243 0.000000 -0.347999
v -0.062235 0.000000 -0.351560
v -0.106166 -0.044500 -0.303920
v -0.101348 -0.042536 -0.322201
v -0.090386 -0.038022 -0.337670
v -0.074949 -0.031645 -0.347973
v -0.057386 -0.024377 -0.351540
v -0.080959 -0.082225 -0.303815
v -0.077253 -0.078596 -0.322101
v -0.068848 -0.070255 -0.337581
v -0.057023 -0.058473 -0.347898
v -0.043578 -0.045043 -0.351482
v -0.043234 -0.107432 -0.303658
v -0.041194 -0.102690 -0.321951
v -0.036615 -0.091793 -0.337446
v -0.030195 -0.076399 -0.347786
v -0.022912 -0.058852 -0.351396
v 0.001266 -0.116284 -0.303472
v 0.001342 -0.111151 -0.321773
v 0.001407 -0.099356 -0.337288
v 0.001450 -0.082694 -0.347654
v 0.001465 -0.063701 -0.351294
v 0.045765 -0.107432 -0.303287
v 0.043877 -0.102690 -0.321596
v 0.039428 -0.091793 -0.337129
v 0.033095 -0.076399 -0.347522
v 0.025842 -0.058852 -0.351193
v 0.083490 -0.082225 -0.303130
v 0.079937 -0.078596 -0.321445
v 0.071662 -0.070255 -0.336995
v 0.059923 -0.058473 -0.347410
v 0.046508 -0.045043 -0.351107
v 0.108697 -0.044500 -0.303024
v 0.104032 -0.042536 -0.321345
v 0.093199 -0.038022 -0.336905
v 0.077848 -0.031645 -0.347335
v 0.060316 -0.024377 -0.351049
v 0.117548 0.000000 -0.302988
v 0.112493 0.000000 -0.321310
v 0.100762 0.000000 -0.336873
v 0.084143 0.000000 -0.347309
v 0.065165 0.000000 -0.351029
v 0.108697 0.044500 -0.303024
v 0.104032 0.042536 -0.321345
v 0.093199 0.038022 -0.336905
v 0.077848 0.031646 -0.347335
v 0.060316 0.024377 -0.351049
v 0.083490 0.082225 -0.303130
v 0.079937 0.078596 -0.321445
v 0.071662 0.070256 -0.336995
v 0.059923 0.058474 -0.347410
v 0.046508 0.045043 -0.351107
v 0.045765 0.107432 -0.303287
v 0.043877 0.102691 -0.321596
v 0.039428 0.091793 -0.337129
v 0.033095 0.076399 -0.347522
v 0.025842 0.058852 -0.351193
v 0.000792 0.117185 -0.189929
v -0.044053 0.108265 -0.190116
v 0.045637 0.108265 -0.189742
v -0.082070 0.082863 -0.190274
v -0.107472 0.044845 -0.190380
v -0.116392 0.000000 -0.190417
v -0.107472 -0.044845 -0.190380
v -0.082070 -0.082863 -0.190274
v -0.044053 -0.108265 -0.190116
v 0.000792 -0.117185 -0.189929
v 0.045637 -0.108265 -0.189742
v 0.083654 -0.082863 -0.189583
v 0.109056 -0.044845 -0.189477
v 0.117976 0.000000 -0.189440
v 0.109056 0.044845 -0.189477
v 0.083654 0.082863 -0.189583
v -0.044181 0.107432 -0.076571
v -0.042293 0.102691 -0.058262
v 0.000242 0.111152 -0.058084
v 0.000319 0.116284 -0.076385
v -0.037844 0.091793 -0.042728
v 0.000178 0.099356 -0.042570
v -0.031511 0.076399 -0.032335
v 0.000134 0.082694 -0.032203
v -0.024258 0.058852 -0.028665
v 0.000119 0.063701 -0.028563
v -0.081906 0.082225 -0.076728
v -0.078353 0.078596 -0.058412
v -0.070077 0.070256 -0.042863
v -0.058339 0.058474 -0.032447
v -0.044924 0.045043 -0.028751
v -0.107113 0.044500 -0.076833
v -0.102447 0.042536 -0.058513
v -0.091615 0.038022 -0.042953
v -0.076264 0.031646 -0.032522
v -0.058732 0.024377 -0.028809
v -0.115964 0.000000 -0.076870
v -0.110908 0.000000 -0.058548
v -0.099178 0.000000 -0.042984
v -0.082559 0.000000 -0.032548
v -0.063581 0.000000 -0.028829
v -0.107113 -0.044500 -0.076833
v -0.102448 -0.042536 -0.058513
v -0.091615 -0.038022 -0.042953
v -0.076264 -0.031645 -0.032522
v -0.058732 -0.024377 -0.028809
v -0.081906 -0.082225 -0.076728
v -0.078353 -0.078596 -0.058412
v -0.070077 -0.070255 -0.042863
v -0.058339 -0.058473 -0.032447
v -0.044924 -0.045043 -0.028751
v -0.044181 -0.107432 -0.076571
v -0.042293 -0.102690 -0.058262
v -0.037844 -0.091793 -0.042728
v -0.031511 -0.076399 -0.032335
v -0.024258 -0.058852 -0.028665
v 0.000319 -0.116284 -0.076385
v 0.000242 -0.111151 -0.058084
v 0.000178 -0.099356 -0.042570
v 0.000134 -0.082694 -0.032203
v 0.000119 -0.063701 -0.028563
v 0.044818 -0.107432 -0.076199
v 0.042778 -0.102691 -0.057907
v 0.038199 -0.091793 -0.042411
v 0.031780 -0.076399 -0.032071
v 0.024496 -0.058852 -0.028462
v 0.082543 -0.082225 -0.076042
v 0.078838 -0.078596 -0.057757
v 0.070432 -0.070255 -0.042277
v 0.058607 -0.058473 -0.031960
v 0.045162 -0.045043 -0.028375
v 0.107750 -0.044500 -0.075937
v 0.102932 -0.042536 -0.057656
v 0.091970 -0.038022 -0.042187
v 0.076533 -0.031645 -0.031885
v 0.058971 -0.024377 -0.028318
v 0.116601 0.000000 -0.075900
v 0.111393 0.000000 -0.057621
v 0.099533 0.000000 -0.042155
v 0.082827 0.000000 -0.031859
v 0.063819 0.000000 -0.028298
v 0.107750 0.044500 -0.075937
v 0.102932 0.042536 -0.057656
v 0.091970 0.038022 -0.042187
v 0.076533 0.031646 -0.031885
v 0.058971 0.024377 -0.028318
v 0.082543 0.082225 -0.076042
v 0.078838 0.078596 -0.057757
v 0.070432 0.070256 -0.042277
v 0.058607 0.058474 -0.031960
v 0.045162 0.045043 -0.028375
v 0.044818 0.107432 -0.076199
v 0.042778 0.102691 -0.057907
v 0.038199 0.091793 -0.042411
v 0.031780 0.076399 -0.032071
v 0.024496 0.058852 -0.028462
f 1 2 3
f 1 3 4
f 2 5 6
f 2 6 3
f 4 3 7
f 4 7 8
f 3 6 9
f 3 9 7
f 10 11 1
f 10 1 12
f 11 13 2
f 11 2 1
f 13 14 5
f 13 5 2
f 14 15 16
f 14 16 5
f 5 16 17
f 5 17 6
f 6 17 18
f 6 18 9
f 9 18 19
f 9 19 20
f 7 9 20
f 7 20 21
f 8 7 21
f 8 21 22
f 23 8 22
f 23 22 24
f 25 4 8
f 25 8 23
f 12 1 4
f 12 4 25
f 26 27 28
f 26 28 29
f 27 30 31
f 27 31 28
f 29 28 32
f 29 32 33
f 28 31 34
f 28 34 32
f 15 35 26
f 15 26 16
f 35 36 27
f 35 27 26
f 36 37 30
f 36 30 27
f 37 38 39
f 37 39 30
f 30 39 40
f 30 40 31
f 31 40 41
f 31 41 34
f 34 41 42
f 34 42 43
f 32 34 43
f 32 43 44
f 33 32 44
f 33 44 45
f 18 33 45
f 18 45 19
f 17 29 33
f 17 33 18
f 16 26 29
f 16 29 17
f 46 47 48
f 46 48 49
f 47 50 51
f 47 51 48
f 49 48 52
f 49 52 53
f 48 51 54
f 48 54 52
f 24 22 46
f 24 46 55
f 22 21 47
f 22 47 46
f 21 20 50
f 21 50 47
f 20 19 56
f 20 56 50
f 50 56 57
f 50 57 51
f 51 57 58
f 51 58 54
f 54 58 59
f 54 59 60
f 52 54 60
f 52 60 61
f 53 52 61
f 53 61 62
f 63 53 62
f 63 62 64
f 65 49 53
f 65 53 63
f 55 46 49
f 55 49 65
f 66 67 68
f 66 68 69
f 67 70 71
f 67 71 68
f 69 68 72
f 69 72 73
f 68 71 74
f 68 74 72
f 19 45 66
f 19 66 56
f 45 44 67
f 45 67 66
f 44 43 70
f 44 70 67
f 43 42 75
f 43 75 70
f 70 75 76
f 70 76 71
f 71 76 77
f 71 77 74
f 74 77 78
f 74 78 79
f 72 74 79
f 72 79 80
f 73 72 80
f 73 80 81
f 58 73 81
f 58 81 59
f 57 69 73
f 57 73 58
f 56 66 69
f 56 69 57
f 82 83 84
f 82 84 85
f 83 86 87
f 83 87 84
f 85 84 88
f 85 88 89
f 84 87 90
f 84 90 88
f 38 91 82
f 38 82 39
f 91 92 83
f 91 83 82
f 92 93 86
f 92 86 83
f 93 94 95
f 93 95 86
f 86 95 96
f 86 96 87
f 87 96 97
f 87 97 90
f 90 97 98
f 90 98 99
f 88 90 99
f 88 99 100
f 89 88 100
f 89 100 101
f 41 89 101
f 41 101 42
f 40 85 89
f 40 89 41
f 39 82 85
f 39 85 40
f 102 103 104
f 102 104 105
f 103 106 107
f 103 107 104
f 105 104 108
f 105 108 109
f 104 107 110
f 104 110 108
f 94 111 102
f 94 102 95
f 111 112 103
f 111 103 102
f 112 113 106
f 112 106 103
f 113 114 115
f 113 115 106
f 106 115 116
f 106 116 107
f 107 116 117
f 107 117 110
f 110 117 118
f 110 118 119
f 108 110 119
f 108 119 120
f 109 108 120
f 109 120 121
f 97 109 121
f 97 121 98
f 96 105 109
f 96 109 97
f 95 102 105
f 95 105 96
f 122 123 124
f 122 124 125
f 123 126 127
f 123 127 124
f 125 124 128
f 125 128 129
f 124 127 130
f 124 130 128
f 42 101 122
f 42 122 75
f 101 100 123
f 101 123 122
f 100 99 126
f 100 126 123
f 99 98 131
f 99 131 126
f 126 131 132
f 126 132 127
f 127 132 133
f 127 133 130
f 130 133 134
f 130 134 135
f 128 130 135
f 128 135 136
f 129 128 136
f 129 136 137
f 77 129 137
f 77 137 78
f 76 125 129
f 76 129 77
f 75 122 125
f 75 125 76
f 138 139 140
f 138 140 141
f 139 142 143
f 139 143 140
f 141 140 144
f 141 144 145
f 140 143 146
f 140 146 144
f 98 121 138
f 98 138 131
f 121 120 139
f 121 139 138
f 120 119 142
f 120 142 139
f 119 118 147
f 119 147 142
f 142 147 148
f 142 148 143
f 143 148 149
f 143 149 146
f 146 149 150
f 146 150 151
f 144 146 151
f 144 151 152
f 145 144 152
f 145 152 153
f 133 145 153
f 133 153 134
f 132 141 145
f 132 145 133
f 131 138 141
f 131 141 132
f 154 155 156
f 154 156 157
f 155 158 159
f 155 159 156
f 157 156 160
f 157 160 161
f 156 159 162
f 156 162 160
f 114 163 154
f 114 154 115
f 163 164 155
f 163 155 154
f 164 165 158
f 164 158 155
f 165 166 167
f 165 167 158
f 158 167 168
f 158 168 159
f 159 168 169
f 159 169 162
f 162 169 170
f 162 170 171
f 160 162 171
f 160 171 172
f 161 160 172
f 161 172 173
f 117 161 173
f 117 173 118
f 116 157 161
f 116 161 117
f 115 154 157
f 115 157 116
f 174 175 176
f 174 176 177
f 175 178 179
f 175 179 176
f 177 176 180
f 177 180 181
f 176 179 182
f 176 182 180
f 166 183 174
f 166 174 167
f 183 184 175
f 183 175 174
f 184 185 178
f 184 178 175
f 185 186 187
f 185 187 178
f 178 187 188
f 178 188 179
f 179 188 189
f 179 189 182
f 182 189 190
f 182 190 191
f 180 182 191
f 180 191 192
f 181 180 192
f 181 192 193
f 169 181 193
f 169 193 170
f 168 177 181
f 168 181 169
f 167 174 177
f 167 177 168
f 194 195 196
f 194 196 197
f 195 198 199
f 195 199 196
f 197 196 200
f 197 200 201
f 196 199 202
f 196 202 200
f 118 173 194
f 118 194 147
f 173 172 195
f 173 195 194
f 172 171 198
f 172 198 195
f 171 170 203
f 171 203 198
f 198 203 204
f 198 204 199
f 199 204 205
f 199 205 202
f 202 205 206
f 202 206 207
f 200 202 207
f 200 207 208
f 201 200 208
f 201 208 209
f 149 201 209
f 149 209 150
f 148 197 201
f 148 201 149
f 147 194 197
f 147 197 148
f 210 211 212
f 210 212 213
f 211 214 215
f 211 215 212
f 213 212 216
f 213 216 217
f 212 215 218
f 212 218 216
f 170 193 210
f 170 210 203
f 193 192 211
f 193 211 210
f 192 191 214
f 192 214 211
f 191 190 219
f 191 219 214
f 214 219 220
f 214 220 215
f 215 220 221
f 215 221 218
f 218 221 222
f 218 222 223
f 216 218 223
f 216 223 224
f 217 216 224
f 217 224 225
f 205 217 225
f 205 225 206
f 204 213 217
f 204 217 205
f 203 210 213
f 203 213 204
f 226 227 228
f 226 228 229
f 227 230 231
f 227 231 228
f 229 228 232
f 229 232 233
f 228 231 234
f 228 234 232
f 186 235 226
f 186 226 187
f 235 236 227
f 235 227 226
f 236 237 230
f 236 230 227
f 237 238 239
f 237 239 230
f 230 239 240
f 230 240 231
f 231 240 241
f 231 241 234
f 234 241 242
f 234 242 243
f 232 234 243
f 232 243 244
f 233 232 244
f 233 244 245
f 189 233 245
f 189 245 190
f 188 229 233
f 188 233 189
f 187 226 229
f 187 229 188
f 246 247 248
f 246 248 249
f 247 250 251
f 247 251 248
f 249 248 252
f 249 252 253
f 248 251 254
f 248 254 252
f 238 255 246
f 238 246 239
f 255 256 247
f 255 247 246
f 256 257 250
f 256 250 247
f 257 10 12
f 257 12 250
f 250 12 25
f 250 25 251
f 251 25 23
f 251 23 254
f 254 23 24
f 254 24 258
f 252 254 258
f 252 258 259
f 253 252 259
f 253 259 260
f 241 253 260
f 241 260 242
f 240 249 253
f 240 253 241
f 239 246 249
f 239 249 240
f 261 262 263
f 261 263 264
f 262 265 266
f 262 266 263
f 264 263 267
f 264 267 268
f 263 266 269
f 263 269 267
f 190 245 261
f 190 261 219
f 245 244 262
f 245 262 261
f 244 243 265
f 244 265 262
f 243 242 270
f 243 270 265
f 265 270 271
f 265 271 266
f 266 271 272
f 266 272 269
f 269 272 273
f 269 273 274
f 267 269 274
f 267 274 275
f 268 267 275
f 268 275 276
f 221 268 276
f 221 276 222
f 220 264 268
f 220 268 221
f 219 261 264
f 219 264 220
f 277 278 279
f 277 279 280
f 278 281 282
f 278 282 279
f 280 279 283
f 280 283 284
f 279 282 285
f 279 285 283
f 242 260 277
f 242 277 270
f 260 259 278
f 260 278 277
f 259 258 281
f 259 281 278
f 258 24 55
f 258 55 281
f 281 55 65
f 281 65 282
f 282 65 63
f 282 63 285
f 285 63 64
f 285 64 286
f 283 285 286
f 283 286 287
f 284 283 287
f 284 287 288
f 272 284 288
f 272 288 273
f 271 280 284
f 271 284 272
f 270 277 280
f 270 280 271
f 289 290 291
f 289 291 292
f 290 293 294
f 290 294 291
f 292 291 295
f 292 295 296
f 291 294 297
f 291 297 295
f 186 185 289
f 186 289 235
f 185 184 290
f 185 290 289
f 184 183 293
f 184 293 290
f 183 166 298
f 183 298 293
f 293 298 299
f 293 299 294
f 294 299 300
f 294 300 297
f 297 300 301
f 297 301 302
f 295 297 302
f 295 302 303
f 296 295 303
f 296 303 304
f 237 296 304
f 237 304 238
f 236 292 296
f 236 296 237
f 235 289 292
f 235 292 236
f 305 306 307
f 305 307 308
f 306 309 310
f 306 310 307
f 308 307 311
f 308 311 312
f 307 310 313
f 307 313 311
f 166 165 305
f 166 305 298
f 165 164 306
f 165 306 305
f 164 163 309
f 164 309 306
f 163 114 113
f 163 113 309
f 309 113 112
f 309 112 310
f 310 112 111
f 310 111 313
f 313 111 94
f 313 94 314
f 311 313 314
f 311 314 315
f 312 311 315
f 312 315 316
f 300 312 316
f 300 316 301
f 299 308 312
f 299 312 300
f 298 305 308
f 298 308 299
f 317 318 319
f 317 319 320
f 318 321 322
f 318 322 319
f 320 319 323
f 320 323 324
f 319 322 325
f 319 325 323
f 238 304 317
f 238 317 255
f 304 303 318
f 304 318 317
f 303 302 321
f 303 321 318
f 302 301 326
f 302 326 321
f 321 326 327
f 321 327 322
f 322 327 328
f 322 328 325
f 325 328 15
f 325 15 14
f 323 325 14
f 323 14 13
f 324 323 13
f 324 13 11
f 257 324 11
f 257 11 10
f 256 320 324
f 256 324 257
f 255 317 320
f 255 320 256
f 329 330 331
f 329 331 332
f 330 333 334
f 330 334 331
f 332 331 335
f 332 335 336
f 331 334 337
f 331 337 335
f 301 316 329
f 301 329 326
f 316 315 330
f 316 330 329
f 315 314 333
f 315 333 330
f 314 94 93
f 314 93 333
f 333 93 92
f 333 92 334
f 334 92 91
f 334 91 337
f 337 91 38
f 337 38 37
f 335 337 37
f 335 37 36
f 336 335 36
f 336 36 35
f 328 336 35
f 328 35 15
f 327 332 336
f 327 336 328
f 326 329 332
f 326 332 327
f 338 339 340
f 338 340 341
f 339 342 343
f 339 343 340
f 341 340 344
f 341 344 345
f 340 343 346
f 340 346 344
f 64 62 338
f 64 338 286
f 62 61 339
f 62 339 338
f 61 60 342
f 61 342 339
f 60 59 347
f 60 347 342
f 342 347 348
f 342 348 343
f 343 348 349
f 343 349 346
f 346 349 350
f 346 350 351
f 344 346 351
f 344 351 352
f 345 344 352
f 345 352 353
f 288 345 353
f 288 353 273
f 287 341 345
f 287 345 288
f 286 338 341
f 286 341 287
f 354 355 356
f 354 356 357
f 355 358 359
f 355 359 356
f 357 356 360
f 357 360 361
f 356 359 362
f 356 362 360
f 59 81 354
f 59 354 347
f 81 80 355
f 81 355 354
f 80 79 358
f 80 358 355
f 79 78 137
f 79 137 358
f 358 137 136
f 358 136 359
f 359 136 135
f 359 135 362
f 362 135 134
f 362 134 363
f 360 362 363
f 360 363 364
f 361 360 364
f 361 364 365
f 349 361 365
f 349 365 350
f 348 357 361
f 348 361 349
f 347 354 357
f 347 357 348
f 366 367 368
f 366 368 369
f 367 370 371
f 367 371 368
f 369 368 372
f 369 372 373
f 368 371 374
f 368 374 372
f 273 353 366
f 273 366 274
f 353 352 367
f 353 367 366
f 352 351 370
f 352 370 367
f 351 350 375
f 351 375 370
f 370 375 376
f 370 376 371
f 371 376 377
f 371 377 374
f 374 377 206
f 374 206 225
f 372 374 225
f 372 225 224
f 373 372 224
f 373 224 223
f 276 373 223
f 276 223 222
f 275 369 373
f 275 373 276
f 274 366 369
f 274 369 275
f 378 379 380
f 378 380 381
f 379 382 383
f 379 383 380
f 381 380 384
f 381 384 385
f 380 383 386
f 380 386 384
f 350 365 378
f 350 378 375
f 365 364 379
f 365 379 378
f 364 363 382
f 364 382 379
f 363 134 153
f 363 153 382
f 382 153 152
f 382 152 383
f 383 152 151
f 383 151 386
f 386 151 150
f 386 150 209
f 384 386 209
f 384 209 208
f 385 384 208
f 385 208 207
f 377 385 207
f 377 207 206
f 376 381 385
f 376 385 377
f 375 378 381
f 375 381 376
f 387 388 389
f 387 389 390
f 390 389 391
f 390 391 392
f 392 391 393
f 392 393 394
f 394 393 395
f 394 395 396
f 397 387 390
f 397 390 398
f 398 390 392
f 398 392 399
f 399 392 394
f 399 394 400
f 400 394 396
f 400 396 401
f 402 397 398
f 402 398 403
f 403 398 399
f 403 399 404
f 404 399 400
f 404 400 405
f 405 400 401
f 405 401 406
f 407 402 403
f 407 403 408
f 408 403 404
f 408 404 409
f 409 404 405
f 409 405 410
f 410 405 406
f 410 406 411
f 412 407 408
f 412 408 413
f 413 408 409
f 413 409 414
f 414 409 410
f 414 410 415
f 415 410 411
f 415 411 416
f 417 412 413
f 417 413 418
f 418 413 414
f 418 414 419
f 419 414 415
f 419 415 420
f 420 415 416
f 420 416 421
f 422 417 418
f 422 418 423
f 423 418 419
f 423 419 424
f 424 419 420
f 424 420 425
f 425 420 421
f 425 421 426
f 427 422 423
f 427 423 428
f 428 423 424
f 428 424 429
f 429 424 425
f 429 425 430
f 430 425 426
f 430 426 431
f 432 427 428
f 432 428 433
f 433 428 429
f 433 429 434
f 434 429 430
f 434 430 435
f 435 430 431
f 435 431 436
f 437 432 433
f 437 433 438
f 438 433 434
f 438 434 439
f 439 434 435
f 439 435 440
f 440 435 436
f 440 436 441
f 442 437 438
f 442 438 443
f 443 438 439
f 443 439 444
f 444 439 440
f 444 440 445
f 445 440 441
f 445 441 446
f 447 442 443
f 447 443 448
f 448 443 444
f 448 444 449
f 449 444 445
f 449 445 450
f 450 445 446
f 450 446 451
f 452 447 448
f 452 448 453
f 453 448 449
f 453 449 454
f 454 449 450
f 454 450 455
f 455 450 451
f 455 451 456
f 457 452 453
f 457 453 458
f 458 453 454
f 458 454 459
f 459 454 455
f 459 455 460
f 460 455 456
f 460 456 461
f 462 457 458
f 462 458 463
f 463 458 459
f 463 459 464
f 464 459 460
f 464 460 465
f 465 460 461
f 465 461 466
f 388 462 463
f 388 463 389
f 389 463 464
f 389 464 391
f 391 464 465
f 391 465 393
f 393 465 466
f 393 466 395
f 467 388 387
f 467 387 468
f 469 462 388
f 469 388 467
f 396 395 466
f 396 466 461
f 396 461 456
f 396 456 451
f 396 451 446
f 396 446 441
f 396 441 436
f 396 436 431
f 396 431 426
f 396 426 421
f 396 421 416
f 396 416 411
f 396 411 406
f 396 406 401
f 468 387 397
f 468 397 470
f 470 397 402
f 470 402 471
f 471 402 407
f 471 407 472
f 472 407 412
f 472 412 473
f 473 412 417
f 473 417 474
f 474 417 422
f 474 422 475
f 475 422 427
f 475 427 476
f 476 427 432
f 476 432 477
f 477 432 437
f 477 437 478
f 478 437 442
f 478 442 479
f 479 442 447
f 479 447 480
f 480 447 452
f 480 452 481
f 481 452 457
f 481 457 482
f 482 457 462
f 482 462 469
f 483 484 485
f 483 485 486
f 484 487 488
f 484 488 485
f 487 489 490
f 487 490 488
f 489 491 492
f 489 492 490
f 493 494 484
f 493 484 483
f 494 495 487
f 494 487 484
f 495 496 489
f 495 489 487
f 496 497 491
f 496 491 489
f 498 499 494
f 498 494 493
f 499 500 495
f 499 495 494
f 500 501 496
f 500 496 495
f 501 502 497
f 501 497 496
f 503 504 499
f 503 499 498
f 504 505 500
f 504 500 499
f 505 506 501
f 505 501 500
f 506 507 502
f 506 502 501
f 508 509 504
f 508 504 503
f 509 510 505
f 509 505 504
f 510 511 506
f 510 506 505
f 511 512 507
f 511 507 506
f 513 514 509
f 513 509 508
f 514 515 510
f 514 510 509
f 515 516 511
f 515 511 510
f 516 517 512
f 516 512 511
f 518 519 514
f 518 514 513
f 519 520 515
f 519 515 514
f 520 521 516
f 520 516 515
f 521 522 517
f 521 517 516
f 523 524 519
f 523 519 518
f 524 525 520
f 524 520 519
f 525 526 521
f 525 521 520
f 526 527 522
f 526 522 521
f 528 529 524
f 528 524 523
f 529 530 525
f 529 525 524
f 530 531 526
f 530 526 525
f 531 532 527
f 531 527 526
f 533 534 529
f 533 529 528
f 534 535 530
f 534 530 529
f 535 536 531
f 535 531 530
f 536 537 532
f 536 532 531
f 538 539 534
f 538 534 533
f 539 540 535
f 539 535 534
f 540 541 536
f 540 536 535
f 541 542 537
f 541 537 536
f 543 544 539
f 543 539 538
f 544 545 540
f 544 540 539
f 545 546 541
f 545 541 540
f 546 547 542
f 546 542 541
f 548 549 544
f 548 544 543
f 549 550 545
f 549 545 544
f 550 551 546
f 550 546 545
f 551 552 547
f 551 547 546
f 553 554 549
f 553 549 548
f 554 555 550
f 554 550 549
f 555 556 551
f 555 551 550
f 556 557 552
f 556 552 551
f 558 559 554
f 558 554 553
f 559 560 555
f 559 555 554
f 560 561 556
f 560 556 555
f 561 562 557
f 561 557 556
f 486 485 559
f 486 559 558
f 485 488 560
f 485 560 559
f 488 490 561
f 488 561 560
f 490 492 562
f 490 562 561
f 467 468 483
f 467 483 486
f 469 467 486
f 469 486 558
f 491 497 502
f 491 502 507
f 491 507 512
f 491 512 517
f 491 517 522
f 491 522 527
f 491 527 532
f 491 532 537
f 491 537 542
f 491 542 547
f 491 547 552
f 491 552 557
f 491 557 562
f 491 562 492
f 468 470 493
f 468 493 483
f 470 471 498
f 470 498 493
f 471 472 503
f 471 503 498
f 472 473 508
f 472 508 503
f 473 474 513
f 473 513 508
f 474 475 518
f 474 518 513
f 475 476 523
f 475 523 518
f 476 477 528
f 476 528 523
f 477 478 533
f 477 533 528
f 478 479 538
f 478 538 533
f 479 480 543
f 479 543 538
f 480 481 548
f 480 548 543
f 481 482 553
f 481 553 548
f 482 469 558
f 482 558 553
