# lizard mesh
v -0.040835 0.057632 -0.041177
v -0.042822 0.062518 -0.029057
v -0.029730 0.068566 -0.029979
v -0.028699 0.062518 -0.043063
v -0.044350 0.065503 -0.015097
v -0.030631 0.072211 -0.015429
v -0.015173 0.072211 -0.030759
v -0.014726 0.065503 -0.044474
v -0.015609 0.076275 -0.015740
v -0.047254 0.047452 -0.047649
v -0.050487 0.050654 -0.040116
v -0.039693 0.050654 -0.050819
v -0.053859 0.053978 -0.028622
v -0.056130 0.056192 -0.014964
v -0.056972 0.056973 -0.000238
v -0.044964 0.066520 -0.000187
v -0.031040 0.073436 -0.000129
v -0.015839 0.077642 -0.000066
v 0.000000 0.079062 0.000000
v 0.000066 0.077642 -0.015839
v 0.000130 0.073436 -0.031040
v 0.000188 0.066520 -0.044964
v -0.014495 0.056192 -0.056253
v 0.000238 0.056973 -0.056972
v -0.028172 0.053978 -0.054096
v -0.044474 0.065503 0.014726
v -0.043063 0.062518 0.028699
v -0.029979 0.068566 0.029730
v -0.030759 0.072211 0.015174
v -0.041177 0.057632 0.040835
v -0.029057 0.062518 0.042822
v -0.015429 0.072211 0.030631
v -0.015740 0.076275 0.015609
v -0.015097 0.065503 0.044350
v -0.056253 0.056192 0.014496
v -0.054096 0.053978 0.028172
v -0.050819 0.050654 0.039693
v -0.047649 0.047452 0.047254
v -0.040116 0.050654 0.050487
v -0.028622 0.053978 0.053859
v -0.014964 0.056192 0.056130
v -0.000238 0.056973 0.056972
v -0.000187 0.066520 0.044964
v -0.000129 0.073436 0.031040
v -0.000066 0.077642 0.015839
v 0.015097 0.065503 -0.044350
v 0.015430 0.072211 -0.030631
v 0.029979 0.068566 -0.029730
v 0.029057 0.062518 -0.042822
v 0.015740 0.076275 -0.015609
v 0.030759 0.072211 -0.015173
v 0.043063 0.062518 -0.028699
v 0.041177 0.057632 -0.040835
v 0.044474 0.065503 -0.014726
v 0.014964 0.056192 -0.056130
v 0.015839 0.077642 0.000066
v 0.031040 0.073436 0.000130
v 0.044964 0.066520 0.000188
v 0.056972 0.056973 0.000238
v 0.056253 0.056192 -0.014495
v 0.054096 0.053978 -0.028172
v 0.050820 0.050654 -0.039693
v 0.040116 0.050654 -0.050487
v 0.047649 0.047452 -0.047253
v 0.028622 0.053978 -0.053859
v 0.015609 0.076275 0.015740
v 0.015174 0.072211 0.030759
v 0.029730 0.068566 0.029979
v 0.030631 0.072211 0.015430
v 0.014726 0.065503 0.044474
v 0.028699 0.062518 0.043063
v 0.042822 0.062518 0.029057
v 0.044350 0.065503 0.015097
v 0.040835 0.057632 0.041177
v 0.014496 0.056192 0.056253
v 0.028172 0.053978 0.054096
v 0.039693 0.050654 0.050820
v 0.047254 0.047452 0.047649
v 0.050487 0.050654 0.040116
v 0.053859 0.053978 0.028622
v 0.056130 0.056192 0.014964
v -0.041246 0.041006 0.057460
v -0.043203 0.028879 0.062338
v -0.030140 0.029855 0.068440
v -0.029139 0.042943 0.062397
v -0.044685 0.014912 0.065317
v -0.030996 0.015302 0.072082
v -0.015603 0.030696 0.072146
v -0.015185 0.044413 0.065440
v -0.015993 0.015675 0.076209
v -0.050864 0.039905 0.050442
v -0.054203 0.028398 0.053752
v -0.056426 0.014730 0.055957
v -0.057210 0.000000 0.056734
v -0.045241 0.000000 0.066332
v -0.031346 0.000000 0.073306
v -0.016163 0.000000 0.077575
v -0.000330 0.000000 0.079061
v -0.000324 0.015840 0.077641
v -0.000306 0.031041 0.073435
v -0.000277 0.044964 0.066519
v -0.044685 -0.014912 0.065317
v -0.043203 -0.028878 0.062338
v -0.030140 -0.029854 0.068440
v -0.030996 -0.015301 0.072082
v -0.041246 -0.041006 0.057460
v -0.029139 -0.042942 0.062397
v -0.015603 -0.030695 0.072146
v -0.015993 -0.015674 0.076209
v -0.015185 -0.044412 0.065440
v -0.056426 -0.014730 0.055957
v -0.054203 -0.028397 0.053752
v -0.050864 -0.039905 0.050442
v -0.047649 -0.047452 0.047254
v -0.040116 -0.050653 0.050487
v -0.028622 -0.053978 0.053859
v -0.014964 -0.056192 0.056130
v -0.000238 -0.056972 0.056972
v -0.000277 -0.044964 0.066519
v -0.000306 -0.031040 0.073435
v -0.000324 -0.015839 0.077641
v 0.014639 0.044413 0.065565
v 0.015000 0.030696 0.072274
v 0.029569 0.029855 0.068689
v 0.028617 0.042943 0.062638
v 0.015356 0.015675 0.076340
v 0.030394 0.015302 0.072338
v 0.042682 0.028879 0.062696
v 0.040765 0.041006 0.057802
v 0.044139 0.014912 0.065688
v 0.015516 0.000000 0.077707
v 0.030734 0.000000 0.073565
v 0.044686 0.000000 0.066707
v 0.056734 0.000000 0.057210
v 0.055957 0.014730 0.056426
v 0.053752 0.028398 0.054203
v 0.050442 0.039905 0.050864
v 0.015356 -0.015674 0.076340
v 0.015000 -0.030695 0.072274
v 0.029569 -0.029854 0.068689
v 0.030394 -0.015301 0.072338
v 0.014639 -0.044412 0.065565
v 0.028617 -0.042942 0.062638
v 0.042682 -0.028878 0.062696
v 0.044139 -0.014912 0.065688
v 0.040765 -0.041006 0.057802
v 0.014496 -0.056192 0.056253
v 0.028172 -0.053978 0.054096
v 0.039693 -0.050653 0.050820
v 0.047254 -0.047452 0.047649
v 0.050442 -0.039905 0.050864
v 0.053752 -0.028397 0.054203
v 0.055957 -0.014730 0.056426
v -0.041177 -0.057631 0.040835
v -0.043063 -0.062517 0.028699
v -0.029979 -0.068565 0.029730
v -0.029057 -0.062517 0.042822
v -0.044474 -0.065503 0.014726
v -0.030759 -0.072210 0.015174
v -0.015429 -0.072210 0.030631
v -0.015097 -0.065503 0.044350
v -0.015740 -0.076275 0.015609
v -0.050819 -0.050653 0.039693
v -0.054096 -0.053978 0.028172
v -0.056253 -0.056192 0.014496
v -0.056972 -0.056972 -0.000238
v -0.044964 -0.066520 -0.000187
v -0.031040 -0.073435 -0.000129
v -0.015839 -0.077642 -0.000066
v 0.000000 -0.079061 0.000000
v -0.000066 -0.077642 0.015839
v -0.000129 -0.073435 0.031040
v -0.000187 -0.066520 0.044964
v -0.044350 -0.065503 -0.015097
v -0.042822 -0.062517 -0.029057
v -0.029730 -0.068565 -0.029979
v -0.030631 -0.072210 -0.015429
v -0.040835 -0.057631 -0.041177
v -0.028699 -0.062517 -0.043063
v -0.015173 -0.072210 -0.030759
v -0.015609 -0.076275 -0.015740
v -0.014726 -0.065503 -0.044474
v -0.056130 -0.056192 -0.014964
v -0.053859 -0.053978 -0.028622
v -0.050487 -0.050653 -0.040116
v -0.047254 -0.047452 -0.047649
v -0.039693 -0.050653 -0.050819
v -0.028172 -0.053978 -0.054096
v -0.014495 -0.056192 -0.056253
v 0.000238 -0.056972 -0.056972
v 0.000188 -0.066520 -0.044964
v 0.000130 -0.073435 -0.031040
v 0.000066 -0.077642 -0.015839
v 0.014726 -0.065503 0.044474
v 0.015174 -0.072210 0.030759
v 0.029730 -0.068565 0.029979
v 0.028699 -0.062517 0.043063
v 0.015609 -0.076275 0.015740
v 0.030631 -0.072210 0.015430
v 0.042822 -0.062517 0.029057
v 0.040835 -0.057631 0.041177
v 0.044350 -0.065503 0.015097
v 0.015839 -0.077642 0.000066
v 0.031040 -0.073435 0.000130
v 0.044964 -0.066520 0.000188
v 0.056972 -0.056972 0.000238
v 0.056130 -0.056192 0.014964
v 0.053859 -0.053978 0.028622
v 0.050487 -0.050653 0.040116
v 0.015740 -0.076275 -0.015609
v 0.015430 -0.072210 -0.030631
v 0.029979 -0.068565 -0.029730
v 0.030759 -0.072210 -0.015173
v 0.015097 -0.065503 -0.044350
v 0.029057 -0.062517 -0.042822
v 0.043063 -0.062517 -0.028699
v 0.044474 -0.065503 -0.014726
v 0.041177 -0.057631 -0.040835
v 0.014964 -0.056192 -0.056130
v 0.028622 -0.053978 -0.053859
v 0.040116 -0.050653 -0.050487
v 0.047649 -0.047452 -0.047253
v 0.050820 -0.050653 -0.039693
v 0.054096 -0.053978 -0.028172
v 0.056253 -0.056192 -0.014495
v -0.040765 -0.041006 -0.057802
v -0.042681 -0.028878 -0.062696
v -0.029568 -0.029854 -0.068689
v -0.028617 -0.042942 -0.062637
v -0.044139 -0.014912 -0.065688
v -0.030394 -0.015301 -0.072338
v -0.015000 -0.030695 -0.072274
v -0.014638 -0.044412 -0.065565
v -0.015356 -0.015674 -0.076339
v -0.050442 -0.039905 -0.050864
v -0.053752 -0.028397 -0.054203
v -0.055957 -0.014730 -0.056426
v -0.056734 0.000000 -0.057209
v -0.044686 0.000000 -0.066707
v -0.030734 0.000000 -0.073564
v -0.015515 0.000000 -0.077707
v 0.000330 0.000000 -0.079061
v 0.000324 -0.015839 -0.077641
v 0.000306 -0.031040 -0.073435
v 0.000277 -0.044964 -0.066519
v -0.044139 0.014912 -0.065688
v -0.042681 0.028879 -0.062696
v -0.029568 0.029855 -0.068689
v -0.030394 0.015302 -0.072338
v -0.040765 0.041006 -0.057802
v -0.028617 0.042943 -0.062637
v -0.015000 0.030696 -0.072274
v -0.015356 0.015675 -0.076339
v -0.014638 0.044413 -0.065565
v -0.055957 0.014730 -0.056426
v -0.053752 0.028398 -0.054203
v -0.050442 0.039905 -0.050864
v 0.000277 0.044964 -0.066519
v 0.000306 0.031041 -0.073435
v 0.000324 0.015840 -0.077641
v 0.015185 -0.044412 -0.065440
v 0.015603 -0.030695 -0.072146
v 0.030140 -0.029854 -0.068440
v 0.029139 -0.042942 -0.062397
v 0.015993 -0.015674 -0.076209
v 0.030996 -0.015301 -0.072082
v 0.043203 -0.028878 -0.062338
v 0.041246 -0.041006 -0.057460
v 0.044685 -0.014912 -0.065317
v 0.016163 0.000000 -0.077575
v 0.031346 0.000000 -0.073306
v 0.045241 0.000000 -0.066332
v 0.057210 0.000000 -0.056734
v 0.056426 -0.014730 -0.055957
v 0.054203 -0.028397 -0.053752
v 0.050864 -0.039905 -0.050442
v 0.015993 0.015675 -0.076209
v 0.015603 0.030696 -0.072146
v 0.030140 0.029855 -0.068440
v 0.030996 0.015302 -0.072082
v 0.015185 0.044413 -0.065440
v 0.029139 0.042943 -0.062397
v 0.043203 0.028879 -0.062338
v 0.044685 0.014912 -0.065317
v 0.041246 0.041006 -0.057460
v 0.050864 0.039905 -0.050442
v 0.054203 0.028398 -0.053752
v 0.056426 0.014730 -0.055957
v -0.057460 -0.041006 -0.041246
v -0.062397 -0.042942 -0.029139
v -0.068440 -0.029854 -0.030140
v -0.062338 -0.028878 -0.043203
v -0.065440 -0.044412 -0.015185
v -0.072146 -0.030695 -0.015603
v -0.072082 -0.015301 -0.030996
v -0.065317 -0.014912 -0.044685
v -0.076209 -0.015674 -0.015992
v -0.066519 -0.044964 -0.000277
v -0.073435 -0.031040 -0.000306
v -0.077641 -0.015839 -0.000324
v -0.079061 0.000000 -0.000330
v -0.077575 0.000000 -0.016163
v -0.073306 0.000000 -0.031346
v -0.066332 0.000000 -0.045241
v -0.065565 -0.044412 0.014639
v -0.062637 -0.042942 0.028617
v -0.068689 -0.029854 0.029568
v -0.072274 -0.030695 0.015000
v -0.057802 -0.041006 0.040765
v -0.062696 -0.028878 0.042682
v -0.072338 -0.015301 0.030394
v -0.076339 -0.015674 0.015356
v -0.065688 -0.014912 0.044139
v -0.066707 0.000000 0.044686
v -0.073564 0.000000 0.030734
v -0.077707 0.000000 0.015516
v -0.065317 0.014912 -0.044685
v -0.072082 0.015302 -0.030996
v -0.068440 0.029855 -0.030140
v -0.062338 0.028879 -0.043203
v -0.076209 0.015675 -0.015992
v -0.072146 0.030696 -0.015603
v -0.062397 0.042943 -0.029139
v -0.057460 0.041006 -0.041246
v -0.065440 0.044413 -0.015185
v -0.077641 0.015840 -0.000324
v -0.073435 0.031041 -0.000306
v -0.066519 0.044964 -0.000277
v -0.076339 0.015675 0.015356
v -0.072338 0.015302 0.030394
v -0.068689 0.029855 0.029568
v -0.072274 0.030696 0.015000
v -0.065688 0.014912 0.044139
v -0.062696 0.028879 0.042682
v -0.062637 0.042943 0.028617
v -0.065565 0.044413 0.014639
v -0.057802 0.041006 0.040765
v 0.057802 0.041006 -0.040765
v 0.062638 0.042943 -0.028617
v 0.068689 0.029855 -0.029568
v 0.062696 0.028879 -0.042681
v 0.065565 0.044413 -0.014638
v 0.072274 0.030696 -0.015000
v 0.072338 0.015302 -0.030394
v 0.065688 0.014912 -0.044139
v 0.076340 0.015675 -0.015356
v 0.066519 0.044964 0.000277
v 0.073435 0.031041 0.000306
v 0.077641 0.015840 0.000324
v 0.079061 0.000000 0.000330
v 0.077707 0.000000 -0.015515
v 0.073565 0.000000 -0.030734
v 0.066707 0.000000 -0.044686
v 0.065440 0.044413 0.015185
v 0.062397 0.042943 0.029139
v 0.068440 0.029855 0.030140
v 0.072146 0.030696 0.015603
v 0.057460 0.041006 0.041246
v 0.062338 0.028879 0.043203
v 0.072082 0.015302 0.030996
v 0.076209 0.015675 0.015993
v 0.065317 0.014912 0.044685
v 0.066332 0.000000 0.045241
v 0.073306 0.000000 0.031346
v 0.077575 0.000000 0.016163
v 0.065688 -0.014912 -0.044139
v 0.072338 -0.015301 -0.030394
v 0.068689 -0.029854 -0.029568
v 0.062696 -0.028878 -0.042681
v 0.076340 -0.015674 -0.015356
v 0.072274 -0.030695 -0.015000
v 0.062638 -0.042942 -0.028617
v 0.057802 -0.041006 -0.040765
v 0.065565 -0.044412 -0.014638
v 0.077641 -0.015839 0.000324
v 0.073435 -0.031040 0.000306
v 0.066519 -0.044964 0.000277
v 0.076209 -0.015674 0.015993
v 0.072082 -0.015301 0.030996
v 0.068440 -0.029854 0.030140
v 0.072146 -0.030695 0.015603
v 0.065317 -0.014912 0.044685
v 0.062338 -0.028878 0.043203
v 0.062397 -0.042942 0.029139
v 0.065440 -0.044412 0.015185
v 0.057460 -0.041006 0.041246
f 1 2 3
f 1 3 4
f 2 5 6
f 2 6 3
f 4 3 7
f 4 7 8
f 3 6 9
f 3 9 7
f 10 11 1
f 10 1 12
f 11 13 2
f 11 2 1
f 13 14 5
f 13 5 2
f 14 15 16
f 14 16 5
f 5 16 17
f 5 17 6
f 6 17 18
f 6 18 9
f 9 18 19
f 9 19 20
f 7 9 20
f 7 20 21
f 8 7 21
f 8 21 22
f 23 8 22
f 23 22 24
f 25 4 8
f 25 8 23
f 12 1 4
f 12 4 25
f 26 27 28
f 26 28 29
f 27 30 31
f 27 31 28
f 29 28 32
f 29 32 33
f 28 31 34
f 28 34 32
f 15 35 26
f 15 26 16
f 35 36 27
f 35 27 26
f 36 37 30
f 36 30 27
f 37 38 39
f 37 39 30
f 30 39 40
f 30 40 31
f 31 40 41
f 31 41 34
f 34 41 42
f 34 42 43
f 32 34 43
f 32 43 44
f 33 32 44
f 33 44 45
f 18 33 45
f 18 45 19
f 17 29 33
f 17 33 18
f 16 26 29
f 16 29 17
f 46 47 48
f 46 48 49
f 47 50 51
f 47 51 48
f 49 48 52
f 49 52 53
f 48 51 54
f 48 54 52
f 24 22 46
f 24 46 55
f 22 21 47
f 22 47 46
f 21 20 50
f 21 50 47
f 20 19 56
f 20 56 50
f 50 56 57
f 50 57 51
f 51 57 58
f 51 58 54
f 54 58 59
f 54 59 60
f 52 54 60
f 52 60 61
f 53 52 61
f 53 61 62
f 63 53 62
f 63 62 64
f 65 49 53
f 65 53 63
f 55 46 49
f 55 49 65
f 66 67 68
f 66 68 69
f 67 70 71
f 67 71 68
f 69 68 72
f 69 72 73
f 68 71 74
f 68 74 72
f 19 45 66
f 19 66 56
f 45 44 67
f 45 67 66
f 44 43 70
f 44 70 67
f 43 42 75
f 43 75 70
f 70 75 76
f 70 76 71
f 71 76 77
f 71 77 74
f 74 77 78
f 74 78 79
f 72 74 79
f 72 79 80
f 73 72 80
f 73 80 81
f 58 73 81
f 58 81 59
f 57 69 73
f 57 73 58
f 56 66 69
f 56 69 57
f 82 83 84
f 82 84 85
f 83 86 87
f 83 87 84
f 85 84 88
f 85 88 89
f 84 87 90
f 84 90 88
f 38 91 82
f 38 82 39
f 91 92 83
f 91 83 82
f 92 93 86
f 92 86 83
f 93 94 95
f 93 95 86
f 86 95 96
f 86 96 87
f 87 96 97
f 87 97 90
f 90 97 98
f 90 98 99
f 88 90 99
f 88 99 100
f 89 88 100
f 89 100 101
f 41 89 101
f 41 101 42
f 40 85 89
f 40 89 41
f 39 82 85
f 39 85 40
f 102 103 104
f 102 104 105
f 103 106 107
f 103 107 104
f 105 104 108
f 105 108 109
f 104 107 110
f 104 110 108
f 94 111 102
f 94 102 95
f 111 112 103
f 111 103 102
f 112 113 106
f 112 106 103
f 113 114 115
f 113 115 106
f 106 115 116
f 106 116 107
f 107 116 117
f 107 117 110
f 110 117 118
f 110 118 119
f 108 110 119
f 108 119 120
f 109 108 120
f 109 120 121
f 97 109 121
f 97 121 98
f 96 105 109
f 96 109 97
f 95 102 105
f 95 105 96
f 122 123 124
f 122 124 125
f 123 126 127
f 123 127 124
f 125 124 128
f 125 128 129
f 124 127 130
f 124 130 128
f 42 101 122
f 42 122 75
f 101 100 123
f 101 123 122
f 100 99 126
f 100 126 123
f 99 98 131
f 99 131 126
f 126 131 132
f 126 132 127
f 127 132 133
f 127 133 130
f 130 133 134
f 130 134 135
f 128 130 135
f 128 135 136
f 129 128 136
f 129 136 137
f 77 129 137
f 77 137 78
f 76 125 129
f 76 129 77
f 75 122 125
f 75 125 76
f 138 139 140
f 138 140 141
f 139 142 143
f 139 143 140
f 141 140 144
f 141 144 145
f 140 143 146
f 140 146 144
f 98 121 138
f 98 138 131
f 121 120 139
f 121 139 138
f 120 119 142
f 120 142 139
f 119 118 147
f 119 147 142
f 142 147 148
f 142 148 143
f 143 148 149
f 143 149 146
f 146 149 150
f 146 150 151
f 144 146 151
f 144 151 152
f 145 144 152
f 145 152 153
f 133 145 153
f 133 153 134
f 132 141 145
f 132 145 133
f 131 138 141
f 131 141 132
f 154 155 156
f 154 156 157
f 155 158 159
f 155 159 156
f 157 156 160
f 157 160 161
f 156 159 162
f 156 162 160
f 114 163 154
f 114 154 115
f 163 164 155
f 163 155 154
f 164 165 158
f 164 158 155
f 165 166 167
f 165 167 158
f 158 167 168
f 158 168 159
f 159 168 169
f 159 169 162
f 162 169 170
f 162 170 171
f 160 162 171
f 160 171 172
f 161 160 172
f 161 172 173
f 117 161 173
f 117 173 118
f 116 157 161
f 116 161 117
f 115 154 157
f 115 157 116
f 174 175 176
f 174 176 177
f 175 178 179
f 175 179 176
f 177 176 180
f 177 180 181
f 176 179 182
f 176 182 180
f 166 183 174
f 166 174 167
f 183 184 175
f 183 175 174
f 184 185 178
f 184 178 175
f 185 186 187
f 185 187 178
f 178 187 188
f 178 188 179
f 179 188 189
f 179 189 182
f 182 189 190
f 182 190 191
f 180 182 191
f 180 191 192
f 181 180 192
f 181 192 193
f 169 181 193
f 169 193 170
f 168 177 181
f 168 181 169
f 167 174 177
f 167 177 168
f 194 195 196
f 194 196 197
f 195 198 199
f 195 199 196
f 197 196 200
f 197 200 201
f 196 199 202
f 196 202 200
f 118 173 194
f 118 194 147
f 173 172 195
f 173 195 194
f 172 171 198
f 172 198 195
f 171 170 203
f 171 203 198
f 198 203 204
f 198 204 199
f 199 204 205
f 199 205 202
f 202 205 206
f 202 206 207
f 200 202 207
f 200 207 208
f 201 200 208
f 201 208 209
f 149 201 209
f 149 209 150
f 148 197 201
f 148 201 149
f 147 194 197
f 147 197 148
f 210 211 212
f 210 212 213
f 211 214 215
f 211 215 212
f 213 212 216
f 213 216 217
f 212 215 218
f 212 218 216
f 170 193 210
f 170 210 203
f 193 192 211
f 193 211 210
f 192 191 214
f 192 214 211
f 191 190 219
f 191 219 214
f 214 219 220
f 214 220 215
f 215 220 221
f 215 221 218
f 218 221 222
f 218 222 223
f 216 218 223
f 216 223 224
f 217 216 224
f 217 224 225
f 205 217 225
f 205 225 206
f 204 213 217
f 204 217 205
f 203 210 213
f 203 213 204
f 226 227 228
f 226 228 229
f 227 230 231
f 227 231 228
f 229 228 232
f 229 232 233
f 228 231 234
f 228 234 232
f 186 235 226
f 186 226 187
f 235 236 227
f 235 227 226
f 236 237 230
f 236 230 227
f 237 238 239
f 237 239 230
f 230 239 240
f 230 240 231
f 231 240 241
f 231 241 234
f 234 241 242
f 234 242 243
f 232 234 243
f 232 243 244
f 233 232 244
f 233 244 245
f 189 233 245
f 189 245 190
f 188 229 233
f 188 233 189
f 187 226 229
f 187 229 188
f 246 247 248
f 246 248 249
f 247 250 251
f 247 251 248
f 249 248 252
f 249 252 253
f 248 251 254
f 248 254 252
f 238 255 246
f 238 246 239
f 255 256 247
f 255 247 246
f 256 257 250
f 256 250 247
f 257 10 12
f 257 12 250
f 250 12 25
f 250 25 251
f 251 25 23
f 251 23 254
f 254 23 24
f 254 24 258
f 252 254 258
f 252 258 259
f 253 252 259
f 253 259 260
f 241 253 260
f 241 260 242
f 240 249 253
f 240 253 241
f 239 246 249
f 239 249 240
f 261 262 263
f 261 263 264
f 262 265 266
f 262 266 263
f 264 263 267
f 264 267 268
f 263 266 269
f 263 269 267
f 190 245 261
f 190 261 219
f 245 244 262
f 245 262 261
f 244 243 265
f 244 265 262
f 243 242 270
f 243 270 265
f 265 270 271
f 265 271 266
f 266 271 272
f 266 272 269
f 269 272 273
f 269 273 274
f 267 269 274
f 267 274 275
f 268 267 275
f 268 275 276
f 221 268 276
f 221 276 222
f 220 264 268
f 220 268 221
f 219 261 264
f 219 264 220
f 277 278 279
f 277 279 280
f 278 281 282
f 278 282 279
f 280 279 283
f 280 283 284
f 279 282 285
f 279 285 283
f 242 260 277
f 242 277 270
f 260 259 278
f 260 278 277
f 259 258 281
f 259 281 278
f 258 24 55
f 258 55 281
f 281 55 65
f 281 65 282
f 282 65 63
f 282 63 285
f 285 63 64
f 285 64 286
f 283 285 286
f 283 286 287
f 284 283 287
f 284 287 288
f 272 284 288
f 272 288 273
f 271 280 284
f 271 284 272
f 270 277 280
f 270 280 271
f 289 290 291
f 289 291 292
f 290 293 294
f 290 294 291
f 292 291 295
f 292 295 296
f 291 294 297
f 291 297 295
f 186 185 289
f 186 289 235
f 185 184 290
f 185 290 289
f 184 183 293
f 184 293 290
f 183 166 298
f 183 298 293
f 293 298 299
f 293 299 294
f 294 299 300
f 294 300 297
f 297 300 301
f 297 301 302
f 295 297 302
f 295 302 303
f 296 295 303
f 296 303 304
f 237 296 304
f 237 304 238
f 236 292 296
f 236 296 237
f 235 289 292
f 235 292 236
f 305 306 307
f 305 307 308
f 306 309 310
f 306 310 307
f 308 307 311
f 308 311 312
f 307 310 313
f 307 313 311
f 166 165 305
f 166 305 298
f 165 164 306
f 165 306 305
f 164 163 309
f 164 309 306
f 163 114 113
f 163 113 309
f 309 113 112
f 309 112 310
f 310 112 111
f 310 111 313
f 313 111 94
f 313 94 314
f 311 313 314
f 311 314 315
f 312 311 315
f 312 315 316
f 300 312 316
f 300 316 301
f 299 308 312
f 299 312 300
f 298 305 308
f 298 308 299
f 317 318 319
f 317 319 320
f 318 321 322
f 318 322 319
f 320 319 323
f 320 323 324
f 319 322 325
f 319 325 323
f 238 304 317
f 238 317 255
f 304 303 318
f 304 318 317
f 303 302 321
f 303 321 318
f 302 301 326
f 302 326 321
f 321 326 327
f 321 327 322
f 322 327 328
f 322 328 325
f 325 328 15
f 325 15 14
f 323 325 14
f 323 14 13
f 324 323 13
f 324 13 11
f 257 324 11
f 257 11 10
f 256 320 324
f 256 324 257
f 255 317 320
f 255 320 256
f 329 330 331
f 329 331 332
f 330 333 334
f 330 334 331
f 332 331 335
f 332 335 336
f 331 334 337
f 331 337 335
f 301 316 329
f 301 329 326
f 316 315 330
f 316 330 329
f 315 314 333
f 315 333 330
f 314 94 93
f 314 93 333
f 333 93 92
f 333 92 334
f 334 92 91
f 334 91 337
f 337 91 38
f 337 38 37
f 335 337 37
f 335 37 36
f 336 335 36
f 336 36 35
f 328 336 35
f 328 35 15
f 327 332 336
f 327 336 328
f 326 329 332
f 326 332 327
f 338 339 340
f 338 340 341
f 339 342 343
f 339 343 340
f 341 340 344
f 341 344 345
f 340 343 346
f 340 346 344
f 64 62 338
f 64 338 286
f 62 61 339
f 62 339 338
f 61 60 342
f 61 342 339
f 60 59 347
f 60 347 342
f 342 347 348
f 342 348 343
f 343 348 349
f 343 349 346
f 346 349 350
f 346 350 351
f 344 346 351
f 344 351 352
f 345 344 352
f 345 352 353
f 288 345 353
f 288 353 273
f 287 341 345
f 287 345 288
f 286 338 341
f 286 341 287
f 354 355 356
f 354 356 357
f 355 358 359
f 355 359 356
f 357 356 360
f 357 360 361
f 356 359 362
f 356 362 360
f 59 81 354
f 59 354 347
f 81 80 355
f 81 355 354
f 80 79 358
f 80 358 355
f 79 78 137
f 79 137 358
f 358 137 136
f 358 136 359
f 359 136 135
f 359 135 362
f 362 135 134
f 362 134 363
f 360 362 363
f 360 363 364
f 361 360 364
f 361 364 365
f 349 361 365
f 349 365 350
f 348 357 361
f 348 361 349
f 347 354 357
f 347 357 348
f 366 367 368
f 366 368 369
f 367 370 371
f 367 371 368
f 369 368 372
f 369 372 373
f 368 371 374
f 368 374 372
f 273 353 366
f 273 366 274
f 353 352 367
f 353 367 366
f 352 351 370
f 352 370 367
f 351 350 375
f 351 375 370
f 370 375 376
f 370 376 371
f 371 376 377
f 371 377 374
f 374 377 206
f 374 206 225
f 372 374 225
f 372 225 224
f 373 372 224
f 373 224 223
f 276 373 223
f 276 223 222
f 275 369 373
f 275 373 276
f 274 366 369
f 274 369 275
f 378 379 380
f 378 380 381
f 379 382 383
f 379 383 380
f 381 380 384
f 381 384 385
f 380 383 386
f 380 386 384
f 350 365 378
f 350 378 375
f 365 364 379
f 365 379 378
f 364 363 382
f 364 382 379
f 363 134 153
f 363 153 382
f 382 153 152
f 382 152 383
f 383 152 151
f 383 151 386
f 386 151 150
f 386 150 209
f 384 386 209
f 384 209 208
f 385 384 208
f 385 208 207
f 377 385 207
f 377 207 206
f 376 381 385
f 376 385 377
f 375 378 381
f 375 381 376
