# lizard mesh
v 0.143969 0.127462 -0.050044
v 0.153694 0.129833 -0.037403
v 0.168538 0.090765 -0.037906
v 0.156280 0.090682 -0.051271
v 0.157601 0.128479 -0.021569
v 0.173689 0.088457 -0.021778
v 0.177454 0.048254 -0.038242
v 0.163762 0.048998 -0.051927
v 0.183401 0.045701 -0.021976
v 0.119549 0.149178 -0.056338
v 0.126488 0.157101 -0.049174
v 0.127979 0.126188 -0.059002
v 0.132747 0.163220 -0.037060
v 0.135284 0.163339 -0.021398
v 0.133402 0.156137 -0.003477
v 0.155616 0.121479 -0.003622
v 0.171774 0.081988 -0.003787
v 0.181546 0.040050 -0.003962
v 0.184600 -0.001947 -0.004137
v 0.186562 0.002708 -0.022158
v 0.180411 0.005067 -0.038445
v 0.166288 0.005814 -0.052176
v 0.142351 0.049341 -0.062229
v 0.144331 0.005635 -0.062531
v 0.136656 0.090919 -0.061217
v 0.147912 0.108316 0.015133
v 0.135830 0.091739 0.033033
v 0.148744 0.056618 0.033400
v 0.163035 0.070596 0.015040
v 0.120843 0.075545 0.048468
v 0.130340 0.043250 0.049989
v 0.156352 0.019367 0.033532
v 0.172098 0.030658 0.014910
v 0.135864 0.008647 0.050756
v 0.127094 0.141488 0.015235
v 0.117692 0.122268 0.032866
v 0.106998 0.102247 0.047503
v 0.098244 0.087078 0.056837
v 0.103483 0.064804 0.060480
v 0.108891 0.034036 0.063783
v 0.112143 0.001012 0.065467
v 0.111989 -0.031658 0.065818
v 0.136724 -0.025751 0.050839
v 0.158175 -0.017689 0.033447
v 0.174686 -0.009184 0.014752
v 0.163749 -0.035538 -0.052279
v 0.177352 -0.036194 -0.038594
v 0.168336 -0.074118 -0.038594
v 0.156254 -0.073001 -0.051954
v 0.183054 -0.038292 -0.022327
v 0.173008 -0.076187 -0.022465
v 0.153400 -0.107697 -0.038394
v 0.143933 -0.104999 -0.051013
v 0.156612 -0.110161 -0.022564
v 0.142351 -0.036363 -0.062587
v 0.180723 -0.041888 -0.004303
v 0.170160 -0.078739 -0.004457
v 0.153271 -0.111739 -0.004595
v 0.130418 -0.140126 -0.004713
v 0.134025 -0.139449 -0.022661
v 0.132374 -0.136330 -0.038309
v 0.126441 -0.130827 -0.050374
v 0.127979 -0.105020 -0.059966
v 0.119549 -0.124911 -0.057481
v 0.136656 -0.074054 -0.061905
v 0.170526 -0.046889 0.014586
v 0.153856 -0.052517 0.033232
v 0.143932 -0.084111 0.032813
v 0.159961 -0.081485 0.014406
v 0.132398 -0.057835 0.050479
v 0.123794 -0.086411 0.049449
v 0.129017 -0.111769 0.032185
v 0.143470 -0.112271 0.014214
v 0.111893 -0.110566 0.047692
v 0.107767 -0.061963 0.065205
v 0.100733 -0.088634 0.063272
v 0.092662 -0.110441 0.059749
v 0.086136 -0.124542 0.055955
v 0.096131 -0.129717 0.046535
v 0.109161 -0.134978 0.031793
v 0.121459 -0.138571 0.014067
v 0.083131 0.063857 0.068808
v 0.059846 0.068328 0.074199
v 0.059930 0.033735 0.080926
v 0.085269 0.031498 0.074045
v 0.034392 0.073863 0.077087
v 0.033258 0.037889 0.084794
v 0.059514 -0.000656 0.084633
v 0.086502 -0.001732 0.076772
v 0.031573 0.002467 0.089226
v 0.082902 0.093839 0.060601
v 0.060681 0.102251 0.064068
v 0.035349 0.109576 0.065920
v 0.008414 0.113913 0.066425
v 0.007691 0.077938 0.077942
v 0.005784 0.041682 0.086011
v 0.003089 0.005936 0.090727
v 0.000001 -0.028509 0.092185
v 0.029017 -0.031568 0.090571
v 0.057625 -0.033784 0.085696
v 0.085417 -0.034150 0.077474
v -0.019325 0.078972 0.077109
v -0.045724 0.077848 0.074239
v -0.049284 0.044353 0.080970
v -0.021924 0.043569 0.084817
v -0.070532 0.076423 0.068860
v -0.075729 0.045578 0.074104
v -0.053821 0.010642 0.084680
v -0.025519 0.008502 0.089252
v -0.081386 0.013285 0.076835
v -0.018866 0.113926 0.065938
v -0.045249 0.110361 0.064102
v -0.069155 0.104598 0.060645
v -0.086173 0.099119 0.056887
v -0.092701 0.078513 0.060537
v -0.100768 0.049420 0.063847
v -0.107792 0.017437 0.065536
v -0.111997 -0.014892 0.065888
v -0.085423 -0.018826 0.077538
v -0.057627 -0.022258 0.085744
v -0.029016 -0.025412 0.090596
v 0.081366 -0.064217 0.076511
v 0.053809 -0.064632 0.084366
v 0.049265 -0.092539 0.080399
v 0.075700 -0.090924 0.073535
v 0.025516 -0.063438 0.088952
v 0.021920 -0.092627 0.084249
v 0.045704 -0.116968 0.073426
v 0.070500 -0.113428 0.068068
v 0.019321 -0.118689 0.076284
v -0.003084 -0.060920 0.090448
v -0.005775 -0.090788 0.085459
v -0.007677 -0.117665 0.077126
v -0.008398 -0.141098 0.065361
v 0.018864 -0.141194 0.064874
v 0.045229 -0.137536 0.063068
v 0.069123 -0.131092 0.059663
v -0.031563 -0.057406 0.088977
v -0.059503 -0.053341 0.084413
v -0.059903 -0.081932 0.080443
v -0.033238 -0.086953 0.084273
v -0.086490 -0.049209 0.076574
v -0.085240 -0.076858 0.073594
v -0.059808 -0.107462 0.073466
v -0.034363 -0.113587 0.076305
v -0.083089 -0.100879 0.068120
v -0.112133 -0.045547 0.065273
v -0.108863 -0.073265 0.063336
v -0.103443 -0.096750 0.059806
v -0.098199 -0.112521 0.056005
v -0.082855 -0.120352 0.059707
v -0.060637 -0.129442 0.063101
v -0.035316 -0.136852 0.064892
v -0.111931 0.088166 0.048521
v -0.129050 0.101694 0.033075
v -0.143961 0.067719 0.033446
v -0.123829 0.057391 0.050048
v -0.143493 0.114895 0.015161
v -0.159981 0.077908 0.015071
v -0.153877 0.031178 0.033581
v -0.132422 0.023727 0.050819
v -0.170541 0.038427 0.014942
v -0.096167 0.113052 0.047548
v -0.109193 0.130749 0.032901
v -0.121482 0.147089 0.015258
v -0.130431 0.159102 -0.003465
v -0.153285 0.124963 -0.003607
v -0.170172 0.085857 -0.003771
v -0.180732 0.044159 -0.003944
v -0.184605 0.002244 -0.004119
v -0.174692 -0.001260 0.014785
v -0.158183 -0.005639 0.033497
v -0.136733 -0.010361 0.050903
v -0.156619 0.129949 -0.021563
v -0.153404 0.130268 -0.037401
v -0.168340 0.091249 -0.037904
v -0.173015 0.090090 -0.021771
v -0.143935 0.127516 -0.050043
v -0.156257 0.090742 -0.051271
v -0.177355 0.048768 -0.038240
v -0.183059 0.047435 -0.021969
v -0.163752 0.049062 -0.051927
v -0.134033 0.164590 -0.021393
v -0.132378 0.163591 -0.037058
v -0.126444 0.157147 -0.049173
v -0.119552 0.149178 -0.056338
v -0.127981 0.126188 -0.059002
v -0.136659 0.090920 -0.061217
v -0.142354 0.049341 -0.062229
v -0.144334 0.005635 -0.062531
v -0.166290 0.005880 -0.052176
v -0.180414 0.005591 -0.038443
v -0.186566 0.004476 -0.022151
v -0.135856 -0.042763 0.050542
v -0.156347 -0.040712 0.033282
v -0.148725 -0.073022 0.032859
v -0.130315 -0.072284 0.049508
v -0.172095 -0.039125 0.014619
v -0.163024 -0.074180 0.014436
v -0.135801 -0.101829 0.032226
v -0.120807 -0.097963 0.047745
v -0.147894 -0.105702 0.014241
v -0.181546 -0.037781 -0.004286
v -0.171770 -0.074873 -0.004441
v -0.155608 -0.108260 -0.004580
v -0.133391 -0.137166 -0.004701
v -0.127071 -0.132981 0.014090
v -0.117657 -0.126514 0.031829
v -0.106955 -0.118930 0.046580
v -0.183403 -0.036559 -0.022319
v -0.177457 -0.035680 -0.038592
v -0.168539 -0.073635 -0.038592
v -0.173689 -0.074556 -0.022458
v -0.163764 -0.035474 -0.052279
v -0.156282 -0.072940 -0.051954
v -0.153695 -0.107262 -0.038392
v -0.157599 -0.108694 -0.022558
v -0.143972 -0.104944 -0.051013
v -0.142354 -0.036363 -0.062587
v -0.136659 -0.074054 -0.061905
v -0.127981 -0.105020 -0.059966
v -0.119552 -0.124911 -0.057481
v -0.126490 -0.130781 -0.050374
v -0.132748 -0.135960 -0.038308
v -0.135281 -0.138200 -0.022655
v -0.104398 0.131067 -0.064405
v -0.073896 0.138095 -0.067228
v -0.076695 0.097384 -0.070593
v -0.109685 0.093581 -0.067413
v -0.038267 0.143233 -0.068274
v -0.039436 0.100417 -0.071759
v -0.078959 0.051811 -0.071962
v -0.113559 0.050375 -0.068662
v -0.040458 0.053038 -0.073175
v -0.100913 0.160004 -0.058861
v -0.072087 0.171182 -0.060883
v -0.037479 0.178556 -0.061690
v -0.000001 0.181132 -0.061800
v -0.000001 0.145126 -0.068419
v -0.000001 0.101617 -0.071923
v -0.000001 0.053553 -0.073347
v -0.000001 0.003882 -0.073729
v -0.040892 0.004078 -0.073554
v -0.079860 0.004551 -0.072328
v -0.114982 0.005128 -0.069003
v 0.038265 0.143233 -0.068274
v 0.073893 0.138095 -0.067228
v 0.076692 0.097384 -0.070593
v 0.039434 0.100417 -0.071759
v 0.104395 0.131067 -0.064405
v 0.109682 0.093581 -0.067413
v 0.078957 0.051811 -0.071962
v 0.040456 0.053038 -0.073175
v 0.113556 0.050375 -0.068662
v 0.037477 0.178556 -0.061690
v 0.072084 0.171182 -0.060883
v 0.100910 0.160004 -0.058861
v 0.114979 0.005128 -0.069003
v 0.079858 0.004551 -0.072328
v 0.040890 0.004078 -0.073554
v -0.113559 -0.038554 -0.069033
v -0.078959 -0.041290 -0.072350
v -0.076695 -0.083310 -0.071347
v -0.109685 -0.078061 -0.068129
v -0.040458 -0.043592 -0.073578
v -0.039436 -0.087614 -0.072544
v -0.073896 -0.119336 -0.068301
v -0.104398 -0.111094 -0.065415
v -0.038267 -0.125759 -0.069396
v -0.000001 -0.044557 -0.073756
v -0.000001 -0.089372 -0.072719
v -0.000001 -0.128278 -0.069559
v -0.000001 -0.158995 -0.063218
v -0.037479 -0.155825 -0.063085
v -0.072087 -0.147399 -0.062211
v -0.100913 -0.135644 -0.060094
v 0.040456 -0.043592 -0.073578
v 0.078957 -0.041290 -0.072350
v 0.076692 -0.083310 -0.071347
v 0.039434 -0.087614 -0.072544
v 0.113556 -0.038554 -0.069033
v 0.109682 -0.078061 -0.068129
v 0.073893 -0.119336 -0.068301
v 0.038265 -0.125759 -0.069396
v 0.104395 -0.111094 -0.065415
v 0.100910 -0.135644 -0.060094
v 0.072084 -0.147399 -0.062211
v 0.037477 -0.155825 -0.063085
v -0.102495 0.179001 -0.049829
v -0.105289 0.189508 -0.037154
v -0.073165 0.207889 -0.037418
v -0.072332 0.194495 -0.050838
v -0.105631 0.191988 -0.021304
v -0.072674 0.211660 -0.021264
v -0.037388 0.218937 -0.037530
v -0.037390 0.203953 -0.051281
v -0.036653 0.223496 -0.021235
v -0.102149 0.186257 -0.003352
v -0.069684 0.205831 -0.003270
v -0.034459 0.217586 -0.003221
v 0.002103 0.221284 -0.003206
v 0.000886 0.227359 -0.021222
v 0.000262 0.222609 -0.037538
v 0.000032 0.207158 -0.051336
v -0.094495 0.172548 0.015401
v -0.084541 0.152986 0.033289
v -0.056225 0.168417 0.033866
v -0.063706 0.190762 0.015541
v -0.074892 0.129957 0.048695
v -0.049295 0.141037 0.050397
v -0.025600 0.177379 0.034191
v -0.030442 0.201558 0.015622
v -0.021280 0.147404 0.051335
v 0.007724 0.148536 0.051566
v 0.006048 0.179619 0.034270
v 0.003977 0.204692 0.015644
v 0.037452 0.203941 -0.051281
v 0.037901 0.218835 -0.037531
v 0.073648 0.207689 -0.037418
v 0.072390 0.194469 -0.050839
v 0.038391 0.223152 -0.021236
v 0.074309 0.210983 -0.021267
v 0.105723 0.189217 -0.037156
v 0.102547 0.178964 -0.049829
v 0.107102 0.191005 -0.021308
v 0.038581 0.216769 -0.003225
v 0.073564 0.204228 -0.003277
v 0.105641 0.183927 -0.003361
v 0.038237 0.199998 0.015616
v 0.037452 0.174901 0.034181
v 0.067361 0.163637 0.033846
v 0.071040 0.187709 0.015529
v 0.036414 0.143961 0.051321
v 0.063480 0.134534 0.050370
v 0.094524 0.146217 0.033261
v 0.101091 0.168135 0.015383
v 0.087549 0.121061 0.048658
v 0.102492 -0.150921 -0.051205
v 0.105285 -0.159535 -0.038610
v 0.073162 -0.176881 -0.039022
v 0.072329 -0.166198 -0.052343
v 0.105625 -0.163318 -0.022786
v 0.072669 -0.181123 -0.022902
v 0.037385 -0.187874 -0.039227
v 0.037387 -0.176235 -0.052866
v 0.036651 -0.192232 -0.022969
v 0.102138 -0.163167 -0.004809
v 0.069677 -0.180241 -0.004880
v 0.034457 -0.190756 -0.004924
v -0.002100 -0.194119 -0.004938
v -0.000887 -0.195972 -0.022987
v -0.000264 -0.191702 -0.039265
v -0.000034 -0.179860 -0.052950
v 0.094477 -0.159745 0.014016
v 0.084516 -0.153315 0.032011
v 0.056210 -0.166513 0.032469
v 0.063695 -0.175274 0.014015
v 0.074863 -0.143947 0.047553
v 0.049277 -0.153999 0.049167
v 0.025598 -0.174295 0.032725
v 0.030440 -0.184661 0.014012
v 0.021279 -0.159775 0.050054
v -0.007708 -0.160680 0.050276
v -0.006036 -0.176174 0.032786
v -0.003970 -0.187385 0.014009
v -0.037454 -0.176223 -0.052866
v -0.037902 -0.187772 -0.039226
v -0.073649 -0.176682 -0.039021
v -0.072392 -0.166173 -0.052343
v -0.038390 -0.191889 -0.022967
v -0.074306 -0.180449 -0.022900
v -0.105724 -0.159245 -0.038609
v -0.102549 -0.150884 -0.051204
v -0.107099 -0.162337 -0.022782
v -0.038575 -0.189941 -0.004921
v -0.073554 -0.178642 -0.004874
v -0.105630 -0.160843 -0.004799
v -0.038222 -0.183105 0.014018
v -0.037428 -0.171823 0.032735
v -0.067328 -0.161745 0.032489
v -0.071020 -0.172229 0.014028
v -0.036383 -0.156340 0.050068
v -0.063439 -0.147510 0.049194
v -0.094487 -0.146560 0.032039
v -0.101068 -0.155342 0.014034
v -0.087504 -0.135069 0.047590
f 1 2 3
f 1 3 4
f 2 5 6
f 2 6 3
f 4 3 7
f 4 7 8
f 3 6 9
f 3 9 7
f 10 11 1
f 10 1 12
f 11 13 2
f 11 2 1
f 13 14 5
f 13 5 2
f 14 15 16
f 14 16 5
f 5 16 17
f 5 17 6
f 6 17 18
f 6 18 9
f 9 18 19
f 9 19 20
f 7 9 20
f 7 20 21
f 8 7 21
f 8 21 22
f 23 8 22
f 23 22 24
f 25 4 8
f 25 8 23
f 12 1 4
f 12 4 25
f 26 27 28
f 26 28 29
f 27 30 31
f 27 31 28
f 29 28 32
f 29 32 33
f 28 31 34
f 28 34 32
f 15 35 26
f 15 26 16
f 35 36 27
f 35 27 26
f 36 37 30
f 36 30 27
f 37 38 39
f 37 39 30
f 30 39 40
f 30 40 31
f 31 40 41
f 31 41 34
f 34 41 42
f 34 42 43
f 32 34 43
f 32 43 44
f 33 32 44
f 33 44 45
f 18 33 45
f 18 45 19
f 17 29 33
f 17 33 18
f 16 26 29
f 16 29 17
f 46 47 48
f 46 48 49
f 47 50 51
f 47 51 48
f 49 48 52
f 49 52 53
f 48 51 54
f 48 54 52
f 24 22 46
f 24 46 55
f 22 21 47
f 22 47 46
f 21 20 50
f 21 50 47
f 20 19 56
f 20 56 50
f 50 56 57
f 50 57 51
f 51 57 58
f 51 58 54
f 54 58 59
f 54 59 60
f 52 54 60
f 52 60 61
f 53 52 61
f 53 61 62
f 63 53 62
f 63 62 64
f 65 49 53
f 65 53 63
f 55 46 49
f 55 49 65
f 66 67 68
f 66 68 69
f 67 70 71
f 67 71 68
f 69 68 72
f 69 72 73
f 68 71 74
f 68 74 72
f 19 45 66
f 19 66 56
f 45 44 67
f 45 67 66
f 44 43 70
f 44 70 67
f 43 42 75
f 43 75 70
f 70 75 76
f 70 76 71
f 71 76 77
f 71 77 74
f 74 77 78
f 74 78 79
f 72 74 79
f 72 79 80
f 73 72 80
f 73 80 81
f 58 73 81
f 58 81 59
f 57 69 73
f 57 73 58
f 56 66 69
f 56 69 57
f 82 83 84
f 82 84 85
f 83 86 87
f 83 87 84
f 85 84 88
f 85 88 89
f 84 87 90
f 84 90 88
f 38 91 82
f 38 82 39
f 91 92 83
f 91 83 82
f 92 93 86
f 92 86 83
f 93 94 95
f 93 95 86
f 86 95 96
f 86 96 87
f 87 96 97
f 87 97 90
f 90 97 98
f 90 98 99
f 88 90 99
f 88 99 100
f 89 88 100
f 89 100 101
f 41 89 101
f 41 101 42
f 40 85 89
f 40 89 41
f 39 82 85
f 39 85 40
f 102 103 104
f 102 104 105
f 103 106 107
f 103 107 104
f 105 104 108
f 105 108 109
f 104 107 110
f 104 110 108
f 94 111 102
f 94 102 95
f 111 112 103
f 111 103 102
f 112 113 106
f 112 106 103
f 113 114 115
f 113 115 106
f 106 115 116
f 106 116 107
f 107 116 117
f 107 117 110
f 110 117 118
f 110 118 119
f 108 110 119
f 108 119 120
f 109 108 120
f 109 120 121
f 97 109 121
f 97 121 98
f 96 105 109
f 96 109 97
f 95 102 105
f 95 105 96
f 122 123 124
f 122 124 125
f 123 126 127
f 123 127 124
f 125 124 128
f 125 128 129
f 124 127 130
f 124 130 128
f 42 101 122
f 42 122 75
f 101 100 123
f 101 123 122
f 100 99 126
f 100 126 123
f 99 98 131
f 99 131 126
f 126 131 132
f 126 132 127
f 127 132 133
f 127 133 130
f 130 133 134
f 130 134 135
f 128 130 135
f 128 135 136
f 129 128 136
f 129 136 137
f 77 129 137
f 77 137 78
f 76 125 129
f 76 129 77
f 75 122 125
f 75 125 76
f 138 139 140
f 138 140 141
f 139 142 143
f 139 143 140
f 141 140 144
f 141 144 145
f 140 143 146
f 140 146 144
f 98 121 138
f 98 138 131
f 121 120 139
f 121 139 138
f 120 119 142
f 120 142 139
f 119 118 147
f 119 147 142
f 142 147 148
f 142 148 143
f 143 148 149
f 143 149 146
f 146 149 150
f 146 150 151
f 144 146 151
f 144 151 152
f 145 144 152
f 145 152 153
f 133 145 153
f 133 153 134
f 132 141 145
f 132 145 133
f 131 138 141
f 131 141 132
f 154 155 156
f 154 156 157
f 155 158 159
f 155 159 156
f 157 156 160
f 157 160 161
f 156 159 162
f 156 162 160
f 114 163 154
f 114 154 115
f 163 164 155
f 163 155 154
f 164 165 158
f 164 158 155
f 165 166 167
f 165 167 158
f 158 167 168
f 158 168 159
f 159 168 169
f 159 169 162
f 162 169 170
f 162 170 171
f 160 162 171
f 160 171 172
f 161 160 172
f 161 172 173
f 117 161 173
f 117 173 118
f 116 157 161
f 116 161 117
f 115 154 157
f 115 157 116
f 174 175 176
f 174 176 177
f 175 178 179
f 175 179 176
f 177 176 180
f 177 180 181
f 176 179 182
f 176 182 180
f 166 183 174
f 166 174 167
f 183 184 175
f 183 175 174
f 184 185 178
f 184 178 175
f 185 186 187
f 185 187 178
f 178 187 188
f 178 188 179
f 179 188 189
f 179 189 182
f 182 189 190
f 182 190 191
f 180 182 191
f 180 191 192
f 181 180 192
f 181 192 193
f 169 181 193
f 169 193 170
f 168 177 181
f 168 181 169
f 167 174 177
f 167 177 168
f 194 195 196
f 194 196 197
f 195 198 199
f 195 199 196
f 197 196 200
f 197 200 201
f 196 199 202
f 196 202 200
f 118 173 194
f 118 194 147
f 173 172 195
f 173 195 194
f 172 171 198
f 172 198 195
f 171 170 203
f 171 203 198
f 198 203 204
f 198 204 199
f 199 204 205
f 199 205 202
f 202 205 206
f 202 206 207
f 200 202 207
f 200 207 208
f 201 200 208
f 201 208 209
f 149 201 209
f 149 209 150
f 148 197 201
f 148 201 149
f 147 194 197
f 147 197 148
f 210 211 212
f 210 212 213
f 211 214 215
f 211 215 212
f 213 212 216
f 213 216 217
f 212 215 218
f 212 218 216
f 170 193 210
f 170 210 203
f 193 192 211
f 193 211 210
f 192 191 214
f 192 214 211
f 191 190 219
f 191 219 214
f 214 219 220
f 214 220 215
f 215 220 221
f 215 221 218
f 218 221 222
f 218 222 223
f 216 218 223
f 216 223 224
f 217 216 224
f 217 224 225
f 205 217 225
f 205 225 206
f 204 213 217
f 204 217 205
f 203 210 213
f 203 213 204
f 226 227 228
f 226 228 229
f 227 230 231
f 227 231 228
f 229 228 232
f 229 232 233
f 228 231 234
f 228 234 232
f 186 235 226
f 186 226 187
f 235 236 227
f 235 227 226
f 236 237 230
f 236 230 227
f 237 238 239
f 237 239 230
f 230 239 240
f 230 240 231
f 231 240 241
f 231 241 234
f 234 241 242
f 234 242 243
f 232 234 243
f 232 243 244
f 233 232 244
f 233 244 245
f 189 233 245
f 189 245 190
f 188 229 233
f 188 233 189
f 187 226 229
f 187 229 188
f 246 247 248
f 246 248 249
f 247 250 251
f 247 251 248
f 249 248 252
f 249 252 253
f 248 251 254
f 248 254 252
f 238 255 246
f 238 246 239
f 255 256 247
f 255 247 246
f 256 257 250
f 256 250 247
f 257 10 12
f 257 12 250
f 250 12 25
f 250 25 251
f 251 25 23
f 251 23 254
f 254 23 24
f 254 24 258
f 252 254 258
f 252 258 259
f 253 252 259
f 253 259 260
f 241 253 260
f 241 260 242
f 240 249 253
f 240 253 241
f 239 246 249
f 239 249 240
f 261 262 263
f 261 263 264
f 262 265 266
f 262 266 263
f 264 263 267
f 264 267 268
f 263 266 269
f 263 269 267
f 190 245 261
f 190 261 219
f 245 244 262
f 245 262 261
f 244 243 265
f 244 265 262
f 243 242 270
f 243 270 265
f 265 270 271
f 265 271 266
f 266 271 272
f 266 272 269
f 269 272 273
f 269 273 274
f 267 269 274
f 267 274 275
f 268 267 275
f 268 275 276
f 221 268 276
f 221 276 222
f 220 264 268
f 220 268 221
f 219 261 264
f 219 264 220
f 277 278 279
f 277 279 280
f 278 281 282
f 278 282 279
f 280 279 283
f 280 283 284
f 279 282 285
f 279 285 283
f 242 260 277
f 242 277 270
f 260 259 278
f 260 278 277
f 259 258 281
f 259 281 278
f 258 24 55
f 258 55 281
f 281 55 65
f 281 65 282
f 282 65 63
f 282 63 285
f 285 63 64
f 285 64 286
f 283 285 286
f 283 286 287
f 284 283 287
f 284 287 288
f 272 284 288
f 272 288 273
f 271 280 284
f 271 284 272
f 270 277 280
f 270 280 271
f 289 290 291
f 289 291 292
f 290 293 294
f 290 294 291
f 292 291 295
f 292 295 296
f 291 294 297
f 291 297 295
f 186 185 289
f 186 289 235
f 185 184 290
f 185 290 289
f 184 183 293
f 184 293 290
f 183 166 298
f 183 298 293
f 293 298 299
f 293 299 294
f 294 299 300
f 294 300 297
f 297 300 301
f 297 301 302
f 295 297 302
f 295 302 303
f 296 295 303
f 296 303 304
f 237 296 304
f 237 304 238
f 236 292 296
f 236 296 237
f 235 289 292
f 235 292 236
f 305 306 307
f 305 307 308
f 306 309 310
f 306 310 307
f 308 307 311
f 308 311 312
f 307 310 313
f 307 313 311
f 166 165 305
f 166 305 298
f 165 164 306
f 165 306 305
f 164 163 309
f 164 309 306
f 163 114 113
f 163 113 309
f 309 113 112
f 309 112 310
f 310 112 111
f 310 111 313
f 313 111 94
f 313 94 314
f 311 313 314
f 311 314 315
f 312 311 315
f 312 315 316
f 300 312 316
f 300 316 301
f 299 308 312
f 299 312 300
f 298 305 308
f 298 308 299
f 317 318 319
f 317 319 320
f 318 321 322
f 318 322 319
f 320 319 323
f 320 323 324
f 319 322 325
f 319 325 323
f 238 304 317
f 238 317 255
f 304 303 318
f 304 318 317
f 303 302 321
f 303 321 318
f 302 301 326
f 302 326 321
f 321 326 327
f 321 327 322
f 322 327 328
f 322 328 325
f 325 328 15
f 325 15 14
f 323 325 14
f 323 14 13
f 324 323 13
f 324 13 11
f 257 324 11
f 257 11 10
f 256 320 324
f 256 324 257
f 255 317 320
f 255 320 256
f 329 330 331
f 329 331 332
f 330 333 334
f 330 334 331
f 332 331 335
f 332 335 336
f 331 334 337
f 331 337 335
f 301 316 329
f 301 329 326
f 316 315 330
f 316 330 329
f 315 314 333
f 315 333 330
f 314 94 93
f 314 93 333
f 333 93 92
f 333 92 334
f 334 92 91
f 334 91 337
f 337 91 38
f 337 38 37
f 335 337 37
f 335 37 36
f 336 335 36
f 336 36 35
f 328 336 35
f 328 35 15
f 327 332 336
f 327 336 328
f 326 329 332
f 326 332 327
f 338 339 340
f 338 340 341
f 339 342 343
f 339 343 340
f 341 340 344
f 341 344 345
f 340 343 346
f 340 346 344
f 64 62 338
f 64 338 286
f 62 61 339
f 62 339 338
f 61 60 342
f 61 342 339
f 60 59 347
f 60 347 342
f 342 347 348
f 342 348 343
f 343 348 349
f 343 349 346
f 346 349 350
f 346 350 351
f 344 346 351
f 344 351 352
f 345 344 352
f 345 352 353
f 288 345 353
f 288 353 273
f 287 341 345
f 287 345 288
f 286 338 341
f 286 341 287
f 354 355 356
f 354 356 357
f 355 358 359
f 355 359 356
f 357 356 360
f 357 360 361
f 356 359 362
f 356 362 360
f 59 81 354
f 59 354 347
f 81 80 355
f 81 355 354
f 80 79 358
f 80 358 355
f 79 78 137
f 79 137 358
f 358 137 136
f 358 136 359
f 359 136 135
f 359 135 362
f 362 135 134
f 362 134 363
f 360 362 363
f 360 363 364
f 361 360 364
f 361 364 365
f 349 361 365
f 349 365 350
f 348 357 361
f 348 361 349
f 347 354 357
f 347 357 348
f 366 367 368
f 366 368 369
f 367 370 371
f 367 371 368
f 369 368 372
f 369 372 373
f 368 371 374
f 368 374 372
f 273 353 366
f 273 366 274
f 353 352 367
f 353 367 366
f 352 351 370
f 352 370 367
f 351 350 375
f 351 375 370
f 370 375 376
f 370 376 371
f 371 376 377
f 371 377 374
f 374 377 206
f 374 206 225
f 372 374 225
f 372 225 224
f 373 372 224
f 373 224 223
f 276 373 223
f 276 223 222
f 275 369 373
f 275 373 276
f 274 366 369
f 274 369 275
f 378 379 380
f 378 380 381
f 379 382 383
f 379 383 380
f 381 380 384
f 381 384 385
f 380 383 386
f 380 386 384
f 350 365 378
f 350 378 375
f 365 364 379
f 365 379 378
f 364 363 382
f 364 382 379
f 363 134 153
f 363 153 382
f 382 153 152
f 382 152 383
f 383 152 151
f 383 151 386
f 386 151 150
f 386 150 209
f 384 386 209
f 384 209 208
f 385 384 208
f 385 208 207
f 377 385 207
f 377 207 206
f 376 381 385
f 376 385 377
f 375 378 381
f 375 381 376
