# lizard mesh
v -0.017425 -0.086110 -0.084877
v -0.000704 -0.093410 -0.077318
v -0.012686 -0.102447 -0.061795
v -0.029815 -0.093410 -0.071342
v 0.017927 -0.097871 -0.067665
v 0.006158 -0.107893 -0.050875
v -0.025704 -0.107893 -0.044333
v -0.043136 -0.097871 -0.055129
v -0.006661 -0.113966 -0.032444
v -0.020164 -0.070900 -0.098219
v -0.008117 -0.075684 -0.096006
v -0.030365 -0.075684 -0.091438
v 0.008972 -0.080651 -0.090688
v 0.027842 -0.083959 -0.082209
v 0.046858 -0.085125 -0.071068
v 0.036982 -0.099391 -0.056089
v 0.025530 -0.109724 -0.038720
v 0.013028 -0.116008 -0.019758
v 0.000000 -0.118129 0.000000
v -0.019758 -0.116008 -0.013027
v -0.038720 -0.109724 -0.025530
v -0.056089 -0.099391 -0.036982
v -0.057979 -0.083959 -0.064590
v -0.071068 -0.085125 -0.046858
v -0.043976 -0.080651 -0.079818
v 0.055129 -0.097871 -0.043136
v 0.071342 -0.093410 -0.029815
v 0.061795 -0.102447 -0.012686
v 0.044333 -0.107893 -0.025704
v 0.084877 -0.086110 -0.017425
v 0.077318 -0.093410 -0.000704
v 0.050875 -0.107893 0.006159
v 0.032444 -0.113966 -0.006661
v 0.067665 -0.097871 0.017927
v 0.064590 -0.083959 -0.057979
v 0.079818 -0.080651 -0.043976
v 0.091438 -0.075684 -0.030365
v 0.098219 -0.070900 -0.020164
v 0.096006 -0.075684 -0.008117
v 0.090689 -0.080651 0.008972
v 0.082209 -0.083959 0.027842
v 0.071068 -0.085125 0.046858
v 0.056089 -0.099390 0.036982
v 0.038720 -0.109724 0.025530
v 0.019758 -0.116008 0.013028
v -0.067664 -0.097871 -0.017927
v -0.050874 -0.107893 -0.006158
v -0.061795 -0.102447 0.012686
v -0.077318 -0.093410 0.000704
v -0.032444 -0.113966 0.006661
v -0.044333 -0.107893 0.025704
v -0.071342 -0.093410 0.029815
v -0.084877 -0.086110 0.017425
v -0.055128 -0.097871 0.043136
v -0.082209 -0.083959 -0.027842
v -0.013027 -0.116008 0.019758
v -0.025530 -0.109724 0.038720
v -0.036981 -0.099390 0.056089
v -0.046858 -0.085125 0.071068
v -0.064590 -0.083959 0.057979
v -0.079818 -0.080651 0.043976
v -0.091438 -0.075684 0.030365
v -0.096006 -0.075684 0.008117
v -0.098219 -0.070900 0.020164
v -0.090688 -0.080651 -0.008972
v 0.006661 -0.113966 0.032445
v 0.025705 -0.107893 0.044333
v 0.012687 -0.102447 0.061795
v -0.006158 -0.107893 0.050875
v 0.043136 -0.097871 0.055129
v 0.029816 -0.093410 0.071342
v 0.000704 -0.093410 0.077318
v -0.017926 -0.097871 0.067665
v 0.017425 -0.086110 0.084877
v 0.057979 -0.083959 0.064590
v 0.043977 -0.080651 0.079819
v 0.030365 -0.075684 0.091439
v 0.020164 -0.070900 0.098219
v 0.008117 -0.075684 0.096006
v -0.008972 -0.080651 0.090689
v -0.027841 -0.083959 0.082209
v 0.105616 -0.061269 -0.003751
v 0.113304 -0.043148 -0.002148
v 0.110083 -0.044607 0.019152
v 0.101736 -0.064162 0.015396
v 0.118237 -0.022280 -0.001526
v 0.115322 -0.022863 0.021102
v 0.102661 -0.045863 0.040304
v 0.093973 -0.066358 0.035273
v 0.108037 -0.023420 0.043181
v 0.104846 -0.059624 -0.021525
v 0.111728 -0.042430 -0.022937
v 0.116310 -0.022009 -0.023878
v 0.117926 0.000000 -0.024210
v 0.119959 0.000000 -0.001378
v 0.117134 0.000000 0.021679
v 0.109879 0.000000 0.044100
v 0.098622 0.000000 0.065026
v 0.096851 -0.023666 0.063858
v 0.091604 -0.046379 0.060399
v 0.082978 -0.067183 0.054711
v 0.118237 0.022280 -0.001526
v 0.113304 0.043148 -0.002148
v 0.110083 0.044607 0.019152
v 0.115322 0.022863 0.021102
v 0.105616 0.061269 -0.003751
v 0.101736 0.064162 0.015396
v 0.102661 0.045863 0.040304
v 0.108037 0.023420 0.043181
v 0.093973 0.066358 0.035273
v 0.116310 0.022009 -0.023878
v 0.111728 0.042430 -0.022937
v 0.104846 0.059624 -0.021525
v 0.098219 0.070900 -0.020164
v 0.096006 0.075684 -0.008117
v 0.090688 0.080651 0.008972
v 0.082209 0.083959 0.027842
v 0.071068 0.085125 0.046858
v 0.082977 0.067183 0.054711
v 0.091604 0.046379 0.060399
v 0.096851 0.023667 0.063858
v 0.069445 -0.066358 0.072475
v 0.077491 -0.045863 0.078478
v 0.060975 -0.044607 0.093634
v 0.054234 -0.064162 0.087442
v 0.082254 -0.023420 0.082286
v 0.064830 -0.022863 0.097681
v 0.042666 -0.043148 0.104986
v 0.038164 -0.061269 0.098551
v 0.045182 -0.022280 0.109274
v 0.083824 0.000000 0.083616
v 0.066075 0.000000 0.099119
v 0.045996 0.000000 0.110799
v 0.024210 0.000000 0.117926
v 0.023878 -0.022009 0.116310
v 0.022938 -0.042430 0.111728
v 0.021525 -0.059624 0.104846
v 0.082254 0.023420 0.082286
v 0.077491 0.045863 0.078478
v 0.060975 0.044607 0.093634
v 0.064830 0.022863 0.097681
v 0.069445 0.066358 0.072475
v 0.054234 0.064163 0.087442
v 0.042666 0.043148 0.104986
v 0.045182 0.022280 0.109274
v 0.038164 0.061269 0.098551
v 0.057979 0.083959 0.064590
v 0.043977 0.080651 0.079819
v 0.030365 0.075684 0.091439
v 0.020164 0.070900 0.098219
v 0.021525 0.059624 0.104846
v 0.022938 0.042430 0.111728
v 0.023878 0.022009 0.116310
v 0.084877 0.086110 -0.017425
v 0.071342 0.093410 -0.029815
v 0.061795 0.102447 -0.012686
v 0.077318 0.093410 -0.000704
v 0.055129 0.097871 -0.043136
v 0.044333 0.107893 -0.025704
v 0.050875 0.107893 0.006159
v 0.067665 0.097871 0.017927
v 0.032444 0.113966 -0.006661
v 0.091438 0.075684 -0.030365
v 0.079818 0.080651 -0.043976
v 0.064590 0.083959 -0.057979
v 0.046858 0.085125 -0.071068
v 0.036982 0.099391 -0.056089
v 0.025530 0.109724 -0.038720
v 0.013027 0.116008 -0.019758
v 0.000000 0.118129 0.000000
v 0.019758 0.116008 0.013028
v 0.038720 0.109724 0.025530
v 0.056089 0.099391 0.036982
v 0.017927 0.097871 -0.067665
v -0.000704 0.093410 -0.077318
v -0.012686 0.102447 -0.061795
v 0.006158 0.107893 -0.050875
v -0.017425 0.086110 -0.084877
v -0.029815 0.093410 -0.071342
v -0.025704 0.107893 -0.044333
v -0.006661 0.113966 -0.032444
v -0.043136 0.097871 -0.055129
v 0.027842 0.083959 -0.082209
v 0.008972 0.080651 -0.090688
v -0.008117 0.075684 -0.096006
v -0.020164 0.070900 -0.098219
v -0.030365 0.075684 -0.091438
v -0.043976 0.080651 -0.079818
v -0.057979 0.083959 -0.064590
v -0.071068 0.085125 -0.046858
v -0.056089 0.099390 -0.036982
v -0.038720 0.109724 -0.025530
v -0.019758 0.116008 -0.013027
v 0.043136 0.097871 0.055129
v 0.025705 0.107893 0.044333
v 0.012687 0.102447 0.061795
v 0.029816 0.093410 0.071342
v 0.006661 0.113966 0.032445
v -0.006158 0.107893 0.050875
v 0.000704 0.093410 0.077318
v 0.017425 0.086110 0.084877
v -0.017926 0.097871 0.067665
v -0.013027 0.116008 0.019758
v -0.025530 0.109724 0.038720
v -0.036981 0.099391 0.056089
v -0.046858 0.085125 0.071068
v -0.027841 0.083959 0.082209
v -0.008972 0.080651 0.090689
v 0.008117 0.075684 0.096006
v -0.032444 0.113966 0.006661
v -0.050875 0.107893 -0.006158
v -0.061795 0.102447 0.012686
v -0.044333 0.107893 0.025704
v -0.067664 0.097871 -0.017927
v -0.077318 0.093410 0.000704
v -0.071342 0.093410 0.029815
v -0.055128 0.097871 0.043136
v -0.084877 0.086110 0.017425
v -0.082209 0.083959 -0.027842
v -0.090688 0.080651 -0.008972
v -0.096006 0.075684 0.008117
v -0.098219 0.070900 0.020164
v -0.091438 0.075684 0.030365
v -0.079818 0.080651 0.043976
v -0.064590 0.083959 0.057979
v -0.038164 0.061269 -0.098551
v -0.042666 0.043148 -0.104985
v -0.060974 0.044607 -0.093634
v -0.054233 0.064162 -0.087442
v -0.045181 0.022280 -0.109274
v -0.064830 0.022863 -0.097680
v -0.077491 0.045863 -0.078478
v -0.069445 0.066358 -0.072475
v -0.082254 0.023420 -0.082286
v -0.021525 0.059624 -0.104846
v -0.022937 0.042430 -0.111728
v -0.023878 0.022009 -0.116310
v -0.024210 -0.000000 -0.117926
v -0.045996 -0.000000 -0.110799
v -0.066074 -0.000000 -0.099118
v -0.083824 -0.000000 -0.083616
v -0.098622 -0.000000 -0.065025
v -0.096851 0.023666 -0.063858
v -0.091604 0.046379 -0.060398
v -0.082977 0.067183 -0.054710
v -0.045181 -0.022280 -0.109274
v -0.042666 -0.043148 -0.104985
v -0.060974 -0.044607 -0.093634
v -0.064830 -0.022863 -0.097680
v -0.038164 -0.061269 -0.098551
v -0.054233 -0.064163 -0.087442
v -0.077491 -0.045863 -0.078478
v -0.082254 -0.023420 -0.082286
v -0.069444 -0.066358 -0.072475
v -0.023878 -0.022009 -0.116310
v -0.022937 -0.042430 -0.111728
v -0.021525 -0.059624 -0.104846
v -0.082977 -0.067183 -0.054710
v -0.091604 -0.046379 -0.060398
v -0.096851 -0.023667 -0.063858
v -0.093973 0.066358 -0.035273
v -0.102661 0.045863 -0.040304
v -0.110083 0.044607 -0.019152
v -0.101736 0.064162 -0.015396
v -0.108037 0.023420 -0.043181
v -0.115322 0.022863 -0.021101
v -0.113303 0.043148 0.002148
v -0.105616 0.061269 0.003751
v -0.118236 0.022280 0.001526
v -0.109878 -0.000000 -0.044100
v -0.117134 -0.000000 -0.021678
v -0.119959 -0.000000 0.001378
v -0.117925 -0.000000 0.024210
v -0.116310 0.022009 0.023878
v -0.111727 0.042430 0.022937
v -0.104846 0.059624 0.021525
v -0.108037 -0.023420 -0.043181
v -0.102661 -0.045863 -0.040304
v -0.110083 -0.044607 -0.019152
v -0.115322 -0.022863 -0.021101
v -0.093973 -0.066358 -0.035273
v -0.101736 -0.064162 -0.015396
v -0.113303 -0.043148 0.002148
v -0.118236 -0.022280 0.001526
v -0.105616 -0.061269 0.003751
v -0.104846 -0.059624 0.021525
v -0.111727 -0.042430 0.022937
v -0.116310 -0.022009 0.023878
v -0.003751 0.061269 -0.105616
v 0.015396 0.064162 -0.101736
v 0.019152 0.044607 -0.110083
v -0.002148 0.043148 -0.113304
v 0.035273 0.066358 -0.093973
v 0.040303 0.045863 -0.102661
v 0.021101 0.022863 -0.115322
v -0.001526 0.022280 -0.118237
v 0.043181 0.023420 -0.108037
v 0.054710 0.067183 -0.082977
v 0.060398 0.046379 -0.091604
v 0.063858 0.023666 -0.096851
v 0.065025 -0.000000 -0.098622
v 0.044100 -0.000000 -0.109878
v 0.021678 -0.000000 -0.117134
v -0.001378 -0.000000 -0.119959
v 0.072475 0.066358 -0.069444
v 0.087442 0.064162 -0.054233
v 0.093634 0.044607 -0.060974
v 0.078478 0.045863 -0.077491
v 0.098551 0.061269 -0.038164
v 0.104985 0.043148 -0.042666
v 0.097680 0.022863 -0.064830
v 0.082286 0.023420 -0.082254
v 0.109274 0.022280 -0.045181
v 0.110799 0.000000 -0.045996
v 0.099118 -0.000000 -0.066074
v 0.083616 -0.000000 -0.083824
v -0.001526 -0.022280 -0.118237
v 0.021101 -0.022863 -0.115322
v 0.019152 -0.044607 -0.110083
v -0.002148 -0.043148 -0.113304
v 0.043181 -0.023420 -0.108037
v 0.040303 -0.045863 -0.102661
v 0.015396 -0.064163 -0.101736
v -0.003751 -0.061269 -0.105616
v 0.035273 -0.066358 -0.093973
v 0.063858 -0.023667 -0.096851
v 0.060398 -0.046379 -0.091604
v 0.054710 -0.067183 -0.082977
v 0.082286 -0.023420 -0.082254
v 0.097680 -0.022863 -0.064830
v 0.093634 -0.044607 -0.060974
v 0.078478 -0.045863 -0.077491
v 0.109274 -0.022280 -0.045181
v 0.104985 -0.043148 -0.042666
v 0.087442 -0.064162 -0.054233
v 0.072475 -0.066358 -0.069444
v 0.098551 -0.061269 -0.038164
v -0.098551 -0.061269 0.038164
v -0.087441 -0.064162 0.054233
v -0.093633 -0.044607 0.060975
v -0.104985 -0.043148 0.042666
v -0.072475 -0.066358 0.069445
v -0.078478 -0.045863 0.077491
v -0.097680 -0.022863 0.064830
v -0.109274 -0.022280 0.045181
v -0.082286 -0.023420 0.082254
v -0.054710 -0.067183 0.082977
v -0.060398 -0.046379 0.091604
v -0.063858 -0.023666 0.096851
v -0.065025 0.000000 0.098622
v -0.083616 0.000000 0.083824
v -0.099118 0.000000 0.066074
v -0.110799 -0.000000 0.045996
v -0.035273 -0.066358 0.093974
v -0.015395 -0.064162 0.101736
v -0.019152 -0.044607 0.110083
v -0.040303 -0.045863 0.102661
v 0.003751 -0.061269 0.105616
v 0.002148 -0.043148 0.113304
v -0.021101 -0.022863 0.115322
v -0.043181 -0.023420 0.108037
v 0.001526 -0.022280 0.118237
v 0.001379 0.000000 0.119959
v -0.021678 0.000000 0.117134
v -0.044099 0.000000 0.109879
v -0.109274 0.022280 0.045181
v -0.097680 0.022863 0.064830
v -0.093633 0.044607 0.060975
v -0.104985 0.043148 0.042666
v -0.082286 0.023420 0.082254
v -0.078478 0.045863 0.077491
v -0.087441 0.064162 0.054233
v -0.098551 0.061269 0.038164
v -0.072475 0.066358 0.069445
v -0.063858 0.023667 0.096851
v -0.060398 0.046379 0.091604
v -0.054710 0.067183 0.082977
v -0.043181 0.023420 0.108037
v -0.021101 0.022863 0.115322
v -0.019152 0.044607 0.110084
v -0.040303 0.045863 0.102661
v 0.001526 0.022280 0.118237
v 0.002148 0.043148 0.113304
v -0.015395 0.064163 0.101736
v -0.035273 0.066358 0.093973
v 0.003751 0.061269 0.105616
v -0.059218 -0.142023 -0.039045
v -0.029301 -0.131212 -0.084420
v -0.015507 -0.129220 -0.074337
v -0.044970 -0.139867 -0.029651
v -0.005276 -0.121118 -0.063571
v -0.032891 -0.131097 -0.021687
v -0.000164 -0.108138 -0.053761
v -0.024821 -0.117048 -0.016365
v -0.000951 -0.092258 -0.046400
v -0.021986 -0.099859 -0.014497
v -0.345098 -0.109206 -0.281720
v -0.369997 -0.118204 -0.243955
v -0.385528 -0.112987 -0.254195
v -0.361728 -0.104386 -0.290293
v -0.398695 -0.100997 -0.262876
v -0.377420 -0.093309 -0.295143
v -0.407492 -0.084059 -0.268677
v -0.389785 -0.077660 -0.295533
v -0.409629 -0.061694 -0.270086
v -0.396634 -0.056997 -0.289796
v -0.003939 -0.100425 -0.122887
v 0.009470 -0.098901 -0.112219
v 0.018136 -0.092699 -0.099078
v 0.020738 -0.082765 -0.085463
v 0.016882 -0.070611 -0.073447
v -0.323989 -0.083583 -0.313735
v -0.341550 -0.079894 -0.320895
v -0.359384 -0.071415 -0.322498
v -0.374774 -0.059439 -0.318300
v -0.385616 -0.043624 -0.306506
v 0.013008 -0.054350 -0.148589
v 0.026160 -0.053525 -0.137532
v 0.033779 -0.050169 -0.122803
v 0.034705 -0.044792 -0.106646
v 0.028798 -0.038214 -0.091519
v -0.309884 -0.045235 -0.335127
v -0.328068 -0.043238 -0.341343
v -0.347332 -0.038650 -0.340776
v -0.364744 -0.032168 -0.333512
v -0.378255 -0.023609 -0.317671
v 0.018959 -0.000000 -0.157615
v 0.032020 -0.000000 -0.146420
v 0.039272 -0.000000 -0.131134
v 0.039609 0.000000 -0.114084
v 0.032982 0.000000 -0.097865
v -0.304932 -0.000000 -0.342638
v -0.323334 -0.000000 -0.348523
v -0.343100 -0.000000 -0.347194
v -0.361221 -0.000000 -0.338854
v -0.375670 -0.000000 -0.321591
v 0.013008 0.054350 -0.148589
v 0.026160 0.053525 -0.137532
v 0.033779 0.050169 -0.122803
v 0.034705 0.044792 -0.106646
v 0.028798 0.038214 -0.091519
v -0.309884 0.045234 -0.335127
v -0.328068 0.043238 -0.341343
v -0.347332 0.038649 -0.340776
v -0.364744 0.032168 -0.333512
v -0.378255 0.023609 -0.317671
v -0.003939 0.100425 -0.122887
v 0.009470 0.098901 -0.112219
v 0.018136 0.092699 -0.099078
v 0.020738 0.082765 -0.085463
v 0.016882 0.070611 -0.073447
v -0.323989 0.083582 -0.313735
v -0.341550 0.079893 -0.320895
v -0.359384 0.071415 -0.322498
v -0.374774 0.059438 -0.318300
v -0.385616 0.043624 -0.306506
v -0.029301 0.131212 -0.084420
v -0.015507 0.129220 -0.074337
v -0.005276 0.121118 -0.063571
v -0.000164 0.108138 -0.053761
v -0.000951 0.092258 -0.046400
v -0.345098 0.109205 -0.281720
v -0.361728 0.104385 -0.290293
v -0.377420 0.093308 -0.295143
v -0.389785 0.077660 -0.295533
v -0.396634 0.056997 -0.289796
v -0.059219 0.142023 -0.039045
v -0.044971 0.139867 -0.029651
v -0.032892 0.131097 -0.021687
v -0.024821 0.117048 -0.016365
v -0.021986 0.099859 -0.014497
v -0.369997 0.118203 -0.243955
v -0.385528 0.112986 -0.254195
v -0.398695 0.100996 -0.262876
v -0.407492 0.084059 -0.268677
v -0.409629 0.061693 -0.270086
v -0.089136 0.131212 0.006329
v -0.074434 0.129220 0.015035
v -0.060507 0.121118 0.020197
v -0.049477 0.108138 0.021030
v -0.043022 0.092258 0.017407
v -0.394897 0.109205 -0.206190
v -0.409329 0.104385 -0.218097
v -0.419970 0.093308 -0.230609
v -0.425199 0.077660 -0.241821
v -0.422625 0.056997 -0.250376
v -0.114498 0.100425 0.044796
v -0.099411 0.098901 0.052918
v -0.083919 0.092699 0.055704
v -0.070379 0.082765 0.052732
v -0.060855 0.070611 0.044454
v -0.416006 0.083582 -0.174175
v -0.429506 0.079893 -0.187495
v -0.438006 0.071415 -0.203254
v -0.440211 0.059438 -0.219054
v -0.433642 0.043624 -0.233666
v -0.131445 0.054350 0.070499
v -0.116101 0.053525 0.078230
v -0.099562 0.050169 0.079430
v -0.084346 0.044792 0.073915
v -0.072770 0.038214 0.062526
v -0.430111 0.045234 -0.152783
v -0.442988 0.043238 -0.167047
v -0.450057 0.038649 -0.184977
v -0.450241 0.032168 -0.203841
v -0.441004 0.023609 -0.222501
v -0.137396 0.000000 0.079524
v -0.121961 0.000000 0.087119
v -0.105055 0.000000 0.087761
v -0.089250 0.000000 0.081354
v -0.076955 0.000000 0.068872
v -0.435063 -0.000000 -0.145272
v -0.447722 -0.000000 -0.159867
v -0.454289 -0.000000 -0.178558
v -0.453763 -0.000000 -0.198499
v -0.443589 -0.000000 -0.218581
v -0.131445 -0.054350 0.070499
v -0.116100 -0.053525 0.078230
v -0.099561 -0.050168 0.079430
v -0.084346 -0.044792 0.073915
v -0.072770 -0.038214 0.062526
v -0.430110 -0.045235 -0.152783
v -0.442988 -0.043238 -0.167047
v -0.450057 -0.038650 -0.184977
v -0.450241 -0.032168 -0.203841
v -0.441004 -0.023609 -0.222501
v -0.114498 -0.100425 0.044796
v -0.099411 -0.098901 0.052918
v -0.083918 -0.092699 0.055704
v -0.070379 -0.082765 0.052732
v -0.060855 -0.070611 0.044454
v -0.416006 -0.083583 -0.174175
v -0.429506 -0.079894 -0.187495
v -0.438006 -0.071415 -0.203254
v -0.440211 -0.059439 -0.219054
v -0.433642 -0.043624 -0.233666
v -0.089136 -0.131212 0.006329
v -0.074433 -0.129220 0.015035
v -0.060507 -0.121118 0.020197
v -0.049477 -0.108138 0.021030
v -0.043022 -0.092258 0.017407
v -0.394897 -0.109206 -0.206190
v -0.409329 -0.104386 -0.218097
v -0.419970 -0.093309 -0.230609
v -0.425199 -0.077660 -0.241821
v -0.422625 -0.056997 -0.250376
f 1 2 3
f 1 3 4
f 2 5 6
f 2 6 3
f 4 3 7
f 4 7 8
f 3 6 9
f 3 9 7
f 10 11 1
f 10 1 12
f 11 13 2
f 11 2 1
f 13 14 5
f 13 5 2
f 14 15 16
f 14 16 5
f 5 16 17
f 5 17 6
f 6 17 18
f 6 18 9
f 9 18 19
f 9 19 20
f 7 9 20
f 7 20 21
f 8 7 21
f 8 21 22
f 23 8 22
f 23 22 24
f 25 4 8
f 25 8 23
f 12 1 4
f 12 4 25
f 26 27 28
f 26 28 29
f 27 30 31
f 27 31 28
f 29 28 32
f 29 32 33
f 28 31 34
f 28 34 32
f 15 35 26
f 15 26 16
f 35 36 27
f 35 27 26
f 36 37 30
f 36 30 27
f 37 38 39
f 37 39 30
f 30 39 40
f 30 40 31
f 31 40 41
f 31 41 34
f 34 41 42
f 34 42 43
f 32 34 43
f 32 43 44
f 33 32 44
f 33 44 45
f 18 33 45
f 18 45 19
f 17 29 33
f 17 33 18
f 16 26 29
f 16 29 17
f 46 47 48
f 46 48 49
f 47 50 51
f 47 51 48
f 49 48 52
f 49 52 53
f 48 51 54
f 48 54 52
f 24 22 46
f 24 46 55
f 22 21 47
f 22 47 46
f 21 20 50
f 21 50 47
f 20 19 56
f 20 56 50
f 50 56 57
f 50 57 51
f 51 57 58
f 51 58 54
f 54 58 59
f 54 59 60
f 52 54 60
f 52 60 61
f 53 52 61
f 53 61 62
f 63 53 62
f 63 62 64
f 65 49 53
f 65 53 63
f 55 46 49
f 55 49 65
f 66 67 68
f 66 68 69
f 67 70 71
f 67 71 68
f 69 68 72
f 69 72 73
f 68 71 74
f 68 74 72
f 19 45 66
f 19 66 56
f 45 44 67
f 45 67 66
f 44 43 70
f 44 70 67
f 43 42 75
f 43 75 70
f 70 75 76
f 70 76 71
f 71 76 77
f 71 77 74
f 74 77 78
f 74 78 79
f 72 74 79
f 72 79 80
f 73 72 80
f 73 80 81
f 58 73 81
f 58 81 59
f 57 69 73
f 57 73 58
f 56 66 69
f 56 69 57
f 82 83 84
f 82 84 85
f 83 86 87
f 83 87 84
f 85 84 88
f 85 88 89
f 84 87 90
f 84 90 88
f 38 91 82
f 38 82 39
f 91 92 83
f 91 83 82
f 92 93 86
f 92 86 83
f 93 94 95
f 93 95 86
f 86 95 96
f 86 96 87
f 87 96 97
f 87 97 90
f 90 97 98
f 90 98 99
f 88 90 99
f 88 99 100
f 89 88 100
f 89 100 101
f 41 89 101
f 41 101 42
f 40 85 89
f 40 89 41
f 39 82 85
f 39 85 40
f 102 103 104
f 102 104 105
f 103 106 107
f 103 107 104
f 105 104 108
f 105 108 109
f 104 107 110
f 104 110 108
f 94 111 102
f 94 102 95
f 111 112 103
f 111 103 102
f 112 113 106
f 112 106 103
f 113 114 115
f 113 115 106
f 106 115 116
f 106 116 107
f 107 116 117
f 107 117 110
f 110 117 118
f 110 118 119
f 108 110 119
f 108 119 120
f 109 108 120
f 109 120 121
f 97 109 121
f 97 121 98
f 96 105 109
f 96 109 97
f 95 102 105
f 95 105 96
f 122 123 124
f 122 124 125
f 123 126 127
f 123 127 124
f 125 124 128
f 125 128 129
f 124 127 130
f 124 130 128
f 42 101 122
f 42 122 75
f 101 100 123
f 101 123 122
f 100 99 126
f 100 126 123
f 99 98 131
f 99 131 126
f 126 131 132
f 126 132 127
f 127 132 133
f 127 133 130
f 130 133 134
f 130 134 135
f 128 130 135
f 128 135 136
f 129 128 136
f 129 136 137
f 77 129 137
f 77 137 78
f 76 125 129
f 76 129 77
f 75 122 125
f 75 125 76
f 138 139 140
f 138 140 141
f 139 142 143
f 139 143 140
f 141 140 144
f 141 144 145
f 140 143 146
f 140 146 144
f 98 121 138
f 98 138 131
f 121 120 139
f 121 139 138
f 120 119 142
f 120 142 139
f 119 118 147
f 119 147 142
f 142 147 148
f 142 148 143
f 143 148 149
f 143 149 146
f 146 149 150
f 146 150 151
f 144 146 151
f 144 151 152
f 145 144 152
f 145 152 153
f 133 145 153
f 133 153 134
f 132 141 145
f 132 145 133
f 131 138 141
f 131 141 132
f 154 155 156
f 154 156 157
f 155 158 159
f 155 159 156
f 157 156 160
f 157 160 161
f 156 159 162
f 156 162 160
f 114 163 154
f 114 154 115
f 163 164 155
f 163 155 154
f 164 165 158
f 164 158 155
f 165 166 167
f 165 167 158
f 158 167 168
f 158 168 159
f 159 168 169
f 159 169 162
f 162 169 170
f 162 170 171
f 160 162 171
f 160 171 172
f 161 160 172
f 161 172 173
f 117 161 173
f 117 173 118
f 116 157 161
f 116 161 117
f 115 154 157
f 115 157 116
f 174 175 176
f 174 176 177
f 175 178 179
f 175 179 176
f 177 176 180
f 177 180 181
f 176 179 182
f 176 182 180
f 166 183 174
f 166 174 167
f 183 184 175
f 183 175 174
f 184 185 178
f 184 178 175
f 185 186 187
f 185 187 178
f 178 187 188
f 178 188 179
f 179 188 189
f 179 189 182
f 182 189 190
f 182 190 191
f 180 182 191
f 180 191 192
f 181 180 192
f 181 192 193
f 169 181 193
f 169 193 170
f 168 177 181
f 168 181 169
f 167 174 177
f 167 177 168
f 194 195 196
f 194 196 197
f 195 198 199
f 195 199 196
f 197 196 200
f 197 200 201
f 196 199 202
f 196 202 200
f 118 173 194
f 118 194 147
f 173 172 195
f 173 195 194
f 172 171 198
f 172 198 195
f 171 170 203
f 171 203 198
f 198 203 204
f 198 204 199
f 199 204 205
f 199 205 202
f 202 205 206
f 202 206 207
f 200 202 207
f 200 207 208
f 201 200 208
f 201 208 209
f 149 201 209
f 149 209 150
f 148 197 201
f 148 201 149
f 147 194 197
f 147 197 148
f 210 211 212
f 210 212 213
f 211 214 215
f 211 215 212
f 213 212 216
f 213 216 217
f 212 215 218
f 212 218 216
f 170 193 210
f 170 210 203
f 193 192 211
f 193 211 210
f 192 191 214
f 192 214 211
f 191 190 219
f 191 219 214
f 214 219 220
f 214 220 215
f 215 220 221
f 215 221 218
f 218 221 222
f 218 222 223
f 216 218 223
f 216 223 224
f 217 216 224
f 217 224 225
f 205 217 225
f 205 225 206
f 204 213 217
f 204 217 205
f 203 210 213
f 203 213 204
f 226 227 228
f 226 228 229
f 227 230 231
f 227 231 228
f 229 228 232
f 229 232 233
f 228 231 234
f 228 234 232
f 186 235 226
f 186 226 187
f 235 236 227
f 235 227 226
f 236 237 230
f 236 230 227
f 237 238 239
f 237 239 230
f 230 239 240
f 230 240 231
f 231 240 241
f 231 241 234
f 234 241 242
f 234 242 243
f 232 234 243
f 232 243 244
f 233 232 244
f 233 244 245
f 189 233 245
f 189 245 190
f 188 229 233
f 188 233 189
f 187 226 229
f 187 229 188
f 246 247 248
f 246 248 249
f 247 250 251
f 247 251 248
f 249 248 252
f 249 252 253
f 248 251 254
f 248 254 252
f 238 255 246
f 238 246 239
f 255 256 247
f 255 247 246
f 256 257 250
f 256 250 247
f 257 10 12
f 257 12 250
f 250 12 25
f 250 25 251
f 251 25 23
f 251 23 254
f 254 23 24
f 254 24 258
f 252 254 258
f 252 258 259
f 253 252 259
f 253 259 260
f 241 253 260
f 241 260 242
f 240 249 253
f 240 253 241
f 239 246 249
f 239 249 240
f 261 262 263
f 261 263 264
f 262 265 266
f 262 266 263
f 264 263 267
f 264 267 268
f 263 266 269
f 263 269 267
f 190 245 261
f 190 261 219
f 245 244 262
f 245 262 261
f 244 243 265
f 244 265 262
f 243 242 270
f 243 270 265
f 265 270 271
f 265 271 266
f 266 271 272
f 266 272 269
f 269 272 273
f 269 273 274
f 267 269 274
f 267 274 275
f 268 267 275
f 268 275 276
f 221 268 276
f 221 276 222
f 220 264 268
f 220 268 221
f 219 261 264
f 219 264 220
f 277 278 279
f 277 279 280
f 278 281 282
f 278 282 279
f 280 279 283
f 280 283 284
f 279 282 285
f 279 285 283
f 242 260 277
f 242 277 270
f 260 259 278
f 260 278 277
f 259 258 281
f 259 281 278
f 258 24 55
f 258 55 281
f 281 55 65
f 281 65 282
f 282 65 63
f 282 63 285
f 285 63 64
f 285 64 286
f 283 285 286
f 283 286 287
f 284 283 287
f 284 287 288
f 272 284 288
f 272 288 273
f 271 280 284
f 271 284 272
f 270 277 280
f 270 280 271
f 289 290 291
f 289 291 292
f 290 293 294
f 290 294 291
f 292 291 295
f 292 295 296
f 291 294 297
f 291 297 295
f 186 185 289
f 186 289 235
f 185 184 290
f 185 290 289
f 184 183 293
f 184 293 290
f 183 166 298
f 183 298 293
f 293 298 299
f 293 299 294
f 294 299 300
f 294 300 297
f 297 300 301
f 297 301 302
f 295 297 302
f 295 302 303
f 296 295 303
f 296 303 304
f 237 296 304
f 237 304 238
f 236 292 296
f 236 296 237
f 235 289 292
f 235 292 236
f 305 306 307
f 305 307 308
f 306 309 310
f 306 310 307
f 308 307 311
f 308 311 312
f 307 310 313
f 307 313 311
f 166 165 305
f 166 305 298
f 165 164 306
f 165 306 305
f 164 163 309
f 164 309 306
f 163 114 113
f 163 113 309
f 309 113 112
f 309 112 310
f 310 112 111
f 310 111 313
f 313 111 94
f 313 94 314
f 311 313 314
f 311 314 315
f 312 311 315
f 312 315 316
f 300 312 316
f 300 316 301
f 299 308 312
f 299 312 300
f 298 305 308
f 298 308 299
f 317 318 319
f 317 319 320
f 318 321 322
f 318 322 319
f 320 319 323
f 320 323 324
f 319 322 325
f 319 325 323
f 238 304 317
f 238 317 255
f 304 303 318
f 304 318 317
f 303 302 321
f 303 321 318
f 302 301 326
f 302 326 321
f 321 326 327
f 321 327 322
f 322 327 328
f 322 328 325
f 325 328 15
f 325 15 14
f 323 325 14
f 323 14 13
f 324 323 13
f 324 13 11
f 257 324 11
f 257 11 10
f 256 320 324
f 256 324 257
f 255 317 320
f 255 320 256
f 329 330 331
f 329 331 332
f 330 333 334
f 330 334 331
f 332 331 335
f 332 335 336
f 331 334 337
f 331 337 335
f 301 316 329
f 301 329 326
f 316 315 330
f 316 330 329
f 315 314 333
f 315 333 330
f 314 94 93
f 314 93 333
f 333 93 92
f 333 92 334
f 334 92 91
f 334 91 337
f 337 91 38
f 337 38 37
f 335 337 37
f 335 37 36
f 336 335 36
f 336 36 35
f 328 336 35
f 328 35 15
f 327 332 336
f 327 336 328
f 326 329 332
f 326 332 327
f 338 339 340
f 338 340 341
f 339 342 343
f 339 343 340
f 341 340 344
f 341 344 345
f 340 343 346
f 340 346 344
f 64 62 338
f 64 338 286
f 62 61 339
f 62 339 338
f 61 60 342
f 61 342 339
f 60 59 347
f 60 347 342
f 342 347 348
f 342 348 343
f 343 348 349
f 343 349 346
f 346 349 350
f 346 350 351
f 344 346 351
f 344 351 352
f 345 344 352
f 345 352 353
f 288 345 353
f 288 353 273
f 287 341 345
f 287 345 288
f 286 338 341
f 286 341 287
f 354 355 356
f 354 356 357
f 355 358 359
f 355 359 356
f 357 356 360
f 357 360 361
f 356 359 362
f 356 362 360
f 59 81 354
f 59 354 347
f 81 80 355
f 81 355 354
f 80 79 358
f 80 358 355
f 79 78 137
f 79 137 358
f 358 137 136
f 358 136 359
f 359 136 135
f 359 135 362
f 362 135 134
f 362 134 363
f 360 362 363
f 360 363 364
f 361 360 364
f 361 364 365
f 349 361 365
f 349 365 350
f 348 357 361
f 348 361 349
f 347 354 357
f 347 357 348
f 366 367 368
f 366 368 369
f 367 370 371
f 367 371 368
f 369 368 372
f 369 372 373
f 368 371 374
f 368 374 372
f 273 353 366
f 273 366 274
f 353 352 367
f 353 367 366
f 352 351 370
f 352 370 367
f 351 350 375
f 351 375 370
f 370 375 376
f 370 376 371
f 371 376 377
f 371 377 374
f 374 377 206
f 374 206 225
f 372 374 225
f 372 225 224
f 373 372 224
f 373 224 223
f 276 373 223
f 276 223 222
f 275 369 373
f 275 373 276
f 274 366 369
f 274 369 275
f 378 379 380
f 378 380 381
f 379 382 383
f 379 383 380
f 381 380 384
f 381 384 385
f 380 383 386
f 380 386 384
f 350 365 378
f 350 378 375
f 365 364 379
f 365 379 378
f 364 363 382
f 364 382 379
f 363 134 153
f 363 153 382
f 382 153 152
f 382 152 383
f 383 152 151
f 383 151 386
f 386 151 150
f 386 150 209
f 384 386 209
f 384 209 208
f 385 384 208
f 385 208 207
f 377 385 207
f 377 207 206
f 376 381 385
f 376 385 377
f 375 378 381
f 375 381 376
f 387 388 389
f 387 389 390
f 390 389 391
f 390 391 392
f 392 391 393
f 392 393 394
f 394 393 395
f 394 395 396
f 397 398 399
f 397 399 400
f 400 399 401
f 400 401 402
f 402 401 403
f 402 403 404
f 404 403 405
f 404 405 406
f 388 407 408
f 388 408 389
f 389 408 409
f 389 409 391
f 391 409 410
f 391 410 393
f 393 410 411
f 393 411 395
f 412 397 400
f 412 400 413
f 413 400 402
f 413 402 414
f 414 402 404
f 414 404 415
f 415 404 406
f 415 406 416
f 407 417 418
f 407 418 408
f 408 418 419
f 408 419 409
f 409 419 420
f 409 420 410
f 410 420 421
f 410 421 411
f 422 412 413
f 422 413 423
f 423 413 414
f 423 414 424
f 424 414 415
f 424 415 425
f 425 415 416
f 425 416 426
f 417 427 428
f 417 428 418
f 418 428 429
f 418 429 419
f 419 429 430
f 419 430 420
f 420 430 431
f 420 431 421
f 432 422 423
f 432 423 433
f 433 423 424
f 433 424 434
f 434 424 425
f 434 425 435
f 435 425 426
f 435 426 436
f 427 437 438
f 427 438 428
f 428 438 439
f 428 439 429
f 429 439 440
f 429 440 430
f 430 440 441
f 430 441 431
f 442 432 433
f 442 433 443
f 443 433 434
f 443 434 444
f 444 434 435
f 444 435 445
f 445 435 436
f 445 436 446
f 437 447 448
f 437 448 438
f 438 448 449
f 438 449 439
f 439 449 450
f 439 450 440
f 440 450 451
f 440 451 441
f 452 442 443
f 452 443 453
f 453 443 444
f 453 444 454
f 454 444 445
f 454 445 455
f 455 445 446
f 455 446 456
f 447 457 458
f 447 458 448
f 448 458 459
f 448 459 449
f 449 459 460
f 449 460 450
f 450 460 461
f 450 461 451
f 462 452 453
f 462 453 463
f 463 453 454
f 463 454 464
f 464 454 455
f 464 455 465
f 465 455 456
f 465 456 466
f 457 467 468
f 457 468 458
f 458 468 469
f 458 469 459
f 459 469 470
f 459 470 460
f 460 470 471
f 460 471 461
f 472 462 463
f 472 463 473
f 473 463 464
f 473 464 474
f 474 464 465
f 474 465 475
f 475 465 466
f 475 466 476
f 467 477 478
f 467 478 468
f 468 478 479
f 468 479 469
f 469 479 480
f 469 480 470
f 470 480 481
f 470 481 471
f 482 472 473
f 482 473 483
f 483 473 474
f 483 474 484
f 484 474 475
f 484 475 485
f 485 475 476
f 485 476 486
f 477 487 488
f 477 488 478
f 478 488 489
f 478 489 479
f 479 489 490
f 479 490 480
f 480 490 491
f 480 491 481
f 492 482 483
f 492 483 493
f 493 483 484
f 493 484 494
f 494 484 485
f 494 485 495
f 495 485 486
f 495 486 496
f 487 497 498
f 487 498 488
f 488 498 499
f 488 499 489
f 489 499 500
f 489 500 490
f 490 500 501
f 490 501 491
f 502 492 493
f 502 493 503
f 503 493 494
f 503 494 504
f 504 494 495
f 504 495 505
f 505 495 496
f 505 496 506
f 497 507 508
f 497 508 498
f 498 508 509
f 498 509 499
f 499 509 510
f 499 510 500
f 500 510 511
f 500 511 501
f 512 502 503
f 512 503 513
f 513 503 504
f 513 504 514
f 514 504 505
f 514 505 515
f 515 505 506
f 515 506 516
f 507 517 518
f 507 518 508
f 508 518 519
f 508 519 509
f 509 519 520
f 509 520 510
f 510 520 521
f 510 521 511
f 522 512 513
f 522 513 523
f 523 513 514
f 523 514 524
f 524 514 515
f 524 515 525
f 525 515 516
f 525 516 526
f 517 527 528
f 517 528 518
f 518 528 529
f 518 529 519
f 519 529 530
f 519 530 520
f 520 530 531
f 520 531 521
f 532 522 523
f 532 523 533
f 533 523 524
f 533 524 534
f 534 524 525
f 534 525 535
f 535 525 526
f 535 526 536
f 527 537 538
f 527 538 528
f 528 538 539
f 528 539 529
f 529 539 540
f 529 540 530
f 530 540 541
f 530 541 531
f 542 532 533
f 542 533 543
f 543 533 534
f 543 534 544
f 544 534 535
f 544 535 545
f 545 535 536
f 545 536 546
f 537 387 390
f 537 390 538
f 538 390 392
f 538 392 539
f 539 392 394
f 539 394 540
f 540 394 396
f 540 396 541
f 398 542 543
f 398 543 399
f 399 543 544
f 399 544 401
f 401 544 545
f 401 545 403
f 403 545 546
f 403 546 405
f 396 395 411
f 396 411 421
f 396 421 431
f 396 431 441
f 396 441 451
f 396 451 461
f 396 461 471
f 396 471 481
f 396 481 491
f 396 491 501
f 396 501 511
f 396 511 521
f 396 521 531
f 396 531 541
f 387 398 397
f 387 397 388
f 537 542 398
f 537 398 387
f 406 405 546
f 406 546 536
f 406 536 526
f 406 526 516
f 406 516 506
f 406 506 496
f 406 496 486
f 406 486 476
f 406 476 466
f 406 466 456
f 406 456 446
f 406 446 436
f 406 436 426
f 406 426 416
f 388 397 412
f 388 412 407
f 407 412 422
f 407 422 417
f 417 422 432
f 417 432 427
f 427 432 442
f 427 442 437
f 437 442 452
f 437 452 447
f 447 452 462
f 447 462 457
f 457 462 472
f 457 472 467
f 467 472 482
f 467 482 477
f 477 482 492
f 477 492 487
f 487 492 502
f 487 502 497
f 497 502 512
f 497 512 507
f 507 512 522
f 507 522 517
f 517 522 532
f 517 532 527
f 527 532 542
f 527 542 537
