# lizard mesh
v 0.128493 -0.143969 -0.047333
v 0.130595 -0.153693 -0.034645
v 0.091547 -0.168537 -0.035976
v 0.091747 -0.156279 -0.049340
v 0.128907 -0.157601 -0.018843
v 0.088898 -0.173689 -0.019900
v 0.049053 -0.177454 -0.037212
v 0.050086 -0.163762 -0.050878
v 0.046157 -0.183401 -0.021004
v 0.150337 -0.119549 -0.053166
v 0.158107 -0.126488 -0.045836
v 0.127409 -0.127979 -0.056316
v 0.163968 -0.132747 -0.033595
v 0.163755 -0.135284 -0.017934
v 0.156175 -0.133402 -0.000170
v 0.121528 -0.155616 -0.001049
v 0.082049 -0.171774 -0.002050
v 0.040125 -0.181546 -0.003112
v -0.001859 -0.184600 -0.004177
v 0.003177 -0.186562 -0.022096
v 0.005880 -0.180411 -0.038329
v 0.006918 -0.166287 -0.052041
v 0.050647 -0.142351 -0.061171
v 0.006958 -0.144331 -0.062398
v 0.092195 -0.136656 -0.059278
v 0.107971 -0.147912 0.017424
v 0.091019 -0.135830 0.034969
v 0.055898 -0.148744 0.034591
v 0.070261 -0.163035 0.016532
v 0.074501 -0.120843 0.050057
v 0.042182 -0.130339 0.050894
v 0.018652 -0.156352 0.033935
v 0.030336 -0.172097 0.015556
v 0.007570 -0.135864 0.050928
v 0.141133 -0.127094 0.018228
v 0.121544 -0.117692 0.035448
v 0.101218 -0.106998 0.049657
v 0.085854 -0.098244 0.058669
v 0.063508 -0.103483 0.061839
v 0.032678 -0.108891 0.064490
v -0.000375 -0.112143 0.065474
v -0.033044 -0.111988 0.065133
v -0.026822 -0.136724 0.050282
v -0.018393 -0.158175 0.033065
v -0.009494 -0.174686 0.014554
v -0.034423 -0.163749 -0.053020
v -0.035368 -0.177351 -0.039352
v -0.073284 -0.168336 -0.040155
v -0.071884 -0.156254 -0.053488
v -0.037810 -0.183054 -0.023132
v -0.075694 -0.173008 -0.024073
v -0.106859 -0.153400 -0.040666
v -0.103894 -0.143932 -0.053225
v -0.109659 -0.156611 -0.024892
v -0.035029 -0.142351 -0.063343
v -0.041787 -0.180723 -0.005189
v -0.078627 -0.170160 -0.006123
v -0.111616 -0.153271 -0.006960
v -0.139994 -0.130418 -0.007679
v -0.138937 -0.134025 -0.025609
v -0.135488 -0.132374 -0.041188
v -0.129730 -0.126441 -0.053134
v -0.103727 -0.127979 -0.062177
v -0.123665 -0.119549 -0.060113
v -0.072726 -0.136656 -0.063460
v -0.047188 -0.170526 0.013590
v -0.053209 -0.153856 0.032113
v -0.084787 -0.143932 0.031024
v -0.081772 -0.159961 0.012677
v -0.058891 -0.132398 0.049243
v -0.087438 -0.123794 0.047608
v -0.112425 -0.129017 0.029811
v -0.112547 -0.143469 0.011833
v -0.111551 -0.111892 0.045340
v -0.063330 -0.107767 0.063878
v -0.089953 -0.100732 0.061381
v -0.111681 -0.092662 0.057397
v -0.125699 -0.086136 0.053305
v -0.130673 -0.096131 0.043778
v -0.135621 -0.109161 0.028928
v -0.138838 -0.121459 0.011129
v 0.062385 -0.083131 0.070145
v 0.066742 -0.059846 0.075630
v 0.032014 -0.059930 0.081622
v 0.029922 -0.085269 0.074696
v 0.072214 -0.034392 0.078634
v 0.036085 -0.033258 0.085577
v -0.002448 -0.059514 0.084600
v -0.003357 -0.086502 0.076718
v 0.000577 -0.031573 0.089259
v 0.092534 -0.082902 0.062574
v 0.100871 -0.060681 0.066219
v 0.108155 -0.035349 0.068226
v 0.112480 -0.008414 0.068823
v 0.076269 -0.007690 0.079575
v 0.039851 -0.005783 0.086875
v 0.004014 -0.003089 0.090833
v -0.030455 -0.000001 0.091561
v -0.033478 -0.029017 0.089882
v -0.035591 -0.057624 0.084962
v -0.035783 -0.085417 0.076734
v 0.077321 0.019325 0.078764
v 0.076258 0.045725 0.075871
v 0.042628 0.049284 0.081891
v 0.041763 0.021924 0.085721
v 0.074948 0.070532 0.070463
v 0.043998 0.075730 0.075053
v 0.008846 0.053822 0.084887
v 0.006610 0.025520 0.089412
v 0.011654 0.081386 0.077099
v 0.112504 0.018867 0.068336
v 0.108978 0.045249 0.066425
v 0.103290 0.069155 0.062847
v 0.097892 0.086173 0.058974
v 0.077213 0.092701 0.062186
v 0.048056 0.100768 0.064880
v 0.016045 0.107792 0.065891
v -0.016285 0.111998 0.065558
v -0.020464 0.085424 0.077123
v -0.024069 0.057627 0.085254
v -0.027324 0.029016 0.090038
v -0.065823 -0.081365 0.075135
v -0.066405 -0.053809 0.082979
v -0.094220 -0.049265 0.078422
v -0.092460 -0.075700 0.071593
v -0.065307 -0.025516 0.087588
v -0.094391 -0.021919 0.082269
v -0.118496 -0.045704 0.070933
v -0.114843 -0.070499 0.065651
v -0.120277 -0.019321 0.073754
v -0.062821 0.003085 0.089138
v -0.092578 0.005775 0.083517
v -0.119272 0.007677 0.074617
v -0.142450 0.008398 0.062359
v -0.142535 -0.018864 0.061870
v -0.138841 -0.045229 0.060141
v -0.132326 -0.069123 0.056873
v -0.059277 0.031564 0.087741
v -0.055116 0.059503 0.083265
v -0.083617 0.059904 0.078691
v -0.088718 0.033238 0.082413
v -0.050820 0.086490 0.075515
v -0.078399 0.085241 0.071950
v -0.108994 0.059808 0.071174
v -0.115177 0.034363 0.073883
v -0.102299 0.083090 0.065969
v -0.046919 0.112133 0.064294
v -0.074590 0.108863 0.061770
v -0.097995 0.103443 0.057744
v -0.113682 0.098199 0.053610
v -0.121589 0.082856 0.057146
v -0.130749 0.060638 0.060346
v -0.138195 0.035316 0.061980
v 0.087118 0.111931 0.050377
v 0.100971 0.129050 0.035221
v 0.066995 0.143961 0.034873
v 0.056318 0.123829 0.051253
v 0.114548 0.143493 0.017591
v 0.077572 0.159981 0.016717
v 0.030460 0.153877 0.034234
v 0.022645 0.132423 0.051311
v 0.038102 0.170541 0.015753
v 0.112020 0.096167 0.049931
v 0.130022 0.109193 0.035663
v 0.146732 0.121482 0.018370
v 0.159140 0.130432 -0.000095
v 0.125011 0.153285 -0.000960
v 0.085917 0.170172 -0.001951
v 0.044233 0.180732 -0.003008
v 0.002331 0.184605 -0.004071
v -0.001573 0.174693 0.014755
v -0.006347 0.158184 0.033371
v -0.011437 0.136733 0.050672
v 0.130376 0.156619 -0.018806
v 0.131031 0.153405 -0.034634
v 0.092030 0.168340 -0.035963
v 0.090530 0.173015 -0.019859
v 0.128547 0.143936 -0.047332
v 0.091807 0.156257 -0.049338
v 0.049566 0.177355 -0.037198
v 0.047889 0.183059 -0.020959
v 0.050150 0.163752 -0.050876
v 0.165005 0.134033 -0.017902
v 0.164339 0.132379 -0.033586
v 0.158153 0.126444 -0.045834
v 0.150337 0.119552 -0.053166
v 0.127409 0.127982 -0.056316
v 0.092195 0.136659 -0.059278
v 0.050647 0.142354 -0.061170
v 0.006958 0.144334 -0.062398
v 0.006983 0.166290 -0.052039
v 0.006404 0.180414 -0.038316
v 0.004944 0.186566 -0.022051
v -0.043823 0.135856 0.049625
v -0.041408 0.156347 0.032412
v -0.073701 0.148726 0.031306
v -0.073317 0.130315 0.047966
v -0.039425 0.172095 0.013787
v -0.074469 0.163024 0.012863
v -0.102488 0.135802 0.030063
v -0.098952 0.120808 0.045660
v -0.105980 0.147894 0.011999
v -0.037681 0.181546 -0.005085
v -0.074763 0.171770 -0.006025
v -0.108139 0.155608 -0.006871
v -0.137036 0.133391 -0.007604
v -0.133250 0.127072 0.011271
v -0.127159 0.117658 0.029142
v -0.119890 0.106956 0.044051
v -0.036078 0.183403 -0.023088
v -0.034855 0.177457 -0.039339
v -0.072801 0.168540 -0.040142
v -0.074064 0.173689 -0.024032
v -0.034359 0.163764 -0.053019
v -0.071824 0.156282 -0.053487
v -0.106425 0.153695 -0.040655
v -0.108192 0.157599 -0.024854
v -0.103840 0.143972 -0.053224
v -0.035029 0.142354 -0.063343
v -0.072726 0.136659 -0.063460
v -0.103727 0.127982 -0.062176
v -0.123665 0.119552 -0.060113
v -0.129684 0.126490 -0.053132
v -0.135118 0.132749 -0.041178
v -0.137689 0.135281 -0.025577
v 0.132401 0.104398 -0.061615
v 0.139487 0.073896 -0.064288
v 0.098857 0.076695 -0.068515
v 0.094987 0.109685 -0.065417
v 0.144647 0.038267 -0.065226
v 0.101914 0.039437 -0.069617
v 0.053323 0.078960 -0.070849
v 0.051818 0.113559 -0.067580
v 0.054575 0.040459 -0.072036
v 0.161215 0.100913 -0.055459
v 0.172433 0.072087 -0.057244
v 0.179822 0.037479 -0.057895
v 0.182400 0.000001 -0.057950
v 0.146542 0.000001 -0.065331
v 0.103117 0.000001 -0.069755
v 0.055094 0.000001 -0.072197
v 0.005443 0.000001 -0.073630
v 0.005635 0.040893 -0.073451
v 0.006082 0.079861 -0.072215
v 0.006588 0.114982 -0.068879
v 0.144647 -0.038265 -0.065226
v 0.139487 -0.073893 -0.064288
v 0.098857 -0.076692 -0.068515
v 0.101914 -0.039434 -0.069617
v 0.132401 -0.104395 -0.061615
v 0.094987 -0.109682 -0.065417
v 0.053323 -0.078957 -0.070849
v 0.054575 -0.040456 -0.072036
v 0.051818 -0.113556 -0.067580
v 0.179822 -0.037476 -0.057895
v 0.172433 -0.072084 -0.057244
v 0.161215 -0.100910 -0.055459
v 0.006588 -0.114979 -0.068879
v 0.006082 -0.079858 -0.072215
v 0.005635 -0.040890 -0.073451
v -0.037083 0.113559 -0.069834
v -0.039748 0.078960 -0.073209
v -0.081780 0.076695 -0.073095
v -0.076600 0.109685 -0.069767
v -0.042024 0.040459 -0.074485
v -0.086058 0.039437 -0.074383
v -0.117862 0.073896 -0.070813
v -0.109683 0.104398 -0.067753
v -0.124261 0.038267 -0.072044
v -0.042985 0.000001 -0.074683
v -0.087811 0.000001 -0.074596
v -0.126776 0.000001 -0.072260
v -0.157620 0.000001 -0.066571
v -0.154454 0.037479 -0.066371
v -0.146048 0.072087 -0.065319
v -0.134341 0.100913 -0.062953
v -0.042024 -0.040456 -0.074485
v -0.039748 -0.078957 -0.073209
v -0.081780 -0.076692 -0.073095
v -0.086058 -0.039434 -0.074383
v -0.037083 -0.113556 -0.069834
v -0.076600 -0.109682 -0.069767
v -0.117862 -0.073893 -0.070813
v -0.124261 -0.038265 -0.072044
v -0.109683 -0.104395 -0.067753
v -0.134341 -0.100910 -0.062953
v -0.146048 -0.072084 -0.065319
v -0.154454 -0.037476 -0.066371
v 0.180015 0.102495 -0.046027
v 0.190252 0.105289 -0.033133
v 0.208635 0.073166 -0.033007
v 0.195527 0.072332 -0.046708
v 0.192396 0.105631 -0.017233
v 0.212062 0.072674 -0.016777
v 0.219682 0.037388 -0.032885
v 0.204993 0.037390 -0.046950
v 0.223895 0.036654 -0.016497
v 0.186285 0.102150 0.000593
v 0.205853 0.069685 0.001090
v 0.217605 0.034460 0.001388
v 0.221301 -0.002103 0.001481
v 0.227757 -0.000886 -0.016402
v 0.223353 -0.000261 -0.032815
v 0.208199 -0.000031 -0.046938
v 0.172183 0.094495 0.019052
v 0.152247 0.084542 0.036521
v 0.167662 0.056225 0.037425
v 0.190389 0.063706 0.019578
v 0.128897 0.074892 0.051437
v 0.139938 0.049295 0.053373
v 0.176614 0.025600 0.037940
v 0.201181 0.030442 0.019887
v 0.146283 0.021281 0.054445
v 0.147411 -0.007724 0.054700
v 0.178853 -0.006048 0.038066
v 0.204314 -0.003976 0.019976
v 0.204980 -0.037451 -0.046950
v 0.219580 -0.037900 -0.032888
v 0.208434 -0.073648 -0.033012
v 0.195502 -0.072390 -0.046709
v 0.223551 -0.038391 -0.016506
v 0.211386 -0.074309 -0.016794
v 0.189961 -0.105723 -0.033140
v 0.179979 -0.102547 -0.046028
v 0.191413 -0.107102 -0.017258
v 0.216789 -0.038581 0.001367
v 0.204251 -0.073564 0.001049
v 0.183957 -0.105641 0.000534
v 0.199622 -0.038237 0.019848
v 0.174137 -0.037452 0.037877
v 0.162883 -0.067361 0.037304
v 0.187338 -0.071040 0.019500
v 0.142841 -0.036414 0.054358
v 0.133437 -0.063480 0.053208
v 0.145479 -0.094523 0.036350
v 0.167771 -0.101091 0.018940
v 0.120003 -0.087548 0.051211
v -0.149802 -0.102492 -0.054389
v -0.158681 -0.105285 -0.041980
v -0.176015 -0.073162 -0.042759
v -0.165052 -0.072329 -0.055851
v -0.162798 -0.105625 -0.026239
v -0.180597 -0.072669 -0.026733
v -0.187001 -0.037385 -0.043197
v -0.175076 -0.037387 -0.056587
v -0.191702 -0.036651 -0.027034
v -0.163028 -0.102138 -0.008263
v -0.180097 -0.069677 -0.008696
v -0.190608 -0.034457 -0.008963
v -0.193971 0.002100 -0.009048
v -0.195441 0.000887 -0.027132
v -0.190827 0.000264 -0.043316
v -0.178698 0.000034 -0.056747
v -0.160006 -0.094477 0.010630
v -0.153958 -0.084516 0.028758
v -0.167163 -0.056210 0.028936
v -0.175531 -0.063695 0.010300
v -0.144921 -0.074863 0.044494
v -0.155006 -0.049277 0.045895
v -0.174948 -0.025598 0.029026
v -0.184916 -0.030440 0.010098
v -0.160799 -0.021279 0.046659
v -0.161709 0.007709 0.046862
v -0.176829 0.006036 0.029048
v -0.187640 0.003970 0.010038
v -0.175063 0.037454 -0.056586
v -0.186899 0.037902 -0.043194
v -0.175815 0.073649 -0.042754
v -0.165027 0.072393 -0.055850
v -0.191359 0.038390 -0.027026
v -0.179923 0.074306 -0.026716
v -0.158391 0.105724 -0.041972
v -0.149766 0.102549 -0.054388
v -0.161818 0.107099 -0.026214
v -0.189794 0.038575 -0.008942
v -0.178498 0.073555 -0.008655
v -0.160705 0.105630 -0.008204
v -0.183361 0.038222 0.010138
v -0.172477 0.037429 0.029089
v -0.162396 0.067329 0.029057
v -0.172487 0.071020 0.010377
v -0.157365 0.036383 0.046747
v -0.148519 0.063439 0.046059
v -0.147206 0.094488 0.028929
v -0.155604 0.101068 0.010741
v -0.136046 0.087504 0.044719
f 1 2 3
f 1 3 4
f 2 5 6
f 2 6 3
f 4 3 7
f 4 7 8
f 3 6 9
f 3 9 7
f 10 11 1
f 10 1 12
f 11 13 2
f 11 2 1
f 13 14 5
f 13 5 2
f 14 15 16
f 14 16 5
f 5 16 17
f 5 17 6
f 6 17 18
f 6 18 9
f 9 18 19
f 9 19 20
f 7 9 20
f 7 20 21
f 8 7 21
f 8 21 22
f 23 8 22
f 23 22 24
f 25 4 8
f 25 8 23
f 12 1 4
f 12 4 25
f 26 27 28
f 26 28 29
f 27 30 31
f 27 31 28
f 29 28 32
f 29 32 33
f 28 31 34
f 28 34 32
f 15 35 26
f 15 26 16
f 35 36 27
f 35 27 26
f 36 37 30
f 36 30 27
f 37 38 39
f 37 39 30
f 30 39 40
f 30 40 31
f 31 40 41
f 31 41 34
f 34 41 42
f 34 42 43
f 32 34 43
f 32 43 44
f 33 32 44
f 33 44 45
f 18 33 45
f 18 45 19
f 17 29 33
f 17 33 18
f 16 26 29
f 16 29 17
f 46 47 48
f 46 48 49
f 47 50 51
f 47 51 48
f 49 48 52
f 49 52 53
f 48 51 54
f 48 54 52
f 24 22 46
f 24 46 55
f 22 21 47
f 22 47 46
f 21 20 50
f 21 50 47
f 20 19 56
f 20 56 50
f 50 56 57
f 50 57 51
f 51 57 58
f 51 58 54
f 54 58 59
f 54 59 60
f 52 54 60
f 52 60 61
f 53 52 61
f 53 61 62
f 63 53 62
f 63 62 64
f 65 49 53
f 65 53 63
f 55 46 49
f 55 49 65
f 66 67 68
f 66 68 69
f 67 70 71
f 67 71 68
f 69 68 72
f 69 72 73
f 68 71 74
f 68 74 72
f 19 45 66
f 19 66 56
f 45 44 67
f 45 67 66
f 44 43 70
f 44 70 67
f 43 42 75
f 43 75 70
f 70 75 76
f 70 76 71
f 71 76 77
f 71 77 74
f 74 77 78
f 74 78 79
f 72 74 79
f 72 79 80
f 73 72 80
f 73 80 81
f 58 73 81
f 58 81 59
f 57 69 73
f 57 73 58
f 56 66 69
f 56 69 57
f 82 83 84
f 82 84 85
f 83 86 87
f 83 87 84
f 85 84 88
f 85 88 89
f 84 87 90
f 84 90 88
f 38 91 82
f 38 82 39
f 91 92 83
f 91 83 82
f 92 93 86
f 92 86 83
f 93 94 95
f 93 95 86
f 86 95 96
f 86 96 87
f 87 96 97
f 87 97 90
f 90 97 98
f 90 98 99
f 88 90 99
f 88 99 100
f 89 88 100
f 89 100 101
f 41 89 101
f 41 101 42
f 40 85 89
f 40 89 41
f 39 82 85
f 39 85 40
f 102 103 104
f 102 104 105
f 103 106 107
f 103 107 104
f 105 104 108
f 105 108 109
f 104 107 110
f 104 110 108
f 94 111 102
f 94 102 95
f 111 112 103
f 111 103 102
f 112 113 106
f 112 106 103
f 113 114 115
f 113 115 106
f 106 115 116
f 106 116 107
f 107 116 117
f 107 117 110
f 110 117 118
f 110 118 119
f 108 110 119
f 108 119 120
f 109 108 120
f 109 120 121
f 97 109 121
f 97 121 98
f 96 105 109
f 96 109 97
f 95 102 105
f 95 105 96
f 122 123 124
f 122 124 125
f 123 126 127
f 123 127 124
f 125 124 128
f 125 128 129
f 124 127 130
f 124 130 128
f 42 101 122
f 42 122 75
f 101 100 123
f 101 123 122
f 100 99 126
f 100 126 123
f 99 98 131
f 99 131 126
f 126 131 132
f 126 132 127
f 127 132 133
f 127 133 130
f 130 133 134
f 130 134 135
f 128 130 135
f 128 135 136
f 129 128 136
f 129 136 137
f 77 129 137
f 77 137 78
f 76 125 129
f 76 129 77
f 75 122 125
f 75 125 76
f 138 139 140
f 138 140 141
f 139 142 143
f 139 143 140
f 141 140 144
f 141 144 145
f 140 143 146
f 140 146 144
f 98 121 138
f 98 138 131
f 121 120 139
f 121 139 138
f 120 119 142
f 120 142 139
f 119 118 147
f 119 147 142
f 142 147 148
f 142 148 143
f 143 148 149
f 143 149 146
f 146 149 150
f 146 150 151
f 144 146 151
f 144 151 152
f 145 144 152
f 145 152 153
f 133 145 153
f 133 153 134
f 132 141 145
f 132 145 133
f 131 138 141
f 131 141 132
f 154 155 156
f 154 156 157
f 155 158 159
f 155 159 156
f 157 156 160
f 157 160 161
f 156 159 162
f 156 162 160
f 114 163 154
f 114 154 115
f 163 164 155
f 163 155 154
f 164 165 158
f 164 158 155
f 165 166 167
f 165 167 158
f 158 167 168
f 158 168 159
f 159 168 169
f 159 169 162
f 162 169 170
f 162 170 171
f 160 162 171
f 160 171 172
f 161 160 172
f 161 172 173
f 117 161 173
f 117 173 118
f 116 157 161
f 116 161 117
f 115 154 157
f 115 157 116
f 174 175 176
f 174 176 177
f 175 178 179
f 175 179 176
f 177 176 180
f 177 180 181
f 176 179 182
f 176 182 180
f 166 183 174
f 166 174 167
f 183 184 175
f 183 175 174
f 184 185 178
f 184 178 175
f 185 186 187
f 185 187 178
f 178 187 188
f 178 188 179
f 179 188 189
f 179 189 182
f 182 189 190
f 182 190 191
f 180 182 191
f 180 191 192
f 181 180 192
f 181 192 193
f 169 181 193
f 169 193 170
f 168 177 181
f 168 181 169
f 167 174 177
f 167 177 168
f 194 195 196
f 194 196 197
f 195 198 199
f 195 199 196
f 197 196 200
f 197 200 201
f 196 199 202
f 196 202 200
f 118 173 194
f 118 194 147
f 173 172 195
f 173 195 194
f 172 171 198
f 172 198 195
f 171 170 203
f 171 203 198
f 198 203 204
f 198 204 199
f 199 204 205
f 199 205 202
f 202 205 206
f 202 206 207
f 200 202 207
f 200 207 208
f 201 200 208
f 201 208 209
f 149 201 209
f 149 209 150
f 148 197 201
f 148 201 149
f 147 194 197
f 147 197 148
f 210 211 212
f 210 212 213
f 211 214 215
f 211 215 212
f 213 212 216
f 213 216 217
f 212 215 218
f 212 218 216
f 170 193 210
f 170 210 203
f 193 192 211
f 193 211 210
f 192 191 214
f 192 214 211
f 191 190 219
f 191 219 214
f 214 219 220
f 214 220 215
f 215 220 221
f 215 221 218
f 218 221 222
f 218 222 223
f 216 218 223
f 216 223 224
f 217 216 224
f 217 224 225
f 205 217 225
f 205 225 206
f 204 213 217
f 204 217 205
f 203 210 213
f 203 213 204
f 226 227 228
f 226 228 229
f 227 230 231
f 227 231 228
f 229 228 232
f 229 232 233
f 228 231 234
f 228 234 232
f 186 235 226
f 186 226 187
f 235 236 227
f 235 227 226
f 236 237 230
f 236 230 227
f 237 238 239
f 237 239 230
f 230 239 240
f 230 240 231
f 231 240 241
f 231 241 234
f 234 241 242
f 234 242 243
f 232 234 243
f 232 243 244
f 233 232 244
f 233 244 245
f 189 233 245
f 189 245 190
f 188 229 233
f 188 233 189
f 187 226 229
f 187 229 188
f 246 247 248
f 246 248 249
f 247 250 251
f 247 251 248
f 249 248 252
f 249 252 253
f 248 251 254
f 248 254 252
f 238 255 246
f 238 246 239
f 255 256 247
f 255 247 246
f 256 257 250
f 256 250 247
f 257 10 12
f 257 12 250
f 250 12 25
f 250 25 251
f 251 25 23
f 251 23 254
f 254 23 24
f 254 24 258
f 252 254 258
f 252 258 259
f 253 252 259
f 253 259 260
f 241 253 260
f 241 260 242
f 240 249 253
f 240 253 241
f 239 246 249
f 239 249 240
f 261 262 263
f 261 263 264
f 262 265 266
f 262 266 263
f 264 263 267
f 264 267 268
f 263 266 269
f 263 269 267
f 190 245 261
f 190 261 219
f 245 244 262
f 245 262 261
f 244 243 265
f 244 265 262
f 243 242 270
f 243 270 265
f 265 270 271
f 265 271 266
f 266 271 272
f 266 272 269
f 269 272 273
f 269 273 274
f 267 269 274
f 267 274 275
f 268 267 275
f 268 275 276
f 221 268 276
f 221 276 222
f 220 264 268
f 220 268 221
f 219 261 264
f 219 264 220
f 277 278 279
f 277 279 280
f 278 281 282
f 278 282 279
f 280 279 283
f 280 283 284
f 279 282 285
f 279 285 283
f 242 260 277
f 242 277 270
f 260 259 278
f 260 278 277
f 259 258 281
f 259 281 278
f 258 24 55
f 258 55 281
f 281 55 65
f 281 65 282
f 282 65 63
f 282 63 285
f 285 63 64
f 285 64 286
f 283 285 286
f 283 286 287
f 284 283 287
f 284 287 288
f 272 284 288
f 272 288 273
f 271 280 284
f 271 284 272
f 270 277 280
f 270 280 271
f 289 290 291
f 289 291 292
f 290 293 294
f 290 294 291
f 292 291 295
f 292 295 296
f 291 294 297
f 291 297 295
f 186 185 289
f 186 289 235
f 185 184 290
f 185 290 289
f 184 183 293
f 184 293 290
f 183 166 298
f 183 298 293
f 293 298 299
f 293 299 294
f 294 299 300
f 294 300 297
f 297 300 301
f 297 301 302
f 295 297 302
f 295 302 303
f 296 295 303
f 296 303 304
f 237 296 304
f 237 304 238
f 236 292 296
f 236 296 237
f 235 289 292
f 235 292 236
f 305 306 307
f 305 307 308
f 306 309 310
f 306 310 307
f 308 307 311
f 308 311 312
f 307 310 313
f 307 313 311
f 166 165 305
f 166 305 298
f 165 164 306
f 165 306 305
f 164 163 309
f 164 309 306
f 163 114 113
f 163 113 309
f 309 113 112
f 309 112 310
f 310 112 111
f 310 111 313
f 313 111 94
f 313 94 314
f 311 313 314
f 311 314 315
f 312 311 315
f 312 315 316
f 300 312 316
f 300 316 301
f 299 308 312
f 299 312 300
f 298 305 308
f 298 308 299
f 317 318 319
f 317 319 320
f 318 321 322
f 318 322 319
f 320 319 323
f 320 323 324
f 319 322 325
f 319 325 323
f 238 304 317
f 238 317 255
f 304 303 318
f 304 318 317
f 303 302 321
f 303 321 318
f 302 301 326
f 302 326 321
f 321 326 327
f 321 327 322
f 322 327 328
f 322 328 325
f 325 328 15
f 325 15 14
f 323 325 14
f 323 14 13
f 324 323 13
f 324 13 11
f 257 324 11
f 257 11 10
f 256 320 324
f 256 324 257
f 255 317 320
f 255 320 256
f 329 330 331
f 329 331 332
f 330 333 334
f 330 334 331
f 332 331 335
f 332 335 336
f 331 334 337
f 331 337 335
f 301 316 329
f 301 329 326
f 316 315 330
f 316 330 329
f 315 314 333
f 315 333 330
f 314 94 93
f 314 93 333
f 333 93 92
f 333 92 334
f 334 92 91
f 334 91 337
f 337 91 38
f 337 38 37
f 335 337 37
f 335 37 36
f 336 335 36
f 336 36 35
f 328 336 35
f 328 35 15
f 327 332 336
f 327 336 328
f 326 329 332
f 326 332 327
f 338 339 340
f 338 340 341
f 339 342 343
f 339 343 340
f 341 340 344
f 341 344 345
f 340 343 346
f 340 346 344
f 64 62 338
f 64 338 286
f 62 61 339
f 62 339 338
f 61 60 342
f 61 342 339
f 60 59 347
f 60 347 342
f 342 347 348
f 342 348 343
f 343 348 349
f 343 349 346
f 346 349 350
f 346 350 351
f 344 346 351
f 344 351 352
f 345 344 352
f 345 352 353
f 288 345 353
f 288 353 273
f 287 341 345
f 287 345 288
f 286 338 341
f 286 341 287
f 354 355 356
f 354 356 357
f 355 358 359
f 355 359 356
f 357 356 360
f 357 360 361
f 356 359 362
f 356 362 360
f 59 81 354
f 59 354 347
f 81 80 355
f 81 355 354
f 80 79 358
f 80 358 355
f 79 78 137
f 79 137 358
f 358 137 136
f 358 136 359
f 359 136 135
f 359 135 362
f 362 135 134
f 362 134 363
f 360 362 363
f 360 363 364
f 361 360 364
f 361 364 365
f 349 361 365
f 349 365 350
f 348 357 361
f 348 361 349
f 347 354 357
f 347 357 348
f 366 367 368
f 366 368 369
f 367 370 371
f 367 371 368
f 369 368 372
f 369 372 373
f 368 371 374
f 368 374 372
f 273 353 366
f 273 366 274
f 353 352 367
f 353 367 366
f 352 351 370
f 352 370 367
f 351 350 375
f 351 375 370
f 370 375 376
f 370 376 371
f 371 376 377
f 371 377 374
f 374 377 206
f 374 206 225
f 372 374 225
f 372 225 224
f 373 372 224
f 373 224 223
f 276 373 223
f 276 223 222
f 275 369 373
f 275 373 276
f 274 366 369
f 274 369 275
f 378 379 380
f 378 380 381
f 379 382 383
f 379 383 380
f 381 380 384
f 381 384 385
f 380 383 386
f 380 386 384
f 350 365 378
f 350 378 375
f 365 364 379
f 365 379 378
f 364 363 382
f 364 382 379
f 363 134 153
f 363 153 382
f 382 153 152
f 382 152 383
f 383 152 151
f 383 151 386
f 386 151 150
f 386 150 209
f 384 386 209
f 384 209 208
f 385 384 208
f 385 208 207
f 377 385 207
f 377 207 206
f 376 381 385
f 376 385 377
f 375 378 381
f 375 381 376
